<svg xmlns="http://www.w3.org/2000/svg" xmlns:xlink="http://www.w3.org/1999/xlink" contentStyleType="text/css" data-diagram-type="CLASS" height="318px" preserveAspectRatio="none" style="width:1764px;height:318px;background:#FFFFFF;" version="1.1" viewBox="0 0 1764 318" width="1764px" zoomAndPan="magnify"><defs/><g><!--cluster dpv--><g id="cluster_dpv"><path d="M99.53,52.65 L127.3884,52.65 A3.75,3.75 0 0 1 129.8884,55.15 L136.8884,75.1383 L717.74,75.1383 A2.5,2.5 0 0 1 720.24,77.6383 L720.24,267.15 A2.5,2.5 0 0 1 717.74,269.65 L99.53,269.65 A2.5,2.5 0 0 1 97.03,267.15 L97.03,55.15 A2.5,2.5 0 0 1 99.53,52.65 " fill="transparent" style="stroke:#000000;stroke-width:1.5;"/><line style="stroke:#000000;stroke-width:1.5;" x1="97.03" x2="136.8884" y1="75.1383" y2="75.1383"/><text fill="#000000" font-family="sans-serif" font-size="14" font-weight="bold" lengthAdjust="spacing" textLength="26.8584" x="101.03" y="68.1852">dpv</text></g><!--cluster ai--><g id="cluster_ai"><path d="M827.97,47.65 L841.7532,47.65 A3.75,3.75 0 0 1 844.2532,50.15 L851.2532,70.1383 L1724.22,70.1383 A2.5,2.5 0 0 1 1726.72,72.6383 L1726.72,148.15 A2.5,2.5 0 0 1 1724.22,150.65 L827.97,150.65 A2.5,2.5 0 0 1 825.47,148.15 L825.47,50.15 A2.5,2.5 0 0 1 827.97,47.65 " fill="transparent" style="stroke:#000000;stroke-width:1.5;"/><line style="stroke:#000000;stroke-width:1.5;" x1="825.47" x2="851.2532" y1="70.1383" y2="70.1383"/><text fill="#000000" font-family="sans-serif" font-size="14" font-weight="bold" lengthAdjust="spacing" textLength="12.7832" x="829.47" y="63.1852">ai</text></g><!--class Technology--><g id="elem_Technology"><rect codeLine="5" fill="#F1F1F1" height="26.4883" id="Technology" rx="2.5" ry="2.5" style="stroke:#181818;stroke-width:0.5;" width="84.4902" x="619.75" y="89.41"/><text fill="#000000" font-family="sans-serif" font-size="14" lengthAdjust="spacing" textLength="78.4902" x="622.75" y="107.9452">Technology</text></g><!--class Process--><g id="elem_Process"><rect codeLine="6" fill="#F1F1F1" height="26.4883" id="Process" rx="2.5" ry="2.5" style="stroke:#181818;stroke-width:0.5;" width="57.3105" x="113.03" y="120.41"/><text fill="#000000" font-family="sans-serif" font-size="14" lengthAdjust="spacing" textLength="51.3105" x="116.03" y="138.9452">Process</text></g><!--class Data --><g id="elem_Data "><rect codeLine="7" fill="#F1F1F1" height="26.4883" id="Data " rx="2.5" ry="2.5" style="stroke:#181818;stroke-width:0.5;" width="41.6152" x="641.19" y="152.41"/><text fill="#000000" font-family="sans-serif" font-size="14" lengthAdjust="spacing" textLength="31.1855" x="644.19" y="170.9452">Data</text></g><!--class Purpose--><g id="elem_Purpose"><rect codeLine="8" fill="#F1F1F1" height="26.4883" id="Purpose" rx="2.5" ry="2.5" style="stroke:#181818;stroke-width:0.5;" width="60.5029" x="631.74" y="218.41"/><text fill="#000000" font-family="sans-serif" font-size="14" lengthAdjust="spacing" textLength="54.5029" x="634.74" y="236.9452">Purpose</text></g><!--class AI--><g id="elem_AI"><rect codeLine="12" fill="#F1F1F1" height="26.4883" id="AI" rx="2.5" ry="2.5" style="stroke:#181818;stroke-width:0.5;" width="19.6924" x="841.47" y="86.41"/><text fill="#000000" font-family="sans-serif" font-size="14" lengthAdjust="spacing" textLength="13.6924" x="844.47" y="104.9452">AI</text></g><!--class Capability--><g id="elem_Capability"><rect codeLine="13" fill="#F1F1F1" height="26.4883" id="Capability" rx="2.5" ry="2.5" style="stroke:#181818;stroke-width:0.5;" width="73.4639" x="1100.4" y="86.41"/><text fill="#000000" font-family="sans-serif" font-size="14" lengthAdjust="spacing" textLength="67.4639" x="1103.4" y="104.9452">Capability</text></g><!--class Technique--><g id="elem_Technique"><rect codeLine="14" fill="#F1F1F1" height="26.4883" id="Technique" rx="2.5" ry="2.5" style="stroke:#181818;stroke-width:0.5;" width="76.5469" x="1394.71" y="86.41"/><text fill="#000000" font-family="sans-serif" font-size="14" lengthAdjust="spacing" textLength="70.5469" x="1397.71" y="104.9452">Technique</text></g><!--class Data--><g id="elem_Data"><rect codeLine="15" fill="#F1F1F1" height="26.4883" id="Data" rx="2.5" ry="2.5" style="stroke:#181818;stroke-width:0.5;" width="37.1855" x="1673.53" y="86.41"/><text fill="#000000" font-family="sans-serif" font-size="14" lengthAdjust="spacing" textLength="31.1855" x="1676.53" y="104.9452">Data</text></g><g id="elem_GMN20"><path d="M580.36,286 L580.36,311.3105 A0,0 0 0 0 580.36,311.3105 L743.6173,311.3105 A0,0 0 0 0 743.6173,311.3105 L743.6173,296 L733.6173,286 L665.99,286 L661.99,245.13 L657.99,286 L580.36,286 A0,0 0 0 0 580.36,286 " fill="#FEFFDD" style="stroke:#181818;stroke-width:0.5;"/><path d="M733.6173,286 L733.6173,296 L743.6173,296 L733.6173,286 " fill="#FEFFDD" style="stroke:#181818;stroke-width:0.5;"/><text fill="#000000" font-family="sans-serif" font-size="13" lengthAdjust="spacing" textLength="142.2573" x="586.36" y="303.5684">identity authentication</text></g><g id="elem_GMN23"><path d="M6,11 L6,36.3105 A0,0 0 0 0 6,36.3105 L137.68,36.3105 L141.68,120.33 L145.68,36.3105 L277.3643,36.3105 A0,0 0 0 0 277.3643,36.3105 L277.3643,21 L267.3643,11 L6,11 A0,0 0 0 0 6,11 " fill="#FEFFDD" style="stroke:#181818;stroke-width:0.5;"/><path d="M267.3643,11 L267.3643,21 L277.3643,21 L267.3643,11 " fill="#FEFFDD" style="stroke:#181818;stroke-width:0.5;"/><text fill="#000000" font-family="sans-serif" font-size="13" lengthAdjust="spacing" textLength="250.3643" x="12" y="28.5684">unlocking phone using face recognition</text></g><g id="elem_GMN26"><path d="M804.62,219 L804.62,244.3105 A0,0 0 0 0 804.62,244.3105 L898.015,244.3105 A0,0 0 0 0 898.015,244.3105 L898.015,229 L888.015,219 L817.03,219 L683.04,172.72 L809.03,219 L804.62,219 A0,0 0 0 0 804.62,219 " fill="#FEFFDD" style="stroke:#181818;stroke-width:0.5;"/><path d="M888.015,219 L888.015,229 L898.015,229 L888.015,219 " fill="#FEFFDD" style="stroke:#181818;stroke-width:0.5;"/><text fill="#000000" font-family="sans-serif" font-size="13" lengthAdjust="spacing" textLength="72.395" x="810.62" y="236.5684">user profile</text></g><g id="elem_GMN29"><path d="M1072.02,6 L1072.02,31.3105 A0,0 0 0 0 1072.02,31.3105 L1133.14,31.3105 L1137.14,86.05 L1141.14,31.3105 L1202.2568,31.3105 A0,0 0 0 0 1202.2568,31.3105 L1202.2568,16 L1192.2568,6 L1072.02,6 A0,0 0 0 0 1072.02,6 " fill="#FEFFDD" style="stroke:#181818;stroke-width:0.5;"/><path d="M1192.2568,6 L1192.2568,16 L1202.2568,16 L1192.2568,6 " fill="#FEFFDD" style="stroke:#181818;stroke-width:0.5;"/><text fill="#000000" font-family="sans-serif" font-size="13" lengthAdjust="spacing" textLength="109.2368" x="1078.02" y="23.5684">facial recognition</text></g><g id="elem_GMN32"><path d="M1379.25,6 L1379.25,31.3105 A0,0 0 0 0 1379.25,31.3105 L1428.98,31.3105 L1432.98,86.05 L1436.98,31.3105 L1486.7114,31.3105 A0,0 0 0 0 1486.7114,31.3105 L1486.7114,16 L1476.7114,6 L1379.25,6 A0,0 0 0 0 1379.25,6 " fill="#FEFFDD" style="stroke:#181818;stroke-width:0.5;"/><path d="M1476.7114,6 L1476.7114,16 L1486.7114,16 L1476.7114,6 " fill="#FEFFDD" style="stroke:#181818;stroke-width:0.5;"/><text fill="#000000" font-family="sans-serif" font-size="13" lengthAdjust="spacing" textLength="86.4614" x="1385.25" y="23.5684">deep learning</text></g><g id="elem_GMN35"><path d="M1626.71,6 L1626.71,31.3105 A0,0 0 0 0 1626.71,31.3105 L1688.13,31.3105 L1692.13,86.05 L1696.13,31.3105 L1757.5308,31.3105 A0,0 0 0 0 1757.5308,31.3105 L1757.5308,16 L1747.5308,6 L1626.71,6 A0,0 0 0 0 1626.71,6 " fill="#FEFFDD" style="stroke:#181818;stroke-width:0.5;"/><path d="M1747.5308,6 L1747.5308,16 L1757.5308,16 L1747.5308,6 " fill="#FEFFDD" style="stroke:#181818;stroke-width:0.5;"/><text fill="#000000" font-family="sans-serif" font-size="13" lengthAdjust="spacing" textLength="109.8208" x="1632.71" y="23.5684">user facial profile</text></g><!--link Process to Technology--><g id="link_Process_Technology"><path codeLine="18" d="M170.55,131.99 C256.44,126.85 517.48,111.24 619.5,105.14 " fill="transparent" id="Process-Technology" style="stroke:#181818;stroke-width:1;"/><polygon fill="#000000" points="317.3511,100.7068,308.1467,98.3131,308.4976,104.1804,317.3511,100.7068" style="stroke:#000000;stroke-width:1;"/><text fill="#000000" font-family="sans-serif" font-size="13" lengthAdjust="spacing" textLength="228.8394" x="321.36" y="105.9184">dpv:isImplementedUsingTechnology</text></g><!--link Process to Data --><g id="link_Process_Data "><path codeLine="19" d="M170.63,136.57 C203.36,139.89 259.25,145.31 307.36,148.65 C434.29,157.48 587.16,163.15 641.04,164.99 " fill="transparent" id="Process-Data " style="stroke:#181818;stroke-width:1;"/><polygon fill="#000000" points="392.3509,140.6068,383.4995,137.1278,383.145,142.9949,392.3509,140.6068" style="stroke:#000000;stroke-width:1;"/><text fill="#000000" font-family="sans-serif" font-size="13" lengthAdjust="spacing" textLength="78.0381" x="396.36" y="145.2184">dpv:hasData</text></g><!--link Process to Purpose--><g id="link_Process_Purpose"><path codeLine="20" d="M170.8,144.47 C203.24,156.52 258.4,175.76 307.36,186.65 C425.77,213 570.16,225.38 631.34,229.74 " fill="transparent" id="Process-Purpose" style="stroke:#181818;stroke-width:1;"/><polygon fill="#000000" points="381.7764,179.2156,373.4176,174.679,372.3475,180.4586,381.7764,179.2156" style="stroke:#000000;stroke-width:1;"/><text fill="#000000" font-family="sans-serif" font-size="13" lengthAdjust="spacing" textLength="99.6899" x="385.86" y="183.2184">dpv:hasPurpose</text></g><!--reverse link Technology to AI--><g id="link_Technology_AI"><path codeLine="21" d="M722.5677,101.6996 C767.1877,100.9796 816.95,100.19 841.25,99.8 " fill="transparent" id="Technology-backto-AI" style="stroke:#181818;stroke-width:1;"/><polygon fill="transparent" points="704.57,101.99,722.6645,107.6988,722.4709,95.7004,704.57,101.99" style="stroke:#181818;stroke-width:1;"/></g><!--link AI to Capability--><g id="link_AI_Capability"><path codeLine="22" d="M861.44,99.65 C897.88,99.65 1034.17,99.65 1100.05,99.65 " fill="transparent" id="AI-Capability" style="stroke:#181818;stroke-width:1;"/><polygon fill="#000000" points="938.02,91.3053,928.9749,88.3663,928.9749,94.2442,938.02,91.3053" style="stroke:#000000;stroke-width:1;"/><text fill="#000000" font-family="sans-serif" font-size="13" lengthAdjust="spacing" textLength="99.5693" x="942.02" y="96.2184">ai:hasCapability</text></g><!--link Capability to Technique--><g id="link_Capability_Technique"><path codeLine="23" d="M1174.17,99.65 C1230.1,99.65 1337.31,99.65 1394.26,99.65 " fill="transparent" id="Capability-Technique" style="stroke:#181818;stroke-width:1;"/><polygon fill="#000000" points="1242.25,91.3053,1233.2049,88.3663,1233.2049,94.2442,1242.25,91.3053" style="stroke:#000000;stroke-width:1;"/><text fill="#000000" font-family="sans-serif" font-size="13" lengthAdjust="spacing" textLength="102.4321" x="1246.25" y="96.2184">ai:hasTechnique</text></g><!--link Technique to Data--><g id="link_Technique_Data"><path codeLine="24" d="M1471.65,99.65 C1527.87,99.65 1631.56,99.65 1673.16,99.65 " fill="transparent" id="Technique-Data" style="stroke:#181818;stroke-width:1;"/><polygon fill="#000000" points="1526.71,91.3053,1517.6649,88.3663,1517.6649,94.2442,1526.71,91.3053" style="stroke:#000000;stroke-width:1;"/><text fill="#000000" font-family="sans-serif" font-size="13" lengthAdjust="spacing" textLength="65.8823" x="1530.71" y="96.2184">ai:hasData</text></g><!--reverse link Data  to Data--><g id="link_Data _Data"><path codeLine="25" d="M701.23,165.65 C735.58,165.65 789.5,165.65 850.32,165.65 C850.32,165.65 850.32,165.65 1433.98,165.65 C1526.39,165.65 1631.78,125.17 1673.14,107.62 " fill="transparent" id="Data -backto-Data" style="stroke:#181818;stroke-width:1;"/><polygon fill="transparent" points="683.23,165.65,701.23,171.65,701.23,159.65,683.23,165.65" style="stroke:#181818;stroke-width:1;"/></g><!--SRC=[PLBBJiCm4BpxAvRUomTKg585bzuum0TidKsoml4QFv0guD-nKuSua9EzcfcT6UUEhJQf8mZnQkZU6RGnJKOPwYD40S_36A5ZJpgoMAKSwZSS23ht0PyAygSDXW0lf4ShHePhCtpseYc4Ph9xmeYmQp79EmcalbTjv8tqwTnS7j7XXGt7wz_b_9wecPL5HRHwWFs-yGY74k30uJmvGnFPIDrhO3iqa6DBhRuhRyGmtpUG6cI5B8EZQbGVlZ8q9pgT2sTDasd8XTMCZggvBFvBp5_mEgbBvdE6plOMLFMwP9WjpFKeAv7oCpkGll7FNIwaxCGKntBKE3_-1bs37o1P8_ejTmTk54kGIe_GeoR8VuqCbbVoxNVAzBNF5CY3yzApeHle8Z7AL52RUh8Ye_clMGsrvNH43WoXjzdA1bLxcPTMmMNt3m00]--></g></svg>