<svg xmlns="http://www.w3.org/2000/svg" xmlns:xlink="http://www.w3.org/1999/xlink" contentStyleType="text/css" height="492px" preserveAspectRatio="none" style="width:1128px;height:492px;background:#FFFFFF;" version="1.1" viewBox="0 0 1128 492" width="1128px" zoomAndPan="magnify"><defs/><g><!--cluster dpv--><g id="cluster_dpv"><path d="M69,6.602 L95.6444,6.602 A3.75,3.75 0 0 1 98.1444,9.102 L105.1444,31.6699 L1119,31.6699 A2.5,2.5 0 0 1 1121.5,34.1699 L1121.5,483.102 A2.5,2.5 0 0 1 1119,485.602 L69,485.602 A2.5,2.5 0 0 1 66.5,483.102 L66.5,9.102 A2.5,2.5 0 0 1 69,6.602 " fill="none" style="stroke:#000000;stroke-width:1.5;"/><line style="stroke:#000000;stroke-width:1.5;" x1="66.5" x2="105.1444" y1="31.6699" y2="31.6699"/><text fill="#000000" font-family="sans-serif" font-size="14" font-weight="bold" lengthAdjust="spacing" textLength="25.6444" x="70.5" y="23.5679">dpv</text></g><!--class Process--><g id="elem_Process"><rect codeLine="9" fill="#FFA07A" height="29.0679" id="Process" rx="2.5" ry="2.5" style="stroke:#181818;stroke-width:0.5;" width="56.7498" x="408" y="242.602"/><text fill="#000000" font-family="sans-serif" font-size="14" lengthAdjust="spacing" textLength="50.7498" x="411" y="262.5679">Process</text></g><!--class Data--><g id="elem_Data"><rect codeLine="10" fill="#FFA07A" height="29.0679" id="Data" rx="2.5" ry="2.5" style="stroke:#181818;stroke-width:0.5;" width="36.9819" x="83" y="350.602"/><text fill="#000000" font-family="sans-serif" font-size="14" lengthAdjust="spacing" textLength="30.9819" x="86" y="370.5679">Data</text></g><!--class PersonalData--><g id="elem_PersonalData"><rect codeLine="11" fill="#F1F1F1" height="29.0679" id="PersonalData" rx="2.5" ry="2.5" style="stroke:#181818;stroke-width:0.5;" width="94.4237" x="113.5" y="440.602"/><text fill="#000000" font-family="sans-serif" font-size="14" lengthAdjust="spacing" textLength="88.4237" x="116.5" y="460.5679">PersonalData</text></g><!--class Purpose--><g id="elem_Purpose"><rect codeLine="12" fill="#ADD8E6" height="29.0679" id="Purpose" rx="2.5" ry="2.5" style="stroke:#181818;stroke-width:0.5;" width="60.5858" x="87" y="134.602"/><text fill="#000000" font-family="sans-serif" font-size="14" lengthAdjust="spacing" textLength="54.5858" x="90" y="154.5679">Purpose</text></g><!--class DataController--><g id="elem_DataController"><rect codeLine="13" fill="#F1F1F1" height="29.0679" id="DataController" rx="2.5" ry="2.5" style="stroke:#181818;stroke-width:0.5;" width="103.1596" x="336" y="134.602"/><text fill="#000000" font-family="sans-serif" font-size="14" lengthAdjust="spacing" textLength="97.1596" x="339" y="154.5679">DataController</text></g><!--class HumanSubject--><g id="elem_HumanSubject"><rect codeLine="14" fill="#F1F1F1" height="29.0679" id="HumanSubject" rx="2.5" ry="2.5" style="stroke:#181818;stroke-width:0.5;" width="102.8516" x="516" y="44.602"/><text fill="#000000" font-family="sans-serif" font-size="14" lengthAdjust="spacing" textLength="96.8516" x="519" y="64.5679">HumanSubject</text></g><!--class DataSubject--><g id="elem_DataSubject"><rect codeLine="15" fill="#F1F1F1" height="29.0679" id="DataSubject" rx="2.5" ry="2.5" style="stroke:#181818;stroke-width:0.5;" width="85.2117" x="676" y="134.602"/><text fill="#000000" font-family="sans-serif" font-size="14" lengthAdjust="spacing" textLength="79.2117" x="679" y="154.5679">DataSubject</text></g><!--class Recipient--><g id="elem_Recipient"><rect codeLine="16" fill="#ADD8E6" height="29.0679" id="Recipient" rx="2.5" ry="2.5" style="stroke:#181818;stroke-width:0.5;" width="66.7598" x="344" y="350.602"/><text fill="#000000" font-family="sans-serif" font-size="14" lengthAdjust="spacing" textLength="60.7598" x="347" y="370.5679">Recipient</text></g><!--class Context--><g id="elem_Context"><rect codeLine="17" fill="#ADD8E6" height="29.0679" id="Context" rx="2.5" ry="2.5" style="stroke:#181818;stroke-width:0.5;" width="57.3798" x="446" y="350.602"/><text fill="#000000" font-family="sans-serif" font-size="14" lengthAdjust="spacing" textLength="51.3798" x="449" y="370.5679">Context</text></g><!--class Risk--><g id="elem_Risk"><rect codeLine="18" fill="#ADD8E6" height="29.0679" id="Risk" rx="2.5" ry="2.5" style="stroke:#181818;stroke-width:0.5;" width="32.5019" x="982" y="134.602"/><text fill="#000000" font-family="sans-serif" font-size="14" lengthAdjust="spacing" textLength="26.5019" x="985" y="154.5679">Risk</text></g><!--class OrgnaizationalMeasure--><g id="elem_OrgnaizationalMeasure"><rect codeLine="19" fill="#ADD8E6" height="29.0679" id="OrgnaizationalMeasure" rx="2.5" ry="2.5" style="stroke:#181818;stroke-width:0.5;" width="160.6154" x="538" y="350.602"/><text fill="#000000" font-family="sans-serif" font-size="14" lengthAdjust="spacing" textLength="154.6154" x="541" y="370.5679">OrgnaizationalMeasure</text></g><!--class TechnicalMeasure--><g id="elem_TechnicalMeasure"><rect codeLine="20" fill="#ADD8E6" height="29.0679" id="TechnicalMeasure" rx="2.5" ry="2.5" style="stroke:#181818;stroke-width:0.5;" width="124.9855" x="734" y="350.602"/><text fill="#000000" font-family="sans-serif" font-size="14" lengthAdjust="spacing" textLength="118.9855" x="737" y="370.5679">TechnicalMeasure</text></g><!--class Right--><g id="elem_Right"><rect codeLine="21" fill="#ADD8E6" height="29.0679" id="Right" rx="2.5" ry="2.5" style="stroke:#181818;stroke-width:0.5;" width="40.6359" x="906" y="134.602"/><text fill="#000000" font-family="sans-serif" font-size="14" lengthAdjust="spacing" textLength="34.6359" x="909" y="154.5679">Right</text></g><!--class LegalBasis--><g id="elem_LegalBasis"><rect codeLine="22" fill="#ADD8E6" height="29.0679" id="LegalBasis" rx="2.5" ry="2.5" style="stroke:#181818;stroke-width:0.5;" width="75.2857" x="796" y="134.602"/><text fill="#000000" font-family="sans-serif" font-size="14" lengthAdjust="spacing" textLength="69.2857" x="799" y="154.5679">LegalBasis</text></g><!--class Processing--><g id="elem_Processing"><rect codeLine="23" fill="#ADD8E6" height="29.0679" id="Processing" rx="2.5" ry="2.5" style="stroke:#181818;stroke-width:0.5;" width="77.6237" x="205.5" y="134.602"/><text fill="#000000" font-family="sans-serif" font-size="14" lengthAdjust="spacing" textLength="71.6237" x="208.5" y="154.5679">Processing</text></g><!--class Technology--><g id="elem_Technology"><rect codeLine="24" fill="#ADD8E6" height="29.0679" id="Technology" rx="2.5" ry="2.5" style="stroke:#181818;stroke-width:0.5;" width="82.0057" x="894.5" y="350.602"/><text fill="#000000" font-family="sans-serif" font-size="14" lengthAdjust="spacing" textLength="76.0057" x="897.5" y="370.5679">Technology</text></g><!--class Thing--><g id="elem_Thing"><rect codeLine="4" fill="#C0C0C0" height="29.0679" id="Thing" rx="2.5" ry="2.5" style="stroke:#181818;stroke-width:0.5;" width="43.3098" x="7" y="242.602"/><text fill="#000000" font-family="sans-serif" font-size="14" lengthAdjust="spacing" textLength="37.3098" x="10" y="262.5679">Thing</text></g><!--link Thing to Process--><g id="link_Thing_Process"><path codeLine="5" d="M50.44,257.102 C119.13,257.102 330.1,257.102 407.58,257.102 " fill="none" id="Thing-Process" style="stroke:#181818;stroke-width:1.0;"/><polygon fill="#000000" points="197.5,244.955,188.4549,242.0161,188.4549,247.8939,197.5,244.955" style="stroke:#000000;stroke-width:1.0;"/><text fill="#000000" font-family="sans-serif" font-size="13" lengthAdjust="spacing" textLength="68.679" x="201.5" y="249.999">hasProcess</text></g><!--reverse link Data to PersonalData--><g id="link_Data_PersonalData"><path codeLine="26" d="M120.7423,394.8037 C131.7623,411.2437 140.07,423.642 151.15,440.162 " fill="none" id="Data-backto-PersonalData" style="stroke:#181818;stroke-width:1.0;"/><polygon fill="none" points="110.72,379.852,115.7585,398.1444,125.7262,391.4629,110.72,379.852" style="stroke:#181818;stroke-width:1.0;"/></g><!--reverse link HumanSubject to DataSubject--><g id="link_HumanSubject_DataSubject"><path codeLine="27" d="M606.9806,83.1072 C635.2506,99.5872 666.46,117.772 694.69,134.222 " fill="none" id="HumanSubject-backto-DataSubject" style="stroke:#181818;stroke-width:1.0;"/><polygon fill="none" points="591.43,74.042,603.9589,88.2908,610.0024,77.9237,591.43,74.042" style="stroke:#181818;stroke-width:1.0;"/></g><!--link Purpose to Process--><g id="link_Purpose_Process"><path codeLine="29" d="M122.87,164.052 C129.27,178.672 141.42,201.082 159.5,212.602 C200.45,238.702 345.8,250.542 407.96,254.492 " fill="none" id="Purpose-Process" style="stroke:#181818;stroke-width:1.0;"/><polygon fill="#000000" points="159.7341,201.9431,167.467,207.4795,169.2444,201.8768,159.7341,201.9431" style="stroke:#000000;stroke-width:1.0;"/><text fill="#000000" font-family="sans-serif" font-size="13" lengthAdjust="spacing" textLength="72.2411" x="173.5" y="208.499">hasPurpose</text></g><!--link Processing to Process--><g id="link_Processing_Process"><path codeLine="30" d="M246.11,163.862 C248.5,178.092 254.37,199.982 268.5,212.602 C307.5,247.412 370.8,255.022 407.55,256.302 " fill="none" id="Processing-Process" style="stroke:#181818;stroke-width:1.0;"/><polygon fill="#000000" points="269.161,200.9705,275.55,208.0154,278.4707,202.9146,269.161,200.9705" style="stroke:#000000;stroke-width:1.0;"/><text fill="#000000" font-family="sans-serif" font-size="13" lengthAdjust="spacing" textLength="88.0621" x="282.5" y="208.499">hasProcessing</text></g><!--link DataController to Process--><g id="link_DataController_Process"><path codeLine="31" d="M383.26,163.982 C380.04,177.142 377.28,197.152 384.5,212.602 C390.23,224.862 401.3,234.892 411.77,242.212 " fill="none" id="DataController-Process" style="stroke:#181818;stroke-width:1.0;"/><polygon fill="#000000" points="387.788,198.7572,388.1238,208.2619,393.6463,206.2492,387.788,198.7572" style="stroke:#000000;stroke-width:1.0;"/><text fill="#000000" font-family="sans-serif" font-size="13" lengthAdjust="spacing" textLength="111.7741" x="398.5" y="208.499">hasDataController</text></g><!--link DataSubject to Process--><g id="link_DataSubject_Process"><path codeLine="32" d="M675.53,162.392 C648.09,170.542 611.92,181.872 580.5,193.602 C539.91,208.762 494.19,229.202 465.37,242.512 " fill="none" id="DataSubject-Process" style="stroke:#181818;stroke-width:1.0;"/><polygon fill="#000000" points="590.172,201.6739,580.6734,202.1498,582.7672,207.6421,590.172,201.6739" style="stroke:#000000;stroke-width:1.0;"/><text fill="#000000" font-family="sans-serif" font-size="13" lengthAdjust="spacing" textLength="95.1081" x="594.5" y="208.499">hasDataSubject</text></g><!--link HumanSubject to Process--><g id="link_HumanSubject_Process"><path codeLine="33" d="M559.87,74.012 C552.07,88.702 540.07,112.722 532.5,134.602 C520.87,168.222 535.87,184.162 514.5,212.602 C502.3,228.842 482.16,239.852 465.4,246.732 " fill="none" id="HumanSubject-Process" style="stroke:#181818;stroke-width:1.0;"/><polygon fill="#000000" points="539.8993,145.0683,532.9805,151.5936,538.1373,154.4142,539.8993,145.0683" style="stroke:#000000;stroke-width:1.0;"/><text fill="#000000" font-family="sans-serif" font-size="13" lengthAdjust="spacing" textLength="111.4881" x="546.5" y="154.499">hasHumanSubject</text></g><!--link LegalBasis to Process--><g id="link_LegalBasis_Process"><path codeLine="34" d="M803.56,164.052 C766.12,181.432 705.54,209.252 694.5,212.602 C613.44,237.212 513.56,249.052 465.3,253.662 " fill="none" id="LegalBasis-Process" style="stroke:#181818;stroke-width:1.0;"/><polygon fill="#000000" points="748.3333,202.1746,738.8372,201.6499,740.3424,207.3318,748.3333,202.1746" style="stroke:#000000;stroke-width:1.0;"/><text fill="#000000" font-family="sans-serif" font-size="13" lengthAdjust="spacing" textLength="85.8911" x="752.5" y="208.499">hasLegalBasis</text></g><!--link Right to Process--><g id="link_Right_Process"><path codeLine="35" d="M913.18,164.042 C898.07,178.872 871.94,201.682 844.5,212.602 C775.25,240.162 546.62,251.732 465.42,255.032 " fill="none" id="Right-Process" style="stroke:#181818;stroke-width:1.0;"/><polygon fill="#000000" points="885.3999,202.4593,875.9507,201.3805,877.1212,207.1406,885.3999,202.4593" style="stroke:#000000;stroke-width:1.0;"/><text fill="#000000" font-family="sans-serif" font-size="13" lengthAdjust="spacing" textLength="53.7161" x="889.5" y="208.499">hasRight</text></g><!--link Risk to Process--><g id="link_Risk_Process"><path codeLine="36" d="M992.34,164.072 C984.96,178.932 971.1,201.762 951.5,212.602 C908.85,236.182 567.7,251.072 465.4,255.032 " fill="none" id="Risk-Process" style="stroke:#181818;stroke-width:1.0;"/><polygon fill="#000000" points="981.4271,202.6045,972.0139,201.247,973.0138,207.0392,981.4271,202.6045" style="stroke:#000000;stroke-width:1.0;"/><text fill="#000000" font-family="sans-serif" font-size="13" lengthAdjust="spacing" textLength="46.163" x="985.5" y="208.499">hasRisk</text></g><!--link Process to PersonalData--><g id="link_Process_PersonalData"><path codeLine="37" d="M407.64,258.202 C367.35,259.672 293.47,267.302 242.5,301.602 C192.62,335.172 170.63,409.362 163.39,440.222 " fill="none" id="Process-PersonalData" style="stroke:#181818;stroke-width:1.0;"/><polygon fill="#000000" points="198.4908,368.4427,207.4996,365.3944,203.9874,360.6813,198.4908,368.4427" style="stroke:#000000;stroke-width:1.0;"/><text fill="#000000" font-family="sans-serif" font-size="13" lengthAdjust="spacing" textLength="103.6621" x="211.5" y="370.499">hasPersonalData</text></g><!--link Process to Data--><g id="link_Process_Data"><path codeLine="38" d="M407.51,257.902 C336.52,258.032 156.65,262.332 114.5,301.602 C101.28,313.912 99.63,335.892 100.17,350.222 " fill="none" id="Process-Data" style="stroke:#181818;stroke-width:1.0;"/><polygon fill="#000000" points="114.7114,312.8934,124.2196,313.106,122.5286,307.4766,114.7114,312.8934" style="stroke:#000000;stroke-width:1.0;"/><text fill="#000000" font-family="sans-serif" font-size="13" lengthAdjust="spacing" textLength="50.323" x="128.5" y="316.499">hasData</text></g><!--link Process to Recipient--><g id="link_Process_Recipient"><path codeLine="39" d="M407.69,260.722 C361.28,265.602 273.27,277.822 254.5,301.602 C249.27,308.232 249.62,313.702 254.5,320.602 C265.03,335.492 310.96,348.852 343.61,356.732 " fill="none" id="Process-Recipient" style="stroke:#181818;stroke-width:1.0;"/><polygon fill="#000000" points="256.7243,315.6138,264.1901,309.722,259.3011,306.4589,256.7243,315.6138" style="stroke:#000000;stroke-width:1.0;"/><text fill="#000000" font-family="sans-serif" font-size="13" lengthAdjust="spacing" textLength="77.9741" x="268.5" y="316.499">hasRecipient</text></g><!--link Process to TechnicalMeasure--><g id="link_Process_TechnicalMeasure"><path codeLine="40" d="M465.18,260.752 C509.41,265.442 596.49,277.132 666.5,301.602 C683.58,307.572 686.29,312.582 702.5,320.602 C723.29,330.892 747,341.852 765.4,350.202 " fill="none" id="Process-TechnicalMeasure" style="stroke:#181818;stroke-width:1.0;"/><polygon fill="#000000" points="712.2918,312.8827,704.4625,307.4834,702.7841,313.1165,712.2918,312.8827" style="stroke:#000000;stroke-width:1.0;"/><text fill="#000000" font-family="sans-serif" font-size="13" lengthAdjust="spacing" textLength="132.0411" x="716.5" y="316.499">hasTechnicalMeasure</text></g><!--link Process to OrgnaizationalMeasure--><g id="link_Process_OrgnaizationalMeasure"><path codeLine="41" d="M443.38,272.042 C451.06,286.222 464.77,307.872 482.5,320.602 C501.32,334.122 524.54,343.572 546.43,350.122 " fill="none" id="Process-OrgnaizationalMeasure" style="stroke:#181818;stroke-width:1.0;"/><polygon fill="#000000" points="491.4852,314.4746,486.0507,306.6696,482.501,311.3546,491.4852,314.4746" style="stroke:#000000;stroke-width:1.0;"/><text fill="#000000" font-family="sans-serif" font-size="13" lengthAdjust="spacing" textLength="165.1261" x="496.5" y="316.499">hasOrganizationalMeasure</text></g><!--link Process to Context--><g id="link_Process_Context"><path codeLine="42" d="M407.76,267.262 C379.31,277.912 342.19,297.072 358.5,320.602 C363.71,328.112 413.15,344.832 445.79,355.212 " fill="none" id="Process-Context" style="stroke:#181818;stroke-width:1.0;"/><polygon fill="#000000" points="365.4844,316.0443,364.5921,306.5757,359.197,308.9086,365.4844,316.0443" style="stroke:#000000;stroke-width:1.0;"/><text fill="#000000" font-family="sans-serif" font-size="13" lengthAdjust="spacing" textLength="69.2641" x="372.5" y="316.499">hasContext</text></g><!--link Process to Technology--><g id="link_Process_Technology"><path codeLine="43" d="M465.47,259.092 C547.92,262.232 782.54,273.462 853.5,301.602 C880.95,312.492 907.08,335.312 922.19,350.152 " fill="none" id="Process-Technology" style="stroke:#181818;stroke-width:1.0;"/><polygon fill="#000000" points="894.4035,312.4326,886.1076,307.7819,884.9583,313.5463,894.4035,312.4326" style="stroke:#000000;stroke-width:1.0;"/><text fill="#000000" font-family="sans-serif" font-size="13" lengthAdjust="spacing" textLength="198.0552" x="898.5" y="316.499">isImplementedUsingTechnology</text></g><!--SRC=[xLRBSjem55sZhr0dYoGBCo7Db0mBfWEa3meJ1aFsYdonLMJ9emVJfEs_L_A3sCRJLRjZmw1xpjLz7TtnEoOejn5WRLuuz3DEXB4fHvSSTWORYHMB4uCZfe0Q9WL2b1EjyIPX8iONcl43A5IS0XNWA3lqLqfIS9mHJeYk3cEK4RedCNWA_ebwg7U9frA1-n4KCgDHhxYwyhXO-D0XuQaBMs8pOaWdi0AbfI3S4uusgpAfeUHFk8NwDIwiKP9pbtvf_M9J8aBx_DsLMcUsJ6kWB6CWJCV5_bBuqOMicTvtc1zLB0Xx9RwtX2-1QAkwCju0JGIZVwEiyqcTsXSG4puXckaEi6nsFipke9BB-AK1ebwzspYmmQznqVTQjmfpgwVEinokGwlv538fPpLkKOxfrSNaisqHcnFDoKrJbqEPrv5TfTwYrcl8kNL3c_pMxPnQQtwBc8yhvnI3Eu7rlaITSEfWq11x-ShgbYRPcuuLjh2Zb8j8Hs4tMMtjvUGJGJPzEdMTEpg4Y1F5DxtBPvJpgoVLaLCkpH5c-ckQSKXTvX1jlJfgmXqZrFljbEV5zn54v9SRIfZRU3i6FDB5_nHC8gi3POfoqEXVxhhpQZkljlDgEw-s_xxQLluBRhjSOBUhjCi33_gtDxTt_U5LI0mE8SCtGpnuFnhSZmP3F7q8DzZZr-Zgysg1jRIAkhN5j57isVf2hj6S70XUMs5Owkfyp43CPzyg0tuG1wQay2cY-TFoZV3XBfWm7rAvLF3J4irWHomtpeFAADVzTlCfk4SB8cBhjkK8Wq1JwUvLhlHj-0S0]--></g></svg>