<svg xmlns="http://www.w3.org/2000/svg" xmlns:xlink="http://www.w3.org/1999/xlink" contentStyleType="text/css" height="295px" preserveAspectRatio="none" style="width:470px;height:295px;background:#FFFFFF;" version="1.1" viewBox="0 0 470 295" width="470px" zoomAndPan="magnify"><defs/><g><!--cluster dpv--><g id="cluster_dpv"><path d="M174.5,102.2422 L201.5,102.2422 A3.75,3.75 0 0 1 204,104.7422 L211,124.7305 L245.5,124.7305 A2.5,2.5 0 0 1 248,127.2305 L248,176.7422 A2.5,2.5 0 0 1 245.5,179.2422 L174.5,179.2422 A2.5,2.5 0 0 1 172,176.7422 L172,104.7422 A2.5,2.5 0 0 1 174.5,102.2422 " fill="none" style="stroke:#000000;stroke-width:1.5;"/><line style="stroke:#000000;stroke-width:1.5;" x1="172" x2="211" y1="124.7305" y2="124.7305"/><text fill="#000000" font-family="sans-serif" font-size="14" font-weight="bold" lengthAdjust="spacing" textLength="26" x="176" y="117.7773">dpv</text></g><!--class Entity--><g id="elem_Entity"><rect codeLine="7" fill="#F1F1F1" height="26.4883" id="Entity" rx="2.5" ry="2.5" style="stroke:#181818;stroke-width:0.5;" width="44" x="188" y="137.0022"/><text fill="#000000" font-family="sans-serif" font-size="14" lengthAdjust="spacing" textLength="38" x="191" y="155.5373">Entity</text></g><!--class Thing--><g id="elem_Thing"><rect codeLine="4" fill="#C0C0C0" height="26.4883" id="Thing" rx="2.5" ry="2.5" style="stroke:#181818;stroke-width:0.5;" width="46" x="7" y="137.0022"/><text fill="#000000" font-family="sans-serif" font-size="14" lengthAdjust="spacing" textLength="40" x="10" y="155.5373">Thing</text></g><!--entity Resource--><g id="elem_Resource"><ellipse cx="432" cy="150.2422" fill="#F1F1F1" rx="8" ry="8" style="stroke:#181818;stroke-width:0.5;"/><text fill="#000000" font-family="sans-serif" font-size="14" lengthAdjust="spacing" textLength="63" x="400.5" y="180.7773">Resource</text></g><!--link Thing to Entity--><g id="link_Thing_Entity"><path codeLine="10" d="M53.18,150.2422 C87.67,150.2422 153.68,150.2422 187.65,150.2422 " fill="none" id="Thing-Entity" style="stroke:#181818;stroke-width:1.0;"/><polygon fill="#000000" points="93,141.8975,83.9549,138.9585,83.9549,144.8364,93,141.8975" style="stroke:#000000;stroke-width:1.0;"/><text fill="#000000" font-family="sans-serif" font-size="13" lengthAdjust="spacing" textLength="58" x="97" y="146.8105">hasEntity</text></g><!--link Entity to Resource--><g id="link_Entity_Resource"><path codeLine="11" d="M213.28,136.7122 C218.02,113.4022 231.34,66.2522 264,46.2422 C312.89,16.2922 346.01,13.3922 393,46.2422 C424.66,68.3922 430.03,119.8722 430.88,140.9722 " fill="none" id="Entity-Resource" style="stroke:#181818;stroke-width:1.0;"/><polygon fill="#000000" points="301.999,14.9953,293.0132,11.8799,292.8982,17.7566,301.999,14.9953" style="stroke:#000000;stroke-width:1.0;"/><text fill="#000000" font-family="sans-serif" font-size="13" lengthAdjust="spacing" textLength="58" x="306" y="19.8105">hasName</text></g><!--link Entity to Resource--><g id="link_Entity_Resource"><path codeLine="12" d="M221.48,136.5622 C231.12,125.2022 246.52,109.8822 264,103.2422 C317.6,82.9022 341.26,78.5422 393,103.2422 C409.29,111.0222 420.84,129.5622 426.67,140.9022 " fill="none" id="Entity-Resource-1" style="stroke:#181818;stroke-width:1.0;"/><polygon fill="#000000" points="294.4989,79.0032,285.518,75.8737,285.3937,81.7502,294.4989,79.0032" style="stroke:#000000;stroke-width:1.0;"/><text fill="#000000" font-family="sans-serif" font-size="13" lengthAdjust="spacing" textLength="73" x="298.5" y="83.8105">hasAddress</text></g><!--link Entity to Resource--><g id="link_Entity_Resource"><path codeLine="13" d="M232.5,150.2422 C279.85,150.2422 391.46,150.2422 422.73,150.2422 " fill="none" id="Entity-Resource-2" style="stroke:#181818;stroke-width:1.0;"/><polygon fill="#000000" points="295.5,141.8975,286.4549,138.9585,286.4549,144.8364,295.5,141.8975" style="stroke:#000000;stroke-width:1.0;"/><text fill="#000000" font-family="sans-serif" font-size="13" lengthAdjust="spacing" textLength="71" x="299.5" y="146.8105">hasContact</text></g><!--link Entity to Resource--><g id="link_Entity_Resource"><path codeLine="14" d="M232.4,162.9822 C241.76,167.8422 253.08,172.8022 264,175.2422 C319.95,187.7822 338.08,191.6922 393,175.2422 C404.35,171.8522 415.44,163.8522 422.69,157.8122 " fill="none" id="Entity-Resource-3" style="stroke:#181818;stroke-width:1.0;"/><polygon fill="#000000" points="273.9982,166.7617,264.8766,164.0695,265.0362,169.9452,273.9982,166.7617" style="stroke:#000000;stroke-width:1.0;"/><text fill="#000000" font-family="sans-serif" font-size="13" lengthAdjust="spacing" textLength="114" x="278" y="171.8105">hasRepresentative</text></g><!--link Entity to Resource--><g id="link_Entity_Resource"><path codeLine="15" d="M218.19,163.9822 C226.82,178.8022 242.81,201.5822 264,211.2422 C316.17,235.0322 342.87,239.0722 393,211.2422 C413.07,200.1022 423.92,173.4622 428.44,159.3622 " fill="none" id="Entity-Resource-4" style="stroke:#181818;stroke-width:1.0;"/><polygon fill="#000000" points="283.9988,202.7876,274.8913,200.0481,275.0205,205.9245,283.9988,202.7876" style="stroke:#000000;stroke-width:1.0;"/><text fill="#000000" font-family="sans-serif" font-size="13" lengthAdjust="spacing" textLength="94" x="288" y="207.8105">hasJurisdiction</text></g><!--link Entity to Resource--><g id="link_Entity_Resource"><path codeLine="16" d="M213.24,163.9022 C217.91,187.4222 231.13,235.0222 264,255.2422 C312.83,285.2922 346.07,288.1722 393,255.2422 C424.9,232.8622 430.13,180.9022 430.91,159.6022 " fill="none" id="Entity-Resource-5" style="stroke:#181818;stroke-width:1.0;"/><polygon fill="#000000" points="292.999,246.7987,283.8977,244.039,284.0138,249.9157,292.999,246.7987" style="stroke:#000000;stroke-width:1.0;"/><text fill="#000000" font-family="sans-serif" font-size="13" lengthAdjust="spacing" textLength="76" x="297" y="251.8105">hasLocation</text></g><!--SRC=[VP312i8m44JFxbUiUD53_G0FWeWN4G_57mZ9sYwcIKWsXIB-kw6jHtiRTjxEmApPQPiDOPB1qZvOvIHt5Ymz1SLZvAOLD1n92ti7eArA2HyjkmOtYMrF4ROxh2dv73L1KFgb6a8JUdp3Qi8lJbW6-01CZrKrdmxOgZH9FC8iYlkBmn6uguuMx9CnaKhBV-BidIWj2qHDeMHGmOJxfR9hZfmCZsiiO3UlrOny0G00]--></g></svg>