<svg xmlns="http://www.w3.org/2000/svg" xmlns:xlink="http://www.w3.org/1999/xlink" contentStyleType="text/css" height="417px" preserveAspectRatio="none" style="width:1552px;height:417px;background:#FFFFFF;" version="1.1" viewBox="0 0 1552 417" width="1552px" zoomAndPan="magnify"><defs/><g><rect fill="#F1F1F1" height="36.4883" rx="12.5" ry="12.5" style="stroke:#181818;stroke-width:1.5;" width="90" x="676" y="189.4648"/><text fill="#000000" font-family="sans-serif" font-size="14" lengthAdjust="spacing" textLength="70" x="686" y="213">LegalBasis</text><rect fill="#F1F1F1" height="36.4883" rx="12.5" ry="12.5" style="stroke:#181818;stroke-width:1.5;" width="77" x="816" y="132.9766"/><text fill="#000000" font-family="sans-serif" font-size="14" lengthAdjust="spacing" textLength="57" x="826" y="156.5117">Consent</text><rect fill="#F1F1F1" height="36.4883" rx="12.5" ry="12.5" style="stroke:#181818;stroke-width:1.5;" width="140" x="943" y="104.7324"/><text fill="#000000" font-family="sans-serif" font-size="14" lengthAdjust="spacing" textLength="120" x="953" y="128.2676">InformedConsent</text><rect fill="#F1F1F1" height="36.4883" rx="12.5" ry="12.5" style="stroke:#181818;stroke-width:1.5;" width="148" x="1133" y="76.4883"/><text fill="#000000" font-family="sans-serif" font-size="14" lengthAdjust="spacing" textLength="128" x="1143" y="100.0234">ExpressedConsent</text><rect fill="#F1F1F1" height="36.4883" rx="12.5" ry="12.5" style="stroke:#181818;stroke-width:1.5;" width="209" x="1331" y="76.4883"/><text fill="#000000" font-family="sans-serif" font-size="14" lengthAdjust="spacing" textLength="189" x="1341" y="100.0234">ExplicitlyExpressedConsent</text><path d="M1281,94.7324 L1291,94.7324 C1306,94.7324 1306,94.7324 1321,94.7324 L1331,94.7324 " fill="none" style="stroke:#181818;stroke-width:1.0;"/><path d="M1083,122.9766 L1093,122.9766 C1108,122.9766 1108,94.7324 1123,94.7324 L1133,94.7324 " fill="none" style="stroke:#181818;stroke-width:1.0;"/><rect fill="#F1F1F1" height="36.4883" rx="12.5" ry="12.5" style="stroke:#181818;stroke-width:1.5;" width="128" x="1133" y="132.9766"/><text fill="#000000" font-family="sans-serif" font-size="14" lengthAdjust="spacing" textLength="108" x="1143" y="156.5117">ImpliedConsent</text><path d="M1083,122.9766 L1093,122.9766 C1108,122.9766 1108,151.2207 1123,151.2207 L1133,151.2207 " fill="none" style="stroke:#181818;stroke-width:1.0;"/><path d="M893,151.2207 L903,151.2207 C918,151.2207 918,122.9766 933,122.9766 L943,122.9766 " fill="none" style="stroke:#181818;stroke-width:1.0;"/><rect fill="#F1F1F1" height="36.4883" rx="12.5" ry="12.5" style="stroke:#181818;stroke-width:1.5;" width="159" x="943" y="189.4648"/><text fill="#000000" font-family="sans-serif" font-size="14" lengthAdjust="spacing" textLength="139" x="953" y="213">UninformedConsent</text><path d="M893,151.2207 L903,151.2207 C918,151.2207 918,207.709 933,207.709 L943,207.709 " fill="none" style="stroke:#181818;stroke-width:1.0;"/><path d="M766,207.709 L776,207.709 C791,207.709 791,151.2207 806,151.2207 L816,151.2207 " fill="none" style="stroke:#181818;stroke-width:1.0;"/><rect fill="#F1F1F1" height="36.4883" rx="12.5" ry="12.5" style="stroke:#181818;stroke-width:1.5;" width="79" x="816" y="274.1973"/><text fill="#000000" font-family="sans-serif" font-size="14" lengthAdjust="spacing" textLength="59" x="826" y="297.7324">Contract</text><rect fill="#F1F1F1" height="36.4883" rx="12.5" ry="12.5" style="stroke:#181818;stroke-width:1.5;" width="142" x="945" y="245.9531"/><text fill="#000000" font-family="sans-serif" font-size="14" lengthAdjust="spacing" textLength="122" x="955" y="269.4883">EnterIntoContract</text><path d="M895,292.4414 L905,292.4414 C920,292.4414 920,264.1973 935,264.1973 L945,264.1973 " fill="none" style="stroke:#181818;stroke-width:1.0;"/><rect fill="#F1F1F1" height="36.4883" rx="12.5" ry="12.5" style="stroke:#181818;stroke-width:1.5;" width="166" x="945" y="302.4414"/><text fill="#000000" font-family="sans-serif" font-size="14" lengthAdjust="spacing" textLength="146" x="955" y="325.9766">ContractPerformance</text><path d="M895,292.4414 L905,292.4414 C920,292.4414 920,320.6855 935,320.6855 L945,320.6855 " fill="none" style="stroke:#181818;stroke-width:1.0;"/><path d="M766,207.709 L776,207.709 C791,207.709 791,292.4414 806,292.4414 L816,292.4414 " fill="none" style="stroke:#181818;stroke-width:1.0;"/><rect fill="#F1F1F1" height="36.4883" rx="12.5" ry="12.5" style="stroke:#181818;stroke-width:1.5;" width="179" x="447" y="20"/><text fill="#000000" font-family="sans-serif" font-size="14" lengthAdjust="spacing" textLength="159" x="457" y="43.5352">DataTransferLegalBasis</text><path d="M676,207.709 L666,207.709 C651,207.709 651,38.2441 636,38.2441 L626,38.2441 " fill="none" style="stroke:#181818;stroke-width:1.0;"/><rect fill="#F1F1F1" height="36.4883" rx="12.5" ry="12.5" style="stroke:#181818;stroke-width:1.5;" width="128" x="498" y="76.4883"/><text fill="#000000" font-family="sans-serif" font-size="14" lengthAdjust="spacing" textLength="108" x="508" y="100.0234">LegalObligation</text><path d="M676,207.709 L666,207.709 C651,207.709 651,94.7324 636,94.7324 L626,94.7324 " fill="none" style="stroke:#181818;stroke-width:1.0;"/><rect fill="#F1F1F1" height="36.4883" rx="12.5" ry="12.5" style="stroke:#181818;stroke-width:1.5;" width="143" x="483" y="132.9766"/><text fill="#000000" font-family="sans-serif" font-size="14" lengthAdjust="spacing" textLength="123" x="493" y="156.5117">LegitimateInterest</text><rect fill="#F1F1F1" height="36.4883" rx="12.5" ry="12.5" style="stroke:#181818;stroke-width:1.5;" width="229" x="204" y="76.4883"/><text fill="#000000" font-family="sans-serif" font-size="14" lengthAdjust="spacing" textLength="209" x="214" y="100.0234">LegitimateInterestOfController</text><path d="M483,151.2207 L473,151.2207 C458,151.2207 458,94.7324 443,94.7324 L433,94.7324 " fill="none" style="stroke:#181818;stroke-width:1.0;"/><rect fill="#F1F1F1" height="36.4883" rx="12.5" ry="12.5" style="stroke:#181818;stroke-width:1.5;" width="240" x="193" y="132.9766"/><text fill="#000000" font-family="sans-serif" font-size="14" lengthAdjust="spacing" textLength="220" x="203" y="156.5117">LegitimateInterestOfDataSubject</text><path d="M483,151.2207 L473,151.2207 C458,151.2207 458,151.2207 443,151.2207 L433,151.2207 " fill="none" style="stroke:#181818;stroke-width:1.0;"/><rect fill="#F1F1F1" height="36.4883" rx="12.5" ry="12.5" style="stroke:#181818;stroke-width:1.5;" width="230" x="203" y="189.4648"/><text fill="#000000" font-family="sans-serif" font-size="14" lengthAdjust="spacing" textLength="210" x="213" y="213">LegitimateInterestOfThirdParty</text><path d="M483,151.2207 L473,151.2207 C458,151.2207 458,207.709 443,207.709 L433,207.709 " fill="none" style="stroke:#181818;stroke-width:1.0;"/><path d="M676,207.709 L666,207.709 C651,207.709 651,151.2207 636,151.2207 L626,151.2207 " fill="none" style="stroke:#181818;stroke-width:1.0;"/><rect fill="#F1F1F1" height="36.4883" rx="12.5" ry="12.5" style="stroke:#181818;stroke-width:1.5;" width="218" x="408" y="245.9531"/><text fill="#000000" font-family="sans-serif" font-size="14" lengthAdjust="spacing" textLength="198" x="418" y="269.4883">OfficialAuthorityOfController</text><path d="M676,207.709 L666,207.709 C651,207.709 651,264.1973 636,264.1973 L626,264.1973 " fill="none" style="stroke:#181818;stroke-width:1.0;"/><rect fill="#F1F1F1" height="36.4883" rx="12.5" ry="12.5" style="stroke:#181818;stroke-width:1.5;" width="113" x="513" y="302.4414"/><text fill="#000000" font-family="sans-serif" font-size="14" lengthAdjust="spacing" textLength="93" x="523" y="325.9766">PublicInterest</text><path d="M676,207.709 L666,207.709 C651,207.709 651,320.6855 636,320.6855 L626,320.6855 " fill="none" style="stroke:#181818;stroke-width:1.0;"/><rect fill="#F1F1F1" height="36.4883" rx="12.5" ry="12.5" style="stroke:#181818;stroke-width:1.5;" width="102" x="524" y="358.9297"/><text fill="#000000" font-family="sans-serif" font-size="14" lengthAdjust="spacing" textLength="82" x="534" y="382.4648">VitalInterest</text><rect fill="#F1F1F1" height="36.4883" rx="12.5" ry="12.5" style="stroke:#181818;stroke-width:1.5;" width="215" x="259" y="358.9297"/><text fill="#000000" font-family="sans-serif" font-size="14" lengthAdjust="spacing" textLength="195" x="269" y="382.4648">VitalInterestOfNaturalPerson</text><rect fill="#F1F1F1" height="36.4883" rx="12.5" ry="12.5" style="stroke:#181818;stroke-width:1.5;" width="199" x="10" y="358.9297"/><text fill="#000000" font-family="sans-serif" font-size="14" lengthAdjust="spacing" textLength="179" x="20" y="382.4648">VitalInterestOfDataSubject</text><path d="M259,377.1738 L249,377.1738 C234,377.1738 234,377.1738 219,377.1738 L209,377.1738 " fill="none" style="stroke:#181818;stroke-width:1.0;"/><path d="M524,377.1738 L514,377.1738 C499,377.1738 499,377.1738 484,377.1738 L474,377.1738 " fill="none" style="stroke:#181818;stroke-width:1.0;"/><path d="M676,207.709 L666,207.709 C651,207.709 651,377.1738 636,377.1738 L626,377.1738 " fill="none" style="stroke:#181818;stroke-width:1.0;"/><!--SRC=[xLHDRo8n3BtdLtXlhKQWWafLSM8fRGM57RHyt4t60rvbCYXnqCw_tyoqgCos_GUznSzstelzb94NT5AmpGeygXzijGaPWPVAKFTeq4eeZ589p6cFPeoUlKeIU2Yj9olncC3KvgKhABl04dZyUtJaVHjjOCEQnLIV5i2qYFaM1XlB7mXgVd6eNoiUhP2RMYbRw3bOaglRqMfIdGvCK73jqFgStCMROgQ9qftXFGgNzWrYuGA5fZK7UOdePt2QDtIbCUI-BAcfLs7tX_JNrwmFxB9bN4bLywTv7gU5vcUGG-bOglzuO1cYNdqX3hOiQ5fgMqYQ_q893aqSYsyU-R7YKgSQKRJ6cptKgEMM0qUdv4mcyw_dWgBCSw3PQKDUVPldspoDUPRrRx9PpE4Kk-ECeDVjt_HlkuEhLR2mm0hwTz2x6VO6my4zJ5ThgDFNwkfvEGTV1gS9ClRYU1Vg6L-h6PuGVWSRvq13I8zaPvENCn0tUs9NsgBU-coxU2-uk-sCMM15BYg1xK9DACTW97ReCcEx7y9c_TIvLtEq-u3xU3TPzL36UrqrXEVnFm00]--></g></svg>