<svg xmlns="http://www.w3.org/2000/svg" xmlns:xlink="http://www.w3.org/1999/xlink" contentStyleType="text/css" height="522px" preserveAspectRatio="none" style="width:3533px;height:522px;background:#FFFFFF;" version="1.1" viewBox="0 0 3533 522" width="3533px" zoomAndPan="magnify"><defs/><g><line style="stroke:#181818;stroke-width:1.5;" x1="54" x2="54" y1="64.1328" y2="84.1328"/><rect fill="#F1F1F1" height="34.1328" style="stroke:#181818;stroke-width:1.5;" width="88" x="10" y="84.1328"/><text fill="#000000" font-family="sans-serif" font-size="12" lengthAdjust="spacing" textLength="68" x="20" y="105.7344">Assessment</text><line style="stroke:#181818;stroke-width:1.5;" x1="54" x2="64" y1="150.332" y2="150.332"/><rect fill="#F1F1F1" height="34.1328" style="stroke:#181818;stroke-width:1.5;" width="155" x="64" y="133.2656"/><text fill="#000000" font-family="sans-serif" font-size="12" lengthAdjust="spacing" textLength="135" x="74" y="154.8672">ComplianceAssessment</text><line style="stroke:#181818;stroke-width:1.5;" x1="54" x2="64" y1="199.4648" y2="199.4648"/><rect fill="#F1F1F1" height="34.1328" style="stroke:#181818;stroke-width:1.5;" width="164" x="64" y="182.3984"/><text fill="#000000" font-family="sans-serif" font-size="12" lengthAdjust="spacing" textLength="144" x="74" y="204">ConformanceAssessment</text><line style="stroke:#181818;stroke-width:1.5;" x1="54" x2="64" y1="248.5977" y2="248.5977"/><rect fill="#F1F1F1" height="34.1328" style="stroke:#181818;stroke-width:1.5;" width="202" x="64" y="231.5313"/><text fill="#000000" font-family="sans-serif" font-size="12" lengthAdjust="spacing" textLength="182" x="74" y="253.1328">DataInteroperabilityAssessment</text><line style="stroke:#181818;stroke-width:1.5;" x1="54" x2="64" y1="297.7305" y2="297.7305"/><rect fill="#F1F1F1" height="34.1328" style="stroke:#181818;stroke-width:1.5;" width="154" x="64" y="280.6641"/><text fill="#000000" font-family="sans-serif" font-size="12" lengthAdjust="spacing" textLength="134" x="74" y="302.2656">DataQualityAssessment</text><line style="stroke:#181818;stroke-width:1.5;" x1="54" x2="64" y1="346.8633" y2="346.8633"/><rect fill="#F1F1F1" height="34.1328" style="stroke:#181818;stroke-width:1.5;" width="240" x="64" y="329.7969"/><text fill="#000000" font-family="sans-serif" font-size="12" lengthAdjust="spacing" textLength="220" x="74" y="351.3984">EffectivenessDeterminationProcedures</text><line style="stroke:#181818;stroke-width:1.5;" x1="54" x2="64" y1="395.9961" y2="395.9961"/><rect fill="#F1F1F1" height="34.1328" style="stroke:#181818;stroke-width:1.5;" width="190" x="64" y="378.9297"/><text fill="#000000" font-family="sans-serif" font-size="12" lengthAdjust="spacing" textLength="170" x="74" y="400.5313">LegitimateInterestAssessment</text><line style="stroke:#181818;stroke-width:1.5;" x1="54" x2="54" y1="118.2656" y2="395.9961"/><line style="stroke:#181818;stroke-width:1.5;" x1="379.5" x2="379.5" y1="64.1328" y2="84.1328"/><rect fill="#F1F1F1" height="34.1328" style="stroke:#181818;stroke-width:1.5;" width="111" x="324" y="84.1328"/><text fill="#000000" font-family="sans-serif" font-size="12" lengthAdjust="spacing" textLength="91" x="334" y="105.7344">CertificationSeal</text><line style="stroke:#181818;stroke-width:1.5;" x1="379.5" x2="389.5" y1="150.332" y2="150.332"/><rect fill="#F1F1F1" height="34.1328" style="stroke:#181818;stroke-width:1.5;" width="88" x="389.5" y="133.2656"/><text fill="#000000" font-family="sans-serif" font-size="12" lengthAdjust="spacing" textLength="68" x="399.5" y="154.8672">Certification</text><line style="stroke:#181818;stroke-width:1.5;" x1="379.5" x2="389.5" y1="199.4648" y2="199.4648"/><rect fill="#F1F1F1" height="34.1328" style="stroke:#181818;stroke-width:1.5;" width="43" x="389.5" y="182.3984"/><text fill="#000000" font-family="sans-serif" font-size="12" lengthAdjust="spacing" textLength="23" x="399.5" y="204">Seal</text><line style="stroke:#181818;stroke-width:1.5;" x1="379.5" x2="379.5" y1="118.2656" y2="199.4648"/><line style="stroke:#181818;stroke-width:1.5;" x1="542.5" x2="542.5" y1="64.1328" y2="84.1328"/><rect fill="#F1F1F1" height="34.1328" style="stroke:#181818;stroke-width:1.5;" width="90" x="497.5" y="84.1328"/><text fill="#000000" font-family="sans-serif" font-size="12" lengthAdjust="spacing" textLength="70" x="507.5" y="105.7344">Consultation</text><line style="stroke:#181818;stroke-width:1.5;" x1="542.5" x2="552.5" y1="150.332" y2="150.332"/><rect fill="#F1F1F1" height="34.1328" style="stroke:#181818;stroke-width:1.5;" width="165" x="552.5" y="133.2656"/><text fill="#000000" font-family="sans-serif" font-size="12" lengthAdjust="spacing" textLength="145" x="562.5" y="154.8672">ConsultationWithAuthority</text><line style="stroke:#181818;stroke-width:1.5;" x1="542.5" x2="552.5" y1="199.4648" y2="199.4648"/><rect fill="#F1F1F1" height="34.1328" style="stroke:#181818;stroke-width:1.5;" width="183" x="552.5" y="182.3984"/><text fill="#000000" font-family="sans-serif" font-size="12" lengthAdjust="spacing" textLength="163" x="562.5" y="204">ConsultationWithDataSubject</text><line style="stroke:#181818;stroke-width:1.5;" x1="542.5" x2="552.5" y1="248.5977" y2="248.5977"/><rect fill="#F1F1F1" height="34.1328" style="stroke:#181818;stroke-width:1.5;" width="139" x="552.5" y="231.5313"/><text fill="#000000" font-family="sans-serif" font-size="12" lengthAdjust="spacing" textLength="119" x="562.5" y="253.1328">ConsultationWithDPO</text><line style="stroke:#181818;stroke-width:1.5;" x1="542.5" x2="542.5" y1="118.2656" y2="248.5977"/><line style="stroke:#181818;stroke-width:1.5;" x1="805.5" x2="805.5" y1="64.1328" y2="84.1328"/><rect fill="#F1F1F1" height="34.1328" style="stroke:#181818;stroke-width:1.5;" width="100" x="755.5" y="84.1328"/><text fill="#000000" font-family="sans-serif" font-size="12" lengthAdjust="spacing" textLength="80" x="765.5" y="105.7344">DigitalLiteracy</text><line style="stroke:#181818;stroke-width:1.5;" x1="805.5" x2="815.5" y1="150.332" y2="150.332"/><rect fill="#F1F1F1" height="34.1328" style="stroke:#181818;stroke-width:1.5;" width="75" x="815.5" y="133.2656"/><text fill="#000000" font-family="sans-serif" font-size="12" lengthAdjust="spacing" textLength="55" x="825.5" y="154.8672">AILiteracy</text><line style="stroke:#181818;stroke-width:1.5;" x1="805.5" x2="815.5" y1="199.4648" y2="199.4648"/><rect fill="#F1F1F1" height="34.1328" style="stroke:#181818;stroke-width:1.5;" width="91" x="815.5" y="182.3984"/><text fill="#000000" font-family="sans-serif" font-size="12" lengthAdjust="spacing" textLength="71" x="825.5" y="204">DataLiteracy</text><line style="stroke:#181818;stroke-width:1.5;" x1="805.5" x2="805.5" y1="118.2656" y2="199.4648"/><line style="stroke:#181818;stroke-width:1.5;" x1="1003" x2="1003" y1="64.1328" y2="84.1328"/><rect fill="#F1F1F1" height="34.1328" style="stroke:#181818;stroke-width:1.5;" width="153" x="926.5" y="84.1328"/><text fill="#000000" font-family="sans-serif" font-size="12" lengthAdjust="spacing" textLength="133" x="936.5" y="105.7344">GovernanceProcedures</text><line style="stroke:#181818;stroke-width:1.5;" x1="1003" x2="1013" y1="150.332" y2="150.332"/><rect fill="#F1F1F1" height="34.1328" style="stroke:#181818;stroke-width:1.5;" width="190" x="1013" y="133.2656"/><text fill="#000000" font-family="sans-serif" font-size="12" lengthAdjust="spacing" textLength="170" x="1023" y="154.8672">AssetManagementProcedures</text><line style="stroke:#181818;stroke-width:1.5;" x1="1003" x2="1013" y1="199.4648" y2="199.4648"/><rect fill="#F1F1F1" height="34.1328" style="stroke:#181818;stroke-width:1.5;" width="147" x="1013" y="182.3984"/><text fill="#000000" font-family="sans-serif" font-size="12" lengthAdjust="spacing" textLength="127" x="1023" y="204">ComplianceMonitoring</text><line style="stroke:#181818;stroke-width:1.5;" x1="1003" x2="1013" y1="248.5977" y2="248.5977"/><rect fill="#F1F1F1" height="34.1328" style="stroke:#181818;stroke-width:1.5;" width="184" x="1013" y="231.5313"/><text fill="#000000" font-family="sans-serif" font-size="12" lengthAdjust="spacing" textLength="164" x="1023" y="253.1328">DisasterRecoveryProcedures</text><line style="stroke:#181818;stroke-width:1.5;" x1="1003" x2="1013" y1="297.7305" y2="297.7305"/><rect fill="#F1F1F1" height="34.1328" style="stroke:#181818;stroke-width:1.5;" width="204" x="1013" y="280.6641"/><text fill="#000000" font-family="sans-serif" font-size="12" lengthAdjust="spacing" textLength="184" x="1023" y="302.2656">IncidentManagementProcedures</text><line style="stroke:#181818;stroke-width:1.5;" x1="1003" x2="1013" y1="346.8633" y2="346.8633"/><rect fill="#F1F1F1" height="34.1328" style="stroke:#181818;stroke-width:1.5;" width="209" x="1013" y="329.7969"/><text fill="#000000" font-family="sans-serif" font-size="12" lengthAdjust="spacing" textLength="189" x="1023" y="351.3984">IncidentReportingCommunication</text><line style="stroke:#181818;stroke-width:1.5;" x1="1003" x2="1013" y1="395.9961" y2="395.9961"/><rect fill="#F1F1F1" height="34.1328" style="stroke:#181818;stroke-width:1.5;" width="52" x="1013" y="378.9297"/><text fill="#000000" font-family="sans-serif" font-size="12" lengthAdjust="spacing" textLength="32" x="1023" y="400.5313">Policy</text><line style="stroke:#181818;stroke-width:1.5;" x1="1003" x2="1013" y1="445.1289" y2="445.1289"/><rect fill="#F1F1F1" height="34.1328" style="stroke:#181818;stroke-width:1.5;" width="119" x="1013" y="428.0625"/><text fill="#000000" font-family="sans-serif" font-size="12" lengthAdjust="spacing" textLength="99" x="1023" y="449.6641">ReviewProcedure</text><line style="stroke:#181818;stroke-width:1.5;" x1="1003" x2="1013" y1="494.2617" y2="494.2617"/><rect fill="#F1F1F1" height="34.1328" style="stroke:#181818;stroke-width:1.5;" width="154" x="1013" y="477.1953"/><text fill="#000000" font-family="sans-serif" font-size="12" lengthAdjust="spacing" textLength="134" x="1023" y="498.7969">StandardsConformance</text><line style="stroke:#181818;stroke-width:1.5;" x1="1003" x2="1003" y1="118.2656" y2="494.2617"/><line style="stroke:#181818;stroke-width:1.5;" x1="1306.5" x2="1306.5" y1="64.1328" y2="84.1328"/><rect fill="#F1F1F1" height="34.1328" style="stroke:#181818;stroke-width:1.5;" width="129" x="1242" y="84.1328"/><text fill="#000000" font-family="sans-serif" font-size="12" lengthAdjust="spacing" textLength="109" x="1252" y="105.7344">GuidelinesPrinciple</text><line style="stroke:#181818;stroke-width:1.5;" x1="1306.5" x2="1316.5" y1="150.332" y2="150.332"/><rect fill="#F1F1F1" height="34.1328" style="stroke:#181818;stroke-width:1.5;" width="110" x="1316.5" y="133.2656"/><text fill="#000000" font-family="sans-serif" font-size="12" lengthAdjust="spacing" textLength="90" x="1326.5" y="154.8672">CodeOfConduct</text><line style="stroke:#181818;stroke-width:1.5;" x1="1306.5" x2="1316.5" y1="199.4648" y2="199.4648"/><rect fill="#F1F1F1" height="34.1328" style="stroke:#181818;stroke-width:1.5;" width="111" x="1316.5" y="182.3984"/><text fill="#000000" font-family="sans-serif" font-size="12" lengthAdjust="spacing" textLength="91" x="1326.5" y="204">DesignStandard</text><line style="stroke:#181818;stroke-width:1.5;" x1="1306.5" x2="1316.5" y1="248.5977" y2="248.5977"/><rect fill="#F1F1F1" height="34.1328" style="stroke:#181818;stroke-width:1.5;" width="74" x="1316.5" y="231.5313"/><text fill="#000000" font-family="sans-serif" font-size="12" lengthAdjust="spacing" textLength="54" x="1326.5" y="253.1328">Guideline</text><line style="stroke:#181818;stroke-width:1.5;" x1="1306.5" x2="1316.5" y1="297.7305" y2="297.7305"/><rect fill="#F1F1F1" height="34.1328" style="stroke:#181818;stroke-width:1.5;" width="69" x="1316.5" y="280.6641"/><text fill="#000000" font-family="sans-serif" font-size="12" lengthAdjust="spacing" textLength="49" x="1326.5" y="302.2656">Principle</text><line style="stroke:#181818;stroke-width:1.5;" x1="1306.5" x2="1316.5" y1="346.8633" y2="346.8633"/><rect fill="#F1F1F1" height="34.1328" style="stroke:#181818;stroke-width:1.5;" width="114" x="1316.5" y="329.7969"/><text fill="#000000" font-family="sans-serif" font-size="12" lengthAdjust="spacing" textLength="94" x="1326.5" y="351.3984">PrivacyByDefault</text><line style="stroke:#181818;stroke-width:1.5;" x1="1306.5" x2="1316.5" y1="395.9961" y2="395.9961"/><rect fill="#F1F1F1" height="34.1328" style="stroke:#181818;stroke-width:1.5;" width="112" x="1316.5" y="378.9297"/><text fill="#000000" font-family="sans-serif" font-size="12" lengthAdjust="spacing" textLength="92" x="1326.5" y="400.5313">PrivacyByDesign</text><line style="stroke:#181818;stroke-width:1.5;" x1="1306.5" x2="1306.5" y1="118.2656" y2="395.9961"/><line style="stroke:#181818;stroke-width:1.5;" x1="1478.5" x2="1478.5" y1="64.1328" y2="84.1328"/><rect fill="#F1F1F1" height="34.1328" style="stroke:#181818;stroke-width:1.5;" width="56" x="1450.5" y="84.1328"/><text fill="#000000" font-family="sans-serif" font-size="12" lengthAdjust="spacing" textLength="36" x="1460.5" y="105.7344">Notice</text><line style="stroke:#181818;stroke-width:1.5;" x1="1478.5" x2="1488.5" y1="150.332" y2="150.332"/><rect fill="#F1F1F1" height="34.1328" style="stroke:#181818;stroke-width:1.5;" width="132" x="1488.5" y="133.2656"/><text fill="#000000" font-family="sans-serif" font-size="12" lengthAdjust="spacing" textLength="112" x="1498.5" y="154.8672">DataTransferNotice</text><line style="stroke:#181818;stroke-width:1.5;" x1="1478.5" x2="1488.5" y1="199.4648" y2="199.4648"/><rect fill="#F1F1F1" height="34.1328" style="stroke:#181818;stroke-width:1.5;" width="96" x="1488.5" y="182.3984"/><text fill="#000000" font-family="sans-serif" font-size="12" lengthAdjust="spacing" textLength="76" x="1498.5" y="204">PrivacyNotice</text><line style="stroke:#181818;stroke-width:1.5;" x1="1478.5" x2="1488.5" y1="248.5977" y2="248.5977"/><rect fill="#F1F1F1" height="34.1328" style="stroke:#181818;stroke-width:1.5;" width="145" x="1488.5" y="231.5313"/><text fill="#000000" font-family="sans-serif" font-size="12" lengthAdjust="spacing" textLength="125" x="1498.5" y="253.1328">SecurityIncidentNotice</text><line style="stroke:#181818;stroke-width:1.5;" x1="1478.5" x2="1478.5" y1="118.2656" y2="248.5977"/><line style="stroke:#181818;stroke-width:1.5;" x1="1695.5" x2="1695.5" y1="64.1328" y2="84.1328"/><rect fill="#F1F1F1" height="34.1328" style="stroke:#181818;stroke-width:1.5;" width="84" x="1653.5" y="84.1328"/><text fill="#000000" font-family="sans-serif" font-size="12" lengthAdjust="spacing" textLength="64" x="1663.5" y="105.7344">Notification</text><line style="stroke:#181818;stroke-width:1.5;" x1="1695.5" x2="1705.5" y1="150.332" y2="150.332"/><rect fill="#F1F1F1" height="34.1328" style="stroke:#181818;stroke-width:1.5;" width="173" x="1705.5" y="133.2656"/><text fill="#000000" font-family="sans-serif" font-size="12" lengthAdjust="spacing" textLength="153" x="1715.5" y="154.8672">SecurityIncidentNotification</text><line style="stroke:#181818;stroke-width:1.5;" x1="1695.5" x2="1695.5" y1="118.2656" y2="150.332"/><line style="stroke:#181818;stroke-width:1.5;" x1="1963.5" x2="1963.5" y1="64.1328" y2="84.1328"/><rect fill="#F1F1F1" height="34.1328" style="stroke:#181818;stroke-width:1.5;" width="130" x="1898.5" y="84.1328"/><text fill="#000000" font-family="sans-serif" font-size="12" lengthAdjust="spacing" textLength="110" x="1908.5" y="105.7344">RecordsOfActivities</text><line style="stroke:#181818;stroke-width:1.5;" x1="1963.5" x2="1973.5" y1="150.332" y2="150.332"/><rect fill="#F1F1F1" height="34.1328" style="stroke:#181818;stroke-width:1.5;" width="127" x="1973.5" y="133.2656"/><text fill="#000000" font-family="sans-serif" font-size="12" lengthAdjust="spacing" textLength="107" x="1983.5" y="154.8672">DataBreachRecord</text><line style="stroke:#181818;stroke-width:1.5;" x1="1963.5" x2="1973.5" y1="199.4648" y2="199.4648"/><rect fill="#F1F1F1" height="34.1328" style="stroke:#181818;stroke-width:1.5;" width="149" x="1973.5" y="182.3984"/><text fill="#000000" font-family="sans-serif" font-size="12" lengthAdjust="spacing" textLength="129" x="1983.5" y="204">DataProcessingRecord</text><line style="stroke:#181818;stroke-width:1.5;" x1="1963.5" x2="1973.5" y1="248.5977" y2="248.5977"/><rect fill="#F1F1F1" height="34.1328" style="stroke:#181818;stroke-width:1.5;" width="150" x="1973.5" y="231.5313"/><text fill="#000000" font-family="sans-serif" font-size="12" lengthAdjust="spacing" textLength="130" x="1983.5" y="253.1328">SecurityIncidentRecord</text><line style="stroke:#181818;stroke-width:1.5;" x1="1963.5" x2="1963.5" y1="118.2656" y2="248.5977"/><line style="stroke:#181818;stroke-width:1.5;" x1="2208" x2="2208" y1="64.1328" y2="84.1328"/><rect fill="#F1F1F1" height="34.1328" style="stroke:#181818;stroke-width:1.5;" width="129" x="2143.5" y="84.1328"/><text fill="#000000" font-family="sans-serif" font-size="12" lengthAdjust="spacing" textLength="109" x="2153.5" y="105.7344">RightsManagement</text><line style="stroke:#181818;stroke-width:1.5;" x1="2208" x2="2218" y1="150.332" y2="150.332"/><rect fill="#F1F1F1" height="34.1328" style="stroke:#181818;stroke-width:1.5;" width="198" x="2218" y="133.2656"/><text fill="#000000" font-family="sans-serif" font-size="12" lengthAdjust="spacing" textLength="178" x="2228" y="154.8672">DataSubjectRightsManagement</text><line style="stroke:#181818;stroke-width:1.5;" x1="2208" x2="2218" y1="199.4648" y2="199.4648"/><rect fill="#F1F1F1" height="34.1328" style="stroke:#181818;stroke-width:1.5;" width="112" x="2218" y="182.3984"/><text fill="#000000" font-family="sans-serif" font-size="12" lengthAdjust="spacing" textLength="92" x="2228" y="204">IPRManagement</text><line style="stroke:#181818;stroke-width:1.5;" x1="2208" x2="2218" y1="248.5977" y2="248.5977"/><rect fill="#F1F1F1" height="34.1328" style="stroke:#181818;stroke-width:1.5;" width="156" x="2218" y="231.5313"/><text fill="#000000" font-family="sans-serif" font-size="12" lengthAdjust="spacing" textLength="136" x="2228" y="253.1328">PermissionManagement</text><line style="stroke:#181818;stroke-width:1.5;" x1="2208" x2="2208" y1="118.2656" y2="248.5977"/><line style="stroke:#181818;stroke-width:1.5;" x1="2475" x2="2475" y1="64.1328" y2="84.1328"/><rect fill="#F1F1F1" height="34.1328" style="stroke:#181818;stroke-width:1.5;" width="78" x="2436" y="84.1328"/><text fill="#000000" font-family="sans-serif" font-size="12" lengthAdjust="spacing" textLength="58" x="2446" y="105.7344">Safeguard</text><line style="stroke:#181818;stroke-width:1.5;" x1="2475" x2="2485" y1="150.332" y2="150.332"/><rect fill="#F1F1F1" height="34.1328" style="stroke:#181818;stroke-width:1.5;" width="131" x="2485" y="133.2656"/><text fill="#000000" font-family="sans-serif" font-size="12" lengthAdjust="spacing" textLength="111" x="2495" y="154.8672">RegulatorySandbox</text><line style="stroke:#181818;stroke-width:1.5;" x1="2475" x2="2485" y1="199.4648" y2="199.4648"/><rect fill="#F1F1F1" height="34.1328" style="stroke:#181818;stroke-width:1.5;" width="172" x="2485" y="182.3984"/><text fill="#000000" font-family="sans-serif" font-size="12" lengthAdjust="spacing" textLength="152" x="2495" y="204">SafeguardForDataTransfer</text><line style="stroke:#181818;stroke-width:1.5;" x1="2475" x2="2475" y1="118.2656" y2="199.4648"/><line style="stroke:#181818;stroke-width:1.5;" x1="2738.5" x2="2738.5" y1="64.1328" y2="84.1328"/><rect fill="#F1F1F1" height="34.1328" style="stroke:#181818;stroke-width:1.5;" width="123" x="2677" y="84.1328"/><text fill="#000000" font-family="sans-serif" font-size="12" lengthAdjust="spacing" textLength="103" x="2687" y="105.7344">SecurityProcedure</text><line style="stroke:#181818;stroke-width:1.5;" x1="2738.5" x2="2748.5" y1="150.332" y2="150.332"/><rect fill="#F1F1F1" height="34.1328" style="stroke:#181818;stroke-width:1.5;" width="154" x="2748.5" y="133.2656"/><text fill="#000000" font-family="sans-serif" font-size="12" lengthAdjust="spacing" textLength="134" x="2758.5" y="154.8672">AuthorisationProcedure</text><line style="stroke:#181818;stroke-width:1.5;" x1="2738.5" x2="2748.5" y1="199.4648" y2="199.4648"/><rect fill="#F1F1F1" height="34.1328" style="stroke:#181818;stroke-width:1.5;" width="129" x="2748.5" y="182.3984"/><text fill="#000000" font-family="sans-serif" font-size="12" lengthAdjust="spacing" textLength="109" x="2758.5" y="204">BackgroundChecks</text><line style="stroke:#181818;stroke-width:1.5;" x1="2738.5" x2="2748.5" y1="248.5977" y2="248.5977"/><rect fill="#F1F1F1" height="34.1328" style="stroke:#181818;stroke-width:1.5;" width="165" x="2748.5" y="231.5313"/><text fill="#000000" font-family="sans-serif" font-size="12" lengthAdjust="spacing" textLength="145" x="2758.5" y="253.1328">DataSecurityManagement</text><line style="stroke:#181818;stroke-width:1.5;" x1="2738.5" x2="2748.5" y1="297.7305" y2="297.7305"/><rect fill="#F1F1F1" height="34.1328" style="stroke:#181818;stroke-width:1.5;" width="190" x="2748.5" y="280.6641"/><text fill="#000000" font-family="sans-serif" font-size="12" lengthAdjust="spacing" textLength="170" x="2758.5" y="302.2656">SecureProcessingEnvironment</text><line style="stroke:#181818;stroke-width:1.5;" x1="2738.5" x2="2748.5" y1="346.8633" y2="346.8633"/><rect fill="#F1F1F1" height="34.1328" style="stroke:#181818;stroke-width:1.5;" width="154" x="2748.5" y="329.7969"/><text fill="#000000" font-family="sans-serif" font-size="12" lengthAdjust="spacing" textLength="134" x="2758.5" y="351.3984">SecurityRoleProcedures</text><line style="stroke:#181818;stroke-width:1.5;" x1="2738.5" x2="2748.5" y1="395.9961" y2="395.9961"/><rect fill="#F1F1F1" height="34.1328" style="stroke:#181818;stroke-width:1.5;" width="189" x="2748.5" y="378.9297"/><text fill="#000000" font-family="sans-serif" font-size="12" lengthAdjust="spacing" textLength="169" x="2758.5" y="400.5313">ThirdPartySecurityProcedures</text><line style="stroke:#181818;stroke-width:1.5;" x1="2738.5" x2="2738.5" y1="118.2656" y2="395.9961"/><line style="stroke:#181818;stroke-width:1.5;" x1="3004.5" x2="3004.5" y1="64.1328" y2="84.1328"/><rect fill="#F1F1F1" height="34.1328" style="stroke:#181818;stroke-width:1.5;" width="92" x="2958.5" y="84.1328"/><text fill="#000000" font-family="sans-serif" font-size="12" lengthAdjust="spacing" textLength="72" x="2968.5" y="105.7344">StaffTraining</text><line style="stroke:#181818;stroke-width:1.5;" x1="3004.5" x2="3014.5" y1="150.332" y2="150.332"/><rect fill="#F1F1F1" height="34.1328" style="stroke:#181818;stroke-width:1.5;" width="145" x="3014.5" y="133.2656"/><text fill="#000000" font-family="sans-serif" font-size="12" lengthAdjust="spacing" textLength="125" x="3024.5" y="154.8672">CybersecurityTraining</text><line style="stroke:#181818;stroke-width:1.5;" x1="3004.5" x2="3014.5" y1="199.4648" y2="199.4648"/><rect fill="#F1F1F1" height="34.1328" style="stroke:#181818;stroke-width:1.5;" width="151" x="3014.5" y="182.3984"/><text fill="#000000" font-family="sans-serif" font-size="12" lengthAdjust="spacing" textLength="131" x="3024.5" y="204">DataProtectionTraining</text><line style="stroke:#181818;stroke-width:1.5;" x1="3004.5" x2="3014.5" y1="248.5977" y2="248.5977"/><rect fill="#F1F1F1" height="34.1328" style="stroke:#181818;stroke-width:1.5;" width="133" x="3014.5" y="231.5313"/><text fill="#000000" font-family="sans-serif" font-size="12" lengthAdjust="spacing" textLength="113" x="3024.5" y="253.1328">EducationalTraining</text><line style="stroke:#181818;stroke-width:1.5;" x1="3004.5" x2="3014.5" y1="297.7305" y2="297.7305"/><rect fill="#F1F1F1" height="34.1328" style="stroke:#181818;stroke-width:1.5;" width="136" x="3014.5" y="280.6641"/><text fill="#000000" font-family="sans-serif" font-size="12" lengthAdjust="spacing" textLength="116" x="3024.5" y="302.2656">ProfessionalTraining</text><line style="stroke:#181818;stroke-width:1.5;" x1="3004.5" x2="3014.5" y1="346.8633" y2="346.8633"/><rect fill="#F1F1F1" height="34.1328" style="stroke:#181818;stroke-width:1.5;" width="174" x="3014.5" y="329.7969"/><text fill="#000000" font-family="sans-serif" font-size="12" lengthAdjust="spacing" textLength="154" x="3024.5" y="351.3984">SecurityKnowledgeTraining</text><line style="stroke:#181818;stroke-width:1.5;" x1="3004.5" x2="3004.5" y1="118.2656" y2="346.8633"/><line style="stroke:#181818;stroke-width:1.5;" x1="3301" x2="3301" y1="64.1328" y2="84.1328"/><rect fill="#F1F1F1" height="34.1328" style="stroke:#181818;stroke-width:1.5;" width="185" x="3208.5" y="84.1328"/><text fill="#000000" font-family="sans-serif" font-size="12" lengthAdjust="spacing" textLength="165" x="3218.5" y="105.7344">SupportEntityDecisionMaking</text><line style="stroke:#181818;stroke-width:1.5;" x1="3301" x2="3311" y1="150.332" y2="150.332"/><rect fill="#F1F1F1" height="34.1328" style="stroke:#181818;stroke-width:1.5;" width="178" x="3311" y="133.2656"/><text fill="#000000" font-family="sans-serif" font-size="12" lengthAdjust="spacing" textLength="158" x="3321" y="154.8672">SupportContractNegotiation</text><line style="stroke:#181818;stroke-width:1.5;" x1="3301" x2="3311" y1="199.4648" y2="199.4648"/><rect fill="#F1F1F1" height="34.1328" style="stroke:#181818;stroke-width:1.5;" width="166" x="3311" y="182.3984"/><text fill="#000000" font-family="sans-serif" font-size="12" lengthAdjust="spacing" textLength="146" x="3321" y="204">SupportExchangeOfViews</text><line style="stroke:#181818;stroke-width:1.5;" x1="3301" x2="3311" y1="248.5977" y2="248.5977"/><rect fill="#F1F1F1" height="34.1328" style="stroke:#181818;stroke-width:1.5;" width="211" x="3311" y="231.5313"/><text fill="#000000" font-family="sans-serif" font-size="12" lengthAdjust="spacing" textLength="191" x="3321" y="253.1328">SupportInformedConsentDecision</text><line style="stroke:#181818;stroke-width:1.5;" x1="3301" x2="3301" y1="118.2656" y2="248.5977"/><line style="stroke:#181818;stroke-width:1.5;" x1="54" x2="3301" y1="64.1328" y2="64.1328"/><rect fill="#F1F1F1" height="34.1328" style="stroke:#181818;stroke-width:1.5;" width="151" x="1602" y="10"/><text fill="#000000" font-family="sans-serif" font-size="12" lengthAdjust="spacing" textLength="131" x="1612" y="31.6016">OrganisationalMeasure</text><line style="stroke:#181818;stroke-width:1.5;" x1="1677.5" x2="1677.5" y1="44.1328" y2="64.1328"/><!--SRC=[TLNBKkCm4BpxAtHSg8822YWg9_A22YJ4QmVshCXZHuipIkaHoD_loA_O9dkBfqUjdfuPvT5OhktNsWJ1ELlgZACqt4g5F5y0Dqv3S7xEXiQ0CLj0Ir_dRAoskrno5F03m5JfxGbamYsVeGMjTg3vMkRI7awa_7Ry139DKn1MxW4fEW5YsKeiL8PQ2KX8fIaIvv19AxVSGd4N6DjXOcFGLgPI56TZu7cfkXqj8XNawp4kjqUW7VWZxMRex4PfKdmIzHN5RlsNn9_6mwM_PI99DS_daYHpKL8DPvrFpzGAi6Ur1utUvvu3lbwxuCWpy4Ntq6FZ5Wgb9UMObVpKTKFq4GZFVEYTcw6G2T7zbxXEY62do4pCwAQjmxQdeSfbLKq4UmbV3KLfkUMOS9sOrWmLbJeYpYLrFYIrGkvog4f9O9bISk8gToTWP8OrJn5g3fSAEWJqjIStHuS9f9owqWzwCY_WJLafeEd2IdCqAUXMk3hKYiGWd9-AsfO6AjXwe_OpjPN0V4V8bMKwz1j0qrqvxhMCD72nAJEQO66hCTI35j2_fO5O9BEDDSV6DZpLu9x4Ps7KYuH-9-bMXHs0nJo5pDNzYEXtpcdk3Z5rQQs-It5rpfFIROk3bl3ki5HhPxflG06DkFZCj7AOZ3SWFezcrKmzuKKOZgPDSI-rmYvEnoALztTjjP4w2UdvFFnGQO9ofDEKYf5Ohzdui0PjgkGEKdNE-dTEOGUQqeHNJt8dJkaf59RtW5hDAwgl798CMYYBtSwlw1GjPKn0oB9ddytX4gV5ilJOs3V8Q21RureT_nORZXbju0Tjicb3is9z8V6F7PbONn44Zu19yKSJvXpj-sBEwANn4Bk-lBcwkRsy-nKxP0j-O3VtxFfgS7qtk7jWitZ5F7mM_7eEvymefmMmH1ghvTfvOMV12zzp5ZcgQGi3jjm1lanUwm1hj_JbOt5CkB-z64bBVcbImZuMGVKKq0cX4d9amDvNJnSFmPngTJGr0mOOZ6cuh3uCsFFe7m00]--></g></svg>