<svg xmlns="http://www.w3.org/2000/svg" xmlns:xlink="http://www.w3.org/1999/xlink" contentStyleType="text/css" height="268px" preserveAspectRatio="none" style="width:1110px;height:268px;background:#FFFFFF;" version="1.1" viewBox="0 0 1110 268" width="1110px" zoomAndPan="magnify"><defs/><g><!--cluster dpv--><g id="cluster_dpv"><path d="M8.5,96.48 L35.5,96.48 A3.75,3.75 0 0 1 38,98.98 L45,118.9683 L1100.5,118.9683 A2.5,2.5 0 0 1 1103,121.4683 L1103,258.96 A2.5,2.5 0 0 1 1100.5,261.46 L8.5,261.46 A2.5,2.5 0 0 1 6,258.96 L6,98.98 A2.5,2.5 0 0 1 8.5,96.48 " fill="none" style="stroke:#000000;stroke-width:1.5;"/><line style="stroke:#000000;stroke-width:1.5;" x1="6" x2="45" y1="118.9683" y2="118.9683"/><text fill="#000000" font-family="sans-serif" font-size="14" font-weight="bold" lengthAdjust="spacing" textLength="26" x="10" y="112.0152">dpv</text></g><!--class Entity--><g id="elem_Entity"><rect codeLine="6" fill="#F1F1F1" height="26.4883" id="Entity" rx="2.5" ry="2.5" style="stroke:#181818;stroke-width:0.5;" width="44" x="459" y="131.48"/><text fill="#000000" font-family="sans-serif" font-size="14" lengthAdjust="spacing" textLength="38" x="462" y="150.0152">Entity</text></g><!--class EntityInvolvement--><g id="elem_EntityInvolvement"><rect codeLine="7" fill="#F1F1F1" height="26.4883" id="EntityInvolvement" rx="2.5" ry="2.5" style="stroke:#181818;stroke-width:0.5;" width="127" x="538.5" y="131.48"/><text fill="#000000" font-family="sans-serif" font-size="14" lengthAdjust="spacing" textLength="121" x="541.5" y="150.0152">EntityInvolvement</text></g><!--class EntityPermissiveInvolvement--><g id="elem_EntityPermissiveInvolvement"><rect codeLine="8" fill="#F1F1F1" height="26.4883" id="EntityPermissiveInvolvement" rx="2.5" ry="2.5" style="stroke:#181818;stroke-width:0.5;" width="199" x="22.5" y="218.97"/><text fill="#000000" font-family="sans-serif" font-size="14" lengthAdjust="spacing" textLength="193" x="25.5" y="237.5052">EntityPermissiveInvolvement</text></g><!--class EntityNonPermissiveInvolvement--><g id="elem_EntityNonPermissiveInvolvement"><rect codeLine="9" fill="#F1F1F1" height="26.4883" id="EntityNonPermissiveInvolvement" rx="2.5" ry="2.5" style="stroke:#181818;stroke-width:0.5;" width="227" x="256.5" y="218.97"/><text fill="#000000" font-family="sans-serif" font-size="14" lengthAdjust="spacing" textLength="221" x="259.5" y="237.5052">EntityNonPermissiveInvolvement</text></g><!--class EntityActiveInvolvement--><g id="elem_EntityActiveInvolvement"><rect codeLine="10" fill="#F1F1F1" height="26.4883" id="EntityActiveInvolvement" rx="2.5" ry="2.5" style="stroke:#181818;stroke-width:0.5;" width="168" x="518" y="218.97"/><text fill="#000000" font-family="sans-serif" font-size="14" lengthAdjust="spacing" textLength="162" x="521" y="237.5052">EntityActiveInvolvement</text></g><!--class EntityPassiveInvolvement--><g id="elem_EntityPassiveInvolvement"><rect codeLine="11" fill="#F1F1F1" height="26.4883" id="EntityPassiveInvolvement" rx="2.5" ry="2.5" style="stroke:#181818;stroke-width:0.5;" width="176" x="721" y="218.97"/><text fill="#000000" font-family="sans-serif" font-size="14" lengthAdjust="spacing" textLength="170" x="724" y="237.5052">EntityPassiveInvolvement</text></g><!--class EntityNonInvolvement--><g id="elem_EntityNonInvolvement"><rect codeLine="12" fill="#F1F1F1" height="26.4883" id="EntityNonInvolvement" rx="2.5" ry="2.5" style="stroke:#181818;stroke-width:0.5;" width="155" x="931.5" y="218.97"/><text fill="#000000" font-family="sans-serif" font-size="14" lengthAdjust="spacing" textLength="149" x="934.5" y="237.5052">EntityNonInvolvement</text></g><!--class Thing--><g id="elem_Thing"><rect codeLine="4" fill="#C0C0C0" height="26.4883" id="Thing" rx="2.5" ry="2.5" style="stroke:#181818;stroke-width:0.5;" width="46" x="518" y="7"/><text fill="#000000" font-family="sans-serif" font-size="14" lengthAdjust="spacing" textLength="40" x="521" y="25.5352">Thing</text></g><!--link Thing to EntityInvolvement--><g id="link_Thing_EntityInvolvement"><path codeLine="15" d="M547.3,33.89 C559.05,57.48 584.17,107.93 595.83,131.33 " fill="none" id="Thing-EntityInvolvement" style="stroke:#181818;stroke-width:1.0;"/><polygon fill="#000000" points="576.2291,76.6109,574.8273,67.2042,569.5659,69.8246,576.2291,76.6109" style="stroke:#000000;stroke-width:1.0;"/><text fill="#000000" font-family="sans-serif" font-size="13" lengthAdjust="spacing" textLength="135" x="583" y="77.0484">hasEntityInvolvement</text></g><!--reverse link EntityInvolvement to EntityPermissiveInvolvement--><g id="link_EntityInvolvement_EntityPermissiveInvolvement"><path codeLine="16" d="M520.5389,160.2364 C431.1589,176.1564 286.8,201.87 193.44,218.49 " fill="none" id="EntityInvolvement-backto-EntityPermissiveInvolvement" style="stroke:#181818;stroke-width:1.0;"/><polygon fill="none" points="538.26,157.08,519.4868,154.3294,521.591,166.1434,538.26,157.08" style="stroke:#181818;stroke-width:1.0;"/></g><!--reverse link EntityInvolvement to EntityNonPermissiveInvolvement--><g id="link_EntityInvolvement_EntityNonPermissiveInvolvement"><path codeLine="17" d="M550.6305,164.6545 C506.7005,180.8445 448.13,202.43 404.29,218.58 " fill="none" id="EntityInvolvement-backto-EntityNonPermissiveInvolvement" style="stroke:#181818;stroke-width:1.0;"/><polygon fill="none" points="567.52,158.43,548.5557,159.0246,552.7053,170.2843,567.52,158.43" style="stroke:#181818;stroke-width:1.0;"/></g><!--reverse link EntityInvolvement to EntityActiveInvolvement--><g id="link_EntityInvolvement_EntityActiveInvolvement"><path codeLine="18" d="M602,176.34 C602,192.5 602,202.36 602,218.55 " fill="none" id="EntityInvolvement-backto-EntityActiveInvolvement" style="stroke:#181818;stroke-width:1.0;"/><polygon fill="none" points="602,158.34,596,176.34,608,176.34,602,158.34" style="stroke:#181818;stroke-width:1.0;"/></g><!--reverse link EntityInvolvement to EntityPassiveInvolvement--><g id="link_EntityInvolvement_EntityPassiveInvolvement"><path codeLine="19" d="M649.1777,165.2093 C688.3177,181.3693 739.13,202.36 778.33,218.55 " fill="none" id="EntityInvolvement-backto-EntityPassiveInvolvement" style="stroke:#181818;stroke-width:1.0;"/><polygon fill="none" points="632.54,158.34,646.8879,170.7552,651.4675,159.6634,632.54,158.34" style="stroke:#181818;stroke-width:1.0;"/></g><!--reverse link EntityInvolvement to EntityNonInvolvement--><g id="link_EntityInvolvement_EntityNonInvolvement"><path codeLine="20" d="M680.1053,162.1316 C757.0553,178.3016 871.56,202.35 948.51,218.51 " fill="none" id="EntityInvolvement-backto-EntityNonInvolvement" style="stroke:#181818;stroke-width:1.0;"/><polygon fill="none" points="662.49,158.43,678.8714,168.0034,681.3392,156.2599,662.49,158.43" style="stroke:#181818;stroke-width:1.0;"/></g><!--link Thing to Entity--><g id="link_Thing_Entity"><path codeLine="22" d="M534.8,33.89 C523.25,57.48 498.54,107.93 487.07,131.33 " fill="none" id="Thing-Entity" style="stroke:#181818;stroke-width:1.0;"/><polygon fill="#000000" points="521.8005,76.4702,528.4187,69.6402,523.1401,67.0545,521.8005,76.4702" style="stroke:#000000;stroke-width:1.0;"/><text fill="#000000" font-family="sans-serif" font-size="13" lengthAdjust="spacing" textLength="97" x="390.8984" y="54.0667">hasActiveEntity</text><text fill="#000000" font-family="sans-serif" font-size="13" lengthAdjust="spacing" textLength="104" x="387.3984" y="69.3773">hasPassiveEntity</text><text fill="#000000" font-family="sans-serif" font-size="13" lengthAdjust="spacing" textLength="161" x="358.8984" y="84.6878">hasNonInvolvementEntity</text><text fill="#000000" font-family="sans-serif" font-size="13" lengthAdjust="spacing" textLength="134" x="372.3984" y="99.9984">isDeterminedByEntity</text></g><!--SRC=[bP0_JyD03CNt-nIc34nbw5XLI20wT44T65ciYvLOlJYdyoLILFZklUe01Gv2yVZpyv_thbYiwoi2ZQEZM-zGOjywSwC75ey1MwX3r_kTD1GuebY2bJ7MeIeyDomrN2kxWOBnQ0zO4rH-WAE1L5crbSXnBC1EXYxDjIInwEqfjApA0ysfdZgvJ7Xlun-AFLvoRTf-CoRRNovBGx261hN4TwPaczVF3J-xcHtvDOFPgJAG-R_mtqzDjT-3IkaiKZpvYOnU987tCnFoTT57W_MHujcqKFKmPhf8sPu0]--></g></svg>