<svg xmlns="http://www.w3.org/2000/svg" xmlns:xlink="http://www.w3.org/1999/xlink" contentStyleType="text/css" height="314px" preserveAspectRatio="none" style="width:1903px;height:314px;background:#FFFFFF;" version="1.1" viewBox="0 0 1903 314" width="1903px" zoomAndPan="magnify"><defs/><g><!--cluster dpv--><g id="cluster_dpv"><path d="M40.35,142.48 L67.35,142.48 A3.75,3.75 0 0 1 69.85,144.98 L76.85,164.9683 L1467.35,164.9683 A2.5,2.5 0 0 1 1469.85,167.4683 L1469.85,304.96 A2.5,2.5 0 0 1 1467.35,307.46 L40.35,307.46 A2.5,2.5 0 0 1 37.85,304.96 L37.85,144.98 A2.5,2.5 0 0 1 40.35,142.48 " fill="none" style="stroke:#000000;stroke-width:1.5;"/><line style="stroke:#000000;stroke-width:1.5;" x1="37.85" x2="76.85" y1="164.9683" y2="164.9683"/><text fill="#000000" font-family="sans-serif" font-size="14" font-weight="bold" lengthAdjust="spacing" textLength="26" x="41.85" y="158.0152">dpv</text></g><!--class Entity--><g id="elem_Entity"><rect codeLine="5" fill="#F1F1F1" height="26.4883" id="Entity" rx="2.5" ry="2.5" style="stroke:#181818;stroke-width:0.5;" width="44" x="53.85" y="177.48"/><text fill="#000000" font-family="sans-serif" font-size="14" lengthAdjust="spacing" textLength="38" x="56.85" y="196.0152">Entity</text></g><!--class AutomationLevel--><g id="elem_AutomationLevel"><rect codeLine="6" fill="#F1F1F1" height="26.4883" id="AutomationLevel" rx="2.5" ry="2.5" style="stroke:#181818;stroke-width:0.5;" width="121" x="133.35" y="177.48"/><text fill="#000000" font-family="sans-serif" font-size="14" lengthAdjust="spacing" textLength="115" x="136.35" y="196.0152">AutomationLevel</text></g><!--class EntityInvolvement--><g id="elem_EntityInvolvement"><rect codeLine="7" fill="#F1F1F1" height="26.4883" id="EntityInvolvement" rx="2.5" ry="2.5" style="stroke:#181818;stroke-width:0.5;" width="127" x="376.35" y="177.48"/><text fill="#000000" font-family="sans-serif" font-size="14" lengthAdjust="spacing" textLength="121" x="379.35" y="196.0152">EntityInvolvement</text></g><!--class EntityPermissiveInvolvement--><g id="elem_EntityPermissiveInvolvement"><rect codeLine="8" fill="#F1F1F1" height="26.4883" id="EntityPermissiveInvolvement" rx="2.5" ry="2.5" style="stroke:#181818;stroke-width:0.5;" width="199" x="454.35" y="264.97"/><text fill="#000000" font-family="sans-serif" font-size="14" lengthAdjust="spacing" textLength="193" x="457.35" y="283.5052">EntityPermissiveInvolvement</text></g><!--class EntityNonPermissiveInvolvement--><g id="elem_EntityNonPermissiveInvolvement"><rect codeLine="9" fill="#F1F1F1" height="26.4883" id="EntityNonPermissiveInvolvement" rx="2.5" ry="2.5" style="stroke:#181818;stroke-width:0.5;" width="227" x="688.35" y="264.97"/><text fill="#000000" font-family="sans-serif" font-size="14" lengthAdjust="spacing" textLength="221" x="691.35" y="283.5052">EntityNonPermissiveInvolvement</text></g><!--class EntityActiveInvolvement--><g id="elem_EntityActiveInvolvement"><rect codeLine="10" fill="#F1F1F1" height="26.4883" id="EntityActiveInvolvement" rx="2.5" ry="2.5" style="stroke:#181818;stroke-width:0.5;" width="168" x="949.85" y="264.97"/><text fill="#000000" font-family="sans-serif" font-size="14" lengthAdjust="spacing" textLength="162" x="952.85" y="283.5052">EntityActiveInvolvement</text></g><!--class EntityPassiveInvolvement--><g id="elem_EntityPassiveInvolvement"><rect codeLine="11" fill="#F1F1F1" height="26.4883" id="EntityPassiveInvolvement" rx="2.5" ry="2.5" style="stroke:#181818;stroke-width:0.5;" width="176" x="53.85" y="264.97"/><text fill="#000000" font-family="sans-serif" font-size="14" lengthAdjust="spacing" textLength="170" x="56.85" y="283.5052">EntityPassiveInvolvement</text></g><!--class EntityNonInvolvement--><g id="elem_EntityNonInvolvement"><rect codeLine="12" fill="#F1F1F1" height="26.4883" id="EntityNonInvolvement" rx="2.5" ry="2.5" style="stroke:#181818;stroke-width:0.5;" width="155" x="264.35" y="264.97"/><text fill="#000000" font-family="sans-serif" font-size="14" lengthAdjust="spacing" textLength="149" x="267.35" y="283.5052">EntityNonInvolvement</text></g><!--class HumanInvolvement--><g id="elem_HumanInvolvement"><rect codeLine="13" fill="#F1F1F1" height="26.4883" id="HumanInvolvement" rx="2.5" ry="2.5" style="stroke:#181818;stroke-width:0.5;" width="138" x="1152.85" y="264.97"/><text fill="#000000" font-family="sans-serif" font-size="14" lengthAdjust="spacing" textLength="132" x="1155.85" y="283.5052">HumanInvolvement</text></g><!--class ProcessingCondition--><g id="elem_ProcessingCondition"><rect codeLine="14" fill="#F1F1F1" height="26.4883" id="ProcessingCondition" rx="2.5" ry="2.5" style="stroke:#181818;stroke-width:0.5;" width="148" x="538.85" y="177.48"/><text fill="#000000" font-family="sans-serif" font-size="14" lengthAdjust="spacing" textLength="142" x="541.85" y="196.0152">ProcessingCondition</text></g><!--class StorageCondition--><g id="elem_StorageCondition"><rect codeLine="15" fill="#F1F1F1" height="26.4883" id="StorageCondition" rx="2.5" ry="2.5" style="stroke:#181818;stroke-width:0.5;" width="127" x="1326.35" y="264.97"/><text fill="#000000" font-family="sans-serif" font-size="14" lengthAdjust="spacing" textLength="121" x="1329.35" y="283.5052">StorageCondition</text></g><!--class DataSource--><g id="elem_DataSource"><rect codeLine="16" fill="#F1F1F1" height="26.4883" id="DataSource" rx="2.5" ry="2.5" style="stroke:#181818;stroke-width:0.5;" width="84" x="721.85" y="177.48"/><text fill="#000000" font-family="sans-serif" font-size="14" lengthAdjust="spacing" textLength="78" x="724.85" y="196.0152">DataSource</text></g><!--class DataSubjectScale--><g id="elem_DataSubjectScale"><rect codeLine="17" fill="#F1F1F1" height="26.4883" id="DataSubjectScale" rx="2.5" ry="2.5" style="stroke:#181818;stroke-width:0.5;" width="122" x="845.85" y="177.48"/><text fill="#000000" font-family="sans-serif" font-size="14" lengthAdjust="spacing" textLength="116" x="848.85" y="196.0152">DataSubjectScale</text></g><!--class DataVolume--><g id="elem_DataVolume"><rect codeLine="18" fill="#F1F1F1" height="26.4883" id="DataVolume" rx="2.5" ry="2.5" style="stroke:#181818;stroke-width:0.5;" width="89" x="1030.35" y="177.48"/><text fill="#000000" font-family="sans-serif" font-size="14" lengthAdjust="spacing" textLength="83" x="1033.35" y="196.0152">DataVolume</text></g><!--class ProcessingScale--><g id="elem_ProcessingScale"><rect codeLine="19" fill="#F1F1F1" height="26.4883" id="ProcessingScale" rx="2.5" ry="2.5" style="stroke:#181818;stroke-width:0.5;" width="115" x="1154.35" y="177.48"/><text fill="#000000" font-family="sans-serif" font-size="14" lengthAdjust="spacing" textLength="109" x="1157.35" y="196.0152">ProcessingScale</text></g><!--class GeographicCoverage--><g id="elem_GeographicCoverage"><rect codeLine="20" fill="#F1F1F1" height="26.4883" id="GeographicCoverage" rx="2.5" ry="2.5" style="stroke:#181818;stroke-width:0.5;" width="150" x="1303.85" y="177.48"/><text fill="#000000" font-family="sans-serif" font-size="14" lengthAdjust="spacing" textLength="144" x="1306.85" y="196.0152">GeographicCoverage</text></g><!--class Thing--><g id="elem_Thing"><rect codeLine="3" fill="#C0C0C0" height="26.4883" id="Thing" rx="2.5" ry="2.5" style="stroke:#181818;stroke-width:0.5;" width="46" x="883.85" y="7"/><text fill="#000000" font-family="sans-serif" font-size="14" lengthAdjust="spacing" textLength="40" x="886.85" y="25.5352">Thing</text></g><!--link Thing to AutomationLevel--><g id="link_Thing_AutomationLevel"><path codeLine="23" d="M883.47,21.36 C772.92,22.09 305.82,27.32 252.85,63.48 C213.49,90.36 199.77,150.63 195.53,176.98 " fill="none" id="Thing-AutomationLevel" style="stroke:#181818;stroke-width:1.0;"/><polygon fill="#000000" points="252.9732,96.2385,262.4438,97.1093,261.147,91.3763,252.9732,96.2385" style="stroke:#000000;stroke-width:1.0;"/><text fill="#000000" font-family="sans-serif" font-size="13" lengthAdjust="spacing" textLength="128" x="266.85" y="100.0484">hasAutomationLevel</text></g><!--link Thing to EntityInvolvement--><g id="link_Thing_EntityInvolvement"><path codeLine="24" d="M883.67,21.44 C790.75,22.5 448.74,28.72 416.85,63.48 C387.48,95.49 416.2,151.99 431.55,177.09 " fill="none" id="Thing-EntityInvolvement" style="stroke:#181818;stroke-width:1.0;"/><polygon fill="#000000" points="417.1223,96.7629,426.6314,96.5974,424.7181,91.0397,417.1223,96.7629" style="stroke:#000000;stroke-width:1.0;"/><text fill="#000000" font-family="sans-serif" font-size="13" lengthAdjust="spacing" textLength="135" x="430.85" y="100.0484">hasEntityInvolvement</text></g><!--reverse link EntityInvolvement to EntityPermissiveInvolvement--><g id="link_EntityInvolvement_EntityPermissiveInvolvement"><path codeLine="25" d="M471.0708,215.1389 C492.6208,231.2989 515.37,248.36 536.96,264.55 " fill="none" id="EntityInvolvement-backto-EntityPermissiveInvolvement" style="stroke:#181818;stroke-width:1.0;"/><polygon fill="none" points="456.67,204.34,467.4712,219.9392,474.6704,210.3387,456.67,204.34" style="stroke:#181818;stroke-width:1.0;"/></g><!--reverse link EntityInvolvement to EntityNonPermissiveInvolvement--><g id="link_EntityInvolvement_EntityNonPermissiveInvolvement"><path codeLine="26" d="M511.1678,208.5683 C579.6178,224.7383 679.6,248.35 748.05,264.51 " fill="none" id="EntityInvolvement-backto-EntityNonPermissiveInvolvement" style="stroke:#181818;stroke-width:1.0;"/><polygon fill="none" points="493.65,204.43,509.7884,214.4075,512.5473,202.729,493.65,204.43" style="stroke:#181818;stroke-width:1.0;"/></g><!--reverse link EntityInvolvement to EntityActiveInvolvement--><g id="link_EntityInvolvement_EntityActiveInvolvement"><path codeLine="27" d="M521.3104,204.0731 C672.1804,226.2431 847.7,251.07 949.4,265.37 " fill="none" id="EntityInvolvement-backto-EntityActiveInvolvement" style="stroke:#181818;stroke-width:1.0;"/><polygon fill="none" points="503.51,201.4,520.4194,210.0066,522.2014,198.1396,503.51,201.4" style="stroke:#181818;stroke-width:1.0;"/></g><!--reverse link EntityInvolvement to EntityPassiveInvolvement--><g id="link_EntityInvolvement_EntityPassiveInvolvement"><path codeLine="28" d="M378.258,209.394 C321.828,225.584 242.21,248.43 185.9,264.58 " fill="none" id="EntityInvolvement-backto-EntityPassiveInvolvement" style="stroke:#181818;stroke-width:1.0;"/><polygon fill="none" points="395.56,204.43,376.6033,203.6267,379.9127,215.1613,395.56,204.43" style="stroke:#181818;stroke-width:1.0;"/></g><!--reverse link EntityInvolvement to EntityNonInvolvement--><g id="link_EntityInvolvement_EntityNonInvolvement"><path codeLine="29" d="M411.8241,216.1708 C393.2941,232.3308 374.93,248.36 356.37,264.55 " fill="none" id="EntityInvolvement-backto-EntityNonInvolvement" style="stroke:#181818;stroke-width:1.0;"/><polygon fill="none" points="425.39,204.34,407.8805,211.6488,415.7677,220.6927,425.39,204.34" style="stroke:#181818;stroke-width:1.0;"/></g><!--reverse link EntityInvolvement to HumanInvolvement--><g id="link_EntityInvolvement_HumanInvolvement"><path codeLine="30" d="M521.3069,204.1503 C793.4169,238.2103 862.57,232.3 1134.85,264.97 C1140.6,265.66 1146.57,266.42 1152.55,267.2 " fill="none" id="EntityInvolvement-backto-HumanInvolvement" style="stroke:#181818;stroke-width:1.0;"/><polygon fill="none" points="503.48,201.66,520.4768,210.0926,522.137,198.208,503.48,201.66" style="stroke:#181818;stroke-width:1.0;"/></g><!--link Thing to Entity--><g id="link_Thing_Entity"><path codeLine="32" d="M883.57,21.47 C748.15,22.95 66.9,31.94 36.85,63.48 C6,95.87 44.77,152.17 65.01,177.16 " fill="none" id="Thing-Entity" style="stroke:#181818;stroke-width:1.0;"/><text fill="#000000" font-family="sans-serif" font-size="13" lengthAdjust="spacing" textLength="97" x="69.85" y="77.0484">hasActiveEntity</text><text fill="#000000" font-family="sans-serif" font-size="13" lengthAdjust="spacing" textLength="104" x="66.35" y="92.3589">hasPassiveEntity</text><text fill="#000000" font-family="sans-serif" font-size="13" lengthAdjust="spacing" textLength="161" x="37.85" y="107.6695">hasNonInvolvementEntity</text><polygon fill="#000000" points="44.9381,119.0012,54.373,120.1983,53.2747,114.4239,44.9381,119.0012" style="stroke:#000000;stroke-width:1.0;"/><text fill="#000000" font-family="sans-serif" font-size="13" lengthAdjust="spacing" textLength="134" x="57.85" y="122.98">isDeterminedByEntity</text></g><!--link Thing to ProcessingCondition--><g id="link_Thing_ProcessingCondition"><path codeLine="33" d="M883.55,22.58 C813.33,26.86 607.36,41.21 587.85,63.48 C559.14,96.25 588.67,152.35 604.38,177.22 " fill="none" id="Thing-ProcessingCondition" style="stroke:#181818;stroke-width:1.0;"/><polygon fill="#000000" points="588.4762,97.558,597.8126,95.7461,594.9644,90.6044,588.4762,97.558" style="stroke:#000000;stroke-width:1.0;"/><text fill="#000000" font-family="sans-serif" font-size="13" lengthAdjust="spacing" textLength="152" x="601.85" y="100.0484">hasProcessingCondition</text></g><!--link Thing to StorageCondition--><g id="link_Thing_StorageCondition"><path codeLine="34" d="M930.03,21.42 C1034.97,22.42 1466.08,28.62 1595.85,63.48 C1663.99,81.79 1700.75,74.46 1737.85,134.48 C1754.09,160.75 1757.31,179.99 1737.85,203.97 C1702.74,247.24 1544.14,265.91 1453.64,273.15 " fill="none" id="Thing-StorageCondition" style="stroke:#181818;stroke-width:1.0;"/><polygon fill="#000000" points="1760.3563,193.0517,1753.4777,186.4839,1750.9309,191.7813,1760.3563,193.0517" style="stroke:#000000;stroke-width:1.0;"/><text fill="#000000" font-family="sans-serif" font-size="13" lengthAdjust="spacing" textLength="131" x="1764.85" y="195.7984">hasStorageCondition</text></g><!--reverse link ProcessingCondition to StorageCondition--><g id="link_ProcessingCondition_StorageCondition"><path codeLine="35" d="M705.1765,204.218 C973.5765,235.798 1040.72,231.21 1308.85,264.97 C1314.49,265.68 1320.35,266.47 1326.22,267.29 " fill="none" id="ProcessingCondition-backto-StorageCondition" style="stroke:#181818;stroke-width:1.0;"/><polygon fill="none" points="687.32,201.95,704.4205,210.1702,705.9325,198.2658,687.32,201.95" style="stroke:#181818;stroke-width:1.0;"/></g><!--link Thing to HumanInvolvement--><g id="link_Thing_HumanInvolvement"><path codeLine="36" d="M930.21,20.91 C1041.69,19.58 1516,16.71 1559.85,63.48 C1653.63,163.52 1401.54,236.42 1281.42,264.51 " fill="none" id="Thing-HumanInvolvement" style="stroke:#181818;stroke-width:1.0;"/><polygon fill="#000000" points="1579.9585,193.7349,1574.2012,186.165,1570.8512,190.9948,1579.9585,193.7349" style="stroke:#000000;stroke-width:1.0;"/><text fill="#000000" font-family="sans-serif" font-size="13" lengthAdjust="spacing" textLength="144" x="1584.85" y="195.7984">hasHumanInvolvement</text></g><!--link Thing to DataSource--><g id="link_Thing_DataSource"><path codeLine="37" d="M883.57,22.67 C856.14,25.66 811.22,34.92 786.85,63.48 C758.66,96.53 760.07,152.48 762.34,177.27 " fill="none" id="Thing-DataSource" style="stroke:#181818;stroke-width:1.0;"/><polygon fill="#000000" points="788.7647,99.0698,796.6588,93.7656,792.0334,90.1386,788.7647,99.0698" style="stroke:#000000;stroke-width:1.0;"/><text fill="#000000" font-family="sans-serif" font-size="13" lengthAdjust="spacing" textLength="93" x="800.85" y="100.0484">hasDataSource</text></g><!--link Thing to DataSubjectScale--><g id="link_Thing_DataSubjectScale"><path codeLine="38" d="M905.72,33.8 C905.03,42.19 904.2,53.49 903.85,63.48 C902.86,91.47 903.19,98.49 903.85,126.48 C904.27,144.07 905.33,164.38 906.08,177.13 " fill="none" id="Thing-DataSubjectScale" style="stroke:#181818;stroke-width:1.0;"/><polygon fill="#000000" points="908.8626,100.1353,911.7788,91.0828,905.9009,91.0976,908.8626,100.1353" style="stroke:#000000;stroke-width:1.0;"/><text fill="#000000" font-family="sans-serif" font-size="13" lengthAdjust="spacing" textLength="129" x="917.85" y="100.0484">hasDataSubjectScale</text></g><!--link Thing to DataVolume--><g id="link_Thing_DataVolume"><path codeLine="39" d="M930.33,20.96 C962.7,21.94 1020.6,28.82 1051.85,63.48 C1080.94,95.75 1079.06,152.11 1076.51,177.14 " fill="none" id="Thing-DataVolume" style="stroke:#181818;stroke-width:1.0;"/><polygon fill="#000000" points="1084.2667,98.7857,1080.2315,90.1737,1075.9401,94.1903,1084.2667,98.7857" style="stroke:#000000;stroke-width:1.0;"/><text fill="#000000" font-family="sans-serif" font-size="13" lengthAdjust="spacing" textLength="98" x="1089.85" y="100.0484">hasDataVolume</text></g><!--link Thing to ProcessingScale--><g id="link_Thing_ProcessingScale"><path codeLine="40" d="M930.17,21.14 C992.37,21.4 1160.02,25.67 1196.85,63.48 C1227.03,94.47 1219.79,152.01 1214.74,177.28 " fill="none" id="Thing-ProcessingScale" style="stroke:#181818;stroke-width:1.0;"/><polygon fill="#000000" points="1228.2335,97.5404,1221.7174,90.6129,1218.8899,95.766,1228.2335,97.5404" style="stroke:#000000;stroke-width:1.0;"/><text fill="#000000" font-family="sans-serif" font-size="13" lengthAdjust="spacing" textLength="122" x="1232.85" y="100.0484">hasProcessingScale</text></g><!--link Thing to GeographicCoverage--><g id="link_Thing_GeographicCoverage"><path codeLine="41" d="M930.16,21.71 C1018.95,23.73 1332.53,32.97 1363.85,63.48 C1394.84,93.67 1387.17,151.64 1381.87,177.15 " fill="none" id="Thing-GeographicCoverage" style="stroke:#181818;stroke-width:1.0;"/><polygon fill="#000000" points="1395.5779,96.7622,1387.9813,91.0401,1386.0688,96.598,1395.5779,96.7622" style="stroke:#000000;stroke-width:1.0;"/><text fill="#000000" font-family="sans-serif" font-size="13" lengthAdjust="spacing" textLength="151" x="1399.85" y="100.0484">hasGeographicCoverage</text></g><!--SRC=[bLFBJiCm4BpxAumubmz0A59f4I0X52c84vV5MQK6nuvYEr85_3jk7HfZkw7avfdPsSq-phXamjP8jTaAlEW4I6DRGGWJe3Lzsd3Pq7FDnO0zwO2zGuEqxWRwGQZxlEf66cws0R2qHhLWk98FEA18fFToKCwnHMaIhiI-vLhp0UTKZqgU9bmoyuUYX5EovUaxsy8HgkmLG-SicvMIDTyr8s0hethNoXor1WELiZt36BIlRyXCnK34rBCIjiLizbX-YwhfeTjmjb9kgAu8yaM87_HY4O-ENj8Dw1Wi9dqoK1-HmWL9iQlFWqD-chCXHtTWDYfTYFcwuDz5dQ1DzYPkwDZtVQqUUP4E6Ai9aD_vVWYkrsXslP5ONsz7os1gcUNq6ND441UlhGzAq8BaVFP_dYp-mJlkYVTEqA2QwLAyDdZ7gk1q0cs8HX7-eYRj-CxsCB2DmK2V7fuFoU058Ty0]--></g></svg>