<svg xmlns="http://www.w3.org/2000/svg" xmlns:xlink="http://www.w3.org/1999/xlink" contentStyleType="text/css" height="300px" preserveAspectRatio="none" style="width:586px;height:300px;background:#FFFFFF;" version="1.1" viewBox="0 0 586 300" width="586px" zoomAndPan="magnify"><defs/><g><!--cluster dpv--><g id="cluster_dpv"><path d="M253.5,6 L280.5,6 A3.75,3.75 0 0 1 283,8.5 L290,28.4883 L576.5,28.4883 A2.5,2.5 0 0 1 579,30.9883 L579,202.5 A2.5,2.5 0 0 1 576.5,205 L253.5,205 A2.5,2.5 0 0 1 251,202.5 L251,8.5 A2.5,2.5 0 0 1 253.5,6 " fill="none" style="stroke:#000000;stroke-width:1.5;"/><line style="stroke:#000000;stroke-width:1.5;" x1="251" x2="290" y1="28.4883" y2="28.4883"/><text fill="#000000" font-family="sans-serif" font-size="14" font-weight="bold" lengthAdjust="spacing" textLength="26" x="255" y="21.5352">dpv</text></g><!--class DataProcessor--><g id="elem_DataProcessor"><rect codeLine="7" fill="#F1F1F1" height="26.4883" id="DataProcessor" rx="2.5" ry="2.5" style="stroke:#181818;stroke-width:0.5;" width="104" x="457.5" y="40.76"/><text fill="#000000" font-family="sans-serif" font-size="14" lengthAdjust="spacing" textLength="98" x="460.5" y="59.2952">DataProcessor</text></g><!--class DataController--><g id="elem_DataController"><rect codeLine="8" fill="#F1F1F1" height="26.4883" id="DataController" rx="2.5" ry="2.5" style="stroke:#181818;stroke-width:0.5;" width="107" x="456" y="101.76"/><text fill="#000000" font-family="sans-serif" font-size="14" lengthAdjust="spacing" textLength="101" x="459" y="120.2952">DataController</text></g><!--class ThirdParty--><g id="elem_ThirdParty"><rect codeLine="9" fill="#F1F1F1" height="26.4883" id="ThirdParty" rx="2.5" ry="2.5" style="stroke:#181818;stroke-width:0.5;" width="77" x="471" y="162.76"/><text fill="#000000" font-family="sans-serif" font-size="14" lengthAdjust="spacing" textLength="71" x="474" y="181.2952">ThirdParty</text></g><!--class Recipient--><g id="elem_Recipient"><rect codeLine="10" fill="#F1F1F1" height="26.4883" id="Recipient" rx="2.5" ry="2.5" style="stroke:#181818;stroke-width:0.5;" width="69" x="267" y="40.76"/><text fill="#000000" font-family="sans-serif" font-size="14" lengthAdjust="spacing" textLength="63" x="270" y="59.2952">Recipient</text></g><!--class Thing--><g id="elem_Thing"><rect codeLine="5" fill="#C0C0C0" height="26.4883" id="Thing" rx="2.5" ry="2.5" style="stroke:#181818;stroke-width:0.5;" width="46" x="7" y="149.76"/><text fill="#000000" font-family="sans-serif" font-size="14" lengthAdjust="spacing" textLength="40" x="10" y="168.2952">Thing</text></g><!--reverse link Recipient to ThirdParty--><g id="link_Recipient_ThirdParty"><path codeLine="12" d="M353.0158,72.2889 C371.0958,79.2889 376.58,82.53 395,94 C425.24,112.83 426.85,125.52 456,146 C464.25,151.79 473.69,157.46 482.27,162.28 " fill="none" id="Recipient-backto-ThirdParty" style="stroke:#181818;stroke-width:1.0;"/><polygon fill="none" points="336.23,65.79,350.8495,77.8842,355.1821,66.6937,336.23,65.79" style="stroke:#181818;stroke-width:1.0;"/></g><!--reverse link Recipient to DataController--><g id="link_Recipient_DataController"><path codeLine="13" d="M354.0357,61.7449 C379.1357,65.8349 396.27,69.62 426,79 C444.93,84.97 465.38,93.88 481.18,101.34 " fill="none" id="Recipient-backto-DataController" style="stroke:#181818;stroke-width:1.0;"/><polygon fill="none" points="336.27,58.85,353.0707,67.6668,355.0006,55.823,336.27,58.85" style="stroke:#181818;stroke-width:1.0;"/></g><!--reverse link Recipient to DataProcessor--><g id="link_Recipient_DataProcessor"><path codeLine="14" d="M354.06,54 C386.89,54 419.35,54 457.21,54 " fill="none" id="Recipient-backto-DataProcessor" style="stroke:#181818;stroke-width:1.0;"/><polygon fill="none" points="336.06,54,354.06,60,354.06,48,336.06,54" style="stroke:#181818;stroke-width:1.0;"/></g><!--link Thing to Recipient--><g id="link_Thing_Recipient"><path codeLine="16" d="M37.8,149.5 C46.24,134.22 62.1,109.8 83,97 C140.61,61.73 221.45,54.61 266.6,53.62 " fill="none" id="Thing-Recipient" style="stroke:#181818;stroke-width:1.0;"/><polygon fill="#000000" points="92.6115,53.7228,83.1334,54.5081,85.4051,59.9292,92.6115,53.7228" style="stroke:#000000;stroke-width:1.0;"/><text fill="#000000" font-family="sans-serif" font-size="13" lengthAdjust="spacing" textLength="80" x="97" y="60.5684">hasRecipient</text></g><!--link Thing to DataController--><g id="link_Thing_DataController"><path codeLine="17" d="M53.23,168.47 C110.84,181.71 269.27,212 395,179 C397.45,178.36 451.96,147.32 484.54,128.71 " fill="none" id="Thing-DataController" style="stroke:#181818;stroke-width:1.0;"/><polygon fill="#000000" points="217.9789,170.1963,208.7022,168.1001,209.2418,173.9531,217.9789,170.1963" style="stroke:#000000;stroke-width:1.0;"/><text fill="#000000" font-family="sans-serif" font-size="13" lengthAdjust="spacing" textLength="172" x="222" y="175.5684">hasRecipientDataController</text></g><!--link Thing to DataProcessor--><g id="link_Thing_DataProcessor"><path codeLine="18" d="M53.3,159.96 C121.98,150.49 329.63,121.01 395,102 C425.4,93.16 458.59,78.49 481.18,67.7 " fill="none" id="Thing-DataProcessor" style="stroke:#181818;stroke-width:1.0;"/><polygon fill="#000000" points="218.8877,92.6014,209.4263,91.635,210.6652,97.3808,218.8877,92.6014" style="stroke:#000000;stroke-width:1.0;"/><text fill="#000000" font-family="sans-serif" font-size="13" lengthAdjust="spacing" textLength="170" x="223" y="98.5684">hasRecipientDataProcessor</text></g><!--link Thing to ThirdParty--><g id="link_Thing_ThirdParty"><path codeLine="19" d="M37.66,176.57 C46.07,192.27 62.01,217.78 83,232 C130.67,264.28 150.93,258.38 208,266 C290.38,277 316.51,293.34 395,266 C438.7,250.78 478.21,210.94 496.99,189.74 " fill="none" id="Thing-ThirdParty" style="stroke:#181818;stroke-width:1.0;"/><polygon fill="#000000" points="231.9979,257.7986,223.0408,254.6016,222.8723,260.4771,231.9979,257.7986" style="stroke:#000000;stroke-width:1.0;"/><text fill="#000000" font-family="sans-serif" font-size="13" lengthAdjust="spacing" textLength="144" x="236" y="262.5684">hasRecipientThirdParty</text></g><!--SRC=[ROz13i8m30JF-1L673Z10n3Y0Wz0Y0-4rBGH9euI5ma1VmU4QDB2BTdPNTjZvost5M7IAzCyiF7QdXcOZeeg65tTA5OkabKd7gOguQqVH5NE1G3B9YNSDyxNE4cEBnGX67ioDM4LBdY3qSUoCMgsKIob9B4Kr-8r2ZDrwgijLbiJzVfLTcHTSEGL7j2zSNcVpKhpW0pA_z2y3tmkUEdPji36fFnTPK-_kU_his6gc_WRwb2PoTSDrYd02k09]--></g></svg>