<svg xmlns="http://www.w3.org/2000/svg" xmlns:xlink="http://www.w3.org/1999/xlink" contentStyleType="text/css" height="374px" preserveAspectRatio="none" style="width:594px;height:374px;background:#FFFFFF;" version="1.1" viewBox="0 0 594 374" width="594px" zoomAndPan="magnify"><defs/><g><!--cluster dpv--><g id="cluster_dpv"><path d="M8.5,104.49 L35.5,104.49 A3.75,3.75 0 0 1 38,106.99 L45,126.9783 L446.5,126.9783 A2.5,2.5 0 0 1 449,129.4783 L449,364.92 A2.5,2.5 0 0 1 446.5,367.42 L8.5,367.42 A2.5,2.5 0 0 1 6,364.92 L6,106.99 A2.5,2.5 0 0 1 8.5,104.49 " fill="none" style="stroke:#000000;stroke-width:1.5;"/><line style="stroke:#000000;stroke-width:1.5;" x1="6" x2="45" y1="126.9783" y2="126.9783"/><text fill="#000000" font-family="sans-serif" font-size="14" font-weight="bold" lengthAdjust="spacing" textLength="26" x="10" y="120.0252">dpv</text></g><!--class Location--><g id="elem_Location"><rect codeLine="7" fill="#F1F1F1" height="100.4414" id="Location" rx="2.5" ry="2.5" style="stroke:#181818;stroke-width:0.5;" width="140" x="161" y="139.49"/><text fill="#000000" font-family="sans-serif" font-size="14" lengthAdjust="spacing" textLength="58" x="202" y="158.0252">Location</text><line style="stroke:#181818;stroke-width:0.5;" x1="162" x2="300" y1="165.9783" y2="165.9783"/><text fill="#000000" font-family="sans-serif" font-size="14" lengthAdjust="spacing" textLength="119" x="167" y="183.5134">String iso_alpha2</text><text fill="#000000" font-family="sans-serif" font-size="14" lengthAdjust="spacing" textLength="119" x="167" y="200.0017">String iso_alpha3</text><text fill="#000000" font-family="sans-serif" font-size="14" lengthAdjust="spacing" textLength="128" x="167" y="216.49">String iso_numeric</text><text fill="#000000" font-family="sans-serif" font-size="14" lengthAdjust="spacing" textLength="101" x="167" y="232.9783">String un_m49</text></g><!--class City--><g id="elem_City"><rect codeLine="13" fill="#F1F1F1" height="34.4883" id="City" rx="2.5" ry="2.5" style="stroke:#181818;stroke-width:0.5;" width="32" x="38" y="316.93"/><text fill="#000000" font-family="sans-serif" font-size="14" lengthAdjust="spacing" textLength="26" x="41" y="335.4652">City</text><line style="stroke:#181818;stroke-width:0.5;" x1="39" x2="69" y1="343.4183" y2="343.4183"/></g><!--class Region--><g id="elem_Region"><rect codeLine="14" fill="#F1F1F1" height="34.4883" id="Region" rx="2.5" ry="2.5" style="stroke:#181818;stroke-width:0.5;" width="54" x="105" y="316.93"/><text fill="#000000" font-family="sans-serif" font-size="14" lengthAdjust="spacing" textLength="48" x="108" y="335.4652">Region</text><line style="stroke:#181818;stroke-width:0.5;" x1="106" x2="158" y1="343.4183" y2="343.4183"/></g><!--class Country--><g id="elem_Country"><rect codeLine="15" fill="#F1F1F1" height="34.4883" id="Country" rx="2.5" ry="2.5" style="stroke:#181818;stroke-width:0.5;" width="61" x="193.5" y="316.93"/><text fill="#000000" font-family="sans-serif" font-size="14" lengthAdjust="spacing" textLength="55" x="196.5" y="335.4652">Country</text><line style="stroke:#181818;stroke-width:0.5;" x1="194.5" x2="253.5" y1="343.4183" y2="343.4183"/></g><!--class SupraNationalUnion--><g id="elem_SupraNationalUnion"><rect codeLine="16" fill="#F1F1F1" height="34.4883" id="SupraNationalUnion" rx="2.5" ry="2.5" style="stroke:#181818;stroke-width:0.5;" width="144" x="289" y="316.93"/><text fill="#000000" font-family="sans-serif" font-size="14" lengthAdjust="spacing" textLength="138" x="292" y="335.4652">SupraNationalUnion</text><line style="stroke:#181818;stroke-width:0.5;" x1="290" x2="432" y1="343.4183" y2="343.4183"/></g><!--class Thing--><g id="elem_Thing"><rect codeLine="4" fill="#C0C0C0" height="34.4883" id="Thing" rx="2.5" ry="2.5" style="stroke:#181818;stroke-width:0.5;" width="46" x="208" y="7"/><text fill="#000000" font-family="sans-serif" font-size="14" lengthAdjust="spacing" textLength="40" x="211" y="25.5352">Thing</text><line style="stroke:#181818;stroke-width:0.5;" x1="209" x2="253" y1="33.4883" y2="33.4883"/></g><!--class EU_Vocabularies--><g id="elem_EU_Vocabularies"><rect fill="#F1F1F1" height="34.4883" id="EU_Vocabularies" rx="2.5" ry="2.5" style="stroke:#181818;stroke-width:0.5;" width="119" x="468.5" y="316.93"/><text fill="#000000" font-family="sans-serif" font-size="14" lengthAdjust="spacing" textLength="113" x="471.5" y="335.4652">EU_Vocabularies</text><line style="stroke:#181818;stroke-width:0.5;" x1="469.5" x2="586.5" y1="343.4183" y2="343.4183"/></g><!--link Thing to Location--><g id="link_Thing_Location"><path codeLine="19" d="M231,41.82 C231,64.47 231,106.05 231,139.21 " fill="none" id="Thing-Location" style="stroke:#181818;stroke-width:1.0;"/><polygon fill="#000000" points="236,85.1453,238.9389,76.1002,233.0611,76.1002,236,85.1453" style="stroke:#000000;stroke-width:1.0;"/><text fill="#000000" font-family="sans-serif" font-size="13" lengthAdjust="spacing" textLength="76" x="245" y="85.0584">hasLocation</text></g><!--link Location to City--><g id="link_Location_City"><path codeLine="20" d="M160.67,211.75 C129.89,224.19 95.7,242.92 73,269.93 C61.86,283.18 57.25,302.81 55.35,316.67 " fill="none" id="Location-City" style="stroke:#181818;stroke-width:1.0;stroke-dasharray:7.0,7.0;"/><polygon fill="#000000" points="74.4577,282.1141,82.9399,277.8125,78.7916,273.6483,74.4577,282.1141" style="stroke:#000000;stroke-width:1.0;"/><text fill="#000000" font-family="sans-serif" font-size="13" lengthAdjust="spacing" textLength="49" x="87" y="283.4984">rdf:type</text></g><!--link Location to Region--><g id="link_Location_Region"><path codeLine="21" d="M176.52,240.37 C168.23,249.63 160.35,259.65 154,269.93 C145.02,284.47 139.1,303.17 135.69,316.45 " fill="none" id="Location-Region" style="stroke:#181818;stroke-width:1.0;stroke-dasharray:7.0,7.0;"/><polygon fill="#000000" points="156.6356,282.9909,163.5024,276.4108,158.3233,273.6313,156.6356,282.9909" style="stroke:#000000;stroke-width:1.0;"/><text fill="#000000" font-family="sans-serif" font-size="13" lengthAdjust="spacing" textLength="49" x="168" y="283.4984">rdf:type</text></g><!--link Location to Country--><g id="link_Location_Country"><path codeLine="22" d="M228.57,240.14 C227.26,266.82 225.73,298.02 224.81,316.66 " fill="none" id="Location-Country" style="stroke:#181818;stroke-width:1.0;stroke-dasharray:7.0,7.0;"/><polygon fill="#000000" points="231.7546,283.5792,235.1339,274.6893,229.2631,274.4008,231.7546,283.5792" style="stroke:#000000;stroke-width:1.0;"/><text fill="#000000" font-family="sans-serif" font-size="13" lengthAdjust="spacing" textLength="49" x="241" y="283.4984">rdf:type</text></g><!--link Location to SupraNationalUnion--><g id="link_Location_SupraNationalUnion"><path codeLine="23" d="M276.1,240.14 C300.45,266.82 328.92,298.02 345.93,316.66 " fill="none" id="Location-SupraNationalUnion" style="stroke:#181818;stroke-width:1.0;stroke-dasharray:7.0,7.0;"/><polygon fill="#000000" points="323.3704,282.2786,319.4442,273.6163,315.1024,277.5784,323.3704,282.2786" style="stroke:#000000;stroke-width:1.0;"/><text fill="#000000" font-family="sans-serif" font-size="13" lengthAdjust="spacing" textLength="49" x="329" y="283.4984">rdf:type</text></g><!--link Location to Location--><g id="link_Location_Location"><path codeLine="24" d="M301.17,173.16 C320.87,173.88 336,179.4 336,189.71 C336,200.02 320.87,205.54 301.17,206.26 " fill="none" id="Location-Location" style="stroke:#181818;stroke-width:1.0;"/><text fill="#000000" font-family="sans-serif" font-size="13" lengthAdjust="spacing" textLength="82" x="352" y="187.2784">skos:broader</text><polygon fill="#000000" points="347.1826,202.6725,349.7892,193.5261,343.9153,193.7408,347.1826,202.6725" style="stroke:#000000;stroke-width:1.0;"/><text fill="#000000" font-family="sans-serif" font-size="13" lengthAdjust="spacing" textLength="89" x="355" y="202.5889">skos:narrower</text></g><!--link Location to EU_Vocabularies--><g id="link_Location_EU_Vocabularies"><path codeLine="25" d="M301.38,224.47 C361.77,253.44 446.23,293.95 493.13,316.45 " fill="none" id="Location-EU_Vocabularies" style="stroke:#181818;stroke-width:1.0;stroke-dasharray:7.0,7.0;"/><polygon fill="#000000" points="432.5082,280.7478,425.6239,274.1859,423.0817,279.4856,432.5082,280.7478" style="stroke:#000000;stroke-width:1.0;"/><text fill="#000000" font-family="sans-serif" font-size="13" lengthAdjust="spacing" textLength="106" x="437" y="283.4984">skos:exactMatch</text></g><!--SRC=[TOynJmCn38Nt_8f8pEq0BDp0WjYW0wLCI2StCPUekIIoaqA5-j_9tPLo79mdFx_FyhEn6cMBoGJDmdH2ML8EMGZbW5a-6-iRUS7MxP64YA1sqA3KSIy_XImrO0z1GRB1duPThHDrgvP33IuQk9nrhlvpV6wHh9fQsTVjzKq_FOxktzbq6CadR4gOiH-oJpH6rZaIhFhGu3Q-muz23Eyk5ZyFLT80dzMjEBVBPN-r0AJVgdI8E7674FF-ATCyy3VY3FixB-y2LriAe95UVQyy48LtfCc1-qtzKkGsEo2B_BsB7w3I8oHb2ly5]--></g></svg>