<svg xmlns="http://www.w3.org/2000/svg" xmlns:xlink="http://www.w3.org/1999/xlink" contentStyleType="text/css" height="699px" preserveAspectRatio="none" style="width:912px;height:699px;background:#FFFFFF;" version="1.1" viewBox="0 0 912 699" width="912px" zoomAndPan="magnify"><defs/><g><rect fill="#F1F1F1" height="36.4883" rx="12.5" ry="12.5" style="stroke:#181818;stroke-width:1.5;" width="51" x="403" y="330.6855"/><text fill="#000000" font-family="sans-serif" font-size="14" lengthAdjust="spacing" textLength="31" x="413" y="354.2207">Data</text><rect fill="#F1F1F1" height="36.4883" rx="12.5" ry="12.5" style="stroke:#181818;stroke-width:1.5;" width="115" x="504" y="48.2441"/><text fill="#000000" font-family="sans-serif" font-size="14" lengthAdjust="spacing" textLength="95" x="514" y="71.7793">CollectedData</text><rect fill="#F1F1F1" height="36.4883" rx="12.5" ry="12.5" style="stroke:#181818;stroke-width:1.5;" width="116" x="669" y="20"/><text fill="#000000" font-family="sans-serif" font-size="14" lengthAdjust="spacing" textLength="96" x="679" y="43.5352">ObservedData</text><path d="M619,66.4883 L629,66.4883 C644,66.4883 644,38.2441 659,38.2441 L669,38.2441 " fill="none" style="stroke:#181818;stroke-width:1.0;"/><rect fill="#F1F1F1" height="36.4883" rx="12.5" ry="12.5" style="stroke:#181818;stroke-width:1.5;" width="111" x="669" y="76.4883"/><text fill="#000000" font-family="sans-serif" font-size="14" lengthAdjust="spacing" textLength="91" x="679" y="100.0234">ProvidedData</text><path d="M619,66.4883 L629,66.4883 C644,66.4883 644,94.7324 659,94.7324 L669,94.7324 " fill="none" style="stroke:#181818;stroke-width:1.0;"/><path d="M454,348.9297 L464,348.9297 C479,348.9297 479,66.4883 494,66.4883 L504,66.4883 " fill="none" style="stroke:#181818;stroke-width:1.0;"/><rect fill="#F1F1F1" height="36.4883" rx="12.5" ry="12.5" style="stroke:#181818;stroke-width:1.5;" width="228" x="504" y="132.9766"/><text fill="#000000" font-family="sans-serif" font-size="14" lengthAdjust="spacing" textLength="208" x="514" y="156.5117">CommerciallyConfidentialData</text><path d="M454,348.9297 L464,348.9297 C479,348.9297 479,151.2207 494,151.2207 L504,151.2207 " fill="none" style="stroke:#181818;stroke-width:1.0;"/><rect fill="#F1F1F1" height="36.4883" rx="12.5" ry="12.5" style="stroke:#181818;stroke-width:1.5;" width="135" x="504" y="217.709"/><text fill="#000000" font-family="sans-serif" font-size="14" lengthAdjust="spacing" textLength="115" x="514" y="241.2441">ConfidentialData</text><rect fill="#F1F1F1" height="36.4883" rx="12.5" ry="12.5" style="stroke:#181818;stroke-width:1.5;" width="184" x="689" y="189.4648"/><text fill="#000000" font-family="sans-serif" font-size="14" lengthAdjust="spacing" textLength="164" x="699" y="213">IntellectualPropertyData</text><path d="M639,235.9531 L649,235.9531 C664,235.9531 664,207.709 679,207.709 L689,207.709 " fill="none" style="stroke:#181818;stroke-width:1.0;"/><rect fill="#F1F1F1" height="36.4883" rx="12.5" ry="12.5" style="stroke:#181818;stroke-width:1.5;" width="211" x="689" y="245.9531"/><text fill="#000000" font-family="sans-serif" font-size="14" lengthAdjust="spacing" textLength="191" x="699" y="269.4883">StatisticallyConfidentialData</text><path d="M639,235.9531 L649,235.9531 C664,235.9531 664,264.1973 679,264.1973 L689,264.1973 " fill="none" style="stroke:#181818;stroke-width:1.0;"/><path d="M454,348.9297 L464,348.9297 C479,348.9297 479,235.9531 494,235.9531 L504,235.9531 " fill="none" style="stroke:#181818;stroke-width:1.0;"/><rect fill="#F1F1F1" height="36.4883" rx="12.5" ry="12.5" style="stroke:#181818;stroke-width:1.5;" width="103" x="504" y="302.4414"/><text fill="#000000" font-family="sans-serif" font-size="14" lengthAdjust="spacing" textLength="83" x="514" y="325.9766">DerivedData</text><rect fill="#F1F1F1" height="36.4883" rx="12.5" ry="12.5" style="stroke:#181818;stroke-width:1.5;" width="106" x="657" y="302.4414"/><text fill="#000000" font-family="sans-serif" font-size="14" lengthAdjust="spacing" textLength="86" x="667" y="325.9766">InferredData</text><path d="M607,320.6855 L617,320.6855 C632,320.6855 632,320.6855 647,320.6855 L657,320.6855 " fill="none" style="stroke:#181818;stroke-width:1.0;"/><path d="M454,348.9297 L464,348.9297 C479,348.9297 479,320.6855 494,320.6855 L504,320.6855 " fill="none" style="stroke:#181818;stroke-width:1.0;"/><rect fill="#F1F1F1" height="36.4883" rx="12.5" ry="12.5" style="stroke:#181818;stroke-width:1.5;" width="122" x="504" y="358.9297"/><text fill="#000000" font-family="sans-serif" font-size="14" lengthAdjust="spacing" textLength="102" x="514" y="382.4648">GeneratedData</text><rect fill="#F1F1F1" height="36.4883" rx="12.5" ry="12.5" style="stroke:#181818;stroke-width:1.5;" width="113" x="676" y="358.9297"/><text fill="#000000" font-family="sans-serif" font-size="14" lengthAdjust="spacing" textLength="93" x="686" y="382.4648">SyntheticData</text><path d="M626,377.1738 L636,377.1738 C651,377.1738 651,377.1738 666,377.1738 L676,377.1738 " fill="none" style="stroke:#181818;stroke-width:1.0;"/><path d="M454,348.9297 L464,348.9297 C479,348.9297 479,377.1738 494,377.1738 L504,377.1738 " fill="none" style="stroke:#181818;stroke-width:1.0;"/><rect fill="#F1F1F1" height="36.4883" rx="12.5" ry="12.5" style="stroke:#181818;stroke-width:1.5;" width="112" x="504" y="415.418"/><text fill="#000000" font-family="sans-serif" font-size="14" lengthAdjust="spacing" textLength="92" x="514" y="438.9531">IncorrectData</text><path d="M454,348.9297 L464,348.9297 C479,348.9297 479,433.6621 494,433.6621 L504,433.6621 " fill="none" style="stroke:#181818;stroke-width:1.0;"/><rect fill="#F1F1F1" height="36.4883" rx="12.5" ry="12.5" style="stroke:#181818;stroke-width:1.5;" width="138" x="504" y="471.9063"/><text fill="#000000" font-family="sans-serif" font-size="14" lengthAdjust="spacing" textLength="118" x="514" y="495.4414">NonPersonalData</text><rect fill="#F1F1F1" height="36.4883" rx="12.5" ry="12.5" style="stroke:#181818;stroke-width:1.5;" width="136" x="692" y="471.9063"/><text fill="#000000" font-family="sans-serif" font-size="14" lengthAdjust="spacing" textLength="116" x="702" y="495.4414">AnonymisedData</text><path d="M642,490.1504 L652,490.1504 C667,490.1504 667,490.1504 682,490.1504 L692,490.1504 " fill="none" style="stroke:#181818;stroke-width:1.0;"/><path d="M454,348.9297 L464,348.9297 C479,348.9297 479,490.1504 494,490.1504 L504,490.1504 " fill="none" style="stroke:#181818;stroke-width:1.0;"/><rect fill="#F1F1F1" height="36.4883" rx="12.5" ry="12.5" style="stroke:#181818;stroke-width:1.5;" width="111" x="504" y="528.3945"/><text fill="#000000" font-family="sans-serif" font-size="14" lengthAdjust="spacing" textLength="91" x="514" y="551.9297">SensitiveData</text><rect fill="#F1F1F1" height="36.4883" rx="12.5" ry="12.5" style="stroke:#181818;stroke-width:1.5;" width="198" x="665" y="528.3945"/><text fill="#000000" font-family="sans-serif" font-size="14" lengthAdjust="spacing" textLength="178" x="675" y="551.9297">SensitiveNonPersonalData</text><path d="M615,546.6387 L625,546.6387 C640,546.6387 640,546.6387 655,546.6387 L665,546.6387 " fill="none" style="stroke:#181818;stroke-width:1.0;"/><path d="M454,348.9297 L464,348.9297 C479,348.9297 479,546.6387 494,546.6387 L504,546.6387 " fill="none" style="stroke:#181818;stroke-width:1.0;"/><rect fill="#F1F1F1" height="36.4883" rx="12.5" ry="12.5" style="stroke:#181818;stroke-width:1.5;" width="121" x="504" y="584.8828"/><text fill="#000000" font-family="sans-serif" font-size="14" lengthAdjust="spacing" textLength="101" x="514" y="608.418">UnverifiedData</text><path d="M454,348.9297 L464,348.9297 C479,348.9297 479,603.127 494,603.127 L504,603.127 " fill="none" style="stroke:#181818;stroke-width:1.0;"/><rect fill="#F1F1F1" height="36.4883" rx="12.5" ry="12.5" style="stroke:#181818;stroke-width:1.5;" width="104" x="504" y="641.3711"/><text fill="#000000" font-family="sans-serif" font-size="14" lengthAdjust="spacing" textLength="84" x="514" y="664.9063">VerifiedData</text><path d="M454,348.9297 L464,348.9297 C479,348.9297 479,659.6152 494,659.6152 L504,659.6152 " fill="none" style="stroke:#181818;stroke-width:1.0;"/><rect fill="#F1F1F1" height="36.4883" rx="12.5" ry="12.5" style="stroke:#181818;stroke-width:1.5;" width="110" x="243" y="330.6855"/><text fill="#000000" font-family="sans-serif" font-size="14" lengthAdjust="spacing" textLength="90" x="253" y="354.2207">PersonalData</text><rect fill="#F1F1F1" height="36.4883" rx="12.5" ry="12.5" style="stroke:#181818;stroke-width:1.5;" width="174" x="19" y="189.4648"/><text fill="#000000" font-family="sans-serif" font-size="14" lengthAdjust="spacing" textLength="154" x="29" y="213">CollectedPersonalData</text><path d="M243,348.9297 L233,348.9297 C218,348.9297 218,207.709 203,207.709 L193,207.709 " fill="none" style="stroke:#181818;stroke-width:1.0;"/><rect fill="#F1F1F1" height="36.4883" rx="12.5" ry="12.5" style="stroke:#181818;stroke-width:1.5;" width="162" x="31" y="245.9531"/><text fill="#000000" font-family="sans-serif" font-size="14" lengthAdjust="spacing" textLength="142" x="41" y="269.4883">DerivedPersonalData</text><path d="M243,348.9297 L233,348.9297 C218,348.9297 218,264.1973 203,264.1973 L193,264.1973 " fill="none" style="stroke:#181818;stroke-width:1.0;"/><rect fill="#F1F1F1" height="36.4883" rx="12.5" ry="12.5" style="stroke:#181818;stroke-width:1.5;" width="181" x="12" y="302.4414"/><text fill="#000000" font-family="sans-serif" font-size="14" lengthAdjust="spacing" textLength="161" x="22" y="325.9766">GeneratedPersonalData</text><path d="M243,348.9297 L233,348.9297 C218,348.9297 218,320.6855 203,320.6855 L193,320.6855 " fill="none" style="stroke:#181818;stroke-width:1.0;"/><rect fill="#F1F1F1" height="36.4883" rx="12.5" ry="12.5" style="stroke:#181818;stroke-width:1.5;" width="183" x="10" y="358.9297"/><text fill="#000000" font-family="sans-serif" font-size="14" lengthAdjust="spacing" textLength="163" x="20" y="382.4648">IdentifyingPersonalData</text><path d="M243,348.9297 L233,348.9297 C218,348.9297 218,377.1738 203,377.1738 L193,377.1738 " fill="none" style="stroke:#181818;stroke-width:1.0;"/><rect fill="#F1F1F1" height="36.4883" rx="12.5" ry="12.5" style="stroke:#181818;stroke-width:1.5;" width="158" x="35" y="415.418"/><text fill="#000000" font-family="sans-serif" font-size="14" lengthAdjust="spacing" textLength="138" x="45" y="438.9531">PseudonymisedData</text><path d="M243,348.9297 L233,348.9297 C218,348.9297 218,433.6621 203,433.6621 L193,433.6621 " fill="none" style="stroke:#181818;stroke-width:1.0;"/><rect fill="#F1F1F1" height="36.4883" rx="12.5" ry="12.5" style="stroke:#181818;stroke-width:1.5;" width="170" x="23" y="471.9063"/><text fill="#000000" font-family="sans-serif" font-size="14" lengthAdjust="spacing" textLength="150" x="33" y="495.4414">SensitivePersonalData</text><path d="M243,348.9297 L233,348.9297 C218,348.9297 218,490.1504 203,490.1504 L193,490.1504 " fill="none" style="stroke:#181818;stroke-width:1.0;"/><path d="M403,348.9297 L393,348.9297 C378,348.9297 378,348.9297 363,348.9297 L353,348.9297 " fill="none" style="stroke:#181818;stroke-width:1.0;"/><!--SRC=[xLHDR-8m4BtxLypUMaL11PMgoeajxAAmi8sQmjrD9c396IFRYPH_lqENVA1e3tllBVFUpFCy-oaBvwNrfQAyb6VnJL6cgnp1-KRZvAmb-QhKGWImabwA882bqHepZ_aL2E3rmw6j1q1YJQto3k2HiaIRAQbripHKC4UUgvuVOG74vF7pf4fg5ZoZzKr7fbvwvRpA_YMvGgk6AyLKeBNzIciaj7Be8ct8dv0bsvQOCiCZcM-1tuOIjCxGOCllPAWfbUkLKoIdF1_UAxV8M03sLFEcXUhd3yCw3E5c8cIWUu0HSpKzmZkp8oR-lBQYKNGSSOd3AhznTq4xCpVzOe4Se6k8nE8cKoT-6s17EdT_lqlq9zCMcRAPHYU-8lOLiV-8M7BvC-rtMs1lJXc2wMJsC7kSpE_IYc0d6vWzmVGXciwZ-JF4wJjSw7jnjqwsu4nbCuISdzUgZyhp_BtOo5h2MyMxbXZ1wnbfi_hL0l23QcKDbUn5R0wxlk7fCNnHddVcU5euxCGA2rbfpnEPoTbq1Fltd-6ps4ewLlB8saXYQLZNDX6iN_u0]--></g></svg>