<svg xmlns="http://www.w3.org/2000/svg" xmlns:xlink="http://www.w3.org/1999/xlink" contentStyleType="text/css" height="473px" preserveAspectRatio="none" style="width:1138px;height:473px;background:#FFFFFF;" version="1.1" viewBox="0 0 1138 473" width="1138px" zoomAndPan="magnify"><defs/><g><line style="stroke:#181818;stroke-width:1.5;" x1="82" x2="82" y1="64.1328" y2="84.1328"/><rect fill="#F1F1F1" height="34.1328" style="stroke:#181818;stroke-width:1.5;" width="144" x="10" y="84.1328"/><text fill="#000000" font-family="sans-serif" font-size="12" lengthAdjust="spacing" textLength="124" x="20" y="105.7344">dpv:DataSubjectScale</text><line style="stroke:#181818;stroke-width:1.5;" x1="82" x2="92" y1="150.332" y2="150.332"/><rect fill="#F1F1F1" height="34.1328" style="stroke:#181818;stroke-width:1.5;" width="193" x="92" y="133.2656"/><text fill="#000000" font-family="sans-serif" font-size="12" lengthAdjust="spacing" textLength="173" x="102" y="154.8672">dpv:HugeScaleOfDataSubjects</text><line style="stroke:#181818;stroke-width:1.5;" x1="82" x2="92" y1="199.4648" y2="199.4648"/><rect fill="#F1F1F1" height="34.1328" style="stroke:#181818;stroke-width:1.5;" width="195" x="92" y="182.3984"/><text fill="#000000" font-family="sans-serif" font-size="12" lengthAdjust="spacing" textLength="175" x="102" y="204">dpv:LargeScaleOfDataSubjects</text><line style="stroke:#181818;stroke-width:1.5;" x1="82" x2="92" y1="248.5977" y2="248.5977"/><rect fill="#F1F1F1" height="34.1328" style="stroke:#181818;stroke-width:1.5;" width="209" x="92" y="231.5313"/><text fill="#000000" font-family="sans-serif" font-size="12" lengthAdjust="spacing" textLength="189" x="102" y="253.1328">dpv:MediumScaleOfDataSubjects</text><line style="stroke:#181818;stroke-width:1.5;" x1="82" x2="92" y1="297.7305" y2="297.7305"/><rect fill="#F1F1F1" height="34.1328" style="stroke:#181818;stroke-width:1.5;" width="208" x="92" y="280.6641"/><text fill="#000000" font-family="sans-serif" font-size="12" lengthAdjust="spacing" textLength="188" x="102" y="302.2656">dpv:SingularScaleOfDataSubjects</text><line style="stroke:#181818;stroke-width:1.5;" x1="82" x2="92" y1="346.8633" y2="346.8633"/><rect fill="#F1F1F1" height="34.1328" style="stroke:#181818;stroke-width:1.5;" width="193" x="92" y="329.7969"/><text fill="#000000" font-family="sans-serif" font-size="12" lengthAdjust="spacing" textLength="173" x="102" y="351.3984">dpv:SmallScaleOfDataSubjects</text><line style="stroke:#181818;stroke-width:1.5;" x1="82" x2="92" y1="395.9961" y2="395.9961"/><rect fill="#F1F1F1" height="34.1328" style="stroke:#181818;stroke-width:1.5;" width="213" x="92" y="378.9297"/><text fill="#000000" font-family="sans-serif" font-size="12" lengthAdjust="spacing" textLength="193" x="102" y="400.5313">dpv:SporadicScaleOfDataSubjects</text><line style="stroke:#181818;stroke-width:1.5;" x1="82" x2="82" y1="118.2656" y2="395.9961"/><line style="stroke:#181818;stroke-width:1.5;" x1="383" x2="383" y1="64.1328" y2="84.1328"/><rect fill="#F1F1F1" height="34.1328" style="stroke:#181818;stroke-width:1.5;" width="116" x="325" y="84.1328"/><text fill="#000000" font-family="sans-serif" font-size="12" lengthAdjust="spacing" textLength="96" x="335" y="105.7344">dpv:DataVolume</text><line style="stroke:#181818;stroke-width:1.5;" x1="383" x2="393" y1="150.332" y2="150.332"/><rect fill="#F1F1F1" height="34.1328" style="stroke:#181818;stroke-width:1.5;" width="146" x="393" y="133.2656"/><text fill="#000000" font-family="sans-serif" font-size="12" lengthAdjust="spacing" textLength="126" x="403" y="154.8672">dpv:HugeDataVolume</text><line style="stroke:#181818;stroke-width:1.5;" x1="383" x2="393" y1="199.4648" y2="199.4648"/><rect fill="#F1F1F1" height="34.1328" style="stroke:#181818;stroke-width:1.5;" width="148" x="393" y="182.3984"/><text fill="#000000" font-family="sans-serif" font-size="12" lengthAdjust="spacing" textLength="128" x="403" y="204">dpv:LargeDataVolume</text><line style="stroke:#181818;stroke-width:1.5;" x1="383" x2="393" y1="248.5977" y2="248.5977"/><rect fill="#F1F1F1" height="34.1328" style="stroke:#181818;stroke-width:1.5;" width="162" x="393" y="231.5313"/><text fill="#000000" font-family="sans-serif" font-size="12" lengthAdjust="spacing" textLength="142" x="403" y="253.1328">dpv:MediumDataVolume</text><line style="stroke:#181818;stroke-width:1.5;" x1="383" x2="393" y1="297.7305" y2="297.7305"/><rect fill="#F1F1F1" height="34.1328" style="stroke:#181818;stroke-width:1.5;" width="161" x="393" y="280.6641"/><text fill="#000000" font-family="sans-serif" font-size="12" lengthAdjust="spacing" textLength="141" x="403" y="302.2656">dpv:SingularDataVolume</text><line style="stroke:#181818;stroke-width:1.5;" x1="383" x2="393" y1="346.8633" y2="346.8633"/><rect fill="#F1F1F1" height="34.1328" style="stroke:#181818;stroke-width:1.5;" width="146" x="393" y="329.7969"/><text fill="#000000" font-family="sans-serif" font-size="12" lengthAdjust="spacing" textLength="126" x="403" y="351.3984">dpv:SmallDataVolume</text><line style="stroke:#181818;stroke-width:1.5;" x1="383" x2="393" y1="395.9961" y2="395.9961"/><rect fill="#F1F1F1" height="34.1328" style="stroke:#181818;stroke-width:1.5;" width="166" x="393" y="378.9297"/><text fill="#000000" font-family="sans-serif" font-size="12" lengthAdjust="spacing" textLength="146" x="403" y="400.5313">dpv:SporadicDataVolume</text><line style="stroke:#181818;stroke-width:1.5;" x1="383" x2="383" y1="118.2656" y2="395.9961"/><line style="stroke:#181818;stroke-width:1.5;" x1="662" x2="662" y1="64.1328" y2="84.1328"/><rect fill="#F1F1F1" height="34.1328" style="stroke:#181818;stroke-width:1.5;" width="166" x="579" y="84.1328"/><text fill="#000000" font-family="sans-serif" font-size="12" lengthAdjust="spacing" textLength="146" x="589" y="105.7344">dpv:GeographicCoverage</text><line style="stroke:#181818;stroke-width:1.5;" x1="662" x2="672" y1="150.332" y2="150.332"/><rect fill="#F1F1F1" height="34.1328" style="stroke:#181818;stroke-width:1.5;" width="112" x="672" y="133.2656"/><text fill="#000000" font-family="sans-serif" font-size="12" lengthAdjust="spacing" textLength="92" x="682" y="154.8672">dpv:GlobalScale</text><line style="stroke:#181818;stroke-width:1.5;" x1="662" x2="672" y1="199.4648" y2="199.4648"/><rect fill="#F1F1F1" height="34.1328" style="stroke:#181818;stroke-width:1.5;" width="175" x="672" y="182.3984"/><text fill="#000000" font-family="sans-serif" font-size="12" lengthAdjust="spacing" textLength="155" x="682" y="204">dpv:LocalEnvironmentScale</text><line style="stroke:#181818;stroke-width:1.5;" x1="662" x2="672" y1="248.5977" y2="248.5977"/><rect fill="#F1F1F1" height="34.1328" style="stroke:#181818;stroke-width:1.5;" width="117" x="672" y="231.5313"/><text fill="#000000" font-family="sans-serif" font-size="12" lengthAdjust="spacing" textLength="97" x="682" y="253.1328">dpv:LocalityScale</text><line style="stroke:#181818;stroke-width:1.5;" x1="662" x2="672" y1="297.7305" y2="297.7305"/><rect fill="#F1F1F1" height="34.1328" style="stroke:#181818;stroke-width:1.5;" width="149" x="672" y="280.6641"/><text fill="#000000" font-family="sans-serif" font-size="12" lengthAdjust="spacing" textLength="129" x="682" y="302.2656">dpv:MultiNationalScale</text><line style="stroke:#181818;stroke-width:1.5;" x1="662" x2="672" y1="346.8633" y2="346.8633"/><rect fill="#F1F1F1" height="34.1328" style="stroke:#181818;stroke-width:1.5;" width="122" x="672" y="329.7969"/><text fill="#000000" font-family="sans-serif" font-size="12" lengthAdjust="spacing" textLength="102" x="682" y="351.3984">dpv:NationalScale</text><line style="stroke:#181818;stroke-width:1.5;" x1="662" x2="672" y1="395.9961" y2="395.9961"/><rect fill="#F1F1F1" height="34.1328" style="stroke:#181818;stroke-width:1.5;" width="149" x="672" y="378.9297"/><text fill="#000000" font-family="sans-serif" font-size="12" lengthAdjust="spacing" textLength="129" x="682" y="400.5313">dpv:NearlyGlobalScale</text><line style="stroke:#181818;stroke-width:1.5;" x1="662" x2="672" y1="445.1289" y2="445.1289"/><rect fill="#F1F1F1" height="34.1328" style="stroke:#181818;stroke-width:1.5;" width="124" x="672" y="428.0625"/><text fill="#000000" font-family="sans-serif" font-size="12" lengthAdjust="spacing" textLength="104" x="682" y="449.6641">dpv:RegionalScale</text><line style="stroke:#181818;stroke-width:1.5;" x1="662" x2="662" y1="118.2656" y2="445.1289"/><line style="stroke:#181818;stroke-width:1.5;" x1="935" x2="935" y1="64.1328" y2="84.1328"/><rect fill="#F1F1F1" height="34.1328" style="stroke:#181818;stroke-width:1.5;" width="136" x="867" y="84.1328"/><text fill="#000000" font-family="sans-serif" font-size="12" lengthAdjust="spacing" textLength="116" x="877" y="105.7344">dpv:ProcessingScale</text><line style="stroke:#181818;stroke-width:1.5;" x1="935" x2="945" y1="150.332" y2="150.332"/><rect fill="#F1F1F1" height="34.1328" style="stroke:#181818;stroke-width:1.5;" width="168" x="945" y="133.2656"/><text fill="#000000" font-family="sans-serif" font-size="12" lengthAdjust="spacing" textLength="148" x="955" y="154.8672">dpv:LargeScaleProcessing</text><line style="stroke:#181818;stroke-width:1.5;" x1="935" x2="945" y1="199.4648" y2="199.4648"/><rect fill="#F1F1F1" height="34.1328" style="stroke:#181818;stroke-width:1.5;" width="182" x="945" y="182.3984"/><text fill="#000000" font-family="sans-serif" font-size="12" lengthAdjust="spacing" textLength="162" x="955" y="204">dpv:MediumScaleProcessing</text><line style="stroke:#181818;stroke-width:1.5;" x1="935" x2="945" y1="248.5977" y2="248.5977"/><rect fill="#F1F1F1" height="34.1328" style="stroke:#181818;stroke-width:1.5;" width="166" x="945" y="231.5313"/><text fill="#000000" font-family="sans-serif" font-size="12" lengthAdjust="spacing" textLength="146" x="955" y="253.1328">dpv:SmallScaleProcessing</text><line style="stroke:#181818;stroke-width:1.5;" x1="935" x2="935" y1="118.2656" y2="248.5977"/><line style="stroke:#181818;stroke-width:1.5;" x1="82" x2="935" y1="64.1328" y2="64.1328"/><rect fill="#F1F1F1" height="34.1328" style="stroke:#181818;stroke-width:1.5;" width="136" x="440.5" y="10"/><text fill="#000000" font-family="sans-serif" font-size="12" lengthAdjust="spacing" textLength="116" x="450.5" y="31.6016">dpv:ProcessingScale</text><line style="stroke:#181818;stroke-width:1.5;" x1="508.5" x2="508.5" y1="44.1328" y2="64.1328"/><!--SRC=[xLJRJkCm47ttLmnlW4H5AufGdYheRdUx2LG4-ZvrfgbNZXtvKfI_nsdf9SZq0n1lyJd7zfdncOoiG-FU5fQT2SMbBmYiQoJrQedA-KeoTWb5lKvcHdEoLgWovoY9NMxXCJhC_U8_SRV3jyGVNz86ULeUQUoUJz6S5cHK25-TKkJ1Z9TeJcegbFAaeDO62y7ZcdsDSorzrQqk0c-AYk3RMYB4heGOrJgFuH-6EzI6cP0k3TOhmH_qcWoMXqqJgHSeko-Kwh3yfTR2Q5MHSX5MkAQBPbuwyOXEQFNvk2zGGYERsFNFL7RqNwJiSreEYbXI8kmX0KSa6v4gsjIpqNu0LYA4Vob85X_V5RcLtYsuC5nIsF0p3p_py8tdOTR-zr-p54B7R304_TxWUd3J6vxdNa663GnkeN-Tz8V9y0x-vY_GqXViV39BmMflE44Xh3DYuTi6NB0fhX6UlNAYeWIUQbBJyRyT04SDPzDvTX3StbpT2mSvcU04vXaRqn93kyCEhejWEe7NbzzNTop5a9dmk0cGOWywd6kQ12Rtxm00]--></g></svg>