<svg xmlns="http://www.w3.org/2000/svg" xmlns:xlink="http://www.w3.org/1999/xlink" contentStyleType="text/css" height="193px" preserveAspectRatio="none" style="width:1115px;height:193px;background:#FFFFFF;" version="1.1" viewBox="0 0 1115 193" width="1115px" zoomAndPan="magnify"><defs/><g><!--cluster dpv--><g id="cluster_dpv"><path d="M8.5,6 L35.5,6 A3.75,3.75 0 0 1 38,8.5 L45,28.4883 L1105.5,28.4883 A2.5,2.5 0 0 1 1108,30.9883 L1108,184.48 A2.5,2.5 0 0 1 1105.5,186.98 L8.5,186.98 A2.5,2.5 0 0 1 6,184.48 L6,8.5 A2.5,2.5 0 0 1 8.5,6 " fill="none" style="stroke:#000000;stroke-width:1.5;"/><line style="stroke:#000000;stroke-width:1.5;" x1="6" x2="45" y1="28.4883" y2="28.4883"/><text fill="#000000" font-family="sans-serif" font-size="14" font-weight="bold" lengthAdjust="spacing" textLength="26" x="10" y="21.5352">dpv</text></g><!--class Process--><g id="elem_Process"><rect codeLine="4" fill="#F1F1F1" height="26.4883" id="Process" rx="2.5" ry="2.5" style="stroke:#181818;stroke-width:0.5;" width="58" x="438" y="41"/><text fill="#000000" font-family="sans-serif" font-size="14" lengthAdjust="spacing" textLength="52" x="441" y="59.5352">Process</text></g><!--class Data--><g id="elem_Data"><rect codeLine="5" fill="#F1F1F1" height="26.4883" id="Data" rx="2.5" ry="2.5" style="stroke:#181818;stroke-width:0.5;" width="37" x="38.5" y="144.49"/><text fill="#000000" font-family="sans-serif" font-size="14" lengthAdjust="spacing" textLength="31" x="41.5" y="163.0252">Data</text></g><!--class PersonalData--><g id="elem_PersonalData"><rect codeLine="6" fill="#F1F1F1" height="26.4883" id="PersonalData" rx="2.5" ry="2.5" style="stroke:#181818;stroke-width:0.5;" width="96" x="115" y="144.49"/><text fill="#000000" font-family="sans-serif" font-size="14" lengthAdjust="spacing" textLength="90" x="118" y="163.0252">PersonalData</text></g><!--class Processing--><g id="elem_Processing"><rect codeLine="7" fill="#F1F1F1" height="26.4883" id="Processing" rx="2.5" ry="2.5" style="stroke:#181818;stroke-width:0.5;" width="80" x="282" y="144.49"/><text fill="#000000" font-family="sans-serif" font-size="14" lengthAdjust="spacing" textLength="74" x="285" y="163.0252">Processing</text></g><!--class LegalBasis--><g id="elem_LegalBasis"><rect codeLine="8" fill="#F1F1F1" height="26.4883" id="LegalBasis" rx="2.5" ry="2.5" style="stroke:#181818;stroke-width:0.5;" width="76" x="429" y="144.49"/><text fill="#000000" font-family="sans-serif" font-size="14" lengthAdjust="spacing" textLength="70" x="432" y="163.0252">LegalBasis</text></g><!--class Entity--><g id="elem_Entity"><rect codeLine="9" fill="#F1F1F1" height="26.4883" id="Entity" rx="2.5" ry="2.5" style="stroke:#181818;stroke-width:0.5;" width="44" x="581" y="144.49"/><text fill="#000000" font-family="sans-serif" font-size="14" lengthAdjust="spacing" textLength="38" x="584" y="163.0252">Entity</text></g><!--class TechnicalMeasure--><g id="elem_TechnicalMeasure"><rect codeLine="10" fill="#F1F1F1" height="26.4883" id="TechnicalMeasure" rx="2.5" ry="2.5" style="stroke:#181818;stroke-width:0.5;" width="129" x="660.5" y="144.49"/><text fill="#000000" font-family="sans-serif" font-size="14" lengthAdjust="spacing" textLength="123" x="663.5" y="163.0252">TechnicalMeasure</text></g><!--class OrganisationalMeasure--><g id="elem_OrganisationalMeasure"><rect codeLine="11" fill="#F1F1F1" height="26.4883" id="OrganisationalMeasure" rx="2.5" ry="2.5" style="stroke:#181818;stroke-width:0.5;" width="165" x="828.5" y="144.49"/><text fill="#000000" font-family="sans-serif" font-size="14" lengthAdjust="spacing" textLength="159" x="831.5" y="163.0252">OrganisationalMeasure</text></g><!--class Process2--><g id="elem_Process2"><rect codeLine="12" fill="#F1F1F1" height="26.4883" id="Process2" rx="2.5" ry="2.5" style="stroke:#181818;stroke-width:0.5;" width="58" x="616" y="41"/><text fill="#000000" font-family="sans-serif" font-size="14" lengthAdjust="spacing" textLength="52" x="619" y="59.5352">Process</text></g><!--class Service--><g id="elem_Service"><rect codeLine="13" fill="#F1F1F1" height="26.4883" id="Service" rx="2.5" ry="2.5" style="stroke:#181818;stroke-width:0.5;" width="54" x="264" y="41"/><text fill="#000000" font-family="sans-serif" font-size="14" lengthAdjust="spacing" textLength="48" x="267" y="59.5352">Service</text></g><!--link Process to Data--><g id="link_Process_Data"><path codeLine="16" d="M437.6,58.26 C355.78,66.7 130.43,90.46 116,97.49 C94.21,108.11 75.74,130.09 65.53,144.08 " fill="none" id="Process-Data" style="stroke:#181818;stroke-width:1.0;"/><polygon fill="#000000" points="116.1279,107.269,125.6021,108.0999,124.2811,102.3724,116.1279,107.269" style="stroke:#000000;stroke-width:1.0;"/><text fill="#000000" font-family="sans-serif" font-size="13" lengthAdjust="spacing" textLength="51" x="130" y="111.0584">hasData</text></g><!--link Process to PersonalData--><g id="link_Process_PersonalData"><path codeLine="17" d="M437.88,57.34 C378.82,62.01 247.33,74.7 209,97.49 C190.42,108.54 176.59,130.17 169.17,144.01 " fill="none" id="Process-PersonalData" style="stroke:#181818;stroke-width:1.0;"/><polygon fill="#000000" points="209.2414,107.6801,218.7519,107.7006,216.9476,102.1065,209.2414,107.6801" style="stroke:#000000;stroke-width:1.0;"/><text fill="#000000" font-family="sans-serif" font-size="13" lengthAdjust="spacing" textLength="104" x="223" y="111.0584">hasPersonalData</text></g><!--link Process to Processing--><g id="link_Process_Processing"><path codeLine="18" d="M437.55,59.42 C411.71,64.45 374.53,75.19 350,97.49 C336.2,110.04 328.59,130.83 324.9,144.14 " fill="none" id="Process-Processing" style="stroke:#181818;stroke-width:1.0;"/><polygon fill="#000000" points="351.004,109.1505,359.9993,106.0628,356.4664,101.3651,351.004,109.1505" style="stroke:#000000;stroke-width:1.0;"/><text fill="#000000" font-family="sans-serif" font-size="13" lengthAdjust="spacing" textLength="90" x="364" y="111.0584">hasProcessing</text></g><!--link Process to LegalBasis--><g id="link_Process_LegalBasis"><path codeLine="19" d="M465.87,67.8 C465.18,76.2 464.35,87.5 464,97.49 C463.43,113.55 464.67,132.03 465.72,144.03 " fill="none" id="Process-LegalBasis" style="stroke:#181818;stroke-width:1.0;"/><polygon fill="#000000" points="468.9902,111.1453,471.9469,102.106,466.069,102.0944,468.9902,111.1453" style="stroke:#000000;stroke-width:1.0;"/><text fill="#000000" font-family="sans-serif" font-size="13" lengthAdjust="spacing" textLength="87" x="478" y="111.0584">hasLegalBasis</text></g><!--link Process to Entity--><g id="link_Process_Entity"><path codeLine="20" d="M496.48,61.69 C518.78,67.81 549.04,78.89 570,97.49 C584.44,110.31 593.92,131.02 598.87,144.25 " fill="none" id="Process-Entity" style="stroke:#181818;stroke-width:1.0;"/><polygon fill="#000000" points="592.8923,109.2837,587.6958,101.3184,584.0063,105.894,592.8923,109.2837" style="stroke:#000000;stroke-width:1.0;"/><text fill="#000000" font-family="sans-serif" font-size="13" lengthAdjust="spacing" textLength="58" x="598" y="111.0584">hasEntity</text></g><!--link Process to TechnicalMeasure--><g id="link_Process_TechnicalMeasure"><path codeLine="21" d="M496.29,56.4 C536.55,59.07 610.24,67.96 665,97.49 C686.39,109.03 705.27,130.51 715.9,144.19 " fill="none" id="Process-TechnicalMeasure" style="stroke:#181818;stroke-width:1.0;"/><polygon fill="#000000" points="696.6428,108.0012,689.3348,101.9148,687.153,107.3727,696.6428,108.0012" style="stroke:#000000;stroke-width:1.0;"/><text fill="#000000" font-family="sans-serif" font-size="13" lengthAdjust="spacing" textLength="134" x="701" y="111.0584">hasTechnicalMeasure</text></g><!--link Process to OrganisationalMeasure--><g id="link_Process_OrganisationalMeasure"><path codeLine="22" d="M496.38,58.05 C582.31,66.32 828.12,90.44 844,97.49 C867.7,108.01 888.99,130.02 900.93,144.05 " fill="none" id="Process-OrganisationalMeasure" style="stroke:#181818;stroke-width:1.0;"/><polygon fill="#000000" points="879.8907,107.185,871.6544,102.4295,870.4322,108.1788,879.8907,107.185" style="stroke:#000000;stroke-width:1.0;"/><text fill="#000000" font-family="sans-serif" font-size="13" lengthAdjust="spacing" textLength="166" x="884" y="111.0584">hasOrganisationalMeasure</text></g><!--link Process to Process2--><g id="link_Process_Process2"><path codeLine="24" d="M496.39,54.25 C529.37,54.25 582.56,54.25 615.56,54.25 " fill="none" id="Process-Process2" style="stroke:#181818;stroke-width:1.0;"/><polygon fill="#000000" points="523.5,42.9053,514.4549,39.9663,514.4549,45.8442,523.5,42.9053" style="stroke:#000000;stroke-width:1.0;"/><text fill="#000000" font-family="sans-serif" font-size="13" lengthAdjust="spacing" textLength="70" x="527.5" y="47.8184">hasProcess</text></g><!--link Service to Process--><g id="link_Service_Process"><path codeLine="25" d="M318.5,54.25 C350.89,54.25 404.47,54.25 437.64,54.25 " fill="none" id="Service-Process" style="stroke:#181818;stroke-width:1.0;"/><polygon fill="#000000" points="345.5,42.9053,336.4549,39.9663,336.4549,45.8442,345.5,42.9053" style="stroke:#000000;stroke-width:1.0;"/><text fill="#000000" font-family="sans-serif" font-size="13" lengthAdjust="spacing" textLength="70" x="349.5" y="47.8184">hasProcess</text></g><!--SRC=[RP3D3i8W48JlFCNQknuyUkZ1w4sZYRx01ZULYDYmj4bZV7T_87LfombclWLcPiPfsrm8E7IM5hL55vgxLQf6VSEAu5Aty5JmMTeYCnpzGnEpK3OOK0Ba-U7G3kKuPrmbn1rLQDV8HjwtTS64JWXdqbTdDDez8JUUX7Nm5Jh36CptoR5Vf6SBmFuBI-6VoBT6atefbLoOpt-9O0LNvD-kb9wC5vbCoTa-SoB_vupxrn0vSSwus4naqZxpXqL5SgHcCvCDni5fgnHL-JxZCaluWLApaXaYRm00]--></g></svg>