<svg xmlns="http://www.w3.org/2000/svg" xmlns:xlink="http://www.w3.org/1999/xlink" contentStyleType="text/css" height="530px" preserveAspectRatio="none" style="width:649px;height:530px;background:#FFFFFF;" version="1.1" viewBox="0 0 649 530" width="649px" zoomAndPan="magnify"><defs/><g><rect fill="#F1F1F1" height="36.4883" rx="12.5" ry="12.5" style="stroke:#181818;stroke-width:1.5;" width="76" x="260" y="245.9531"/><text fill="#000000" font-family="sans-serif" font-size="14" lengthAdjust="spacing" textLength="56" x="270" y="269.4883">Purpose</text><rect fill="#F1F1F1" height="36.4883" rx="12.5" ry="12.5" style="stroke:#181818;stroke-width:1.5;" width="165" x="386" y="20"/><text fill="#000000" font-family="sans-serif" font-size="14" lengthAdjust="spacing" textLength="145" x="396" y="43.5352">AccountManagement</text><path d="M336,264.1973 L346,264.1973 C361,264.1973 361,38.2441 376,38.2441 L386,38.2441 " fill="none" style="stroke:#181818;stroke-width:1.0;"/><rect fill="#F1F1F1" height="36.4883" rx="12.5" ry="12.5" style="stroke:#181818;stroke-width:1.5;" width="158" x="386" y="76.4883"/><text fill="#000000" font-family="sans-serif" font-size="14" lengthAdjust="spacing" textLength="138" x="396" y="100.0234">CommercialPurpose</text><path d="M336,264.1973 L346,264.1973 C361,264.1973 361,94.7324 376,94.7324 L386,94.7324 " fill="none" style="stroke:#181818;stroke-width:1.0;"/><rect fill="#F1F1F1" height="36.4883" rx="12.5" ry="12.5" style="stroke:#181818;stroke-width:1.5;" width="218" x="386" y="132.9766"/><text fill="#000000" font-family="sans-serif" font-size="14" lengthAdjust="spacing" textLength="198" x="396" y="156.5117">CommunicationManagement</text><path d="M336,264.1973 L346,264.1973 C361,264.1973 361,151.2207 376,151.2207 L386,151.2207 " fill="none" style="stroke:#181818;stroke-width:1.0;"/><rect fill="#F1F1F1" height="36.4883" rx="12.5" ry="12.5" style="stroke:#181818;stroke-width:1.5;" width="251" x="386" y="189.4648"/><text fill="#000000" font-family="sans-serif" font-size="14" lengthAdjust="spacing" textLength="231" x="396" y="213">CommunicationForCustomerCare</text><path d="M336,264.1973 L346,264.1973 C361,264.1973 361,207.709 376,207.709 L386,207.709 " fill="none" style="stroke:#181818;stroke-width:1.0;"/><rect fill="#F1F1F1" height="36.4883" rx="12.5" ry="12.5" style="stroke:#181818;stroke-width:1.5;" width="176" x="386" y="245.9531"/><text fill="#000000" font-family="sans-serif" font-size="14" lengthAdjust="spacing" textLength="156" x="396" y="269.4883">CustomerManagement</text><path d="M336,264.1973 L346,264.1973 C361,264.1973 361,264.1973 376,264.1973 L386,264.1973 " fill="none" style="stroke:#181818;stroke-width:1.0;"/><rect fill="#F1F1F1" height="36.4883" rx="12.5" ry="12.5" style="stroke:#181818;stroke-width:1.5;" width="126" x="386" y="302.4414"/><text fill="#000000" font-family="sans-serif" font-size="14" lengthAdjust="spacing" textLength="106" x="396" y="325.9766">EnforceSecurity</text><path d="M336,264.1973 L346,264.1973 C361,264.1973 361,320.6855 376,320.6855 L386,320.6855 " fill="none" style="stroke:#181818;stroke-width:1.0;"/><rect fill="#F1F1F1" height="36.4883" rx="12.5" ry="12.5" style="stroke:#181818;stroke-width:1.5;" width="237" x="386" y="358.9297"/><text fill="#000000" font-family="sans-serif" font-size="14" lengthAdjust="spacing" textLength="217" x="396" y="382.4648">EstablishContractualAgreement</text><path d="M336,264.1973 L346,264.1973 C361,264.1973 361,377.1738 376,377.1738 L386,377.1738 " fill="none" style="stroke:#181818;stroke-width:1.0;"/><rect fill="#F1F1F1" height="36.4883" rx="12.5" ry="12.5" style="stroke:#181818;stroke-width:1.5;" width="177" x="386" y="415.418"/><text fill="#000000" font-family="sans-serif" font-size="14" lengthAdjust="spacing" textLength="157" x="396" y="438.9531">FulfilmentOfObligation</text><path d="M336,264.1973 L346,264.1973 C361,264.1973 361,433.6621 376,433.6621 L386,433.6621 " fill="none" style="stroke:#181818;stroke-width:1.0;"/><rect fill="#F1F1F1" height="36.4883" rx="12.5" ry="12.5" style="stroke:#181818;stroke-width:1.5;" width="221" x="386" y="471.9063"/><text fill="#000000" font-family="sans-serif" font-size="14" lengthAdjust="spacing" textLength="201" x="396" y="495.4414">HumanResourceManagement</text><path d="M336,264.1973 L346,264.1973 C361,264.1973 361,490.1504 376,490.1504 L386,490.1504 " fill="none" style="stroke:#181818;stroke-width:1.0;"/><rect fill="#F1F1F1" height="36.4883" rx="12.5" ry="12.5" style="stroke:#181818;stroke-width:1.5;" width="89" x="121" y="20"/><text fill="#000000" font-family="sans-serif" font-size="14" lengthAdjust="spacing" textLength="69" x="131" y="43.5352">Marketing</text><path d="M260,264.1973 L250,264.1973 C235,264.1973 235,38.2441 220,38.2441 L210,38.2441 " fill="none" style="stroke:#181818;stroke-width:1.0;"/><rect fill="#F1F1F1" height="36.4883" rx="12.5" ry="12.5" style="stroke:#181818;stroke-width:1.5;" width="186" x="24" y="76.4883"/><text fill="#000000" font-family="sans-serif" font-size="14" lengthAdjust="spacing" textLength="166" x="34" y="100.0234">NonCommercialPurpose</text><path d="M260,264.1973 L250,264.1973 C235,264.1973 235,94.7324 220,94.7324 L210,94.7324 " fill="none" style="stroke:#181818;stroke-width:1.0;"/><rect fill="#F1F1F1" height="36.4883" rx="12.5" ry="12.5" style="stroke:#181818;stroke-width:1.5;" width="190" x="20" y="132.9766"/><text fill="#000000" font-family="sans-serif" font-size="14" lengthAdjust="spacing" textLength="170" x="30" y="156.5117">OrganisationGovernance</text><path d="M260,264.1973 L250,264.1973 C235,264.1973 235,151.2207 220,151.2207 L210,151.2207 " fill="none" style="stroke:#181818;stroke-width:1.0;"/><rect fill="#F1F1F1" height="36.4883" rx="12.5" ry="12.5" style="stroke:#181818;stroke-width:1.5;" width="125" x="85" y="189.4648"/><text fill="#000000" font-family="sans-serif" font-size="14" lengthAdjust="spacing" textLength="105" x="95" y="213">Personalisation</text><path d="M260,264.1973 L250,264.1973 C235,264.1973 235,207.709 220,207.709 L210,207.709 " fill="none" style="stroke:#181818;stroke-width:1.0;"/><rect fill="#F1F1F1" height="36.4883" rx="12.5" ry="12.5" style="stroke:#181818;stroke-width:1.5;" width="108" x="102" y="245.9531"/><text fill="#000000" font-family="sans-serif" font-size="14" lengthAdjust="spacing" textLength="88" x="112" y="269.4883">PublicBenefit</text><path d="M260,264.1973 L250,264.1973 C235,264.1973 235,264.1973 220,264.1973 L210,264.1973 " fill="none" style="stroke:#181818;stroke-width:1.0;"/><rect fill="#F1F1F1" height="36.4883" rx="12.5" ry="12.5" style="stroke:#181818;stroke-width:1.5;" width="157" x="53" y="302.4414"/><text fill="#000000" font-family="sans-serif" font-size="14" lengthAdjust="spacing" textLength="137" x="63" y="325.9766">RecordManagement</text><path d="M260,264.1973 L250,264.1973 C235,264.1973 235,320.6855 220,320.6855 L210,320.6855 " fill="none" style="stroke:#181818;stroke-width:1.0;"/><rect fill="#F1F1F1" height="36.4883" rx="12.5" ry="12.5" style="stroke:#181818;stroke-width:1.5;" width="200" x="10" y="358.9297"/><text fill="#000000" font-family="sans-serif" font-size="14" lengthAdjust="spacing" textLength="180" x="20" y="382.4648">ResearchAndDevelopment</text><path d="M260,264.1973 L250,264.1973 C235,264.1973 235,377.1738 220,377.1738 L210,377.1738 " fill="none" style="stroke:#181818;stroke-width:1.0;"/><rect fill="#F1F1F1" height="36.4883" rx="12.5" ry="12.5" style="stroke:#181818;stroke-width:1.5;" width="131" x="79" y="415.418"/><text fill="#000000" font-family="sans-serif" font-size="14" lengthAdjust="spacing" textLength="111" x="89" y="438.9531">ServiceProvision</text><path d="M260,264.1973 L250,264.1973 C235,264.1973 235,433.6621 220,433.6621 L210,433.6621 " fill="none" style="stroke:#181818;stroke-width:1.0;"/><rect fill="#F1F1F1" height="36.4883" rx="12.5" ry="12.5" style="stroke:#181818;stroke-width:1.5;" width="159" x="51" y="471.9063"/><text fill="#000000" font-family="sans-serif" font-size="14" lengthAdjust="spacing" textLength="139" x="61" y="495.4414">VendorManagement</text><path d="M260,264.1973 L250,264.1973 C235,264.1973 235,490.1504 220,490.1504 L210,490.1504 " fill="none" style="stroke:#181818;stroke-width:1.0;"/><!--SRC=[xLDDR-8m4BtxLtXlhH2ee59LEG6XiCl24a7BtNKcOLHdZCPs9FxzEW5QK7_1IdlBl3TVRvupSbwnhv3oIXt43oHjGWxI-QE1ti4eyg4oGdHa5lXW7OXEHuwrje7yIf4geGBo3PZQgWBMgCnLPWC6GgqyMlgU_qdDBAV1UHixf8fFfUVujkg52iiQjg03ep-sK5JmRj3jKqkUbVP1cN79y5ap2wP0qqJhOXqpotPam_mCbQ8DE1jYpwj1tQvSAVu0ZrGsmHzBt-L5VCsb8dHjlxcjWKcHRfaCs5bIvaosK8YpzGG82cn7R41Rpc_7ncL0iTwFAPz23SOUBimMk4OD6TiQtRdb3YYtrnSIeuXSp1IZ6s_t67qj44pkJjyL-Bsz11fP6t3YlzN_fDLPywU-hPOoRjQKo7vly31ux0tlje6YmgCSFCd-Gz8V9iDd-MlxAXlwNjpDiwKy7KNcw3pZUsXKt8k5gfNSHE-nWaIk3q2BwUyB4CsfaIsrconsgw-4fyVk17qh0LZkLc8AXGh6nmfjytZaHBwzphhFOgce355C8e54sZmoFYPoFlaB]--></g></svg>