<svg xmlns="http://www.w3.org/2000/svg" xmlns:xlink="http://www.w3.org/1999/xlink" contentStyleType="text/css" height="707px" preserveAspectRatio="none" style="width:1355px;height:707px;background:#FFFFFF;" version="1.1" viewBox="0 0 1355 707" width="1355px" zoomAndPan="magnify"><defs/><g><!--cluster dpv--><g id="cluster_dpv"><path d="M560.5,6 L587.5,6 A3.75,3.75 0 0 1 590,8.5 L597,28.4883 L1066.5,28.4883 A2.5,2.5 0 0 1 1069,30.9883 L1069,369.5 A2.5,2.5 0 0 1 1066.5,372 L560.5,372 A2.5,2.5 0 0 1 558,369.5 L558,8.5 A2.5,2.5 0 0 1 560.5,6 " fill="none" style="stroke:#000000;stroke-width:1.5;"/><line style="stroke:#000000;stroke-width:1.5;" x1="558" x2="597" y1="28.4883" y2="28.4883"/><text fill="#000000" font-family="sans-serif" font-size="14" font-weight="bold" lengthAdjust="spacing" textLength="26" x="562" y="21.5352">dpv</text></g><!--cluster risk--><g id="cluster_risk"><path d="M217.5,396 L246.5,396 A3.75,3.75 0 0 1 249,398.5 L256,418.4883 L1345.5,418.4883 A2.5,2.5 0 0 1 1348,420.9883 L1348,653.5 A2.5,2.5 0 0 1 1345.5,656 L217.5,656 A2.5,2.5 0 0 1 215,653.5 L215,398.5 A2.5,2.5 0 0 1 217.5,396 " fill="none" style="stroke:#000000;stroke-width:1.5;"/><line style="stroke:#000000;stroke-width:1.5;" x1="215" x2="256" y1="418.4883" y2="418.4883"/><text fill="#000000" font-family="sans-serif" font-size="14" font-weight="bold" lengthAdjust="spacing" textLength="28" x="219" y="411.5352">risk</text></g><!--class Entity--><g id="elem_Entity"><rect codeLine="6" fill="#F1F1F1" height="26.4883" id="Entity" rx="2.5" ry="2.5" style="stroke:#181818;stroke-width:0.5;" width="44" x="950.5" y="44.76"/><text fill="#000000" font-family="sans-serif" font-size="14" lengthAdjust="spacing" textLength="38" x="953.5" y="63.2952">Entity</text></g><!--class Risk--><g id="elem_Risk"><rect codeLine="30" fill="#F1F1F1" height="26.4883" id="Risk" rx="2.5" ry="2.5" style="stroke:#181818;stroke-width:0.5;" width="34" x="606.5" y="268.76"/><text fill="#000000" font-family="sans-serif" font-size="14" lengthAdjust="spacing" textLength="28" x="609.5" y="287.2952">Risk</text></g><!--class RiskMitigationMeasure--><g id="elem_RiskMitigationMeasure"><rect codeLine="8" fill="#F1F1F1" height="26.4883" id="RiskMitigationMeasure" rx="2.5" ry="2.5" style="stroke:#181818;stroke-width:0.5;" width="161" x="892" y="289.76"/><text fill="#000000" font-family="sans-serif" font-size="14" lengthAdjust="spacing" textLength="155" x="895" y="308.2952">RiskMitigationMeasure</text></g><!--class RiskLevel--><g id="elem_RiskLevel"><rect codeLine="9" fill="#F1F1F1" height="26.4883" id="RiskLevel" rx="2.5" ry="2.5" style="stroke:#181818;stroke-width:0.5;" width="68" x="938.5" y="228.76"/><text fill="#000000" font-family="sans-serif" font-size="14" lengthAdjust="spacing" textLength="62" x="941.5" y="247.2952">RiskLevel</text></g><!--class Consequence--><g id="elem_Consequence"><rect codeLine="10" fill="#F1F1F1" height="26.4883" id="Consequence" rx="2.5" ry="2.5" style="stroke:#181818;stroke-width:0.5;" width="99" x="574" y="162.76"/><text fill="#000000" font-family="sans-serif" font-size="14" lengthAdjust="spacing" textLength="93" x="577" y="181.2952">Consequence</text></g><!--class Impact--><g id="elem_Impact"><rect codeLine="11" fill="#F1F1F1" height="26.4883" id="Impact" rx="2.5" ry="2.5" style="stroke:#181818;stroke-width:0.5;" width="52" x="597.5" y="40.76"/><text fill="#000000" font-family="sans-serif" font-size="14" lengthAdjust="spacing" textLength="46" x="600.5" y="59.2952">Impact</text></g><!--class Severity--><g id="elem_Severity"><rect codeLine="12" fill="#F1F1F1" height="26.4883" id="Severity" rx="2.5" ry="2.5" style="stroke:#181818;stroke-width:0.5;" width="59" x="594" y="101.76"/><text fill="#000000" font-family="sans-serif" font-size="14" lengthAdjust="spacing" textLength="53" x="597" y="120.2952">Severity</text></g><!--class Likelihood--><g id="elem_Likelihood"><rect codeLine="13" fill="#F1F1F1" height="26.4883" id="Likelihood" rx="2.5" ry="2.5" style="stroke:#181818;stroke-width:0.5;" width="77" x="585" y="329.76"/><text fill="#000000" font-family="sans-serif" font-size="14" lengthAdjust="spacing" textLength="71" x="588" y="348.2952">Likelihood</text></g><!--class Incident--><g id="elem_Incident"><rect codeLine="34" fill="#F1F1F1" height="26.4883" id="Incident" rx="2.5" ry="2.5" style="stroke:#181818;stroke-width:0.5;" width="61" x="262" y="491.76"/><text fill="#000000" font-family="sans-serif" font-size="14" lengthAdjust="spacing" textLength="55" x="265" y="510.2952">Incident</text></g><!--class IncidentStatus--><g id="elem_IncidentStatus"><rect codeLine="35" fill="#F1F1F1" height="26.4883" id="IncidentStatus" rx="2.5" ry="2.5" style="stroke:#181818;stroke-width:0.5;" width="103" x="572" y="491.76"/><text fill="#000000" font-family="sans-serif" font-size="14" lengthAdjust="spacing" textLength="97" x="575" y="510.2952">IncidentStatus</text></g><!--class RiskSource--><g id="elem_RiskSource"><rect codeLine="36" fill="#F1F1F1" height="26.4883" id="RiskSource" rx="2.5" ry="2.5" style="stroke:#181818;stroke-width:0.5;" width="81" x="583" y="613.76"/><text fill="#000000" font-family="sans-serif" font-size="14" lengthAdjust="spacing" textLength="75" x="586" y="632.2952">RiskSource</text></g><!--class Threat--><g id="elem_Threat"><rect codeLine="37" fill="#F1F1F1" height="26.4883" id="Threat" rx="2.5" ry="2.5" style="stroke:#181818;stroke-width:0.5;" width="51" x="947" y="555.76"/><text fill="#000000" font-family="sans-serif" font-size="14" lengthAdjust="spacing" textLength="45" x="950" y="574.2952">Threat</text></g><!--class ThreatSource--><g id="elem_ThreatSource"><rect codeLine="38" fill="#F1F1F1" height="26.4883" id="ThreatSource" rx="2.5" ry="2.5" style="stroke:#181818;stroke-width:0.5;" width="98" x="1234" y="555.76"/><text fill="#000000" font-family="sans-serif" font-size="14" lengthAdjust="spacing" textLength="92" x="1237" y="574.2952">ThreatSource</text></g><!--class Vulnerability--><g id="elem_Vulnerability"><rect codeLine="39" fill="#F1F1F1" height="26.4883" id="Vulnerability" rx="2.5" ry="2.5" style="stroke:#181818;stroke-width:0.5;" width="92" x="577.5" y="552.76"/><text fill="#000000" font-family="sans-serif" font-size="14" lengthAdjust="spacing" textLength="86" x="580.5" y="571.2952">Vulnerability</text></g><!--class RiskControl--><g id="elem_RiskControl"><rect codeLine="40" fill="#F1F1F1" height="26.4883" id="RiskControl" rx="2.5" ry="2.5" style="stroke:#181818;stroke-width:0.5;" width="86" x="249.5" y="552.76"/><text fill="#000000" font-family="sans-serif" font-size="14" lengthAdjust="spacing" textLength="80" x="252.5" y="571.2952">RiskControl</text></g><!--class RiskMatrix--><g id="elem_RiskMatrix"><rect codeLine="41" fill="#F1F1F1" height="26.4883" id="RiskMatrix" rx="2.5" ry="2.5" style="stroke:#181818;stroke-width:0.5;" width="78" x="933.5" y="491.76"/><text fill="#000000" font-family="sans-serif" font-size="14" lengthAdjust="spacing" textLength="72" x="936.5" y="510.2952">RiskMatrix</text></g><!--class RiskAnalysis--><g id="elem_RiskAnalysis"><rect codeLine="42" fill="#F1F1F1" height="26.4883" id="RiskAnalysis" rx="2.5" ry="2.5" style="stroke:#181818;stroke-width:0.5;" width="90" x="927.5" y="430.76"/><text fill="#000000" font-family="sans-serif" font-size="14" lengthAdjust="spacing" textLength="84" x="930.5" y="449.2952">RiskAnalysis</text></g><!--class RiskAssessment--><g id="elem_RiskAssessment"><rect codeLine="43" fill="#F1F1F1" height="26.4883" id="RiskAssessment" rx="2.5" ry="2.5" style="stroke:#181818;stroke-width:0.5;" width="115" x="566" y="430.76"/><text fill="#000000" font-family="sans-serif" font-size="14" lengthAdjust="spacing" textLength="109" x="569" y="449.2952">RiskAssessment</text></g><!--class RiskManagement--><g id="elem_RiskManagement"><rect codeLine="44" fill="#F1F1F1" height="26.4883" id="RiskManagement" rx="2.5" ry="2.5" style="stroke:#181818;stroke-width:0.5;" width="123" x="231" y="430.76"/><text fill="#000000" font-family="sans-serif" font-size="14" lengthAdjust="spacing" textLength="117" x="234" y="449.2952">RiskManagement</text></g><!--class Thing2--><g id="elem_Thing2"><rect codeLine="4" fill="#C0C0C0" height="26.4883" id="Thing2" rx="2.5" ry="2.5" style="stroke:#181818;stroke-width:0.5;" width="46" x="269.5" y="185.76"/><text fill="#000000" font-family="sans-serif" font-size="14" lengthAdjust="spacing" textLength="40" x="272.5" y="204.2952">Thing</text></g><!--class Thing--><g id="elem_Thing"><rect codeLine="27" fill="#C0C0C0" height="26.4883" id="Thing" rx="2.5" ry="2.5" style="stroke:#181818;stroke-width:0.5;" width="46" x="7" y="588.76"/><text fill="#000000" font-family="sans-serif" font-size="14" lengthAdjust="spacing" textLength="40" x="10" y="607.2952">Thing</text></g><!--link Thing2 to Risk--><g id="link_Thing2_Risk"><path codeLine="16" d="M309.98,212.66 C327.25,226.15 355.77,246.16 384,256 C463.65,283.76 566.52,283.87 606.04,282.7 " fill="none" id="Thing2-Risk" style="stroke:#181818;stroke-width:1.0;"/><polygon fill="#000000" points="437.8657,248.8064,429.7402,243.864,428.387,249.584,437.8657,248.8064" style="stroke:#000000;stroke-width:1.0;"/><text fill="#000000" font-family="sans-serif" font-size="13" lengthAdjust="spacing" textLength="49" x="442" y="252.5684">hasRisk</text></g><!--link Thing2 to Consequence--><g id="link_Thing2_Consequence"><path codeLine="17" d="M315.85,197.44 C368.5,193.76 501.28,184.47 573.64,179.42 " fill="none" id="Thing2-Consequence" style="stroke:#181818;stroke-width:1.0;"/><polygon fill="#000000" points="409.4878,174.3066,400.2598,172.0056,400.6697,177.8691,409.4878,174.3066" style="stroke:#000000;stroke-width:1.0;"/><text fill="#000000" font-family="sans-serif" font-size="13" lengthAdjust="spacing" textLength="106" x="413.5" y="179.5684">hasConsequence</text></g><!--link Consequence to Thing2--><g id="link_Consequence_Thing2"><path codeLine="18" d="M583.01,189.7 C571.98,194.23 560.22,199.73 550,206 C543.02,210.29 543.69,215.16 536,218 C459.16,246.42 359.52,220.86 315.76,206.81 " fill="none" id="Consequence-Thing2" style="stroke:#181818;stroke-width:1.0;"/><polygon fill="#000000" points="390.5102,209.9747,399.7246,212.3297,399.349,206.4639,390.5102,209.9747" style="stroke:#000000;stroke-width:1.0;"/><text fill="#000000" font-family="sans-serif" font-size="13" lengthAdjust="spacing" textLength="124" x="404.5" y="214.5684">hasConsequenceOn</text></g><!--link Thing2 to Impact--><g id="link_Thing2_Impact"><path codeLine="19" d="M301.94,185.55 C316.1,164.18 346.8,122.78 384,102 C454.06,62.87 551.5,55.38 597.09,54.12 " fill="none" id="Thing2-Impact" style="stroke:#181818;stroke-width:1.0;"/><polygon fill="#000000" points="429.5676,48.6213,420.1092,49.616,422.5003,54.9855,429.5676,48.6213" style="stroke:#000000;stroke-width:1.0;"/><text fill="#000000" font-family="sans-serif" font-size="13" lengthAdjust="spacing" textLength="65" x="434" y="55.5684">hasImpact</text></g><!--link Impact to Entity--><g id="link_Impact_Entity"><path codeLine="20" d="M649.73,54.29 C715.24,55.05 889.79,57.06 950.41,57.76 " fill="none" id="Impact-Entity" style="stroke:#181818;stroke-width:1.0;"/><polygon fill="#000000" points="747.4997,47.713,738.4891,44.6699,738.4213,50.5473,747.4997,47.713" style="stroke:#000000;stroke-width:1.0;"/><text fill="#000000" font-family="sans-serif" font-size="13" lengthAdjust="spacing" textLength="83" x="751.5" y="52.5684">hasImpactOn</text></g><!--link Thing2 to Severity--><g id="link_Thing2_Severity"><path codeLine="21" d="M315.95,186.94 C333.9,177.77 359.96,165.49 384,158 C457.71,135.05 548.29,122.91 593.69,117.87 " fill="none" id="Thing2-Severity" style="stroke:#181818;stroke-width:1.0;"/><polygon fill="#000000" points="426.8522,117.4486,417.3652,116.7794,418.7837,122.4836,426.8522,117.4486" style="stroke:#000000;stroke-width:1.0;"/><text fill="#000000" font-family="sans-serif" font-size="13" lengthAdjust="spacing" textLength="71" x="431" y="123.5684">hasSeverity</text></g><!--link Thing2 to Likelihood--><g id="link_Thing2_Likelihood"><path codeLine="22" d="M300.57,212.67 C313.57,236.29 343.68,284.37 384,307 C447.72,342.77 535.39,346.5 584.75,345.25 " fill="none" id="Thing2-Likelihood" style="stroke:#181818;stroke-width:1.0;"/><polygon fill="#000000" points="418.0311,300.7692,411.0768,294.2817,408.5917,299.6084,418.0311,300.7692" style="stroke:#000000;stroke-width:1.0;"/><text fill="#000000" font-family="sans-serif" font-size="13" lengthAdjust="spacing" textLength="88" x="422.5" y="303.5684">hasLikelihood</text></g><!--link Risk to Risk--><g id="link_Risk_Risk"><path codeLine="23" d="M606.1,272.53 C583.95,255.81 589.75,233.76 623.5,233.76 C657.25,233.76 663.05,255.81 640.9,272.53 " fill="none" id="Risk-Risk" style="stroke:#181818;stroke-width:1.0;"/><polygon fill="#000000" points="561.9876,216.4246,565.0914,225.4144,569.7827,221.8732,561.9876,216.4246" style="stroke:#000000;stroke-width:1.0;"/><text fill="#000000" font-family="sans-serif" font-size="13" lengthAdjust="spacing" textLength="102" x="579" y="225.3284">hasResidualRisk</text></g><!--link Risk to RiskMitigationMeasure--><g id="link_Risk_RiskMitigationMeasure"><path codeLine="24" d="M640.87,287.21 C658.11,292.41 686.14,300.03 711,303 C771.29,310.21 839.98,309.86 891.69,307.89 " fill="none" id="Risk-RiskMitigationMeasure" style="stroke:#181818;stroke-width:1.0;"/><polygon fill="#000000" points="720.9831,295.0661,712.2101,291.3939,711.7271,297.2519,720.9831,295.0661" style="stroke:#000000;stroke-width:1.0;"/><text fill="#000000" font-family="sans-serif" font-size="13" lengthAdjust="spacing" textLength="136" x="725" y="299.5684">isMitigatedByMeasure</text></g><!--link Risk to RiskLevel--><g id="link_Risk_RiskLevel"><path codeLine="25" d="M640.77,280.12 C694.23,273.96 865.22,254.25 938.09,245.85 " fill="none" id="Risk-RiskLevel" style="stroke:#181818;stroke-width:1.0;"/><polygon fill="#000000" points="748.4671,246.0827,739.145,244.1989,739.818,250.0381,748.4671,246.0827" style="stroke:#000000;stroke-width:1.0;"/><text fill="#000000" font-family="sans-serif" font-size="13" lengthAdjust="spacing" textLength="81" x="752.5" y="251.5684">hasRiskLevel</text></g><!--link Incident to Risk--><g id="link_Incident_Risk"><path codeLine="47" d="M322,491.32 C332.17,486.32 343.67,480.54 354,475 C436.32,430.9 480.07,444.78 536,370 C551.88,348.76 532.76,332.15 550,312 C564.34,295.23 589.57,287.67 606.16,284.38 " fill="none" id="Incident-Risk" style="stroke:#181818;stroke-width:1.0;"/><polygon fill="#000000" points="408.0418,358.7118,399,361.6609,402.4602,366.4123,408.0418,358.7118" style="stroke:#000000;stroke-width:1.0;"/><text fill="#000000" font-family="sans-serif" font-size="13" lengthAdjust="spacing" textLength="107" x="413" y="366.5684">risk:refersToRisk</text></g><!--link Thing to Incident--><g id="link_Thing_Incident"><path codeLine="48" d="M42.45,588.45 C52.18,577.8 67.07,563.4 83,555 C141.61,524.1 219.52,512 261.55,507.49 " fill="none" id="Thing-Incident" style="stroke:#181818;stroke-width:1.0;"/><polygon fill="#000000" points="92.6901,507.9222,83.187,508.3006,85.2243,513.8141,92.6901,507.9222" style="stroke:#000000;stroke-width:1.0;"/><text fill="#000000" font-family="sans-serif" font-size="13" lengthAdjust="spacing" textLength="101" x="97" y="514.5684">risk:hasIncident</text></g><!--link Incident to IncidentStatus--><g id="link_Incident_IncidentStatus"><path codeLine="49" d="M323.25,504.18 C340.91,503.73 363.73,503.22 384,503 C451.55,502.25 468.45,502.22 536,503 C547.57,503.13 560,503.37 571.73,503.63 " fill="none" id="Incident-IncidentStatus" style="stroke:#181818;stroke-width:1.0;"/><polygon fill="#000000" points="418.5,494.6442,409.4484,491.7253,409.4614,497.6031,418.5,494.6442" style="stroke:#000000;stroke-width:1.0;"/><text fill="#000000" font-family="sans-serif" font-size="13" lengthAdjust="spacing" textLength="88" x="422.5" y="499.5684">dpv:hasStatus</text></g><!--link Risk to RiskSource--><g id="link_Risk_RiskSource"><path codeLine="50" d="M606.17,285.42 C589.96,289.39 565.93,297.35 550,312 C337.25,507.67 407.38,558.75 422.92,578.5 C460.36,626.08 535.78,631.98 582.72,630.49 " fill="none" id="Risk-RiskSource" style="stroke:#181818;stroke-width:1.0;"/><polygon fill="#000000" points="397.661,575.1438,401.2064,566.3188,395.3421,565.9202,397.661,575.1438" style="stroke:#000000;stroke-width:1.0;"/><text fill="#000000" font-family="sans-serif" font-size="13" lengthAdjust="spacing" textLength="119" x="407" y="575.0684">risk:hasRiskSource</text></g><!--reverse link RiskSource to Threat--><g id="link_RiskSource_Threat"><path codeLine="51" d="M682.2088,617.6745 C729.4188,610.0345 792.58,599.72 862,588 C891.11,583.08 924.54,577.26 946.72,573.37 " fill="none" id="RiskSource-backto-Threat" style="stroke:#181818;stroke-width:1.0;"/><polygon fill="none" points="664.44,620.55,683.1673,623.5974,681.2503,611.7515,664.44,620.55" style="stroke:#181818;stroke-width:1.0;"/></g><!--link Risk to Threat--><g id="link_Risk_Threat"><path codeLine="52" d="M640.92,288.97 C652.67,294.37 668.55,302.5 681,312 C789.74,394.95 779.46,458.28 892,536 C908.85,547.63 930.43,556.27 946.86,561.78 " fill="none" id="Risk-Threat" style="stroke:#181818;stroke-width:1.0;"/><polygon fill="#000000" points="724.7318,336.983,719.9369,328.7696,716.0249,333.1566,724.7318,336.983" style="stroke:#000000;stroke-width:1.0;"/><text fill="#000000" font-family="sans-serif" font-size="13" lengthAdjust="spacing" textLength="126" x="730" y="338.5684">risk:causedByThreat</text></g><!--link Threat to ThreatSource--><g id="link_Threat_ThreatSource"><path codeLine="53" d="M998.48,569 C1049.62,569 1167,569 1233.58,569 " fill="none" id="Threat-ThreatSource" style="stroke:#181818;stroke-width:1.0;"/><polygon fill="#000000" points="1095,560.6553,1085.9549,557.7163,1085.9549,563.5942,1095,560.6553" style="stroke:#000000;stroke-width:1.0;"/><text fill="#000000" font-family="sans-serif" font-size="13" lengthAdjust="spacing" textLength="104" x="1099" y="565.5684">hasThreatSource</text></g><!--link Thing to Vulnerability--><g id="link_Thing_Vulnerability"><path codeLine="54" d="M53.48,604.02 C86.92,606.92 151.75,612.12 207,614 C272.3,616.22 288.86,618.98 354,614 C435.6,607.76 455.63,601.45 536,586 C549.47,583.41 564.03,580.2 577.29,577.12 " fill="none" id="Thing-Vulnerability" style="stroke:#181818;stroke-width:1.0;"/><polygon fill="#000000" points="244.4934,605.3988,235.3095,602.9277,235.611,608.7978,244.4934,605.3988" style="stroke:#000000;stroke-width:1.0;"/><text fill="#000000" font-family="sans-serif" font-size="13" lengthAdjust="spacing" textLength="101" x="248.5" y="610.5684">hasVulnerability</text></g><!--link Vulnerability to Thing--><g id="link_Vulnerability_Thing"><path codeLine="55" d="M577.32,579.37 C567.61,583.64 557.9,589.1 550,596 C540.7,604.12 546.32,613.22 536,620 C413.54,700.5 353.08,653.71 207,642 C151.35,637.54 136.9,636.54 83,622 C73.1,619.33 62.48,615.44 53.44,611.8 " fill="none" id="Vulnerability-Thing" style="stroke:#181818;stroke-width:1.0;"/><polygon fill="#000000" points="232.5096,633.9642,241.7189,636.3387,241.3558,630.472,232.5096,633.9642" style="stroke:#000000;stroke-width:1.0;"/><text fill="#000000" font-family="sans-serif" font-size="13" lengthAdjust="spacing" textLength="105" x="246.5" y="638.5684">isVulnerabilityOf</text></g><!--link Threat to Vulnerability--><g id="link_Threat_Vulnerability"><path codeLine="56" d="M946.74,571.33 C924.56,573.29 891.14,575.94 862,577 C794.93,579.45 777.98,581.24 711,577 C697.55,576.15 683,574.56 669.74,572.85 " fill="none" id="Threat-Vulnerability" style="stroke:#181818;stroke-width:1.0;"/><polygon fill="#000000" points="714.0001,568.6827,723.0612,571.572,723.0289,565.6942,714.0001,568.6827" style="stroke:#000000;stroke-width:1.0;"/><text fill="#000000" font-family="sans-serif" font-size="13" lengthAdjust="spacing" textLength="130" x="728" y="573.5684">exploitsVulnerability</text></g><!--link Vulnerability to Threat--><g id="link_Vulnerability_Threat"><path codeLine="57" d="M669.76,559.77 C683.02,558.22 697.57,556.77 711,556 C778,552.14 795.01,552.04 862,556 C891.24,557.73 924.64,562.04 946.79,565.22 " fill="none" id="Vulnerability-Threat" style="stroke:#181818;stroke-width:1.0;"/><polygon fill="#000000" points="746.999,545.7536,738.0135,542.6374,737.8979,548.5141,746.999,545.7536" style="stroke:#000000;stroke-width:1.0;"/><text fill="#000000" font-family="sans-serif" font-size="13" lengthAdjust="spacing" textLength="84" x="751" y="550.5684">isExploitedBy</text></g><!--link Incident to Vulnerability--><g id="link_Incident_Vulnerability"><path codeLine="58" d="M323.1,513.25 C340.7,517.97 363.52,523.77 384,528 C450.93,541.81 529.32,553.44 577.44,560.07 " fill="none" id="Incident-Vulnerability" style="stroke:#181818;stroke-width:1.0;"/><polygon fill="#000000" points="393.9174,520.5605,385.5538,516.0326,384.4897,521.8133,393.9174,520.5605" style="stroke:#000000;stroke-width:1.0;"/><text fill="#000000" font-family="sans-serif" font-size="13" lengthAdjust="spacing" textLength="137" x="398" y="524.5684">causedByVulnerability</text></g><!--link Thing to RiskControl--><g id="link_Thing_RiskControl"><path codeLine="59" d="M53.21,598.93 C96.64,592.93 193.46,579.55 249.4,571.82 " fill="none" id="Thing-RiskControl" style="stroke:#181818;stroke-width:1.0;"/><polygon fill="#000000" points="95.4529,570.9709,86.0907,569.2977,86.8953,575.1202,95.4529,570.9709" style="stroke:#000000;stroke-width:1.0;"/><text fill="#000000" font-family="sans-serif" font-size="13" lengthAdjust="spacing" textLength="96" x="99.5" y="576.5684">hasRiskControl</text></g><!--reverse link RiskAssessment to RiskMatrix--><g id="link_RiskAssessment_RiskMatrix"><path codeLine="60" d="M699.138,457.1175 C770.278,469.6275 872.37,487.57 933.35,498.29 " fill="none" id="RiskAssessment-backto-RiskMatrix" style="stroke:#181818;stroke-width:1.0;"/><polygon fill="none" points="681.41,454,698.0988,463.0268,700.1771,451.2081,681.41,454" style="stroke:#181818;stroke-width:1.0;"/></g><!--reverse link RiskManagement to RiskAssessment--><g id="link_RiskManagement_RiskAssessment"><path codeLine="61" d="M372.23,444 C432.66,444 506.68,444 565.7,444 " fill="none" id="RiskManagement-backto-RiskAssessment" style="stroke:#181818;stroke-width:1.0;"/><polygon fill="none" points="354.23,444,372.23,450,372.23,438,354.23,444" style="stroke:#181818;stroke-width:1.0;"/></g><!--reverse link RiskAssessment to RiskAnalysis--><g id="link_RiskAssessment_RiskAnalysis"><path codeLine="62" d="M699.41,444 C768.24,444 864.65,444 927.24,444 " fill="none" id="RiskAssessment-backto-RiskAnalysis" style="stroke:#181818;stroke-width:1.0;"/><polygon fill="none" points="681.41,444,699.41,450,699.41,438,681.41,444" style="stroke:#181818;stroke-width:1.0;"/></g><!--SRC=[ZLHDRzim3BtxLsZTEJliM1G1kg670YqABC7kcit4H1Gf4wMWGTV_FbaVDgMim78I7nz9FUevdr3toWyWo5qKV3afgPq_gax1pWbdXCNzwCI05dg7HdTThoIHkDcEgFStGfA8fw_YCw4wW-rEiZ_8FOZXT1PldGY_LF6W7ReB0tuW7Phm6HtkvJJd6IHv2qt-2SwW6FRTQ8BV7dJFcO_7S0V7W4qei_Nm9po0mj6OeNllkYnXjOfJnAqO9SNJcgNOi4XWSU3nA91JMSjxqLN7TD58IiUGpOVLiCeRO-cclCYAZ19KZ4Lbv2nXO4LzMN4I38I3boeBv_chTmahGiee3Dyk1QxBudFDounHO6G7nLlEhldGDj4bxqlUJlqvuL7tE81s_u0sJZfFJREDyRQootQq8DqLSCNxwPK6At-XklPnU6DdZMhjB9t5rmQyrr9T2DjhtHC1qR4Mafhee3icmXgADERLQIEt5dPWQMkuQwF52Z_p9YyLQ5rrgvSM-E4b9dgEwvTDos5D6PYOERZx4p-6kE7I88Mbk9UU9WjbTBfxFCp4ULOOKo5CPlKsYLf3wwwEooSQZLobNdRL7ThEy7fI1jt_jCygaHvIpQIoMNhRlIoZxJuBPMPR_gOAa3Q_E2bjdpcnzjEIPkRxgCDisxy0]--></g></svg>