<svg xmlns="http://www.w3.org/2000/svg" xmlns:xlink="http://www.w3.org/1999/xlink" contentStyleType="text/css" height="964px" preserveAspectRatio="none" style="width:2327px;height:964px;background:#FFFFFF;" version="1.1" viewBox="0 0 2327 964" width="2327px" zoomAndPan="magnify"><defs/><g><line style="stroke:#181818;stroke-width:1.5;" x1="81.5" x2="81.5" y1="64.1328" y2="84.1328"/><rect fill="#F1F1F1" height="34.1328" style="stroke:#181818;stroke-width:1.5;" width="143" x="10" y="84.1328"/><text fill="#000000" font-family="sans-serif" font-size="12" lengthAdjust="spacing" textLength="123" x="20" y="105.7344">AccessControlMethod</text><line style="stroke:#181818;stroke-width:1.5;" x1="81.5" x2="91.5" y1="150.332" y2="150.332"/><rect fill="#F1F1F1" height="34.1328" style="stroke:#181818;stroke-width:1.5;" width="96" x="91.5" y="133.2656"/><text fill="#000000" font-family="sans-serif" font-size="12" lengthAdjust="spacing" textLength="76" x="101.5" y="154.8672">UsageControl</text><line style="stroke:#181818;stroke-width:1.5;" x1="81.5" x2="81.5" y1="118.2656" y2="150.332"/><line style="stroke:#181818;stroke-width:1.5;" x1="267.5" x2="267.5" y1="64.1328" y2="84.1328"/><rect fill="#F1F1F1" height="34.1328" style="stroke:#181818;stroke-width:1.5;" width="120" x="207.5" y="84.1328"/><text fill="#000000" font-family="sans-serif" font-size="12" lengthAdjust="spacing" textLength="100" x="217.5" y="105.7344">ActivityMonitoring</text><line style="stroke:#181818;stroke-width:1.5;" x1="424" x2="424" y1="64.1328" y2="84.1328"/><rect fill="#F1F1F1" height="34.1328" style="stroke:#181818;stroke-width:1.5;" width="153" x="347.5" y="84.1328"/><text fill="#000000" font-family="sans-serif" font-size="12" lengthAdjust="spacing" textLength="133" x="357.5" y="105.7344">AuthenticationProtocols</text><line style="stroke:#181818;stroke-width:1.5;" x1="424" x2="434" y1="150.332" y2="150.332"/><rect fill="#F1F1F1" height="34.1328" style="stroke:#181818;stroke-width:1.5;" width="154" x="434" y="133.2656"/><text fill="#000000" font-family="sans-serif" font-size="12" lengthAdjust="spacing" textLength="134" x="444" y="154.8672">BiometricAuthentication</text><line style="stroke:#181818;stroke-width:1.5;" x1="424" x2="434" y1="199.4648" y2="199.4648"/><rect fill="#F1F1F1" height="34.1328" style="stroke:#181818;stroke-width:1.5;" width="182" x="434" y="182.3984"/><text fill="#000000" font-family="sans-serif" font-size="12" lengthAdjust="spacing" textLength="162" x="444" y="204">CryptographicAuthentication</text><line style="stroke:#181818;stroke-width:1.5;" x1="424" x2="434" y1="248.5977" y2="248.5977"/><rect fill="#F1F1F1" height="34.1328" style="stroke:#181818;stroke-width:1.5;" width="163" x="434" y="231.5313"/><text fill="#000000" font-family="sans-serif" font-size="12" lengthAdjust="spacing" textLength="143" x="444" y="253.1328">MultiFactorAuthentication</text><line style="stroke:#181818;stroke-width:1.5;" x1="424" x2="434" y1="297.7305" y2="297.7305"/><rect fill="#F1F1F1" height="34.1328" style="stroke:#181818;stroke-width:1.5;" width="156" x="434" y="280.6641"/><text fill="#000000" font-family="sans-serif" font-size="12" lengthAdjust="spacing" textLength="136" x="444" y="302.2656">PasswordAuthentication</text><line style="stroke:#181818;stroke-width:1.5;" x1="424" x2="434" y1="346.8633" y2="346.8633"/><rect fill="#F1F1F1" height="34.1328" style="stroke:#181818;stroke-width:1.5;" width="92" x="434" y="329.7969"/><text fill="#000000" font-family="sans-serif" font-size="12" lengthAdjust="spacing" textLength="72" x="444" y="351.3984">SingleSignOn</text><line style="stroke:#181818;stroke-width:1.5;" x1="424" x2="434" y1="395.9961" y2="395.9961"/><rect fill="#F1F1F1" height="34.1328" style="stroke:#181818;stroke-width:1.5;" width="190" x="434" y="378.9297"/><text fill="#000000" font-family="sans-serif" font-size="12" lengthAdjust="spacing" textLength="170" x="444" y="400.5313">ZeroKnowledgeAuthentication</text><line style="stroke:#181818;stroke-width:1.5;" x1="424" x2="424" y1="118.2656" y2="395.9961"/><line style="stroke:#181818;stroke-width:1.5;" x1="717.5" x2="717.5" y1="64.1328" y2="84.1328"/><rect fill="#F1F1F1" height="34.1328" style="stroke:#181818;stroke-width:1.5;" width="147" x="644" y="84.1328"/><text fill="#000000" font-family="sans-serif" font-size="12" lengthAdjust="spacing" textLength="127" x="654" y="105.7344">AuthorisationProtocols</text><line style="stroke:#181818;stroke-width:1.5;" x1="886" x2="886" y1="64.1328" y2="84.1328"/><rect fill="#F1F1F1" height="34.1328" style="stroke:#181818;stroke-width:1.5;" width="150" x="811" y="84.1328"/><text fill="#000000" font-family="sans-serif" font-size="12" lengthAdjust="spacing" textLength="130" x="821" y="105.7344">CryptographicMethods</text><line style="stroke:#181818;stroke-width:1.5;" x1="886" x2="896" y1="150.332" y2="150.332"/><rect fill="#F1F1F1" height="34.1328" style="stroke:#181818;stroke-width:1.5;" width="165" x="896" y="133.2656"/><text fill="#000000" font-family="sans-serif" font-size="12" lengthAdjust="spacing" textLength="145" x="906" y="154.8672">AsymmetricCryptography</text><line style="stroke:#181818;stroke-width:1.5;" x1="886" x2="896" y1="199.4648" y2="199.4648"/><rect fill="#F1F1F1" height="34.1328" style="stroke:#181818;stroke-width:1.5;" width="182" x="896" y="182.3984"/><text fill="#000000" font-family="sans-serif" font-size="12" lengthAdjust="spacing" textLength="162" x="906" y="204">CryptographicAuthentication</text><line style="stroke:#181818;stroke-width:1.5;" x1="886" x2="896" y1="248.5977" y2="248.5977"/><rect fill="#F1F1F1" height="34.1328" style="stroke:#181818;stroke-width:1.5;" width="196" x="896" y="231.5313"/><text fill="#000000" font-family="sans-serif" font-size="12" lengthAdjust="spacing" textLength="176" x="906" y="253.1328">CryptographicKeyManagement</text><line style="stroke:#181818;stroke-width:1.5;" x1="886" x2="896" y1="297.7305" y2="297.7305"/><rect fill="#F1F1F1" height="34.1328" style="stroke:#181818;stroke-width:1.5;" width="123" x="896" y="280.6641"/><text fill="#000000" font-family="sans-serif" font-size="12" lengthAdjust="spacing" textLength="103" x="906" y="302.2656">DifferentialPrivacy</text><line style="stroke:#181818;stroke-width:1.5;" x1="886" x2="896" y1="346.8633" y2="346.8633"/><rect fill="#F1F1F1" height="34.1328" style="stroke:#181818;stroke-width:1.5;" width="115" x="896" y="329.7969"/><text fill="#000000" font-family="sans-serif" font-size="12" lengthAdjust="spacing" textLength="95" x="906" y="351.3984">DigitalSignatures</text><line style="stroke:#181818;stroke-width:1.5;" x1="886" x2="896" y1="395.9961" y2="395.9961"/><rect fill="#F1F1F1" height="34.1328" style="stroke:#181818;stroke-width:1.5;" width="102" x="896" y="378.9297"/><text fill="#000000" font-family="sans-serif" font-size="12" lengthAdjust="spacing" textLength="82" x="906" y="400.5313">HashFunctions</text><line style="stroke:#181818;stroke-width:1.5;" x1="886" x2="896" y1="445.1289" y2="445.1289"/><rect fill="#F1F1F1" height="34.1328" style="stroke:#181818;stroke-width:1.5;" width="161" x="896" y="428.0625"/><text fill="#000000" font-family="sans-serif" font-size="12" lengthAdjust="spacing" textLength="141" x="906" y="449.6641">HomomorphicEncryption</text><line style="stroke:#181818;stroke-width:1.5;" x1="886" x2="896" y1="494.2617" y2="494.2617"/><rect fill="#F1F1F1" height="34.1328" style="stroke:#181818;stroke-width:1.5;" width="174" x="896" y="477.1953"/><text fill="#000000" font-family="sans-serif" font-size="12" lengthAdjust="spacing" textLength="154" x="906" y="498.7969">PostQuantumCryptography</text><line style="stroke:#181818;stroke-width:1.5;" x1="886" x2="896" y1="543.3945" y2="543.3945"/><rect fill="#F1F1F1" height="34.1328" style="stroke:#181818;stroke-width:1.5;" width="166" x="896" y="526.3281"/><text fill="#000000" font-family="sans-serif" font-size="12" lengthAdjust="spacing" textLength="146" x="906" y="547.9297">PrivacyPreservingProtocol</text><line style="stroke:#181818;stroke-width:1.5;" x1="886" x2="896" y1="592.5273" y2="592.5273"/><rect fill="#F1F1F1" height="34.1328" style="stroke:#181818;stroke-width:1.5;" width="174" x="896" y="575.4609"/><text fill="#000000" font-family="sans-serif" font-size="12" lengthAdjust="spacing" textLength="154" x="906" y="597.0625">PrivateInformationRetrieval</text><line style="stroke:#181818;stroke-width:1.5;" x1="886" x2="896" y1="641.6602" y2="641.6602"/><rect fill="#F1F1F1" height="34.1328" style="stroke:#181818;stroke-width:1.5;" width="150" x="896" y="624.5938"/><text fill="#000000" font-family="sans-serif" font-size="12" lengthAdjust="spacing" textLength="130" x="906" y="646.1953">QuantumCryptography</text><line style="stroke:#181818;stroke-width:1.5;" x1="886" x2="896" y1="690.793" y2="690.793"/><rect fill="#F1F1F1" height="34.1328" style="stroke:#181818;stroke-width:1.5;" width="147" x="896" y="673.7266"/><text fill="#000000" font-family="sans-serif" font-size="12" lengthAdjust="spacing" textLength="127" x="906" y="695.3281">SecretSharingSchemes</text><line style="stroke:#181818;stroke-width:1.5;" x1="886" x2="896" y1="739.9258" y2="739.9258"/><rect fill="#F1F1F1" height="34.1328" style="stroke:#181818;stroke-width:1.5;" width="187" x="896" y="722.8594"/><text fill="#000000" font-family="sans-serif" font-size="12" lengthAdjust="spacing" textLength="167" x="906" y="744.4609">SecureMultiPartyComputation</text><line style="stroke:#181818;stroke-width:1.5;" x1="886" x2="896" y1="789.0586" y2="789.0586"/><rect fill="#F1F1F1" height="34.1328" style="stroke:#181818;stroke-width:1.5;" width="157" x="896" y="771.9922"/><text fill="#000000" font-family="sans-serif" font-size="12" lengthAdjust="spacing" textLength="137" x="906" y="793.5938">SymmetricCryptography</text><line style="stroke:#181818;stroke-width:1.5;" x1="886" x2="896" y1="838.1914" y2="838.1914"/><rect fill="#F1F1F1" height="34.1328" style="stroke:#181818;stroke-width:1.5;" width="127" x="896" y="821.125"/><text fill="#000000" font-family="sans-serif" font-size="12" lengthAdjust="spacing" textLength="107" x="906" y="842.7266">TrustedComputing</text><line style="stroke:#181818;stroke-width:1.5;" x1="886" x2="896" y1="887.3242" y2="887.3242"/><rect fill="#F1F1F1" height="34.1328" style="stroke:#181818;stroke-width:1.5;" width="191" x="896" y="870.2578"/><text fill="#000000" font-family="sans-serif" font-size="12" lengthAdjust="spacing" textLength="171" x="906" y="891.8594">TrustedExecutionEnvironment</text><line style="stroke:#181818;stroke-width:1.5;" x1="886" x2="896" y1="936.457" y2="936.457"/><rect fill="#F1F1F1" height="34.1328" style="stroke:#181818;stroke-width:1.5;" width="190" x="896" y="919.3906"/><text fill="#000000" font-family="sans-serif" font-size="12" lengthAdjust="spacing" textLength="170" x="906" y="940.9922">ZeroKnowledgeAuthentication</text><line style="stroke:#181818;stroke-width:1.5;" x1="886" x2="886" y1="118.2656" y2="936.457"/><line style="stroke:#181818;stroke-width:1.5;" x1="1182.5" x2="1182.5" y1="64.1328" y2="84.1328"/><rect fill="#F1F1F1" height="34.1328" style="stroke:#181818;stroke-width:1.5;" width="141" x="1112" y="84.1328"/><text fill="#000000" font-family="sans-serif" font-size="12" lengthAdjust="spacing" textLength="121" x="1122" y="105.7344">DataBackupProtocols</text><line style="stroke:#181818;stroke-width:1.5;" x1="1358.5" x2="1358.5" y1="64.1328" y2="84.1328"/><rect fill="#F1F1F1" height="34.1328" style="stroke:#181818;stroke-width:1.5;" width="171" x="1273" y="84.1328"/><text fill="#000000" font-family="sans-serif" font-size="12" lengthAdjust="spacing" textLength="151" x="1283" y="105.7344">DataSanitisationTechnique</text><line style="stroke:#181818;stroke-width:1.5;" x1="1358.5" x2="1368.5" y1="150.332" y2="150.332"/><rect fill="#F1F1F1" height="34.1328" style="stroke:#181818;stroke-width:1.5;" width="104" x="1368.5" y="133.2656"/><text fill="#000000" font-family="sans-serif" font-size="12" lengthAdjust="spacing" textLength="84" x="1378.5" y="154.8672">DataRedaction</text><line style="stroke:#181818;stroke-width:1.5;" x1="1358.5" x2="1368.5" y1="199.4648" y2="199.4648"/><rect fill="#F1F1F1" height="34.1328" style="stroke:#181818;stroke-width:1.5;" width="109" x="1368.5" y="182.3984"/><text fill="#000000" font-family="sans-serif" font-size="12" lengthAdjust="spacing" textLength="89" x="1378.5" y="204">Deidentification</text><line style="stroke:#181818;stroke-width:1.5;" x1="1358.5" x2="1358.5" y1="118.2656" y2="199.4648"/><line style="stroke:#181818;stroke-width:1.5;" x1="1580" x2="1580" y1="64.1328" y2="84.1328"/><rect fill="#F1F1F1" height="34.1328" style="stroke:#181818;stroke-width:1.5;" width="165" x="1497.5" y="84.1328"/><text fill="#000000" font-family="sans-serif" font-size="12" lengthAdjust="spacing" textLength="145" x="1507.5" y="105.7344">DigitalRightsManagement</text><line style="stroke:#181818;stroke-width:1.5;" x1="1722.5" x2="1722.5" y1="64.1328" y2="84.1328"/><rect fill="#F1F1F1" height="34.1328" style="stroke:#181818;stroke-width:1.5;" width="80" x="1682.5" y="84.1328"/><text fill="#000000" font-family="sans-serif" font-size="12" lengthAdjust="spacing" textLength="60" x="1692.5" y="105.7344">Encryption</text><line style="stroke:#181818;stroke-width:1.5;" x1="1722.5" x2="1732.5" y1="150.332" y2="150.332"/><rect fill="#F1F1F1" height="34.1328" style="stroke:#181818;stroke-width:1.5;" width="147" x="1732.5" y="133.2656"/><text fill="#000000" font-family="sans-serif" font-size="12" lengthAdjust="spacing" textLength="127" x="1742.5" y="154.8672">AsymmetricEncryption</text><line style="stroke:#181818;stroke-width:1.5;" x1="1722.5" x2="1732.5" y1="199.4648" y2="199.4648"/><rect fill="#F1F1F1" height="34.1328" style="stroke:#181818;stroke-width:1.5;" width="117" x="1732.5" y="182.3984"/><text fill="#000000" font-family="sans-serif" font-size="12" lengthAdjust="spacing" textLength="97" x="1742.5" y="204">EncryptionAtRest</text><line style="stroke:#181818;stroke-width:1.5;" x1="1722.5" x2="1732.5" y1="248.5977" y2="248.5977"/><rect fill="#F1F1F1" height="34.1328" style="stroke:#181818;stroke-width:1.5;" width="139" x="1732.5" y="231.5313"/><text fill="#000000" font-family="sans-serif" font-size="12" lengthAdjust="spacing" textLength="119" x="1742.5" y="253.1328">EncryptionInTransfer</text><line style="stroke:#181818;stroke-width:1.5;" x1="1722.5" x2="1732.5" y1="297.7305" y2="297.7305"/><rect fill="#F1F1F1" height="34.1328" style="stroke:#181818;stroke-width:1.5;" width="111" x="1732.5" y="280.6641"/><text fill="#000000" font-family="sans-serif" font-size="12" lengthAdjust="spacing" textLength="91" x="1742.5" y="302.2656">EncryptionInUse</text><line style="stroke:#181818;stroke-width:1.5;" x1="1722.5" x2="1732.5" y1="346.8633" y2="346.8633"/><rect fill="#F1F1F1" height="34.1328" style="stroke:#181818;stroke-width:1.5;" width="139" x="1732.5" y="329.7969"/><text fill="#000000" font-family="sans-serif" font-size="12" lengthAdjust="spacing" textLength="119" x="1742.5" y="351.3984">EndToEndEncryption</text><line style="stroke:#181818;stroke-width:1.5;" x1="1722.5" x2="1732.5" y1="395.9961" y2="395.9961"/><rect fill="#F1F1F1" height="34.1328" style="stroke:#181818;stroke-width:1.5;" width="139" x="1732.5" y="378.9297"/><text fill="#000000" font-family="sans-serif" font-size="12" lengthAdjust="spacing" textLength="119" x="1742.5" y="400.5313">SymmetricEncryption</text><line style="stroke:#181818;stroke-width:1.5;" x1="1722.5" x2="1722.5" y1="118.2656" y2="395.9961"/><line style="stroke:#181818;stroke-width:1.5;" x1="1975" x2="1975" y1="64.1328" y2="84.1328"/><rect fill="#F1F1F1" height="34.1328" style="stroke:#181818;stroke-width:1.5;" width="151" x="1899.5" y="84.1328"/><text fill="#000000" font-family="sans-serif" font-size="12" lengthAdjust="spacing" textLength="131" x="1909.5" y="105.7344">InformationFlowControl</text><line style="stroke:#181818;stroke-width:1.5;" x1="2124" x2="2124" y1="64.1328" y2="84.1328"/><rect fill="#F1F1F1" height="34.1328" style="stroke:#181818;stroke-width:1.5;" width="107" x="2070.5" y="84.1328"/><text fill="#000000" font-family="sans-serif" font-size="12" lengthAdjust="spacing" textLength="87" x="2080.5" y="105.7344">SecurityMethod</text><line style="stroke:#181818;stroke-width:1.5;" x1="2124" x2="2134" y1="150.332" y2="150.332"/><rect fill="#F1F1F1" height="34.1328" style="stroke:#181818;stroke-width:1.5;" width="168" x="2134" y="133.2656"/><text fill="#000000" font-family="sans-serif" font-size="12" lengthAdjust="spacing" textLength="148" x="2144" y="154.8672">DistributedSystemSecurity</text><line style="stroke:#181818;stroke-width:1.5;" x1="2124" x2="2134" y1="199.4648" y2="199.4648"/><rect fill="#F1F1F1" height="34.1328" style="stroke:#181818;stroke-width:1.5;" width="122" x="2134" y="182.3984"/><text fill="#000000" font-family="sans-serif" font-size="12" lengthAdjust="spacing" textLength="102" x="2144" y="204">DocumentSecurity</text><line style="stroke:#181818;stroke-width:1.5;" x1="2124" x2="2134" y1="248.5977" y2="248.5977"/><rect fill="#F1F1F1" height="34.1328" style="stroke:#181818;stroke-width:1.5;" width="123" x="2134" y="231.5313"/><text fill="#000000" font-family="sans-serif" font-size="12" lengthAdjust="spacing" textLength="103" x="2144" y="253.1328">FileSystemSecurity</text><line style="stroke:#181818;stroke-width:1.5;" x1="2124" x2="2134" y1="297.7305" y2="297.7305"/><rect fill="#F1F1F1" height="34.1328" style="stroke:#181818;stroke-width:1.5;" width="173" x="2134" y="280.6641"/><text fill="#000000" font-family="sans-serif" font-size="12" lengthAdjust="spacing" textLength="153" x="2144" y="302.2656">HardwareSecurityProtocols</text><line style="stroke:#181818;stroke-width:1.5;" x1="2124" x2="2134" y1="346.8633" y2="346.8633"/><rect fill="#F1F1F1" height="34.1328" style="stroke:#181818;stroke-width:1.5;" width="163" x="2134" y="329.7969"/><text fill="#000000" font-family="sans-serif" font-size="12" lengthAdjust="spacing" textLength="143" x="2144" y="351.3984">IntrusionDetectionSystem</text><line style="stroke:#181818;stroke-width:1.5;" x1="2124" x2="2134" y1="395.9961" y2="395.9961"/><rect fill="#F1F1F1" height="34.1328" style="stroke:#181818;stroke-width:1.5;" width="150" x="2134" y="378.9297"/><text fill="#000000" font-family="sans-serif" font-size="12" lengthAdjust="spacing" textLength="130" x="2144" y="400.5313">MobilePlatformSecurity</text><line style="stroke:#181818;stroke-width:1.5;" x1="2124" x2="2134" y1="445.1289" y2="445.1289"/><rect fill="#F1F1F1" height="34.1328" style="stroke:#181818;stroke-width:1.5;" width="143" x="2134" y="428.0625"/><text fill="#000000" font-family="sans-serif" font-size="12" lengthAdjust="spacing" textLength="123" x="2144" y="449.6641">NetworkProxyRouting</text><line style="stroke:#181818;stroke-width:1.5;" x1="2124" x2="2134" y1="494.2617" y2="494.2617"/><rect fill="#F1F1F1" height="34.1328" style="stroke:#181818;stroke-width:1.5;" width="164" x="2134" y="477.1953"/><text fill="#000000" font-family="sans-serif" font-size="12" lengthAdjust="spacing" textLength="144" x="2144" y="498.7969">NetworkSecurityProtocols</text><line style="stroke:#181818;stroke-width:1.5;" x1="2124" x2="2134" y1="543.3945" y2="543.3945"/><rect fill="#F1F1F1" height="34.1328" style="stroke:#181818;stroke-width:1.5;" width="161" x="2134" y="526.3281"/><text fill="#000000" font-family="sans-serif" font-size="12" lengthAdjust="spacing" textLength="141" x="2144" y="547.9297">OperatingSystemSecurity</text><line style="stroke:#181818;stroke-width:1.5;" x1="2124" x2="2134" y1="592.5273" y2="592.5273"/><rect fill="#F1F1F1" height="34.1328" style="stroke:#181818;stroke-width:1.5;" width="176" x="2134" y="575.4609"/><text fill="#000000" font-family="sans-serif" font-size="12" lengthAdjust="spacing" textLength="156" x="2144" y="597.0625">PenetrationTestingMethods</text><line style="stroke:#181818;stroke-width:1.5;" x1="2124" x2="2134" y1="641.6602" y2="641.6602"/><rect fill="#F1F1F1" height="34.1328" style="stroke:#181818;stroke-width:1.5;" width="118" x="2134" y="624.5938"/><text fill="#000000" font-family="sans-serif" font-size="12" lengthAdjust="spacing" textLength="98" x="2144" y="646.1953">UseSyntheticData</text><line style="stroke:#181818;stroke-width:1.5;" x1="2124" x2="2134" y1="690.793" y2="690.793"/><rect fill="#F1F1F1" height="34.1328" style="stroke:#181818;stroke-width:1.5;" width="138" x="2134" y="673.7266"/><text fill="#000000" font-family="sans-serif" font-size="12" lengthAdjust="spacing" textLength="118" x="2144" y="695.3281">VirtualisationSecurity</text><line style="stroke:#181818;stroke-width:1.5;" x1="2124" x2="2134" y1="739.9258" y2="739.9258"/><rect fill="#F1F1F1" height="34.1328" style="stroke:#181818;stroke-width:1.5;" width="182" x="2134" y="722.8594"/><text fill="#000000" font-family="sans-serif" font-size="12" lengthAdjust="spacing" textLength="162" x="2144" y="744.4609">VulnerabilityTestingMethods</text><line style="stroke:#181818;stroke-width:1.5;" x1="2124" x2="2134" y1="789.0586" y2="789.0586"/><rect fill="#F1F1F1" height="34.1328" style="stroke:#181818;stroke-width:1.5;" width="135" x="2134" y="771.9922"/><text fill="#000000" font-family="sans-serif" font-size="12" lengthAdjust="spacing" textLength="115" x="2144" y="793.5938">WebBrowserSecurity</text><line style="stroke:#181818;stroke-width:1.5;" x1="2124" x2="2134" y1="838.1914" y2="838.1914"/><rect fill="#F1F1F1" height="34.1328" style="stroke:#181818;stroke-width:1.5;" width="141" x="2134" y="821.125"/><text fill="#000000" font-family="sans-serif" font-size="12" lengthAdjust="spacing" textLength="121" x="2144" y="842.7266">WebSecurityProtocols</text><line style="stroke:#181818;stroke-width:1.5;" x1="2124" x2="2134" y1="887.3242" y2="887.3242"/><rect fill="#F1F1F1" height="34.1328" style="stroke:#181818;stroke-width:1.5;" width="163" x="2134" y="870.2578"/><text fill="#000000" font-family="sans-serif" font-size="12" lengthAdjust="spacing" textLength="143" x="2144" y="891.8594">WirelessSecurityProtocols</text><line style="stroke:#181818;stroke-width:1.5;" x1="2124" x2="2124" y1="118.2656" y2="887.3242"/><line style="stroke:#181818;stroke-width:1.5;" x1="81.5" x2="2124" y1="64.1328" y2="64.1328"/><rect fill="#F1F1F1" height="34.1328" style="stroke:#181818;stroke-width:1.5;" width="123" x="1041.25" y="10"/><text fill="#000000" font-family="sans-serif" font-size="12" lengthAdjust="spacing" textLength="103" x="1051.25" y="31.6016">TechnicalMeasure</text><line style="stroke:#181818;stroke-width:1.5;" x1="1102.75" x2="1102.75" y1="44.1328" y2="64.1328"/><!--SRC=[ZLNRJkCm47tFL_WHAh4210Zr2TfIAD0bsxH5sZVNcIOMYTsrnotv-nqdwIKqQ5ULAlMSyV5SZgTt5hd1pS86GOTDGQHA2fwDWLjd8EXqsBqGO6rVApIQS4nrJ727pInFe8QhE9HhYSLOAudQI9MKgCCK598cIgr2er4BdTbIeITr3cYaQ0QLNDyKAzI9uQkqbH-x3EMG2xgfXGsvjHjjuXOgeiGoY6IYtYhWDnZzelGcWpY1emDb0LIDFSg_cMBLcAgkUrlaLM478SL_bTNWNw0OSqLTpYcgf0TokGJZp_0iD7BDHL7ZYKIU-QeuqjogF9wuJOTE2QzU8pgdZ_7Y3qhuktOTqnP_EQxGvKT9rpU5f0jcJVtRjc7F8epKKfkyh6JYQuSrh_ZlL2CG1Z1AkRTA95Agqcu9Ag4SS4ZMBFewNpaycE2ttPqQPn7Ywa1bm1tuy4coNkD1hQNHQjVJVyn_m97tkFXmgyRmFHnnSdhjZEhb_75GpOFO2SHSx98UW8ozyF9GkfhQH2OfsiQasPVfx1trXTZ_lCS9MFm2ZjJKS6N9CqV4p4ADnLDDNr-4ezOBsS6KXvdU73p_Sch- -Uytn41QKbWuwdvKq0poRKp5Qk5ykGrmAEbj7iS-SHDlk84jsDmZ8qh2MKff00Xbook9Qb7e1Mc66KUVUKFr9o0jYGyI-omcUk-O6c-_x6q5XllGbZH3KDIpsW_M1nsk1UfuL2Zo5zdB6wG4vzAWurdjeeRQt6MAxgBq2MdHUuT5p-WDlSd6COBRCt-N1Z9QvSTiS0SgBly2g4yAP-DNjWRZEyekVboUNrxzk3w9d69ZNh3B6tPnthsuxbxVib4qPPu-3KuUmrTcjJC2MBmTEvq_3PxvchE98-ldqFNTKy-3bot03X_Zytoy3xYvEkj995SPoeJDny40bfnMWlUmZgaJNJQR3izkWrUk4aSlfyj01NrDkgReiiVUNm00]--></g></svg>