<svg xmlns="http://www.w3.org/2000/svg" xmlns:xlink="http://www.w3.org/1999/xlink" contentStyleType="text/css" data-diagram-type="CLASS" height="682px" preserveAspectRatio="none" style="width:816px;height:682px;background:#FFFFFF;" version="1.1" viewBox="0 0 816 682" width="816px" zoomAndPan="magnify"><defs/><g><!--cluster dpv--><g id="cluster_dpv"><path d="M8.5,335 L36.3584,335 A3.75,3.75 0 0 1 38.8584,337.5 L45.8584,357.4883 L119.99,357.4883 A2.5,2.5 0 0 1 122.49,359.9883 L122.49,409.5 A2.5,2.5 0 0 1 119.99,412 L8.5,412 A2.5,2.5 0 0 1 6,409.5 L6,337.5 A2.5,2.5 0 0 1 8.5,335 " fill="transparent" style="stroke:#000000;stroke-width:1.5;"/><line style="stroke:#000000;stroke-width:1.5;" x1="6" x2="45.8584" y1="357.4883" y2="357.4883"/><text fill="#000000" font-family="sans-serif" font-size="14" font-weight="bold" lengthAdjust="spacing" textLength="26.8584" x="10" y="350.5352">dpv</text></g><!--cluster tech--><g id="cluster_tech"><path d="M653.68,412 L685.2025,412 A3.75,3.75 0 0 1 687.7025,414.5 L694.7025,434.4883 L806.74,434.4883 A2.5,2.5 0 0 1 809.24,436.9883 L809.24,669.5 A2.5,2.5 0 0 1 806.74,672 L653.68,672 A2.5,2.5 0 0 1 651.18,669.5 L651.18,414.5 A2.5,2.5 0 0 1 653.68,412 " fill="transparent" style="stroke:#000000;stroke-width:1.5;"/><line style="stroke:#000000;stroke-width:1.5;" x1="651.18" x2="694.7025" y1="434.4883" y2="434.4883"/><text fill="#000000" font-family="sans-serif" font-size="14" font-weight="bold" lengthAdjust="spacing" textLength="30.5225" x="655.18" y="427.5352">tech</text></g><!--cluster ai--><g id="cluster_ai"><path d="M399.99,6 L413.7732,6 A3.75,3.75 0 0 1 416.2732,8.5 L423.2732,28.4883 L781.99,28.4883 A2.5,2.5 0 0 1 784.49,30.9883 L784.49,385.5 A2.5,2.5 0 0 1 781.99,388 L399.99,388 A2.5,2.5 0 0 1 397.49,385.5 L397.49,8.5 A2.5,2.5 0 0 1 399.99,6 " fill="transparent" style="stroke:#000000;stroke-width:1.5;"/><line style="stroke:#000000;stroke-width:1.5;" x1="397.49" x2="423.2732" y1="28.4883" y2="28.4883"/><text fill="#000000" font-family="sans-serif" font-size="14" font-weight="bold" lengthAdjust="spacing" textLength="12.7832" x="401.49" y="21.5352">ai</text></g><!--class Technology--><g id="elem_Technology"><rect codeLine="7" fill="#F1F1F1" height="26.4883" id="Technology" rx="2.5" ry="2.5" style="stroke:#181818;stroke-width:0.5;" width="84.4902" x="22" y="369.76"/><text fill="#000000" font-family="sans-serif" font-size="14" lengthAdjust="spacing" textLength="78.4902" x="25" y="388.2952">Technology</text></g><!--class ProvisionMethod--><g id="elem_ProvisionMethod"><rect codeLine="11" fill="#F1F1F1" height="26.4883" id="ProvisionMethod" rx="2.5" ry="2.5" style="stroke:#181818;stroke-width:0.5;" width="119.0254" x="670.7" y="446.76"/><text fill="#000000" font-family="sans-serif" font-size="14" lengthAdjust="spacing" textLength="113.0254" x="673.7" y="465.2952">ProvisionMethod</text></g><!--class Documentation--><g id="elem_Documentation"><rect codeLine="12" fill="#F1F1F1" height="26.4883" id="Documentation" rx="2.5" ry="2.5" style="stroke:#181818;stroke-width:0.5;" width="110.043" x="675.19" y="507.76"/><text fill="#000000" font-family="sans-serif" font-size="14" lengthAdjust="spacing" textLength="104.043" x="678.19" y="526.2952">Documentation</text></g><!--class IntendedUse--><g id="elem_IntendedUse"><rect codeLine="13" fill="#F1F1F1" height="26.4883" id="IntendedUse" rx="2.5" ry="2.5" style="stroke:#181818;stroke-width:0.5;" width="90.5059" x="684.96" y="568.76"/><text fill="#000000" font-family="sans-serif" font-size="14" lengthAdjust="spacing" textLength="84.5059" x="687.96" y="587.2952">IntendedUse</text></g><!--class TechnologyStatus--><g id="elem_TechnologyStatus"><rect codeLine="14" fill="#F1F1F1" height="26.4883" id="TechnologyStatus" rx="2.5" ry="2.5" style="stroke:#181818;stroke-width:0.5;" width="126.0596" x="667.18" y="629.76"/><text fill="#000000" font-family="sans-serif" font-size="14" lengthAdjust="spacing" textLength="120.0596" x="670.18" y="648.2952">TechnologyStatus</text></g><!--class AI--><g id="elem_AI"><rect codeLine="18" fill="#F1F1F1" height="26.4883" id="AI" rx="2.5" ry="2.5" style="stroke:#181818;stroke-width:0.5;" width="19.6924" x="413.49" y="325.76"/><text fill="#000000" font-family="sans-serif" font-size="14" lengthAdjust="spacing" textLength="13.6924" x="416.49" y="344.2952">AI</text></g><!--class AISystem--><g id="elem_AISystem"><rect codeLine="19" fill="#F1F1F1" height="26.4883" id="AISystem" rx="2.5" ry="2.5" style="stroke:#181818;stroke-width:0.5;" width="67.79" x="696.32" y="345.76"/><text fill="#000000" font-family="sans-serif" font-size="14" lengthAdjust="spacing" textLength="61.79" x="699.32" y="364.2952">AISystem</text></g><!--class Capability--><g id="elem_Capability"><rect codeLine="20" fill="#F1F1F1" height="26.4883" id="Capability" rx="2.5" ry="2.5" style="stroke:#181818;stroke-width:0.5;" width="73.4639" x="693.48" y="284.76"/><text fill="#000000" font-family="sans-serif" font-size="14" lengthAdjust="spacing" textLength="67.4639" x="696.48" y="303.2952">Capability</text></g><!--class Measure--><g id="elem_Measure"><rect codeLine="21" fill="#F1F1F1" height="26.4883" id="Measure" rx="2.5" ry="2.5" style="stroke:#181818;stroke-width:0.5;" width="62.9434" x="698.74" y="223.76"/><text fill="#000000" font-family="sans-serif" font-size="14" lengthAdjust="spacing" textLength="56.9434" x="701.74" y="242.2952">Measure</text></g><!--class Model--><g id="elem_Model"><rect codeLine="22" fill="#F1F1F1" height="26.4883" id="Model" rx="2.5" ry="2.5" style="stroke:#181818;stroke-width:0.5;" width="47.3164" x="706.55" y="162.76"/><text fill="#000000" font-family="sans-serif" font-size="14" lengthAdjust="spacing" textLength="41.3164" x="709.55" y="181.2952">Model</text></g><!--class Risk--><g id="elem_Risk"><rect codeLine="23" fill="#F1F1F1" height="26.4883" id="Risk" rx="2.5" ry="2.5" style="stroke:#181818;stroke-width:0.5;" width="34.2188" x="713.1" y="101.76"/><text fill="#000000" font-family="sans-serif" font-size="14" lengthAdjust="spacing" textLength="28.2188" x="716.1" y="120.2952">Risk</text></g><!--class Technique--><g id="elem_Technique"><rect codeLine="24" fill="#F1F1F1" height="26.4883" id="Technique" rx="2.5" ry="2.5" style="stroke:#181818;stroke-width:0.5;" width="76.5469" x="691.94" y="40.76"/><text fill="#000000" font-family="sans-serif" font-size="14" lengthAdjust="spacing" textLength="70.5469" x="694.94" y="59.2952">Technique</text></g><!--class Thing--><g id="elem_Thing"><rect codeLine="4" fill="#C0C0C0" height="26.4883" id="Thing" rx="2.5" ry="2.5" style="stroke:#181818;stroke-width:0.5;" width="45.0059" x="41.74" y="292.76"/><text fill="#000000" font-family="sans-serif" font-size="14" lengthAdjust="spacing" textLength="39.0059" x="44.74" y="311.2952">Thing</text></g><!--link Thing to AI--><g id="link_Thing_AI"><path codeLine="27" d="M87.05,308.01 C155.79,314.37 366.25,333.82 413.05,338.14 " fill="transparent" id="Thing-AI" style="stroke:#181818;stroke-width:1;"/><polygon fill="#000000" points="148.4688,305.2454,139.7326,301.4865,139.1916,307.3395,148.4688,305.2454" style="stroke:#000000;stroke-width:1;"/><text fill="#000000" font-family="sans-serif" font-size="13" lengthAdjust="spacing" textLength="228.8394" x="152.49" y="309.6984">dpv:isImplementedUsingTechnology</text></g><!--reverse link Technology to AI--><g id="link_Technology_AI"><path codeLine="28" d="M124.7749,375.669 C207.5649,365.469 370.62,345.37 413.22,340.12 " fill="transparent" id="Technology-backto-AI" style="stroke:#181818;stroke-width:1;"/><polygon fill="transparent" points="106.91,377.87,125.5086,381.624,124.0413,369.714,106.91,377.87" style="stroke:#181818;stroke-width:1;"/></g><!--link AI to ProvisionMethod--><g id="link_AI_ProvisionMethod"><path codeLine="29" d="M432.94,352.71 C439.93,362.76 450.66,376 463.18,384 C527.14,424.86 613.49,444.23 670.22,453.08 " fill="transparent" id="AI-ProvisionMethod" style="stroke:#181818;stroke-width:1;"/><polygon fill="#000000" points="472.785,377.6032,465.5995,371.3727,463.3096,376.7861,472.785,377.6032" style="stroke:#000000;stroke-width:1;"/><text fill="#000000" font-family="sans-serif" font-size="13" lengthAdjust="spacing" textLength="157.771" x="477.18" y="380.5684">tech:hasProvisionMethod</text></g><!--link AI to Documentation--><g id="link_AI_Documentation"><path codeLine="30" d="M423.97,352.7 C424.05,379.85 428.37,440.57 463.18,472 C520.96,524.16 615.44,529.32 674.88,526.47 " fill="transparent" id="AI-Documentation" style="stroke:#181818;stroke-width:1;"/><polygon fill="#000000" points="476.2905,466.502,470.5278,458.9361,467.1813,463.7683,476.2905,466.502" style="stroke:#000000;stroke-width:1;"/><text fill="#000000" font-family="sans-serif" font-size="13" lengthAdjust="spacing" textLength="149.4302" x="481.18" y="468.5684">tech:hasDocumentation</text></g><!--link AI to IntendedUse--><g id="link_AI_IntendedUse"><path codeLine="31" d="M424.78,352.7 C426.46,395.37 433.93,524.67 463.18,552 C522.79,607.68 625.7,601.12 684.52,591.48 " fill="transparent" id="AI-IntendedUse" style="stroke:#181818;stroke-width:1;"/><polygon fill="#000000" points="484.8609,547.0392,480.1911,538.754,476.2131,543.0812,484.8609,547.0392" style="stroke:#000000;stroke-width:1;"/><text fill="#000000" font-family="sans-serif" font-size="13" lengthAdjust="spacing" textLength="131.2886" x="490.18" y="548.5684">tech:hasIntendedUse</text></g><!--link AI to TechnologyStatus--><g id="link_AI_TechnologyStatus"><path codeLine="32" d="M424.05,352.74 C423.28,404.37 423.5,585.66 463.18,623 C519.43,675.92 615.27,668.39 675.26,656.7 " fill="transparent" id="AI-TechnologyStatus" style="stroke:#181818;stroke-width:1;"/><polygon fill="#000000" points="506.3653,618.5094,502.8685,609.665,498.3377,613.4095,506.3653,618.5094" style="stroke:#000000;stroke-width:1;"/><text fill="#000000" font-family="sans-serif" font-size="13" lengthAdjust="spacing" textLength="87.6802" x="512.18" y="619.5684">dpv:hasStatus</text></g><!--link AI to Capability--><g id="link_AI_Capability"><path codeLine="33" d="M433.46,337.77 C472.05,332.58 623.09,312.27 693.15,302.85 " fill="transparent" id="AI-Capability" style="stroke:#181818;stroke-width:1;"/><polygon fill="#000000" points="502.1354,302.2489,492.7793,300.5416,493.5627,306.3671,502.1354,302.2489" style="stroke:#000000;stroke-width:1;"/><text fill="#000000" font-family="sans-serif" font-size="13" lengthAdjust="spacing" textLength="99.5693" x="506.18" y="307.8284">ai:hasCapability</text></g><!--link AI to Measure--><g id="link_AI_Measure"><path codeLine="34" d="M430.59,325.39 C436.98,313.07 448.11,295.46 463.18,286 C537.78,239.21 645.81,234.67 698.29,235.6 " fill="transparent" id="AI-Measure" style="stroke:#181818;stroke-width:1;"/><polygon fill="#000000" points="506.9205,227.6053,497.4103,227.6952,499.2795,233.268,506.9205,227.6053" style="stroke:#000000;stroke-width:1;"/><text fill="#000000" font-family="sans-serif" font-size="13" lengthAdjust="spacing" textLength="89.8003" x="511.18" y="234.1084">ai:hasMeasure</text></g><!--reverse link AI to Model--><g id="link_AI_Model"><path codeLine="35" d="M424.3745,307.4718 C424.7445,281.3018 429.36,241.78 463.18,213 C499.59,182.03 648.28,176.93 706.08,176.13 " fill="transparent" id="AI-backto-Model" style="stroke:#181818;stroke-width:1;"/><polygon fill="transparent" points="424.12,325.47,430.3739,307.5566,418.3751,307.387,424.12,325.47" style="stroke:#181818;stroke-width:1;"/></g><!--reverse link AI to AISystem--><g id="link_AI_AISystem"><path codeLine="36" d="M450.8814,346.3554 C458.6914,348.4754 452.89,346.61 463.18,348 C546.32,359.25 645.3,360.08 695.86,359.61 " fill="transparent" id="AI-backto-AISystem" style="stroke:#181818;stroke-width:1;"/><polygon fill="transparent" points="433.51,341.64,449.3096,352.1459,452.4532,340.5649,433.51,341.64" style="stroke:#181818;stroke-width:1;"/></g><!--link AI to Risk--><g id="link_AI_Risk"><path codeLine="37" d="M423.6,325.49 C422.76,296.04 425.13,225.6 463.18,187 C499.04,150.63 660.12,124.85 712.62,117.29 " fill="transparent" id="AI-Risk" style="stroke:#181818;stroke-width:1;"/><polygon fill="#000000" points="513.237,119.1028,504.18,122.005,507.6156,126.7743,513.237,119.1028" style="stroke:#000000;stroke-width:1;"/><text fill="#000000" font-family="sans-serif" font-size="13" lengthAdjust="spacing" textLength="75.2832" x="518.18" y="126.9384">dpv:hasRisk</text></g><!--link AI to Technique--><g id="link_AI_Technique"><path codeLine="38" d="M424.63,325.35 C425.88,280.2 432.27,136.69 463.18,105 C523.44,43.23 634,43.81 691.79,49.09 " fill="transparent" id="AI-Technique" style="stroke:#181818;stroke-width:1;"/><polygon fill="#000000" points="499.1558,35.061,490.7553,39.52,494.9806,43.6061,499.1558,35.061" style="stroke:#000000;stroke-width:1;"/><text fill="#000000" font-family="sans-serif" font-size="13" lengthAdjust="spacing" textLength="102.4321" x="504.68" y="43.5684">ai:hasTechnique</text></g><!--SRC=[RL71JiKW4Bpp5HZFpmzuCKsCNdfeOjxJ3q1OsysZK0iqQTH_5zfIeB6dpkpipkvmXufB9u0QEqju62HJrlMIIFYqr6ewOjjPAd04Rb4hGhXanj2t3bLBxmtA2KP21iPlh0KgXeb-4-g_JGQyKrhgTYQ_IMKzMyXUHpsXyUCRi9qMMUL5SzU3icmnJtojB2W1ujt0ltPNt-5CRigmi7og2t2TZOK-evxPm3vGefqpiW5ct9WxDbg0pF05pUsu47uv29kicPrEtewUGrHdD7K_I0W7XbDyELr0AvA1nv-bZ_XM_tF8oqyBaPuxPewLQkieSipq9H_LMRgPDcUZyfZuTfXNRpWAKvvUmZ0eCYggje1tISHBVSbW3JoY_U7Mzf1-sc11nQBX9VRPYQd87m00]--></g></svg>