<svg xmlns="http://www.w3.org/2000/svg" xmlns:xlink="http://www.w3.org/1999/xlink" contentStyleType="text/css" data-diagram-type="CLASS" height="443px" preserveAspectRatio="none" style="width:957px;height:443px;background:#FFFFFF;" version="1.1" viewBox="0 0 957 443" width="957px" zoomAndPan="magnify"><defs/><g><!--cluster dpv--><g id="cluster_dpv"><path d="M8.5,96.49 L36.3584,96.49 A3.75,3.75 0 0 1 38.8584,98.99 L45.8584,118.9783 L947.5,118.9783 A2.5,2.5 0 0 1 950,121.4783 L950,433.94 A2.5,2.5 0 0 1 947.5,436.44 L8.5,436.44 A2.5,2.5 0 0 1 6,433.94 L6,98.99 A2.5,2.5 0 0 1 8.5,96.49 " fill="transparent" style="stroke:#000000;stroke-width:1.5;"/><line style="stroke:#000000;stroke-width:1.5;" x1="6" x2="45.8584" y1="118.9783" y2="118.9783"/><text fill="#000000" font-family="sans-serif" font-size="14" font-weight="bold" lengthAdjust="spacing" textLength="26.8584" x="10" y="112.0252">dpv</text></g><!--class DataSource--><g id="elem_DataSource"><rect codeLine="6" fill="#F1F1F1" height="26.4883" id="DataSource" rx="2.5" ry="2.5" style="stroke:#181818;stroke-width:0.5;" width="82.7129" x="472.64" y="131.49"/><text fill="#000000" font-family="sans-serif" font-size="14" lengthAdjust="spacing" textLength="76.7129" x="475.64" y="150.0252">DataSource</text></g><!--class DataSubjectDataSource--><g id="elem_DataSubjectDataSource"><rect codeLine="7" fill="#F1F1F1" height="26.4883" id="DataSubjectDataSource" rx="2.5" ry="2.5" style="stroke:#181818;stroke-width:0.5;" width="163.4043" x="22.3" y="218.98"/><text fill="#000000" font-family="sans-serif" font-size="14" lengthAdjust="spacing" textLength="157.4043" x="25.3" y="237.5152">DataSubjectDataSource</text></g><!--class DataPublishedByDataSubject--><g id="elem_DataPublishedByDataSubject"><rect codeLine="8" fill="#F1F1F1" height="26.4883" id="DataPublishedByDataSubject" rx="2.5" ry="2.5" style="stroke:#181818;stroke-width:0.5;" width="199.0127" x="22.49" y="306.46"/><text fill="#000000" font-family="sans-serif" font-size="14" lengthAdjust="spacing" textLength="193.0127" x="25.49" y="324.9952">DataPublishedByDataSubject</text></g><!--class DataControllerDataSource--><g id="elem_DataControllerDataSource"><rect codeLine="9" fill="#F1F1F1" height="26.4883" id="DataControllerDataSource" rx="2.5" ry="2.5" style="stroke:#181818;stroke-width:0.5;" width="182.0596" x="220.97" y="218.98"/><text fill="#000000" font-family="sans-serif" font-size="14" lengthAdjust="spacing" textLength="176.0596" x="223.97" y="237.5152">DataControllerDataSource</text></g><!--class ThirdPartyDataSource--><g id="elem_ThirdPartyDataSource"><rect codeLine="10" fill="#F1F1F1" height="26.4883" id="ThirdPartyDataSource" rx="2.5" ry="2.5" style="stroke:#181818;stroke-width:0.5;" width="152.5898" x="437.71" y="218.98"/><text fill="#000000" font-family="sans-serif" font-size="14" lengthAdjust="spacing" textLength="146.5898" x="440.71" y="237.5152">ThirdPartyDataSource</text></g><!--class PublicDataSource--><g id="elem_PublicDataSource"><rect codeLine="11" fill="#F1F1F1" height="26.4883" id="PublicDataSource" rx="2.5" ry="2.5" style="stroke:#181818;stroke-width:0.5;" width="123.2158" x="625.39" y="218.98"/><text fill="#000000" font-family="sans-serif" font-size="14" lengthAdjust="spacing" textLength="117.2158" x="628.39" y="237.5152">PublicDataSource</text></g><!--class NonPublicDataSource--><g id="elem_NonPublicDataSource"><rect codeLine="12" fill="#F1F1F1" height="26.4883" id="NonPublicDataSource" rx="2.5" ry="2.5" style="stroke:#181818;stroke-width:0.5;" width="150.8467" x="783.58" y="218.98"/><text fill="#000000" font-family="sans-serif" font-size="14" lengthAdjust="spacing" textLength="144.8467" x="786.58" y="237.5152">NonPublicDataSource</text></g><!--class DataSubject--><g id="elem_DataSubject"><rect codeLine="13" fill="#F1F1F1" height="26.4883" id="DataSubject" rx="2.5" ry="2.5" style="stroke:#181818;stroke-width:0.5;" width="86.6914" x="146.65" y="393.95"/><text fill="#000000" font-family="sans-serif" font-size="14" lengthAdjust="spacing" textLength="80.6914" x="149.65" y="412.4852">DataSubject</text></g><!--class DataController--><g id="elem_DataController"><rect codeLine="14" fill="#F1F1F1" height="26.4883" id="DataController" rx="2.5" ry="2.5" style="stroke:#181818;stroke-width:0.5;" width="105.3467" x="294.33" y="306.46"/><text fill="#000000" font-family="sans-serif" font-size="14" lengthAdjust="spacing" textLength="99.3467" x="297.33" y="324.9952">DataController</text></g><!--class ThirdParty--><g id="elem_ThirdParty"><rect codeLine="15" fill="#F1F1F1" height="26.4883" id="ThirdParty" rx="2.5" ry="2.5" style="stroke:#181818;stroke-width:0.5;" width="75.877" x="476.06" y="306.46"/><text fill="#000000" font-family="sans-serif" font-size="14" lengthAdjust="spacing" textLength="69.877" x="479.06" y="324.9952">ThirdParty</text></g><!--class Thing--><g id="elem_Thing"><rect codeLine="3" fill="#C0C0C0" height="26.4883" id="Thing" rx="2.5" ry="2.5" style="stroke:#181818;stroke-width:0.5;" width="45.0059" x="491.5" y="7"/><text fill="#000000" font-family="sans-serif" font-size="14" lengthAdjust="spacing" textLength="39.0059" x="494.5" y="25.5352">Thing</text></g><!--link Thing to DataSource--><g id="link_Thing_DataSource"><path codeLine="18" d="M514,33.89 C514,57.48 514,107.93 514,131.34 " fill="transparent" id="Thing-DataSource" style="stroke:#181818;stroke-width:1;"/><polygon fill="#000000" points="519,77.1453,521.9389,68.1002,516.0611,68.1002,519,77.1453" style="stroke:#000000;stroke-width:1;"/><text fill="#000000" font-family="sans-serif" font-size="13" lengthAdjust="spacing" textLength="93.1074" x="528" y="77.0584">hasDataSource</text></g><!--reverse link DataSource to DataSubjectDataSource--><g id="link_DataSource_DataSubjectDataSource"><path codeLine="20" d="M454.8088,158.0731 C382.1288,173.2231 249.3,200.92 164.87,218.53 " fill="transparent" id="DataSource-backto-DataSubjectDataSource" style="stroke:#181818;stroke-width:1;"/><polygon fill="transparent" points="472.43,154.4,453.5844,152.1994,456.0331,163.9469,472.43,154.4" style="stroke:#181818;stroke-width:1;"/></g><!--reverse link DataSubjectDataSource to DataPublishedByDataSubject--><g id="link_DataSubjectDataSource_DataPublishedByDataSubject"><path codeLine="21" d="M110.3638,263.4448 C113.7638,279.6148 115.92,289.85 119.33,306.04 " fill="transparent" id="DataSubjectDataSource-backto-DataPublishedByDataSubject" style="stroke:#181818;stroke-width:1;"/><polygon fill="transparent" points="106.66,245.83,104.4922,264.6794,116.2354,262.2102,106.66,245.83" style="stroke:#181818;stroke-width:1;"/></g><!--reverse link DataSource to DataControllerDataSource--><g id="link_DataSource_DataControllerDataSource"><path codeLine="22" d="M467.613,165.3645 C429.423,181.5245 380.18,202.37 341.93,218.55 " fill="transparent" id="DataSource-backto-DataControllerDataSource" style="stroke:#181818;stroke-width:1;"/><polygon fill="transparent" points="484.19,158.35,465.2748,159.8388,469.9512,170.8902,484.19,158.35" style="stroke:#181818;stroke-width:1;"/></g><!--reverse link DataSource to ThirdPartyDataSource--><g id="link_DataSource_ThirdPartyDataSource"><path codeLine="23" d="M514,176.35 C514,192.51 514,202.37 514,218.55 " fill="transparent" id="DataSource-backto-ThirdPartyDataSource" style="stroke:#181818;stroke-width:1;"/><polygon fill="transparent" points="514,158.35,508,176.35,520,176.35,514,158.35" style="stroke:#181818;stroke-width:1;"/></g><!--reverse link DataSource to PublicDataSource--><g id="link_DataSource_PublicDataSource"><path codeLine="24" d="M555.668,166.3228 C588.378,182.4828 628.61,202.37 661.37,218.55 " fill="transparent" id="DataSource-backto-PublicDataSource" style="stroke:#181818;stroke-width:1;"/><polygon fill="transparent" points="539.53,158.35,553.0104,171.7021,558.3256,160.9435,539.53,158.35" style="stroke:#181818;stroke-width:1;"/></g><!--reverse link DataSource to NonPublicDataSource--><g id="link_DataSource_NonPublicDataSource"><path codeLine="25" d="M573.0913,160.3705 C636.3513,176.0505 739.12,201.51 807.7,218.51 " fill="transparent" id="DataSource-backto-NonPublicDataSource" style="stroke:#181818;stroke-width:1;"/><polygon fill="transparent" points="555.62,156.04,571.6478,166.1943,574.5348,154.5468,555.62,156.04" style="stroke:#181818;stroke-width:1;"/></g><!--link DataSubjectDataSource to DataSubject--><g id="link_DataSubjectDataSource_DataSubject"><path codeLine="27" d="M152.95,245.87 C183.51,256.58 220.45,275.3 239,306.46 C256.96,336.63 224.61,374.31 204.42,393.58 " fill="transparent" id="DataSubjectDataSource-DataSubject" style="stroke:#181818;stroke-width:1;stroke-dasharray:7.0,7.0;"/></g><!--link DataPublishedByDataSubject to DataSubject--><g id="link_DataPublishedByDataSubject_DataSubject"><path codeLine="28" d="M132.03,333.32 C144.89,349.48 167.05,377.34 179.93,393.53 " fill="transparent" id="DataPublishedByDataSubject-DataSubject" style="stroke:#181818;stroke-width:1;stroke-dasharray:7.0,7.0;"/></g><!--link DataControllerDataSource to DataController--><g id="link_DataControllerDataSource_DataController"><path codeLine="29" d="M317.16,245.83 C323.78,262 335.19,289.85 341.81,306.04 " fill="transparent" id="DataControllerDataSource-DataController" style="stroke:#181818;stroke-width:1;stroke-dasharray:7.0,7.0;"/></g><!--link ThirdPartyDataSource to ThirdParty--><g id="link_ThirdPartyDataSource_ThirdParty"><path codeLine="30" d="M514,245.83 C514,262 514,289.85 514,306.04 " fill="transparent" id="ThirdPartyDataSource-ThirdParty" style="stroke:#181818;stroke-width:1;stroke-dasharray:7.0,7.0;"/></g><!--SRC=[ZP5D2i8m48NtSueHr-q1H5oeQn7q0caIR7LCItuAHRsxrL8CSIfcbtbValTUPfMH59H6vplIUKF2-70b04d2EJoMbJdXt5NKQWlG27aH9usgQV46sAy1smel3dMmKgV3K9orz9FwFXHKkLAhTHVX2RIfZRSraRRiFRr7g_R2-ewLtqz8LjhLveVwZo7M1Zm0XkAoBAe65rWA5-rN0D5kUH_fhyxOwUV0H8aSobQPWcoXAVHLN0fmvKuaoNDCZVEPE9ABD7BHHt6XNjXd_WG0]--></g></svg>