<svg xmlns="http://www.w3.org/2000/svg" xmlns:xlink="http://www.w3.org/1999/xlink" contentStyleType="text/css" data-diagram-type="MINDMAP" height="304px" preserveAspectRatio="none" style="width:689px;height:304px;background:#FFFFFF;" version="1.1" viewBox="0 0 689 304" width="689px" zoomAndPan="magnify"><defs/><g><rect fill="#F1F1F1" height="36.4883" rx="12.5" ry="12.5" style="stroke:#181818;stroke-width:1.5;" width="107.2402" x="326.8184" y="132.9766"/><text fill="#000000" font-family="sans-serif" font-size="14" lengthAdjust="spacing" textLength="87.2402" x="336.8184" y="156.5117">Organisation</text><rect fill="#F1F1F1" height="36.4883" rx="12.5" ry="12.5" style="stroke:#181818;stroke-width:1.5;" width="155.1191" x="484.0586" y="48.2441"/><text fill="#000000" font-family="sans-serif" font-size="14" lengthAdjust="spacing" textLength="135.1191" x="494.0586" y="71.7793">IndustryConsortium</text><path d="M434.0586,151.2207 L444.0586,151.2207 C459.0586,151.2207 459.0586,66.4883 474.0586,66.4883 L484.0586,66.4883 " fill="transparent" style="stroke:#181818;stroke-width:1;"/><rect fill="#F1F1F1" height="36.4883" rx="12.5" ry="12.5" style="stroke:#181818;stroke-width:1.5;" width="193.4961" x="484.0586" y="104.7324"/><text fill="#000000" font-family="sans-serif" font-size="14" lengthAdjust="spacing" textLength="173.4961" x="494.0586" y="128.2676">InternationalOrganisation</text><path d="M434.0586,151.2207 L444.0586,151.2207 C459.0586,151.2207 459.0586,122.9766 474.0586,122.9766 L484.0586,122.9766 " fill="transparent" style="stroke:#181818;stroke-width:1;"/><rect fill="#F1F1F1" height="36.4883" rx="12.5" ry="12.5" style="stroke:#181818;stroke-width:1.5;" width="171.3682" x="484.0586" y="161.2207"/><text fill="#000000" font-family="sans-serif" font-size="14" lengthAdjust="spacing" textLength="151.3682" x="494.0586" y="184.7559">NonProfitOrganisation</text><path d="M434.0586,151.2207 L444.0586,151.2207 C459.0586,151.2207 459.0586,179.4648 474.0586,179.4648 L484.0586,179.4648 " fill="transparent" style="stroke:#181818;stroke-width:1;"/><rect fill="#F1F1F1" height="36.4883" rx="12.5" ry="12.5" style="stroke:#181818;stroke-width:1.5;" width="165.5713" x="484.0586" y="217.709"/><text fill="#000000" font-family="sans-serif" font-size="14" lengthAdjust="spacing" textLength="145.5713" x="494.0586" y="241.2441">ForProfitOrganisation</text><path d="M434.0586,151.2207 L444.0586,151.2207 C459.0586,151.2207 459.0586,235.9531 474.0586,235.9531 L484.0586,235.9531 " fill="transparent" style="stroke:#181818;stroke-width:1;"/><rect fill="#F1F1F1" height="36.4883" rx="12.5" ry="12.5" style="stroke:#181818;stroke-width:1.5;" width="201.9932" x="74.8252" y="20"/><text fill="#000000" font-family="sans-serif" font-size="14" lengthAdjust="spacing" textLength="181.9932" x="84.8252" y="43.5352">GovernmentalOrganisation</text><path d="M326.8184,151.2207 L316.8184,151.2207 C301.8184,151.2207 301.8184,38.2441 286.8184,38.2441 L276.8184,38.2441 " fill="transparent" style="stroke:#181818;stroke-width:1;"/><rect fill="#F1F1F1" height="36.4883" rx="12.5" ry="12.5" style="stroke:#181818;stroke-width:1.5;" width="229.624" x="47.1943" y="76.4883"/><text fill="#000000" font-family="sans-serif" font-size="14" lengthAdjust="spacing" textLength="209.624" x="57.1943" y="100.0234">NonGovernmentalOrganisation</text><path d="M326.8184,151.2207 L316.8184,151.2207 C301.8184,151.2207 301.8184,94.7324 286.8184,94.7324 L276.8184,94.7324 " fill="transparent" style="stroke:#181818;stroke-width:1;"/><rect fill="#F1F1F1" height="36.4883" rx="12.5" ry="12.5" style="stroke:#181818;stroke-width:1.5;" width="136.8057" x="140.0127" y="132.9766"/><text fill="#000000" font-family="sans-serif" font-size="14" lengthAdjust="spacing" textLength="116.8057" x="150.0127" y="156.5117">ParentLegalEntity</text><path d="M326.8184,151.2207 L316.8184,151.2207 C301.8184,151.2207 301.8184,151.2207 286.8184,151.2207 L276.8184,151.2207 " fill="transparent" style="stroke:#181818;stroke-width:1;"/><rect fill="#F1F1F1" height="36.4883" rx="12.5" ry="12.5" style="stroke:#181818;stroke-width:1.5;" width="196.9619" x="79.8564" y="189.4648"/><text fill="#000000" font-family="sans-serif" font-size="14" lengthAdjust="spacing" textLength="176.9619" x="89.8564" y="213">SubsidiaryLegalEntityclass</text><path d="M326.8184,151.2207 L316.8184,151.2207 C301.8184,151.2207 301.8184,207.709 286.8184,207.709 L276.8184,207.709 " fill="transparent" style="stroke:#181818;stroke-width:1;"/><rect fill="#F1F1F1" height="36.4883" rx="12.5" ry="12.5" style="stroke:#181818;stroke-width:1.5;" width="266.8184" x="10" y="245.9531"/><text fill="#000000" font-family="sans-serif" font-size="14" lengthAdjust="spacing" textLength="246.8184" x="20" y="269.4883">AcademicScientificOrganisationclass</text><path d="M326.8184,151.2207 L316.8184,151.2207 C301.8184,151.2207 301.8184,264.1973 286.8184,264.1973 L276.8184,264.1973 " fill="transparent" style="stroke:#181818;stroke-width:1;"/><!--SRC=[xLBDJW8n4BxtASORX40G1SsUK4GYWX81xsDtM2VfJab_IFRjxO949SOdyDP-VpFzqg4Fw4B9afUuLMSisiISm8VAK6ThK48iZL8jU7O52diCR4MrMl0WUVJ1LIChthh0iJoWWPpiHMXEBKzM5ivkE9mIzzRzGhJRCB6x55UIX9EqnAMql-W5keJFg40pbi2Xgi5bVFESCxhg6w4DUb-pDnfpAbalDIShRrX_3pt8r91ILPzrgU6FzjuvDRTXCha_d4iAx_PuqUoqePJmN-RlPIxgtxQUpo3juPC6pZkzRg_VwJPMaM2A0jqhEB_ABlhPnG0cynNKT5Cr9eiPU1kT9iWvrSXliPxHL5FS8Rp4DBwa39wt9DExnoC0Ozcni_iNg-dh_4imk6pVSe0bkRG9lCxL7Mqmcf0SskOiHGRhrNtxMirGYeX5oYPH8vjoNPN1vFO3]--></g></svg>