<svg xmlns="http://www.w3.org/2000/svg" xmlns:xlink="http://www.w3.org/1999/xlink" contentStyleType="text/css" data-diagram-type="WBS" height="718px" preserveAspectRatio="none" style="width:891px;height:718px;background:#FFFFFF;" version="1.1" viewBox="0 0 891 718" width="891px" zoomAndPan="magnify"><defs/><g><line style="stroke:#181818;stroke-width:1.5;" x1="60.7988" x2="60.7988" y1="64.1328" y2="84.1328"/><rect fill="#F1F1F1" height="34.1328" style="stroke:#181818;stroke-width:1.5;" width="101.5977" x="10" y="84.1328"/><text fill="#000000" font-family="sans-serif" font-size="12" lengthAdjust="spacing" textLength="81.5977" x="20" y="105.7344">NaturalPerson</text><line style="stroke:#181818;stroke-width:1.5;" x1="60.7988" x2="70.7988" y1="150.332" y2="150.332"/><rect fill="#F1F1F1" height="34.1328" style="stroke:#181818;stroke-width:1.5;" width="89.1641" x="70.7988" y="133.2656"/><text fill="#000000" font-family="sans-serif" font-size="12" lengthAdjust="spacing" textLength="69.1641" x="80.7988" y="154.8672">DataSubject</text><line style="stroke:#181818;stroke-width:1.5;" x1="115.3809" x2="125.3809" y1="199.4648" y2="199.4648"/><rect fill="#F1F1F1" height="34.1328" style="stroke:#181818;stroke-width:1.5;" width="51.2363" x="125.3809" y="182.3984"/><text fill="#000000" font-family="sans-serif" font-size="12" lengthAdjust="spacing" textLength="31.2363" x="135.3809" y="204">Adult</text><line style="stroke:#181818;stroke-width:1.5;" x1="115.3809" x2="125.3809" y1="248.5977" y2="248.5977"/><rect fill="#F1F1F1" height="34.1328" style="stroke:#181818;stroke-width:1.5;" width="50.2402" x="125.3809" y="231.5313"/><text fill="#000000" font-family="sans-serif" font-size="12" lengthAdjust="spacing" textLength="30.2402" x="135.3809" y="253.1328">Child</text><line style="stroke:#181818;stroke-width:1.5;" x1="115.3809" x2="125.3809" y1="297.7305" y2="297.7305"/><rect fill="#F1F1F1" height="34.1328" style="stroke:#181818;stroke-width:1.5;" width="139.6895" x="125.3809" y="280.6641"/><text fill="#000000" font-family="sans-serif" font-size="12" lengthAdjust="spacing" textLength="119.6895" x="135.3809" y="302.2656">ParentOfDataSubject</text><line style="stroke:#181818;stroke-width:1.5;" x1="115.3809" x2="125.3809" y1="346.8633" y2="346.8633"/><rect fill="#F1F1F1" height="34.1328" style="stroke:#181818;stroke-width:1.5;" width="151.3027" x="125.3809" y="329.7969"/><text fill="#000000" font-family="sans-serif" font-size="12" lengthAdjust="spacing" textLength="131.3027" x="135.3809" y="351.3984">VulnerableDataSubject</text><line style="stroke:#181818;stroke-width:1.5;" x1="115.3809" x2="115.3809" y1="167.3984" y2="346.8633"/><line style="stroke:#181818;stroke-width:1.5;" x1="60.7988" x2="70.7988" y1="395.9961" y2="395.9961"/><rect fill="#F1F1F1" height="34.1328" style="stroke:#181818;stroke-width:1.5;" width="105.6406" x="70.7988" y="378.9297"/><text fill="#000000" font-family="sans-serif" font-size="12" lengthAdjust="spacing" textLength="85.6406" x="80.7988" y="400.5313">Representative</text><line style="stroke:#181818;stroke-width:1.5;" x1="60.7988" x2="60.7988" y1="118.2656" y2="395.9961"/><line style="stroke:#181818;stroke-width:1.5;" x1="338.3477" x2="338.3477" y1="64.1328" y2="84.1328"/><rect fill="#F1F1F1" height="34.1328" style="stroke:#181818;stroke-width:1.5;" width="83.3281" x="296.6836" y="84.1328"/><text fill="#000000" font-family="sans-serif" font-size="12" lengthAdjust="spacing" textLength="63.3281" x="306.6836" y="105.7344">LegalEntity</text><line style="stroke:#181818;stroke-width:1.5;" x1="338.3477" x2="348.3477" y1="150.332" y2="150.332"/><rect fill="#F1F1F1" height="34.1328" style="stroke:#181818;stroke-width:1.5;" width="105.1543" x="348.3477" y="133.2656"/><text fill="#000000" font-family="sans-serif" font-size="12" lengthAdjust="spacing" textLength="85.1543" x="358.3477" y="154.8672">DataController</text><line style="stroke:#181818;stroke-width:1.5;" x1="338.3477" x2="348.3477" y1="199.4648" y2="199.4648"/><rect fill="#F1F1F1" height="34.1328" style="stroke:#181818;stroke-width:1.5;" width="137.7793" x="348.3477" y="182.3984"/><text fill="#000000" font-family="sans-serif" font-size="12" lengthAdjust="spacing" textLength="117.7793" x="358.3477" y="204">JointDataControllers</text><line style="stroke:#181818;stroke-width:1.5;" x1="338.3477" x2="348.3477" y1="248.5977" y2="248.5977"/><rect fill="#F1F1F1" height="34.1328" style="stroke:#181818;stroke-width:1.5;" width="96.5117" x="348.3477" y="231.5313"/><text fill="#000000" font-family="sans-serif" font-size="12" lengthAdjust="spacing" textLength="76.5117" x="358.3477" y="253.1328">DataExporter</text><line style="stroke:#181818;stroke-width:1.5;" x1="338.3477" x2="348.3477" y1="297.7305" y2="297.7305"/><rect fill="#F1F1F1" height="34.1328" style="stroke:#181818;stroke-width:1.5;" width="73.5313" x="348.3477" y="280.6641"/><text fill="#000000" font-family="sans-serif" font-size="12" lengthAdjust="spacing" textLength="53.5313" x="358.3477" y="302.2656">Recipient</text><line style="stroke:#181818;stroke-width:1.5;" x1="385.1133" x2="395.1133" y1="346.8633" y2="346.8633"/><rect fill="#F1F1F1" height="34.1328" style="stroke:#181818;stroke-width:1.5;" width="97.3086" x="395.1133" y="329.7969"/><text fill="#000000" font-family="sans-serif" font-size="12" lengthAdjust="spacing" textLength="77.3086" x="405.1133" y="351.3984">DataImporter</text><line style="stroke:#181818;stroke-width:1.5;" x1="385.1133" x2="395.1133" y1="395.9961" y2="395.9961"/><rect fill="#F1F1F1" height="34.1328" style="stroke:#181818;stroke-width:1.5;" width="102.9922" x="395.1133" y="378.9297"/><text fill="#000000" font-family="sans-serif" font-size="12" lengthAdjust="spacing" textLength="82.9922" x="405.1133" y="400.5313">DataProcessor</text><line style="stroke:#181818;stroke-width:1.5;" x1="385.1133" x2="395.1133" y1="445.1289" y2="445.1289"/><rect fill="#F1F1F1" height="34.1328" style="stroke:#181818;stroke-width:1.5;" width="79.8945" x="395.1133" y="428.0625"/><text fill="#000000" font-family="sans-serif" font-size="12" lengthAdjust="spacing" textLength="59.8945" x="405.1133" y="449.6641">ThirdParty</text><line style="stroke:#181818;stroke-width:1.5;" x1="385.1133" x2="385.1133" y1="314.7969" y2="445.1289"/><line style="stroke:#181818;stroke-width:1.5;" x1="338.3477" x2="348.3477" y1="494.2617" y2="494.2617"/><rect fill="#F1F1F1" height="34.1328" style="stroke:#181818;stroke-width:1.5;" width="120.0547" x="348.3477" y="477.1953"/><text fill="#000000" font-family="sans-serif" font-size="12" lengthAdjust="spacing" textLength="100.0547" x="358.3477" y="498.7969">ServiceConsumer</text><line style="stroke:#181818;stroke-width:1.5;" x1="338.3477" x2="348.3477" y1="543.3945" y2="543.3945"/><rect fill="#F1F1F1" height="34.1328" style="stroke:#181818;stroke-width:1.5;" width="108.3125" x="348.3477" y="526.3281"/><text fill="#000000" font-family="sans-serif" font-size="12" lengthAdjust="spacing" textLength="88.3125" x="358.3477" y="547.9297">ServiceProvider</text><line style="stroke:#181818;stroke-width:1.5;" x1="338.3477" x2="338.3477" y1="118.2656" y2="543.3945"/><line style="stroke:#181818;stroke-width:1.5;" x1="565.4941" x2="565.4941" y1="64.1328" y2="84.1328"/><rect fill="#F1F1F1" height="34.1328" style="stroke:#181818;stroke-width:1.5;" width="94.7773" x="518.1055" y="84.1328"/><text fill="#000000" font-family="sans-serif" font-size="12" lengthAdjust="spacing" textLength="74.7773" x="528.1055" y="105.7344">Organisation</text><line style="stroke:#181818;stroke-width:1.5;" x1="565.4941" x2="575.4941" y1="150.332" y2="150.332"/><rect fill="#F1F1F1" height="34.1328" style="stroke:#181818;stroke-width:1.5;" width="175.9941" x="575.4941" y="133.2656"/><text fill="#000000" font-family="sans-serif" font-size="12" lengthAdjust="spacing" textLength="155.9941" x="585.4941" y="154.8672">GovernmentalOrganisation</text><line style="stroke:#181818;stroke-width:1.5;" x1="663.4912" x2="673.4912" y1="199.4648" y2="199.4648"/><rect fill="#F1F1F1" height="34.1328" style="stroke:#181818;stroke-width:1.5;" width="74.1699" x="673.4912" y="182.3984"/><text fill="#000000" font-family="sans-serif" font-size="12" lengthAdjust="spacing" textLength="54.1699" x="683.4912" y="204">Authority</text><line style="stroke:#181818;stroke-width:1.5;" x1="710.5762" x2="720.5762" y1="248.5977" y2="248.5977"/><rect fill="#F1F1F1" height="34.1328" style="stroke:#181818;stroke-width:1.5;" width="159.9102" x="720.5762" y="231.5313"/><text fill="#000000" font-family="sans-serif" font-size="12" lengthAdjust="spacing" textLength="139.9102" x="730.5762" y="253.1328">DataProtectionAuthority</text><line style="stroke:#181818;stroke-width:1.5;" x1="710.5762" x2="720.5762" y1="297.7305" y2="297.7305"/><rect fill="#F1F1F1" height="34.1328" style="stroke:#181818;stroke-width:1.5;" width="122.5332" x="720.5762" y="280.6641"/><text fill="#000000" font-family="sans-serif" font-size="12" lengthAdjust="spacing" textLength="102.5332" x="730.5762" y="302.2656">NationalAuthority</text><line style="stroke:#181818;stroke-width:1.5;" x1="710.5762" x2="720.5762" y1="346.8633" y2="346.8633"/><rect fill="#F1F1F1" height="34.1328" style="stroke:#181818;stroke-width:1.5;" width="124.3086" x="720.5762" y="329.7969"/><text fill="#000000" font-family="sans-serif" font-size="12" lengthAdjust="spacing" textLength="104.3086" x="730.5762" y="351.3984">RegionalAuthority</text><line style="stroke:#181818;stroke-width:1.5;" x1="710.5762" x2="720.5762" y1="395.9961" y2="395.9961"/><rect fill="#F1F1F1" height="34.1328" style="stroke:#181818;stroke-width:1.5;" width="155.5332" x="720.5762" y="378.9297"/><text fill="#000000" font-family="sans-serif" font-size="12" lengthAdjust="spacing" textLength="135.5332" x="730.5762" y="400.5313">SupraNationalAuthority</text><line style="stroke:#181818;stroke-width:1.5;" x1="710.5762" x2="710.5762" y1="216.5313" y2="395.9961"/><line style="stroke:#181818;stroke-width:1.5;" x1="663.4912" x2="663.4912" y1="167.3984" y2="199.4648"/><line style="stroke:#181818;stroke-width:1.5;" x1="565.4941" x2="575.4941" y1="445.1289" y2="445.1289"/><rect fill="#F1F1F1" height="34.1328" style="stroke:#181818;stroke-width:1.5;" width="203.082" x="575.4941" y="428.0625"/><text fill="#000000" font-family="sans-serif" font-size="12" lengthAdjust="spacing" textLength="183.082" x="585.4941" y="449.6641">AcademicScientificOrganisation</text><line style="stroke:#181818;stroke-width:1.5;" x1="565.4941" x2="575.4941" y1="494.2617" y2="494.2617"/><rect fill="#F1F1F1" height="34.1328" style="stroke:#181818;stroke-width:1.5;" width="144.7754" x="575.4941" y="477.1953"/><text fill="#000000" font-family="sans-serif" font-size="12" lengthAdjust="spacing" textLength="124.7754" x="585.4941" y="498.7969">ForProfitOrganisation</text><line style="stroke:#181818;stroke-width:1.5;" x1="565.4941" x2="575.4941" y1="543.3945" y2="543.3945"/><rect fill="#F1F1F1" height="34.1328" style="stroke:#181818;stroke-width:1.5;" width="135.8164" x="575.4941" y="526.3281"/><text fill="#000000" font-family="sans-serif" font-size="12" lengthAdjust="spacing" textLength="115.8164" x="585.4941" y="547.9297">IndustryConsortium</text><line style="stroke:#181818;stroke-width:1.5;" x1="565.4941" x2="575.4941" y1="592.5273" y2="592.5273"/><rect fill="#F1F1F1" height="34.1328" style="stroke:#181818;stroke-width:1.5;" width="168.7109" x="575.4941" y="575.4609"/><text fill="#000000" font-family="sans-serif" font-size="12" lengthAdjust="spacing" textLength="148.7109" x="585.4941" y="597.0625">InternationalOrganisation</text><line style="stroke:#181818;stroke-width:1.5;" x1="565.4941" x2="575.4941" y1="641.6602" y2="641.6602"/><rect fill="#F1F1F1" height="34.1328" style="stroke:#181818;stroke-width:1.5;" width="199.6777" x="575.4941" y="624.5938"/><text fill="#000000" font-family="sans-serif" font-size="12" lengthAdjust="spacing" textLength="179.6777" x="585.4941" y="646.1953">NonGovernmentalOrganisation</text><line style="stroke:#181818;stroke-width:1.5;" x1="565.4941" x2="575.4941" y1="690.793" y2="690.793"/><rect fill="#F1F1F1" height="34.1328" style="stroke:#181818;stroke-width:1.5;" width="149.7441" x="575.4941" y="673.7266"/><text fill="#000000" font-family="sans-serif" font-size="12" lengthAdjust="spacing" textLength="129.7441" x="585.4941" y="695.3281">NonProfitOrganisation</text><line style="stroke:#181818;stroke-width:1.5;" x1="565.4941" x2="565.4941" y1="118.2656" y2="690.793"/><line style="stroke:#181818;stroke-width:1.5;" x1="60.7988" x2="565.4941" y1="64.1328" y2="64.1328"/><rect fill="#F1F1F1" height="34.1328" style="stroke:#181818;stroke-width:1.5;" width="52.666" x="286.8135" y="10"/><text fill="#000000" font-family="sans-serif" font-size="12" lengthAdjust="spacing" textLength="32.666" x="296.8135" y="31.6016">Entity</text><line style="stroke:#181818;stroke-width:1.5;" x1="313.1465" x2="313.1465" y1="44.1328" y2="64.1328"/><!--SRC=[xLHDRnen4BtxLqnl2L8GIPeFSIA118No9I2v6- -mkFBQgx6zBV- -i-202gZd7dAptvkFDs_7s_51KlYrzEARjih43C67ZS5cQQGDiJ12DE351Xqsej60iGoHf9aYUMSPQ41F1ZcFov-eGdrlm5CMJJfsrzfak-DK4jemMPs4VqHZaUJIu145Com9FMV9e2kikmynbsOlPjUxwsmWPmpI5XeuRSFVkD_7llmk7OKKEKEbIytbTpfg_gquy3jaIawXzov1YxMcZ4T9_UT8bLR8hNmiKjc4SMAbioq64ygbrPx7I9xrNOLaYteqSqooWJ6i7QKP3pe2-y8nn-nucodDCJx3_2m-ZoN9iqdmf6I6XLPpLTkYLrgTA7zrn59MEfmmRpQBFj2cDeDDrB58CFjfKxkJfB6p__AYvi-q4nsqMRsoehFVtZMR3IkD9ald0dcqpulIf0nomjSoVotp_xhCq_gF-puQ0jVmJC5rywPrSzTiNImYma1QQ3t0zKFxzgvzUm_zqG9g-b9SzAT3y2wIGiWqozRBM9U-50DPIPX57h_0DanAj8FUZq-07qAboMtLYi77w11m__tgMOVjnqU2Zv7euKhoE-0CvJ9jypQyBrwl7iLGsZpAd6kZ5Lt7TMdJXlxp7m00]--></g></svg>