<svg xmlns="http://www.w3.org/2000/svg" xmlns:xlink="http://www.w3.org/1999/xlink" contentStyleType="text/css" data-diagram-type="MINDMAP" height="756px" preserveAspectRatio="none" style="width:1253px;height:756px;background:#FFFFFF;" version="1.1" viewBox="0 0 1253 756" width="1253px" zoomAndPan="magnify"><defs/><g><rect fill="#F1F1F1" height="36.4883" rx="12.5" ry="12.5" style="stroke:#181818;stroke-width:1.5;" width="144.9951" x="584.6426" y="358.9297"/><text fill="#000000" font-family="sans-serif" font-size="14" lengthAdjust="spacing" textLength="120.5654" x="594.6426" y="382.4648">EntityInvolvement</text><rect fill="#F1F1F1" height="36.4883" rx="12.5" ry="12.5" style="stroke:#181818;stroke-width:1.5;" width="181.7246" x="779.6377" y="302.4414"/><text fill="#000000" font-family="sans-serif" font-size="14" lengthAdjust="spacing" textLength="161.7246" x="789.6377" y="325.9766">EntityActiveInvolvement</text><path d="M729.6377,377.1738 L739.6377,377.1738 C754.6377,377.1738 754.6377,320.6855 769.6377,320.6855 L779.6377,320.6855 " fill="transparent" style="stroke:#181818;stroke-width:1;"/><rect fill="#F1F1F1" height="36.4883" rx="12.5" ry="12.5" style="stroke:#181818;stroke-width:1.5;" width="212.3154" x="779.6377" y="358.9297"/><text fill="#000000" font-family="sans-serif" font-size="14" lengthAdjust="spacing" textLength="192.3154" x="789.6377" y="382.4648">EntityPermissiveInvolvement</text><rect fill="#F1F1F1" height="36.4883" rx="12.5" ry="12.5" style="stroke:#181818;stroke-width:1.5;" width="147.873" x="1041.9531" y="20"/><text fill="#000000" font-family="sans-serif" font-size="14" lengthAdjust="spacing" textLength="127.873" x="1051.9531" y="43.5352">OptingInToProcess</text><path d="M991.9531,377.1738 L1001.9531,377.1738 C1016.9531,377.1738 1016.9531,38.2441 1031.9531,38.2441 L1041.9531,38.2441 " fill="transparent" style="stroke:#181818;stroke-width:1;"/><rect fill="#F1F1F1" height="36.4883" rx="12.5" ry="12.5" style="stroke:#181818;stroke-width:1.5;" width="177.4043" x="1041.9531" y="76.4883"/><text fill="#000000" font-family="sans-serif" font-size="14" lengthAdjust="spacing" textLength="157.4043" x="1051.9531" y="100.0234">OptingOutFromProcess</text><path d="M991.9531,377.1738 L1001.9531,377.1738 C1016.9531,377.1738 1016.9531,94.7324 1031.9531,94.7324 L1041.9531,94.7324 " fill="transparent" style="stroke:#181818;stroke-width:1;"/><rect fill="#F1F1F1" height="36.4883" rx="12.5" ry="12.5" style="stroke:#181818;stroke-width:1.5;" width="154.3809" x="1041.9531" y="132.9766"/><text fill="#000000" font-family="sans-serif" font-size="14" lengthAdjust="spacing" textLength="134.3809" x="1051.9531" y="156.5117">ObjectingToProcess</text><path d="M991.9531,377.1738 L1001.9531,377.1738 C1016.9531,377.1738 1016.9531,151.2207 1031.9531,151.2207 L1041.9531,151.2207 " fill="transparent" style="stroke:#181818;stroke-width:1;"/><rect fill="#F1F1F1" height="36.4883" rx="12.5" ry="12.5" style="stroke:#181818;stroke-width:1.5;" width="190.6865" x="1041.9531" y="189.4648"/><text fill="#000000" font-family="sans-serif" font-size="14" lengthAdjust="spacing" textLength="170.6865" x="1051.9531" y="213">WithdrawingFromProcess</text><path d="M991.9531,377.1738 L1001.9531,377.1738 C1016.9531,377.1738 1016.9531,207.709 1031.9531,207.709 L1041.9531,207.709 " fill="transparent" style="stroke:#181818;stroke-width:1;"/><rect fill="#F1F1F1" height="36.4883" rx="12.5" ry="12.5" style="stroke:#181818;stroke-width:1.5;" width="152.1934" x="1041.9531" y="245.9531"/><text fill="#000000" font-family="sans-serif" font-size="14" lengthAdjust="spacing" textLength="132.1934" x="1051.9531" y="269.4883">ChallengingProcess</text><path d="M991.9531,377.1738 L1001.9531,377.1738 C1016.9531,377.1738 1016.9531,264.1973 1031.9531,264.1973 L1041.9531,264.1973 " fill="transparent" style="stroke:#181818;stroke-width:1;"/><rect fill="#F1F1F1" height="36.4883" rx="12.5" ry="12.5" style="stroke:#181818;stroke-width:1.5;" width="199.7305" x="1041.9531" y="302.4414"/><text fill="#000000" font-family="sans-serif" font-size="14" lengthAdjust="spacing" textLength="179.7305" x="1051.9531" y="325.9766">ChallengingProcessOutput</text><path d="M991.9531,377.1738 L1001.9531,377.1738 C1016.9531,377.1738 1016.9531,320.6855 1031.9531,320.6855 L1041.9531,320.6855 " fill="transparent" style="stroke:#181818;stroke-width:1;"/><rect fill="#F1F1F1" height="36.4883" rx="12.5" ry="12.5" style="stroke:#181818;stroke-width:1.5;" width="142.7256" x="1041.9531" y="358.9297"/><text fill="#000000" font-family="sans-serif" font-size="14" lengthAdjust="spacing" textLength="122.7256" x="1051.9531" y="382.4648">CorrectingProcess</text><path d="M991.9531,377.1738 L1001.9531,377.1738 C1016.9531,377.1738 1016.9531,377.1738 1031.9531,377.1738 L1041.9531,377.1738 " fill="transparent" style="stroke:#181818;stroke-width:1;"/><rect fill="#F1F1F1" height="36.4883" rx="12.5" ry="12.5" style="stroke:#181818;stroke-width:1.5;" width="190.2627" x="1041.9531" y="415.418"/><text fill="#000000" font-family="sans-serif" font-size="14" lengthAdjust="spacing" textLength="170.2627" x="1051.9531" y="438.9531">CorrectingProcessOutput</text><path d="M991.9531,377.1738 L1001.9531,377.1738 C1016.9531,377.1738 1016.9531,433.6621 1031.9531,433.6621 L1041.9531,433.6621 " fill="transparent" style="stroke:#181818;stroke-width:1;"/><rect fill="#F1F1F1" height="36.4883" rx="12.5" ry="12.5" style="stroke:#181818;stroke-width:1.5;" width="182.5654" x="1041.9531" y="471.9063"/><text fill="#000000" font-family="sans-serif" font-size="14" lengthAdjust="spacing" textLength="162.5654" x="1051.9531" y="495.4414">ReversingProcessEffects</text><path d="M991.9531,377.1738 L1001.9531,377.1738 C1016.9531,377.1738 1016.9531,490.1504 1031.9531,490.1504 L1041.9531,490.1504 " fill="transparent" style="stroke:#181818;stroke-width:1;"/><rect fill="#F1F1F1" height="36.4883" rx="12.5" ry="12.5" style="stroke:#181818;stroke-width:1.5;" width="184.876" x="1041.9531" y="528.3945"/><text fill="#000000" font-family="sans-serif" font-size="14" lengthAdjust="spacing" textLength="164.876" x="1051.9531" y="551.9297">ReversingProcessOutput</text><path d="M991.9531,377.1738 L1001.9531,377.1738 C1016.9531,377.1738 1016.9531,546.6387 1031.9531,546.6387 L1041.9531,546.6387 " fill="transparent" style="stroke:#181818;stroke-width:1;"/><rect fill="#F1F1F1" height="36.4883" rx="12.5" ry="12.5" style="stroke:#181818;stroke-width:1.5;" width="187.6514" x="1041.9531" y="584.8828"/><text fill="#000000" font-family="sans-serif" font-size="14" lengthAdjust="spacing" textLength="167.6514" x="1051.9531" y="608.418">ChallengingProcessInput</text><path d="M991.9531,377.1738 L1001.9531,377.1738 C1016.9531,377.1738 1016.9531,603.127 1031.9531,603.127 L1041.9531,603.127 " fill="transparent" style="stroke:#181818;stroke-width:1;"/><rect fill="#F1F1F1" height="36.4883" rx="12.5" ry="12.5" style="stroke:#181818;stroke-width:1.5;" width="178.1836" x="1041.9531" y="641.3711"/><text fill="#000000" font-family="sans-serif" font-size="14" lengthAdjust="spacing" textLength="158.1836" x="1051.9531" y="664.9063">CorrectingProcessInput</text><path d="M991.9531,377.1738 L1001.9531,377.1738 C1016.9531,377.1738 1016.9531,659.6152 1031.9531,659.6152 L1041.9531,659.6152 " fill="transparent" style="stroke:#181818;stroke-width:1;"/><rect fill="#F1F1F1" height="36.4883" rx="12.5" ry="12.5" style="stroke:#181818;stroke-width:1.5;" width="172.7969" x="1041.9531" y="697.8594"/><text fill="#000000" font-family="sans-serif" font-size="14" lengthAdjust="spacing" textLength="152.7969" x="1051.9531" y="721.3945">ReversingProcessInput</text><path d="M991.9531,377.1738 L1001.9531,377.1738 C1016.9531,377.1738 1016.9531,716.1035 1031.9531,716.1035 L1041.9531,716.1035 " fill="transparent" style="stroke:#181818;stroke-width:1;"/><path d="M729.6377,377.1738 L739.6377,377.1738 C754.6377,377.1738 754.6377,377.1738 769.6377,377.1738 L779.6377,377.1738 " fill="transparent" style="stroke:#181818;stroke-width:1;"/><rect fill="#F1F1F1" height="36.4883" rx="12.5" ry="12.5" style="stroke:#181818;stroke-width:1.5;" width="189.4014" x="345.2412" y="245.9531"/><text fill="#000000" font-family="sans-serif" font-size="14" lengthAdjust="spacing" textLength="169.4014" x="355.2412" y="269.4883">EntityPassiveInvolvement</text><path d="M584.6426,377.1738 L574.6426,377.1738 C559.6426,377.1738 559.6426,264.1973 544.6426,264.1973 L534.6426,264.1973 " fill="transparent" style="stroke:#181818;stroke-width:1;"/><rect fill="#F1F1F1" height="36.4883" rx="12.5" ry="12.5" style="stroke:#181818;stroke-width:1.5;" width="168.1963" x="366.4463" y="302.4414"/><text fill="#000000" font-family="sans-serif" font-size="14" lengthAdjust="spacing" textLength="148.1963" x="376.4463" y="325.9766">EntityNonInvolvement</text><path d="M584.6426,377.1738 L574.6426,377.1738 C559.6426,377.1738 559.6426,320.6855 544.6426,320.6855 L534.6426,320.6855 " fill="transparent" style="stroke:#181818;stroke-width:1;"/><rect fill="#F1F1F1" height="36.4883" rx="12.5" ry="12.5" style="stroke:#181818;stroke-width:1.5;" width="239.9463" x="294.6963" y="358.9297"/><text fill="#000000" font-family="sans-serif" font-size="14" lengthAdjust="spacing" textLength="219.9463" x="304.6963" y="382.4648">EntityNonPermissiveInvolvement</text><rect fill="#F1F1F1" height="36.4883" rx="12.5" ry="12.5" style="stroke:#181818;stroke-width:1.5;" width="175.0391" x="69.6572" y="20"/><text fill="#000000" font-family="sans-serif" font-size="14" lengthAdjust="spacing" textLength="155.0391" x="79.6572" y="43.5352">CannotOptInToProcess</text><path d="M294.6963,377.1738 L284.6963,377.1738 C269.6963,377.1738 269.6963,38.2441 254.6963,38.2441 L244.6963,38.2441 " fill="transparent" style="stroke:#181818;stroke-width:1;"/><rect fill="#F1F1F1" height="36.4883" rx="12.5" ry="12.5" style="stroke:#181818;stroke-width:1.5;" width="204.5703" x="40.126" y="76.4883"/><text fill="#000000" font-family="sans-serif" font-size="14" lengthAdjust="spacing" textLength="184.5703" x="50.126" y="100.0234">CannotOptOutFromProcess</text><path d="M294.6963,377.1738 L284.6963,377.1738 C269.6963,377.1738 269.6963,94.7324 254.6963,94.7324 L244.6963,94.7324 " fill="transparent" style="stroke:#181818;stroke-width:1;"/><rect fill="#F1F1F1" height="36.4883" rx="12.5" ry="12.5" style="stroke:#181818;stroke-width:1.5;" width="181.5469" x="63.1494" y="132.9766"/><text fill="#000000" font-family="sans-serif" font-size="14" lengthAdjust="spacing" textLength="161.5469" x="73.1494" y="156.5117">CannotObjectToProcess</text><path d="M294.6963,377.1738 L284.6963,377.1738 C269.6963,377.1738 269.6963,151.2207 254.6963,151.2207 L244.6963,151.2207 " fill="transparent" style="stroke:#181818;stroke-width:1;"/><rect fill="#F1F1F1" height="36.4883" rx="12.5" ry="12.5" style="stroke:#181818;stroke-width:1.5;" width="217.8525" x="26.8438" y="189.4648"/><text fill="#000000" font-family="sans-serif" font-size="14" lengthAdjust="spacing" textLength="197.8525" x="36.8438" y="213">CannotWithdrawFromProcess</text><path d="M294.6963,377.1738 L284.6963,377.1738 C269.6963,377.1738 269.6963,207.709 254.6963,207.709 L244.6963,207.709 " fill="transparent" style="stroke:#181818;stroke-width:1;"/><rect fill="#F1F1F1" height="36.4883" rx="12.5" ry="12.5" style="stroke:#181818;stroke-width:1.5;" width="187.1592" x="57.5371" y="245.9531"/><text fill="#000000" font-family="sans-serif" font-size="14" lengthAdjust="spacing" textLength="167.1592" x="67.5371" y="269.4883">CannotChallengeProcess</text><path d="M294.6963,377.1738 L284.6963,377.1738 C269.6963,377.1738 269.6963,264.1973 254.6963,264.1973 L244.6963,264.1973 " fill="transparent" style="stroke:#181818;stroke-width:1;"/><rect fill="#F1F1F1" height="36.4883" rx="12.5" ry="12.5" style="stroke:#181818;stroke-width:1.5;" width="234.6963" x="10" y="302.4414"/><text fill="#000000" font-family="sans-serif" font-size="14" lengthAdjust="spacing" textLength="214.6963" x="20" y="325.9766">CannotChallengeProcessOutput</text><path d="M294.6963,377.1738 L284.6963,377.1738 C269.6963,377.1738 269.6963,320.6855 254.6963,320.6855 L244.6963,320.6855 " fill="transparent" style="stroke:#181818;stroke-width:1;"/><rect fill="#F1F1F1" height="36.4883" rx="12.5" ry="12.5" style="stroke:#181818;stroke-width:1.5;" width="169.8916" x="74.8047" y="358.9297"/><text fill="#000000" font-family="sans-serif" font-size="14" lengthAdjust="spacing" textLength="149.8916" x="84.8047" y="382.4648">CannotCorrectProcess</text><path d="M294.6963,377.1738 L284.6963,377.1738 C269.6963,377.1738 269.6963,377.1738 254.6963,377.1738 L244.6963,377.1738 " fill="transparent" style="stroke:#181818;stroke-width:1;"/><rect fill="#F1F1F1" height="36.4883" rx="12.5" ry="12.5" style="stroke:#181818;stroke-width:1.5;" width="217.4287" x="27.2676" y="415.418"/><text fill="#000000" font-family="sans-serif" font-size="14" lengthAdjust="spacing" textLength="197.4287" x="37.2676" y="438.9531">CannotCorrectProcessOutput</text><path d="M294.6963,377.1738 L284.6963,377.1738 C269.6963,377.1738 269.6963,433.6621 254.6963,433.6621 L244.6963,433.6621 " fill="transparent" style="stroke:#181818;stroke-width:1;"/><rect fill="#F1F1F1" height="36.4883" rx="12.5" ry="12.5" style="stroke:#181818;stroke-width:1.5;" width="217.5313" x="27.165" y="471.9063"/><text fill="#000000" font-family="sans-serif" font-size="14" lengthAdjust="spacing" textLength="197.5313" x="37.165" y="495.4414">CannotReverseProcessEffects</text><path d="M294.6963,377.1738 L284.6963,377.1738 C269.6963,377.1738 269.6963,490.1504 254.6963,490.1504 L244.6963,490.1504 " fill="transparent" style="stroke:#181818;stroke-width:1;"/><rect fill="#F1F1F1" height="36.4883" rx="12.5" ry="12.5" style="stroke:#181818;stroke-width:1.5;" width="219.8418" x="24.8545" y="528.3945"/><text fill="#000000" font-family="sans-serif" font-size="14" lengthAdjust="spacing" textLength="199.8418" x="34.8545" y="551.9297">CannotReverseProcessOutput</text><path d="M294.6963,377.1738 L284.6963,377.1738 C269.6963,377.1738 269.6963,546.6387 254.6963,546.6387 L244.6963,546.6387 " fill="transparent" style="stroke:#181818;stroke-width:1;"/><rect fill="#F1F1F1" height="36.4883" rx="12.5" ry="12.5" style="stroke:#181818;stroke-width:1.5;" width="222.6172" x="22.0791" y="584.8828"/><text fill="#000000" font-family="sans-serif" font-size="14" lengthAdjust="spacing" textLength="202.6172" x="32.0791" y="608.418">CannotChallengeProcessInput</text><path d="M294.6963,377.1738 L284.6963,377.1738 C269.6963,377.1738 269.6963,603.127 254.6963,603.127 L244.6963,603.127 " fill="transparent" style="stroke:#181818;stroke-width:1;"/><rect fill="#F1F1F1" height="36.4883" rx="12.5" ry="12.5" style="stroke:#181818;stroke-width:1.5;" width="205.3496" x="39.3467" y="641.3711"/><text fill="#000000" font-family="sans-serif" font-size="14" lengthAdjust="spacing" textLength="185.3496" x="49.3467" y="664.9063">CannotCorrectProcessInput</text><path d="M294.6963,377.1738 L284.6963,377.1738 C269.6963,377.1738 269.6963,659.6152 254.6963,659.6152 L244.6963,659.6152 " fill="transparent" style="stroke:#181818;stroke-width:1;"/><rect fill="#F1F1F1" height="36.4883" rx="12.5" ry="12.5" style="stroke:#181818;stroke-width:1.5;" width="207.7627" x="36.9336" y="697.8594"/><text fill="#000000" font-family="sans-serif" font-size="14" lengthAdjust="spacing" textLength="187.7627" x="46.9336" y="721.3945">CannotReverseProcessInput</text><path d="M294.6963,377.1738 L284.6963,377.1738 C269.6963,377.1738 269.6963,716.1035 254.6963,716.1035 L244.6963,716.1035 " fill="transparent" style="stroke:#181818;stroke-width:1;"/><path d="M584.6426,377.1738 L574.6426,377.1738 C559.6426,377.1738 559.6426,377.1738 544.6426,377.1738 L534.6426,377.1738 " fill="transparent" style="stroke:#181818;stroke-width:1;"/><!--SRC=[xPNBJYf148Rt_HHrTXeo1EzcLYWg0K69egxRcGBQz5IJlepXxK_3E38tTEc67LDVLLUb_lf3rrYkRI8eJlYI_HCKIHSZ6BkIs5vAJjObah4Mt98LTZMWLCaK4oGBh9L7ho8hKYomBPgWJeGnDTo2nwKLD1_GL4sqYj2OGlJHsJkjaX9u_y1epShvRy8kOiq_FQXMz1PSIgIvHp-7VRUbouRgAQspDgMIQhHGyOGfQhD5jxEPJpMDhDYeDiM0TWwnHTKNCn84-RPvRTNVx47HhdYpI85FwN4YPRqeHPrAe29LWMq4QwhADMkkopU3lwElVHOIiiqrL9P0hIvRArOatCNhRIjpvQeqTw_IykCPPLtqZlno9UkMJBeGtg0pWJ8ssUy4xKBb7v7GaKJ3zfxTUtRlsR_px6Jzt_ao7i56V4Lmr3xk79-rEmTJXp3a19qBEBe8Jyx2atFeZwUmneVie3yPWL5EHmYnC5QBTsTz_I4RyfJ3a_C7a63eJOSqlBdF0_umKg4LRQvW-3hU9foV1jV2mZDgFmcyZjaDphYJrbT4AlPd6SBBz2wuP2DESyVd_cqarbF-NRqAeN_z7m00]--></g></svg>