<svg xmlns="http://www.w3.org/2000/svg" xmlns:xlink="http://www.w3.org/1999/xlink" contentStyleType="text/css" data-diagram-type="CLASS" height="779px" preserveAspectRatio="none" style="width:754px;height:779px;background:#FFFFFF;" version="1.1" viewBox="0 0 754 779" width="754px" zoomAndPan="magnify"><defs/><g><!--cluster dpv--><g id="cluster_dpv"><path d="M19.3589,6 L47.2173,6 A3.75,3.75 0 0 1 49.7173,8.5 L56.7173,28.4883 L745.1789,28.4883 A2.5,2.5 0 0 1 747.6789,30.9883 L747.6789,769.5 A2.5,2.5 0 0 1 745.1789,772 L19.3589,772 A2.5,2.5 0 0 1 16.8589,769.5 L16.8589,8.5 A2.5,2.5 0 0 1 19.3589,6 " fill="transparent" style="stroke:#000000;stroke-width:1.5;"/><line style="stroke:#000000;stroke-width:1.5;" x1="16.8589" x2="56.7173" y1="28.4883" y2="28.4883"/><text fill="#000000" font-family="sans-serif" font-size="14" font-weight="bold" lengthAdjust="spacing" textLength="26.8584" x="20.8589" y="21.5352">dpv</text></g><!--cluster legal--><g id="cluster_legal"><path d="M308.5189,49 L344.2933,49 A3.75,3.75 0 0 1 346.7933,51.5 L353.7933,71.4883 L721.1789,71.4883 A2.5,2.5 0 0 1 723.6789,73.9883 L723.6789,745.5 A2.5,2.5 0 0 1 721.1789,748 L308.5189,748 A2.5,2.5 0 0 1 306.0189,745.5 L306.0189,51.5 A2.5,2.5 0 0 1 308.5189,49 " fill="transparent" style="stroke:#000000;stroke-width:1.5;"/><line style="stroke:#000000;stroke-width:1.5;" x1="306.0189" x2="353.7933" y1="71.4883" y2="71.4883"/><text fill="#000000" font-family="sans-serif" font-size="14" font-weight="bold" lengthAdjust="spacing" textLength="34.7744" x="310.0189" y="64.5352">legal</text></g><!--cluster eu--><g id="cluster_eu"><path d="M332.5189,92 L350.9164,92 A3.75,3.75 0 0 1 353.4164,94.5 L360.4164,114.4883 L697.1789,114.4883 A2.5,2.5 0 0 1 699.6789,116.9883 L699.6789,721.5 A2.5,2.5 0 0 1 697.1789,724 L332.5189,724 A2.5,2.5 0 0 1 330.0189,721.5 L330.0189,94.5 A2.5,2.5 0 0 1 332.5189,92 " fill="transparent" style="stroke:#000000;stroke-width:1.5;"/><line style="stroke:#000000;stroke-width:1.5;" x1="330.0189" x2="360.4164" y1="114.4883" y2="114.4883"/><text fill="#000000" font-family="sans-serif" font-size="14" font-weight="bold" lengthAdjust="spacing" textLength="17.3975" x="334.0189" y="107.5352">eu</text></g><!--cluster gdpr--><g id="cluster_gdpr"><path d="M356.5189,135 L391.6713,135 A3.75,3.75 0 0 1 394.1713,137.5 L401.1713,157.4883 L673.1789,157.4883 A2.5,2.5 0 0 1 675.6789,159.9883 L675.6789,697.5 A2.5,2.5 0 0 1 673.1789,700 L356.5189,700 A2.5,2.5 0 0 1 354.0189,697.5 L354.0189,137.5 A2.5,2.5 0 0 1 356.5189,135 " fill="transparent" style="stroke:#000000;stroke-width:1.5;"/><line style="stroke:#000000;stroke-width:1.5;" x1="354.0189" x2="401.1713" y1="157.4883" y2="157.4883"/><text fill="#000000" font-family="sans-serif" font-size="14" font-weight="bold" lengthAdjust="spacing" textLength="34.1523" x="358.0189" y="150.5352">gdpr</text></g><!--class Process--><g id="elem_Process"><rect codeLine="6" fill="#F1F1F1" height="26.4883" id="Process" rx="2.5" ry="2.5" style="stroke:#181818;stroke-width:0.5;" width="57.3105" x="117.2789" y="254.76"/><text fill="#000000" font-family="sans-serif" font-size="14" lengthAdjust="spacing" textLength="51.3105" x="120.2789" y="273.2952">Process</text></g><!--class TechnicalOrganisationalMeasure--><g id="elem_TechnicalOrganisationalMeasure"><rect codeLine="7" fill="#F1F1F1" height="26.4883" id="TechnicalOrganisationalMeasure" rx="2.5" ry="2.5" style="stroke:#181818;stroke-width:0.5;" width="226.1582" x="32.8589" y="332.76"/><text fill="#000000" font-family="sans-serif" font-size="14" lengthAdjust="spacing" textLength="220.1582" x="35.8589" y="351.2952">TechnicalOrganisationalMeasure</text></g><!--class OrganisationalMeasure--><g id="elem_OrganisationalMeasure"><rect codeLine="8" fill="#F1F1F1" height="26.4883" id="OrganisationalMeasure" rx="2.5" ry="2.5" style="stroke:#181818;stroke-width:0.5;" width="161.9619" x="64.9589" y="413.76"/><text fill="#000000" font-family="sans-serif" font-size="14" lengthAdjust="spacing" textLength="155.9619" x="67.9589" y="432.2952">OrganisationalMeasure</text></g><polygon fill="transparent" points="226.9208,427.0009,246.9206,420,246.9211,434" style="stroke:#181818;stroke-width:1;"/><line style="stroke:#181818;stroke-width:1;" x1="246.9208" x2="247.9389" y1="427" y2="427"/><line style="stroke:#181818;stroke-width:1;" x1="145.9395" x2="145.9389" y1="413.76" y2="393.46"/><!--class DataTransferTool--><g id="elem_DataTransferTool"><rect codeLine="11" fill="#F1F1F1" height="26.4883" id="DataTransferTool" rx="2.5" ry="2.5" style="stroke:#181818;stroke-width:0.5;" width="124.0977" x="452.7989" y="657.76"/><text fill="#000000" font-family="sans-serif" font-size="14" lengthAdjust="spacing" textLength="118.0977" x="455.7989" y="676.2952">DataTransferTool</text></g><!--class AdHocContractualClauses--><g id="elem_AdHocContractualClauses"><rect codeLine="12" fill="#F1F1F1" height="26.4883" id="AdHocContractualClauses" rx="2.5" ry="2.5" style="stroke:#181818;stroke-width:0.5;" width="181.3008" x="424.1989" y="596.76"/><text fill="#000000" font-family="sans-serif" font-size="14" lengthAdjust="spacing" textLength="175.3008" x="427.1989" y="615.2952">AdHocContractualClauses</text></g><!--class BindingCorporateRules--><g id="elem_BindingCorporateRules"><rect codeLine="13" fill="#F1F1F1" height="26.4883" id="BindingCorporateRules" rx="2.5" ry="2.5" style="stroke:#181818;stroke-width:0.5;" width="161.5107" x="434.0889" y="535.76"/><text fill="#000000" font-family="sans-serif" font-size="14" lengthAdjust="spacing" textLength="155.5107" x="437.0889" y="554.2952">BindingCorporateRules</text></g><!--class CertificationMechanismsForDataTransfers--><g id="elem_CertificationMechanismsForDataTransfers"><rect codeLine="14" fill="#F1F1F1" height="26.4883" id="CertificationMechanismsForDataTransfers" rx="2.5" ry="2.5" style="stroke:#181818;stroke-width:0.5;" width="289.6641" x="370.0189" y="474.76"/><text fill="#000000" font-family="sans-serif" font-size="14" lengthAdjust="spacing" textLength="283.6641" x="373.0189" y="493.2952">CertificationMechanismsForDataTransfers</text></g><!--class CodesOfConductForDataTransfers--><g id="elem_CodesOfConductForDataTransfers"><rect codeLine="15" fill="#F1F1F1" height="26.4883" id="CodesOfConductForDataTransfers" rx="2.5" ry="2.5" style="stroke:#181818;stroke-width:0.5;" width="237.9092" x="395.8989" y="413.76"/><text fill="#000000" font-family="sans-serif" font-size="14" lengthAdjust="spacing" textLength="231.9092" x="398.8989" y="432.2952">CodesOfConductForDataTransfers</text></g><!--class SCCByCommission--><g id="elem_SCCByCommission"><rect codeLine="16" fill="#F1F1F1" height="26.4883" id="SCCByCommission" rx="2.5" ry="2.5" style="stroke:#181818;stroke-width:0.5;" width="132.3623" x="448.6689" y="352.76"/><text fill="#000000" font-family="sans-serif" font-size="14" lengthAdjust="spacing" textLength="126.3623" x="451.6689" y="371.2952">SCCByCommission</text></g><!--class SCCBySupervisoryAuthority--><g id="elem_SCCBySupervisoryAuthority"><rect codeLine="17" fill="#F1F1F1" height="26.4883" id="SCCBySupervisoryAuthority" rx="2.5" ry="2.5" style="stroke:#181818;stroke-width:0.5;" width="190.1191" x="419.7889" y="291.76"/><text fill="#000000" font-family="sans-serif" font-size="14" lengthAdjust="spacing" textLength="184.1191" x="422.7889" y="310.2952">SCCBySupervisoryAuthority</text></g><!--class StandardContractualClauses--><g id="elem_StandardContractualClauses"><rect codeLine="18" fill="#F1F1F1" height="26.4883" id="StandardContractualClauses" rx="2.5" ry="2.5" style="stroke:#181818;stroke-width:0.5;" width="197.0508" x="416.3189" y="230.76"/><text fill="#000000" font-family="sans-serif" font-size="14" lengthAdjust="spacing" textLength="191.0508" x="419.3189" y="249.2952">StandardContractualClauses</text></g><!--class SupplementaryMeasure--><g id="elem_SupplementaryMeasure"><rect codeLine="19" fill="#F1F1F1" height="26.4883" id="SupplementaryMeasure" rx="2.5" ry="2.5" style="stroke:#181818;stroke-width:0.5;" width="164.2109" x="432.7389" y="169.76"/><text fill="#000000" font-family="sans-serif" font-size="14" lengthAdjust="spacing" textLength="158.2109" x="435.7389" y="188.2952">SupplementaryMeasure</text></g><!--link TechnicalOrganisationalMeasure to Process--><g id="link_TechnicalOrganisationalMeasure_Process"><path codeLine="22" d="M145.9389,332.41 C145.9389,318.18 145.9389,295.96 145.9389,281.69 " fill="transparent" id="TechnicalOrganisationalMeasure-Process" style="stroke:#181818;stroke-width:1;"/><polygon fill="#000000" points="18.9389,312.1553,21.8779,303.1102,16,303.1102,18.9389,312.1553" style="stroke:#000000;stroke-width:1;"/><text fill="#000000" font-family="sans-serif" font-size="13" lengthAdjust="spacing" textLength="226.3066" x="27.9389" y="312.0684">hasTechnicalOrganisationalMeasure</text></g><!--link OrganisationalMeasure to TechnicalOrganisationalMeasure--><g id="link_OrganisationalMeasure_TechnicalOrganisationalMeasure"><path codeLine="23" d="M145.9389,393.46 C145.9389,382.21 145.9389,388.97 145.9389,377.72 " fill="transparent" id="OrganisationalMeasure-to-TechnicalOrganisationalMeasure" style="stroke:#181818;stroke-width:1;"/><polygon fill="transparent" points="145.9389,359.72,139.9389,377.72,151.9389,377.72,145.9389,359.72" style="stroke:#181818;stroke-width:1;"/></g><!--reverse link OrganisationalMeasure to DataTransferTool--><g id="link_OrganisationalMeasure_DataTransferTool"><path codeLine="24" d="M247.9389,427 C247.9389,427 261.9389,608.09 298.0189,641 C339.2389,678.61 404.6089,682.84 452.6189,679.67 " fill="transparent" id="OrganisationalMeasure-backto-DataTransferTool" style="stroke:#181818;stroke-width:1;"/></g><!--reverse link OrganisationalMeasure to AdHocContractualClauses--><g id="link_OrganisationalMeasure_AdHocContractualClauses"><path codeLine="25" d="M247.9389,427 C247.9389,427 243.1189,534.11 298.0189,580 C332.4089,608.75 381.2089,617.31 423.7089,618.22 " fill="transparent" id="OrganisationalMeasure-backto-AdHocContractualClauses" style="stroke:#181818;stroke-width:1;"/></g><!--reverse link OrganisationalMeasure to BindingCorporateRules--><g id="link_OrganisationalMeasure_BindingCorporateRules"><path codeLine="26" d="M247.9389,427 C247.9389,427 259.7289,492.51 298.0189,519 C337.2189,546.12 390.1189,553.81 433.7289,554.63 " fill="transparent" id="OrganisationalMeasure-backto-BindingCorporateRules" style="stroke:#181818;stroke-width:1;"/></g><!--reverse link OrganisationalMeasure to CertificationMechanismsForDataTransfers--><g id="link_OrganisationalMeasure_CertificationMechanismsForDataTransfers"><path codeLine="27" d="M247.9389,427 C247.9389,427 273.3889,449.12 298.0189,458 C320.6189,466.15 345.2789,472.1 369.5989,476.45 " fill="transparent" id="OrganisationalMeasure-backto-CertificationMechanismsForDataTransfers" style="stroke:#181818;stroke-width:1;"/></g><!--reverse link OrganisationalMeasure to CodesOfConductForDataTransfers--><g id="link_OrganisationalMeasure_CodesOfConductForDataTransfers"><path codeLine="28" d="M247.9389,427 C247.9389,427 324.6489,427 395.6689,427 " fill="transparent" id="OrganisationalMeasure-backto-CodesOfConductForDataTransfers" style="stroke:#181818;stroke-width:1;"/></g><!--reverse link OrganisationalMeasure to SCCByCommission--><g id="link_OrganisationalMeasure_SCCByCommission"><path codeLine="29" d="M247.9389,427 C247.9389,427 273.3889,404.88 298.0189,396 C346.5889,378.48 404.7289,371.11 448.4189,368.05 " fill="transparent" id="OrganisationalMeasure-backto-SCCByCommission" style="stroke:#181818;stroke-width:1;"/></g><!--reverse link OrganisationalMeasure to SCCBySupervisoryAuthority--><g id="link_OrganisationalMeasure_SCCBySupervisoryAuthority"><path codeLine="30" d="M247.9389,427 C247.9389,427 259.7289,361.49 298.0189,335 C333.0189,310.79 378.9389,302.06 419.4189,299.89 " fill="transparent" id="OrganisationalMeasure-backto-SCCBySupervisoryAuthority" style="stroke:#181818;stroke-width:1;"/></g><!--reverse link OrganisationalMeasure to StandardContractualClauses--><g id="link_OrganisationalMeasure_StandardContractualClauses"><path codeLine="31" d="M247.9389,427 C247.9389,427 284.2889,285.47 298.0189,274 C330.3089,247.01 375.2889,237.81 415.8389,236.04 " fill="transparent" id="OrganisationalMeasure-backto-StandardContractualClauses" style="stroke:#181818;stroke-width:1;"/></g><!--reverse link OrganisationalMeasure to SupplementaryMeasure--><g id="link_OrganisationalMeasure_SupplementaryMeasure"><path codeLine="32" d="M247.9389,427 C247.9389,427 295.7589,215.06 298.0189,213 C333.7189,180.43 387.5389,172.9 432.4989,173.52 " fill="transparent" id="OrganisationalMeasure-backto-SupplementaryMeasure" style="stroke:#181818;stroke-width:1;"/></g><!--SRC=[ZLB1JiCm33tJhmWVq1uu8eIq5I4uJ4DiFs0bRXlDJI8xcLG1_quhiNM2jkCO-xtusU_TMgSf6LGIEy8Y4BYOMihaO5q0XbRLx5DuTGsoZU0qghkCi8egUiMsRg8obb57wrsM1T07g56PS5GVsOqc455lx3MAd9vxr8sp6cZBDJWhC521DWYI64-ewURNvOI2i0OgC1Mr2JpEUu88UmOd5VBUUphLL-R5wzAxoA1Z0Ye9ak1PrzewOrrTUWwU8U9xeh5P8aTRzQe7FPj-Wq5SAy-UBwUDS6zGjbK_p2GTvr2xibntfMzRApASxxAyIm7vQCLpjqgnyVtnkpEWzy40c_bTUdOWRD55u6uyNlPZXShJ5HlKlMf0hc0Uiok0Xy-SyXahPndvNmCNi7EcBb2cZLuW_DVyfI-M0x70_1sIQz39u2oHviEqn9eAs3S0]--></g></svg>