<svg xmlns="http://www.w3.org/2000/svg" xmlns:xlink="http://www.w3.org/1999/xlink" contentStyleType="text/css" data-diagram-type="CLASS" height="524px" preserveAspectRatio="none" style="width:2245px;height:524px;background:#FFFFFF;" version="1.1" viewBox="0 0 2245 524" width="2245px" zoomAndPan="magnify"><defs/><g><!--cluster dpv--><g id="cluster_dpv"><path d="M8.5,6 L36.3584,6 A3.75,3.75 0 0 1 38.8584,8.5 L45.8584,28.4883 L2235.5,28.4883 A2.5,2.5 0 0 1 2238,30.9883 L2238,514.96 A2.5,2.5 0 0 1 2235.5,517.46 L8.5,517.46 A2.5,2.5 0 0 1 6,514.96 L6,8.5 A2.5,2.5 0 0 1 8.5,6 " fill="transparent" style="stroke:#000000;stroke-width:1.5;"/><line style="stroke:#000000;stroke-width:1.5;" x1="6" x2="45.8584" y1="28.4883" y2="28.4883"/><text fill="#000000" font-family="sans-serif" font-size="14" font-weight="bold" lengthAdjust="spacing" textLength="26.8584" x="10" y="21.5352">dpv</text></g><!--cluster legal--><g id="cluster_legal"><path d="M32.5,154.48 L68.2744,154.48 A3.75,3.75 0 0 1 70.7744,156.98 L77.7744,176.9683 L2211.5,176.9683 A2.5,2.5 0 0 1 2214,179.4683 L2214,490.96 A2.5,2.5 0 0 1 2211.5,493.46 L32.5,493.46 A2.5,2.5 0 0 1 30,490.96 L30,156.98 A2.5,2.5 0 0 1 32.5,154.48 " fill="transparent" style="stroke:#000000;stroke-width:1.5;"/><line style="stroke:#000000;stroke-width:1.5;" x1="30" x2="77.7744" y1="176.9683" y2="176.9683"/><text fill="#000000" font-family="sans-serif" font-size="14" font-weight="bold" lengthAdjust="spacing" textLength="34.7744" x="34" y="170.0152">legal</text></g><!--cluster eu--><g id="cluster_eu"><path d="M56.5,197.48 L74.8975,197.48 A3.75,3.75 0 0 1 77.3975,199.98 L84.3975,219.9683 L2187.5,219.9683 A2.5,2.5 0 0 1 2190,222.4683 L2190,466.96 A2.5,2.5 0 0 1 2187.5,469.46 L56.5,469.46 A2.5,2.5 0 0 1 54,466.96 L54,199.98 A2.5,2.5 0 0 1 56.5,197.48 " fill="transparent" style="stroke:#000000;stroke-width:1.5;"/><line style="stroke:#000000;stroke-width:1.5;" x1="54" x2="84.3975" y1="219.9683" y2="219.9683"/><text fill="#000000" font-family="sans-serif" font-size="14" font-weight="bold" lengthAdjust="spacing" textLength="17.3975" x="58" y="213.0152">eu</text></g><!--cluster gdpr--><g id="cluster_gdpr"><path d="M80.5,240.48 L115.6523,240.48 A3.75,3.75 0 0 1 118.1523,242.98 L125.1523,262.9683 L2163.5,262.9683 A2.5,2.5 0 0 1 2166,265.4683 L2166,442.96 A2.5,2.5 0 0 1 2163.5,445.46 L80.5,445.46 A2.5,2.5 0 0 1 78,442.96 L78,242.98 A2.5,2.5 0 0 1 80.5,240.48 " fill="transparent" style="stroke:#000000;stroke-width:1.5;"/><line style="stroke:#000000;stroke-width:1.5;" x1="78" x2="125.1523" y1="262.9683" y2="262.9683"/><text fill="#000000" font-family="sans-serif" font-size="14" font-weight="bold" lengthAdjust="spacing" textLength="34.1523" x="82" y="256.0152">gdpr</text></g><!--class Process--><g id="elem_Process"><rect codeLine="6" fill="#F1F1F1" height="26.4883" id="Process" rx="2.5" ry="2.5" style="stroke:#181818;stroke-width:0.5;" width="57.3105" x="908.34" y="61"/><text fill="#000000" font-family="sans-serif" font-size="14" lengthAdjust="spacing" textLength="51.3105" x="911.34" y="79.5352">Process</text></g><!--class LegalBasis--><g id="elem_LegalBasis"><rect codeLine="7" fill="#F1F1F1" height="26.4883" id="LegalBasis" rx="2.5" ry="2.5" style="stroke:#181818;stroke-width:0.5;" width="75.877" x="1121.06" y="61"/><text fill="#000000" font-family="sans-serif" font-size="14" lengthAdjust="spacing" textLength="69.877" x="1124.06" y="79.5352">LegalBasis</text></g><polygon fill="transparent" points="1159.3976,87.4883,1166.9968,107.2684,1153.0032,107.69" style="stroke:#181818;stroke-width:1;"/><line style="stroke:#181818;stroke-width:1;" x1="1160" x2="1160" y1="107.4792" y2="107.48"/><line style="stroke:#181818;stroke-width:1;" x1="1121.06" x2="1100.84" y1="74.2414" y2="74.24"/><!--class A6_1_a--><g id="elem_A6_1_a"><rect codeLine="10" fill="#F1F1F1" height="26.4883" id="A6_1_a" rx="2.5" ry="2.5" style="stroke:#181818;stroke-width:0.5;" width="57.2969" x="382.35" y="295.48"/><text fill="#000000" font-family="sans-serif" font-size="14" lengthAdjust="spacing" textLength="51.2969" x="385.35" y="314.0152">A6-1-a</text></g><polygon fill="transparent" points="403.0539,321.9683,398.7686,342.7201,386.763,335.5184" style="stroke:#181818;stroke-width:1;"/><line style="stroke:#181818;stroke-width:1;" x1="392.7658" x2="390" y1="339.1192" y2="343.73"/><line style="stroke:#181818;stroke-width:1;" x1="437.9438" x2="460.12" y1="295.48" y2="284.58"/><!--class A6_1_a_explicit_consent--><g id="elem_A6_1_a_explicit_consent"><rect codeLine="11" fill="#F1F1F1" height="26.4883" id="A6_1_a_explicit_consent" rx="2.5" ry="2.5" style="stroke:#181818;stroke-width:0.5;" width="176.5635" x="93.72" y="402.97"/><text fill="#000000" font-family="sans-serif" font-size="14" lengthAdjust="spacing" textLength="170.5635" x="96.72" y="421.5052">A6-1-a-explicit-consent</text></g><!--class A6_1_a_non_explicit_consent--><g id="elem_A6_1_a_non_explicit_consent"><rect codeLine="12" fill="#F1F1F1" height="26.4883" id="A6_1_a_non_explicit_consent" rx="2.5" ry="2.5" style="stroke:#181818;stroke-width:0.5;" width="210.6406" x="305.68" y="402.97"/><text fill="#000000" font-family="sans-serif" font-size="14" lengthAdjust="spacing" textLength="204.6406" x="308.68" y="421.5052">A6-1-a-non-explicit-consent</text></g><!--class A6_1_b--><g id="elem_A6_1_b"><rect codeLine="13" fill="#F1F1F1" height="26.4883" id="A6_1_b" rx="2.5" ry="2.5" style="stroke:#181818;stroke-width:0.5;" width="58.377" x="873.81" y="295.48"/><text fill="#000000" font-family="sans-serif" font-size="14" lengthAdjust="spacing" textLength="52.377" x="876.81" y="314.0152">A6-1-b</text></g><polygon fill="transparent" points="894.235,321.9683,889.0362,342.5103,877.3607,334.7847" style="stroke:#181818;stroke-width:1;"/><line style="stroke:#181818;stroke-width:1;" x1="883.1985" x2="881" y1="338.6475" y2="341.97"/><line style="stroke:#181818;stroke-width:1;" x1="912.4" x2="926.86" y1="295.48" y2="275.11"/><!--class A6_1_b_contract_performance--><g id="elem_A6_1_b_contract_performance"><rect codeLine="14" fill="#F1F1F1" height="26.4883" id="A6_1_b_contract_performance" rx="2.5" ry="2.5" style="stroke:#181818;stroke-width:0.5;" width="216.417" x="551.79" y="402.97"/><text fill="#000000" font-family="sans-serif" font-size="14" lengthAdjust="spacing" textLength="210.417" x="554.79" y="421.5052">A6-1-b-contract-performance</text></g><!--class A6_1_b_enter_into_contract--><g id="elem_A6_1_b_enter_into_contract"><rect codeLine="15" fill="#F1F1F1" height="26.4883" id="A6_1_b_enter_into_contract" rx="2.5" ry="2.5" style="stroke:#181818;stroke-width:0.5;" width="200.0654" x="802.97" y="402.97"/><text fill="#000000" font-family="sans-serif" font-size="14" lengthAdjust="spacing" textLength="194.0654" x="805.97" y="421.5052">A6-1-b-enter-into-contract</text></g><!--class A6_1_c--><g id="elem_A6_1_c"><rect codeLine="16" fill="#F1F1F1" height="26.4883" id="A6_1_c" rx="2.5" ry="2.5" style="stroke:#181818;stroke-width:0.5;" width="56.7363" x="1074.63" y="295.48"/><text fill="#000000" font-family="sans-serif" font-size="14" lengthAdjust="spacing" textLength="50.7363" x="1077.63" y="314.0152">A6-1-c</text></g><!--class A6_1_d--><g id="elem_A6_1_d"><rect codeLine="17" fill="#F1F1F1" height="26.4883" id="A6_1_d" rx="2.5" ry="2.5" style="stroke:#181818;stroke-width:0.5;" width="58.377" x="1186.81" y="295.48"/><text fill="#000000" font-family="sans-serif" font-size="14" lengthAdjust="spacing" textLength="52.377" x="1189.81" y="314.0152">A6-1-d</text></g><polygon fill="transparent" points="1215.6007,321.9683,1221.9972,342.1694,1208.0035,341.7491" style="stroke:#181818;stroke-width:1;"/><line style="stroke:#181818;stroke-width:1;" x1="1215.0003" x2="1215" y1="341.9593" y2="341.97"/><line style="stroke:#181818;stroke-width:1;" x1="1212.4058" x2="1206.88" y1="295.48" y2="275.11"/><!--class A6_1_d_data_subject--><g id="elem_A6_1_d_data_subject"><rect codeLine="18" fill="#F1F1F1" height="26.4883" id="A6_1_d_data_subject" rx="2.5" ry="2.5" style="stroke:#181818;stroke-width:0.5;" width="153.1914" x="1038.4" y="402.97"/><text fill="#000000" font-family="sans-serif" font-size="14" lengthAdjust="spacing" textLength="147.1914" x="1041.4" y="421.5052">A6-1-d-data-subject</text></g><!--class A6_1_d_natural_person--><g id="elem_A6_1_d_natural_person"><rect codeLine="19" fill="#F1F1F1" height="26.4883" id="A6_1_d_natural_person" rx="2.5" ry="2.5" style="stroke:#181818;stroke-width:0.5;" width="169.1943" x="1226.4" y="402.97"/><text fill="#000000" font-family="sans-serif" font-size="14" lengthAdjust="spacing" textLength="163.1943" x="1229.4" y="421.5052">A6-1-d-natural-person</text></g><!--class A6_1_e--><g id="elem_A6_1_e"><rect codeLine="20" fill="#F1F1F1" height="26.4883" id="A6_1_e" rx="2.5" ry="2.5" style="stroke:#181818;stroke-width:0.5;" width="57.3652" x="1492.32" y="295.48"/><text fill="#000000" font-family="sans-serif" font-size="14" lengthAdjust="spacing" textLength="51.3652" x="1495.32" y="314.0152">A6-1-e</text></g><polygon fill="transparent" points="1528.969,321.9683,1545.2763,335.4987,1533.2793,342.7149" style="stroke:#181818;stroke-width:1;"/><line style="stroke:#181818;stroke-width:1;" x1="1539.2778" x2="1541" y1="339.1068" y2="341.97"/><line style="stroke:#181818;stroke-width:1;" x1="1505.1491" x2="1480.67" y1="295.48" y2="275.03"/><!--class A6_1_e_official_authority--><g id="elem_A6_1_e_official_authority"><rect codeLine="21" fill="#F1F1F1" height="26.4883" id="A6_1_e_official_authority" rx="2.5" ry="2.5" style="stroke:#181818;stroke-width:0.5;" width="180.7744" x="1430.61" y="402.97"/><text fill="#000000" font-family="sans-serif" font-size="14" lengthAdjust="spacing" textLength="174.7744" x="1433.61" y="421.5052">A6-1-e-official-authority</text></g><!--class A6_1_e_public_interest--><g id="elem_A6_1_e_public_interest"><rect codeLine="22" fill="#F1F1F1" height="26.4883" id="A6_1_e_public_interest" rx="2.5" ry="2.5" style="stroke:#181818;stroke-width:0.5;" width="166.8154" x="1646.59" y="402.97"/><text fill="#000000" font-family="sans-serif" font-size="14" lengthAdjust="spacing" textLength="160.8154" x="1649.59" y="421.5052">A6-1-e-public-interest</text></g><!--class A6_1_f--><g id="elem_A6_1_f"><rect codeLine="23" fill="#F1F1F1" height="26.4883" id="A6_1_f" rx="2.5" ry="2.5" style="stroke:#181818;stroke-width:0.5;" width="54.7129" x="1885.64" y="295.48"/><text fill="#000000" font-family="sans-serif" font-size="14" lengthAdjust="spacing" textLength="48.7129" x="1888.64" y="314.0152">A6-1-f</text></g><polygon fill="transparent" points="1919.8079,321.9683,1935.1801,336.5524,1922.7301,342.9554" style="stroke:#181818;stroke-width:1;"/><line style="stroke:#181818;stroke-width:1;" x1="1928.9551" x2="1931" y1="339.7539" y2="343.73"/><line style="stroke:#181818;stroke-width:1;" x1="1893.0402" x2="1865.3" y1="295.48" y2="277.07"/><!--class A6_1_f_controller--><g id="elem_A6_1_f_controller"><rect codeLine="24" fill="#F1F1F1" height="26.4883" id="A6_1_f_controller" rx="2.5" ry="2.5" style="stroke:#181818;stroke-width:0.5;" width="128.459" x="1848.77" y="402.97"/><text fill="#000000" font-family="sans-serif" font-size="14" lengthAdjust="spacing" textLength="122.459" x="1851.77" y="421.5052">A6-1-f-controller</text></g><!--class A6_1_f_third_party--><g id="elem_A6_1_f_third_party"><rect codeLine="25" fill="#F1F1F1" height="26.4883" id="A6_1_f_third_party" rx="2.5" ry="2.5" style="stroke:#181818;stroke-width:0.5;" width="138.248" x="2011.88" y="402.97"/><text fill="#000000" font-family="sans-serif" font-size="14" lengthAdjust="spacing" textLength="132.248" x="2014.88" y="421.5052">A6-1-f-third-party</text></g><!--link Process to LegalBasis--><g id="link_Process_LegalBasis"><path codeLine="28" d="M966.02,74.24 C1000.11,74.24 1057.49,74.24 1100.84,74.24 " fill="transparent" id="Process-LegalBasis" style="stroke:#181818;stroke-width:1;"/><polygon fill="#000000" points="992.86,62.8953,983.8149,59.9563,983.8149,65.8342,992.86,62.8953" style="stroke:#000000;stroke-width:1;"/><text fill="#000000" font-family="sans-serif" font-size="13" lengthAdjust="spacing" textLength="86.7598" x="996.86" y="67.8084">hasLegalBasis</text></g><!--reverse link LegalBasis to A6_1_a--><g id="link_LegalBasis_A6_1_a"><path codeLine="30" d="M1160,107.48 C1160,107.48 976.84,111.84 836,146.48 C695.38,181.08 537.99,248.92 460.12,284.58 " fill="transparent" id="LegalBasis-backto-A6_1_a" style="stroke:#181818;stroke-width:1;"/></g><!--reverse link LegalBasis to A6_1_b--><g id="link_LegalBasis_A6_1_b"><path codeLine="31" d="M1160,107.48 C1160,107.48 1097.81,119.45 1057,146.48 C1003.43,181.98 954.58,239.24 926.86,275.11 " fill="transparent" id="LegalBasis-backto-A6_1_b" style="stroke:#181818;stroke-width:1;"/></g><!--reverse link LegalBasis to A6_1_c--><g id="link_LegalBasis_A6_1_c"><path codeLine="32" d="M1160,107.48 C1160,107.48 1119.04,251.36 1106.57,295.2 " fill="transparent" id="LegalBasis-backto-A6_1_c" style="stroke:#181818;stroke-width:1;"/></g><!--reverse link LegalBasis to A6_1_d--><g id="link_LegalBasis_A6_1_d"><path codeLine="33" d="M1160,107.48 C1160,107.48 1191.01,218.37 1206.88,275.11 " fill="transparent" id="LegalBasis-backto-A6_1_d" style="stroke:#181818;stroke-width:1;"/></g><!--reverse link LegalBasis to A6_1_e--><g id="link_LegalBasis_A6_1_e"><path codeLine="34" d="M1160,107.48 C1160,107.48 1231.39,121.47 1283,146.48 C1357.33,182.5 1435.03,239.34 1480.67,275.03 " fill="transparent" id="LegalBasis-backto-A6_1_e" style="stroke:#181818;stroke-width:1;"/></g><!--reverse link LegalBasis to A6_1_f--><g id="link_LegalBasis_A6_1_f"><path codeLine="35" d="M1160,107.48 C1160,107.48 1495.3,120.59 1587,146.48 C1691.97,176.12 1803.72,239.19 1865.3,277.07 " fill="transparent" id="LegalBasis-backto-A6_1_f" style="stroke:#181818;stroke-width:1;"/></g><!--reverse link A6_1_a to A6_1_a_explicit_consent--><g id="link_A6_1_a_A6_1_a_explicit_consent"><path codeLine="36" d="M390,343.73 C390,343.73 278.42,382.08 218.71,402.6 " fill="transparent" id="A6_1_a-backto-A6_1_a_explicit_consent" style="stroke:#181818;stroke-width:1;"/></g><!--reverse link A6_1_a to A6_1_a_non_explicit_consent--><g id="link_A6_1_a_A6_1_a_non_explicit_consent"><path codeLine="37" d="M390,343.73 C390,343.73 401.33,382.28 407.34,402.76 " fill="transparent" id="A6_1_a-backto-A6_1_a_non_explicit_consent" style="stroke:#181818;stroke-width:1;"/></g><!--reverse link A6_1_b to A6_1_b_contract_performance--><g id="link_A6_1_b_A6_1_b_contract_performance"><path codeLine="38" d="M881,341.97 C881,341.97 761.5,381.58 698.24,402.54 " fill="transparent" id="A6_1_b-backto-A6_1_b_contract_performance" style="stroke:#181818;stroke-width:1;"/></g><!--reverse link A6_1_b to A6_1_b_enter_into_contract--><g id="link_A6_1_b_A6_1_b_enter_into_contract"><path codeLine="39" d="M881,341.97 C881,341.97 892.99,381.89 899.27,402.79 " fill="transparent" id="A6_1_b-backto-A6_1_b_enter_into_contract" style="stroke:#181818;stroke-width:1;"/></g><!--reverse link A6_1_d to A6_1_d_data_subject--><g id="link_A6_1_d_A6_1_d_data_subject"><path codeLine="40" d="M1215,341.97 C1215,341.97 1160.49,381.89 1131.96,402.79 " fill="transparent" id="A6_1_d-backto-A6_1_d_data_subject" style="stroke:#181818;stroke-width:1;"/></g><!--reverse link A6_1_d to A6_1_d_natural_person--><g id="link_A6_1_d_A6_1_d_natural_person"><path codeLine="41" d="M1215,341.97 C1215,341.97 1267.33,381.89 1294.71,402.79 " fill="transparent" id="A6_1_d-backto-A6_1_d_natural_person" style="stroke:#181818;stroke-width:1;"/></g><!--reverse link A6_1_e to A6_1_e_official_authority--><g id="link_A6_1_e_A6_1_e_official_authority"><path codeLine="42" d="M1541,341.97 C1541,341.97 1530.1,381.89 1524.39,402.79 " fill="transparent" id="A6_1_e-backto-A6_1_e_official_authority" style="stroke:#181818;stroke-width:1;"/></g><!--reverse link A6_1_e to A6_1_e_public_interest--><g id="link_A6_1_e_A6_1_e_public_interest"><path codeLine="43" d="M1541,341.97 C1541,341.97 1643.47,381.68 1697.51,402.62 " fill="transparent" id="A6_1_e-backto-A6_1_e_public_interest" style="stroke:#181818;stroke-width:1;"/></g><!--reverse link A6_1_f to A6_1_f_controller--><g id="link_A6_1_f_A6_1_f_controller"><path codeLine="44" d="M1931,343.73 C1931,343.73 1921.29,382.28 1916.14,402.76 " fill="transparent" id="A6_1_f-backto-A6_1_f_controller" style="stroke:#181818;stroke-width:1;"/></g><!--reverse link A6_1_f to A6_1_f_third_party--><g id="link_A6_1_f_A6_1_f_third_party"><path codeLine="45" d="M1931,343.73 C1931,343.73 2011.47,382.08 2054.53,402.6 " fill="transparent" id="A6_1_f-backto-A6_1_f_third_party" style="stroke:#181818;stroke-width:1;"/></g><!--SRC=[XPCnZzGm48Lh_2lCKbmrAnt55GWX7HqInHNqriIP9EQyTcGx9qx0VoVPE9k9iQ2AFDzx4sVovgrnsaujoPXUBPr7YovD5olYit5F6F0Y- -2dyOiRA9Y4JfDyByITjXYZ_3OOryjtqTWN2c94_OmzoNPyaJ_5crNo5Boc6BVZL-hHViPeelZD3MUxW3DDvxuTmsv_V53t2YL6UNfyW7l0qv4e-Z5QeqrIshj8BZ4fR0moAxtEkt_wP_wV7iqkRmgoD4m1TL8ZXSw7otLsknms3eoNFUONKb369NzhnrjSCIpurktOGUzgVIJjJjg2g1OJgZWrtuc_heMb3hbUUXocAQ1TFZPwnrsPm4gEFZQGujj9-QwR1p-tn2aDVWxVAnF3Hk56I_yuDVEVMuP7WMBYvXN1XexERbTs1Lb_WhUM0XF1NYtrQJ2XLIC6VlaEhcMuba_p7jojU_Jn5zpM9Jybi8tv80UC-r5-4eATPZVaODVBJRsiw-MsNgPwkHDvKTaj_bgjcgQsWYAl5hjwTPbgkih2Y9ntzcs7XDVuCSqYPvMDePBEcgh8eCW1OuDZaQfH5Y3n1m00]--></g></svg>