<svg xmlns="http://www.w3.org/2000/svg" xmlns:xlink="http://www.w3.org/1999/xlink" contentStyleType="text/css" data-diagram-type="CLASS" height="500px" preserveAspectRatio="none" style="width:1073px;height:500px;background:#FFFFFF;" version="1.1" viewBox="0 0 1073 500" width="1073px" zoomAndPan="magnify"><defs/><g><!--cluster dpv--><g id="cluster_dpv"><path d="M8.5,6 L36.3584,6 A3.75,3.75 0 0 1 38.8584,8.5 L45.8584,28.4883 L1063.5,28.4883 A2.5,2.5 0 0 1 1066,30.9883 L1066,490.96 A2.5,2.5 0 0 1 1063.5,493.46 L8.5,493.46 A2.5,2.5 0 0 1 6,490.96 L6,8.5 A2.5,2.5 0 0 1 8.5,6 " fill="transparent" style="stroke:#000000;stroke-width:1.5;"/><line style="stroke:#000000;stroke-width:1.5;" x1="6" x2="45.8584" y1="28.4883" y2="28.4883"/><text fill="#000000" font-family="sans-serif" font-size="14" font-weight="bold" lengthAdjust="spacing" textLength="26.8584" x="10" y="21.5352">dpv</text></g><!--cluster legal--><g id="cluster_legal"><path d="M32.5,257.97 L68.2744,257.97 A3.75,3.75 0 0 1 70.7744,260.47 L77.7744,280.4583 L1039.5,280.4583 A2.5,2.5 0 0 1 1042,282.9583 L1042,466.96 A2.5,2.5 0 0 1 1039.5,469.46 L32.5,469.46 A2.5,2.5 0 0 1 30,466.96 L30,260.47 A2.5,2.5 0 0 1 32.5,257.97 " fill="transparent" style="stroke:#000000;stroke-width:1.5;"/><line style="stroke:#000000;stroke-width:1.5;" x1="30" x2="77.7744" y1="280.4583" y2="280.4583"/><text fill="#000000" font-family="sans-serif" font-size="14" font-weight="bold" lengthAdjust="spacing" textLength="34.7744" x="34" y="273.5052">legal</text></g><!--cluster eu--><g id="cluster_eu"><path d="M56.5,300.97 L74.8975,300.97 A3.75,3.75 0 0 1 77.3975,303.47 L84.3975,323.4583 L1015.5,323.4583 A2.5,2.5 0 0 1 1018,325.9583 L1018,442.96 A2.5,2.5 0 0 1 1015.5,445.46 L56.5,445.46 A2.5,2.5 0 0 1 54,442.96 L54,303.47 A2.5,2.5 0 0 1 56.5,300.97 " fill="transparent" style="stroke:#000000;stroke-width:1.5;"/><line style="stroke:#000000;stroke-width:1.5;" x1="54" x2="84.3975" y1="323.4583" y2="323.4583"/><text fill="#000000" font-family="sans-serif" font-size="14" font-weight="bold" lengthAdjust="spacing" textLength="17.3975" x="58" y="316.5052">eu</text></g><!--cluster gdpr--><g id="cluster_gdpr"><path d="M80.5,343.97 L115.6523,343.97 A3.75,3.75 0 0 1 118.1523,346.47 L125.1523,366.4583 L991.5,366.4583 A2.5,2.5 0 0 1 994,368.9583 L994,418.96 A2.5,2.5 0 0 1 991.5,421.46 L80.5,421.46 A2.5,2.5 0 0 1 78,418.96 L78,346.47 A2.5,2.5 0 0 1 80.5,343.97 " fill="transparent" style="stroke:#000000;stroke-width:1.5;"/><line style="stroke:#000000;stroke-width:1.5;" x1="78" x2="125.1523" y1="366.4583" y2="366.4583"/><text fill="#000000" font-family="sans-serif" font-size="14" font-weight="bold" lengthAdjust="spacing" textLength="34.1523" x="82" y="359.5052">gdpr</text></g><!--class Process--><g id="elem_Process"><rect codeLine="5" fill="#F1F1F1" height="26.4883" id="Process" rx="2.5" ry="2.5" style="stroke:#181818;stroke-width:0.5;" width="57.3105" x="511.34" y="41"/><text fill="#000000" font-family="sans-serif" font-size="14" lengthAdjust="spacing" textLength="51.3105" x="514.34" y="59.5352">Process</text></g><!--class LegalBasis--><g id="elem_LegalBasis"><rect codeLine="6" fill="#F1F1F1" height="26.4883" id="LegalBasis" rx="2.5" ry="2.5" style="stroke:#181818;stroke-width:0.5;" width="75.877" x="502.06" y="164.48"/><text fill="#000000" font-family="sans-serif" font-size="14" lengthAdjust="spacing" textLength="69.877" x="505.06" y="183.0152">LegalBasis</text></g><polygon fill="transparent" points="539.9991,190.9683,547,210.968,533,210.9686" style="stroke:#181818;stroke-width:1;"/><line style="stroke:#181818;stroke-width:1;" x1="540" x2="540" y1="210.9683" y2="210.97"/><line style="stroke:#181818;stroke-width:1;" x1="539.9991" x2="540" y1="164.48" y2="143.99"/><!--class A9_2_a--><g id="elem_A9_2_a"><rect codeLine="9" fill="#F1F1F1" height="26.4883" id="A9_2_a" rx="2.5" ry="2.5" style="stroke:#181818;stroke-width:0.5;" width="57.2969" x="94.35" y="378.97"/><text fill="#000000" font-family="sans-serif" font-size="14" lengthAdjust="spacing" textLength="51.2969" x="97.35" y="397.5052">A9-2-a</text></g><!--class A9_2_b--><g id="elem_A9_2_b"><rect codeLine="10" fill="#F1F1F1" height="26.4883" id="A9_2_b" rx="2.5" ry="2.5" style="stroke:#181818;stroke-width:0.5;" width="58.377" x="186.81" y="378.97"/><text fill="#000000" font-family="sans-serif" font-size="14" lengthAdjust="spacing" textLength="52.377" x="189.81" y="397.5052">A9-2-b</text></g><!--class A9_2_c--><g id="elem_A9_2_c"><rect codeLine="11" fill="#F1F1F1" height="26.4883" id="A9_2_c" rx="2.5" ry="2.5" style="stroke:#181818;stroke-width:0.5;" width="56.7363" x="280.63" y="378.97"/><text fill="#000000" font-family="sans-serif" font-size="14" lengthAdjust="spacing" textLength="50.7363" x="283.63" y="397.5052">A9-2-c</text></g><!--class A9_2_d--><g id="elem_A9_2_d"><rect codeLine="12" fill="#F1F1F1" height="26.4883" id="A9_2_d" rx="2.5" ry="2.5" style="stroke:#181818;stroke-width:0.5;" width="58.377" x="372.81" y="378.97"/><text fill="#000000" font-family="sans-serif" font-size="14" lengthAdjust="spacing" textLength="52.377" x="375.81" y="397.5052">A9-2-d</text></g><!--class A9_2_e--><g id="elem_A9_2_e"><rect codeLine="13" fill="#F1F1F1" height="26.4883" id="A9_2_e" rx="2.5" ry="2.5" style="stroke:#181818;stroke-width:0.5;" width="57.3652" x="466.32" y="378.97"/><text fill="#000000" font-family="sans-serif" font-size="14" lengthAdjust="spacing" textLength="51.3652" x="469.32" y="397.5052">A9-2-e</text></g><!--class A9_2_f--><g id="elem_A9_2_f"><rect codeLine="14" fill="#F1F1F1" height="26.4883" id="A9_2_f" rx="2.5" ry="2.5" style="stroke:#181818;stroke-width:0.5;" width="54.7129" x="558.64" y="378.97"/><text fill="#000000" font-family="sans-serif" font-size="14" lengthAdjust="spacing" textLength="48.7129" x="561.64" y="397.5052">A9-2-f</text></g><!--class A9_2_g--><g id="elem_A9_2_g"><rect codeLine="15" fill="#F1F1F1" height="26.4883" id="A9_2_g" rx="2.5" ry="2.5" style="stroke:#181818;stroke-width:0.5;" width="58.2949" x="648.85" y="378.97"/><text fill="#000000" font-family="sans-serif" font-size="14" lengthAdjust="spacing" textLength="52.2949" x="651.85" y="397.5052">A9-2-g</text></g><!--class A9_2_h--><g id="elem_A9_2_h"><rect codeLine="16" fill="#F1F1F1" height="26.4883" id="A9_2_h" rx="2.5" ry="2.5" style="stroke:#181818;stroke-width:0.5;" width="58.2539" x="741.87" y="378.97"/><text fill="#000000" font-family="sans-serif" font-size="14" lengthAdjust="spacing" textLength="52.2539" x="744.87" y="397.5052">A9-2-h</text></g><!--class A9_2_i--><g id="elem_A9_2_i"><rect codeLine="17" fill="#F1F1F1" height="26.4883" id="A9_2_i" rx="2.5" ry="2.5" style="stroke:#181818;stroke-width:0.5;" width="53.6123" x="835.19" y="378.97"/><text fill="#000000" font-family="sans-serif" font-size="14" lengthAdjust="spacing" textLength="47.6123" x="838.19" y="397.5052">A9-2-i</text></g><!--class A9_2_j--><g id="elem_A9_2_j"><rect codeLine="18" fill="#F1F1F1" height="26.4883" id="A9_2_j" rx="2.5" ry="2.5" style="stroke:#181818;stroke-width:0.5;" width="53.8242" x="924.09" y="378.97"/><text fill="#000000" font-family="sans-serif" font-size="14" lengthAdjust="spacing" textLength="47.8242" x="927.09" y="397.5052">A9-2-j</text></g><!--link Process to LegalBasis--><g id="link_Process_LegalBasis"><path codeLine="21" d="M540,67.78 C540,85.61 540,118.88 540,143.99 " fill="transparent" id="Process-LegalBasis" style="stroke:#181818;stroke-width:1;"/><polygon fill="#000000" points="545,111.1353,547.9389,102.0902,542.0611,102.0902,545,111.1353" style="stroke:#000000;stroke-width:1;"/><text fill="#000000" font-family="sans-serif" font-size="13" lengthAdjust="spacing" textLength="86.7598" x="554" y="111.0484">hasLegalBasis</text></g><!--reverse link LegalBasis to A9_2_a--><g id="link_LegalBasis_A9_2_a"><path codeLine="23" d="M540,210.97 C540,210.97 201.22,223.9 169,249.97 C128.91,282.42 123.38,350.38 122.88,378.55 " fill="transparent" id="LegalBasis-backto-A9_2_a" style="stroke:#181818;stroke-width:1;"/></g><!--reverse link LegalBasis to A9_2_b--><g id="link_LegalBasis_A9_2_b"><path codeLine="24" d="M540,210.97 C540,210.97 310.76,210.18 263,249.97 C223.29,283.06 216.94,350.66 216.06,378.65 " fill="transparent" id="LegalBasis-backto-A9_2_b" style="stroke:#181818;stroke-width:1;"/></g><!--reverse link LegalBasis to A9_2_c--><g id="link_LegalBasis_A9_2_c"><path codeLine="25" d="M540,210.97 C540,210.97 386.26,221.9 355,249.97 C316.63,284.44 310.14,351.26 309.13,378.84 " fill="transparent" id="LegalBasis-backto-A9_2_c" style="stroke:#181818;stroke-width:1;"/></g><!--reverse link LegalBasis to A9_2_d--><g id="link_LegalBasis_A9_2_d"><path codeLine="26" d="M540,210.97 C540,210.97 478.79,217.58 449,249.97 C414.36,287.64 405.19,351.53 402.81,378.55 " fill="transparent" id="LegalBasis-backto-A9_2_d" style="stroke:#181818;stroke-width:1;"/></g><!--reverse link LegalBasis to A9_2_e--><g id="link_LegalBasis_A9_2_e"><path codeLine="27" d="M540,210.97 C540,210.97 508.41,337.51 498.16,378.54 " fill="transparent" id="LegalBasis-backto-A9_2_e" style="stroke:#181818;stroke-width:1;"/></g><!--reverse link LegalBasis to A9_2_f--><g id="link_LegalBasis_A9_2_f"><path codeLine="28" d="M540,210.97 C540,210.97 572.29,337.51 582.77,378.54 " fill="transparent" id="LegalBasis-backto-A9_2_f" style="stroke:#181818;stroke-width:1;"/></g><!--reverse link LegalBasis to A9_2_g--><g id="link_LegalBasis_A9_2_g"><path codeLine="29" d="M540,210.97 C540,210.97 601.21,217.58 631,249.97 C665.64,287.64 674.81,351.53 677.19,378.55 " fill="transparent" id="LegalBasis-backto-A9_2_g" style="stroke:#181818;stroke-width:1;"/></g><!--reverse link LegalBasis to A9_2_h--><g id="link_LegalBasis_A9_2_h"><path codeLine="30" d="M540,210.97 C540,210.97 693.74,221.9 725,249.97 C763.37,284.44 769.86,351.26 770.87,378.84 " fill="transparent" id="LegalBasis-backto-A9_2_h" style="stroke:#181818;stroke-width:1;"/></g><!--reverse link LegalBasis to A9_2_i--><g id="link_LegalBasis_A9_2_i"><path codeLine="31" d="M540,210.97 C540,210.97 770.45,209.59 818,249.97 C857.15,283.22 861.98,350.73 862.23,378.67 " fill="transparent" id="LegalBasis-backto-A9_2_i" style="stroke:#181818;stroke-width:1;"/></g><!--reverse link LegalBasis to A9_2_j--><g id="link_LegalBasis_A9_2_j"><path codeLine="32" d="M540,210.97 C540,210.97 874.31,224.12 906,249.97 C945.88,282.51 950.92,350.41 951.21,378.57 " fill="transparent" id="LegalBasis-backto-A9_2_j" style="stroke:#181818;stroke-width:1;"/></g><!--SRC=[RT2nQiCm4CRnkNgAYtTxy9OG2kbMw90t26VfBCbH5A6p2w7DkpSbBMU1nll_fENR-AZ3OWXulWNgKi0uBvUW-EpZ4JDUmERhajwZe-ndZ9gWLogXFgCbCEaJljIB3iWCntpLnFn_Vf35y8RiMTtN7xhm2nqjdJKfo_V3zjIV492XEMpRliMca45aA4MBw5ACY2c5HAYKKMGinOhOKfo8AyMB-58caQbvBAJ-veEsNKst0uSi9xmgjRhstu_7pztgUQXdNS-cdgcUntgszUpgsTVpf7u0]--></g></svg>