<svg xmlns="http://www.w3.org/2000/svg" xmlns:xlink="http://www.w3.org/1999/xlink" contentStyleType="text/css" data-diagram-type="CLASS" height="443px" preserveAspectRatio="none" style="width:753px;height:443px;background:#FFFFFF;" version="1.1" viewBox="0 0 753 443" width="753px" zoomAndPan="magnify"><defs/><g><!--cluster dpv--><g id="cluster_dpv"><path d="M8.5,96.49 L36.3584,96.49 A3.75,3.75 0 0 1 38.8584,98.99 L45.8584,118.9783 L743.5,118.9783 A2.5,2.5 0 0 1 746,121.4783 L746,433.94 A2.5,2.5 0 0 1 743.5,436.44 L8.5,436.44 A2.5,2.5 0 0 1 6,433.94 L6,98.99 A2.5,2.5 0 0 1 8.5,96.49 " fill="transparent" style="stroke:#000000;stroke-width:1.5;"/><line style="stroke:#000000;stroke-width:1.5;" x1="6" x2="45.8584" y1="118.9783" y2="118.9783"/><text fill="#000000" font-family="sans-serif" font-size="14" font-weight="bold" lengthAdjust="spacing" textLength="26.8584" x="10" y="112.0252">dpv</text></g><!--class Assessment--><g id="elem_Assessment"><rect codeLine="7" fill="#F1F1F1" height="26.4883" id="Assessment" rx="2.5" ry="2.5" style="stroke:#181818;stroke-width:0.5;" width="86.8008" x="203.6" y="131.49"/><text fill="#000000" font-family="sans-serif" font-size="14" lengthAdjust="spacing" textLength="80.8008" x="206.6" y="150.0252">Assessment</text></g><!--class RiskAssessment--><g id="elem_RiskAssessment"><rect codeLine="8" fill="#F1F1F1" height="26.4883" id="RiskAssessment" rx="2.5" ry="2.5" style="stroke:#181818;stroke-width:0.5;" width="115.0195" x="109.49" y="218.98"/><text fill="#000000" font-family="sans-serif" font-size="14" lengthAdjust="spacing" textLength="109.0195" x="112.49" y="237.5152">RiskAssessment</text></g><!--class ImpactAssessment--><g id="elem_ImpactAssessment"><rect codeLine="9" fill="#F1F1F1" height="26.4883" id="ImpactAssessment" rx="2.5" ry="2.5" style="stroke:#181818;stroke-width:0.5;" width="132.8545" x="259.57" y="218.98"/><text fill="#000000" font-family="sans-serif" font-size="14" lengthAdjust="spacing" textLength="126.8545" x="262.57" y="237.5152">ImpactAssessment</text></g><!--class RightsImpactAssessment--><g id="elem_RightsImpactAssessment"><rect codeLine="10" fill="#F1F1F1" height="26.4883" id="RightsImpactAssessment" rx="2.5" ry="2.5" style="stroke:#181818;stroke-width:0.5;" width="175.5449" x="22.23" y="306.46"/><text fill="#000000" font-family="sans-serif" font-size="14" lengthAdjust="spacing" textLength="169.5449" x="25.23" y="324.9952">RightsImpactAssessment</text></g><!--class DPIA--><g id="elem_DPIA"><rect codeLine="11" fill="#F1F1F1" height="26.4883" id="DPIA" rx="2.5" ry="2.5" style="stroke:#181818;stroke-width:0.5;" width="37.917" x="22.04" y="393.95"/><text fill="#000000" font-family="sans-serif" font-size="14" lengthAdjust="spacing" textLength="31.917" x="25.04" y="412.4852">DPIA</text></g><!--class DataBreachImpactAssessment--><g id="elem_DataBreachImpactAssessment"><rect codeLine="12" fill="#F1F1F1" height="26.4883" id="DataBreachImpactAssessment" rx="2.5" ry="2.5" style="stroke:#181818;stroke-width:0.5;" width="209.2119" x="95.39" y="393.95"/><text fill="#000000" font-family="sans-serif" font-size="14" lengthAdjust="spacing" textLength="203.2119" x="98.39" y="412.4852">DataBreachImpactAssessment</text></g><!--class FRIA--><g id="elem_FRIA"><rect codeLine="13" fill="#F1F1F1" height="26.4883" id="FRIA" rx="2.5" ry="2.5" style="stroke:#181818;stroke-width:0.5;" width="36.0508" x="339.97" y="393.95"/><text fill="#000000" font-family="sans-serif" font-size="14" lengthAdjust="spacing" textLength="30.0508" x="342.97" y="412.4852">FRIA</text></g><!--class PIA--><g id="elem_PIA"><rect codeLine="14" fill="#F1F1F1" height="26.4883" id="PIA" rx="2.5" ry="2.5" style="stroke:#181818;stroke-width:0.5;" width="27.4307" x="232.28" y="306.46"/><text fill="#000000" font-family="sans-serif" font-size="14" lengthAdjust="spacing" textLength="21.4307" x="235.28" y="324.9952">PIA</text></g><!--class DataTransferImpactAssessment--><g id="elem_DataTransferImpactAssessment"><rect codeLine="15" fill="#F1F1F1" height="26.4883" id="DataTransferImpactAssessment" rx="2.5" ry="2.5" style="stroke:#181818;stroke-width:0.5;" width="220.8535" x="294.57" y="306.46"/><text fill="#000000" font-family="sans-serif" font-size="14" lengthAdjust="spacing" textLength="214.8535" x="297.57" y="324.9952">DataTransferImpactAssessment</text></g><!--class ReviewImpactAssessment--><g id="elem_ReviewImpactAssessment"><rect codeLine="16" fill="#F1F1F1" height="26.4883" id="ReviewImpactAssessment" rx="2.5" ry="2.5" style="stroke:#181818;stroke-width:0.5;" width="179.3867" x="550.31" y="306.46"/><text fill="#000000" font-family="sans-serif" font-size="14" lengthAdjust="spacing" textLength="173.3867" x="553.31" y="324.9952">ReviewImpactAssessment</text></g><!--class Thing--><g id="elem_Thing"><rect codeLine="5" fill="#C0C0C0" height="26.4883" id="Thing" rx="2.5" ry="2.5" style="stroke:#181818;stroke-width:0.5;" width="45.0059" x="224.5" y="7"/><text fill="#000000" font-family="sans-serif" font-size="14" lengthAdjust="spacing" textLength="39.0059" x="227.5" y="25.5352">Thing</text></g><!--link Thing to Assessment--><g id="link_Thing_Assessment"><path codeLine="18" d="M247,33.89 C247,57.48 247,107.93 247,131.34 " fill="transparent" id="Thing-Assessment" style="stroke:#181818;stroke-width:1;"/><polygon fill="#000000" points="252,77.1453,254.9389,68.1002,249.0611,68.1002,252,77.1453" style="stroke:#000000;stroke-width:1;"/><text fill="#000000" font-family="sans-serif" font-size="13" lengthAdjust="spacing" textLength="96.9033" x="261" y="77.0584">hasAssessment</text></g><!--reverse link Assessment to RiskAssessment--><g id="link_Assessment_RiskAssessment"><path codeLine="19" d="M222.8977,171.4898 C207.7677,187.6498 194,202.37 178.85,218.55 " fill="transparent" id="Assessment-backto-RiskAssessment" style="stroke:#181818;stroke-width:1;"/><polygon fill="transparent" points="235.2,158.35,218.5178,167.389,227.2776,175.5905,235.2,158.35" style="stroke:#181818;stroke-width:1;"/></g><!--reverse link Assessment to ImpactAssessment--><g id="link_Assessment_ImpactAssessment"><path codeLine="20" d="M270.8748,171.5711 C285.8048,187.7311 299.34,202.37 314.3,218.55 " fill="transparent" id="Assessment-backto-ImpactAssessment" style="stroke:#181818;stroke-width:1;"/><polygon fill="transparent" points="258.66,158.35,266.4678,175.6427,275.2819,167.4995,258.66,158.35" style="stroke:#181818;stroke-width:1;"/></g><!--reverse link ImpactAssessment to RightsImpactAssessment--><g id="link_ImpactAssessment_RightsImpactAssessment"><path codeLine="21" d="M277.3941,252.4563 C236.5541,268.6263 182.9,289.85 142,306.04 " fill="transparent" id="ImpactAssessment-backto-RightsImpactAssessment" style="stroke:#181818;stroke-width:1;"/><polygon fill="transparent" points="294.13,245.83,275.1853,246.8777,279.6028,258.035,294.13,245.83" style="stroke:#181818;stroke-width:1;"/></g><!--reverse link ImpactAssessment to PIA--><g id="link_ImpactAssessment_PIA"><path codeLine="22" d="M301.9018,258.9736 C286.7718,275.1436 273,289.85 257.85,306.04 " fill="transparent" id="ImpactAssessment-backto-PIA" style="stroke:#181818;stroke-width:1;"/><polygon fill="transparent" points="314.2,245.83,297.5206,254.8742,306.283,263.073,314.2,245.83" style="stroke:#181818;stroke-width:1;"/></g><!--reverse link ImpactAssessment to DataTransferImpactAssessment--><g id="link_ImpactAssessment_DataTransferImpactAssessment"><path codeLine="23" d="M349.8707,259.0549 C364.8007,275.2249 378.34,289.85 393.3,306.04 " fill="transparent" id="ImpactAssessment-backto-DataTransferImpactAssessment" style="stroke:#181818;stroke-width:1;"/><polygon fill="transparent" points="337.66,245.83,345.4624,263.1251,354.279,254.9846,337.66,245.83" style="stroke:#181818;stroke-width:1;"/></g><!--reverse link ImpactAssessment to ReviewImpactAssessment--><g id="link_ImpactAssessment_ReviewImpactAssessment"><path codeLine="24" d="M390.0381,250.6574 C449.4081,266.8174 533.96,289.84 593.33,306 " fill="transparent" id="ImpactAssessment-backto-ReviewImpactAssessment" style="stroke:#181818;stroke-width:1;"/><polygon fill="transparent" points="372.67,245.93,388.4623,256.4468,391.6139,244.8681,372.67,245.93" style="stroke:#181818;stroke-width:1;"/></g><!--reverse link RightsImpactAssessment to DPIA--><g id="link_RightsImpactAssessment_DPIA"><path codeLine="25" d="M88.5111,347.3239 C75.4611,363.4839 64.29,377.34 51.22,393.53 " fill="transparent" id="RightsImpactAssessment-backto-DPIA" style="stroke:#181818;stroke-width:1;"/><polygon fill="transparent" points="99.82,333.32,83.8432,343.5543,93.1791,351.0935,99.82,333.32" style="stroke:#181818;stroke-width:1;"/></g><!--reverse link RightsImpactAssessment to DataBreachImpactAssessment--><g id="link_RightsImpactAssessment_DataBreachImpactAssessment"><path codeLine="26" d="M136.3334,345.7139 C153.3534,361.8739 169.62,377.34 186.67,393.53 " fill="transparent" id="RightsImpactAssessment-backto-DataBreachImpactAssessment" style="stroke:#181818;stroke-width:1;"/><polygon fill="transparent" points="123.28,333.32,132.2021,350.065,140.4647,341.3627,123.28,333.32" style="stroke:#181818;stroke-width:1;"/></g><!--reverse link RightsImpactAssessment to FRIA--><g id="link_RightsImpactAssessment_FRIA"><path codeLine="27" d="M163.8773,339.2763 C217.7173,357.8363 298.85,385.81 339.55,399.84 " fill="transparent" id="RightsImpactAssessment-backto-FRIA" style="stroke:#181818;stroke-width:1;"/><polygon fill="transparent" points="146.86,333.41,161.9218,344.9487,165.8327,333.6039,146.86,333.41" style="stroke:#181818;stroke-width:1;"/></g><!--SRC=[VL71Ri8m33sJh_34WHDym3GXCKr8lI743tYfQIFIf8fDfsdZtsd7WAfDUelVUuwVdr-Cq_QS4x1yMrhL5fsSAwiMbeu2uY6OeXJ8JI0jnZkr45zt-ASNyLMFKDeYCnnAumgOix4D1LMZFc51aDSD_AZPJR9X9kQAdDoHlU7J6CsgjbrYwjOIfzYFNRPvl57mFH3gCgNUxf_gGUCXeECZXQGDQWnzZTYBkaMmNFOMXLSeaNlrMlMAjzzMFCXWI8_c387xBz5iuk9kuJWpkNzYSZoEkA7_APs1IK7wVbDjVqTLLm00]--></g></svg>