<svg xmlns="http://www.w3.org/2000/svg" xmlns:xlink="http://www.w3.org/1999/xlink" contentStyleType="text/css" data-diagram-type="CLASS" height="374px" preserveAspectRatio="none" style="width:667px;height:374px;background:#FFFFFF;" version="1.1" viewBox="0 0 667 374" width="667px" zoomAndPan="magnify"><defs/><g><!--cluster dpv--><g id="cluster_dpv"><path d="M8.5,96.49 L36.3584,96.49 A3.75,3.75 0 0 1 38.8584,98.99 L45.8584,118.9783 L262.5,118.9783 A2.5,2.5 0 0 1 265,121.4783 L265,362.45 A2.5,2.5 0 0 1 262.5,364.95 L8.5,364.95 A2.5,2.5 0 0 1 6,362.45 L6,98.99 A2.5,2.5 0 0 1 8.5,96.49 " fill="transparent" style="stroke:#000000;stroke-width:1.5;"/><line style="stroke:#000000;stroke-width:1.5;" x1="6" x2="45.8584" y1="118.9783" y2="118.9783"/><text fill="#000000" font-family="sans-serif" font-size="14" font-weight="bold" lengthAdjust="spacing" textLength="26.8584" x="10" y="112.0252">dpv</text></g><!--class Entity--><g id="elem_Entity"><rect codeLine="7" fill="#F1F1F1" height="26.4883" id="Entity" rx="2.5" ry="2.5" style="stroke:#181818;stroke-width:0.5;" width="44.1104" x="120.94" y="131.49"/><text fill="#000000" font-family="sans-serif" font-size="14" lengthAdjust="spacing" textLength="38.1104" x="123.94" y="150.0252">Entity</text></g><!--class LegalEntity--><g id="elem_LegalEntity"><rect codeLine="8" fill="#F1F1F1" height="26.4883" id="LegalEntity" rx="2.5" ry="2.5" style="stroke:#181818;stroke-width:0.5;" width="79.8828" x="169.06" y="218.97"/><text fill="#000000" font-family="sans-serif" font-size="14" lengthAdjust="spacing" textLength="73.8828" x="172.06" y="237.5052">LegalEntity</text></g><!--class NaturalPerson--><g id="elem_NaturalPerson"><rect codeLine="9" fill="#F1F1F1" height="26.4883" id="NaturalPerson" rx="2.5" ry="2.5" style="stroke:#181818;stroke-width:0.5;" width="101.1973" x="27.4" y="218.97"/><text fill="#000000" font-family="sans-serif" font-size="14" lengthAdjust="spacing" textLength="95.1973" x="30.4" y="237.5052">NaturalPerson</text></g><!--class DataSubject--><g id="elem_DataSubject"><rect codeLine="10" fill="#F1F1F1" height="26.4883" id="DataSubject" rx="2.5" ry="2.5" style="stroke:#181818;stroke-width:0.5;" width="86.6914" x="21.65" y="322.46"/><text fill="#000000" font-family="sans-serif" font-size="14" lengthAdjust="spacing" textLength="80.6914" x="24.65" y="340.9952">DataSubject</text></g><!--class Representative--><g id="elem_Representative"><rect codeLine="11" fill="#F1F1F1" height="26.4883" id="Representative" rx="2.5" ry="2.5" style="stroke:#181818;stroke-width:0.5;" width="105.9141" x="143.04" y="322.46"/><text fill="#000000" font-family="sans-serif" font-size="14" lengthAdjust="spacing" textLength="99.9141" x="146.04" y="340.9952">Representative</text></g><!--class Thing--><g id="elem_Thing"><rect codeLine="4" fill="#C0C0C0" height="26.4883" id="Thing" rx="2.5" ry="2.5" style="stroke:#181818;stroke-width:0.5;" width="45.0059" x="120.5" y="7"/><text fill="#000000" font-family="sans-serif" font-size="14" lengthAdjust="spacing" textLength="39.0059" x="123.5" y="25.5352">Thing</text></g><!--entity Resource--><g id="elem_Resource"><ellipse cx="436" cy="335.71" fill="#F1F1F1" rx="8" ry="8" style="stroke:#181818;stroke-width:0.5;"/><text fill="#000000" font-family="sans-serif" font-size="14" lengthAdjust="spacing" textLength="61.7764" x="405.1118" y="366.2452">Resource</text></g><!--link Thing to Entity--><g id="link_Thing_Entity"><path codeLine="14" d="M143,33.89 C143,57.48 143,107.93 143,131.33 " fill="transparent" id="Thing-Entity" style="stroke:#181818;stroke-width:1;"/><polygon fill="#000000" points="148,77.1453,150.9389,68.1002,145.0611,68.1002,148,77.1453" style="stroke:#000000;stroke-width:1;"/><text fill="#000000" font-family="sans-serif" font-size="13" lengthAdjust="spacing" textLength="57.2622" x="157" y="77.0584">hasEntity</text></g><!--reverse link Entity to LegalEntity--><g id="link_Entity_LegalEntity"><path codeLine="15" d="M163.7378,172.5895 C176.2178,188.7595 186.72,202.36 199.22,218.55 " fill="transparent" id="Entity-backto-LegalEntity" style="stroke:#181818;stroke-width:1;"/><polygon fill="transparent" points="152.74,158.34,158.9879,176.2554,168.4876,168.9236,152.74,158.34" style="stroke:#181818;stroke-width:1;"/></g><!--link LegalEntity to Resource--><g id="link_LegalEntity_Resource"><path codeLine="17" d="M215.93,245.7 C224.17,259.32 239.18,280.76 258,292.46 C314.91,327.85 398.93,333.6 426.71,334.53 " fill="transparent" id="LegalEntity-Resource" style="stroke:#181818;stroke-width:1;"/><polygon fill="#000000" points="267.6075,286.0571,260.4138,279.8361,258.1311,285.2526,267.6075,286.0571" style="stroke:#000000;stroke-width:1;"/><text fill="#000000" font-family="sans-serif" font-size="13" lengthAdjust="spacing" textLength="58.0366" x="272" y="289.0284">hasName</text></g><!--link LegalEntity to Resource--><g id="link_LegalEntity_Resource"><path codeLine="18" d="M249.25,244.39 C274.4,251.93 307.17,262.8 335,275.46 C370.34,291.54 409.17,316.61 426.61,328.3 " fill="transparent" id="LegalEntity-Resource-1" style="stroke:#181818;stroke-width:1;"/><polygon fill="#000000" points="376.0597,286.2536,369.1403,279.7287,366.6266,285.042,376.0597,286.2536" style="stroke:#000000;stroke-width:1;"/><text fill="#000000" font-family="sans-serif" font-size="13" lengthAdjust="spacing" textLength="70.4844" x="380.54" y="289.0284">hasContact</text></g><!--link LegalEntity to Resource--><g id="link_LegalEntity_Resource"><path codeLine="19" d="M249.34,233.94 C313.31,236.02 433.5,244.13 460,275.46 C473.04,290.88 455.41,314.32 444.13,326.58 " fill="transparent" id="LegalEntity-Resource-2" style="stroke:#181818;stroke-width:1;"/><polygon fill="#000000" points="474.1254,286.2627,467.2192,279.7239,464.6948,285.032,474.1254,286.2627" style="stroke:#000000;stroke-width:1;"/><text fill="#000000" font-family="sans-serif" font-size="13" lengthAdjust="spacing" textLength="78.8315" x="478.61" y="289.0284">hasIdentifier</text></g><!--link LegalEntity to Resource--><g id="link_LegalEntity_Resource"><path codeLine="20" d="M249.13,235.02 C338,239.41 545.22,252.08 566,275.46 C602.25,316.25 480.19,330.69 445.14,333.94 " fill="transparent" id="LegalEntity-Resource-3" style="stroke:#181818;stroke-width:1;"/><polygon fill="#000000" points="582.0738,286.368,575.3229,279.669,572.6746,284.9165,582.0738,286.368" style="stroke:#000000;stroke-width:1;"/><text fill="#000000" font-family="sans-serif" font-size="13" lengthAdjust="spacing" textLength="73.0234" x="586.61" y="289.0284">hasAddress</text></g><!--link LegalEntity to Representative--><g id="link_LegalEntity_Representative"><path codeLine="21" d="M168.59,241.3 C135.45,248.85 92.36,261.09 82,275.46 C62.56,302.42 104.37,318.06 142.71,326.43 " fill="transparent" id="LegalEntity-Representative" style="stroke:#181818;stroke-width:1;"/><polygon fill="#000000" points="85.5457,288.8991,90.9884,281.0999,85.3647,279.3903,85.5457,288.8991" style="stroke:#000000;stroke-width:1;"/><text fill="#000000" font-family="sans-serif" font-size="13" lengthAdjust="spacing" textLength="121.8306" x="96" y="289.0284">hasRepresentataive</text></g><!--reverse link Entity to NaturalPerson--><g id="link_Entity_NaturalPerson"><path codeLine="23" d="M122.5181,172.6706 C110.2281,188.8406 99.94,202.36 87.63,218.55 " fill="transparent" id="Entity-backto-NaturalPerson" style="stroke:#181818;stroke-width:1;"/><polygon fill="transparent" points="133.41,158.34,117.7412,169.0399,127.2949,176.3012,133.41,158.34" style="stroke:#181818;stroke-width:1;"/></g><!--reverse link NaturalPerson to DataSubject--><g id="link_NaturalPerson_DataSubject"><path codeLine="24" d="M70.6865,263.2119 C68.6965,271.5819 70.41,265.36 69,275.46 C66.75,291.59 65.75,310.38 65.32,322.4 " fill="transparent" id="NaturalPerson-backto-DataSubject" style="stroke:#181818;stroke-width:1;"/><polygon fill="transparent" points="74.85,245.7,64.8492,261.824,76.5238,264.5997,74.85,245.7" style="stroke:#181818;stroke-width:1;"/></g><!--SRC=[XP3HIWCn44MVdQ-OueFwq7v04K6i3uAKqle3OpBT7KspIp9PADL_DtPt8GjYtp8tvtBlp4oySSaoHZqwNhIElAQ3Wnl7UqLjC4XLAre9R5GQ3s0SnOXljVWAhwEuZWFStk6MOvE2OMZ9V5B5QDiEJt3LuyzUHO_ZzCeLkQcq9as1t8P3p263k2AbNNh_oD6ZjEKsS6IlfD8nV0FqJURp8ME9DSN-YGymFEw_yd-P2iNmwntRdzrhEd3s_eSyDRc1qGlKYyr5PIySBe2FrkQjubzKkUwPBIJAMlPCjfmUSZBrG7dK7m00]--></g></svg>