<svg xmlns="http://www.w3.org/2000/svg" xmlns:xlink="http://www.w3.org/1999/xlink" contentStyleType="text/css" data-diagram-type="MINDMAP" height="417px" preserveAspectRatio="none" style="width:1540px;height:417px;background:#FFFFFF;" version="1.1" viewBox="0 0 1540 417" width="1540px" zoomAndPan="magnify"><defs/><g><rect fill="#F1F1F1" height="36.4883" rx="12.5" ry="12.5" style="stroke:#181818;stroke-width:1.5;" width="89.877" x="673.5576" y="189.4648"/><text fill="#000000" font-family="sans-serif" font-size="14" lengthAdjust="spacing" textLength="69.877" x="683.5576" y="213">LegalBasis</text><rect fill="#F1F1F1" height="36.4883" rx="12.5" ry="12.5" style="stroke:#181818;stroke-width:1.5;" width="75.8359" x="813.4346" y="132.9766"/><text fill="#000000" font-family="sans-serif" font-size="14" lengthAdjust="spacing" textLength="55.8359" x="823.4346" y="156.5117">Consent</text><rect fill="#F1F1F1" height="36.4883" rx="12.5" ry="12.5" style="stroke:#181818;stroke-width:1.5;" width="137.7148" x="939.2705" y="104.7324"/><text fill="#000000" font-family="sans-serif" font-size="14" lengthAdjust="spacing" textLength="117.7148" x="949.2705" y="128.2676">InformedConsent</text><rect fill="#F1F1F1" height="36.4883" rx="12.5" ry="12.5" style="stroke:#181818;stroke-width:1.5;" width="145.2344" x="1126.9854" y="76.4883"/><text fill="#000000" font-family="sans-serif" font-size="14" lengthAdjust="spacing" textLength="125.2344" x="1136.9854" y="100.0234">ExpressedConsent</text><rect fill="#F1F1F1" height="36.4883" rx="12.5" ry="12.5" style="stroke:#181818;stroke-width:1.5;" width="206.1289" x="1322.2197" y="76.4883"/><text fill="#000000" font-family="sans-serif" font-size="14" lengthAdjust="spacing" textLength="186.1289" x="1332.2197" y="100.0234">ExplicitlyExpressedConsent</text><path d="M1272.2197,94.7324 L1282.2197,94.7324 C1297.2197,94.7324 1297.2197,94.7324 1312.2197,94.7324 L1322.2197,94.7324 " fill="transparent" style="stroke:#181818;stroke-width:1;"/><path d="M1076.9854,122.9766 L1086.9854,122.9766 C1101.9854,122.9766 1101.9854,94.7324 1116.9854,94.7324 L1126.9854,94.7324 " fill="transparent" style="stroke:#181818;stroke-width:1;"/><rect fill="#F1F1F1" height="36.4883" rx="12.5" ry="12.5" style="stroke:#181818;stroke-width:1.5;" width="126.4561" x="1126.9854" y="132.9766"/><text fill="#000000" font-family="sans-serif" font-size="14" lengthAdjust="spacing" textLength="106.4561" x="1136.9854" y="156.5117">ImpliedConsent</text><path d="M1076.9854,122.9766 L1086.9854,122.9766 C1101.9854,122.9766 1101.9854,151.2207 1116.9854,151.2207 L1126.9854,151.2207 " fill="transparent" style="stroke:#181818;stroke-width:1;"/><path d="M889.2705,151.2207 L899.2705,151.2207 C914.2705,151.2207 914.2705,122.9766 929.2705,122.9766 L939.2705,122.9766 " fill="transparent" style="stroke:#181818;stroke-width:1;"/><rect fill="#F1F1F1" height="36.4883" rx="12.5" ry="12.5" style="stroke:#181818;stroke-width:1.5;" width="156.1172" x="939.2705" y="189.4648"/><text fill="#000000" font-family="sans-serif" font-size="14" lengthAdjust="spacing" textLength="136.1172" x="949.2705" y="213">UninformedConsent</text><path d="M889.2705,151.2207 L899.2705,151.2207 C914.2705,151.2207 914.2705,207.709 929.2705,207.709 L939.2705,207.709 " fill="transparent" style="stroke:#181818;stroke-width:1;"/><path d="M763.4346,207.709 L773.4346,207.709 C788.4346,207.709 788.4346,151.2207 803.4346,151.2207 L813.4346,151.2207 " fill="transparent" style="stroke:#181818;stroke-width:1;"/><rect fill="#F1F1F1" height="36.4883" rx="12.5" ry="12.5" style="stroke:#181818;stroke-width:1.5;" width="78.0781" x="813.4346" y="274.1973"/><text fill="#000000" font-family="sans-serif" font-size="14" lengthAdjust="spacing" textLength="58.0781" x="823.4346" y="297.7324">Contract</text><rect fill="#F1F1F1" height="36.4883" rx="12.5" ry="12.5" style="stroke:#181818;stroke-width:1.5;" width="139.6768" x="941.5127" y="245.9531"/><text fill="#000000" font-family="sans-serif" font-size="14" lengthAdjust="spacing" textLength="119.6768" x="951.5127" y="269.4883">EnterIntoContract</text><path d="M891.5127,292.4414 L901.5127,292.4414 C916.5127,292.4414 916.5127,264.1973 931.5127,264.1973 L941.5127,264.1973 " fill="transparent" style="stroke:#181818;stroke-width:1;"/><rect fill="#F1F1F1" height="36.4883" rx="12.5" ry="12.5" style="stroke:#181818;stroke-width:1.5;" width="163.2813" x="941.5127" y="302.4414"/><text fill="#000000" font-family="sans-serif" font-size="14" lengthAdjust="spacing" textLength="143.2813" x="951.5127" y="325.9766">ContractPerformance</text><path d="M891.5127,292.4414 L901.5127,292.4414 C916.5127,292.4414 916.5127,320.6855 931.5127,320.6855 L941.5127,320.6855 " fill="transparent" style="stroke:#181818;stroke-width:1;"/><path d="M763.4346,207.709 L773.4346,207.709 C788.4346,207.709 788.4346,292.4414 803.4346,292.4414 L813.4346,292.4414 " fill="transparent" style="stroke:#181818;stroke-width:1;"/><rect fill="#F1F1F1" height="36.4883" rx="12.5" ry="12.5" style="stroke:#181818;stroke-width:1.5;" width="177.876" x="445.6816" y="20"/><text fill="#000000" font-family="sans-serif" font-size="14" lengthAdjust="spacing" textLength="157.876" x="455.6816" y="43.5352">DataTransferLegalBasis</text><path d="M673.5576,207.709 L663.5576,207.709 C648.5576,207.709 648.5576,38.2441 633.5576,38.2441 L623.5576,38.2441 " fill="transparent" style="stroke:#181818;stroke-width:1;"/><rect fill="#F1F1F1" height="36.4883" rx="12.5" ry="12.5" style="stroke:#181818;stroke-width:1.5;" width="126.5859" x="496.9717" y="76.4883"/><text fill="#000000" font-family="sans-serif" font-size="14" lengthAdjust="spacing" textLength="106.5859" x="506.9717" y="100.0234">LegalObligation</text><path d="M673.5576,207.709 L663.5576,207.709 C648.5576,207.709 648.5576,94.7324 633.5576,94.7324 L623.5576,94.7324 " fill="transparent" style="stroke:#181818;stroke-width:1;"/><rect fill="#F1F1F1" height="36.4883" rx="12.5" ry="12.5" style="stroke:#181818;stroke-width:1.5;" width="142.8213" x="480.7363" y="132.9766"/><text fill="#000000" font-family="sans-serif" font-size="14" lengthAdjust="spacing" textLength="122.8213" x="490.7363" y="156.5117">LegitimateInterest</text><rect fill="#F1F1F1" height="36.4883" rx="12.5" ry="12.5" style="stroke:#181818;stroke-width:1.5;" width="227.0059" x="203.7305" y="76.4883"/><text fill="#000000" font-family="sans-serif" font-size="14" lengthAdjust="spacing" textLength="207.0059" x="213.7305" y="100.0234">LegitimateInterestOfController</text><path d="M480.7363,151.2207 L470.7363,151.2207 C455.7363,151.2207 455.7363,94.7324 440.7363,94.7324 L430.7363,94.7324 " fill="transparent" style="stroke:#181818;stroke-width:1;"/><rect fill="#F1F1F1" height="36.4883" rx="12.5" ry="12.5" style="stroke:#181818;stroke-width:1.5;" width="239.5361" x="191.2002" y="132.9766"/><text fill="#000000" font-family="sans-serif" font-size="14" lengthAdjust="spacing" textLength="219.5361" x="201.2002" y="156.5117">LegitimateInterestOfDataSubject</text><path d="M480.7363,151.2207 L470.7363,151.2207 C455.7363,151.2207 455.7363,151.2207 440.7363,151.2207 L430.7363,151.2207 " fill="transparent" style="stroke:#181818;stroke-width:1;"/><rect fill="#F1F1F1" height="36.4883" rx="12.5" ry="12.5" style="stroke:#181818;stroke-width:1.5;" width="228.7217" x="202.0146" y="189.4648"/><text fill="#000000" font-family="sans-serif" font-size="14" lengthAdjust="spacing" textLength="208.7217" x="212.0146" y="213">LegitimateInterestOfThirdParty</text><path d="M480.7363,151.2207 L470.7363,151.2207 C455.7363,151.2207 455.7363,207.709 440.7363,207.709 L430.7363,207.709 " fill="transparent" style="stroke:#181818;stroke-width:1;"/><path d="M673.5576,207.709 L663.5576,207.709 C648.5576,207.709 648.5576,151.2207 633.5576,151.2207 L623.5576,151.2207 " fill="transparent" style="stroke:#181818;stroke-width:1;"/><rect fill="#F1F1F1" height="36.4883" rx="12.5" ry="12.5" style="stroke:#181818;stroke-width:1.5;" width="215.5967" x="407.9609" y="245.9531"/><text fill="#000000" font-family="sans-serif" font-size="14" lengthAdjust="spacing" textLength="195.5967" x="417.9609" y="269.4883">OfficialAuthorityOfController</text><path d="M673.5576,207.709 L663.5576,207.709 C648.5576,207.709 648.5576,264.1973 633.5576,264.1973 L623.5576,264.1973 " fill="transparent" style="stroke:#181818;stroke-width:1;"/><rect fill="#F1F1F1" height="36.4883" rx="12.5" ry="12.5" style="stroke:#181818;stroke-width:1.5;" width="112.1621" x="511.3955" y="302.4414"/><text fill="#000000" font-family="sans-serif" font-size="14" lengthAdjust="spacing" textLength="92.1621" x="521.3955" y="325.9766">PublicInterest</text><path d="M673.5576,207.709 L663.5576,207.709 C648.5576,207.709 648.5576,320.6855 633.5576,320.6855 L623.5576,320.6855 " fill="transparent" style="stroke:#181818;stroke-width:1;"/><rect fill="#F1F1F1" height="36.4883" rx="12.5" ry="12.5" style="stroke:#181818;stroke-width:1.5;" width="101.874" x="521.6836" y="358.9297"/><text fill="#000000" font-family="sans-serif" font-size="14" lengthAdjust="spacing" textLength="81.874" x="531.6836" y="382.4648">VitalInterest</text><rect fill="#F1F1F1" height="36.4883" rx="12.5" ry="12.5" style="stroke:#181818;stroke-width:1.5;" width="213.0947" x="258.5889" y="358.9297"/><text fill="#000000" font-family="sans-serif" font-size="14" lengthAdjust="spacing" textLength="193.0947" x="268.5889" y="382.4648">VitalInterestOfNaturalPerson</text><rect fill="#F1F1F1" height="36.4883" rx="12.5" ry="12.5" style="stroke:#181818;stroke-width:1.5;" width="198.5889" x="10" y="358.9297"/><text fill="#000000" font-family="sans-serif" font-size="14" lengthAdjust="spacing" textLength="178.5889" x="20" y="382.4648">VitalInterestOfDataSubject</text><path d="M258.5889,377.1738 L248.5889,377.1738 C233.5889,377.1738 233.5889,377.1738 218.5889,377.1738 L208.5889,377.1738 " fill="transparent" style="stroke:#181818;stroke-width:1;"/><path d="M521.6836,377.1738 L511.6836,377.1738 C496.6836,377.1738 496.6836,377.1738 481.6836,377.1738 L471.6836,377.1738 " fill="transparent" style="stroke:#181818;stroke-width:1;"/><path d="M673.5576,207.709 L663.5576,207.709 C648.5576,207.709 648.5576,377.1738 633.5576,377.1738 L623.5576,377.1738 " fill="transparent" style="stroke:#181818;stroke-width:1;"/><!--SRC=[xLJ1Rjim3BthAxXR2oD1sgxju5EMfWkI9RMnEhapDkrmaEL0eeBbxoUx3HQlxH_q9ZwIUa_aWyPEq4hDfgXnhxwmoRKl29mSDGtt6etuMYiLmP8gr1Dqx5GKmKDZ71a9nmZcfcniJSKP5i7Zdxqbv_fe1slEMVJntGAOro7Vms1j-0r1ooyMyvUAHoDavqQQ7deAKh9jEvgSr600KnJCB1fNaZrxKyXqKRBLNA5mOruX5gvHQDvoa9E0lWSdPKVNQ4tsmvAM-jblVrF-yJNPZcsHXfKSM_waBCEqK7_ticiio_4_7aXzq9kVYOCD2-gUsXwIb4yetg8EOt7T8zzMdEjKOmhMUBM76lVSikFWb9995-xbN5EGUGfojhacfpxDyscUpZnf-vkiLqiuXEum8xWQNe-kRuUZYymJBD30w1wkxkERs_Zc3cQh3DhqfRgOfKjmZRSvGS5EB6zzE-DBjS03mYzlmXmeXcHFPZ7zUGB2PWzi6rEtMrziLlyAxhuE9YpmJ3OeWSrAJQb4hoLqv4t1fefXdVqOV5DBD9N7AjnDHZqquLvxZ64s-Gi0]--></g></svg>