<svg xmlns="http://www.w3.org/2000/svg" xmlns:xlink="http://www.w3.org/1999/xlink" contentStyleType="text/css" data-diagram-type="CLASS" height="262px" preserveAspectRatio="none" style="width:704px;height:262px;background:#FFFFFF;" version="1.1" viewBox="0 0 704 262" width="704px" zoomAndPan="magnify"><defs/><g><!--class Thing--><g id="elem_Thing"><rect codeLine="5" fill="#C0C0C0" height="34.4883" id="Thing" rx="2.5" ry="2.5" style="stroke:#181818;stroke-width:0.5;" width="45.0059" x="7" y="127.25"/><text fill="#000000" font-family="sans-serif" font-size="14" lengthAdjust="spacing" textLength="39.0059" x="10" y="145.7852">Thing</text><line style="stroke:#181818;stroke-width:0.5;" x1="8" x2="51.0059" y1="153.7383" y2="153.7383"/></g><!--class Law--><g id="elem_Law"><rect codeLine="7" fill="#F1F1F1" height="50.9766" id="Law" rx="2.5" ry="2.5" style="stroke:#181818;stroke-width:0.5;" width="135.6348" x="545.44" y="7"/><text fill="#000000" font-family="sans-serif" font-size="14" lengthAdjust="spacing" textLength="25.9834" x="600.2657" y="25.5352">Law</text><line style="stroke:#181818;stroke-width:0.5;" x1="546.44" x2="680.0748" y1="33.4883" y2="33.4883"/><text fill="#000000" font-family="sans-serif" font-size="14" lengthAdjust="spacing" textLength="123.6348" x="551.44" y="51.0234">IRI foaf:homepage</text></g><!--class Authority--><g id="elem_Authority"><rect codeLine="10" fill="#F1F1F1" height="50.9766" id="Authority" rx="2.5" ry="2.5" style="stroke:#181818;stroke-width:0.5;" width="135.6348" x="207.01" y="119"/><text fill="#000000" font-family="sans-serif" font-size="14" lengthAdjust="spacing" textLength="63.1982" x="243.2283" y="137.5352">Authority</text><line style="stroke:#181818;stroke-width:0.5;" x1="208.01" x2="341.6448" y1="145.4883" y2="145.4883"/><text fill="#000000" font-family="sans-serif" font-size="14" lengthAdjust="spacing" textLength="123.6348" x="213.01" y="163.0234">IRI foaf:homepage</text></g><!--class DataProtectionAuthority--><g id="elem_DataProtectionAuthority"><rect codeLine="13" fill="#F1F1F1" height="50.9766" id="DataProtectionAuthority" rx="2.5" ry="2.5" style="stroke:#181818;stroke-width:0.5;" width="169.2285" x="528.64" y="99"/><text fill="#000000" font-family="sans-serif" font-size="14" lengthAdjust="spacing" textLength="163.2285" x="531.64" y="117.5352">DataProtectionAuthority</text><line style="stroke:#181818;stroke-width:0.5;" x1="529.64" x2="696.8685" y1="125.4883" y2="125.4883"/><text fill="#000000" font-family="sans-serif" font-size="14" lengthAdjust="spacing" textLength="123.6348" x="534.64" y="143.0234">IRI foaf:homepage</text></g><!--class Location--><g id="elem_Location"><rect codeLine="16" fill="#F1F1F1" height="34.4883" id="Location" rx="2.5" ry="2.5" style="stroke:#181818;stroke-width:0.5;" width="63.5381" x="581.49" y="204.25"/><text fill="#000000" font-family="sans-serif" font-size="14" lengthAdjust="spacing" textLength="57.5381" x="584.49" y="222.7852">Location</text><line style="stroke:#181818;stroke-width:0.5;" x1="582.49" x2="644.0281" y1="230.7383" y2="230.7383"/></g><!--link Thing to Law--><g id="link_Thing_Law"><path codeLine="18" d="M52.37,132.6 C61.36,128.05 72,123.09 82.01,119.49 C207.11,74.43 241.23,68.77 372.64,48.49 C430.43,39.57 496.82,35.62 545.04,33.87 " fill="transparent" id="Thing-Law" style="stroke:#181818;stroke-width:1;"/><polygon fill="#000000" points="254.2225,44.2628,244.7763,43.1585,245.9312,48.9217,254.2225,44.2628" style="stroke:#000000;stroke-width:1;"/><text fill="#000000" font-family="sans-serif" font-size="13" lengthAdjust="spacing" textLength="46.0015" x="258.32" y="50.1584">hasLaw</text></g><!--link Thing to Authority--><g id="link_Thing_Authority"><path codeLine="19" d="M52.1,144.49 C86.41,144.49 154.79,144.49 206.59,144.49 " fill="transparent" id="Thing-Authority" style="stroke:#181818;stroke-width:1;"/><polygon fill="#000000" points="92.01,136.1453,82.9649,133.2063,82.9649,139.0842,92.01,136.1453" style="stroke:#000000;stroke-width:1;"/><text fill="#000000" font-family="sans-serif" font-size="13" lengthAdjust="spacing" textLength="80.5581" x="96.01" y="141.0584">hasAuthority</text></g><!--reverse link Authority to DataProtectionAuthority--><g id="link_Authority_DataProtectionAuthority"><path codeLine="20" d="M361.0682,139.4213 C414.3682,136.2513 471.18,132.88 528.39,129.48 " fill="transparent" id="Authority-backto-DataProtectionAuthority" style="stroke:#181818;stroke-width:1;"/><polygon fill="transparent" points="343.1,140.49,361.4245,145.4108,360.712,133.4319,343.1,140.49" style="stroke:#181818;stroke-width:1;"/></g><!--link Authority to Law--><g id="link_Authority_Law"><path codeLine="21" d="M342.89,119.86 C352.84,116.32 362.99,112.76 372.64,109.49 C428.28,90.61 442.71,87.48 498.64,69.49 C513.65,64.66 529.76,59.44 545,54.49 " fill="transparent" id="Authority-Law" style="stroke:#181818;stroke-width:1;"/><polygon fill="#000000" points="382.3974,59.6066,372.8868,59.5938,374.6957,65.1864,382.3974,59.6066" style="stroke:#000000;stroke-width:1;"/><text fill="#000000" font-family="sans-serif" font-size="13" lengthAdjust="spacing" textLength="111.8711" x="386.64" y="66.0584">hasApplicableLaw</text></g><!--link Authority to Location--><g id="link_Authority_Location"><path codeLine="22" d="M343.1,159.89 C415.39,176.43 527.15,202.01 581.06,214.35 " fill="transparent" id="Authority-Location" style="stroke:#181818;stroke-width:1;"/><polygon fill="#000000" points="392.014,160.0107,383.8525,155.128,382.5412,160.8577,392.014,160.0107" style="stroke:#000000;stroke-width:1;"/><text fill="#000000" font-family="sans-serif" font-size="13" lengthAdjust="spacing" textLength="92.9614" x="396.14" y="163.8084">hasJurisdiction</text></g><!--link Location to Authority--><g id="link_Location_Authority"><path codeLine="23" d="M581.31,227.36 C534.61,234.89 443.98,244.22 372.64,219.49 C344.32,209.67 317.82,187.92 299.73,170.35 " fill="transparent" id="Location-Authority" style="stroke:#181818;stroke-width:1;"/><polygon fill="#000000" points="388.2394,210.1531,396.5214,214.8285,397.6878,209.0675,388.2394,210.1531" style="stroke:#000000;stroke-width:1;"/><text fill="#000000" font-family="sans-serif" font-size="13" lengthAdjust="spacing" textLength="80.5581" x="402.14" y="216.0584">hasAuthority</text></g><!--link Thing to Location--><g id="link_Thing_Location"><path codeLine="24" d="M52.3,152.66 C85.42,164.9 150.54,188.29 207.01,204.49 C332.7,240.56 368.47,255.98 498.64,243.49 C526.84,240.79 558.44,234.39 581.14,229.18 " fill="transparent" id="Thing-Location" style="stroke:#181818;stroke-width:1;"/><polygon fill="#000000" points="231.2685,196.8613,222.7375,192.6574,221.8957,198.4746,231.2685,196.8613" style="stroke:#000000;stroke-width:1;"/><text fill="#000000" font-family="sans-serif" font-size="13" lengthAdjust="spacing" textLength="92.9614" x="235.32" y="201.0584">hasJurisdiction</text></g><!--SRC=[dKzB2i8m4Dtd50EkUu4YGi5DfGiHBp2cqsOWcfAaYgXtjqt4r8K5dTLCtilxAAu9ZkILgPrGuo7PIarEQ6eyU0EMM-MXPalIipa98JKw1tl5fnOMZlMPB0W1mqIamWlSmZrEkIkXCTZaoXofmvO2yfZmYtvmj-olF_rQeyUjDJwc-a-ZCX9ZfzWcoqBu71IwSLcbzsGGq7IkHDgNzu7v9TY4DhKfkawpn8EcQFZ9UkMBr4rlsTKSP0Vc6vnFbvhDYJq1]--></g></svg>