<svg xmlns="http://www.w3.org/2000/svg" xmlns:xlink="http://www.w3.org/1999/xlink" contentStyleType="text/css" data-diagram-type="WBS" height="522px" preserveAspectRatio="none" style="width:3601px;height:522px;background:#FFFFFF;" version="1.1" viewBox="0 0 3601 522" width="3601px" zoomAndPan="magnify"><defs/><g><line style="stroke:#181818;stroke-width:1.5;" x1="54.6289" x2="54.6289" y1="64.1328" y2="84.1328"/><rect fill="#F1F1F1" height="34.1328" style="stroke:#181818;stroke-width:1.5;" width="89.2578" x="10" y="84.1328"/><text fill="#000000" font-family="sans-serif" font-size="12" lengthAdjust="spacing" textLength="69.2578" x="20" y="105.7344">Assessment</text><line style="stroke:#181818;stroke-width:1.5;" x1="54.6289" x2="64.6289" y1="150.332" y2="150.332"/><rect fill="#F1F1F1" height="34.1328" style="stroke:#181818;stroke-width:1.5;" width="157.5313" x="64.6289" y="133.2656"/><text fill="#000000" font-family="sans-serif" font-size="12" lengthAdjust="spacing" textLength="137.5313" x="74.6289" y="154.8672">ComplianceAssessment</text><line style="stroke:#181818;stroke-width:1.5;" x1="54.6289" x2="64.6289" y1="199.4648" y2="199.4648"/><rect fill="#F1F1F1" height="34.1328" style="stroke:#181818;stroke-width:1.5;" width="167.1816" x="64.6289" y="182.3984"/><text fill="#000000" font-family="sans-serif" font-size="12" lengthAdjust="spacing" textLength="147.1816" x="74.6289" y="204">ConformanceAssessment</text><line style="stroke:#181818;stroke-width:1.5;" x1="54.6289" x2="64.6289" y1="248.5977" y2="248.5977"/><rect fill="#F1F1F1" height="34.1328" style="stroke:#181818;stroke-width:1.5;" width="204.8398" x="64.6289" y="231.5313"/><text fill="#000000" font-family="sans-serif" font-size="12" lengthAdjust="spacing" textLength="184.8398" x="74.6289" y="253.1328">DataInteroperabilityAssessment</text><line style="stroke:#181818;stroke-width:1.5;" x1="54.6289" x2="64.6289" y1="297.7305" y2="297.7305"/><rect fill="#F1F1F1" height="34.1328" style="stroke:#181818;stroke-width:1.5;" width="157.0801" x="64.6289" y="280.6641"/><text fill="#000000" font-family="sans-serif" font-size="12" lengthAdjust="spacing" textLength="137.0801" x="74.6289" y="302.2656">DataQualityAssessment</text><line style="stroke:#181818;stroke-width:1.5;" x1="54.6289" x2="64.6289" y1="346.8633" y2="346.8633"/><rect fill="#F1F1F1" height="34.1328" style="stroke:#181818;stroke-width:1.5;" width="243.1191" x="64.6289" y="329.7969"/><text fill="#000000" font-family="sans-serif" font-size="12" lengthAdjust="spacing" textLength="223.1191" x="74.6289" y="351.3984">EffectivenessDeterminationProcedures</text><line style="stroke:#181818;stroke-width:1.5;" x1="54.6289" x2="64.6289" y1="395.9961" y2="395.9961"/><rect fill="#F1F1F1" height="34.1328" style="stroke:#181818;stroke-width:1.5;" width="194.5332" x="64.6289" y="378.9297"/><text fill="#000000" font-family="sans-serif" font-size="12" lengthAdjust="spacing" textLength="174.5332" x="74.6289" y="400.5313">LegitimateInterestAssessment</text><line style="stroke:#181818;stroke-width:1.5;" x1="54.6289" x2="54.6289" y1="118.2656" y2="395.9961"/><line style="stroke:#181818;stroke-width:1.5;" x1="385.0127" x2="385.0127" y1="64.1328" y2="84.1328"/><rect fill="#F1F1F1" height="34.1328" style="stroke:#181818;stroke-width:1.5;" width="114.5293" x="327.748" y="84.1328"/><text fill="#000000" font-family="sans-serif" font-size="12" lengthAdjust="spacing" textLength="94.5293" x="337.748" y="105.7344">CertificationSeal</text><line style="stroke:#181818;stroke-width:1.5;" x1="385.0127" x2="395.0127" y1="150.332" y2="150.332"/><rect fill="#F1F1F1" height="34.1328" style="stroke:#181818;stroke-width:1.5;" width="91.2852" x="395.0127" y="133.2656"/><text fill="#000000" font-family="sans-serif" font-size="12" lengthAdjust="spacing" textLength="71.2852" x="405.0127" y="154.8672">Certification</text><line style="stroke:#181818;stroke-width:1.5;" x1="385.0127" x2="395.0127" y1="199.4648" y2="199.4648"/><rect fill="#F1F1F1" height="34.1328" style="stroke:#181818;stroke-width:1.5;" width="43.2441" x="395.0127" y="182.3984"/><text fill="#000000" font-family="sans-serif" font-size="12" lengthAdjust="spacing" textLength="23.2441" x="405.0127" y="204">Seal</text><line style="stroke:#181818;stroke-width:1.5;" x1="385.0127" x2="385.0127" y1="118.2656" y2="199.4648"/><line style="stroke:#181818;stroke-width:1.5;" x1="553.3203" x2="553.3203" y1="64.1328" y2="84.1328"/><rect fill="#F1F1F1" height="34.1328" style="stroke:#181818;stroke-width:1.5;" width="94.0449" x="506.2979" y="84.1328"/><text fill="#000000" font-family="sans-serif" font-size="12" lengthAdjust="spacing" textLength="74.0449" x="516.2979" y="105.7344">Consultation</text><line style="stroke:#181818;stroke-width:1.5;" x1="553.3203" x2="563.3203" y1="150.332" y2="150.332"/><rect fill="#F1F1F1" height="34.1328" style="stroke:#181818;stroke-width:1.5;" width="173.8848" x="563.3203" y="133.2656"/><text fill="#000000" font-family="sans-serif" font-size="12" lengthAdjust="spacing" textLength="153.8848" x="573.3203" y="154.8672">ConsultationWithAuthority</text><line style="stroke:#181818;stroke-width:1.5;" x1="553.3203" x2="563.3203" y1="199.4648" y2="199.4648"/><rect fill="#F1F1F1" height="34.1328" style="stroke:#181818;stroke-width:1.5;" width="188.8789" x="563.3203" y="182.3984"/><text fill="#000000" font-family="sans-serif" font-size="12" lengthAdjust="spacing" textLength="168.8789" x="573.3203" y="204">ConsultationWithDataSubject</text><line style="stroke:#181818;stroke-width:1.5;" x1="553.3203" x2="563.3203" y1="248.5977" y2="248.5977"/><rect fill="#F1F1F1" height="34.1328" style="stroke:#181818;stroke-width:1.5;" width="144.6582" x="563.3203" y="231.5313"/><text fill="#000000" font-family="sans-serif" font-size="12" lengthAdjust="spacing" textLength="124.6582" x="573.3203" y="253.1328">ConsultationWithDPO</text><line style="stroke:#181818;stroke-width:1.5;" x1="553.3203" x2="553.3203" y1="118.2656" y2="248.5977"/><line style="stroke:#181818;stroke-width:1.5;" x1="823.6924" x2="823.6924" y1="64.1328" y2="84.1328"/><rect fill="#F1F1F1" height="34.1328" style="stroke:#181818;stroke-width:1.5;" width="102.9863" x="772.1992" y="84.1328"/><text fill="#000000" font-family="sans-serif" font-size="12" lengthAdjust="spacing" textLength="82.9863" x="782.1992" y="105.7344">DigitalLiteracy</text><line style="stroke:#181818;stroke-width:1.5;" x1="823.6924" x2="833.6924" y1="150.332" y2="150.332"/><rect fill="#F1F1F1" height="34.1328" style="stroke:#181818;stroke-width:1.5;" width="76.7305" x="833.6924" y="133.2656"/><text fill="#000000" font-family="sans-serif" font-size="12" lengthAdjust="spacing" textLength="56.7305" x="843.6924" y="154.8672">AILiteracy</text><line style="stroke:#181818;stroke-width:1.5;" x1="823.6924" x2="833.6924" y1="199.4648" y2="199.4648"/><rect fill="#F1F1F1" height="34.1328" style="stroke:#181818;stroke-width:1.5;" width="91.7246" x="833.6924" y="182.3984"/><text fill="#000000" font-family="sans-serif" font-size="12" lengthAdjust="spacing" textLength="71.7246" x="843.6924" y="204">DataLiteracy</text><line style="stroke:#181818;stroke-width:1.5;" x1="823.6924" x2="823.6924" y1="118.2656" y2="199.4648"/><line style="stroke:#181818;stroke-width:1.5;" x1="1021.748" x2="1021.748" y1="64.1328" y2="84.1328"/><rect fill="#F1F1F1" height="34.1328" style="stroke:#181818;stroke-width:1.5;" width="152.6621" x="945.417" y="84.1328"/><text fill="#000000" font-family="sans-serif" font-size="12" lengthAdjust="spacing" textLength="132.6621" x="955.417" y="105.7344">GovernanceProcedures</text><line style="stroke:#181818;stroke-width:1.5;" x1="1021.748" x2="1031.748" y1="150.332" y2="150.332"/><rect fill="#F1F1F1" height="34.1328" style="stroke:#181818;stroke-width:1.5;" width="191.1758" x="1031.748" y="133.2656"/><text fill="#000000" font-family="sans-serif" font-size="12" lengthAdjust="spacing" textLength="171.1758" x="1041.748" y="154.8672">AssetManagementProcedures</text><line style="stroke:#181818;stroke-width:1.5;" x1="1021.748" x2="1031.748" y1="199.4648" y2="199.4648"/><rect fill="#F1F1F1" height="34.1328" style="stroke:#181818;stroke-width:1.5;" width="152.0645" x="1031.748" y="182.3984"/><text fill="#000000" font-family="sans-serif" font-size="12" lengthAdjust="spacing" textLength="132.0645" x="1041.748" y="204">ComplianceMonitoring</text><line style="stroke:#181818;stroke-width:1.5;" x1="1021.748" x2="1031.748" y1="248.5977" y2="248.5977"/><rect fill="#F1F1F1" height="34.1328" style="stroke:#181818;stroke-width:1.5;" width="183.7285" x="1031.748" y="231.5313"/><text fill="#000000" font-family="sans-serif" font-size="12" lengthAdjust="spacing" textLength="163.7285" x="1041.748" y="253.1328">DisasterRecoveryProcedures</text><line style="stroke:#181818;stroke-width:1.5;" x1="1021.748" x2="1031.748" y1="297.7305" y2="297.7305"/><rect fill="#F1F1F1" height="34.1328" style="stroke:#181818;stroke-width:1.5;" width="206.1816" x="1031.748" y="280.6641"/><text fill="#000000" font-family="sans-serif" font-size="12" lengthAdjust="spacing" textLength="186.1816" x="1041.748" y="302.2656">IncidentManagementProcedures</text><line style="stroke:#181818;stroke-width:1.5;" x1="1021.748" x2="1031.748" y1="346.8633" y2="346.8633"/><rect fill="#F1F1F1" height="34.1328" style="stroke:#181818;stroke-width:1.5;" width="215.6797" x="1031.748" y="329.7969"/><text fill="#000000" font-family="sans-serif" font-size="12" lengthAdjust="spacing" textLength="195.6797" x="1041.748" y="351.3984">IncidentReportingCommunication</text><line style="stroke:#181818;stroke-width:1.5;" x1="1021.748" x2="1031.748" y1="395.9961" y2="395.9961"/><rect fill="#F1F1F1" height="34.1328" style="stroke:#181818;stroke-width:1.5;" width="53.3574" x="1031.748" y="378.9297"/><text fill="#000000" font-family="sans-serif" font-size="12" lengthAdjust="spacing" textLength="33.3574" x="1041.748" y="400.5313">Policy</text><line style="stroke:#181818;stroke-width:1.5;" x1="1021.748" x2="1031.748" y1="445.1289" y2="445.1289"/><rect fill="#F1F1F1" height="34.1328" style="stroke:#181818;stroke-width:1.5;" width="118.2266" x="1031.748" y="428.0625"/><text fill="#000000" font-family="sans-serif" font-size="12" lengthAdjust="spacing" textLength="98.2266" x="1041.748" y="449.6641">ReviewProcedure</text><line style="stroke:#181818;stroke-width:1.5;" x1="1021.748" x2="1031.748" y1="494.2617" y2="494.2617"/><rect fill="#F1F1F1" height="34.1328" style="stroke:#181818;stroke-width:1.5;" width="155.709" x="1031.748" y="477.1953"/><text fill="#000000" font-family="sans-serif" font-size="12" lengthAdjust="spacing" textLength="135.709" x="1041.748" y="498.7969">StandardsConformance</text><line style="stroke:#181818;stroke-width:1.5;" x1="1021.748" x2="1021.748" y1="118.2656" y2="494.2617"/><line style="stroke:#181818;stroke-width:1.5;" x1="1332.8252" x2="1332.8252" y1="64.1328" y2="84.1328"/><rect fill="#F1F1F1" height="34.1328" style="stroke:#181818;stroke-width:1.5;" width="130.7949" x="1267.4277" y="84.1328"/><text fill="#000000" font-family="sans-serif" font-size="12" lengthAdjust="spacing" textLength="110.7949" x="1277.4277" y="105.7344">GuidelinesPrinciple</text><line style="stroke:#181818;stroke-width:1.5;" x1="1332.8252" x2="1342.8252" y1="150.332" y2="150.332"/><rect fill="#F1F1F1" height="34.1328" style="stroke:#181818;stroke-width:1.5;" width="112.4023" x="1342.8252" y="133.2656"/><text fill="#000000" font-family="sans-serif" font-size="12" lengthAdjust="spacing" textLength="92.4023" x="1352.8252" y="154.8672">CodeOfConduct</text><line style="stroke:#181818;stroke-width:1.5;" x1="1332.8252" x2="1342.8252" y1="199.4648" y2="199.4648"/><rect fill="#F1F1F1" height="34.1328" style="stroke:#181818;stroke-width:1.5;" width="111.8574" x="1342.8252" y="182.3984"/><text fill="#000000" font-family="sans-serif" font-size="12" lengthAdjust="spacing" textLength="91.8574" x="1352.8252" y="204">DesignStandard</text><line style="stroke:#181818;stroke-width:1.5;" x1="1332.8252" x2="1342.8252" y1="248.5977" y2="248.5977"/><rect fill="#F1F1F1" height="34.1328" style="stroke:#181818;stroke-width:1.5;" width="74.8965" x="1342.8252" y="231.5313"/><text fill="#000000" font-family="sans-serif" font-size="12" lengthAdjust="spacing" textLength="54.8965" x="1352.8252" y="253.1328">Guideline</text><line style="stroke:#181818;stroke-width:1.5;" x1="1332.8252" x2="1342.8252" y1="297.7305" y2="297.7305"/><rect fill="#F1F1F1" height="34.1328" style="stroke:#181818;stroke-width:1.5;" width="69.7813" x="1342.8252" y="280.6641"/><text fill="#000000" font-family="sans-serif" font-size="12" lengthAdjust="spacing" textLength="49.7813" x="1352.8252" y="302.2656">Principle</text><line style="stroke:#181818;stroke-width:1.5;" x1="1332.8252" x2="1342.8252" y1="346.8633" y2="346.8633"/><rect fill="#F1F1F1" height="34.1328" style="stroke:#181818;stroke-width:1.5;" width="115.5547" x="1342.8252" y="329.7969"/><text fill="#000000" font-family="sans-serif" font-size="12" lengthAdjust="spacing" textLength="95.5547" x="1352.8252" y="351.3984">PrivacyByDefault</text><line style="stroke:#181818;stroke-width:1.5;" x1="1332.8252" x2="1342.8252" y1="395.9961" y2="395.9961"/><rect fill="#F1F1F1" height="34.1328" style="stroke:#181818;stroke-width:1.5;" width="113.627" x="1342.8252" y="378.9297"/><text fill="#000000" font-family="sans-serif" font-size="12" lengthAdjust="spacing" textLength="93.627" x="1352.8252" y="400.5313">PrivacyByDesign</text><line style="stroke:#181818;stroke-width:1.5;" x1="1332.8252" x2="1332.8252" y1="118.2656" y2="395.9961"/><line style="stroke:#181818;stroke-width:1.5;" x1="1506.8926" x2="1506.8926" y1="64.1328" y2="84.1328"/><rect fill="#F1F1F1" height="34.1328" style="stroke:#181818;stroke-width:1.5;" width="57.0254" x="1478.3799" y="84.1328"/><text fill="#000000" font-family="sans-serif" font-size="12" lengthAdjust="spacing" textLength="37.0254" x="1488.3799" y="105.7344">Notice</text><line style="stroke:#181818;stroke-width:1.5;" x1="1506.8926" x2="1516.8926" y1="150.332" y2="150.332"/><rect fill="#F1F1F1" height="34.1328" style="stroke:#181818;stroke-width:1.5;" width="132.4531" x="1516.8926" y="133.2656"/><text fill="#000000" font-family="sans-serif" font-size="12" lengthAdjust="spacing" textLength="112.4531" x="1526.8926" y="154.8672">DataTransferNotice</text><line style="stroke:#181818;stroke-width:1.5;" x1="1506.8926" x2="1516.8926" y1="199.4648" y2="199.4648"/><rect fill="#F1F1F1" height="34.1328" style="stroke:#181818;stroke-width:1.5;" width="97.291" x="1516.8926" y="182.3984"/><text fill="#000000" font-family="sans-serif" font-size="12" lengthAdjust="spacing" textLength="77.291" x="1526.8926" y="204">PrivacyNotice</text><line style="stroke:#181818;stroke-width:1.5;" x1="1506.8926" x2="1516.8926" y1="248.5977" y2="248.5977"/><rect fill="#F1F1F1" height="34.1328" style="stroke:#181818;stroke-width:1.5;" width="149.5977" x="1516.8926" y="231.5313"/><text fill="#000000" font-family="sans-serif" font-size="12" lengthAdjust="spacing" textLength="129.5977" x="1526.8926" y="253.1328">SecurityIncidentNotice</text><line style="stroke:#181818;stroke-width:1.5;" x1="1506.8926" x2="1506.8926" y1="118.2656" y2="248.5977"/><line style="stroke:#181818;stroke-width:1.5;" x1="1730.3018" x2="1730.3018" y1="64.1328" y2="84.1328"/><rect fill="#F1F1F1" height="34.1328" style="stroke:#181818;stroke-width:1.5;" width="87.623" x="1686.4902" y="84.1328"/><text fill="#000000" font-family="sans-serif" font-size="12" lengthAdjust="spacing" textLength="67.623" x="1696.4902" y="105.7344">Notification</text><line style="stroke:#181818;stroke-width:1.5;" x1="1730.3018" x2="1740.3018" y1="150.332" y2="150.332"/><rect fill="#F1F1F1" height="34.1328" style="stroke:#181818;stroke-width:1.5;" width="180.1953" x="1740.3018" y="133.2656"/><text fill="#000000" font-family="sans-serif" font-size="12" lengthAdjust="spacing" textLength="160.1953" x="1750.3018" y="154.8672">SecurityIncidentNotification</text><line style="stroke:#181818;stroke-width:1.5;" x1="1730.3018" x2="1730.3018" y1="118.2656" y2="150.332"/><line style="stroke:#181818;stroke-width:1.5;" x1="2006.9609" x2="2006.9609" y1="64.1328" y2="84.1328"/><rect fill="#F1F1F1" height="34.1328" style="stroke:#181818;stroke-width:1.5;" width="132.9277" x="1940.4971" y="84.1328"/><text fill="#000000" font-family="sans-serif" font-size="12" lengthAdjust="spacing" textLength="112.9277" x="1950.4971" y="105.7344">RecordsOfActivities</text><line style="stroke:#181818;stroke-width:1.5;" x1="2006.9609" x2="2016.9609" y1="150.332" y2="150.332"/><rect fill="#F1F1F1" height="34.1328" style="stroke:#181818;stroke-width:1.5;" width="125.7031" x="2016.9609" y="133.2656"/><text fill="#000000" font-family="sans-serif" font-size="12" lengthAdjust="spacing" textLength="105.7031" x="2026.9609" y="154.8672">DataBreachRecord</text><line style="stroke:#181818;stroke-width:1.5;" x1="2006.9609" x2="2016.9609" y1="199.4648" y2="199.4648"/><rect fill="#F1F1F1" height="34.1328" style="stroke:#181818;stroke-width:1.5;" width="149.3633" x="2016.9609" y="182.3984"/><text fill="#000000" font-family="sans-serif" font-size="12" lengthAdjust="spacing" textLength="129.3633" x="2026.9609" y="204">DataProcessingRecord</text><line style="stroke:#181818;stroke-width:1.5;" x1="2006.9609" x2="2016.9609" y1="248.5977" y2="248.5977"/><rect fill="#F1F1F1" height="34.1328" style="stroke:#181818;stroke-width:1.5;" width="152.8262" x="2016.9609" y="231.5313"/><text fill="#000000" font-family="sans-serif" font-size="12" lengthAdjust="spacing" textLength="132.8262" x="2026.9609" y="253.1328">SecurityIncidentRecord</text><line style="stroke:#181818;stroke-width:1.5;" x1="2006.9609" x2="2006.9609" y1="118.2656" y2="248.5977"/><line style="stroke:#181818;stroke-width:1.5;" x1="2255.5977" x2="2255.5977" y1="64.1328" y2="84.1328"/><rect fill="#F1F1F1" height="34.1328" style="stroke:#181818;stroke-width:1.5;" width="131.6211" x="2189.7871" y="84.1328"/><text fill="#000000" font-family="sans-serif" font-size="12" lengthAdjust="spacing" textLength="111.6211" x="2199.7871" y="105.7344">RightsManagement</text><line style="stroke:#181818;stroke-width:1.5;" x1="2255.5977" x2="2265.5977" y1="150.332" y2="150.332"/><rect fill="#F1F1F1" height="34.1328" style="stroke:#181818;stroke-width:1.5;" width="200.7852" x="2265.5977" y="133.2656"/><text fill="#000000" font-family="sans-serif" font-size="12" lengthAdjust="spacing" textLength="180.7852" x="2275.5977" y="154.8672">DataSubjectRightsManagement</text><line style="stroke:#181818;stroke-width:1.5;" x1="2255.5977" x2="2265.5977" y1="199.4648" y2="199.4648"/><rect fill="#F1F1F1" height="34.1328" style="stroke:#181818;stroke-width:1.5;" width="112.707" x="2265.5977" y="182.3984"/><text fill="#000000" font-family="sans-serif" font-size="12" lengthAdjust="spacing" textLength="92.707" x="2275.5977" y="204">IPRManagement</text><line style="stroke:#181818;stroke-width:1.5;" x1="2255.5977" x2="2265.5977" y1="248.5977" y2="248.5977"/><rect fill="#F1F1F1" height="34.1328" style="stroke:#181818;stroke-width:1.5;" width="158.4512" x="2265.5977" y="231.5313"/><text fill="#000000" font-family="sans-serif" font-size="12" lengthAdjust="spacing" textLength="138.4512" x="2275.5977" y="253.1328">PermissionManagement</text><line style="stroke:#181818;stroke-width:1.5;" x1="2255.5977" x2="2255.5977" y1="118.2656" y2="248.5977"/><line style="stroke:#181818;stroke-width:1.5;" x1="2525.4863" x2="2525.4863" y1="64.1328" y2="84.1328"/><rect fill="#F1F1F1" height="34.1328" style="stroke:#181818;stroke-width:1.5;" width="78.207" x="2486.3828" y="84.1328"/><text fill="#000000" font-family="sans-serif" font-size="12" lengthAdjust="spacing" textLength="58.207" x="2496.3828" y="105.7344">Safeguard</text><line style="stroke:#181818;stroke-width:1.5;" x1="2525.4863" x2="2535.4863" y1="150.332" y2="150.332"/><rect fill="#F1F1F1" height="34.1328" style="stroke:#181818;stroke-width:1.5;" width="132.7109" x="2535.4863" y="133.2656"/><text fill="#000000" font-family="sans-serif" font-size="12" lengthAdjust="spacing" textLength="112.7109" x="2545.4863" y="154.8672">RegulatorySandbox</text><line style="stroke:#181818;stroke-width:1.5;" x1="2525.4863" x2="2535.4863" y1="199.4648" y2="199.4648"/><rect fill="#F1F1F1" height="34.1328" style="stroke:#181818;stroke-width:1.5;" width="172.3496" x="2535.4863" y="182.3984"/><text fill="#000000" font-family="sans-serif" font-size="12" lengthAdjust="spacing" textLength="152.3496" x="2545.4863" y="204">SafeguardForDataTransfer</text><line style="stroke:#181818;stroke-width:1.5;" x1="2525.4863" x2="2525.4863" y1="118.2656" y2="199.4648"/><line style="stroke:#181818;stroke-width:1.5;" x1="2789.9463" x2="2789.9463" y1="64.1328" y2="84.1328"/><rect fill="#F1F1F1" height="34.1328" style="stroke:#181818;stroke-width:1.5;" width="124.2207" x="2727.8359" y="84.1328"/><text fill="#000000" font-family="sans-serif" font-size="12" lengthAdjust="spacing" textLength="104.2207" x="2737.8359" y="105.7344">SecurityProcedure</text><line style="stroke:#181818;stroke-width:1.5;" x1="2789.9463" x2="2799.9463" y1="150.332" y2="150.332"/><rect fill="#F1F1F1" height="34.1328" style="stroke:#181818;stroke-width:1.5;" width="157.2734" x="2799.9463" y="133.2656"/><text fill="#000000" font-family="sans-serif" font-size="12" lengthAdjust="spacing" textLength="137.2734" x="2809.9463" y="154.8672">AuthorisationProcedure</text><line style="stroke:#181818;stroke-width:1.5;" x1="2789.9463" x2="2799.9463" y1="199.4648" y2="199.4648"/><rect fill="#F1F1F1" height="34.1328" style="stroke:#181818;stroke-width:1.5;" width="130.6133" x="2799.9463" y="182.3984"/><text fill="#000000" font-family="sans-serif" font-size="12" lengthAdjust="spacing" textLength="110.6133" x="2809.9463" y="204">BackgroundChecks</text><line style="stroke:#181818;stroke-width:1.5;" x1="2789.9463" x2="2799.9463" y1="248.5977" y2="248.5977"/><rect fill="#F1F1F1" height="34.1328" style="stroke:#181818;stroke-width:1.5;" width="167.6387" x="2799.9463" y="231.5313"/><text fill="#000000" font-family="sans-serif" font-size="12" lengthAdjust="spacing" textLength="147.6387" x="2809.9463" y="253.1328">DataSecurityManagement</text><line style="stroke:#181818;stroke-width:1.5;" x1="2789.9463" x2="2799.9463" y1="297.7305" y2="297.7305"/><rect fill="#F1F1F1" height="34.1328" style="stroke:#181818;stroke-width:1.5;" width="193.9004" x="2799.9463" y="280.6641"/><text fill="#000000" font-family="sans-serif" font-size="12" lengthAdjust="spacing" textLength="173.9004" x="2809.9463" y="302.2656">SecureProcessingEnvironment</text><line style="stroke:#181818;stroke-width:1.5;" x1="2789.9463" x2="2799.9463" y1="346.8633" y2="346.8633"/><rect fill="#F1F1F1" height="34.1328" style="stroke:#181818;stroke-width:1.5;" width="155.4512" x="2799.9463" y="329.7969"/><text fill="#000000" font-family="sans-serif" font-size="12" lengthAdjust="spacing" textLength="135.4512" x="2809.9463" y="351.3984">SecurityRoleProcedures</text><line style="stroke:#181818;stroke-width:1.5;" x1="2789.9463" x2="2799.9463" y1="395.9961" y2="395.9961"/><rect fill="#F1F1F1" height="34.1328" style="stroke:#181818;stroke-width:1.5;" width="190.2324" x="2799.9463" y="378.9297"/><text fill="#000000" font-family="sans-serif" font-size="12" lengthAdjust="spacing" textLength="170.2324" x="2809.9463" y="400.5313">ThirdPartySecurityProcedures</text><line style="stroke:#181818;stroke-width:1.5;" x1="2789.9463" x2="2789.9463" y1="118.2656" y2="395.9961"/><line style="stroke:#181818;stroke-width:1.5;" x1="3061.2676" x2="3061.2676" y1="64.1328" y2="84.1328"/><rect fill="#F1F1F1" height="34.1328" style="stroke:#181818;stroke-width:1.5;" width="94.8418" x="3013.8467" y="84.1328"/><text fill="#000000" font-family="sans-serif" font-size="12" lengthAdjust="spacing" textLength="74.8418" x="3023.8467" y="105.7344">StaffTraining</text><line style="stroke:#181818;stroke-width:1.5;" x1="3061.2676" x2="3071.2676" y1="150.332" y2="150.332"/><rect fill="#F1F1F1" height="34.1328" style="stroke:#181818;stroke-width:1.5;" width="147.6934" x="3071.2676" y="133.2656"/><text fill="#000000" font-family="sans-serif" font-size="12" lengthAdjust="spacing" textLength="127.6934" x="3081.2676" y="154.8672">CybersecurityTraining</text><line style="stroke:#181818;stroke-width:1.5;" x1="3061.2676" x2="3071.2676" y1="199.4648" y2="199.4648"/><rect fill="#F1F1F1" height="34.1328" style="stroke:#181818;stroke-width:1.5;" width="154.1797" x="3071.2676" y="182.3984"/><text fill="#000000" font-family="sans-serif" font-size="12" lengthAdjust="spacing" textLength="134.1797" x="3081.2676" y="204">DataProtectionTraining</text><line style="stroke:#181818;stroke-width:1.5;" x1="3061.2676" x2="3071.2676" y1="248.5977" y2="248.5977"/><rect fill="#F1F1F1" height="34.1328" style="stroke:#181818;stroke-width:1.5;" width="135.5879" x="3071.2676" y="231.5313"/><text fill="#000000" font-family="sans-serif" font-size="12" lengthAdjust="spacing" textLength="115.5879" x="3081.2676" y="253.1328">EducationalTraining</text><line style="stroke:#181818;stroke-width:1.5;" x1="3061.2676" x2="3071.2676" y1="297.7305" y2="297.7305"/><rect fill="#F1F1F1" height="34.1328" style="stroke:#181818;stroke-width:1.5;" width="139.0684" x="3071.2676" y="280.6641"/><text fill="#000000" font-family="sans-serif" font-size="12" lengthAdjust="spacing" textLength="119.0684" x="3081.2676" y="302.2656">ProfessionalTraining</text><line style="stroke:#181818;stroke-width:1.5;" x1="3061.2676" x2="3071.2676" y1="346.8633" y2="346.8633"/><rect fill="#F1F1F1" height="34.1328" style="stroke:#181818;stroke-width:1.5;" width="178.0918" x="3071.2676" y="329.7969"/><text fill="#000000" font-family="sans-serif" font-size="12" lengthAdjust="spacing" textLength="158.0918" x="3081.2676" y="351.3984">SecurityKnowledgeTraining</text><line style="stroke:#181818;stroke-width:1.5;" x1="3061.2676" x2="3061.2676" y1="118.2656" y2="346.8633"/><line style="stroke:#181818;stroke-width:1.5;" x1="3364.6191" x2="3364.6191" y1="64.1328" y2="84.1328"/><rect fill="#F1F1F1" height="34.1328" style="stroke:#181818;stroke-width:1.5;" width="190.5195" x="3269.3594" y="84.1328"/><text fill="#000000" font-family="sans-serif" font-size="12" lengthAdjust="spacing" textLength="170.5195" x="3279.3594" y="105.7344">SupportEntityDecisionMaking</text><line style="stroke:#181818;stroke-width:1.5;" x1="3364.6191" x2="3374.6191" y1="150.332" y2="150.332"/><rect fill="#F1F1F1" height="34.1328" style="stroke:#181818;stroke-width:1.5;" width="183.3301" x="3374.6191" y="133.2656"/><text fill="#000000" font-family="sans-serif" font-size="12" lengthAdjust="spacing" textLength="163.3301" x="3384.6191" y="154.8672">SupportContractNegotiation</text><line style="stroke:#181818;stroke-width:1.5;" x1="3364.6191" x2="3374.6191" y1="199.4648" y2="199.4648"/><rect fill="#F1F1F1" height="34.1328" style="stroke:#181818;stroke-width:1.5;" width="168.582" x="3374.6191" y="182.3984"/><text fill="#000000" font-family="sans-serif" font-size="12" lengthAdjust="spacing" textLength="148.582" x="3384.6191" y="204">SupportExchangeOfViews</text><line style="stroke:#181818;stroke-width:1.5;" x1="3364.6191" x2="3374.6191" y1="248.5977" y2="248.5977"/><rect fill="#F1F1F1" height="34.1328" style="stroke:#181818;stroke-width:1.5;" width="216.377" x="3374.6191" y="231.5313"/><text fill="#000000" font-family="sans-serif" font-size="12" lengthAdjust="spacing" textLength="196.377" x="3384.6191" y="253.1328">SupportInformedConsentDecision</text><line style="stroke:#181818;stroke-width:1.5;" x1="3364.6191" x2="3364.6191" y1="118.2656" y2="248.5977"/><line style="stroke:#181818;stroke-width:1.5;" x1="54.6289" x2="3364.6191" y1="64.1328" y2="64.1328"/><rect fill="#F1F1F1" height="34.1328" style="stroke:#181818;stroke-width:1.5;" width="153.6816" x="1632.7832" y="10"/><text fill="#000000" font-family="sans-serif" font-size="12" lengthAdjust="spacing" textLength="133.6816" x="1642.7832" y="31.6016">OrganisationalMeasure</text><line style="stroke:#181818;stroke-width:1.5;" x1="1709.624" x2="1709.624" y1="44.1328" y2="64.1328"/><!--SRC=[TLN9Sk8m4BtxAtHCgCfKbaaonIbieI0GF8Papa9k6qrCYz92mjzFomlO3dF3_LfFhrztYoTZkRQVQnC47RRGAKTfk9KAUJO7Rfo6eDDXFMF0c2sWfQyE6wZjBfCS1Nm3C55wUmOPSiidQ46h7MY-bfcqXpCflnq_WuoI18ILUq2A3e5OjX9pbQ5M0c9IQVB46QJIoYstaDy5nZQOs02qbOaK-TabyAnGNO_caHBozHYNsHDG3_oHTjDpTgCqAJwB-egMRlsNn9_7muM_PIX9DSzcaYHpKL3r9erFprGBiB7QWqRlSyi1Nw-TS-Gf-A9RwAbnSuNIad9C2txgkY7w28HdFhJEJL38cEZ-IrmbHB1JP2QcTDFMOTtJK6Moh2Q2lOJF8qLXkUKOSnsRsWpbbJeYpYHrFYIrGkuoA4k9OP5GSknATuTWP8eLJnuw7YuKD0ZeQqzkzWz3I3XrfHtqP5x0gx9ImB4BAytH9A1huV9GBR84uVnKLBOSePojDMhVKsi9p7U4N5aaFRy1DDsburvBNmCNcoBZ6CnjDOPwK0FQjnmX5ibqOysfiKUUSd3FufCmQaL2lvDqgy86m9OyWTHL_OZeTyPfxWvBwj9QVHNYgfndfUiM1pNXpM4fryuqtu0SwdFnaMhbC1viG7oSpAgOMiBpC9nC6-5UQeLDd8v5AcllsceZTHpIytdufj84nKWd2HKZiLgpmM4DsfJ93QJidFNldC86DA89Bv_aHfpI4yWjRm6LcXTKdnd4ATHGjdGxlw8Zj9Gn126BddqS3nSuBPQbnyQ-Gae3MHlNylYNs71CQGFVQPDD7PhawmknV-p8nEgA87W2ZFC_cZ3ZQD_cCqOlZOVOpO_Rwzlx7zSNAmTiof5TFxARn-xTVVVkWOtdA-RXo-1Y7CwOKKuBOB4qLikryy8kWodVSnOvgcaBNRRO0Kw7BrM0rLiwVP-V4Xv-NlMb9RyqAM7lyw1y2kY4K34vqcLlg-UhNy6CQdKqDLq660nekAm-TDcu_my0]--></g></svg>