<svg xmlns="http://www.w3.org/2000/svg" xmlns:xlink="http://www.w3.org/1999/xlink" contentStyleType="text/css" data-diagram-type="CLASS" height="116px" preserveAspectRatio="none" style="width:879px;height:116px;background:#FFFFFF;" version="1.1" viewBox="0 0 879 116" width="879px" zoomAndPan="magnify"><defs/><g><!--cluster dpv--><g id="cluster_dpv"><path d="M229.51,6 L257.3684,6 A3.75,3.75 0 0 1 259.8684,8.5 L266.8684,28.4883 L869.71,28.4883 A2.5,2.5 0 0 1 872.21,30.9883 L872.21,106.5 A2.5,2.5 0 0 1 869.71,109 L229.51,109 A2.5,2.5 0 0 1 227.01,106.5 L227.01,8.5 A2.5,2.5 0 0 1 229.51,6 " fill="transparent" style="stroke:#000000;stroke-width:1.5;"/><line style="stroke:#000000;stroke-width:1.5;" x1="227.01" x2="266.8684" y1="28.4883" y2="28.4883"/><text fill="#000000" font-family="sans-serif" font-size="14" font-weight="bold" lengthAdjust="spacing" textLength="26.8584" x="231.01" y="21.5352">dpv</text></g><!--class Representative--><g id="elem_Representative"><rect codeLine="7" fill="#F1F1F1" height="26.4883" id="Representative" rx="2.5" ry="2.5" style="stroke:#181818;stroke-width:0.5;" width="105.9141" x="537.35" y="44.76"/><text fill="#000000" font-family="sans-serif" font-size="14" lengthAdjust="spacing" textLength="99.9141" x="540.35" y="63.2952">Representative</text></g><!--class DataController--><g id="elem_DataController"><rect codeLine="8" fill="#F1F1F1" height="26.4883" id="DataController" rx="2.5" ry="2.5" style="stroke:#181818;stroke-width:0.5;" width="105.3467" x="243.01" y="44.76"/><text fill="#000000" font-family="sans-serif" font-size="14" lengthAdjust="spacing" textLength="99.3467" x="246.01" y="63.2952">DataController</text></g><!--class DataProtectionOfficer--><g id="elem_DataProtectionOfficer"><rect codeLine="9" fill="#F1F1F1" height="26.4883" id="DataProtectionOfficer" rx="2.5" ry="2.5" style="stroke:#181818;stroke-width:0.5;" width="151.9473" x="704.27" y="44.76"/><text fill="#000000" font-family="sans-serif" font-size="14" lengthAdjust="spacing" textLength="145.9473" x="707.27" y="63.2952">DataProtectionOfficer</text></g><!--class Thing--><g id="elem_Thing"><rect codeLine="5" fill="#C0C0C0" height="26.4883" id="Thing" rx="2.5" ry="2.5" style="stroke:#181818;stroke-width:0.5;" width="45.0059" x="7" y="44.76"/><text fill="#000000" font-family="sans-serif" font-size="14" lengthAdjust="spacing" textLength="39.0059" x="10" y="63.2952">Thing</text></g><!--link Thing to DataController--><g id="link_Thing_DataController"><path codeLine="11" d="M52.12,58 C93.4,58 184.5,58 242.56,58 " fill="transparent" id="Thing-DataController" style="stroke:#181818;stroke-width:1;"/><polygon fill="#000000" points="92.01,49.6553,82.9649,46.7163,82.9649,52.5942,92.01,49.6553" style="stroke:#000000;stroke-width:1;"/><text fill="#000000" font-family="sans-serif" font-size="13" lengthAdjust="spacing" textLength="114.1245" x="96.01" y="54.5684">hasDataController</text></g><!--link DataController to Representative--><g id="link_DataController_Representative"><path codeLine="12" d="M348.66,58 C401.87,58 484.11,58 537.32,58 " fill="transparent" id="DataController-Representative" style="stroke:#181818;stroke-width:1;"/><polygon fill="#000000" points="388.35,49.6553,379.3049,46.7163,379.3049,52.5942,388.35,49.6553" style="stroke:#000000;stroke-width:1;"/><text fill="#000000" font-family="sans-serif" font-size="13" lengthAdjust="spacing" textLength="114.6514" x="392.35" y="54.5684">hasRepresentative</text></g><!--reverse link Representative to DataProtectionOfficer--><g id="link_Representative_DataProtectionOfficer"><path codeLine="13" d="M661.66,58 C680.34,58 683.77,58 703.99,58 " fill="transparent" id="Representative-backto-DataProtectionOfficer" style="stroke:#181818;stroke-width:1;"/><polygon fill="transparent" points="643.66,58,661.66,64,661.66,52,643.66,58" style="stroke:#181818;stroke-width:1;"/></g><!--SRC=[POv13e8m44NNzXHZNBZ20nZZHlSQumLg6M3Yq6dQWSIeTnT54y3j-__b_pbvnqsEaFJ6k0filJOr6yP2GGKYbPL2JX6TadYpL0blVX5LgGU1SMnJWdD5leH58cuncc3TrPO8UMZXRcPzvOGXOaAlLgd57zrRjJln6eMvCmVq64NxaKDHaEl2f-bdicoYhQ6oQOnWQoQWiyONFjOOTTO4R1xVjVyxBm00]--></g></svg>