<svg xmlns="http://www.w3.org/2000/svg" xmlns:xlink="http://www.w3.org/1999/xlink" contentStyleType="text/css" data-diagram-type="CLASS" height="212px" preserveAspectRatio="none" style="width:620px;height:212px;background:#FFFFFF;" version="1.1" viewBox="0 0 620 212" width="620px" zoomAndPan="magnify"><defs/><g><!--cluster dpv--><g id="cluster_dpv"><path d="M204.51,6 L232.3684,6 A3.75,3.75 0 0 1 234.8684,8.5 L241.8684,28.4883 L610.89,28.4883 A2.5,2.5 0 0 1 613.39,30.9883 L613.39,202.5 A2.5,2.5 0 0 1 610.89,205 L204.51,205 A2.5,2.5 0 0 1 202.01,202.5 L202.01,8.5 A2.5,2.5 0 0 1 204.51,6 " fill="transparent" style="stroke:#000000;stroke-width:1.5;"/><line style="stroke:#000000;stroke-width:1.5;" x1="202.01" x2="241.8684" y1="28.4883" y2="28.4883"/><text fill="#000000" font-family="sans-serif" font-size="14" font-weight="bold" lengthAdjust="spacing" textLength="26.8584" x="206.01" y="21.5352">dpv</text></g><!--class Processing--><g id="elem_Processing"><rect codeLine="6" fill="#F1F1F1" height="26.4883" id="Processing" rx="2.5" ry="2.5" style="stroke:#181818;stroke-width:0.5;" width="78.7754" x="218.01" y="73.76"/><text fill="#000000" font-family="sans-serif" font-size="14" lengthAdjust="spacing" textLength="72.7754" x="221.01" y="92.2952">Processing</text></g><!--class DataSource--><g id="elem_DataSource"><rect codeLine="7" fill="#F1F1F1" height="26.4883" id="DataSource" rx="2.5" ry="2.5" style="stroke:#181818;stroke-width:0.5;" width="82.7129" x="489.73" y="40.76"/><text fill="#000000" font-family="sans-serif" font-size="14" lengthAdjust="spacing" textLength="76.7129" x="492.73" y="59.2952">DataSource</text></g><!--class ProcessingContext--><g id="elem_ProcessingContext"><rect codeLine="8" fill="#F1F1F1" height="26.4883" id="ProcessingContext" rx="2.5" ry="2.5" style="stroke:#181818;stroke-width:0.5;" width="132.6084" x="464.78" y="101.76"/><text fill="#000000" font-family="sans-serif" font-size="14" lengthAdjust="spacing" textLength="126.6084" x="467.78" y="120.2952">ProcessingContext</text></g><!--class Context--><g id="elem_Context"><rect codeLine="9" fill="#F1F1F1" height="26.4883" id="Context" rx="2.5" ry="2.5" style="stroke:#181818;stroke-width:0.5;" width="59.833" x="501.17" y="162.76"/><text fill="#000000" font-family="sans-serif" font-size="14" lengthAdjust="spacing" textLength="53.833" x="504.17" y="181.2952">Context</text></g><!--class Thing--><g id="elem_Thing"><rect codeLine="4" fill="#C0C0C0" height="26.4883" id="Thing" rx="2.5" ry="2.5" style="stroke:#181818;stroke-width:0.5;" width="45.0059" x="7" y="73.76"/><text fill="#000000" font-family="sans-serif" font-size="14" lengthAdjust="spacing" textLength="39.0059" x="10" y="92.2952">Thing</text></g><!--link Thing to Processing--><g id="link_Thing_Processing"><path codeLine="11" d="M52.16,87 C90.26,87 169.74,87 217.54,87 " fill="transparent" id="Thing-Processing" style="stroke:#181818;stroke-width:1;"/><polygon fill="#000000" points="92.01,78.6553,82.9649,75.7163,82.9649,81.5942,92.01,78.6553" style="stroke:#000000;stroke-width:1;"/><text fill="#000000" font-family="sans-serif" font-size="13" lengthAdjust="spacing" textLength="89.4512" x="96.01" y="83.5684">hasProcessing</text></g><!--link Processing to DataSource--><g id="link_Processing_DataSource"><path codeLine="12" d="M297.03,82.31 C348.01,76.11 437.36,65.26 489.36,58.95 " fill="transparent" id="Processing-DataSource" style="stroke:#181818;stroke-width:1;"/><polygon fill="#000000" points="336.7435,56.6724,327.4101,54.8455,328.1188,60.6805,336.7435,56.6724" style="stroke:#000000;stroke-width:1;"/><text fill="#000000" font-family="sans-serif" font-size="13" lengthAdjust="spacing" textLength="93.1074" x="340.78" y="62.1884">hasDataSource</text></g><!--link Processing to ProcessingContext--><g id="link_Processing_ProcessingContext"><path codeLine="13" d="M281.9,100.67 C294.71,107.33 311.11,114.61 326.78,118 C371.98,127.77 424.16,126.75 464.34,123.43 " fill="transparent" id="Processing-ProcessingContext" style="stroke:#181818;stroke-width:1;"/><polygon fill="#000000" points="347.7415,110.2742,339.1299,106.2382,338.4022,112.0708,347.7415,110.2742" style="stroke:#000000;stroke-width:1;"/><text fill="#000000" font-family="sans-serif" font-size="13" lengthAdjust="spacing" textLength="71.8618" x="351.78" y="114.5684">hasContext</text></g><!--reverse link Context to ProcessingContext--><g id="link_Context_ProcessingContext"><path codeLine="14" d="M531.09,144.66 C531.09,133.24 531.09,139.82 531.09,128.4 " fill="transparent" id="Context-backto-ProcessingContext" style="stroke:#181818;stroke-width:1;"/><polygon fill="transparent" points="531.09,162.66,537.09,144.66,525.09,144.66,531.09,162.66" style="stroke:#181818;stroke-width:1;"/></g><!--SRC=[RSvH2i8m383XPtEAYC_p029xqGC8Ue7GnQqOsz5aGr7lxd2K3UPR__QZoTe79rt5gFOKthP2mRgxWF3Lq28cNpU6bK_ipCS0u8HKyTBuKED6lVISe2LtevgnQdjymMeafnGTgmuktnp9w1oxv7Xf3Z4OFom_vFp0EAaePXPts93EkeHP37GQz9DJBkHYWV7l72Naq_xz1yCN]--></g></svg>