<svg xmlns="http://www.w3.org/2000/svg" xmlns:xlink="http://www.w3.org/1999/xlink" contentStyleType="text/css" data-diagram-type="CLASS" height="151px" preserveAspectRatio="none" style="width:554px;height:151px;background:#FFFFFF;" version="1.1" viewBox="0 0 554 151" width="554px" zoomAndPan="magnify"><defs/><g><!--cluster dpv--><g id="cluster_dpv"><path d="M211.51,6 L239.3684,6 A3.75,3.75 0 0 1 241.8684,8.5 L248.8684,28.4883 L545.38,28.4883 A2.5,2.5 0 0 1 547.88,30.9883 L547.88,141.5 A2.5,2.5 0 0 1 545.38,144 L211.51,144 A2.5,2.5 0 0 1 209.01,141.5 L209.01,8.5 A2.5,2.5 0 0 1 211.51,6 " fill="transparent" style="stroke:#000000;stroke-width:1.5;"/><line style="stroke:#000000;stroke-width:1.5;" x1="209.01" x2="248.8684" y1="28.4883" y2="28.4883"/><text fill="#000000" font-family="sans-serif" font-size="14" font-weight="bold" lengthAdjust="spacing" textLength="26.8584" x="213.01" y="21.5352">dpv</text></g><!--class VulnerableDataSubject--><g id="elem_VulnerableDataSubject"><rect codeLine="7" fill="#F1F1F1" height="26.4883" id="VulnerableDataSubject" rx="2.5" ry="2.5" style="stroke:#181818;stroke-width:0.5;" width="159.1865" x="372.7" y="101.76"/><text fill="#000000" font-family="sans-serif" font-size="14" lengthAdjust="spacing" textLength="153.1865" x="375.7" y="120.2952">VulnerableDataSubject</text></g><!--class DataSubject--><g id="elem_DataSubject"><rect codeLine="8" fill="#F1F1F1" height="26.4883" id="DataSubject" rx="2.5" ry="2.5" style="stroke:#181818;stroke-width:0.5;" width="86.6914" x="225.01" y="71.76"/><text fill="#000000" font-family="sans-serif" font-size="14" lengthAdjust="spacing" textLength="80.6914" x="228.01" y="90.2952">DataSubject</text></g><!--class Child--><g id="elem_Child"><rect codeLine="9" fill="#F1F1F1" height="26.4883" id="Child" rx="2.5" ry="2.5" style="stroke:#181818;stroke-width:0.5;" width="41.2803" x="431.65" y="40.76"/><text fill="#000000" font-family="sans-serif" font-size="14" lengthAdjust="spacing" textLength="35.2803" x="434.65" y="59.2952">Child</text></g><!--class Thing--><g id="elem_Thing"><rect codeLine="5" fill="#C0C0C0" height="26.4883" id="Thing" rx="2.5" ry="2.5" style="stroke:#181818;stroke-width:0.5;" width="45.0059" x="7" y="71.76"/><text fill="#000000" font-family="sans-serif" font-size="14" lengthAdjust="spacing" textLength="39.0059" x="10" y="90.2952">Thing</text></g><!--link Thing to DataSubject--><g id="link_Thing_DataSubject"><path codeLine="11" d="M52.36,85 C91.53,85 174.29,85 224.94,85 " fill="transparent" id="Thing-DataSubject" style="stroke:#181818;stroke-width:1;"/><polygon fill="#000000" points="92.01,76.6553,82.9649,73.7163,82.9649,79.5942,92.01,76.6553" style="stroke:#000000;stroke-width:1;"/><text fill="#000000" font-family="sans-serif" font-size="13" lengthAdjust="spacing" textLength="96.8018" x="96.01" y="81.5684">hasDataSubject</text></g><!--reverse link DataSubject to Child--><g id="link_DataSubject_Child"><path codeLine="12" d="M329.7548,74.7096 C367.3548,68.3096 402.72,62.28 431.27,57.41 " fill="transparent" id="DataSubject-backto-Child" style="stroke:#181818;stroke-width:1;"/><polygon fill="transparent" points="312.01,77.73,330.7616,80.6245,328.748,68.7947,312.01,77.73" style="stroke:#181818;stroke-width:1;"/></g><!--reverse link DataSubject to VulnerableDataSubject--><g id="link_DataSubject_VulnerableDataSubject"><path codeLine="13" d="M329.7699,94.9605 C347.8299,97.9405 351.72,98.58 372.5,102.01 " fill="transparent" id="DataSubject-backto-VulnerableDataSubject" style="stroke:#181818;stroke-width:1;"/><polygon fill="transparent" points="312.01,92.03,328.793,100.8804,330.7467,89.0405,312.01,92.03" style="stroke:#181818;stroke-width:1;"/></g><!--SRC=[ROv12i8m44NNvXGZBbpL0uYuqHiexgV9s4IdIKWc1L7lRgK80Rlyxx_vpD9vpSKGP7amRIAZbzApOheAI83aEYjWN28jBdYrbX2_l0qYeQyAfHbpXhDrleDLTZnGKX7r7Ji24mTugiMaN0fxIjWo7L7mLDhREF4hPz31EZRghQRffgcTBLZCLOQzgjFkDUhJ_H-UV-C3]--></g></svg>