<svg xmlns="http://www.w3.org/2000/svg" xmlns:xlink="http://www.w3.org/1999/xlink" contentStyleType="text/css" data-diagram-type="CLASS" height="300px" preserveAspectRatio="none" style="width:582px;height:300px;background:#FFFFFF;" version="1.1" viewBox="0 0 582 300" width="582px" zoomAndPan="magnify"><defs/><g><!--cluster dpv--><g id="cluster_dpv"><path d="M251.78,6 L279.6384,6 A3.75,3.75 0 0 1 282.1384,8.5 L289.1384,28.4883 L572.85,28.4883 A2.5,2.5 0 0 1 575.35,30.9883 L575.35,202.5 A2.5,2.5 0 0 1 572.85,205 L251.78,205 A2.5,2.5 0 0 1 249.28,202.5 L249.28,8.5 A2.5,2.5 0 0 1 251.78,6 " fill="transparent" style="stroke:#000000;stroke-width:1.5;"/><line style="stroke:#000000;stroke-width:1.5;" x1="249.28" x2="289.1384" y1="28.4883" y2="28.4883"/><text fill="#000000" font-family="sans-serif" font-size="14" font-weight="bold" lengthAdjust="spacing" textLength="26.8584" x="253.28" y="21.5352">dpv</text></g><!--class DataProcessor--><g id="elem_DataProcessor"><rect codeLine="7" fill="#F1F1F1" height="26.4883" id="DataProcessor" rx="2.5" ry="2.5" style="stroke:#181818;stroke-width:0.5;" width="102.8242" x="455.27" y="40.76"/><text fill="#000000" font-family="sans-serif" font-size="14" lengthAdjust="spacing" textLength="96.8242" x="458.27" y="59.2952">DataProcessor</text></g><!--class DataController--><g id="elem_DataController"><rect codeLine="8" fill="#F1F1F1" height="26.4883" id="DataController" rx="2.5" ry="2.5" style="stroke:#181818;stroke-width:0.5;" width="105.3467" x="454.01" y="101.76"/><text fill="#000000" font-family="sans-serif" font-size="14" lengthAdjust="spacing" textLength="99.3467" x="457.01" y="120.2952">DataController</text></g><!--class ThirdParty--><g id="elem_ThirdParty"><rect codeLine="9" fill="#F1F1F1" height="26.4883" id="ThirdParty" rx="2.5" ry="2.5" style="stroke:#181818;stroke-width:0.5;" width="75.877" x="468.74" y="162.76"/><text fill="#000000" font-family="sans-serif" font-size="14" lengthAdjust="spacing" textLength="69.877" x="471.74" y="181.2952">ThirdParty</text></g><!--class Recipient--><g id="elem_Recipient"><rect codeLine="10" fill="#F1F1F1" height="26.4883" id="Recipient" rx="2.5" ry="2.5" style="stroke:#181818;stroke-width:0.5;" width="68.4531" x="265.28" y="40.76"/><text fill="#000000" font-family="sans-serif" font-size="14" lengthAdjust="spacing" textLength="62.4531" x="268.28" y="59.2952">Recipient</text></g><!--class Thing--><g id="elem_Thing"><rect codeLine="5" fill="#C0C0C0" height="26.4883" id="Thing" rx="2.5" ry="2.5" style="stroke:#181818;stroke-width:0.5;" width="45.0059" x="7" y="149.76"/><text fill="#000000" font-family="sans-serif" font-size="14" lengthAdjust="spacing" textLength="39.0059" x="10" y="168.2952">Thing</text></g><!--reverse link Recipient to ThirdParty--><g id="link_Recipient_ThirdParty"><path codeLine="12" d="M350.5911,72.1052 C368.7411,79.1152 374.44,82.44 393.01,94 C423.25,112.84 424.93,125.42 454.01,146 C462.22,151.82 471.63,157.53 480.14,162.39 " fill="transparent" id="Recipient-backto-ThirdParty" style="stroke:#181818;stroke-width:1;"/><polygon fill="transparent" points="333.8,65.62,348.4294,77.7022,352.7529,66.5081,333.8,65.62" style="stroke:#181818;stroke-width:1;"/></g><!--reverse link Recipient to DataController--><g id="link_Recipient_DataController"><path codeLine="13" d="M351.7896,61.6509 C376.9196,65.7109 394.19,69.54 424.01,79 C442.76,84.96 463.01,93.86 478.65,101.33 " fill="transparent" id="Recipient-backto-DataController" style="stroke:#181818;stroke-width:1;"/><polygon fill="transparent" points="334.02,58.78,350.8326,67.574,352.7465,55.7277,334.02,58.78" style="stroke:#181818;stroke-width:1;"/></g><!--reverse link Recipient to DataProcessor--><g id="link_Recipient_DataProcessor"><path codeLine="14" d="M351.93,54 C384.74,54 417.23,54 454.99,54 " fill="transparent" id="Recipient-backto-DataProcessor" style="stroke:#181818;stroke-width:1;"/><polygon fill="transparent" points="333.93,54,351.93,60,351.93,48,333.93,54" style="stroke:#181818;stroke-width:1;"/></g><!--link Thing to Recipient--><g id="link_Thing_Recipient"><path codeLine="16" d="M37.21,149.51 C45.53,134.23 61.22,109.81 82.01,97 C139.43,61.63 220.23,54.57 265.12,53.61 " fill="transparent" id="Thing-Recipient" style="stroke:#181818;stroke-width:1;"/><polygon fill="#000000" points="91.6186,53.4861,82.1417,54.2853,84.4214,59.703,91.6186,53.4861" style="stroke:#000000;stroke-width:1;"/><text fill="#000000" font-family="sans-serif" font-size="13" lengthAdjust="spacing" textLength="79.8662" x="96.01" y="60.3384">hasRecipient</text></g><!--link Thing to DataController--><g id="link_Thing_DataController"><path codeLine="17" d="M52.23,168.39 C109.27,181.59 267.54,212.15 393.01,179 C395.44,178.36 449.56,147.33 481.89,128.71 " fill="transparent" id="Thing-DataController" style="stroke:#181818;stroke-width:1;"/><polygon fill="#000000" points="215.9888,170.1955,206.7118,168.1008,207.2523,173.9537,215.9888,170.1955" style="stroke:#000000;stroke-width:1;"/><text fill="#000000" font-family="sans-serif" font-size="13" lengthAdjust="spacing" textLength="172.1167" x="220.01" y="175.5684">hasRecipientDataController</text></g><!--link Thing to DataProcessor--><g id="link_Thing_DataProcessor"><path codeLine="18" d="M52.23,160.03 C120.14,150.64 327.77,121.09 393.01,102 C423.21,93.16 456.15,78.5 478.56,67.7 " fill="transparent" id="Thing-DataProcessor" style="stroke:#181818;stroke-width:1;"/><polygon fill="#000000" points="217.3967,92.597,207.9345,91.6391,209.1786,97.3838,217.3967,92.597" style="stroke:#000000;stroke-width:1;"/><text fill="#000000" font-family="sans-serif" font-size="13" lengthAdjust="spacing" textLength="169.7744" x="221.51" y="98.5684">hasRecipientDataProcessor</text></g><!--link Thing to ThirdParty--><g id="link_Thing_ThirdParty"><path codeLine="19" d="M37.07,176.56 C45.38,192.26 61.14,217.77 82.01,232 C129.21,264.2 149.37,258.38 206.01,266 C288.37,277.09 314.57,293.48 393.01,266 C436.48,250.77 475.67,210.94 494.27,189.74 " fill="transparent" id="Thing-ThirdParty" style="stroke:#181818;stroke-width:1;"/><polygon fill="#000000" points="230.0079,257.7994,221.0513,254.601,220.8819,260.4764,230.0079,257.7994" style="stroke:#000000;stroke-width:1;"/><text fill="#000000" font-family="sans-serif" font-size="13" lengthAdjust="spacing" textLength="144.752" x="234.01" y="262.5684">hasRecipientThirdParty</text></g><!--SRC=[ROz13i8m30JF-1L673Z10n3Y0Wz0Y0-4rBGH9euI5ma1VmU4QDB2BTdPNTjZvost5M7IAzCyiF7QdXcOZeeg65tTA5OkabKd7gOguQqVH5NE1G3B9YNSDyxNE4cEBnGX67ioDM4LBdY3qSUoCMgsKIob9B4Kr-8r2ZDrwgijLbiJzVfLTcHTSEGL7j2zSNcVpKhpW0pA_z2y3tmkUEdPji36fFnTPK-_kU_his6gc_WRwb2PoTSDrYd02k09]--></g></svg>