<svg xmlns="http://www.w3.org/2000/svg" xmlns:xlink="http://www.w3.org/1999/xlink" contentStyleType="text/css" data-diagram-type="CLASS" height="352px" preserveAspectRatio="none" style="width:844px;height:352px;background:#FFFFFF;" version="1.1" viewBox="0 0 844 352" width="844px" zoomAndPan="magnify"><defs/><g><!--cluster dpv--><g id="cluster_dpv"><path d="M319.02,6 L346.8784,6 A3.75,3.75 0 0 1 349.3784,8.5 L356.3784,28.4883 L834.66,28.4883 A2.5,2.5 0 0 1 837.16,30.9883 L837.16,263.5 A2.5,2.5 0 0 1 834.66,266 L319.02,266 A2.5,2.5 0 0 1 316.52,263.5 L316.52,8.5 A2.5,2.5 0 0 1 319.02,6 " fill="transparent" style="stroke:#000000;stroke-width:1.5;"/><line style="stroke:#000000;stroke-width:1.5;" x1="316.52" x2="356.3784" y1="28.4883" y2="28.4883"/><text fill="#000000" font-family="sans-serif" font-size="14" font-weight="bold" lengthAdjust="spacing" textLength="26.8584" x="320.52" y="21.5352">dpv</text></g><!--class TechnicalOrganisationalMeasure--><g id="elem_TechnicalOrganisationalMeasure"><rect codeLine="9" fill="#F1F1F1" height="26.4883" id="TechnicalOrganisationalMeasure" rx="2.5" ry="2.5" style="stroke:#181818;stroke-width:0.5;" width="226.1582" x="595.01" y="162.76"/><text fill="#000000" font-family="sans-serif" font-size="14" lengthAdjust="spacing" textLength="220.1582" x="598.01" y="181.2952">TechnicalOrganisationalMeasure</text></g><!--class TechnicalMeasure--><g id="elem_TechnicalMeasure"><rect codeLine="10" fill="#F1F1F1" height="26.4883" id="TechnicalMeasure" rx="2.5" ry="2.5" style="stroke:#181818;stroke-width:0.5;" width="127.1396" x="349.94" y="223.76"/><text fill="#000000" font-family="sans-serif" font-size="14" lengthAdjust="spacing" textLength="121.1396" x="352.94" y="242.2952">TechnicalMeasure</text></g><!--class OrganisationalMeasure--><g id="elem_OrganisationalMeasure"><rect codeLine="11" fill="#F1F1F1" height="26.4883" id="OrganisationalMeasure" rx="2.5" ry="2.5" style="stroke:#181818;stroke-width:0.5;" width="161.9619" x="332.52" y="162.76"/><text fill="#000000" font-family="sans-serif" font-size="14" lengthAdjust="spacing" textLength="155.9619" x="335.52" y="181.2952">OrganisationalMeasure</text></g><!--class LegalMeasure--><g id="elem_LegalMeasure"><rect codeLine="12" fill="#F1F1F1" height="26.4883" id="LegalMeasure" rx="2.5" ry="2.5" style="stroke:#181818;stroke-width:0.5;" width="98.7158" x="364.15" y="101.76"/><text fill="#000000" font-family="sans-serif" font-size="14" lengthAdjust="spacing" textLength="92.7158" x="367.15" y="120.2952">LegalMeasure</text></g><!--class PhysicalMeasure--><g id="elem_PhysicalMeasure"><rect codeLine="13" fill="#F1F1F1" height="26.4883" id="PhysicalMeasure" rx="2.5" ry="2.5" style="stroke:#181818;stroke-width:0.5;" width="116.8174" x="355.1" y="40.76"/><text fill="#000000" font-family="sans-serif" font-size="14" lengthAdjust="spacing" textLength="110.8174" x="358.1" y="59.2952">PhysicalMeasure</text></g><!--class Thing--><g id="elem_Thing"><rect codeLine="7" fill="#C0C0C0" height="26.4883" id="Thing" rx="2.5" ry="2.5" style="stroke:#181818;stroke-width:0.5;" width="45.0059" x="7" y="162.76"/><text fill="#000000" font-family="sans-serif" font-size="14" lengthAdjust="spacing" textLength="39.0059" x="10" y="181.2952">Thing</text></g><!--link TechnicalMeasure to TechnicalOrganisationalMeasure--><g id="link_TechnicalMeasure_TechnicalOrganisationalMeasure"><path codeLine="16" d="M477.27,223.92 C525.63,213.83 574.6787,203.6029 623.7587,193.3729 " fill="transparent" id="TechnicalMeasure-to-TechnicalOrganisationalMeasure" style="stroke:#181818;stroke-width:1;"/><polygon fill="transparent" points="641.38,189.7,622.5344,187.4991,624.983,199.2467,641.38,189.7" style="stroke:#181818;stroke-width:1;"/></g><!--link OrganisationalMeasure to TechnicalOrganisationalMeasure--><g id="link_OrganisationalMeasure_TechnicalOrganisationalMeasure"><path codeLine="17" d="M494.84,176 C525.63,176 543.35,176 576.6,176 " fill="transparent" id="OrganisationalMeasure-to-TechnicalOrganisationalMeasure" style="stroke:#181818;stroke-width:1;"/><polygon fill="transparent" points="594.6,176,576.6,170,576.6,182,594.6,176" style="stroke:#181818;stroke-width:1;"/></g><!--link LegalMeasure to TechnicalOrganisationalMeasure--><g id="link_LegalMeasure_TechnicalOrganisationalMeasure"><path codeLine="18" d="M463.15,125.14 C511.9,135.31 569.649,147.3458 623.699,158.6158 " fill="transparent" id="LegalMeasure-to-TechnicalOrganisationalMeasure" style="stroke:#181818;stroke-width:1;"/><polygon fill="transparent" points="641.32,162.29,624.9237,152.7422,622.4743,164.4895,641.32,162.29" style="stroke:#181818;stroke-width:1;"/></g><!--link PhysicalMeasure to TechnicalOrganisationalMeasure--><g id="link_PhysicalMeasure_TechnicalOrganisationalMeasure"><path codeLine="19" d="M472.22,65.51 C492.12,70.25 514.34,76.44 534.01,84 C591.17,106 638.2107,133.0729 670.1807,152.8429 " fill="transparent" id="PhysicalMeasure-to-TechnicalOrganisationalMeasure" style="stroke:#181818;stroke-width:1;"/><polygon fill="transparent" points="685.49,162.31,673.3364,147.7398,667.025,157.946,685.49,162.31" style="stroke:#181818;stroke-width:1;"/></g><!--link Thing to TechnicalOrganisationalMeasure--><g id="link_Thing_TechnicalOrganisationalMeasure"><path codeLine="21" d="M37.65,189.57 C46.17,204.37 61.84,227.59 82.01,240 C253.94,345.81 340.04,340.99 534.01,285 C599.51,266.09 664.12,214.24 692.32,189.49 " fill="transparent" id="Thing-TechnicalOrganisationalMeasure" style="stroke:#181818;stroke-width:1;"/><polygon fill="#000000" points="303.01,276.6547,293.9646,273.7168,293.9653,279.5947,303.01,276.6547" style="stroke:#000000;stroke-width:1;"/><text fill="#000000" font-family="sans-serif" font-size="13" lengthAdjust="spacing" textLength="226.3066" x="307.01" y="281.5684">hasTechnicalOrganisationalMeasure</text></g><!--link Thing to OrganisationalMeasure--><g id="link_Thing_OrganisationalMeasure"><path codeLine="22" d="M52.3,176.52 C61.47,176.71 72.26,176.91 82.01,177 C167.35,177.83 265.1,177.36 332.03,176.82 " fill="transparent" id="Thing-OrganisationalMeasure" style="stroke:#181818;stroke-width:1;"/><polygon fill="#000000" points="92.01,168.6606,82.9681,165.712,82.9618,171.5899,92.01,168.6606" style="stroke:#000000;stroke-width:1;"/><text fill="#000000" font-family="sans-serif" font-size="13" lengthAdjust="spacing" textLength="166.6958" x="96.01" y="173.5684">hasOrganisationalMeasure</text></g><!--link Thing to TechnicalMeasure--><g id="link_Thing_TechnicalMeasure"><path codeLine="23" d="M52.34,189.23 C61.24,194.03 71.82,199 82.01,202 C172.5,228.66 282.21,235.54 349.68,237.04 " fill="transparent" id="Thing-TechnicalMeasure" style="stroke:#181818;stroke-width:1;"/><polygon fill="#000000" points="107.9466,194.449,99.4828,190.1114,98.5496,195.9148,107.9466,194.449" style="stroke:#000000;stroke-width:1;"/><text fill="#000000" font-family="sans-serif" font-size="13" lengthAdjust="spacing" textLength="134.3608" x="112.01" y="198.5684">hasTechnicalMeasure</text></g><!--link Thing to LegalMeasure--><g id="link_Thing_LegalMeasure"><path codeLine="24" d="M52.42,166.11 C61.42,162.42 72.05,158.51 82.01,156 C180.12,131.27 298.54,121.19 363.65,117.29 " fill="transparent" id="Thing-LegalMeasure" style="stroke:#181818;stroke-width:1;"/><polygon fill="#000000" points="121.4496,116.8204,112.0583,115.3187,112.9692,121.1255,121.4496,116.8204" style="stroke:#000000;stroke-width:1;"/><text fill="#000000" font-family="sans-serif" font-size="13" lengthAdjust="spacing" textLength="107.9673" x="125.51" y="122.5084">hasLegalMeasure</text></g><!--link Thing to PhysicalMeasure--><g id="link_Thing_PhysicalMeasure"><path codeLine="25" d="M35.78,162.31 C43.25,144.93 58.65,115.49 82.01,101 C165.98,48.92 284.7,45.36 354.63,48.8 " fill="transparent" id="Thing-PhysicalMeasure" style="stroke:#181818;stroke-width:1;"/><polygon fill="#000000" points="112.7204,39.9284,103.2135,40.1932,105.1849,45.7306,112.7204,39.9284" style="stroke:#000000;stroke-width:1;"/><text fill="#000000" font-family="sans-serif" font-size="13" lengthAdjust="spacing" textLength="124.7759" x="117.01" y="46.5184">hasPhysicalMeasure</text></g><!--SRC=[ZP11JiGm34NN-1H6B5YL0o0q9m31WWkOr3JMk4cKk2DLmDtHg4Xqqb7RxSz_Fz__LeBJeMKiDYe_9ALWGw-W_6be4RDqth2LpCua1hYtcCxwHpIB_VoX72KaojIZIc0R4sFCvYE0Koe5txs43k-Aw8ap9797wXZRTC8lkFcpiFD17EbhxYX8eNCowGjJ6J8lN9M-2Zrpjz3U_5ZcEJy0wmtmwRiPccM1NTJrUhlGY_AxYFeqcDPlcesDyH4zbGtFuJzj9MIJhMUi_hv2p7UOt1VAp5dTFvbhyG3m2m00]--></g></svg>