<svg xmlns="http://www.w3.org/2000/svg" xmlns:xlink="http://www.w3.org/1999/xlink" contentStyleType="text/css" data-diagram-type="CLASS" height="273px" preserveAspectRatio="none" style="width:540px;height:273px;background:#FFFFFF;" version="1.1" viewBox="0 0 540 273" width="540px" zoomAndPan="magnify"><defs/><g><!--cluster dpv--><g id="cluster_dpv"><path d="M184.51,6 L212.3684,6 A3.75,3.75 0 0 1 214.8684,8.5 L221.8684,28.4883 L531.3,28.4883 A2.5,2.5 0 0 1 533.8,30.9883 L533.8,263.5 A2.5,2.5 0 0 1 531.3,266 L184.51,266 A2.5,2.5 0 0 1 182.01,263.5 L182.01,8.5 A2.5,2.5 0 0 1 184.51,6 " fill="transparent" style="stroke:#000000;stroke-width:1.5;"/><line style="stroke:#000000;stroke-width:1.5;" x1="182.01" x2="221.8684" y1="28.4883" y2="28.4883"/><text fill="#000000" font-family="sans-serif" font-size="14" font-weight="bold" lengthAdjust="spacing" textLength="26.8584" x="186.01" y="21.5352">dpv</text></g><!--class StorageDuration--><g id="elem_StorageDuration"><rect codeLine="6" fill="#F1F1F1" height="26.4883" id="StorageDuration" rx="2.5" ry="2.5" style="stroke:#181818;stroke-width:0.5;" width="116.5713" x="392" y="162.76"/><text fill="#000000" font-family="sans-serif" font-size="14" lengthAdjust="spacing" textLength="110.5713" x="395" y="181.2952">StorageDuration</text></g><!--class StorageLocation--><g id="elem_StorageLocation"><rect codeLine="7" fill="#F1F1F1" height="26.4883" id="StorageLocation" rx="2.5" ry="2.5" style="stroke:#181818;stroke-width:0.5;" width="114.9033" x="392.83" y="223.76"/><text fill="#000000" font-family="sans-serif" font-size="14" lengthAdjust="spacing" textLength="108.9033" x="395.83" y="242.2952">StorageLocation</text></g><!--class StorageDeletion--><g id="elem_StorageDeletion"><rect codeLine="8" fill="#F1F1F1" height="26.4883" id="StorageDeletion" rx="2.5" ry="2.5" style="stroke:#181818;stroke-width:0.5;" width="114.0693" x="393.25" y="101.76"/><text fill="#000000" font-family="sans-serif" font-size="14" lengthAdjust="spacing" textLength="108.0693" x="396.25" y="120.2952">StorageDeletion</text></g><!--class StorageRestoration--><g id="elem_StorageRestoration"><rect codeLine="9" fill="#F1F1F1" height="26.4883" id="StorageRestoration" rx="2.5" ry="2.5" style="stroke:#181818;stroke-width:0.5;" width="135.0215" x="382.78" y="40.76"/><text fill="#000000" font-family="sans-serif" font-size="14" lengthAdjust="spacing" textLength="129.0215" x="385.78" y="59.2952">StorageRestoration</text></g><!--class StorageCondition--><g id="elem_StorageCondition"><rect codeLine="10" fill="#F1F1F1" height="26.4883" id="StorageCondition" rx="2.5" ry="2.5" style="stroke:#181818;stroke-width:0.5;" width="123.7695" x="198.01" y="98.76"/><text fill="#000000" font-family="sans-serif" font-size="14" lengthAdjust="spacing" textLength="117.7695" x="201.01" y="117.2952">StorageCondition</text></g><!--class Thing--><g id="elem_Thing"><rect codeLine="4" fill="#C0C0C0" height="26.4883" id="Thing" rx="2.5" ry="2.5" style="stroke:#181818;stroke-width:0.5;" width="45.0059" x="7" y="163.76"/><text fill="#000000" font-family="sans-serif" font-size="14" lengthAdjust="spacing" textLength="39.0059" x="10" y="182.2952">Thing</text></g><!--link Thing to StorageCondition--><g id="link_Thing_StorageCondition"><path codeLine="12" d="M52.5,166.65 C61.52,162.67 72.13,158.28 82.01,155 C119.79,142.43 163.23,131.82 197.61,124.28 " fill="transparent" id="Thing-StorageCondition" style="stroke:#181818;stroke-width:1;"/><polygon fill="#000000" points="91.8096,122.3739,82.3033,122.0879,83.9508,127.7302,91.8096,122.3739" style="stroke:#000000;stroke-width:1;"/><text fill="#000000" font-family="sans-serif" font-size="13" lengthAdjust="spacing" textLength="69.5703" x="96.01" y="128.6884">hasStorage</text></g><!--link Thing to StorageDuration--><g id="link_Thing_StorageDuration"><path codeLine="13" d="M52.43,176.95 C115.29,176.8 297.63,176.36 391.68,176.14 " fill="transparent" id="Thing-StorageDuration" style="stroke:#181818;stroke-width:1;"/><polygon fill="#000000" points="224.39,167.9433,215.3379,165.026,215.3519,170.9038,224.39,167.9433" style="stroke:#000000;stroke-width:1;"/><text fill="#000000" font-family="sans-serif" font-size="13" lengthAdjust="spacing" textLength="76.8511" x="228.39" y="172.8684">hasDuration</text></g><!--link Thing to StorageLocation--><g id="link_Thing_StorageLocation"><path codeLine="14" d="M52.33,181.13 C80.42,186.36 130.74,195.48 174.01,202 C249.39,213.35 336.77,224.04 392.5,230.55 " fill="transparent" id="Thing-StorageLocation" style="stroke:#181818;stroke-width:1;"/><polygon fill="#000000" points="224.8381,194.3741,216.3095,190.1653,215.4644,195.9821,224.8381,194.3741" style="stroke:#000000;stroke-width:1;"/><text fill="#000000" font-family="sans-serif" font-size="13" lengthAdjust="spacing" textLength="75.3022" x="228.89" y="198.5684">hasLocation</text></g><!--reverse link StorageCondition to StorageDuration--><g id="link_StorageCondition_StorageDuration"><path codeLine="16" d="M339.3368,126.3273 C349.7968,128.7473 342.93,127.58 352.78,131 C366.86,135.88 369.31,139.6 382.78,146 C394.33,151.49 407.12,157.32 418.37,162.36 " fill="transparent" id="StorageCondition-backto-StorageDuration" style="stroke:#181818;stroke-width:1;"/><polygon fill="transparent" points="321.8,122.27,337.9844,132.1729,340.6892,120.4817,321.8,122.27" style="stroke:#181818;stroke-width:1;"/></g><!--reverse link StorageCondition to StorageLocation--><g id="link_StorageCondition_StorageLocation"><path codeLine="17" d="M298.6596,135.2448 C310.3896,142.6348 309.56,142.57 321.78,152 C350.67,174.31 352.22,187.03 382.78,207 C392.32,213.24 403.37,218.79 413.7,223.38 " fill="transparent" id="StorageCondition-backto-StorageLocation" style="stroke:#181818;stroke-width:1;"/><polygon fill="transparent" points="283.43,125.65,295.4613,140.3213,301.8578,130.1682,283.43,125.65" style="stroke:#181818;stroke-width:1;"/></g><!--reverse link StorageCondition to StorageDeletion--><g id="link_StorageCondition_StorageDeletion"><path codeLine="18" d="M340.0576,113.2625 C362.8276,113.6325 370.56,113.75 392.89,114.1 " fill="transparent" id="StorageCondition-backto-StorageDeletion" style="stroke:#181818;stroke-width:1;"/><polygon fill="transparent" points="322.06,112.97,339.9601,119.2617,340.1551,107.2632,322.06,112.97" style="stroke:#181818;stroke-width:1;"/></g><!--reverse link StorageCondition to StorageRestoration--><g id="link_StorageCondition_StorageRestoration"><path codeLine="19" d="M322.2635,93.1048 C352.2835,83.8648 374.64,76.98 404.74,67.71 " fill="transparent" id="StorageCondition-backto-StorageRestoration" style="stroke:#181818;stroke-width:1;"/><polygon fill="transparent" points="305.06,98.4,324.0286,98.8394,320.4985,87.3703,305.06,98.4" style="stroke:#181818;stroke-width:1;"/></g><!--SRC=[VP313i8W38RFzYbgFEi36EF57JsfBq2WRiGA2x0bHdrt9vD5PTcDVlrect-kZUH64VfmOrhLB4nehWnCvu31ejDb5L1fHp9eQm0a2-_nL6bJui9hRib1BUH5b8IgRl4Eiruv1kiwM3HEn9-_U6_b62w8QGGVoByV8vsTDKf7_eJ-gEKowwsn4lu3SPjvwKICtb3bOZewUgdeFFXVY9j7FdxQ6WAPdfNocRI-ute1]--></g></svg>