<svg xmlns="http://www.w3.org/2000/svg" xmlns:xlink="http://www.w3.org/1999/xlink" contentStyleType="text/css" data-diagram-type="CLASS" height="90px" preserveAspectRatio="none" style="width:829px;height:90px;background:#FFFFFF;" version="1.1" viewBox="0 0 829 90" width="829px" zoomAndPan="magnify"><defs/><g><!--cluster dpv--><g id="cluster_dpv"><path d="M219.51,6 L247.3684,6 A3.75,3.75 0 0 1 249.8684,8.5 L256.8684,28.4883 L819.99,28.4883 A2.5,2.5 0 0 1 822.49,30.9883 L822.49,80.5 A2.5,2.5 0 0 1 819.99,83 L219.51,83 A2.5,2.5 0 0 1 217.01,80.5 L217.01,8.5 A2.5,2.5 0 0 1 219.51,6 " fill="transparent" style="stroke:#000000;stroke-width:1.5;"/><line style="stroke:#000000;stroke-width:1.5;" x1="217.01" x2="256.8684" y1="28.4883" y2="28.4883"/><text fill="#000000" font-family="sans-serif" font-size="14" font-weight="bold" lengthAdjust="spacing" textLength="26.8584" x="221.01" y="21.5352">dpv</text></g><!--class PersonalData--><g id="elem_PersonalData"><rect codeLine="7" fill="#F1F1F1" height="26.4883" id="PersonalData" rx="2.5" ry="2.5" style="stroke:#181818;stroke-width:0.5;" width="94.6553" x="233.01" y="40.76"/><text fill="#000000" font-family="sans-serif" font-size="14" lengthAdjust="spacing" textLength="88.6553" x="236.01" y="59.2952">PersonalData</text></g><!--class SpecialCategoryPersonalData--><g id="elem_SpecialCategoryPersonalData"><rect codeLine="8" fill="#F1F1F1" height="26.4883" id="SpecialCategoryPersonalData" rx="2.5" ry="2.5" style="stroke:#181818;stroke-width:0.5;" width="202.6289" x="603.86" y="40.76"/><text fill="#000000" font-family="sans-serif" font-size="14" lengthAdjust="spacing" textLength="196.6289" x="606.86" y="59.2952">SpecialCategoryPersonalData</text></g><!--class SensitivePersonalData--><g id="elem_SensitivePersonalData"><rect codeLine="9" fill="#F1F1F1" height="26.4883" id="SensitivePersonalData" rx="2.5" ry="2.5" style="stroke:#181818;stroke-width:0.5;" width="154.1963" x="388.66" y="40.76"/><text fill="#000000" font-family="sans-serif" font-size="14" lengthAdjust="spacing" textLength="148.1963" x="391.66" y="59.2952">SensitivePersonalData</text></g><!--class Thing--><g id="elem_Thing"><rect codeLine="5" fill="#C0C0C0" height="26.4883" id="Thing" rx="2.5" ry="2.5" style="stroke:#181818;stroke-width:0.5;" width="45.0059" x="7" y="40.76"/><text fill="#000000" font-family="sans-serif" font-size="14" lengthAdjust="spacing" textLength="39.0059" x="10" y="59.2952">Thing</text></g><!--link Thing to PersonalData--><g id="link_Thing_PersonalData"><path codeLine="12" d="M52.15,54 C92.23,54 178.83,54 232.78,54 " fill="transparent" id="Thing-PersonalData" style="stroke:#181818;stroke-width:1;"/><polygon fill="#000000" points="92.01,45.6553,82.9649,42.7163,82.9649,48.5942,92.01,45.6553" style="stroke:#000000;stroke-width:1;"/><text fill="#000000" font-family="sans-serif" font-size="13" lengthAdjust="spacing" textLength="104.1968" x="96.01" y="50.5684">hasPersonalData</text></g><!--reverse link PersonalData to SensitivePersonalData--><g id="link_PersonalData_SensitivePersonalData"><path codeLine="13" d="M346.09,54 C364.46,54 368.01,54 388.51,54 " fill="transparent" id="PersonalData-backto-SensitivePersonalData" style="stroke:#181818;stroke-width:1;"/><polygon fill="transparent" points="328.09,54,346.09,60,346.09,48,328.09,54" style="stroke:#181818;stroke-width:1;"/></g><!--reverse link SensitivePersonalData to SpecialCategoryPersonalData--><g id="link_SensitivePersonalData_SpecialCategoryPersonalData"><path codeLine="14" d="M561.18,54 C580.43,54 583.39,54 603.62,54 " fill="transparent" id="SensitivePersonalData-backto-SpecialCategoryPersonalData" style="stroke:#181818;stroke-width:1;"/><polygon fill="transparent" points="543.18,54,561.18,60,561.18,48,543.18,54" style="stroke:#181818;stroke-width:1;"/></g><!--SRC=[VOvD2i8m48NNvXGZBbpL0uYuqGC8Ue4n7TF1QHAIQQ6eTrUfWe7YShxtCs_EtafN4sGTX5PHq6lNYX6wA6Y0nAvHg3cHLGxUB3N4Dpy7rT3-2COAvWodXhs3HMRfAPc8zegEe8uztCnij1mevU1HzgZuPST8bb5sgEH26YOjv3ChzrI83sF6brLL5CCQ6im5sPhYtDnVaUdIIVe9_1dw1000]--></g></svg>