<svg xmlns="http://www.w3.org/2000/svg" xmlns:xlink="http://www.w3.org/1999/xlink" contentStyleType="text/css" data-diagram-type="CLASS" height="116px" preserveAspectRatio="none" style="width:467px;height:116px;background:#FFFFFF;" version="1.1" viewBox="0 0 467 116" width="467px" zoomAndPan="magnify"><defs/><g><!--cluster dpv--><g id="cluster_dpv"><path d="M187.51,6 L215.3684,6 A3.75,3.75 0 0 1 217.8684,8.5 L224.8684,28.4883 L458.08,28.4883 A2.5,2.5 0 0 1 460.58,30.9883 L460.58,106.5 A2.5,2.5 0 0 1 458.08,109 L187.51,109 A2.5,2.5 0 0 1 185.01,106.5 L185.01,8.5 A2.5,2.5 0 0 1 187.51,6 " fill="transparent" style="stroke:#000000;stroke-width:1.5;"/><line style="stroke:#000000;stroke-width:1.5;" x1="185.01" x2="224.8684" y1="28.4883" y2="28.4883"/><text fill="#000000" font-family="sans-serif" font-size="14" font-weight="bold" lengthAdjust="spacing" textLength="26.8584" x="189.01" y="21.5352">dpv</text></g><!--class Purpose--><g id="elem_Purpose"><rect codeLine="6" fill="#F1F1F1" height="26.4883" id="Purpose" rx="2.5" ry="2.5" style="stroke:#181818;stroke-width:0.5;" width="60.5029" x="201.01" y="44.76"/><text fill="#000000" font-family="sans-serif" font-size="14" lengthAdjust="spacing" textLength="54.5029" x="204.01" y="63.2952">Purpose</text></g><!--class Sector--><g id="elem_Sector"><rect codeLine="7" fill="#F1F1F1" height="26.4883" id="Sector" rx="2.5" ry="2.5" style="stroke:#181818;stroke-width:0.5;" width="48.0752" x="396.51" y="44.76"/><text fill="#000000" font-family="sans-serif" font-size="14" lengthAdjust="spacing" textLength="42.0752" x="399.51" y="63.2952">Sector</text></g><!--class Thing--><g id="elem_Thing"><rect codeLine="4" fill="#C0C0C0" height="26.4883" id="Thing" rx="2.5" ry="2.5" style="stroke:#181818;stroke-width:0.5;" width="45.0059" x="7" y="44.76"/><text fill="#000000" font-family="sans-serif" font-size="14" lengthAdjust="spacing" textLength="39.0059" x="10" y="63.2952">Thing</text></g><!--link Thing to Purpose--><g id="link_Thing_Purpose"><path codeLine="9" d="M52.26,58 C88.26,58 160.25,58 200.78,58 " fill="transparent" id="Thing-Purpose" style="stroke:#181818;stroke-width:1;"/><polygon fill="#000000" points="92.01,49.6553,82.9649,46.7163,82.9649,52.5942,92.01,49.6553" style="stroke:#000000;stroke-width:1;"/><text fill="#000000" font-family="sans-serif" font-size="13" lengthAdjust="spacing" textLength="72.4839" x="96.01" y="54.5684">hasPurpose</text></g><!--link Purpose to Sector--><g id="link_Purpose_Sector"><path codeLine="10" d="M261.93,58 C299.17,58 362.25,58 396.22,58 " fill="transparent" id="Purpose-Sector" style="stroke:#181818;stroke-width:1;"/><polygon fill="#000000" points="301.51,49.6553,292.4649,46.7163,292.4649,52.5942,301.51,49.6553" style="stroke:#000000;stroke-width:1;"/><text fill="#000000" font-family="sans-serif" font-size="13" lengthAdjust="spacing" textLength="60.9438" x="305.51" y="54.5684">hasSector</text></g><!--SRC=[DOn12W8n34NNvXGHr-C1NCmP1Br0QMCRZ6rfqW4Hx-v0xUvzUEyVENlfWL3jBNIkuhBrbu3Gmz0ADex9C70ZRrmoW1UdYlV4EU99MJPgK9r_kaWOweOVE0pbsbijIdFUzeFIu0iZNPOfu0MJqpbMcBGRend2drVu0G00]--></g></svg>