<svg xmlns="http://www.w3.org/2000/svg" xmlns:xlink="http://www.w3.org/1999/xlink" contentStyleType="text/css" data-diagram-type="CLASS" height="180px" preserveAspectRatio="none" style="width:796px;height:180px;background:#FFFFFF;" version="1.1" viewBox="0 0 796 180" width="796px" zoomAndPan="magnify"><defs/><g><!--cluster dpv--><g id="cluster_dpv"><path d="M163.51,6 L191.3684,6 A3.75,3.75 0 0 1 193.8684,8.5 L200.8684,28.4883 L787.25,28.4883 A2.5,2.5 0 0 1 789.75,30.9883 L789.75,170.5 A2.5,2.5 0 0 1 787.25,173 L163.51,173 A2.5,2.5 0 0 1 161.01,170.5 L161.01,8.5 A2.5,2.5 0 0 1 163.51,6 " fill="transparent" style="stroke:#000000;stroke-width:1.5;"/><line style="stroke:#000000;stroke-width:1.5;" x1="161.01" x2="200.8684" y1="28.4883" y2="28.4883"/><text fill="#000000" font-family="sans-serif" font-size="14" font-weight="bold" lengthAdjust="spacing" textLength="26.8584" x="165.01" y="21.5352">dpv</text></g><!--class Risk--><g id="elem_Risk"><rect codeLine="7" fill="#F1F1F1" height="26.4883" id="Risk" rx="2.5" ry="2.5" style="stroke:#181818;stroke-width:0.5;" width="34.2188" x="272.98" y="105.76"/><text fill="#000000" font-family="sans-serif" font-size="14" lengthAdjust="spacing" textLength="28.2188" x="275.98" y="124.2952">Risk</text></g><!--class RiskMitigationMeasure--><g id="elem_RiskMitigationMeasure"><rect codeLine="8" fill="#F1F1F1" height="26.4883" id="RiskMitigationMeasure" rx="2.5" ry="2.5" style="stroke:#181818;stroke-width:0.5;" width="159.583" x="614.16" y="51.76"/><text fill="#000000" font-family="sans-serif" font-size="14" lengthAdjust="spacing" textLength="153.583" x="617.16" y="70.2952">RiskMitigationMeasure</text></g><!--class TechnicalOrganisationalMeasure--><g id="elem_TechnicalOrganisationalMeasure"><rect codeLine="9" fill="#F1F1F1" height="26.4883" id="TechnicalOrganisationalMeasure" rx="2.5" ry="2.5" style="stroke:#181818;stroke-width:0.5;" width="226.1582" x="177.01" y="40.76"/><text fill="#000000" font-family="sans-serif" font-size="14" lengthAdjust="spacing" textLength="220.1582" x="180.01" y="59.2952">TechnicalOrganisationalMeasure</text></g><!--class Thing--><g id="elem_Thing"><rect codeLine="5" fill="#C0C0C0" height="26.4883" id="Thing" rx="2.5" ry="2.5" style="stroke:#181818;stroke-width:0.5;" width="45.0059" x="7" y="105.76"/><text fill="#000000" font-family="sans-serif" font-size="14" lengthAdjust="spacing" textLength="39.0059" x="10" y="124.2952">Thing</text></g><!--link Thing to Risk--><g id="link_Thing_Risk"><path codeLine="11" d="M52.1,119 C102.6,119 227.48,119 272.54,119 " fill="transparent" id="Thing-Risk" style="stroke:#181818;stroke-width:1;"/><polygon fill="#000000" points="92.01,110.6553,82.9649,107.7163,82.9649,113.5942,92.01,110.6553" style="stroke:#000000;stroke-width:1;"/><text fill="#000000" font-family="sans-serif" font-size="13" lengthAdjust="spacing" textLength="48.0771" x="96.01" y="115.5684">hasRisk</text></g><!--reverse link TechnicalOrganisationalMeasure to RiskMitigationMeasure--><g id="link_TechnicalOrganisationalMeasure_RiskMitigationMeasure"><path codeLine="12" d="M421.6099,44.9001 C476.1899,42.3201 524.69,42.11 584.16,47 C595.9,47.96 608.27,49.5 620.3,51.29 " fill="transparent" id="TechnicalOrganisationalMeasure-backto-RiskMitigationMeasure" style="stroke:#181818;stroke-width:1;"/><polygon fill="transparent" points="403.63,45.75,421.8932,50.8934,421.3266,38.9068,403.63,45.75" style="stroke:#181818;stroke-width:1;"/></g><!--link Risk to RiskMitigationMeasure--><g id="link_Risk_RiskMitigationMeasure"><path codeLine="13" d="M307.65,122.4 C352.87,131.04 481.9,151.33 584.16,125 C618.84,116.07 654.29,93.49 674.93,78.72 " fill="transparent" id="Risk-RiskMitigationMeasure" style="stroke:#181818;stroke-width:1;"/><polygon fill="#000000" points="459.195,117.2458,468.5239,119.0959,467.8297,113.2592,459.195,117.2458" style="stroke:#000000;stroke-width:1;"/><text fill="#000000" font-family="sans-serif" font-size="13" lengthAdjust="spacing" textLength="84.7349" x="473.16" y="121.5684">mitigatesRisk</text></g><!--link RiskMitigationMeasure to Risk--><g id="link_RiskMitigationMeasure_Risk"><path codeLine="14" d="M613.81,75.63 C516.72,88.68 358.69,109.92 307.59,116.78 " fill="transparent" id="RiskMitigationMeasure-Risk" style="stroke:#181818;stroke-width:1;"/><polygon fill="#000000" points="443.1155,71.9494,433.7595,70.2413,434.5424,76.0668,443.1155,71.9494" style="stroke:#000000;stroke-width:1;"/><text fill="#000000" font-family="sans-serif" font-size="13" lengthAdjust="spacing" textLength="136.6777" x="447.16" y="77.5284">isMitigatedByMeasure</text></g><!--SRC=[VOvBRi9038RN-1IkMB220o34edk4XBY0cPY9XJCJZHqa1BrxIy9BektE-b-VFoG5xIf6yvFoh5LAtZKAodj7prWarewL50ukES74StlLTzazDoy612KptDQI8evDzCW5MWe7YenLUyGpZ8R8HkpmUg_49T9rPCLaNU6xkULG9mcawn8fYVKPqdlg2mROTDhFu1nhilvQmlzLN5nkfNTsF_2N-yDe1eq7qW9-ppr_4hkvN7sU7dpu1W00]--></g></svg>