<svg xmlns="http://www.w3.org/2000/svg" xmlns:xlink="http://www.w3.org/1999/xlink" contentStyleType="text/css" data-diagram-type="WBS" height="424px" preserveAspectRatio="none" style="width:1563px;height:424px;background:#FFFFFF;" version="1.1" viewBox="0 0 1563 424" width="1563px" zoomAndPan="magnify"><defs/><g><line style="stroke:#181818;stroke-width:1.5;" x1="48.4092" x2="48.4092" y1="64.1328" y2="84.1328"/><rect fill="#F1F1F1" height="34.1328" style="stroke:#181818;stroke-width:1.5;" width="76.8184" x="10" y="84.1328"/><text fill="#000000" font-family="sans-serif" font-size="12" lengthAdjust="spacing" textLength="56.8184" x="20" y="105.7344">Sensitive*</text><line style="stroke:#181818;stroke-width:1.5;" x1="48.4092" x2="58.4092" y1="150.332" y2="150.332"/><rect fill="#F1F1F1" height="34.1328" style="stroke:#181818;stroke-width:1.5;" width="122.1289" x="58.4092" y="133.2656"/><text fill="#000000" font-family="sans-serif" font-size="12" lengthAdjust="spacing" textLength="102.1289" x="68.4092" y="154.8672">Special Category*</text><line style="stroke:#181818;stroke-width:1.5;" x1="48.4092" x2="48.4092" y1="118.2656" y2="150.332"/><line style="stroke:#181818;stroke-width:1.5;" x1="232.8037" x2="232.8037" y1="64.1328" y2="84.1328"/><rect fill="#F1F1F1" height="34.1328" style="stroke:#181818;stroke-width:1.5;" width="64.5313" x="200.5381" y="84.1328"/><text fill="#000000" font-family="sans-serif" font-size="12" lengthAdjust="spacing" textLength="44.5313" x="210.5381" y="105.7344">Internal</text><line style="stroke:#181818;stroke-width:1.5;" x1="232.8037" x2="242.8037" y1="150.332" y2="150.332"/><rect fill="#F1F1F1" height="34.1328" style="stroke:#181818;stroke-width:1.5;" width="87.3184" x="242.8037" y="133.2656"/><text fill="#000000" font-family="sans-serif" font-size="12" lengthAdjust="spacing" textLength="67.3184" x="252.8037" y="154.8672">Preferences</text><line style="stroke:#181818;stroke-width:1.5;" x1="232.8037" x2="242.8037" y1="199.4648" y2="199.4648"/><rect fill="#F1F1F1" height="34.1328" style="stroke:#181818;stroke-width:1.5;" width="83.7734" x="242.8037" y="182.3984"/><text fill="#000000" font-family="sans-serif" font-size="12" lengthAdjust="spacing" textLength="63.7734" x="252.8037" y="204">Knowledge</text><line style="stroke:#181818;stroke-width:1.5;" x1="232.8037" x2="242.8037" y1="248.5977" y2="248.5977"/><rect fill="#F1F1F1" height="34.1328" style="stroke:#181818;stroke-width:1.5;" width="57.7402" x="242.8037" y="231.5313"/><text fill="#000000" font-family="sans-serif" font-size="12" lengthAdjust="spacing" textLength="37.7402" x="252.8037" y="253.1328">Beliefs</text><line style="stroke:#181818;stroke-width:1.5;" x1="232.8037" x2="242.8037" y1="297.7305" y2="297.7305"/><rect fill="#F1F1F1" height="34.1328" style="stroke:#181818;stroke-width:1.5;" width="31.3906" x="242.8037" y="280.6641"/><text fill="#000000" font-family="sans-serif" font-size="12" lengthAdjust="spacing" textLength="11.3906" x="252.8037" y="302.2656">...</text><line style="stroke:#181818;stroke-width:1.5;" x1="232.8037" x2="232.8037" y1="118.2656" y2="297.7305"/><line style="stroke:#181818;stroke-width:1.5;" x1="383.8672" x2="383.8672" y1="64.1328" y2="84.1328"/><rect fill="#F1F1F1" height="34.1328" style="stroke:#181818;stroke-width:1.5;" width="67.4902" x="350.1221" y="84.1328"/><text fill="#000000" font-family="sans-serif" font-size="12" lengthAdjust="spacing" textLength="47.4902" x="360.1221" y="105.7344">External</text><line style="stroke:#181818;stroke-width:1.5;" x1="383.8672" x2="393.8672" y1="150.332" y2="150.332"/><rect fill="#F1F1F1" height="34.1328" style="stroke:#181818;stroke-width:1.5;" width="87.166" x="393.8672" y="133.2656"/><text fill="#000000" font-family="sans-serif" font-size="12" lengthAdjust="spacing" textLength="67.166" x="403.8672" y="154.8672">Behavioural</text><line style="stroke:#181818;stroke-width:1.5;" x1="383.8672" x2="393.8672" y1="199.4648" y2="199.4648"/><rect fill="#F1F1F1" height="34.1328" style="stroke:#181818;stroke-width:1.5;" width="104" x="393.8672" y="182.3984"/><text fill="#000000" font-family="sans-serif" font-size="12" lengthAdjust="spacing" textLength="84" x="403.8672" y="204">Demographics</text><line style="stroke:#181818;stroke-width:1.5;" x1="383.8672" x2="393.8672" y1="248.5977" y2="248.5977"/><rect fill="#F1F1F1" height="34.1328" style="stroke:#181818;stroke-width:1.5;" width="66.1777" x="393.8672" y="231.5313"/><text fill="#000000" font-family="sans-serif" font-size="12" lengthAdjust="spacing" textLength="46.1777" x="403.8672" y="253.1328">Physical</text><line style="stroke:#181818;stroke-width:1.5;" x1="383.8672" x2="393.8672" y1="297.7305" y2="297.7305"/><rect fill="#F1F1F1" height="34.1328" style="stroke:#181818;stroke-width:1.5;" width="58.0508" x="393.8672" y="280.6641"/><text fill="#000000" font-family="sans-serif" font-size="12" lengthAdjust="spacing" textLength="38.0508" x="403.8672" y="302.2656">Sexual</text><line style="stroke:#181818;stroke-width:1.5;" x1="383.8672" x2="393.8672" y1="346.8633" y2="346.8633"/><rect fill="#F1F1F1" height="34.1328" style="stroke:#181818;stroke-width:1.5;" width="82.1797" x="393.8672" y="329.7969"/><text fill="#000000" font-family="sans-serif" font-size="12" lengthAdjust="spacing" textLength="62.1797" x="403.8672" y="351.3984">Identifying</text><line style="stroke:#181818;stroke-width:1.5;" x1="383.8672" x2="393.8672" y1="395.9961" y2="395.9961"/><rect fill="#F1F1F1" height="34.1328" style="stroke:#181818;stroke-width:1.5;" width="31.3906" x="393.8672" y="378.9297"/><text fill="#000000" font-family="sans-serif" font-size="12" lengthAdjust="spacing" textLength="11.3906" x="403.8672" y="400.5313">...</text><line style="stroke:#181818;stroke-width:1.5;" x1="383.8672" x2="383.8672" y1="118.2656" y2="395.9961"/><line style="stroke:#181818;stroke-width:1.5;" x1="559.0068" x2="559.0068" y1="64.1328" y2="84.1328"/><rect fill="#F1F1F1" height="34.1328" style="stroke:#181818;stroke-width:1.5;" width="82.2793" x="517.8672" y="84.1328"/><text fill="#000000" font-family="sans-serif" font-size="12" lengthAdjust="spacing" textLength="62.2793" x="527.8672" y="105.7344">Household</text><line style="stroke:#181818;stroke-width:1.5;" x1="559.0068" x2="569.0068" y1="150.332" y2="150.332"/><rect fill="#F1F1F1" height="34.1328" style="stroke:#181818;stroke-width:1.5;" width="125.1465" x="569.0068" y="133.2656"/><text fill="#000000" font-family="sans-serif" font-size="12" lengthAdjust="spacing" textLength="105.1465" x="579.0068" y="154.8672">personal activities</text><line style="stroke:#181818;stroke-width:1.5;" x1="559.0068" x2="569.0068" y1="199.4648" y2="199.4648"/><rect fill="#F1F1F1" height="34.1328" style="stroke:#181818;stroke-width:1.5;" width="135.875" x="569.0068" y="182.3984"/><text fill="#000000" font-family="sans-serif" font-size="12" lengthAdjust="spacing" textLength="115.875" x="579.0068" y="204">household activities</text><line style="stroke:#181818;stroke-width:1.5;" x1="559.0068" x2="569.0068" y1="248.5977" y2="248.5977"/><rect fill="#F1F1F1" height="34.1328" style="stroke:#181818;stroke-width:1.5;" width="31.3906" x="569.0068" y="231.5313"/><text fill="#000000" font-family="sans-serif" font-size="12" lengthAdjust="spacing" textLength="11.3906" x="579.0068" y="253.1328">...</text><line style="stroke:#181818;stroke-width:1.5;" x1="559.0068" x2="559.0068" y1="118.2656" y2="248.5977"/><line style="stroke:#181818;stroke-width:1.5;" x1="751.6543" x2="751.6543" y1="64.1328" y2="84.1328"/><rect fill="#F1F1F1" height="34.1328" style="stroke:#181818;stroke-width:1.5;" width="53.5449" x="724.8818" y="84.1328"/><text fill="#000000" font-family="sans-serif" font-size="12" lengthAdjust="spacing" textLength="33.5449" x="734.8818" y="105.7344">Social</text><line style="stroke:#181818;stroke-width:1.5;" x1="751.6543" x2="761.6543" y1="150.332" y2="150.332"/><rect fill="#F1F1F1" height="34.1328" style="stroke:#181818;stroke-width:1.5;" width="57.4707" x="761.6543" y="133.2656"/><text fill="#000000" font-family="sans-serif" font-size="12" lengthAdjust="spacing" textLength="37.4707" x="771.6543" y="154.8672">Family</text><line style="stroke:#181818;stroke-width:1.5;" x1="751.6543" x2="761.6543" y1="199.4648" y2="199.4648"/><rect fill="#F1F1F1" height="34.1328" style="stroke:#181818;stroke-width:1.5;" width="62.6152" x="761.6543" y="182.3984"/><text fill="#000000" font-family="sans-serif" font-size="12" lengthAdjust="spacing" textLength="42.6152" x="771.6543" y="204">Friends</text><line style="stroke:#181818;stroke-width:1.5;" x1="751.6543" x2="761.6543" y1="248.5977" y2="248.5977"/><rect fill="#F1F1F1" height="34.1328" style="stroke:#181818;stroke-width:1.5;" width="90.6289" x="761.6543" y="231.5313"/><text fill="#000000" font-family="sans-serif" font-size="12" lengthAdjust="spacing" textLength="70.6289" x="771.6543" y="253.1328">Professional</text><line style="stroke:#181818;stroke-width:1.5;" x1="751.6543" x2="761.6543" y1="297.7305" y2="297.7305"/><rect fill="#F1F1F1" height="34.1328" style="stroke:#181818;stroke-width:1.5;" width="79.4785" x="761.6543" y="280.6641"/><text fill="#000000" font-family="sans-serif" font-size="12" lengthAdjust="spacing" textLength="59.4785" x="771.6543" y="302.2656">Public Life</text><line style="stroke:#181818;stroke-width:1.5;" x1="751.6543" x2="761.6543" y1="346.8633" y2="346.8633"/><rect fill="#F1F1F1" height="34.1328" style="stroke:#181818;stroke-width:1.5;" width="111.9922" x="761.6543" y="329.7969"/><text fill="#000000" font-family="sans-serif" font-size="12" lengthAdjust="spacing" textLength="91.9922" x="771.6543" y="351.3984">Communication</text><line style="stroke:#181818;stroke-width:1.5;" x1="751.6543" x2="761.6543" y1="395.9961" y2="395.9961"/><rect fill="#F1F1F1" height="34.1328" style="stroke:#181818;stroke-width:1.5;" width="31.3906" x="761.6543" y="378.9297"/><text fill="#000000" font-family="sans-serif" font-size="12" lengthAdjust="spacing" textLength="11.3906" x="771.6543" y="400.5313">...</text><line style="stroke:#181818;stroke-width:1.5;" x1="751.6543" x2="751.6543" y1="118.2656" y2="395.9961"/><line style="stroke:#181818;stroke-width:1.5;" x1="929.2139" x2="929.2139" y1="64.1328" y2="84.1328"/><rect fill="#F1F1F1" height="34.1328" style="stroke:#181818;stroke-width:1.5;" width="71.1348" x="893.6465" y="84.1328"/><text fill="#000000" font-family="sans-serif" font-size="12" lengthAdjust="spacing" textLength="51.1348" x="903.6465" y="105.7344">Financial</text><line style="stroke:#181818;stroke-width:1.5;" x1="929.2139" x2="939.2139" y1="150.332" y2="150.332"/><rect fill="#F1F1F1" height="34.1328" style="stroke:#181818;stroke-width:1.5;" width="98.334" x="939.2139" y="133.2656"/><text fill="#000000" font-family="sans-serif" font-size="12" lengthAdjust="spacing" textLength="78.334" x="949.2139" y="154.8672">Transactional</text><line style="stroke:#181818;stroke-width:1.5;" x1="929.2139" x2="939.2139" y1="199.4648" y2="199.4648"/><rect fill="#F1F1F1" height="34.1328" style="stroke:#181818;stroke-width:1.5;" width="82.1973" x="939.2139" y="182.3984"/><text fill="#000000" font-family="sans-serif" font-size="12" lengthAdjust="spacing" textLength="62.1973" x="949.2139" y="204">Ownership</text><line style="stroke:#181818;stroke-width:1.5;" x1="929.2139" x2="939.2139" y1="248.5977" y2="248.5977"/><rect fill="#F1F1F1" height="34.1328" style="stroke:#181818;stroke-width:1.5;" width="122.2578" x="939.2139" y="231.5313"/><text fill="#000000" font-family="sans-serif" font-size="12" lengthAdjust="spacing" textLength="102.2578" x="949.2139" y="253.1328">Financial Account</text><line style="stroke:#181818;stroke-width:1.5;" x1="929.2139" x2="939.2139" y1="297.7305" y2="297.7305"/><rect fill="#F1F1F1" height="34.1328" style="stroke:#181818;stroke-width:1.5;" width="27.5938" x="939.2139" y="280.6641"/><text fill="#000000" font-family="sans-serif" font-size="12" lengthAdjust="spacing" textLength="7.5938" x="949.2139" y="302.2656">..</text><line style="stroke:#181818;stroke-width:1.5;" x1="929.2139" x2="929.2139" y1="118.2656" y2="297.7305"/><line style="stroke:#181818;stroke-width:1.5;" x1="1116.8135" x2="1116.8135" y1="64.1328" y2="84.1328"/><rect fill="#F1F1F1" height="34.1328" style="stroke:#181818;stroke-width:1.5;" width="70.6836" x="1081.4717" y="84.1328"/><text fill="#000000" font-family="sans-serif" font-size="12" lengthAdjust="spacing" textLength="50.6836" x="1091.4717" y="105.7344">Tracking</text><line style="stroke:#181818;stroke-width:1.5;" x1="1116.8135" x2="1126.8135" y1="150.332" y2="150.332"/><rect fill="#F1F1F1" height="34.1328" style="stroke:#181818;stroke-width:1.5;" width="69.3184" x="1126.8135" y="133.2656"/><text fill="#000000" font-family="sans-serif" font-size="12" lengthAdjust="spacing" textLength="49.3184" x="1136.8135" y="154.8672">Location</text><line style="stroke:#181818;stroke-width:1.5;" x1="1116.8135" x2="1126.8135" y1="199.4648" y2="199.4648"/><rect fill="#F1F1F1" height="34.1328" style="stroke:#181818;stroke-width:1.5;" width="96.5176" x="1126.8135" y="182.3984"/><text fill="#000000" font-family="sans-serif" font-size="12" lengthAdjust="spacing" textLength="76.5176" x="1136.8135" y="204">Device based</text><line style="stroke:#181818;stroke-width:1.5;" x1="1116.8135" x2="1126.8135" y1="248.5977" y2="248.5977"/><rect fill="#F1F1F1" height="34.1328" style="stroke:#181818;stroke-width:1.5;" width="64.8711" x="1126.8135" y="231.5313"/><text fill="#000000" font-family="sans-serif" font-size="12" lengthAdjust="spacing" textLength="44.8711" x="1136.8135" y="253.1328">Contact</text><line style="stroke:#181818;stroke-width:1.5;" x1="1116.8135" x2="1126.8135" y1="297.7305" y2="297.7305"/><rect fill="#F1F1F1" height="34.1328" style="stroke:#181818;stroke-width:1.5;" width="31.3906" x="1126.8135" y="280.6641"/><text fill="#000000" font-family="sans-serif" font-size="12" lengthAdjust="spacing" textLength="11.3906" x="1136.8135" y="302.2656">...</text><line style="stroke:#181818;stroke-width:1.5;" x1="1116.8135" x2="1116.8135" y1="118.2656" y2="297.7305"/><line style="stroke:#181818;stroke-width:1.5;" x1="1280.7734" x2="1280.7734" y1="64.1328" y2="84.1328"/><rect fill="#F1F1F1" height="34.1328" style="stroke:#181818;stroke-width:1.5;" width="74.8848" x="1243.3311" y="84.1328"/><text fill="#000000" font-family="sans-serif" font-size="12" lengthAdjust="spacing" textLength="54.8848" x="1253.3311" y="105.7344">Historical</text><line style="stroke:#181818;stroke-width:1.5;" x1="1280.7734" x2="1290.7734" y1="150.332" y2="150.332"/><rect fill="#F1F1F1" height="34.1328" style="stroke:#181818;stroke-width:1.5;" width="86.2051" x="1290.7734" y="133.2656"/><text fill="#000000" font-family="sans-serif" font-size="12" lengthAdjust="spacing" textLength="66.2051" x="1300.7734" y="154.8672">Life History</text><line style="stroke:#181818;stroke-width:1.5;" x1="1280.7734" x2="1290.7734" y1="199.4648" y2="199.4648"/><rect fill="#F1F1F1" height="34.1328" style="stroke:#181818;stroke-width:1.5;" width="31.3906" x="1290.7734" y="182.3984"/><text fill="#000000" font-family="sans-serif" font-size="12" lengthAdjust="spacing" textLength="11.3906" x="1300.7734" y="204">...</text><line style="stroke:#181818;stroke-width:1.5;" x1="1280.7734" x2="1280.7734" y1="118.2656" y2="199.4648"/><line style="stroke:#181818;stroke-width:1.5;" x1="1425.4531" x2="1425.4531" y1="64.1328" y2="84.1328"/><rect fill="#F1F1F1" height="34.1328" style="stroke:#181818;stroke-width:1.5;" width="56.9492" x="1396.9785" y="84.1328"/><text fill="#000000" font-family="sans-serif" font-size="12" lengthAdjust="spacing" textLength="36.9492" x="1406.9785" y="105.7344">Profile</text><line style="stroke:#181818;stroke-width:1.5;" x1="1425.4531" x2="1435.4531" y1="150.332" y2="150.332"/><rect fill="#F1F1F1" height="34.1328" style="stroke:#181818;stroke-width:1.5;" width="117.4473" x="1435.4531" y="133.2656"/><text fill="#000000" font-family="sans-serif" font-size="12" lengthAdjust="spacing" textLength="97.4473" x="1445.4531" y="154.8672">Individual Profile</text><line style="stroke:#181818;stroke-width:1.5;" x1="1425.4531" x2="1435.4531" y1="199.4648" y2="199.4648"/><rect fill="#F1F1F1" height="34.1328" style="stroke:#181818;stroke-width:1.5;" width="96.6992" x="1435.4531" y="182.3984"/><text fill="#000000" font-family="sans-serif" font-size="12" lengthAdjust="spacing" textLength="76.6992" x="1445.4531" y="204">Group Profile</text><line style="stroke:#181818;stroke-width:1.5;" x1="1425.4531" x2="1425.4531" y1="118.2656" y2="199.4648"/><line style="stroke:#181818;stroke-width:1.5;" x1="48.4092" x2="1425.4531" y1="64.1328" y2="64.1328"/><rect fill="#F1F1F1" height="34.1328" style="stroke:#181818;stroke-width:1.5;" width="95.9902" x="688.936" y="10"/><text fill="#000000" font-family="sans-serif" font-size="12" lengthAdjust="spacing" textLength="75.9902" x="698.936" y="31.6016">PersonalData</text><line style="stroke:#181818;stroke-width:1.5;" x1="736.9312" x2="736.9312" y1="44.1328" y2="64.1328"/><!--SRC=[xLHDSzem4BthLwYtX9am96cI3YSA10g12LD8xa9UuvtAAuy-dFZVTusDGthlBJVjfzvxUgEH3yg5jxqNtv2qYGb87oe3_S8e2Z4tGlJa1fotfCnK1ILwFRa5yXYmX1v771QWKHavKG4ErbLrLYueWEEPOyV6GGeEI8C_nazatmma1pX6Op08QLFfz_lrzEFxsVGOCbMYZQwDfv3RWrD5XhePscILHzrMj_0Us-CY0GgOLaY7y-M_RFIGMPCSaqLBJYhDb9XMYp4xTVrRQBTiRKtwc9cf74tL71q29IqiPrFm7cqdGzmRr7A5QKDyOlCy4YCFt7E-UuQag5k_Sufy3Q9RzFn6Z3h3ehdpr2r_QcqZXNQLQ6RrdnF_bJsxQWebQf1xvI5fqL3WMpufXJvOrqbR0szprNbRJHHDmsb12OkLy1DyIi-TZKMN4ICMgJQT67N-ov2zboAOf3td439x2ZGwRVW1lkpuPSV_QCTD_Ukzh5UoP48CJLxtRmOtT_t1nIw2N2gIWmTv_J2ylHlUtilvUYVhygMuc6zMqhCdc4B2Y1pkOqtjKYnLgUHlLW5p6Chd0cWvVJebv2ELw2pbR0onV5r_DDn_lnfZOFSuHY9Vrs8AgOecy8Is2Iiub2-xsTKFiL9qYEh0ku74f9RRLKCv7_y5]--></g></svg>