<svg xmlns="http://www.w3.org/2000/svg" xmlns:xlink="http://www.w3.org/1999/xlink" contentStyleType="text/css" data-diagram-type="MINDMAP" height="699px" preserveAspectRatio="none" style="width:906px;height:699px;background:#FFFFFF;" version="1.1" viewBox="0 0 906 699" width="906px" zoomAndPan="magnify"><defs/><g><rect fill="#F1F1F1" height="36.4883" rx="12.5" ry="12.5" style="stroke:#181818;stroke-width:1.5;" width="51.1855" x="399.8535" y="330.6855"/><text fill="#000000" font-family="sans-serif" font-size="14" lengthAdjust="spacing" textLength="31.1855" x="409.8535" y="354.2207">Data</text><rect fill="#F1F1F1" height="36.4883" rx="12.5" ry="12.5" style="stroke:#181818;stroke-width:1.5;" width="114.3838" x="501.0391" y="48.2441"/><text fill="#000000" font-family="sans-serif" font-size="14" lengthAdjust="spacing" textLength="94.3838" x="511.0391" y="71.7793">CollectedData</text><rect fill="#F1F1F1" height="36.4883" rx="12.5" ry="12.5" style="stroke:#181818;stroke-width:1.5;" width="115.3955" x="665.4229" y="20"/><text fill="#000000" font-family="sans-serif" font-size="14" lengthAdjust="spacing" textLength="95.3955" x="675.4229" y="43.5352">ObservedData</text><path d="M615.4229,66.4883 L625.4229,66.4883 C640.4229,66.4883 640.4229,38.2441 655.4229,38.2441 L665.4229,38.2441 " fill="transparent" style="stroke:#181818;stroke-width:1;"/><rect fill="#F1F1F1" height="36.4883" rx="12.5" ry="12.5" style="stroke:#181818;stroke-width:1.5;" width="109.9678" x="665.4229" y="76.4883"/><text fill="#000000" font-family="sans-serif" font-size="14" lengthAdjust="spacing" textLength="89.9678" x="675.4229" y="100.0234">ProvidedData</text><path d="M615.4229,66.4883 L625.4229,66.4883 C640.4229,66.4883 640.4229,94.7324 655.4229,94.7324 L665.4229,94.7324 " fill="transparent" style="stroke:#181818;stroke-width:1;"/><path d="M451.0391,348.9297 L461.0391,348.9297 C476.0391,348.9297 476.0391,66.4883 491.0391,66.4883 L501.0391,66.4883 " fill="transparent" style="stroke:#181818;stroke-width:1;"/><rect fill="#F1F1F1" height="36.4883" rx="12.5" ry="12.5" style="stroke:#181818;stroke-width:1.5;" width="226.0283" x="501.0391" y="132.9766"/><text fill="#000000" font-family="sans-serif" font-size="14" lengthAdjust="spacing" textLength="206.0283" x="511.0391" y="156.5117">CommerciallyConfidentialData</text><path d="M451.0391,348.9297 L461.0391,348.9297 C476.0391,348.9297 476.0391,151.2207 491.0391,151.2207 L501.0391,151.2207 " fill="transparent" style="stroke:#181818;stroke-width:1;"/><rect fill="#F1F1F1" height="36.4883" rx="12.5" ry="12.5" style="stroke:#181818;stroke-width:1.5;" width="133.7158" x="501.0391" y="217.709"/><text fill="#000000" font-family="sans-serif" font-size="14" lengthAdjust="spacing" textLength="113.7158" x="511.0391" y="241.2441">ConfidentialData</text><rect fill="#F1F1F1" height="36.4883" rx="12.5" ry="12.5" style="stroke:#181818;stroke-width:1.5;" width="182.668" x="684.7549" y="189.4648"/><text fill="#000000" font-family="sans-serif" font-size="14" lengthAdjust="spacing" textLength="162.668" x="694.7549" y="213">IntellectualPropertyData</text><path d="M634.7549,235.9531 L644.7549,235.9531 C659.7549,235.9531 659.7549,207.709 674.7549,207.709 L684.7549,207.709 " fill="transparent" style="stroke:#181818;stroke-width:1;"/><rect fill="#F1F1F1" height="36.4883" rx="12.5" ry="12.5" style="stroke:#181818;stroke-width:1.5;" width="210.2373" x="684.7549" y="245.9531"/><text fill="#000000" font-family="sans-serif" font-size="14" lengthAdjust="spacing" textLength="190.2373" x="694.7549" y="269.4883">StatisticallyConfidentialData</text><path d="M634.7549,235.9531 L644.7549,235.9531 C659.7549,235.9531 659.7549,264.1973 674.7549,264.1973 L684.7549,264.1973 " fill="transparent" style="stroke:#181818;stroke-width:1;"/><path d="M451.0391,348.9297 L461.0391,348.9297 C476.0391,348.9297 476.0391,235.9531 491.0391,235.9531 L501.0391,235.9531 " fill="transparent" style="stroke:#181818;stroke-width:1;"/><rect fill="#F1F1F1" height="36.4883" rx="12.5" ry="12.5" style="stroke:#181818;stroke-width:1.5;" width="103.1045" x="501.0391" y="302.4414"/><text fill="#000000" font-family="sans-serif" font-size="14" lengthAdjust="spacing" textLength="83.1045" x="511.0391" y="325.9766">DerivedData</text><rect fill="#F1F1F1" height="36.4883" rx="12.5" ry="12.5" style="stroke:#181818;stroke-width:1.5;" width="104.9229" x="654.1436" y="302.4414"/><text fill="#000000" font-family="sans-serif" font-size="14" lengthAdjust="spacing" textLength="84.9229" x="664.1436" y="325.9766">InferredData</text><path d="M604.1436,320.6855 L614.1436,320.6855 C629.1436,320.6855 629.1436,320.6855 644.1436,320.6855 L654.1436,320.6855 " fill="transparent" style="stroke:#181818;stroke-width:1;"/><path d="M451.0391,348.9297 L461.0391,348.9297 C476.0391,348.9297 476.0391,320.6855 491.0391,320.6855 L501.0391,320.6855 " fill="transparent" style="stroke:#181818;stroke-width:1;"/><rect fill="#F1F1F1" height="36.4883" rx="12.5" ry="12.5" style="stroke:#181818;stroke-width:1.5;" width="120.8984" x="501.0391" y="358.9297"/><text fill="#000000" font-family="sans-serif" font-size="14" lengthAdjust="spacing" textLength="100.8984" x="511.0391" y="382.4648">GeneratedData</text><rect fill="#F1F1F1" height="36.4883" rx="12.5" ry="12.5" style="stroke:#181818;stroke-width:1.5;" width="112.9072" x="671.9375" y="358.9297"/><text fill="#000000" font-family="sans-serif" font-size="14" lengthAdjust="spacing" textLength="92.9072" x="681.9375" y="382.4648">SyntheticData</text><path d="M621.9375,377.1738 L631.9375,377.1738 C646.9375,377.1738 646.9375,377.1738 661.9375,377.1738 L671.9375,377.1738 " fill="transparent" style="stroke:#181818;stroke-width:1;"/><path d="M451.0391,348.9297 L461.0391,348.9297 C476.0391,348.9297 476.0391,377.1738 491.0391,377.1738 L501.0391,377.1738 " fill="transparent" style="stroke:#181818;stroke-width:1;"/><rect fill="#F1F1F1" height="36.4883" rx="12.5" ry="12.5" style="stroke:#181818;stroke-width:1.5;" width="111.3418" x="501.0391" y="415.418"/><text fill="#000000" font-family="sans-serif" font-size="14" lengthAdjust="spacing" textLength="91.3418" x="511.0391" y="438.9531">IncorrectData</text><path d="M451.0391,348.9297 L461.0391,348.9297 C476.0391,348.9297 476.0391,433.6621 491.0391,433.6621 L501.0391,433.6621 " fill="transparent" style="stroke:#181818;stroke-width:1;"/><rect fill="#F1F1F1" height="36.4883" rx="12.5" ry="12.5" style="stroke:#181818;stroke-width:1.5;" width="136.2861" x="501.0391" y="471.9063"/><text fill="#000000" font-family="sans-serif" font-size="14" lengthAdjust="spacing" textLength="116.2861" x="511.0391" y="495.4414">NonPersonalData</text><rect fill="#F1F1F1" height="36.4883" rx="12.5" ry="12.5" style="stroke:#181818;stroke-width:1.5;" width="135.001" x="687.3252" y="471.9063"/><text fill="#000000" font-family="sans-serif" font-size="14" lengthAdjust="spacing" textLength="115.001" x="697.3252" y="495.4414">AnonymisedData</text><path d="M637.3252,490.1504 L647.3252,490.1504 C662.3252,490.1504 662.3252,490.1504 677.3252,490.1504 L687.3252,490.1504 " fill="transparent" style="stroke:#181818;stroke-width:1;"/><path d="M451.0391,348.9297 L461.0391,348.9297 C476.0391,348.9297 476.0391,490.1504 491.0391,490.1504 L501.0391,490.1504 " fill="transparent" style="stroke:#181818;stroke-width:1;"/><rect fill="#F1F1F1" height="36.4883" rx="12.5" ry="12.5" style="stroke:#181818;stroke-width:1.5;" width="110.7266" x="501.0391" y="528.3945"/><text fill="#000000" font-family="sans-serif" font-size="14" lengthAdjust="spacing" textLength="90.7266" x="511.0391" y="551.9297">SensitiveData</text><rect fill="#F1F1F1" height="36.4883" rx="12.5" ry="12.5" style="stroke:#181818;stroke-width:1.5;" width="195.8271" x="661.7656" y="528.3945"/><text fill="#000000" font-family="sans-serif" font-size="14" lengthAdjust="spacing" textLength="175.8271" x="671.7656" y="551.9297">SensitiveNonPersonalData</text><path d="M611.7656,546.6387 L621.7656,546.6387 C636.7656,546.6387 636.7656,546.6387 651.7656,546.6387 L661.7656,546.6387 " fill="transparent" style="stroke:#181818;stroke-width:1;"/><path d="M451.0391,348.9297 L461.0391,348.9297 C476.0391,348.9297 476.0391,546.6387 491.0391,546.6387 L501.0391,546.6387 " fill="transparent" style="stroke:#181818;stroke-width:1;"/><rect fill="#F1F1F1" height="36.4883" rx="12.5" ry="12.5" style="stroke:#181818;stroke-width:1.5;" width="120.2012" x="501.0391" y="584.8828"/><text fill="#000000" font-family="sans-serif" font-size="14" lengthAdjust="spacing" textLength="100.2012" x="511.0391" y="608.418">UnverifiedData</text><path d="M451.0391,348.9297 L461.0391,348.9297 C476.0391,348.9297 476.0391,603.127 491.0391,603.127 L501.0391,603.127 " fill="transparent" style="stroke:#181818;stroke-width:1;"/><rect fill="#F1F1F1" height="36.4883" rx="12.5" ry="12.5" style="stroke:#181818;stroke-width:1.5;" width="103.7197" x="501.0391" y="641.3711"/><text fill="#000000" font-family="sans-serif" font-size="14" lengthAdjust="spacing" textLength="83.7197" x="511.0391" y="664.9063">VerifiedData</text><path d="M451.0391,348.9297 L461.0391,348.9297 C476.0391,348.9297 476.0391,659.6152 491.0391,659.6152 L501.0391,659.6152 " fill="transparent" style="stroke:#181818;stroke-width:1;"/><rect fill="#F1F1F1" height="36.4883" rx="12.5" ry="12.5" style="stroke:#181818;stroke-width:1.5;" width="108.6553" x="241.1982" y="330.6855"/><text fill="#000000" font-family="sans-serif" font-size="14" lengthAdjust="spacing" textLength="88.6553" x="251.1982" y="354.2207">PersonalData</text><rect fill="#F1F1F1" height="36.4883" rx="12.5" ry="12.5" style="stroke:#181818;stroke-width:1.5;" width="171.8535" x="19.3447" y="189.4648"/><text fill="#000000" font-family="sans-serif" font-size="14" lengthAdjust="spacing" textLength="151.8535" x="29.3447" y="213">CollectedPersonalData</text><path d="M241.1982,348.9297 L231.1982,348.9297 C216.1982,348.9297 216.1982,207.709 201.1982,207.709 L191.1982,207.709 " fill="transparent" style="stroke:#181818;stroke-width:1;"/><rect fill="#F1F1F1" height="36.4883" rx="12.5" ry="12.5" style="stroke:#181818;stroke-width:1.5;" width="160.5742" x="30.624" y="245.9531"/><text fill="#000000" font-family="sans-serif" font-size="14" lengthAdjust="spacing" textLength="140.5742" x="40.624" y="269.4883">DerivedPersonalData</text><path d="M241.1982,348.9297 L231.1982,348.9297 C216.1982,348.9297 216.1982,264.1973 201.1982,264.1973 L191.1982,264.1973 " fill="transparent" style="stroke:#181818;stroke-width:1;"/><rect fill="#F1F1F1" height="36.4883" rx="12.5" ry="12.5" style="stroke:#181818;stroke-width:1.5;" width="178.3682" x="12.8301" y="302.4414"/><text fill="#000000" font-family="sans-serif" font-size="14" lengthAdjust="spacing" textLength="158.3682" x="22.8301" y="325.9766">GeneratedPersonalData</text><path d="M241.1982,348.9297 L231.1982,348.9297 C216.1982,348.9297 216.1982,320.6855 201.1982,320.6855 L191.1982,320.6855 " fill="transparent" style="stroke:#181818;stroke-width:1;"/><rect fill="#F1F1F1" height="36.4883" rx="12.5" ry="12.5" style="stroke:#181818;stroke-width:1.5;" width="181.1982" x="10" y="358.9297"/><text fill="#000000" font-family="sans-serif" font-size="14" lengthAdjust="spacing" textLength="161.1982" x="20" y="382.4648">IdentifyingPersonalData</text><path d="M241.1982,348.9297 L231.1982,348.9297 C216.1982,348.9297 216.1982,377.1738 201.1982,377.1738 L191.1982,377.1738 " fill="transparent" style="stroke:#181818;stroke-width:1;"/><rect fill="#F1F1F1" height="36.4883" rx="12.5" ry="12.5" style="stroke:#181818;stroke-width:1.5;" width="156.8281" x="34.3701" y="415.418"/><text fill="#000000" font-family="sans-serif" font-size="14" lengthAdjust="spacing" textLength="136.8281" x="44.3701" y="438.9531">PseudonymisedData</text><path d="M241.1982,348.9297 L231.1982,348.9297 C216.1982,348.9297 216.1982,433.6621 201.1982,433.6621 L191.1982,433.6621 " fill="transparent" style="stroke:#181818;stroke-width:1;"/><rect fill="#F1F1F1" height="36.4883" rx="12.5" ry="12.5" style="stroke:#181818;stroke-width:1.5;" width="168.1963" x="23.002" y="471.9063"/><text fill="#000000" font-family="sans-serif" font-size="14" lengthAdjust="spacing" textLength="148.1963" x="33.002" y="495.4414">SensitivePersonalData</text><path d="M241.1982,348.9297 L231.1982,348.9297 C216.1982,348.9297 216.1982,490.1504 201.1982,490.1504 L191.1982,490.1504 " fill="transparent" style="stroke:#181818;stroke-width:1;"/><path d="M399.8535,348.9297 L389.8535,348.9297 C374.8535,348.9297 374.8535,348.9297 359.8535,348.9297 L349.8535,348.9297 " fill="transparent" style="stroke:#181818;stroke-width:1;"/><!--SRC=[xLJBRjim4BppAxQt188C9scIGYStTclOjHkXVjmPQcKJe9O6IGdGttUTM0z3wA7ttBGpkyCTSg293zA5GbDMo9FueacPCaFmeJOuEXb9eIoC417CP90YYc1gZK4LCBi04Ro-UNHL3qYThNJM0ZnI5EYKbiRKKqivSnIuwlW15i620hwVL4h3WYTqeMx9JP11-w3LloHdw7H_fGNbw5otqXm9dUoxsDGKZiYIJSk2bEKH5HhWjwKKdRVKs_8xMQeBxJlb3PBNWG_lb1jaA00xgdZJN7Vp-tuTnt0r4JFGFi20kPWUuAtP0RDulxQyrdGOSAd7ChjoTqPRCrVzOe8Se4k8nEGgKqT-6s179lCVtmM6esqAfPqowCLdn3uZzXyHIyz_fjrw1UpDQqjmDxeVtp-EnZVR4c4f2SRFSFUSF3mc3qymNs_XJD-Actcw0czBfn0oVbwdtyh0yxTYAIi9VqhUjS04Naz8ozcl1e0VL6bdgM0lOhbVTmrFN-CN7NXdZgU3_LhCC9Ub2JoXRCQc4zXjVyRVn4hIePG7raOIKykwhavW_l8N]--></g></svg>