<svg xmlns="http://www.w3.org/2000/svg" xmlns:xlink="http://www.w3.org/1999/xlink" contentStyleType="text/css" data-diagram-type="MINDMAP" height="304px" preserveAspectRatio="none" style="width:386px;height:304px;background:#FFFFFF;" version="1.1" viewBox="0 0 386 304" width="386px" zoomAndPan="magnify"><defs/><g><rect fill="#F1F1F1" height="36.4883" rx="12.5" ry="12.5" style="stroke:#181818;stroke-width:1.5;" width="92.7754" x="150.6836" y="132.9766"/><text fill="#000000" font-family="sans-serif" font-size="14" lengthAdjust="spacing" textLength="72.7754" x="160.6836" y="156.5117">Processing</text><rect fill="#F1F1F1" height="36.4883" rx="12.5" ry="12.5" style="stroke:#181818;stroke-width:1.5;" width="54.4121" x="293.459" y="48.2441"/><text fill="#000000" font-family="sans-serif" font-size="14" lengthAdjust="spacing" textLength="34.4121" x="303.459" y="71.7793">Copy</text><path d="M243.459,151.2207 L253.459,151.2207 C268.459,151.2207 268.459,66.4883 283.459,66.4883 L293.459,66.4883 " fill="transparent" style="stroke:#181818;stroke-width:1;"/><rect fill="#F1F1F1" height="36.4883" rx="12.5" ry="12.5" style="stroke:#181818;stroke-width:1.5;" width="76.4238" x="293.459" y="104.7324"/><text fill="#000000" font-family="sans-serif" font-size="14" lengthAdjust="spacing" textLength="56.4238" x="303.459" y="128.2676">Disclose</text><path d="M243.459,151.2207 L253.459,151.2207 C268.459,151.2207 268.459,122.9766 283.459,122.9766 L293.459,122.9766 " fill="transparent" style="stroke:#181818;stroke-width:1;"/><rect fill="#F1F1F1" height="36.4883" rx="12.5" ry="12.5" style="stroke:#181818;stroke-width:1.5;" width="65.3906" x="293.459" y="161.2207"/><text fill="#000000" font-family="sans-serif" font-size="14" lengthAdjust="spacing" textLength="45.3906" x="303.459" y="184.7559">Obtain</text><path d="M243.459,151.2207 L253.459,151.2207 C268.459,151.2207 268.459,179.4648 283.459,179.4648 L293.459,179.4648 " fill="transparent" style="stroke:#181818;stroke-width:1;"/><rect fill="#F1F1F1" height="36.4883" rx="12.5" ry="12.5" style="stroke:#181818;stroke-width:1.5;" width="80.7373" x="293.459" y="217.709"/><text fill="#000000" font-family="sans-serif" font-size="14" lengthAdjust="spacing" textLength="60.7373" x="303.459" y="241.2441">Organise</text><path d="M243.459,151.2207 L253.459,151.2207 C268.459,151.2207 268.459,235.9531 283.459,235.9531 L293.459,235.9531 " fill="transparent" style="stroke:#181818;stroke-width:1;"/><rect fill="#F1F1F1" height="36.4883" rx="12.5" ry="12.5" style="stroke:#181818;stroke-width:1.5;" width="73.3682" x="27.3154" y="20"/><text fill="#000000" font-family="sans-serif" font-size="14" lengthAdjust="spacing" textLength="53.3682" x="37.3154" y="43.5352">Remove</text><path d="M150.6836,151.2207 L140.6836,151.2207 C125.6836,151.2207 125.6836,38.2441 110.6836,38.2441 L100.6836,38.2441 " fill="transparent" style="stroke:#181818;stroke-width:1;"/><rect fill="#F1F1F1" height="36.4883" rx="12.5" ry="12.5" style="stroke:#181818;stroke-width:1.5;" width="54.9043" x="45.7793" y="76.4883"/><text fill="#000000" font-family="sans-serif" font-size="14" lengthAdjust="spacing" textLength="34.9043" x="55.7793" y="100.0234">Store</text><path d="M150.6836,151.2207 L140.6836,151.2207 C125.6836,151.2207 125.6836,94.7324 110.6836,94.7324 L100.6836,94.7324 " fill="transparent" style="stroke:#181818;stroke-width:1;"/><rect fill="#F1F1F1" height="36.4883" rx="12.5" ry="12.5" style="stroke:#181818;stroke-width:1.5;" width="90.6836" x="10" y="132.9766"/><text fill="#000000" font-family="sans-serif" font-size="14" lengthAdjust="spacing" textLength="70.6836" x="20" y="156.5117">Transform</text><path d="M150.6836,151.2207 L140.6836,151.2207 C125.6836,151.2207 125.6836,151.2207 110.6836,151.2207 L100.6836,151.2207 " fill="transparent" style="stroke:#181818;stroke-width:1;"/><rect fill="#F1F1F1" height="36.4883" rx="12.5" ry="12.5" style="stroke:#181818;stroke-width:1.5;" width="76.8135" x="23.8701" y="189.4648"/><text fill="#000000" font-family="sans-serif" font-size="14" lengthAdjust="spacing" textLength="56.8135" x="33.8701" y="213">Transfer</text><path d="M150.6836,151.2207 L140.6836,151.2207 C125.6836,151.2207 125.6836,207.709 110.6836,207.709 L100.6836,207.709 " fill="transparent" style="stroke:#181818;stroke-width:1;"/><rect fill="#F1F1F1" height="36.4883" rx="12.5" ry="12.5" style="stroke:#181818;stroke-width:1.5;" width="44.6367" x="56.0469" y="245.9531"/><text fill="#000000" font-family="sans-serif" font-size="14" lengthAdjust="spacing" textLength="24.6367" x="66.0469" y="269.4883">Use</text><path d="M150.6836,151.2207 L140.6836,151.2207 C125.6836,151.2207 125.6836,264.1973 110.6836,264.1973 L100.6836,264.1973 " fill="transparent" style="stroke:#181818;stroke-width:1;"/><!--SRC=[nP3RRi8m38RlynJU7GY1E8mnzGe16r971OB2VMXDiPGuLGwLUFkbR0Zj2NQLptP-wvFdpalhDN6fPIrUY0iLIWJdRme7jPBiWrP2Y1xih2dGEU9Az7gmDFMjVLVa2cKSjhmzUqby9rj9fjZjzs6FsZHtEdXZxv1RoUvYh7uMQ5i-neYOOvJv5HBpFtvNYcuNGbMw7zReh-PH56GBXKxye-wklTWnsq23rf5X60t6m_5qCEpa0I6L3CCPZ6R9P9fCtc2TvT2EkwAptct0cM0BX9ASjtGEFkQx8fMDX7rWJneJsDR8wUhhqO0FRiWQriXUfAVi-U7jjRyW3mUqqGHEcLZXHGRbOw8mPRnA0iVyi_ykDfAh8Aku6raiJTnhRmci5zy0]--></g></svg>