<svg xmlns="http://www.w3.org/2000/svg" xmlns:xlink="http://www.w3.org/1999/xlink" contentStyleType="text/css" data-diagram-type="CLASS" height="193px" preserveAspectRatio="none" style="width:1111px;height:193px;background:#FFFFFF;" version="1.1" viewBox="0 0 1111 193" width="1111px" zoomAndPan="magnify"><defs/><g><!--cluster dpv--><g id="cluster_dpv"><path d="M8.5,6 L36.3584,6 A3.75,3.75 0 0 1 38.8584,8.5 L45.8584,28.4883 L1101.5,28.4883 A2.5,2.5 0 0 1 1104,30.9883 L1104,184.48 A2.5,2.5 0 0 1 1101.5,186.98 L8.5,186.98 A2.5,2.5 0 0 1 6,184.48 L6,8.5 A2.5,2.5 0 0 1 8.5,6 " fill="transparent" style="stroke:#000000;stroke-width:1.5;"/><line style="stroke:#000000;stroke-width:1.5;" x1="6" x2="45.8584" y1="28.4883" y2="28.4883"/><text fill="#000000" font-family="sans-serif" font-size="14" font-weight="bold" lengthAdjust="spacing" textLength="26.8584" x="10" y="21.5352">dpv</text></g><!--class Process--><g id="elem_Process"><rect codeLine="4" fill="#F1F1F1" height="26.4883" id="Process" rx="2.5" ry="2.5" style="stroke:#181818;stroke-width:0.5;" width="57.3105" x="436.34" y="41"/><text fill="#000000" font-family="sans-serif" font-size="14" lengthAdjust="spacing" textLength="51.3105" x="439.34" y="59.5352">Process</text></g><!--class Data--><g id="elem_Data"><rect codeLine="5" fill="#F1F1F1" height="26.4883" id="Data" rx="2.5" ry="2.5" style="stroke:#181818;stroke-width:0.5;" width="37.1855" x="38.41" y="144.49"/><text fill="#000000" font-family="sans-serif" font-size="14" lengthAdjust="spacing" textLength="31.1855" x="41.41" y="163.0252">Data</text></g><!--class PersonalData--><g id="elem_PersonalData"><rect codeLine="6" fill="#F1F1F1" height="26.4883" id="PersonalData" rx="2.5" ry="2.5" style="stroke:#181818;stroke-width:0.5;" width="94.6553" x="114.67" y="144.49"/><text fill="#000000" font-family="sans-serif" font-size="14" lengthAdjust="spacing" textLength="88.6553" x="117.67" y="163.0252">PersonalData</text></g><!--class Processing--><g id="elem_Processing"><rect codeLine="7" fill="#F1F1F1" height="26.4883" id="Processing" rx="2.5" ry="2.5" style="stroke:#181818;stroke-width:0.5;" width="78.7754" x="281.61" y="144.49"/><text fill="#000000" font-family="sans-serif" font-size="14" lengthAdjust="spacing" textLength="72.7754" x="284.61" y="163.0252">Processing</text></g><!--class LegalBasis--><g id="elem_LegalBasis"><rect codeLine="8" fill="#F1F1F1" height="26.4883" id="LegalBasis" rx="2.5" ry="2.5" style="stroke:#181818;stroke-width:0.5;" width="75.877" x="427.06" y="144.49"/><text fill="#000000" font-family="sans-serif" font-size="14" lengthAdjust="spacing" textLength="69.877" x="430.06" y="163.0252">LegalBasis</text></g><!--class Entity--><g id="elem_Entity"><rect codeLine="9" fill="#F1F1F1" height="26.4883" id="Entity" rx="2.5" ry="2.5" style="stroke:#181818;stroke-width:0.5;" width="44.1104" x="578.94" y="144.49"/><text fill="#000000" font-family="sans-serif" font-size="14" lengthAdjust="spacing" textLength="38.1104" x="581.94" y="163.0252">Entity</text></g><!--class TechnicalMeasure--><g id="elem_TechnicalMeasure"><rect codeLine="10" fill="#F1F1F1" height="26.4883" id="TechnicalMeasure" rx="2.5" ry="2.5" style="stroke:#181818;stroke-width:0.5;" width="127.1396" x="658.43" y="144.49"/><text fill="#000000" font-family="sans-serif" font-size="14" lengthAdjust="spacing" textLength="121.1396" x="661.43" y="163.0252">TechnicalMeasure</text></g><!--class OrganisationalMeasure--><g id="elem_OrganisationalMeasure"><rect codeLine="11" fill="#F1F1F1" height="26.4883" id="OrganisationalMeasure" rx="2.5" ry="2.5" style="stroke:#181818;stroke-width:0.5;" width="161.9619" x="826.02" y="144.49"/><text fill="#000000" font-family="sans-serif" font-size="14" lengthAdjust="spacing" textLength="155.9619" x="829.02" y="163.0252">OrganisationalMeasure</text></g><!--class Process2--><g id="elem_Process2"><rect codeLine="12" fill="#F1F1F1" height="26.4883" id="Process2" rx="2.5" ry="2.5" style="stroke:#181818;stroke-width:0.5;" width="57.3105" x="612.34" y="41"/><text fill="#000000" font-family="sans-serif" font-size="14" lengthAdjust="spacing" textLength="51.3105" x="615.34" y="59.5352">Process</text></g><!--class Service--><g id="elem_Service"><rect codeLine="13" fill="#F1F1F1" height="26.4883" id="Service" rx="2.5" ry="2.5" style="stroke:#181818;stroke-width:0.5;" width="53.332" x="264.33" y="41"/><text fill="#000000" font-family="sans-serif" font-size="14" lengthAdjust="spacing" textLength="47.332" x="267.33" y="59.5352">Service</text></g><!--link Process to Data--><g id="link_Process_Data"><path codeLine="16" d="M435.94,58.27 C355.07,66.77 132.32,90.64 118,97.49 C95.76,108.13 76.58,130.1 65.93,144.09 " fill="transparent" id="Process-Data" style="stroke:#181818;stroke-width:1;"/><polygon fill="#000000" points="118.1293,107.275,127.6045,108.0942,126.2765,102.3684,118.1293,107.275" style="stroke:#000000;stroke-width:1;"/><text fill="#000000" font-family="sans-serif" font-size="13" lengthAdjust="spacing" textLength="50.832" x="132" y="111.0584">hasData</text></g><!--link Process to PersonalData--><g id="link_Process_PersonalData"><path codeLine="17" d="M436.25,57.44 C377.95,62.29 248.11,75.32 210,97.49 C191.01,108.54 176.46,130.17 168.58,144.02 " fill="transparent" id="Process-PersonalData" style="stroke:#181818;stroke-width:1;"/><polygon fill="#000000" points="210.2427,107.6841,219.7532,107.6966,217.9443,102.1041,210.2427,107.6841" style="stroke:#000000;stroke-width:1;"/><text fill="#000000" font-family="sans-serif" font-size="13" lengthAdjust="spacing" textLength="104.1968" x="224" y="111.0584">hasPersonalData</text></g><!--link Process to Processing--><g id="link_Process_Processing"><path codeLine="18" d="M435.87,59.68 C410.52,64.87 374.17,75.7 350,97.49 C336.05,110.07 328.07,130.85 324.14,144.15 " fill="transparent" id="Process-Processing" style="stroke:#181818;stroke-width:1;"/><polygon fill="#000000" points="351.0116,109.1606,359.9991,106.0502,356.4543,101.3615,351.0116,109.1606" style="stroke:#000000;stroke-width:1;"/><text fill="#000000" font-family="sans-serif" font-size="13" lengthAdjust="spacing" textLength="89.4512" x="364" y="111.0584">hasProcessing</text></g><!--link Process to LegalBasis--><g id="link_Process_LegalBasis"><path codeLine="19" d="M463.87,67.8 C463.18,76.2 462.35,87.5 462,97.49 C461.43,113.55 462.67,132.03 463.72,144.03 " fill="transparent" id="Process-LegalBasis" style="stroke:#181818;stroke-width:1;"/><polygon fill="#000000" points="466.9902,111.1453,469.9469,102.106,464.069,102.0944,466.9902,111.1453" style="stroke:#000000;stroke-width:1;"/><text fill="#000000" font-family="sans-serif" font-size="13" lengthAdjust="spacing" textLength="86.7598" x="476" y="111.0584">hasLegalBasis</text></g><!--link Process to Entity--><g id="link_Process_Entity"><path codeLine="20" d="M494.13,61.84 C516.18,68.03 546.13,79.14 567,97.49 C581.61,110.33 591.45,131.04 596.64,144.26 " fill="transparent" id="Process-Entity" style="stroke:#181818;stroke-width:1;"/><polygon fill="#000000" points="590.3167,109.2783,585.109,101.3202,581.426,105.901,590.3167,109.2783" style="stroke:#000000;stroke-width:1;"/><text fill="#000000" font-family="sans-serif" font-size="13" lengthAdjust="spacing" textLength="57.2622" x="595.42" y="111.0584">hasEntity</text></g><!--link Process to TechnicalMeasure--><g id="link_Process_TechnicalMeasure"><path codeLine="21" d="M493.96,56.53 C533.78,59.35 606.68,68.41 661,97.49 C682.61,109.06 701.84,130.53 712.69,144.21 " fill="transparent" id="Process-TechnicalMeasure" style="stroke:#181818;stroke-width:1;"/><polygon fill="#000000" points="693.351,108.0057,686.0489,101.9123,683.8618,107.3681,693.351,108.0057" style="stroke:#000000;stroke-width:1;"/><text fill="#000000" font-family="sans-serif" font-size="13" lengthAdjust="spacing" textLength="134.3608" x="697.71" y="111.0584">hasTechnicalMeasure</text></g><!--link Process to OrganisationalMeasure--><g id="link_Process_OrganisationalMeasure"><path codeLine="22" d="M494,58.02 C579.43,66.24 825.17,90.39 841,97.49 C864.46,108.02 885.4,130.02 897.12,144.05 " fill="transparent" id="Process-OrganisationalMeasure" style="stroke:#181818;stroke-width:1;"/><polygon fill="#000000" points="877.3199,107.1888,869.0874,102.4268,867.8606,108.1752,877.3199,107.1888" style="stroke:#000000;stroke-width:1;"/><text fill="#000000" font-family="sans-serif" font-size="13" lengthAdjust="spacing" textLength="166.6958" x="881.43" y="111.0584">hasOrganisationalMeasure</text></g><!--link Process to Process2--><g id="link_Process_Process2"><path codeLine="24" d="M494.06,54.25 C526.67,54.25 579.27,54.25 611.89,54.25 " fill="transparent" id="Process-Process2" style="stroke:#181818;stroke-width:1;"/><polygon fill="#000000" points="521,42.9053,511.9549,39.9663,511.9549,45.8442,521,42.9053" style="stroke:#000000;stroke-width:1;"/><text fill="#000000" font-family="sans-serif" font-size="13" lengthAdjust="spacing" textLength="69.5195" x="525" y="47.8184">hasProcess</text></g><!--link Service to Process--><g id="link_Service_Process"><path codeLine="25" d="M317.81,54.25 C349.84,54.25 403.22,54.25 436.13,54.25 " fill="transparent" id="Service-Process" style="stroke:#181818;stroke-width:1;"/><polygon fill="#000000" points="345.01,42.9053,335.9649,39.9663,335.9649,45.8442,345.01,42.9053" style="stroke:#000000;stroke-width:1;"/><text fill="#000000" font-family="sans-serif" font-size="13" lengthAdjust="spacing" textLength="69.5195" x="349.01" y="47.8184">hasProcess</text></g><!--SRC=[RP3D3i8W48JlFCNQknuyUkZ1w4sZYRx01ZULYDYmj4bZV7T_87LfombclWLcPiPfsrm8E7IM5hL55vgxLQf6VSEAu5Aty5JmMTeYCnpzGnEpK3OOK0Ba-U7G3kKuPrmbn1rLQDV8HjwtTS64JWXdqbTdDDez8JUUX7Nm5Jh36CptoR5Vf6SBmFuBI-6VoBT6atefbLoOpt-9O0LNvD-kb9wC5vbCoTa-SoB_vupxrn0vSSwus4naqZxpXqL5SgHcCvCDni5fgnHL-JxZCaluWLApaXaYRm00]--></g></svg>