<svg xmlns="http://www.w3.org/2000/svg" xmlns:xlink="http://www.w3.org/1999/xlink" contentStyleType="text/css" data-diagram-type="CLASS" height="268px" preserveAspectRatio="none" style="width:1338px;height:268px;background:#FFFFFF;" version="1.1" viewBox="0 0 1338 268" width="1338px" zoomAndPan="magnify"><defs/><g><!--cluster dpv--><g id="cluster_dpv"><path d="M8.5,96.48 L36.3584,96.48 A3.75,3.75 0 0 1 38.8584,98.98 L45.8584,118.9683 L1269.5,118.9683 A2.5,2.5 0 0 1 1272,121.4683 L1272,258.96 A2.5,2.5 0 0 1 1269.5,261.46 L8.5,261.46 A2.5,2.5 0 0 1 6,258.96 L6,98.98 A2.5,2.5 0 0 1 8.5,96.48 " fill="transparent" style="stroke:#000000;stroke-width:1.5;"/><line style="stroke:#000000;stroke-width:1.5;" x1="6" x2="45.8584" y1="118.9683" y2="118.9683"/><text fill="#000000" font-family="sans-serif" font-size="14" font-weight="bold" lengthAdjust="spacing" textLength="26.8584" x="10" y="112.0152">dpv</text></g><!--class Entity--><g id="elem_Entity"><rect codeLine="6" fill="#F1F1F1" height="26.4883" id="Entity" rx="2.5" ry="2.5" style="stroke:#181818;stroke-width:0.5;" width="44.1104" x="310.94" y="131.48"/><text fill="#000000" font-family="sans-serif" font-size="14" lengthAdjust="spacing" textLength="38.1104" x="313.94" y="150.0152">Entity</text></g><!--class EntityInvolvement--><g id="elem_EntityInvolvement"><rect codeLine="7" fill="#F1F1F1" height="26.4883" id="EntityInvolvement" rx="2.5" ry="2.5" style="stroke:#181818;stroke-width:0.5;" width="126.5654" x="743.72" y="131.48"/><text fill="#000000" font-family="sans-serif" font-size="14" lengthAdjust="spacing" textLength="120.5654" x="746.72" y="150.0152">EntityInvolvement</text></g><!--class EntityPermissiveInvolvement--><g id="elem_EntityPermissiveInvolvement"><rect codeLine="8" fill="#F1F1F1" height="26.4883" id="EntityPermissiveInvolvement" rx="2.5" ry="2.5" style="stroke:#181818;stroke-width:0.5;" width="198.3154" x="21.84" y="218.97"/><text fill="#000000" font-family="sans-serif" font-size="14" lengthAdjust="spacing" textLength="192.3154" x="24.84" y="237.5052">EntityPermissiveInvolvement</text></g><!--class EntityNonPermissiveInvolvement--><g id="elem_EntityNonPermissiveInvolvement"><rect codeLine="9" fill="#F1F1F1" height="26.4883" id="EntityNonPermissiveInvolvement" rx="2.5" ry="2.5" style="stroke:#181818;stroke-width:0.5;" width="225.9463" x="255.03" y="218.97"/><text fill="#000000" font-family="sans-serif" font-size="14" lengthAdjust="spacing" textLength="219.9463" x="258.03" y="237.5052">EntityNonPermissiveInvolvement</text></g><!--class EntityActiveInvolvement--><g id="elem_EntityActiveInvolvement"><rect codeLine="10" fill="#F1F1F1" height="26.4883" id="EntityActiveInvolvement" rx="2.5" ry="2.5" style="stroke:#181818;stroke-width:0.5;" width="167.7246" x="516.14" y="218.97"/><text fill="#000000" font-family="sans-serif" font-size="14" lengthAdjust="spacing" textLength="161.7246" x="519.14" y="237.5052">EntityActiveInvolvement</text></g><!--class EntityPassiveInvolvement--><g id="elem_EntityPassiveInvolvement"><rect codeLine="11" fill="#F1F1F1" height="26.4883" id="EntityPassiveInvolvement" rx="2.5" ry="2.5" style="stroke:#181818;stroke-width:0.5;" width="175.4014" x="719.3" y="218.97"/><text fill="#000000" font-family="sans-serif" font-size="14" lengthAdjust="spacing" textLength="169.4014" x="722.3" y="237.5052">EntityPassiveInvolvement</text></g><!--class EntityNonInvolvement--><g id="elem_EntityNonInvolvement"><rect codeLine="12" fill="#F1F1F1" height="26.4883" id="EntityNonInvolvement" rx="2.5" ry="2.5" style="stroke:#181818;stroke-width:0.5;" width="154.1963" x="929.9" y="218.97"/><text fill="#000000" font-family="sans-serif" font-size="14" lengthAdjust="spacing" textLength="148.1963" x="932.9" y="237.5052">EntityNonInvolvement</text></g><!--class HumanInvolvement--><g id="elem_HumanInvolvement"><rect codeLine="13" fill="#F1F1F1" height="26.4883" id="HumanInvolvement" rx="2.5" ry="2.5" style="stroke:#181818;stroke-width:0.5;" width="136.9219" x="1119.54" y="218.97"/><text fill="#000000" font-family="sans-serif" font-size="14" lengthAdjust="spacing" textLength="130.9219" x="1122.54" y="237.5052">HumanInvolvement</text></g><!--class AutomationLevel--><g id="elem_AutomationLevel"><rect codeLine="14" fill="#F1F1F1" height="26.4883" id="AutomationLevel" rx="2.5" ry="2.5" style="stroke:#181818;stroke-width:0.5;" width="119.9141" x="942.04" y="131.48"/><text fill="#000000" font-family="sans-serif" font-size="14" lengthAdjust="spacing" textLength="113.9141" x="945.04" y="150.0152">AutomationLevel</text></g><!--class Thing--><g id="elem_Thing"><rect codeLine="3" fill="#C0C0C0" height="26.4883" id="Thing" rx="2.5" ry="2.5" style="stroke:#181818;stroke-width:0.5;" width="45.0059" x="603.5" y="7"/><text fill="#000000" font-family="sans-serif" font-size="14" lengthAdjust="spacing" textLength="39.0059" x="606.5" y="25.5352">Thing</text></g><!--link Thing to EntityInvolvement--><g id="link_Thing_EntityInvolvement"><path codeLine="18" d="M648.9,21.67 C680.98,23.48 739.36,31.34 775,63.48 C794.94,81.46 802.64,113.53 805.47,131.2 " fill="transparent" id="Thing-EntityInvolvement" style="stroke:#181818;stroke-width:1;"/><polygon fill="#000000" points="797.187,75.0014,791.4601,67.4084,788.0908,72.2247,797.187,75.0014" style="stroke:#000000;stroke-width:1;"/><text fill="#000000" font-family="sans-serif" font-size="13" lengthAdjust="spacing" textLength="133.8276" x="802.09" y="77.0484">hasEntityInvolvement</text></g><!--reverse link EntityInvolvement to EntityPermissiveInvolvement--><g id="link_EntityInvolvement_EntityPermissiveInvolvement"><path codeLine="19" d="M725.5281,155.8855 C605.6981,170.8155 363.61,200.98 220.48,218.82 " fill="transparent" id="EntityInvolvement-backto-EntityPermissiveInvolvement" style="stroke:#181818;stroke-width:1;"/><polygon fill="transparent" points="743.39,153.66,724.7863,149.9315,726.2699,161.8394,743.39,153.66" style="stroke:#181818;stroke-width:1;"/></g><!--reverse link EntityInvolvement to EntityNonPermissiveInvolvement--><g id="link_EntityInvolvement_EntityNonPermissiveInvolvement"><path codeLine="20" d="M725.9617,161.5097 C643.2117,177.6197 516.75,202.25 433.14,218.53 " fill="transparent" id="EntityInvolvement-backto-EntityNonPermissiveInvolvement" style="stroke:#181818;stroke-width:1;"/><polygon fill="transparent" points="743.63,158.07,724.8151,155.6203,727.1083,167.3991,743.63,158.07" style="stroke:#181818;stroke-width:1;"/></g><!--reverse link EntityInvolvement to EntityActiveInvolvement--><g id="link_EntityInvolvement_EntityActiveInvolvement"><path codeLine="21" d="M759.8223,165.2093 C720.6823,181.3693 669.87,202.36 630.67,218.55 " fill="transparent" id="EntityInvolvement-backto-EntityActiveInvolvement" style="stroke:#181818;stroke-width:1;"/><polygon fill="transparent" points="776.46,158.34,757.5325,159.6634,762.1121,170.7552,776.46,158.34" style="stroke:#181818;stroke-width:1;"/></g><!--reverse link EntityInvolvement to EntityPassiveInvolvement--><g id="link_EntityInvolvement_EntityPassiveInvolvement"><path codeLine="22" d="M807,176.34 C807,192.5 807,202.36 807,218.55 " fill="transparent" id="EntityInvolvement-backto-EntityPassiveInvolvement" style="stroke:#181818;stroke-width:1;"/><polygon fill="transparent" points="807,158.34,801,176.34,813,176.34,807,158.34" style="stroke:#181818;stroke-width:1;"/></g><!--reverse link EntityInvolvement to EntityNonInvolvement--><g id="link_EntityInvolvement_EntityNonInvolvement"><path codeLine="23" d="M853.0616,165.4142 C890.8716,181.5742 939.5,202.36 977.37,218.55 " fill="transparent" id="EntityInvolvement-backto-EntityNonInvolvement" style="stroke:#181818;stroke-width:1;"/><polygon fill="transparent" points="836.51,158.34,850.7036,170.9314,855.4197,159.897,836.51,158.34" style="stroke:#181818;stroke-width:1;"/></g><!--reverse link EntityInvolvement to HumanInvolvement--><g id="link_EntityInvolvement_HumanInvolvement"><path codeLine="24" d="M881.1929,162.3727 C953.2229,178.5427 1059.34,202.35 1131.37,218.51 " fill="transparent" id="EntityInvolvement-backto-HumanInvolvement" style="stroke:#181818;stroke-width:1;"/><polygon fill="transparent" points="863.63,158.43,879.8787,168.227,882.5071,156.5184,863.63,158.43" style="stroke:#181818;stroke-width:1;"/></g><!--link Thing to Entity--><g id="link_Thing_Entity"><path codeLine="26" d="M603.2,21.3 C506.84,21.81 136.43,26.17 102,63.48 C40.68,129.95 241.32,141.36 310.45,143.32 " fill="transparent" id="Thing-Entity" style="stroke:#181818;stroke-width:1;"/><polygon fill="#000000" points="102.3848,74.0589,111.8644,73.2917,109.6031,67.8663,102.3848,74.0589" style="stroke:#000000;stroke-width:1;"/><text fill="#000000" font-family="sans-serif" font-size="13" lengthAdjust="spacing" textLength="95.4814" x="116" y="77.0484">hasActiveEntity</text></g><!--link Thing to Entity--><g id="link_Thing_Entity"><path codeLine="27" d="M603.18,22.08 C525.6,25.19 275.51,37.17 252,63.48 C228,90.35 279.06,119.57 310.59,134.22 " fill="transparent" id="Thing-Entity-1" style="stroke:#181818;stroke-width:1;"/><polygon fill="#000000" points="252.3312,73.9247,261.829,73.4319,259.7254,67.9433,252.3312,73.9247" style="stroke:#000000;stroke-width:1;"/><text fill="#000000" font-family="sans-serif" font-size="13" lengthAdjust="spacing" textLength="102.6099" x="266" y="77.0484">hasPassiveEntity</text></g><!--link Thing to Entity--><g id="link_Thing_Entity"><path codeLine="28" d="M603.24,21.21 C561.95,22.07 473.08,28.28 409,63.48 C378.73,80.11 353.45,113.03 341.11,131.11 " fill="transparent" id="Thing-Entity-2" style="stroke:#181818;stroke-width:1;"/><polygon fill="#000000" points="409.3889,74.0685,418.8668,73.2816,416.5941,67.8609,409.3889,74.0685" style="stroke:#000000;stroke-width:1;"/><text fill="#000000" font-family="sans-serif" font-size="13" lengthAdjust="spacing" textLength="159.4849" x="423" y="77.0484">hasNonInvolvementEntity</text></g><!--link Thing to Entity--><g id="link_Thing_Entity"><path codeLine="29" d="M621.11,33.68 C615.13,47.26 603.68,68.67 587,80.48 C513.76,132.36 402.35,141.84 355.26,143.46 " fill="transparent" id="Thing-Entity-3" style="stroke:#181818;stroke-width:1;"/><polygon fill="#000000" points="603.7385,74.0437,613.2206,73.3078,610.9771,67.8749,603.7385,74.0437" style="stroke:#000000;stroke-width:1;"/><text fill="#000000" font-family="sans-serif" font-size="13" lengthAdjust="spacing" textLength="133.834" x="617.36" y="77.0484">isDeterminedByEntity</text></g><!--link Thing to HumanInvolvement--><g id="link_Thing_HumanInvolvement"><path codeLine="31" d="M648.99,21.88 C740.37,24.59 1074.84,36.33 1113,63.48 C1166.54,101.58 1182.48,186.98 1186.66,218.88 " fill="transparent" id="Thing-HumanInvolvement" style="stroke:#181818;stroke-width:1;"/><polygon fill="#000000" points="1182.9448,146.6054,1175.4629,140.7341,1173.4408,146.2532,1182.9448,146.6054" style="stroke:#000000;stroke-width:1;"/><text fill="#000000" font-family="sans-serif" font-size="13" lengthAdjust="spacing" textLength="143.4443" x="1187.25" y="149.7984">hasHumanInvolvement</text></g><!--link Thing to AutomationLevel--><g id="link_Thing_AutomationLevel"><path codeLine="32" d="M648.71,21.95 C712.84,24.32 893.92,33.56 944,63.48 C970.71,79.44 988.64,112.95 996.86,131.21 " fill="transparent" id="Thing-AutomationLevel" style="stroke:#181818;stroke-width:1;"/><polygon fill="#000000" points="972.4506,73.6324,964.7005,68.12,962.9405,73.7281,972.4506,73.6324" style="stroke:#000000;stroke-width:1;"/><text fill="#000000" font-family="sans-serif" font-size="13" lengthAdjust="spacing" textLength="127.6514" x="976.68" y="77.0484">hasAutomationLevel</text></g><!--SRC=[bPBHQeD044NVvoisv3dzW524b1HQ2C67_C2WGrooEqfsN92s_rxBIjgwkZ4-tZapNW-kD1UcBKavwGmzDGPPMci02eFEgLEb-QpMJXjFLu06YmkUIPMDLn-W-YTWhonQkYXuPr_tYvPOebbELwkTqvvIrB7cPU2ka3j4ZalUDZr-QotEZ7Qjr1P5rtmWJmQ-021OssnY3MghAdHnd46SFN_UBamxIAxCcajknHhJlV3XKWlOoFPOQB0OkWv9DiqC1TFG_rO9LhizoOzKflAbku6_vBXvk1-bVswFVf_XoqPX1jy0]--></g></svg>