<svg xmlns="http://www.w3.org/2000/svg" xmlns:xlink="http://www.w3.org/1999/xlink" contentStyleType="text/css" data-diagram-type="MINDMAP" height="530px" preserveAspectRatio="none" style="width:640px;height:530px;background:#FFFFFF;" version="1.1" viewBox="0 0 640 530" width="640px" zoomAndPan="magnify"><defs/><g><rect fill="#F1F1F1" height="36.4883" rx="12.5" ry="12.5" style="stroke:#181818;stroke-width:1.5;" width="74.5029" x="257.6523" y="245.9531"/><text fill="#000000" font-family="sans-serif" font-size="14" lengthAdjust="spacing" textLength="54.5029" x="267.6523" y="269.4883">Purpose</text><rect fill="#F1F1F1" height="36.4883" rx="12.5" ry="12.5" style="stroke:#181818;stroke-width:1.5;" width="162.748" x="382.1553" y="20"/><text fill="#000000" font-family="sans-serif" font-size="14" lengthAdjust="spacing" textLength="142.748" x="392.1553" y="43.5352">AccountManagement</text><path d="M332.1553,264.1973 L342.1553,264.1973 C357.1553,264.1973 357.1553,38.2441 372.1553,38.2441 L382.1553,38.2441 " fill="transparent" style="stroke:#181818;stroke-width:1;"/><rect fill="#F1F1F1" height="36.4883" rx="12.5" ry="12.5" style="stroke:#181818;stroke-width:1.5;" width="155.4541" x="382.1553" y="76.4883"/><text fill="#000000" font-family="sans-serif" font-size="14" lengthAdjust="spacing" textLength="135.4541" x="392.1553" y="100.0234">CommercialPurpose</text><path d="M332.1553,264.1973 L342.1553,264.1973 C357.1553,264.1973 357.1553,94.7324 372.1553,94.7324 L382.1553,94.7324 " fill="transparent" style="stroke:#181818;stroke-width:1;"/><rect fill="#F1F1F1" height="36.4883" rx="12.5" ry="12.5" style="stroke:#181818;stroke-width:1.5;" width="214.8584" x="382.1553" y="132.9766"/><text fill="#000000" font-family="sans-serif" font-size="14" lengthAdjust="spacing" textLength="194.8584" x="392.1553" y="156.5117">CommunicationManagement</text><path d="M332.1553,264.1973 L342.1553,264.1973 C357.1553,264.1973 357.1553,151.2207 372.1553,151.2207 L382.1553,151.2207 " fill="transparent" style="stroke:#181818;stroke-width:1;"/><rect fill="#F1F1F1" height="36.4883" rx="12.5" ry="12.5" style="stroke:#181818;stroke-width:1.5;" width="246.0508" x="382.1553" y="189.4648"/><text fill="#000000" font-family="sans-serif" font-size="14" lengthAdjust="spacing" textLength="226.0508" x="392.1553" y="213">CommunicationForCustomerCare</text><path d="M332.1553,264.1973 L342.1553,264.1973 C357.1553,264.1973 357.1553,207.709 372.1553,207.709 L382.1553,207.709 " fill="transparent" style="stroke:#181818;stroke-width:1;"/><rect fill="#F1F1F1" height="36.4883" rx="12.5" ry="12.5" style="stroke:#181818;stroke-width:1.5;" width="173.4805" x="382.1553" y="245.9531"/><text fill="#000000" font-family="sans-serif" font-size="14" lengthAdjust="spacing" textLength="153.4805" x="392.1553" y="269.4883">CustomerManagement</text><path d="M332.1553,264.1973 L342.1553,264.1973 C357.1553,264.1973 357.1553,264.1973 372.1553,264.1973 L382.1553,264.1973 " fill="transparent" style="stroke:#181818;stroke-width:1;"/><rect fill="#F1F1F1" height="36.4883" rx="12.5" ry="12.5" style="stroke:#181818;stroke-width:1.5;" width="124.248" x="382.1553" y="302.4414"/><text fill="#000000" font-family="sans-serif" font-size="14" lengthAdjust="spacing" textLength="104.248" x="392.1553" y="325.9766">EnforceSecurity</text><path d="M332.1553,264.1973 L342.1553,264.1973 C357.1553,264.1973 357.1553,320.6855 372.1553,320.6855 L382.1553,320.6855 " fill="transparent" style="stroke:#181818;stroke-width:1;"/><rect fill="#F1F1F1" height="36.4883" rx="12.5" ry="12.5" style="stroke:#181818;stroke-width:1.5;" width="233.4795" x="382.1553" y="358.9297"/><text fill="#000000" font-family="sans-serif" font-size="14" lengthAdjust="spacing" textLength="213.4795" x="392.1553" y="382.4648">EstablishContractualAgreement</text><path d="M332.1553,264.1973 L342.1553,264.1973 C357.1553,264.1973 357.1553,377.1738 372.1553,377.1738 L382.1553,377.1738 " fill="transparent" style="stroke:#181818;stroke-width:1;"/><rect fill="#F1F1F1" height="36.4883" rx="12.5" ry="12.5" style="stroke:#181818;stroke-width:1.5;" width="175.1143" x="382.1553" y="415.418"/><text fill="#000000" font-family="sans-serif" font-size="14" lengthAdjust="spacing" textLength="155.1143" x="392.1553" y="438.9531">FulfilmentOfObligation</text><path d="M332.1553,264.1973 L342.1553,264.1973 C357.1553,264.1973 357.1553,433.6621 372.1553,433.6621 L382.1553,433.6621 " fill="transparent" style="stroke:#181818;stroke-width:1;"/><rect fill="#F1F1F1" height="36.4883" rx="12.5" ry="12.5" style="stroke:#181818;stroke-width:1.5;" width="217.7773" x="382.1553" y="471.9063"/><text fill="#000000" font-family="sans-serif" font-size="14" lengthAdjust="spacing" textLength="197.7773" x="392.1553" y="495.4414">HumanResourceManagement</text><path d="M332.1553,264.1973 L342.1553,264.1973 C357.1553,264.1973 357.1553,490.1504 372.1553,490.1504 L382.1553,490.1504 " fill="transparent" style="stroke:#181818;stroke-width:1;"/><rect fill="#F1F1F1" height="36.4883" rx="12.5" ry="12.5" style="stroke:#181818;stroke-width:1.5;" width="88.2021" x="119.4502" y="20"/><text fill="#000000" font-family="sans-serif" font-size="14" lengthAdjust="spacing" textLength="68.2021" x="129.4502" y="43.5352">Marketing</text><path d="M257.6523,264.1973 L247.6523,264.1973 C232.6523,264.1973 232.6523,38.2441 217.6523,38.2441 L207.6523,38.2441 " fill="transparent" style="stroke:#181818;stroke-width:1;"/><rect fill="#F1F1F1" height="36.4883" rx="12.5" ry="12.5" style="stroke:#181818;stroke-width:1.5;" width="183.085" x="24.5674" y="76.4883"/><text fill="#000000" font-family="sans-serif" font-size="14" lengthAdjust="spacing" textLength="163.085" x="34.5674" y="100.0234">NonCommercialPurpose</text><path d="M257.6523,264.1973 L247.6523,264.1973 C232.6523,264.1973 232.6523,94.7324 217.6523,94.7324 L207.6523,94.7324 " fill="transparent" style="stroke:#181818;stroke-width:1;"/><rect fill="#F1F1F1" height="36.4883" rx="12.5" ry="12.5" style="stroke:#181818;stroke-width:1.5;" width="186.8105" x="20.8418" y="132.9766"/><text fill="#000000" font-family="sans-serif" font-size="14" lengthAdjust="spacing" textLength="166.8105" x="30.8418" y="156.5117">OrganisationGovernance</text><path d="M257.6523,264.1973 L247.6523,264.1973 C232.6523,264.1973 232.6523,151.2207 217.6523,151.2207 L207.6523,151.2207 " fill="transparent" style="stroke:#181818;stroke-width:1;"/><rect fill="#F1F1F1" height="36.4883" rx="12.5" ry="12.5" style="stroke:#181818;stroke-width:1.5;" width="122.9561" x="84.6963" y="189.4648"/><text fill="#000000" font-family="sans-serif" font-size="14" lengthAdjust="spacing" textLength="102.9561" x="94.6963" y="213">Personalisation</text><path d="M257.6523,264.1973 L247.6523,264.1973 C232.6523,264.1973 232.6523,207.709 217.6523,207.709 L207.6523,207.709 " fill="transparent" style="stroke:#181818;stroke-width:1;"/><rect fill="#F1F1F1" height="36.4883" rx="12.5" ry="12.5" style="stroke:#181818;stroke-width:1.5;" width="107.2744" x="100.3779" y="245.9531"/><text fill="#000000" font-family="sans-serif" font-size="14" lengthAdjust="spacing" textLength="87.2744" x="110.3779" y="269.4883">PublicBenefit</text><path d="M257.6523,264.1973 L247.6523,264.1973 C232.6523,264.1973 232.6523,264.1973 217.6523,264.1973 L207.6523,264.1973 " fill="transparent" style="stroke:#181818;stroke-width:1;"/><rect fill="#F1F1F1" height="36.4883" rx="12.5" ry="12.5" style="stroke:#181818;stroke-width:1.5;" width="154.4971" x="53.1553" y="302.4414"/><text fill="#000000" font-family="sans-serif" font-size="14" lengthAdjust="spacing" textLength="134.4971" x="63.1553" y="325.9766">RecordManagement</text><path d="M257.6523,264.1973 L247.6523,264.1973 C232.6523,264.1973 232.6523,320.6855 217.6523,320.6855 L207.6523,320.6855 " fill="transparent" style="stroke:#181818;stroke-width:1;"/><rect fill="#F1F1F1" height="36.4883" rx="12.5" ry="12.5" style="stroke:#181818;stroke-width:1.5;" width="197.6523" x="10" y="358.9297"/><text fill="#000000" font-family="sans-serif" font-size="14" lengthAdjust="spacing" textLength="177.6523" x="20" y="382.4648">ResearchAndDevelopment</text><path d="M257.6523,264.1973 L247.6523,264.1973 C232.6523,264.1973 232.6523,377.1738 217.6523,377.1738 L207.6523,377.1738 " fill="transparent" style="stroke:#181818;stroke-width:1;"/><rect fill="#F1F1F1" height="36.4883" rx="12.5" ry="12.5" style="stroke:#181818;stroke-width:1.5;" width="129.1631" x="78.4893" y="415.418"/><text fill="#000000" font-family="sans-serif" font-size="14" lengthAdjust="spacing" textLength="109.1631" x="88.4893" y="438.9531">ServiceProvision</text><path d="M257.6523,264.1973 L247.6523,264.1973 C232.6523,264.1973 232.6523,433.6621 217.6523,433.6621 L207.6523,433.6621 " fill="transparent" style="stroke:#181818;stroke-width:1;"/><rect fill="#F1F1F1" height="36.4883" rx="12.5" ry="12.5" style="stroke:#181818;stroke-width:1.5;" width="156.3154" x="51.3369" y="471.9063"/><text fill="#000000" font-family="sans-serif" font-size="14" lengthAdjust="spacing" textLength="136.3154" x="61.3369" y="495.4414">VendorManagement</text><path d="M257.6523,264.1973 L247.6523,264.1973 C232.6523,264.1973 232.6523,490.1504 217.6523,490.1504 L207.6523,490.1504 " fill="transparent" style="stroke:#181818;stroke-width:1;"/><!--SRC=[xLF1Rk8m4BtxAxotLWX4sssxoWa82okMB16bt5rd4aPrncXiH-BlrmdG1VKBLkejyzxCl9bvpiXvnRv6Acgr5z-Gj0a5IESF1WPxeyY7sWZHatdWlNKWUZqvrje6yfaYLK4Dv5imjNKDh56PYymM38HQURJqEV-3cbbEW_CsTaWL7qjFyNNLJoejQtW17HZzeOFY1cy6tIwrv5bf7vGPLmmVDRDWIZHjj2fNCRFg95lcLwWLhS7P47jU2FNxCbFy3XwfQeC_bZwl5_4LLuhGTVtcjW4cHRfZSc1dIPaJsK4XQki949JOIQn1MowkPUCme5ZlnbHCeG5ZzsVc1RX13JdR1jsfvHQei9SN4gE8dCqKeojlTnXzBH5CuOxVDVYTFGSQMHjmuilg_zBglFrJNxEbZ9Er9V9kS3-yVnmCRpO1v4AH73xBk-VauJ5vU9BpR2DR-bRSpFEbF1v55kWyurjejxWL2zKekOxUOms9NEs15jFVPo2Qqo1RwYPPRBD_2K_V-nFqtGh0Sfk9APGg61yhj2tYaHFvkfdrVuYbeYh4PH899DBsaV4XaVF9Nm00]--></g></svg>