<svg xmlns="http://www.w3.org/2000/svg" xmlns:xlink="http://www.w3.org/1999/xlink" contentStyleType="text/css" data-diagram-type="CLASS" height="385px" preserveAspectRatio="none" style="width:743px;height:385px;background:#FFFFFF;" version="1.1" viewBox="0 0 743 385" width="743px" zoomAndPan="magnify"><defs/><g><!--cluster dpv--><g id="cluster_dpv"><path d="M239.51,6 L267.3684,6 A3.75,3.75 0 0 1 269.8684,8.5 L276.8684,28.4883 L733.96,28.4883 A2.5,2.5 0 0 1 736.46,30.9883 L736.46,369.5 A2.5,2.5 0 0 1 733.96,372 L239.51,372 A2.5,2.5 0 0 1 237.01,369.5 L237.01,8.5 A2.5,2.5 0 0 1 239.51,6 " fill="transparent" style="stroke:#000000;stroke-width:1.5;"/><line style="stroke:#000000;stroke-width:1.5;" x1="237.01" x2="276.8684" y1="28.4883" y2="28.4883"/><text fill="#000000" font-family="sans-serif" font-size="14" font-weight="bold" lengthAdjust="spacing" textLength="26.8584" x="241.01" y="21.5352">dpv</text></g><!--class Entity--><g id="elem_Entity"><rect codeLine="7" fill="#F1F1F1" height="26.4883" id="Entity" rx="2.5" ry="2.5" style="stroke:#181818;stroke-width:0.5;" width="44.1104" x="618.61" y="162.76"/><text fill="#000000" font-family="sans-serif" font-size="14" lengthAdjust="spacing" textLength="38.1104" x="621.61" y="181.2952">Entity</text></g><!--class Risk--><g id="elem_Risk"><rect codeLine="8" fill="#F1F1F1" height="26.4883" id="Risk" rx="2.5" ry="2.5" style="stroke:#181818;stroke-width:0.5;" width="34.2188" x="284.33" y="85.76"/><text fill="#000000" font-family="sans-serif" font-size="14" lengthAdjust="spacing" textLength="28.2188" x="287.33" y="104.2952">Risk</text></g><!--class RiskMitigationMeasure--><g id="elem_RiskMitigationMeasure"><rect codeLine="9" fill="#F1F1F1" height="26.4883" id="RiskMitigationMeasure" rx="2.5" ry="2.5" style="stroke:#181818;stroke-width:0.5;" width="159.583" x="560.88" y="101.76"/><text fill="#000000" font-family="sans-serif" font-size="14" lengthAdjust="spacing" textLength="153.583" x="563.88" y="120.2952">RiskMitigationMeasure</text></g><!--class RiskLevel--><g id="elem_RiskLevel"><rect codeLine="10" fill="#F1F1F1" height="26.4883" id="RiskLevel" rx="2.5" ry="2.5" style="stroke:#181818;stroke-width:0.5;" width="68.5762" x="606.38" y="40.76"/><text fill="#000000" font-family="sans-serif" font-size="14" lengthAdjust="spacing" textLength="62.5762" x="609.38" y="59.2952">RiskLevel</text></g><!--class Consequence--><g id="elem_Consequence"><rect codeLine="11" fill="#F1F1F1" height="26.4883" id="Consequence" rx="2.5" ry="2.5" style="stroke:#181818;stroke-width:0.5;" width="96.8701" x="253.01" y="268.76"/><text fill="#000000" font-family="sans-serif" font-size="14" lengthAdjust="spacing" textLength="90.8701" x="256.01" y="287.2952">Consequence</text></g><!--class Impact--><g id="elem_Impact"><rect codeLine="12" fill="#F1F1F1" height="26.4883" id="Impact" rx="2.5" ry="2.5" style="stroke:#181818;stroke-width:0.5;" width="52.0537" x="275.41" y="146.76"/><text fill="#000000" font-family="sans-serif" font-size="14" lengthAdjust="spacing" textLength="46.0537" x="278.41" y="165.2952">Impact</text></g><!--class Severity--><g id="elem_Severity"><rect codeLine="13" fill="#F1F1F1" height="26.4883" id="Severity" rx="2.5" ry="2.5" style="stroke:#181818;stroke-width:0.5;" width="58.7119" x="272.08" y="207.76"/><text fill="#000000" font-family="sans-serif" font-size="14" lengthAdjust="spacing" textLength="52.7119" x="275.08" y="226.2952">Severity</text></g><!--class Likelihood--><g id="elem_Likelihood"><rect codeLine="14" fill="#F1F1F1" height="26.4883" id="Likelihood" rx="2.5" ry="2.5" style="stroke:#181818;stroke-width:0.5;" width="76.2871" x="263.3" y="329.76"/><text fill="#000000" font-family="sans-serif" font-size="14" lengthAdjust="spacing" textLength="70.2871" x="266.3" y="348.2952">Likelihood</text></g><!--class Thing--><g id="elem_Thing"><rect codeLine="5" fill="#C0C0C0" height="26.4883" id="Thing" rx="2.5" ry="2.5" style="stroke:#181818;stroke-width:0.5;" width="45.0059" x="7" y="231.76"/><text fill="#000000" font-family="sans-serif" font-size="14" lengthAdjust="spacing" textLength="39.0059" x="10" y="250.2952">Thing</text></g><!--link Thing to Risk--><g id="link_Thing_Risk"><path codeLine="17" d="M33.18,231.38 C38.36,208.79 52.02,163.82 82.01,141 C144.24,93.65 244.69,94.93 283.96,97.53 " fill="transparent" id="Thing-Risk" style="stroke:#181818;stroke-width:1;"/><polygon fill="#000000" points="129.421,86.851,120.0576,88.5172,122.8252,93.7027,129.421,86.851" style="stroke:#000000;stroke-width:1;"/><text fill="#000000" font-family="sans-serif" font-size="13" lengthAdjust="spacing" textLength="48.0771" x="134.01" y="94.1184">hasRisk</text></g><!--link Thing to Consequence--><g id="link_Thing_Consequence"><path codeLine="18" d="M52.36,255.12 C61.36,258.85 72,262.72 82.01,265 C139.68,278.14 207.88,281.59 252.54,282.27 " fill="transparent" id="Thing-Consequence" style="stroke:#181818;stroke-width:1;"/><polygon fill="#000000" points="100.9646,257.3273,92.3966,253.1994,91.6066,259.0239,100.9646,257.3273" style="stroke:#000000;stroke-width:1;"/><text fill="#000000" font-family="sans-serif" font-size="13" lengthAdjust="spacing" textLength="106.2534" x="105.01" y="261.5684">hasConsequence</text></g><!--link Consequence to Thing--><g id="link_Consequence_Thing"><path codeLine="19" d="M268,295.71 C223.77,312.21 143.08,334.36 82.01,306 C61.14,296.31 45.68,273.54 37.39,258.72 " fill="transparent" id="Consequence-Thing" style="stroke:#181818;stroke-width:1;"/><polygon fill="#000000" points="82.0731,296.8634,90.5386,301.1978,91.4695,295.3941,82.0731,296.8634" style="stroke:#000000;stroke-width:1;"/><text fill="#000000" font-family="sans-serif" font-size="13" lengthAdjust="spacing" textLength="124.4204" x="96.01" y="302.5684">hasConsequenceOn</text></g><!--link Thing to Impact--><g id="link_Thing_Impact"><path codeLine="20" d="M43.22,231.58 C52.95,222.13 67.18,209.97 82.01,203 C147.07,172.43 232.9,163.58 274.97,161.03 " fill="transparent" id="Thing-Impact" style="stroke:#181818;stroke-width:1;"/><polygon fill="#000000" points="121.7933,156.6091,112.2844,156.4318,113.9961,162.0548,121.7933,156.6091" style="stroke:#000000;stroke-width:1;"/><text fill="#000000" font-family="sans-serif" font-size="13" lengthAdjust="spacing" textLength="64.6382" x="126.01" y="162.9784">hasImpact</text></g><!--link Impact to Entity--><g id="link_Impact_Entity"><path codeLine="21" d="M327.72,166.14 C342.77,169.48 362.3,173.28 379.88,175 C468.08,183.64 573.94,179.6 618.38,177.26 " fill="transparent" id="Impact-Entity" style="stroke:#181818;stroke-width:1;"/><polygon fill="#000000" points="416.8763,166.8464,407.9502,163.5639,407.7255,169.4374,416.8763,166.8464" style="stroke:#000000;stroke-width:1;"/><text fill="#000000" font-family="sans-serif" font-size="13" lengthAdjust="spacing" textLength="82.8052" x="420.88" y="171.5684">hasImpactOn</text></g><!--link Thing to Severity--><g id="link_Thing_Severity"><path codeLine="22" d="M52.14,243.08 C100.55,238.77 217.64,228.36 271.92,223.54 " fill="transparent" id="Thing-Severity" style="stroke:#181818;stroke-width:1;"/><polygon fill="#000000" points="118.9904,219.3025,109.7205,217.1761,110.2411,223.0309,118.9904,219.3025" style="stroke:#000000;stroke-width:1;"/><text fill="#000000" font-family="sans-serif" font-size="13" lengthAdjust="spacing" textLength="70.8208" x="123.01" y="224.6584">hasSeverity</text></g><!--link Thing to Likelihood--><g id="link_Thing_Likelihood"><path codeLine="23" d="M32.92,258.73 C37.72,281.39 50.83,325.99 82.01,345 C137.54,378.86 216.7,366.46 262.91,354.58 " fill="transparent" id="Thing-Likelihood" style="stroke:#181818;stroke-width:1;"/><polygon fill="#000000" points="110.1252,338.5787,102.9068,332.3864,100.6456,337.812,110.1252,338.5787" style="stroke:#000000;stroke-width:1;"/><text fill="#000000" font-family="sans-serif" font-size="13" lengthAdjust="spacing" textLength="87.1406" x="114.51" y="341.5684">hasLikelihood</text></g><!--link Risk to Risk--><g id="link_Risk_Risk"><path codeLine="24" d="M284.04,88.34 C265.33,71.78 271.13,50.76 301.44,50.76 C331.75,50.76 337.55,71.78 318.84,88.34 " fill="transparent" id="Risk-Risk" style="stroke:#181818;stroke-width:1;"/><polygon fill="#000000" points="240.1261,33.6712,243.9202,42.3922,248.3217,38.4965,240.1261,33.6712" style="stroke:#000000;stroke-width:1;"/><text fill="#000000" font-family="sans-serif" font-size="13" lengthAdjust="spacing" textLength="101.1118" x="257.44" y="42.3284">hasResidualRisk</text></g><!--link Risk to RiskMitigationMeasure--><g id="link_Risk_RiskMitigationMeasure"><path codeLine="25" d="M318.84,104.25 C334.37,108.92 358.44,115.41 379.88,118 C440.22,125.29 509.01,124.08 560.65,121.29 " fill="transparent" id="Risk-RiskMitigationMeasure" style="stroke:#181818;stroke-width:1;"/><polygon fill="#000000" points="389.8676,110.0067,381.0515,106.4393,380.6383,112.3026,389.8676,110.0067" style="stroke:#000000;stroke-width:1;"/><text fill="#000000" font-family="sans-serif" font-size="13" lengthAdjust="spacing" textLength="136.6777" x="393.88" y="114.5684">isMitigatedByMeasure</text></g><!--link Risk to RiskLevel--><g id="link_Risk_RiskLevel"><path codeLine="26" d="M318.71,96.83 C370.87,89.87 534.73,68 606,58.49 " fill="transparent" id="Risk-RiskLevel" style="stroke:#181818;stroke-width:1;"/><polygon fill="#000000" points="418.3361,59.5539,408.9817,57.8373,409.7592,63.6635,418.3361,59.5539" style="stroke:#000000;stroke-width:1;"/><text fill="#000000" font-family="sans-serif" font-size="13" lengthAdjust="spacing" textLength="79.9805" x="422.38" y="65.1284">hasRiskLevel</text></g><!--SRC=[PP5DJiGm38NNv1H1B5YL0x1W0MA1DAEHPhX0I4nhDKrAurQg47Sdav-f1tP-Vf_jsBb5f-riG0PQBJoCLZcQ1oiiV98aBoTiEv869z24tebxykCv_-69_C0CeQqAGRvtw5fv5z0kC8bHwLwr8Csuo6znav5NHqXhLKSCFO_tIDYgSyizg31FmCqTB61huiMx05ypE7rXteOuaQewHNfYetROWyNEUoD-XCWlRPhKM3xAJeKKFMqEcv1yfYF6LOHJrL_iu7Y__Bp4v32Q9MXCKmx3xElgkau2gk30jbz2DXcXj5fPDkyA0SsiRDcP-_- -85u7Gyc2ULvh-heiVSxbZab5uXS0]--></g></svg>