<svg xmlns="http://www.w3.org/2000/svg" xmlns:xlink="http://www.w3.org/1999/xlink" contentStyleType="text/css" data-diagram-type="CLASS" height="881px" preserveAspectRatio="none" style="width:983px;height:881px;background:#FFFFFF;" version="1.1" viewBox="0 0 983 881" width="983px" zoomAndPan="magnify"><defs/><g><!--cluster dpv--><g class="cluster" data-entity="dpv" data-source-line="5" data-uid="ent0003" id="cluster_dpv"><path d="M198.81,6.602 L225.4999,6.602 A3.75,3.75 0 0 1 227.9999,9.102 L234.9999,31.6699 L973.99,31.6699 A2.5,2.5 0 0 1 976.49,34.1699 L976.49,872.102 A2.5,2.5 0 0 1 973.99,874.602 L198.81,874.602 A2.5,2.5 0 0 1 196.31,872.102 L196.31,9.102 A2.5,2.5 0 0 1 198.81,6.602" fill="none" style="stroke:#000000;stroke-width:1.5;"/><line style="stroke:#000000;stroke-width:1.5;" x1="196.31" x2="234.9999" y1="31.6699" y2="31.6699"/><text fill="#000000" font-family="sans-serif" font-size="14" font-weight="bold" lengthAdjust="spacing" textLength="25.6899" x="200.31" y="23.5679">dpv</text></g><!--class LegalBasis--><g class="entity" data-entity="LegalBasis" data-source-line="6" data-uid="ent0004" id="entity_LegalBasis"><rect fill="#F1F1F1" height="29.0679" rx="2.5" ry="2.5" style="stroke:#181818;stroke-width:0.5;" width="75.2857" x="229.25" y="109.072"/><text fill="#000000" font-family="sans-serif" font-size="14" lengthAdjust="spacing" textLength="69.2857" x="232.25" y="129.0379">LegalBasis</text></g><!--class Consent--><g class="entity" data-entity="Consent" data-source-line="7" data-uid="ent0005" id="entity_Consent"><rect fill="#F1F1F1" height="29.0679" rx="2.5" ry="2.5" style="stroke:#181818;stroke-width:0.5;" width="60.2778" x="236.75" y="268.072"/><text fill="#000000" font-family="sans-serif" font-size="14" lengthAdjust="spacing" textLength="54.2778" x="239.75" y="288.0379">Consent</text></g><!--class InformedConsent--><g class="entity" data-entity="InformedConsent" data-source-line="8" data-uid="ent0006" id="entity_InformedConsent"><rect fill="#F1F1F1" height="29.0679" rx="2.5" ry="2.5" style="stroke:#181818;stroke-width:0.5;" width="122.3396" x="529.62" y="301.072"/><text fill="#000000" font-family="sans-serif" font-size="14" lengthAdjust="spacing" textLength="116.3396" x="532.62" y="321.0379">InformedConsent</text></g><!--class ExpressedConsent--><g class="entity" data-entity="ExpressedConsent" data-source-line="9" data-uid="ent0007" id="entity_ExpressedConsent"><rect fill="#F1F1F1" height="29.0679" rx="2.5" ry="2.5" style="stroke:#181818;stroke-width:0.5;" width="127.6735" x="801.96" y="45.072"/><text fill="#000000" font-family="sans-serif" font-size="14" lengthAdjust="spacing" textLength="121.6735" x="804.96" y="65.0379">ExpressedConsent</text></g><!--class ImpliedConsent--><g class="entity" data-entity="ImpliedConsent" data-source-line="10" data-uid="ent0008" id="entity_ImpliedConsent"><rect fill="#F1F1F1" height="29.0679" rx="2.5" ry="2.5" style="stroke:#181818;stroke-width:0.5;" width="110.4536" x="810.57" y="109.072"/><text fill="#000000" font-family="sans-serif" font-size="14" lengthAdjust="spacing" textLength="104.4536" x="813.57" y="129.0379">ImpliedConsent</text></g><!--class UninformedConsent--><g class="entity" data-entity="UninformedConsent" data-source-line="11" data-uid="ent0009" id="entity_UninformedConsent"><rect fill="#F1F1F1" height="29.0679" rx="2.5" ry="2.5" style="stroke:#181818;stroke-width:0.5;" width="140.0915" x="520.74" y="237.072"/><text fill="#000000" font-family="sans-serif" font-size="14" lengthAdjust="spacing" textLength="134.0915" x="523.74" y="257.0379">UninformedConsent</text></g><!--class ConsentStatus--><g class="entity" data-entity="ConsentStatus" data-source-line="13" data-uid="ent0010" id="entity_ConsentStatus"><rect fill="#ADD8E6" height="29.0679" rx="2.5" ry="2.5" style="stroke:#181818;stroke-width:0.5;" width="101.2836" x="216.25" y="484.072"/><text fill="#000000" font-family="sans-serif" font-size="14" lengthAdjust="spacing" textLength="95.2836" x="219.25" y="504.0379">ConsentStatus</text></g><!--class ConsentStatusInvalidForProcessing--><g class="entity" data-entity="ConsentStatusInvalidForProcessing" data-source-line="14" data-uid="ent0011" id="entity_ConsentStatusInvalidForProcessing"><rect fill="#ADD8E6" height="29.0679" rx="2.5" ry="2.5" style="stroke:#181818;stroke-width:0.5;" width="238.6231" x="471.48" y="484.072"/><text fill="#000000" font-family="sans-serif" font-size="14" lengthAdjust="spacing" textLength="232.6231" x="474.48" y="504.0379">ConsentStatusInvalidForProcessing</text></g><!--class ConsentStatusValidForProcessing--><g class="entity" data-entity="ConsentStatusValidForProcessing" data-source-line="15" data-uid="ent0012" id="entity_ConsentStatusValidForProcessing"><rect fill="#ADD8E6" height="29.0679" rx="2.5" ry="2.5" style="stroke:#181818;stroke-width:0.5;" width="226.5132" x="477.53" y="765.072"/><text fill="#000000" font-family="sans-serif" font-size="14" lengthAdjust="spacing" textLength="220.5132" x="480.53" y="785.0379">ConsentStatusValidForProcessing</text></g><!--class ConsentExpired--><g class="entity" data-entity="ConsentExpired" data-source-line="16" data-uid="ent0013" id="entity_ConsentExpired"><rect fill="#ADD8E6" height="29.0679" rx="2.5" ry="2.5" style="stroke:#181818;stroke-width:0.5;" width="109.9776" x="810.8" y="317.072"/><text fill="#000000" font-family="sans-serif" font-size="14" lengthAdjust="spacing" textLength="103.9776" x="813.8" y="337.0379">ConsentExpired</text></g><!--class ConsentInvalidated--><g class="entity" data-entity="ConsentInvalidated" data-source-line="17" data-uid="ent0014" id="entity_ConsentInvalidated"><rect fill="#ADD8E6" height="29.0679" rx="2.5" ry="2.5" style="stroke:#181818;stroke-width:0.5;" width="133.8895" x="798.85" y="253.072"/><text fill="#000000" font-family="sans-serif" font-size="14" lengthAdjust="spacing" textLength="127.8895" x="801.85" y="273.0379">ConsentInvalidated</text></g><!--class ConsentRefused--><g class="entity" data-entity="ConsentRefused" data-source-line="18" data-uid="ent0015" id="entity_ConsentRefused"><rect fill="#ADD8E6" height="29.0679" rx="2.5" ry="2.5" style="stroke:#181818;stroke-width:0.5;" width="113.5616" x="809.01" y="701.072"/><text fill="#000000" font-family="sans-serif" font-size="14" lengthAdjust="spacing" textLength="107.5616" x="812.01" y="721.0379">ConsentRefused</text></g><!--class ConsentRequestDeferred--><g class="entity" data-entity="ConsentRequestDeferred" data-source-line="19" data-uid="ent0016" id="entity_ConsentRequestDeferred"><rect fill="#ADD8E6" height="29.0679" rx="2.5" ry="2.5" style="stroke:#181818;stroke-width:0.5;" width="172.6973" x="779.44" y="637.072"/><text fill="#000000" font-family="sans-serif" font-size="14" lengthAdjust="spacing" textLength="166.6973" x="782.44" y="657.0379">ConsentRequestDeferred</text></g><!--class ConsentRequested--><g class="entity" data-entity="ConsentRequested" data-source-line="20" data-uid="ent0017" id="entity_ConsentRequested"><rect fill="#ADD8E6" height="29.0679" rx="2.5" ry="2.5" style="stroke:#181818;stroke-width:0.5;" width="130.3055" x="800.64" y="573.072"/><text fill="#000000" font-family="sans-serif" font-size="14" lengthAdjust="spacing" textLength="124.3055" x="803.64" y="593.0379">ConsentRequested</text></g><!--class ConsentRevoked--><g class="entity" data-entity="ConsentRevoked" data-source-line="21" data-uid="ent0018" id="entity_ConsentRevoked"><rect fill="#ADD8E6" height="29.0679" rx="2.5" ry="2.5" style="stroke:#181818;stroke-width:0.5;" width="116.4456" x="807.57" y="509.072"/><text fill="#000000" font-family="sans-serif" font-size="14" lengthAdjust="spacing" textLength="110.4456" x="810.57" y="529.0379">ConsentRevoked</text></g><!--class ConsentUnknown--><g class="entity" data-entity="ConsentUnknown" data-source-line="22" data-uid="ent0019" id="entity_ConsentUnknown"><rect fill="#ADD8E6" height="29.0679" rx="2.5" ry="2.5" style="stroke:#181818;stroke-width:0.5;" width="123.4175" x="804.08" y="445.072"/><text fill="#000000" font-family="sans-serif" font-size="14" lengthAdjust="spacing" textLength="117.4175" x="807.08" y="465.0379">ConsentUnknown</text></g><!--class ConsentWithdrawn--><g class="entity" data-entity="ConsentWithdrawn" data-source-line="23" data-uid="ent0020" id="entity_ConsentWithdrawn"><rect fill="#ADD8E6" height="29.0679" rx="2.5" ry="2.5" style="stroke:#181818;stroke-width:0.5;" width="132.5175" x="799.53" y="381.072"/><text fill="#000000" font-family="sans-serif" font-size="14" lengthAdjust="spacing" textLength="126.5175" x="802.53" y="401.0379">ConsentWithdrawn</text></g><!--class ConsentGiven--><g class="entity" data-entity="ConsentGiven" data-source-line="24" data-uid="ent0021" id="entity_ConsentGiven"><rect fill="#ADD8E6" height="29.0679" rx="2.5" ry="2.5" style="stroke:#181818;stroke-width:0.5;" width="97.7416" x="816.92" y="829.072"/><text fill="#000000" font-family="sans-serif" font-size="14" lengthAdjust="spacing" textLength="91.7416" x="819.92" y="849.0379">ConsentGiven</text></g><!--class RenewedConsentGiven--><g class="entity" data-entity="RenewedConsentGiven" data-source-line="25" data-uid="ent0022" id="entity_RenewedConsentGiven"><rect fill="#ADD8E6" height="29.0679" rx="2.5" ry="2.5" style="stroke:#181818;stroke-width:0.5;" width="158.4034" x="786.59" y="765.072"/><text fill="#000000" font-family="sans-serif" font-size="14" lengthAdjust="spacing" textLength="152.4034" x="789.59" y="785.0379">RenewedConsentGiven</text></g><!--class Duration--><g class="entity" data-entity="Duration" data-source-line="27" data-uid="ent0023" id="entity_Duration"><rect fill="#F1F1F1" height="29.0679" rx="2.5" ry="2.5" style="stroke:#181818;stroke-width:0.5;" width="64.2958" x="558.64" y="365.072"/><text fill="#000000" font-family="sans-serif" font-size="14" lengthAdjust="spacing" textLength="58.2958" x="561.64" y="385.0379">Duration</text></g><g class="entity" data-entity="GMN24" data-source-line="28" data-uid="ent0025" id="entity_GMN24"><path d="M771.1,172.892 L771.1,218.304 L960.4892,218.304 L960.4892,182.892 L950.4892,172.892 L771.1,172.892" fill="#FEFFDD" style="stroke:#181818;stroke-width:0.5;"/><path d="M950.4892,172.892 L950.4892,182.892 L960.4892,182.892 L950.4892,172.892" fill="#FEFFDD" style="stroke:#181818;stroke-width:1;"/><text fill="#000000" font-family="sans-serif" font-size="13" lengthAdjust="spacing" textLength="168.3892" x="777.1" y="191.789">e.g. 6 months,31-DEC-2024,</text><text fill="#000000" font-family="sans-serif" font-size="13" lengthAdjust="spacing" textLength="127.0491" x="777.1" y="209.495">until account closure</text></g><!--class ConsentControl--><g class="entity" data-entity="ConsentControl" data-source-line="30" data-uid="ent0027" id="entity_ConsentControl"><rect fill="#F1F1F1" height="29.0679" rx="2.5" ry="2.5" style="stroke:#181818;stroke-width:0.5;" width="109.1656" x="212.31" y="173.072"/><text fill="#000000" font-family="sans-serif" font-size="14" lengthAdjust="spacing" textLength="103.1656" x="215.31" y="193.0379">ConsentControl</text></g><!--class ObtainConsent--><g class="entity" data-entity="ObtainConsent" data-source-line="31" data-uid="ent0028" id="entity_ObtainConsent"><rect fill="#F1F1F1" height="29.0679" rx="2.5" ry="2.5" style="stroke:#181818;stroke-width:0.5;" width="104.9936" x="538.29" y="109.072"/><text fill="#000000" font-family="sans-serif" font-size="14" lengthAdjust="spacing" textLength="98.9936" x="541.29" y="129.0379">ObtainConsent</text></g><!--class ProvideConsent--><g class="entity" data-entity="ProvideConsent" data-source-line="32" data-uid="ent0029" id="entity_ProvideConsent"><rect fill="#F1F1F1" height="29.0679" rx="2.5" ry="2.5" style="stroke:#181818;stroke-width:0.5;" width="110.2296" x="535.67" y="45.072"/><text fill="#000000" font-family="sans-serif" font-size="14" lengthAdjust="spacing" textLength="104.2296" x="538.67" y="65.0379">ProvideConsent</text></g><!--class ReaffirmConsent--><g class="entity" data-entity="ReaffirmConsent" data-source-line="33" data-uid="ent0030" id="entity_ReaffirmConsent"><rect fill="#F1F1F1" height="29.0679" rx="2.5" ry="2.5" style="stroke:#181818;stroke-width:0.5;" width="116.8516" x="532.36" y="173.072"/><text fill="#000000" font-family="sans-serif" font-size="14" lengthAdjust="spacing" textLength="110.8516" x="535.36" y="193.0379">ReaffirmConsent</text></g><!--class Thing--><g class="entity" data-entity="Thing" data-source-line="4" data-uid="ent0002" id="entity_Thing"><rect fill="#C0C0C0" height="29.0679" rx="2.5" ry="2.5" style="stroke:#181818;stroke-width:0.5;" width="43.3098" x="7" y="109.072"/><text fill="#000000" font-family="sans-serif" font-size="14" lengthAdjust="spacing" textLength="37.3098" x="10" y="129.0379">Thing</text></g><!--link Duration to GMN24--><g class="link" data-entity-1="Duration" data-entity-2="GMN24" data-source-line="28" data-uid="lnk26" id="link_Duration_GMN24"><path d="M623.21,377.832 C648.97,374.912 685.13,367.312 710.1,347.602 C754.59,312.492 729.16,273.732 771.1,235.602 C778.3,229.062 786.73,223.482 795.53,218.752" fill="none" id="Duration-GMN24" style="stroke:#181818;stroke-width:1;stroke-dasharray:7,7;"/></g><!--link Thing to LegalBasis--><g class="link" data-entity-1="Thing" data-entity-2="LegalBasis" data-source-line="36" data-uid="lnk31" id="link_Thing_LegalBasis"><path codeLine="36" d="M50.62,123.602 C90.71,123.602 178.7,123.602 228.89,123.602" fill="none" id="Thing-LegalBasis" style="stroke:#181818;stroke-width:1;"/><polygon fill="#000000" points="90.31,114.455,81.2649,111.5161,81.2649,117.3939,90.31,114.455" style="stroke:#000000;stroke-width:1;"/><text fill="#000000" font-family="sans-serif" font-size="13" lengthAdjust="spacing" textLength="85.8911" x="94.31" y="119.499">hasLegalBasis</text></g><!--link Consent to LegalBasis--><g class="link" data-entity-1="Consent" data-entity-2="LegalBasis" data-source-line="37" data-uid="lnk33" id="link_Consent_LegalBasis"><path codeLine="37" d="M236.3,274.572 C183.39,259.172 83.73,222.572 119.31,173.102 C144.09,138.662 176.0557,129.4911 210.9457,126.2811" fill="none" id="Consent-to-LegalBasis" style="stroke:#181818;stroke-width:1;"/><polygon fill="none" points="228.87,124.632,210.396,120.3063,211.4954,132.2558,228.87,124.632" style="stroke:#181818;stroke-width:1;"/></g><!--link ConsentStatus to Consent--><g class="link" data-entity-1="ConsentStatus" data-entity-2="Consent" data-source-line="38" data-uid="lnk35" id="link_ConsentStatus_Consent"><path codeLine="38" d="M266.89,483.752 C266.89,444.292 266.89,337.132 266.89,297.552" fill="none" id="ConsentStatus-Consent" style="stroke:#181818;stroke-width:1;"/><polygon fill="#000000" points="196.89,395.955,199.8289,386.9099,193.9511,386.9099,196.89,395.955" style="stroke:#000000;stroke-width:1;"/><text fill="#000000" font-family="sans-serif" font-size="13" lengthAdjust="spacing" textLength="110.0321" x="205.89" y="395.999">hasConsentStatus</text></g><!--link Consent to ConsentControl--><g class="link" data-entity-1="Consent" data-entity-2="ConsentControl" data-source-line="39" data-uid="lnk36" id="link_Consent_ConsentControl"><path codeLine="39" d="M266.89,267.762 C266.89,249.912 266.89,220.142 266.89,202.342" fill="none" id="Consent-ConsentControl" style="stroke:#181818;stroke-width:1;"/><polygon fill="#000000" points="193.39,230.455,190.4511,239.5001,196.3289,239.5001,193.39,230.455" style="stroke:#000000;stroke-width:1;"/><text fill="#000000" font-family="sans-serif" font-size="13" lengthAdjust="spacing" textLength="117.3511" x="202.39" y="240.499">hasConsentControl</text></g><!--reverse link ConsentStatus to ConsentStatusValidForProcessing--><g class="link" data-entity-1="ConsentStatus" data-entity-2="ConsentStatusValidForProcessing" data-source-line="40" data-uid="lnk37" id="link_ConsentStatus_ConsentStatusValidForProcessing"><path codeLine="40" d="M298.3089,525.1507 C353.7989,573.6007 516.9,715.972 572.71,764.692" fill="none" id="ConsentStatus-backto-ConsentStatusValidForProcessing" style="stroke:#181818;stroke-width:1;"/><polygon fill="none" points="284.75,513.312,294.3627,529.6703,302.2552,520.6311,284.75,513.312" style="stroke:#181818;stroke-width:1;"/></g><!--reverse link ConsentStatus to ConsentStatusInvalidForProcessing--><g class="link" data-entity-1="ConsentStatus" data-entity-2="ConsentStatusInvalidForProcessing" data-source-line="41" data-uid="lnk38" id="link_ConsentStatus_ConsentStatusInvalidForProcessing"><path codeLine="41" d="M335.84,498.602 C376.72,498.602 418.23,498.602 471.16,498.602" fill="none" id="ConsentStatus-backto-ConsentStatusInvalidForProcessing" style="stroke:#181818;stroke-width:1;"/><polygon fill="none" points="317.84,498.602,335.84,504.602,335.84,492.602,317.84,498.602" style="stroke:#181818;stroke-width:1;"/></g><!--reverse link ConsentControl to ObtainConsent--><g class="link" data-entity-1="ConsentControl" data-entity-2="ObtainConsent" data-source-line="43" data-uid="lnk39" id="link_ConsentControl_ObtainConsent"><path codeLine="43" d="M339.4243,173.3811 C399.5643,161.4211 478.54,145.722 537.87,133.922" fill="none" id="ConsentControl-backto-ObtainConsent" style="stroke:#181818;stroke-width:1;"/><polygon fill="none" points="321.77,176.892,340.5946,179.2658,338.254,167.4963,321.77,176.892" style="stroke:#181818;stroke-width:1;"/></g><!--reverse link ConsentControl to ProvideConsent--><g class="link" data-entity-1="ConsentControl" data-entity-2="ProvideConsent" data-source-line="44" data-uid="lnk40" id="link_ConsentControl_ProvideConsent"><path codeLine="44" d="M311.448,164.2196 C349.998,143.8096 406.56,115.472 471.48,91.602 C491.95,84.072 514.99,77.442 535.27,72.202" fill="none" id="ConsentControl-backto-ProvideConsent" style="stroke:#181818;stroke-width:1;"/><polygon fill="none" points="295.54,172.642,314.2554,169.5223,308.6405,158.917,295.54,172.642" style="stroke:#181818;stroke-width:1;"/></g><!--reverse link ConsentControl to ReaffirmConsent--><g class="link" data-entity-1="ConsentControl" data-entity-2="ReaffirmConsent" data-source-line="45" data-uid="lnk41" id="link_ConsentControl_ReaffirmConsent"><path codeLine="45" d="M339.77,187.602 C397.94,187.602 472.25,187.602 531.92,187.602" fill="none" id="ConsentControl-backto-ReaffirmConsent" style="stroke:#181818;stroke-width:1;"/><polygon fill="none" points="321.77,187.602,339.77,193.602,339.77,181.602,321.77,187.602" style="stroke:#181818;stroke-width:1;"/></g><!--reverse link Consent to InformedConsent--><g class="link" data-entity-1="Consent" data-entity-2="InformedConsent" data-source-line="47" data-uid="lnk42" id="link_Consent_InformedConsent"><path codeLine="47" d="M315.2161,287.4577 C367.5961,292.8277 460.1,302.302 529.28,309.402" fill="none" id="Consent-backto-InformedConsent" style="stroke:#181818;stroke-width:1;"/><polygon fill="none" points="297.31,285.622,314.6042,293.4264,315.8281,281.489,297.31,285.622" style="stroke:#181818;stroke-width:1;"/></g><!--reverse link InformedConsent to ExpressedConsent--><g class="link" data-entity-1="InformedConsent" data-entity-2="ExpressedConsent" data-source-line="48" data-uid="lnk43" id="link_InformedConsent_ExpressedConsent"><path codeLine="48" d="M669.9157,307.215 C690.4957,302.835 694.58,298.462 710.1,283.602 C742.44,252.642 739.78,123.592 771.1,91.602 C779.51,83.002 790.33,76.712 801.61,72.112" fill="none" id="InformedConsent-backto-ExpressedConsent" style="stroke:#181818;stroke-width:1;"/><polygon fill="none" points="652.31,310.962,671.1647,313.0836,668.6667,301.3464,652.31,310.962" style="stroke:#181818;stroke-width:1;"/></g><!--reverse link InformedConsent to ImpliedConsent--><g class="link" data-entity-1="InformedConsent" data-entity-2="ImpliedConsent" data-source-line="49" data-uid="lnk44" id="link_InformedConsent_ImpliedConsent"><path codeLine="49" d="M670.0062,305.5098 C690.1162,300.9598 693.92,297.092 710.1,283.602 C758.5,243.242 724.04,197.512 771.1,155.602 C782.14,145.772 796.33,138.932 810.32,134.192" fill="none" id="InformedConsent-backto-ImpliedConsent" style="stroke:#181818;stroke-width:1;"/><polygon fill="none" points="652.45,309.482,671.3303,311.3619,668.6822,299.6577,652.45,309.482" style="stroke:#181818;stroke-width:1;"/></g><!--reverse link Consent to UninformedConsent--><g class="link" data-entity-1="Consent" data-entity-2="UninformedConsent" data-source-line="50" data-uid="lnk45" id="link_Consent_UninformedConsent"><path codeLine="50" d="M315.227,278.0449 C365.437,273.2049 451.04,264.962 520.46,258.282" fill="none" id="Consent-backto-UninformedConsent" style="stroke:#181818;stroke-width:1;"/><polygon fill="none" points="297.31,279.772,315.8027,284.0172,314.6512,272.0726,297.31,279.772" style="stroke:#181818;stroke-width:1;"/></g><!--reverse link ConsentStatusInvalidForProcessing to ConsentExpired--><g class="link" data-entity-1="ConsentStatusInvalidForProcessing" data-entity-2="ConsentExpired" data-source-line="52" data-uid="lnk46" id="link_ConsentStatusInvalidForProcessing_ConsentExpired"><path codeLine="52" d="M627.0459,473.1644 C650.7759,456.0044 676.21,437.382 710.1,411.602 C737.55,390.712 740.79,380.082 771.1,363.602 C783.48,356.872 797.55,351.172 810.94,346.522" fill="none" id="ConsentStatusInvalidForProcessing-backto-ConsentExpired" style="stroke:#181818;stroke-width:1;"/><polygon fill="none" points="612.46,483.712,630.5618,478.0264,623.53,468.3024,612.46,483.712" style="stroke:#181818;stroke-width:1;"/></g><!--reverse link ConsentStatusInvalidForProcessing to ConsentInvalidated--><g class="link" data-entity-1="ConsentStatusInvalidForProcessing" data-entity-2="ConsentInvalidated" data-source-line="53" data-uid="lnk47" id="link_ConsentStatusInvalidForProcessing_ConsentInvalidated"><path codeLine="53" d="M633.8422,474.5201 C659.7022,459.0701 683.44,442.142 710.1,411.602 C747.38,368.902 727.77,336.142 771.1,299.602 C779.51,292.512 789.57,286.962 799.93,282.632" fill="none" id="ConsentStatusInvalidForProcessing-backto-ConsentInvalidated" style="stroke:#181818;stroke-width:1;"/><polygon fill="none" points="618.39,483.752,636.9195,479.6708,630.7649,469.3693,618.39,483.752" style="stroke:#181818;stroke-width:1;"/></g><!--reverse link ConsentStatusInvalidForProcessing to ConsentRefused--><g class="link" data-entity-1="ConsentStatusInvalidForProcessing" data-entity-2="ConsentRefused" data-source-line="54" data-uid="lnk48" id="link_ConsentStatusInvalidForProcessing_ConsentRefused"><path codeLine="54" d="M612.9242,528.1959 C638.1642,563.0159 694.98,635.342 771.1,683.602 C782.57,690.872 795.88,696.702 808.81,701.292" fill="none" id="ConsentStatusInvalidForProcessing-backto-ConsentRefused" style="stroke:#181818;stroke-width:1;"/><polygon fill="none" points="602.36,513.622,608.0662,531.7173,617.7821,524.6745,602.36,513.622" style="stroke:#181818;stroke-width:1;"/></g><!--reverse link ConsentStatusInvalidForProcessing to ConsentRequestDeferred--><g class="link" data-entity-1="ConsentStatusInvalidForProcessing" data-entity-2="ConsentRequestDeferred" data-source-line="55" data-uid="lnk49" id="link_ConsentStatusInvalidForProcessing_ConsentRequestDeferred"><path codeLine="55" d="M624.5246,524.7671 C656.0146,549.5971 708.38,588.422 771.1,619.602 C784.34,626.182 799.25,631.952 813.23,636.712" fill="none" id="ConsentStatusInvalidForProcessing-backto-ConsentRequestDeferred" style="stroke:#181818;stroke-width:1;"/><polygon fill="none" points="610.39,513.622,620.8095,529.4787,628.2396,520.0556,610.39,513.622" style="stroke:#181818;stroke-width:1;"/></g><!--reverse link ConsentStatusInvalidForProcessing to ConsentRequested--><g class="link" data-entity-1="ConsentStatusInvalidForProcessing" data-entity-2="ConsentRequested" data-source-line="56" data-uid="lnk50" id="link_ConsentStatusInvalidForProcessing_ConsentRequested"><path codeLine="56" d="M654.9042,519.179 C705.3542,535.619 768.71,556.282 819.06,572.692" fill="none" id="ConsentStatusInvalidForProcessing-backto-ConsentRequested" style="stroke:#181818;stroke-width:1;"/><polygon fill="none" points="637.79,513.602,653.0453,524.8837,656.7632,513.4742,637.79,513.602" style="stroke:#181818;stroke-width:1;"/></g><!--reverse link ConsentStatusInvalidForProcessing to ConsentRevoked--><g class="link" data-entity-1="ConsentStatusInvalidForProcessing" data-entity-2="ConsentRevoked" data-source-line="57" data-uid="lnk51" id="link_ConsentStatusInvalidForProcessing_ConsentRevoked"><path codeLine="57" d="M728.2652,511.1017 C761.9352,514.1817 779.17,515.762 807.42,518.352" fill="none" id="ConsentStatusInvalidForProcessing-backto-ConsentRevoked" style="stroke:#181818;stroke-width:1;"/><polygon fill="none" points="710.34,509.462,727.7186,517.0768,728.8117,505.1267,710.34,509.462" style="stroke:#181818;stroke-width:1;"/></g><!--reverse link ConsentStatusInvalidForProcessing to ConsentUnknown--><g class="link" data-entity-1="ConsentStatusInvalidForProcessing" data-entity-2="ConsentUnknown" data-source-line="58" data-uid="lnk52" id="link_ConsentStatusInvalidForProcessing_ConsentUnknown"><path codeLine="58" d="M714.7692,481.0371 C750.9692,475.8671 772.46,472.792 803.93,468.292" fill="none" id="ConsentStatusInvalidForProcessing-backto-ConsentUnknown" style="stroke:#181818;stroke-width:1;"/><polygon fill="none" points="696.95,483.582,715.6175,486.9768,713.9209,475.0974,696.95,483.582" style="stroke:#181818;stroke-width:1;"/></g><!--reverse link ConsentStatusInvalidForProcessing to ConsentWithdrawn--><g class="link" data-entity-1="ConsentStatusInvalidForProcessing" data-entity-2="ConsentWithdrawn" data-source-line="59" data-uid="lnk53" id="link_ConsentStatusInvalidForProcessing_ConsentWithdrawn"><path codeLine="59" d="M644.6547,476.8685 C680.7347,462.1385 721.15,446.012 771.1,427.602 C786.74,421.832 803.98,415.842 819.37,410.632" fill="none" id="ConsentStatusInvalidForProcessing-backto-ConsentWithdrawn" style="stroke:#181818;stroke-width:1;"/><polygon fill="none" points="627.99,483.672,646.9225,482.4234,642.3869,471.3136,627.99,483.672" style="stroke:#181818;stroke-width:1;"/></g><!--reverse link ConsentStatusValidForProcessing to ConsentGiven--><g class="link" data-entity-1="ConsentStatusValidForProcessing" data-entity-2="ConsentGiven" data-source-line="60" data-uid="lnk54" id="link_ConsentStatusValidForProcessing_ConsentGiven"><path codeLine="60" d="M673.3156,798.7172 C722.4956,810.2372 771.82,821.802 816.55,832.292" fill="none" id="ConsentStatusValidForProcessing-backto-ConsentGiven" style="stroke:#181818;stroke-width:1;"/><polygon fill="none" points="655.79,794.612,671.9472,804.5591,674.684,792.8753,655.79,794.612" style="stroke:#181818;stroke-width:1;"/></g><!--reverse link ConsentStatusValidForProcessing to RenewedConsentGiven--><g class="link" data-entity-1="ConsentStatusValidForProcessing" data-entity-2="RenewedConsentGiven" data-source-line="61" data-uid="lnk55" id="link_ConsentStatusValidForProcessing_RenewedConsentGiven"><path codeLine="61" d="M722.41,779.602 C749.87,779.602 760.67,779.602 786.16,779.602" fill="none" id="ConsentStatusValidForProcessing-backto-RenewedConsentGiven" style="stroke:#181818;stroke-width:1;"/><polygon fill="none" points="704.41,779.602,722.41,785.602,722.41,773.602,704.41,779.602" style="stroke:#181818;stroke-width:1;"/></g><!--link Consent to Duration--><g class="link" data-entity-1="Consent" data-entity-2="Duration" data-source-line="63" data-uid="lnk56" id="link_Consent_Duration"><path codeLine="63" d="M291.97,297.482 C308.26,306.982 330.54,318.922 351.48,326.602 C423.1,352.882 511.82,368.412 558.18,375.312" fill="none" id="Consent-Duration" style="stroke:#181818;stroke-width:1;"/><polygon fill="#000000" points="361.2791,318.8581,353.4222,313.499,351.7727,319.1407,361.2791,318.8581" style="stroke:#000000;stroke-width:1;"/><text fill="#000000" font-family="sans-serif" font-size="13" lengthAdjust="spacing" textLength="75.6861" x="365.48" y="322.499">hasDuration</text></g><!--SRC=[dLHDJzj043spls8ghZYY5FM0gXmWj8g4r2ejSEbbiSVsAkjPTpyCLTl_tiMn7MTZ7Cp9cJVlURsJD- -Te5Yw1C7Otn9dfUHaNI6PnDI2LQ15bbj8XCRO2aMCnP8R0pzoGHaS6o4hrApayPfd24bPmHzsjA7SOCRb9JV2jCYL8eDast99gT859W5y_LHgD6OFNnQb57leBOdWDS5ftostpi3npVD5BgN3mVwIAYv5ybdfRrh5_lZwUkEQkmaAVoa_mkHbGlC1t8wHLfWwCqxuvT3O1QQezIk8uvHAhSS8jxGczKWl4-w5pHFDnoXVH8L3xHKIFdR_wHwhfIsSvhKjZqXPRCogqWw72y1PDeEFK2YokJdvy3vQN5z5PwTdvoS_oP4L4dWSA_yBOgcCqnWQo3-iLh95lpvOBYXmeRT09H8Cq1NoD1MwQE5_Z6ts9efwst41EJVR4kQiLtpw6yceMvpc2JriOyNw7Rk6ds_PEWhkqgStq9RVwFt9qI6_7vGChHLZmScrR7UiGunWnaEKSE3T2Efkc3T1lI7jfSyWAyYYdTv08XsEclxecgoOgEe5o4HbaogJLJjHypRr6tHrA4rKDKarKTN55piK-trLdLMlKmo4tDQoljzBCR-lNJLdx3y0]--></g></svg>