<svg xmlns="http://www.w3.org/2000/svg" xmlns:xlink="http://www.w3.org/1999/xlink" contentStyleType="text/css" data-diagram-type="CLASS" height="353px" preserveAspectRatio="none" style="width:371px;height:353px;background:#FFFFFF;" version="1.1" viewBox="0 0 371 353" width="371px" zoomAndPan="magnify"><defs/><g><!--cluster dpv--><g class="cluster" data-entity="dpv" data-source-line="6" data-uid="ent0002" id="cluster_dpv"><path d="M8.5,70.602 L35.1444,70.602 A3.75,3.75 0 0 1 37.6444,73.102 L44.6444,95.6699 L113.5,95.6699 A2.5,2.5 0 0 1 116,98.1699 L116,280.102 A2.5,2.5 0 0 1 113.5,282.602 L8.5,282.602 A2.5,2.5 0 0 1 6,280.102 L6,73.102 A2.5,2.5 0 0 1 8.5,70.602" fill="none" style="stroke:#000000;stroke-width:1.5;"/><line style="stroke:#000000;stroke-width:1.5;" x1="6" x2="44.6444" y1="95.6699" y2="95.6699"/><text fill="#000000" font-family="sans-serif" font-size="14" font-weight="bold" lengthAdjust="spacing" textLength="25.6444" x="10" y="87.5679">dpv</text></g><!--cluster gdng--><g class="cluster" data-entity="gdng" data-source-line="9" data-uid="ent0003" id="cluster_gdng"><path d="M146.5,6.602 L206.0583,6.602 A3.75,3.75 0 0 1 208.5583,9.102 L215.5583,31.6699 L361.5,31.6699 A2.5,2.5 0 0 1 364,34.1699 L364,344.102 A2.5,2.5 0 0 1 361.5,346.602 L146.5,346.602 A2.5,2.5 0 0 1 144,344.102 L144,9.102 A2.5,2.5 0 0 1 146.5,6.602" fill="none" style="stroke:#000000;stroke-width:1.5;"/><line style="stroke:#000000;stroke-width:1.5;" x1="144" x2="215.5583" y1="31.6699" y2="31.6699"/><text fill="#000000" font-family="sans-serif" font-size="14" font-weight="bold" lengthAdjust="spacing" textLength="58.5583" x="148" y="23.5679">de-gdng</text></g><!--class Processing--><g class="entity" data-entity="Processing" data-source-line="10" data-uid="ent0004" id="entity_Processing"><rect fill="#F1F1F1" height="29.0679" rx="2.5" ry="2.5" style="stroke:#181818;stroke-width:0.5;" width="77.6237" x="22" y="109.102"/><text fill="#000000" font-family="sans-serif" font-size="14" lengthAdjust="spacing" textLength="71.6237" x="25" y="129.0679">Processing</text></g><!--class Data--><g class="entity" data-entity="Data" data-source-line="11" data-uid="ent0007" id="entity_Data"><rect fill="#F1F1F1" height="29.0679" rx="2.5" ry="2.5" style="stroke:#181818;stroke-width:0.5;" width="36.9819" x="42.5" y="173.102"/><text fill="#000000" font-family="sans-serif" font-size="14" lengthAdjust="spacing" textLength="30.9819" x="45.5" y="193.0679">Data</text></g><!--class Process--><g class="entity" data-entity="Process" data-source-line="12" data-uid="ent0010" id="entity_Process"><rect fill="#F1F1F1" height="29.0679" rx="2.5" ry="2.5" style="stroke:#181818;stroke-width:0.5;" width="56.7498" x="32.5" y="237.102"/><text fill="#000000" font-family="sans-serif" font-size="14" lengthAdjust="spacing" textLength="50.7498" x="35.5" y="257.0679">Process</text></g><!--class DataLinkage--><g class="entity" data-entity="DataLinkage" data-source-line="10" data-uid="ent0005" id="entity_DataLinkage"><rect fill="#F1F1F1" height="29.0679" rx="2.5" ry="2.5" style="stroke:#181818;stroke-width:0.5;" width="88.4177" x="210" y="45.102"/><text fill="#000000" font-family="sans-serif" font-size="14" lengthAdjust="spacing" textLength="82.4177" x="213" y="65.0679">DataLinkage</text></g><!--class PseudonymizedData--><g class="entity" data-entity="PseudonymizedData" data-source-line="11" data-uid="ent0008" id="entity_PseudonymizedData"><rect fill="#F1F1F1" height="29.0679" rx="2.5" ry="2.5" style="stroke:#181818;stroke-width:0.5;" width="141.3655" x="183.5" y="237.102"/><text fill="#000000" font-family="sans-serif" font-size="14" lengthAdjust="spacing" textLength="135.3655" x="186.5" y="257.0679">PseudonymizedData</text></g><!--class DataLinkageRequest--><g class="entity" data-entity="DataLinkageRequest" data-source-line="12" data-uid="ent0011" id="entity_DataLinkageRequest"><rect fill="#F1F1F1" height="29.0679" rx="2.5" ry="2.5" style="stroke:#181818;stroke-width:0.5;" width="141.9395" x="183" y="301.102"/><text fill="#000000" font-family="sans-serif" font-size="14" lengthAdjust="spacing" textLength="135.9395" x="186" y="321.0679">DataLinkageRequest</text></g><!--class DataLinkageRequestRecord--><g class="entity" data-entity="DataLinkageRequestRecord" data-source-line="13" data-uid="ent0013" id="entity_DataLinkageRequestRecord"><rect fill="#F1F1F1" height="29.0679" rx="2.5" ry="2.5" style="stroke:#181818;stroke-width:0.5;" width="188.1253" x="160" y="109.102"/><text fill="#000000" font-family="sans-serif" font-size="14" lengthAdjust="spacing" textLength="182.1253" x="163" y="129.0679">DataLinkageRequestRecord</text></g><!--class DataLinkagePermission--><g class="entity" data-entity="DataLinkagePermission" data-source-line="14" data-uid="ent0015" id="entity_DataLinkagePermission"><rect fill="#F1F1F1" height="29.0679" rx="2.5" ry="2.5" style="stroke:#181818;stroke-width:0.5;" width="161.4134" x="173.5" y="173.102"/><text fill="#000000" font-family="sans-serif" font-size="14" lengthAdjust="spacing" textLength="155.4134" x="176.5" y="193.0679">DataLinkagePermission</text></g><!--reverse link Processing to DataLinkage--><g class="link" data-entity-1="Processing" data-entity-2="DataLinkage" data-source-line="10" data-uid="lnk6" id="link_Processing_DataLinkage"><path codeLine="10" d="M110.0992,101.4103 C123.0592,95.6303 121.87,96.562 136,91.602 C160.04,83.162 187.5,75.552 209.76,69.872" fill="none" id="Processing-backto-DataLinkage" style="stroke:#181818;stroke-width:1;"/><polygon fill="none" points="93.66,108.742,112.5431,106.89,107.6553,95.9306,93.66,108.742" style="stroke:#181818;stroke-width:1;"/></g><!--reverse link Data to PseudonymizedData--><g class="link" data-entity-1="Data" data-entity-2="PseudonymizedData" data-source-line="11" data-uid="lnk9" id="link_Data_PseudonymizedData"><path codeLine="11" d="M96.2761,203.8237 C111.0861,210.7237 116.45,212.742 136,219.602 C153.88,225.882 173.65,231.702 191.77,236.602" fill="none" id="Data-backto-PseudonymizedData" style="stroke:#181818;stroke-width:1;"/><polygon fill="none" points="79.96,196.222,93.7422,209.2624,98.81,198.385,79.96,196.222" style="stroke:#181818;stroke-width:1;"/></g><!--reverse link Process to DataLinkageRequest--><g class="link" data-entity-1="Process" data-entity-2="DataLinkageRequest" data-source-line="12" data-uid="lnk12" id="link_Process_DataLinkageRequest"><path codeLine="12" d="M106.147,272.1054 C119.887,278.3054 120.42,278.132 136,283.602 C153.88,289.882 173.65,295.702 191.77,300.602" fill="none" id="Process-backto-DataLinkageRequest" style="stroke:#181818;stroke-width:1;"/><polygon fill="none" points="89.74,264.702,103.6792,277.5744,108.6148,266.6364,89.74,264.702" style="stroke:#181818;stroke-width:1;"/></g><!--reverse link Data to DataLinkageRequestRecord--><g class="link" data-entity-1="Data" data-entity-2="DataLinkageRequestRecord" data-source-line="13" data-uid="lnk14" id="link_Data_DataLinkageRequestRecord"><path codeLine="13" d="M96.2761,171.3803 C111.0861,164.4803 116.45,162.462 136,155.602 C153.88,149.322 173.65,143.502 191.77,138.602" fill="none" id="Data-backto-DataLinkageRequestRecord" style="stroke:#181818;stroke-width:1;"/><polygon fill="none" points="79.96,178.982,98.81,176.819,93.7422,165.9416,79.96,178.982" style="stroke:#181818;stroke-width:1;"/></g><!--reverse link Data to DataLinkagePermission--><g class="link" data-entity-1="Data" data-entity-2="DataLinkagePermission" data-source-line="14" data-uid="lnk16" id="link_Data_DataLinkagePermission"><path codeLine="14" d="M97.97,187.602 C119.42,187.602 138.74,187.602 173.24,187.602" fill="none" id="Data-backto-DataLinkagePermission" style="stroke:#181818;stroke-width:1;"/><polygon fill="none" points="79.97,187.602,97.97,193.602,97.97,181.602,79.97,187.602" style="stroke:#181818;stroke-width:1;"/></g><!--SRC=[XOzB3i8m34JNv1HMz-q9MB9aKVK68JQ9HPkKn4NYqxkJe4g0gCJEC_CyqZX60YqI-J099UMA7aXSm4KOZgRFIKz70GaGsJe1v4X6E7YbHcrEsXBWU86xcjz6XLHRzBO2dQ0SETuKh6bZC9GIPslxgEjNsEoqw3txyhfWnVa0saGJ1dyT-4POik-szQgEpXCbMM_yvJeo8U9VkgKuS1wGzy_g2G00]--></g></svg>