<svg xmlns="http://www.w3.org/2000/svg" xmlns:xlink="http://www.w3.org/1999/xlink" contentStyleType="text/css" data-diagram-type="CLASS" height="481px" preserveAspectRatio="none" style="width:604px;height:481px;background:#FFFFFF;" version="1.1" viewBox="0 0 604 481" width="604px" zoomAndPan="magnify"><defs/><g><!--cluster dpv--><g class="cluster" data-entity="dpv" data-source-line="6" data-uid="ent0002" id="cluster_dpv"><path d="M8.5,134.602 L35.1444,134.602 A3.75,3.75 0 0 1 37.6444,137.102 L44.6444,159.6699 L242.5,159.6699 A2.5,2.5 0 0 1 245,162.1699 L245,408.102 A2.5,2.5 0 0 1 242.5,410.602 L8.5,410.602 A2.5,2.5 0 0 1 6,408.102 L6,137.102 A2.5,2.5 0 0 1 8.5,134.602" fill="none" style="stroke:#000000;stroke-width:1.5;"/><line style="stroke:#000000;stroke-width:1.5;" x1="6" x2="44.6444" y1="159.6699" y2="159.6699"/><text fill="#000000" font-family="sans-serif" font-size="14" font-weight="bold" lengthAdjust="spacing" textLength="25.6444" x="10" y="151.5679">dpv</text></g><!--cluster gdng--><g class="cluster" data-entity="gdng" data-source-line="8" data-uid="ent0003" id="cluster_gdng"><path d="M275.5,6.602 L335.0583,6.602 A3.75,3.75 0 0 1 337.5583,9.102 L344.5583,31.6699 L594.5,31.6699 A2.5,2.5 0 0 1 597,34.1699 L597,472.102 A2.5,2.5 0 0 1 594.5,474.602 L275.5,474.602 A2.5,2.5 0 0 1 273,472.102 L273,9.102 A2.5,2.5 0 0 1 275.5,6.602" fill="none" style="stroke:#000000;stroke-width:1.5;"/><line style="stroke:#000000;stroke-width:1.5;" x1="273" x2="344.5583" y1="31.6699" y2="31.6699"/><text fill="#000000" font-family="sans-serif" font-size="14" font-weight="bold" lengthAdjust="spacing" textLength="58.5583" x="277" y="23.5679">de-gdng</text></g><!--class Process--><g class="entity" data-entity="Process" data-source-line="9" data-uid="ent0004" id="entity_Process"><rect fill="#F1F1F1" height="29.0679" rx="2.5" ry="2.5" style="stroke:#181818;stroke-width:0.5;" width="56.7498" x="97" y="173.102"/><text fill="#000000" font-family="sans-serif" font-size="14" lengthAdjust="spacing" textLength="50.7498" x="100" y="193.0679">Process</text></g><!--class Data--><g class="entity" data-entity="Data" data-source-line="10" data-uid="ent0007" id="entity_Data"><rect fill="#F1F1F1" height="29.0679" rx="2.5" ry="2.5" style="stroke:#181818;stroke-width:0.5;" width="36.9819" x="107" y="237.102"/><text fill="#000000" font-family="sans-serif" font-size="14" lengthAdjust="spacing" textLength="30.9819" x="110" y="257.0679">Data</text></g><!--class Service--><g class="entity" data-entity="Service" data-source-line="11" data-uid="ent0010" id="entity_Service"><rect fill="#F1F1F1" height="29.0679" rx="2.5" ry="2.5" style="stroke:#181818;stroke-width:0.5;" width="52.7038" x="99" y="301.102"/><text fill="#000000" font-family="sans-serif" font-size="14" lengthAdjust="spacing" textLength="46.7038" x="102" y="321.0679">Service</text></g><!--class SecureProcessingEnvironment--><g class="entity" data-entity="SecureProcessingEnvironment" data-source-line="17" data-uid="ent0019" id="entity_SecureProcessingEnvironment"><rect fill="#F1F1F1" height="29.0679" rx="2.5" ry="2.5" style="stroke:#181818;stroke-width:0.5;" width="207.0112" x="22" y="365.102"/><text fill="#000000" font-family="sans-serif" font-size="14" lengthAdjust="spacing" textLength="201.0112" x="25" y="385.0679">SecureProcessingEnvironment</text></g><!--class HealthDataQuery--><g class="entity" data-entity="HealthDataQuery" data-source-line="9" data-uid="ent0005" id="entity_HealthDataQuery"><rect fill="#F1F1F1" height="29.0679" rx="2.5" ry="2.5" style="stroke:#181818;stroke-width:0.5;" width="120.8276" x="374.5" y="109.102"/><text fill="#000000" font-family="sans-serif" font-size="14" lengthAdjust="spacing" textLength="114.8276" x="377.5" y="129.0679">HealthDataQuery</text></g><!--class HealthDataQueryRecord--><g class="entity" data-entity="HealthDataQueryRecord" data-source-line="10" data-uid="ent0008" id="entity_HealthDataQueryRecord"><rect fill="#F1F1F1" height="29.0679" rx="2.5" ry="2.5" style="stroke:#181818;stroke-width:0.5;" width="167.0134" x="351.5" y="173.102"/><text fill="#000000" font-family="sans-serif" font-size="14" lengthAdjust="spacing" textLength="161.0134" x="354.5" y="193.0679">HealthDataQueryRecord</text></g><!--class PublicMetadataCatalogue--><g class="entity" data-entity="PublicMetadataCatalogue" data-source-line="11" data-uid="ent0011" id="entity_PublicMetadataCatalogue"><rect fill="#F1F1F1" height="29.0679" rx="2.5" ry="2.5" style="stroke:#181818;stroke-width:0.5;" width="175.3994" x="347.5" y="365.102"/><text fill="#000000" font-family="sans-serif" font-size="14" lengthAdjust="spacing" textLength="169.3994" x="350.5" y="385.0679">PublicMetadataCatalogue</text></g><!--class HealthDataAccessApplication--><g class="entity" data-entity="HealthDataAccessApplication" data-source-line="13" data-uid="ent0013" id="entity_HealthDataAccessApplication"><rect fill="#F1F1F1" height="29.0679" rx="2.5" ry="2.5" style="stroke:#181818;stroke-width:0.5;" width="197.8693" x="336" y="45.102"/><text fill="#000000" font-family="sans-serif" font-size="14" lengthAdjust="spacing" textLength="191.8693" x="339" y="65.0679">HealthDataAccessApplication</text></g><!--class HealthDataAccessApplicationRecord--><g class="entity" data-entity="HealthDataAccessApplicationRecord" data-source-line="14" data-uid="ent0015" id="entity_HealthDataAccessApplicationRecord"><rect fill="#F1F1F1" height="29.0679" rx="2.5" ry="2.5" style="stroke:#181818;stroke-width:0.5;" width="244.0551" x="313" y="237.102"/><text fill="#000000" font-family="sans-serif" font-size="14" lengthAdjust="spacing" textLength="238.0551" x="316" y="257.0679">HealthDataAccessApplicationRecord</text></g><!--class PublicHealthDataAccessApplicationRegister--><g class="entity" data-entity="PublicHealthDataAccessApplicationRegister" data-source-line="15" data-uid="ent0017" id="entity_PublicHealthDataAccessApplicationRegister"><rect fill="#F1F1F1" height="29.0679" rx="2.5" ry="2.5" style="stroke:#181818;stroke-width:0.5;" width="291.809" x="289" y="301.102"/><text fill="#000000" font-family="sans-serif" font-size="14" lengthAdjust="spacing" textLength="285.809" x="292" y="321.0679">PublicHealthDataAccessApplicationRegister</text></g><!--class SecureProcessingEnvironment--><g class="entity" data-entity="SecureProcessingEnvironment" data-source-line="17" data-uid="ent0020" id="entity_SecureProcessingEnvironment"><rect fill="#F1F1F1" height="29.0679" rx="2.5" ry="2.5" style="stroke:#181818;stroke-width:0.5;" width="207.0112" x="331.5" y="429.102"/><text fill="#000000" font-family="sans-serif" font-size="14" lengthAdjust="spacing" textLength="201.0112" x="334.5" y="449.0679">SecureProcessingEnvironment</text></g><!--reverse link Process to HealthDataQuery--><g class="link" data-entity-1="Process" data-entity-2="HealthDataQuery" data-source-line="9" data-uid="lnk6" id="link_Process_HealthDataQuery"><path codeLine="9" d="M171.7799,176.6285 C199.6899,169.9085 226.48,163.692 265,155.602 C301.09,148.022 341.69,140.302 374.05,134.352" fill="none" id="Process-backto-HealthDataQuery" style="stroke:#181818;stroke-width:1;"/><polygon fill="none" points="154.28,180.842,173.1844,182.4618,170.3754,170.7952,154.28,180.842" style="stroke:#181818;stroke-width:1;"/></g><!--reverse link Data to HealthDataQueryRecord--><g class="link" data-entity-1="Data" data-entity-2="HealthDataQueryRecord" data-source-line="10" data-uid="lnk9" id="link_Data_HealthDataQueryRecord"><path codeLine="10" d="M161.8726,242.9883 C188.2126,236.5983 221.53,228.732 265,219.602 C293.05,213.712 323.83,207.732 351.35,202.572" fill="none" id="Data-backto-HealthDataQueryRecord" style="stroke:#181818;stroke-width:1;"/><polygon fill="none" points="144.38,247.232,163.2872,248.8192,160.4581,237.1575,144.38,247.232" style="stroke:#181818;stroke-width:1;"/></g><!--reverse link Service to PublicMetadataCatalogue--><g class="link" data-entity-1="Service" data-entity-2="PublicMetadataCatalogue" data-source-line="11" data-uid="lnk12" id="link_Service_PublicMetadataCatalogue"><path codeLine="11" d="M169.9697,326.1463 C197.7497,332.8363 225.63,339.332 265,347.602 C293.05,353.492 323.83,359.472 351.35,364.632" fill="none" id="Service-backto-PublicMetadataCatalogue" style="stroke:#181818;stroke-width:1;"/><polygon fill="none" points="152.47,321.932,168.5649,331.9795,171.3745,320.313,152.47,321.932" style="stroke:#181818;stroke-width:1;"/></g><!--reverse link Process to HealthDataAccessApplication--><g class="link" data-entity-1="Process" data-entity-2="HealthDataAccessApplication" data-source-line="13" data-uid="lnk14" id="link_Process_HealthDataAccessApplication"><path codeLine="13" d="M156.6029,160.7993 C181.2629,139.3193 216.43,111.942 265,91.602 C287.17,82.312 312.11,75.702 335.88,71.002" fill="none" id="Process-backto-HealthDataAccessApplication" style="stroke:#181818;stroke-width:1;"/><polygon fill="none" points="143.03,172.622,160.5438,165.3236,152.6621,156.275,143.03,172.622" style="stroke:#181818;stroke-width:1;"/></g><!--reverse link Data to HealthDataAccessApplicationRecord--><g class="link" data-entity-1="Data" data-entity-2="HealthDataAccessApplicationRecord" data-source-line="14" data-uid="lnk16" id="link_Data_HealthDataAccessApplicationRecord"><path codeLine="14" d="M162.36,251.602 C194.98,251.602 248.74,251.602 312.66,251.602" fill="none" id="Data-backto-HealthDataAccessApplicationRecord" style="stroke:#181818;stroke-width:1;"/><polygon fill="none" points="144.36,251.602,162.36,257.602,162.36,245.602,144.36,251.602" style="stroke:#181818;stroke-width:1;"/></g><!--reverse link Service to PublicHealthDataAccessApplicationRegister--><g class="link" data-entity-1="Service" data-entity-2="PublicHealthDataAccessApplicationRegister" data-source-line="15" data-uid="lnk18" id="link_Service_PublicHealthDataAccessApplicationRegister"><path codeLine="15" d="M170.45,315.602 C201.08,315.602 236.44,315.602 288.54,315.602" fill="none" id="Service-backto-PublicHealthDataAccessApplicationRegister" style="stroke:#181818;stroke-width:1;"/><polygon fill="none" points="152.45,315.602,170.45,321.602,170.45,309.602,152.45,315.602" style="stroke:#181818;stroke-width:1;"/></g><!--reverse link SecureProcessingEnvironment to SecureProcessingEnvironment--><g class="link" data-entity-1="SecureProcessingEnvironment" data-entity-2="SecureProcessingEnvironment" data-source-line="17" data-uid="lnk21" id="link_SecureProcessingEnvironment_SecureProcessingEnvironment"><path codeLine="17" d="M206.3081,398.6468 C230.1081,404.2068 240,406.352 265,411.602 C293.05,417.492 323.83,423.472 351.35,428.632" fill="none" id="SecureProcessingEnvironment-backto-SecureProcessingEnvironment" style="stroke:#181818;stroke-width:1;"/><polygon fill="none" points="188.78,394.552,204.9431,404.4895,207.673,392.8041,188.78,394.552" style="stroke:#181818;stroke-width:1;"/></g><!--SRC=[VO_1QW8n48RFvYa6x-iJz2Asq4l1sYU8asaoD2RBPB9Gr7TlrhKefUuXa3_p_U6Rm8x0gWhlgr8nOSm7qf3TDI0BnZQ9zAcW6OHzK70iXCev6TDR_BAUmFK37C-tl7JKUPVy4co1yG97isZGQYiPgHHuEdNTPR1w9HirF5krxvNaUyB6-9ZP4MPn4_b1CZ3I7Roj-yZuHcfTAspQYTbNCly8tFvTu_YwxljMjPVT_dZCe0zr9fFPfkUY96RnsyOgT5Nav5_Im9BJWPBUBJX3cRFv0G00]--></g></svg>