<svg xmlns="http://www.w3.org/2000/svg" xmlns:xlink="http://www.w3.org/1999/xlink" contentStyleType="text/css" data-diagram-type="CLASS" height="522px" preserveAspectRatio="none" style="width:974px;height:522px;background:#FFFFFF;" version="1.1" viewBox="0 0 974 522" width="974px" zoomAndPan="magnify"><defs/><g><!--cluster dpv--><g class="cluster" data-entity="dpv" data-source-line="4" data-uid="ent0002" id="cluster_dpv"><path d="M8.5,6.602 L35.1899,6.602 A3.75,3.75 0 0 1 37.6899,9.102 L44.6899,31.6699 L964.5,31.6699 A2.5,2.5 0 0 1 967,34.1699 L967,513.302 A2.5,2.5 0 0 1 964.5,515.802 L8.5,515.802 A2.5,2.5 0 0 1 6,513.302 L6,9.102 A2.5,2.5 0 0 1 8.5,6.602" fill="none" style="stroke:#000000;stroke-width:1.5;"/><line style="stroke:#000000;stroke-width:1.5;" x1="6" x2="44.6899" y1="31.6699" y2="31.6699"/><text fill="#000000" font-family="sans-serif" font-size="14" font-weight="bold" lengthAdjust="spacing" textLength="25.6899" x="10" y="23.5679">dpv</text></g><!--cluster legal--><g class="cluster" data-entity="legal" data-source-line="9" data-uid="ent0007" id="cluster_legal"><path d="M32.5,268.732 L67.4359,268.732 A3.75,3.75 0 0 1 69.9359,271.232 L76.9359,293.7999 L940.5,293.7999 A2.5,2.5 0 0 1 943,296.2999 L943,489.302 A2.5,2.5 0 0 1 940.5,491.802 L32.5,491.802 A2.5,2.5 0 0 1 30,489.302 L30,271.232 A2.5,2.5 0 0 1 32.5,268.732" fill="none" style="stroke:#000000;stroke-width:1.5;"/><line style="stroke:#000000;stroke-width:1.5;" x1="30" x2="76.9359" y1="293.7999" y2="293.7999"/><text fill="#000000" font-family="sans-serif" font-size="14" font-weight="bold" lengthAdjust="spacing" textLength="33.9359" x="34" y="285.6979">legal</text></g><!--cluster eu--><g class="cluster" data-entity="eu" data-source-line="9" data-uid="ent0008" id="cluster_eu"><path d="M56.5,314.732 L74.9579,314.732 A3.75,3.75 0 0 1 77.4579,317.232 L84.4579,339.7999 L916.5,339.7999 A2.5,2.5 0 0 1 919,342.2999 L919,465.302 A2.5,2.5 0 0 1 916.5,467.802 L56.5,467.802 A2.5,2.5 0 0 1 54,465.302 L54,317.232 A2.5,2.5 0 0 1 56.5,314.732" fill="none" style="stroke:#000000;stroke-width:1.5;"/><line style="stroke:#000000;stroke-width:1.5;" x1="54" x2="84.4579" y1="339.7999" y2="339.7999"/><text fill="#000000" font-family="sans-serif" font-size="14" font-weight="bold" lengthAdjust="spacing" textLength="17.4579" x="58" y="331.6979">eu</text></g><!--cluster gdpr--><g class="cluster" data-entity="gdpr" data-source-line="8" data-uid="ent0005" id="cluster_gdpr"><path d="M80.5,360.732 L114.3019,360.732 A3.75,3.75 0 0 1 116.8019,363.232 L123.8019,385.7999 L892.5,385.7999 A2.5,2.5 0 0 1 895,388.2999 L895,441.302 A2.5,2.5 0 0 1 892.5,443.802 L80.5,443.802 A2.5,2.5 0 0 1 78,441.302 L78,363.232 A2.5,2.5 0 0 1 80.5,360.732" fill="none" style="stroke:#000000;stroke-width:1.5;"/><line style="stroke:#000000;stroke-width:1.5;" x1="78" x2="123.8019" y1="385.7999" y2="385.7999"/><text fill="#000000" font-family="sans-serif" font-size="14" font-weight="bold" lengthAdjust="spacing" textLength="32.8019" x="82" y="377.6979">gdpr</text></g><!--class Process--><g class="entity" data-entity="Process" data-source-line="5" data-uid="ent0003" id="entity_Process"><rect fill="#F1F1F1" height="29.0679" rx="2.5" ry="2.5" style="stroke:#181818;stroke-width:0.5;" width="56.7498" x="461.63" y="44.602"/><text fill="#000000" font-family="sans-serif" font-size="14" lengthAdjust="spacing" textLength="50.7498" x="464.63" y="64.5679">Process</text></g><!--class LegalBasis--><g class="entity" data-entity="LegalBasis" data-source-line="6" data-uid="ent0004" id="entity_LegalBasis"><rect fill="#F1F1F1" height="29.0679" rx="2.5" ry="2.5" style="stroke:#181818;stroke-width:0.5;" width="75.2857" x="452.36" y="172.662"/><text fill="#000000" font-family="sans-serif" font-size="14" lengthAdjust="spacing" textLength="69.2857" x="455.36" y="192.6279">LegalBasis</text></g><polygon fill="none" points="490.0017,201.7299,497.0001,221.7305,483.0001,221.7293" style="stroke:#181818;stroke-width:1;"/><line style="stroke:#181818;stroke-width:1;" x1="490.0001" x2="490" y1="221.7299" y2="223.202"/><line style="stroke:#181818;stroke-width:1;" x1="490.0017" x2="490" y1="172.662" y2="152.262"/><!--class A9_2_a--><g class="entity" data-entity="A9_2_a" data-source-line="9" data-uid="ent0006" id="entity_A9_2_a"><rect fill="#F1F1F1" height="29.0679" rx="2.5" ry="2.5" style="stroke:#181818;stroke-width:0.5;" width="47.8318" x="94.08" y="398.732"/><text fill="#000000" font-family="sans-serif" font-size="14" lengthAdjust="spacing" textLength="41.8318" x="97.08" y="418.6979">A9-2-a</text></g><!--class A9_2_b--><g class="entity" data-entity="A9_2_b" data-source-line="10" data-uid="ent0009" id="entity_A9_2_b"><rect fill="#F1F1F1" height="29.0679" rx="2.5" ry="2.5" style="stroke:#181818;stroke-width:0.5;" width="48.5878" x="176.71" y="398.732"/><text fill="#000000" font-family="sans-serif" font-size="14" lengthAdjust="spacing" textLength="42.5878" x="179.71" y="418.6979">A9-2-b</text></g><!--class A9_2_c--><g class="entity" data-entity="A9_2_c" data-source-line="11" data-uid="ent0010" id="entity_A9_2_c"><rect fill="#F1F1F1" height="29.0679" rx="2.5" ry="2.5" style="stroke:#181818;stroke-width:0.5;" width="46.6978" x="260.65" y="398.732"/><text fill="#000000" font-family="sans-serif" font-size="14" lengthAdjust="spacing" textLength="40.6978" x="263.65" y="418.6979">A9-2-c</text></g><!--class A9_2_d--><g class="entity" data-entity="A9_2_d" data-source-line="12" data-uid="ent0011" id="entity_A9_2_d"><rect fill="#F1F1F1" height="29.0679" rx="2.5" ry="2.5" style="stroke:#181818;stroke-width:0.5;" width="48.5878" x="342.71" y="398.732"/><text fill="#000000" font-family="sans-serif" font-size="14" lengthAdjust="spacing" textLength="42.5878" x="345.71" y="418.6979">A9-2-d</text></g><!--class A9_2_e--><g class="entity" data-entity="A9_2_e" data-source-line="13" data-uid="ent0012" id="entity_A9_2_e"><rect fill="#F1F1F1" height="29.0679" rx="2.5" ry="2.5" style="stroke:#181818;stroke-width:0.5;" width="47.8738" x="426.06" y="398.732"/><text fill="#000000" font-family="sans-serif" font-size="14" lengthAdjust="spacing" textLength="41.8738" x="429.06" y="418.6979">A9-2-e</text></g><!--class A9_2_f--><g class="entity" data-entity="A9_2_f" data-source-line="14" data-uid="ent0013" id="entity_A9_2_f"><rect fill="#F1F1F1" height="29.0679" rx="2.5" ry="2.5" style="stroke:#181818;stroke-width:0.5;" width="44.7938" x="508.6" y="398.732"/><text fill="#000000" font-family="sans-serif" font-size="14" lengthAdjust="spacing" textLength="38.7938" x="511.6" y="418.6979">A9-2-f</text></g><!--class A9_2_g--><g class="entity" data-entity="A9_2_g" data-source-line="15" data-uid="ent0014" id="entity_A9_2_g"><rect fill="#F1F1F1" height="29.0679" rx="2.5" ry="2.5" style="stroke:#181818;stroke-width:0.5;" width="48.5878" x="588.71" y="398.732"/><text fill="#000000" font-family="sans-serif" font-size="14" lengthAdjust="spacing" textLength="42.5878" x="591.71" y="418.6979">A9-2-g</text></g><!--class A9_2_h--><g class="entity" data-entity="A9_2_h" data-source-line="16" data-uid="ent0015" id="entity_A9_2_h"><rect fill="#F1F1F1" height="29.0679" rx="2.5" ry="2.5" style="stroke:#181818;stroke-width:0.5;" width="48.6298" x="672.69" y="398.732"/><text fill="#000000" font-family="sans-serif" font-size="14" lengthAdjust="spacing" textLength="42.6298" x="675.69" y="418.6979">A9-2-h</text></g><!--class A9_2_i--><g class="entity" data-entity="A9_2_i" data-source-line="17" data-uid="ent0016" id="entity_A9_2_i"><rect fill="#F1F1F1" height="29.0679" rx="2.5" ry="2.5" style="stroke:#181818;stroke-width:0.5;" width="43.5898" x="756.21" y="398.732"/><text fill="#000000" font-family="sans-serif" font-size="14" lengthAdjust="spacing" textLength="37.5898" x="759.21" y="418.6979">A9-2-i</text></g><!--class A9_2_j--><g class="entity" data-entity="A9_2_j" data-source-line="18" data-uid="ent0017" id="entity_A9_2_j"><rect fill="#F1F1F1" height="29.0679" rx="2.5" ry="2.5" style="stroke:#181818;stroke-width:0.5;" width="43.5898" x="835.21" y="398.732"/><text fill="#000000" font-family="sans-serif" font-size="14" lengthAdjust="spacing" textLength="37.5898" x="838.21" y="418.6979">A9-2-j</text></g><!--link Process to LegalBasis--><g class="link" data-entity-1="Process" data-entity-2="LegalBasis" data-source-line="21" data-uid="lnk18" id="link_Process_LegalBasis"><path codeLine="21" d="M490,74.102 C490,92.822 490,126.652 490,152.262" fill="none" id="Process-LegalBasis" style="stroke:#181818;stroke-width:1;"/><polygon fill="#000000" points="495,118.515,497.9389,109.4699,492.0611,109.4699,495,118.515" style="stroke:#000000;stroke-width:1;"/><text fill="#000000" font-family="sans-serif" font-size="13" lengthAdjust="spacing" textLength="85.8911" x="504" y="118.559">hasLegalBasis</text></g><!--reverse link LegalBasis to A9_2_a--><g class="link" data-entity-1="LegalBasis" data-entity-2="A9_2_a" data-source-line="23" data-uid="lnk19" id="link_LegalBasis_A9_2_a"><path codeLine="23" d="M490,223.202 C490,223.202 215.15,212.492 159,260.732 C117.86,296.072 115.91,368.042 117.07,398.332" fill="none" id="LegalBasis-backto-A9_2_a" style="stroke:#181818;stroke-width:1;"/></g><!--reverse link LegalBasis to A9_2_b--><g class="link" data-entity-1="LegalBasis" data-entity-2="A9_2_b" data-source-line="24" data-uid="lnk20" id="link_LegalBasis_A9_2_b"><path codeLine="24" d="M490,223.202 C490,223.202 284.53,223.892 243,260.732 C202.36,296.782 199.52,368.352 200.27,398.442" fill="none" id="LegalBasis-backto-A9_2_b" style="stroke:#181818;stroke-width:1;"/></g><!--reverse link LegalBasis to A9_2_c--><g class="link" data-entity-1="LegalBasis" data-entity-2="A9_2_c" data-source-line="25" data-uid="lnk21" id="link_LegalBasis_A9_2_c"><path codeLine="25" d="M490,223.202 C490,223.202 352.12,234.692 325,260.732 C285.88,298.302 282.8,369.032 283.37,398.662" fill="none" id="LegalBasis-backto-A9_2_c" style="stroke:#181818;stroke-width:1;"/></g><!--reverse link LegalBasis to A9_2_d--><g class="link" data-entity-1="LegalBasis" data-entity-2="A9_2_d" data-source-line="26" data-uid="lnk22" id="link_LegalBasis_A9_2_d"><path codeLine="26" d="M490,223.202 C490,223.202 434.67,230.482 409,260.732 C374.2,301.742 368.09,369.372 367.12,398.362" fill="none" id="LegalBasis-backto-A9_2_d" style="stroke:#181818;stroke-width:1;"/></g><!--reverse link LegalBasis to A9_2_e--><g class="link" data-entity-1="LegalBasis" data-entity-2="A9_2_e" data-source-line="27" data-uid="lnk23" id="link_LegalBasis_A9_2_e"><path codeLine="27" d="M490,223.202 C490,223.202 462.18,354.702 452.94,398.362" fill="none" id="LegalBasis-backto-A9_2_e" style="stroke:#181818;stroke-width:1;"/></g><!--reverse link LegalBasis to A9_2_f--><g class="link" data-entity-1="LegalBasis" data-entity-2="A9_2_f" data-source-line="28" data-uid="lnk24" id="link_LegalBasis_A9_2_f"><path codeLine="28" d="M490,223.202 C490,223.202 518.52,354.702 527.99,398.362" fill="none" id="LegalBasis-backto-A9_2_f" style="stroke:#181818;stroke-width:1;"/></g><!--reverse link LegalBasis to A9_2_g--><g class="link" data-entity-1="LegalBasis" data-entity-2="A9_2_g" data-source-line="29" data-uid="lnk25" id="link_LegalBasis_A9_2_g"><path codeLine="29" d="M490,223.202 C490,223.202 545.33,230.482 571,260.732 C605.8,301.742 611.91,369.372 612.88,398.362" fill="none" id="LegalBasis-backto-A9_2_g" style="stroke:#181818;stroke-width:1;"/></g><!--reverse link LegalBasis to A9_2_h--><g class="link" data-entity-1="LegalBasis" data-entity-2="A9_2_h" data-source-line="30" data-uid="lnk26" id="link_LegalBasis_A9_2_h"><path codeLine="30" d="M490,223.202 C490,223.202 627.8,234.772 655,260.732 C694.3,298.242 697.88,369.002 697.53,398.652" fill="none" id="LegalBasis-backto-A9_2_h" style="stroke:#181818;stroke-width:1;"/></g><!--reverse link LegalBasis to A9_2_i--><g class="link" data-entity-1="LegalBasis" data-entity-2="A9_2_i" data-source-line="31" data-uid="lnk27" id="link_LegalBasis_A9_2_i"><path codeLine="31" d="M490,223.202 C490,223.202 697.46,223.242 739,260.732 C779.13,296.952 780.44,368.432 779.03,398.462" fill="none" id="LegalBasis-backto-A9_2_i" style="stroke:#181818;stroke-width:1;"/></g><!--reverse link LegalBasis to A9_2_j--><g class="link" data-entity-1="LegalBasis" data-entity-2="A9_2_j" data-source-line="32" data-uid="lnk28" id="link_LegalBasis_A9_2_j"><path codeLine="32" d="M490,223.202 C490,223.202 761.7,212.862 817,260.732 C857.94,296.172 859.4,368.082 858.02,398.342" fill="none" id="LegalBasis-backto-A9_2_j" style="stroke:#181818;stroke-width:1;"/></g><!--SRC=[RT2nQiCm4CRnkNgAYtTxy9OG2kbMw90t26VfBCbH5A6p2w7DkpSbBMU1nll_fENR-AZ3OWXulWNgKi0uBvUW-EpZ4JDUmERhajwZe-ndZ9gWLogXFgCbCEaJljIB3iWCntpLnFn_Vf35y8RiMTtN7xhm2nqjdJKfo_V3zjIV492XEMpRliMca45aA4MBw5ACY2c5HAYKKMGinOhOKfo8AyMB-58caQbvBAJ-veEsNKst0uSi9xmgjRhstu_7pztgUQXdNS-cdgcUntgszUpgsTVpf7u0]--></g></svg>