<svg xmlns="http://www.w3.org/2000/svg" xmlns:xlink="http://www.w3.org/1999/xlink" contentStyleType="text/css" data-diagram-type="CLASS" height="97px" preserveAspectRatio="none" style="width:310px;height:97px;background:#FFFFFF;" version="1.1" viewBox="0 0 310 97" width="310px" zoomAndPan="magnify"><defs/><g><!--cluster dpv--><g class="cluster" data-entity="dpv" data-source-line="5" data-uid="ent0003" id="cluster_dpv"><path d="M198.81,6.602 L225.4999,6.602 A3.75,3.75 0 0 1 227.9999,9.102 L234.9999,31.6699 L301.1,31.6699 A2.5,2.5 0 0 1 303.6,34.1699 L303.6,88.102 A2.5,2.5 0 0 1 301.1,90.602 L198.81,90.602 A2.5,2.5 0 0 1 196.31,88.102 L196.31,9.102 A2.5,2.5 0 0 1 198.81,6.602" fill="none" style="stroke:#000000;stroke-width:1.5;"/><line style="stroke:#000000;stroke-width:1.5;" x1="196.31" x2="234.9999" y1="31.6699" y2="31.6699"/><text fill="#000000" font-family="sans-serif" font-size="14" font-weight="bold" lengthAdjust="spacing" textLength="25.6899" x="200.31" y="23.5679">dpv</text></g><!--class LegalBasis--><g class="entity" data-entity="LegalBasis" data-source-line="6" data-uid="ent0004" id="entity_LegalBasis"><rect fill="#F1F1F1" height="29.0679" rx="2.5" ry="2.5" style="stroke:#181818;stroke-width:0.5;" width="75.2857" x="212.31" y="45.072"/><text fill="#000000" font-family="sans-serif" font-size="14" lengthAdjust="spacing" textLength="69.2857" x="215.31" y="65.0379">LegalBasis</text></g><!--class Thing--><g class="entity" data-entity="Thing" data-source-line="4" data-uid="ent0002" id="entity_Thing"><rect fill="#C0C0C0" height="29.0679" rx="2.5" ry="2.5" style="stroke:#181818;stroke-width:0.5;" width="43.3098" x="7" y="45.072"/><text fill="#000000" font-family="sans-serif" font-size="14" lengthAdjust="spacing" textLength="37.3098" x="10" y="65.0379">Thing</text></g><!--link Thing to LegalBasis--><g class="link" data-entity-1="Thing" data-entity-2="LegalBasis" data-source-line="8" data-uid="lnk5" id="link_Thing_LegalBasis"><path codeLine="8" d="M50.68,59.602 C87.88,59.602 165.73,59.602 212.04,59.602" fill="none" id="Thing-LegalBasis" style="stroke:#181818;stroke-width:1;"/><polygon fill="#000000" points="90.31,50.455,81.2649,47.5161,81.2649,53.3939,90.31,50.455" style="stroke:#000000;stroke-width:1;"/><text fill="#000000" font-family="sans-serif" font-size="13" lengthAdjust="spacing" textLength="85.8911" x="94.31" y="55.499">hasLegalBasis</text></g><!--SRC=[JSen3i8m34RX6P_YHypb00mCp8nSm4fCOc7IA7Oh8SJT6Jh0-9w-lRPaInPul4oEtRZ5yZGokGTYnj1I0rc7fD2v4ILZTzogjeA3gwqog7DwS17alk9DkurSfR1TsDNfGvkVfhzxGcN_9Sxq1G00]--></g></svg>