<svg xmlns="http://www.w3.org/2000/svg" xmlns:xlink="http://www.w3.org/1999/xlink" contentStyleType="text/css" data-diagram-type="CLASS" height="121px" preserveAspectRatio="none" style="width:465px;height:121px;background:#FFFFFF;" version="1.1" viewBox="0 0 465 121" width="465px" zoomAndPan="magnify"><defs/><g><!--cluster dpv--><g class="cluster" data-entity="dpv" data-source-line="5" data-uid="ent0003" id="cluster_dpv"><path d="M185.81,6.602 L212.4999,6.602 A3.75,3.75 0 0 1 214.9999,9.102 L221.9999,31.6699 L456,31.6699 A2.5,2.5 0 0 1 458.5,34.1699 L458.5,112.102 A2.5,2.5 0 0 1 456,114.602 L185.81,114.602 A2.5,2.5 0 0 1 183.31,112.102 L183.31,9.102 A2.5,2.5 0 0 1 185.81,6.602" fill="none" style="stroke:#000000;stroke-width:1.5;"/><line style="stroke:#000000;stroke-width:1.5;" x1="183.31" x2="221.9999" y1="31.6699" y2="31.6699"/><text fill="#000000" font-family="sans-serif" font-size="14" font-weight="bold" lengthAdjust="spacing" textLength="25.6899" x="187.31" y="23.5679">dpv</text></g><!--class Purpose--><g class="entity" data-entity="Purpose" data-source-line="6" data-uid="ent0004" id="entity_Purpose"><rect fill="#F1F1F1" height="29.0679" rx="2.5" ry="2.5" style="stroke:#181818;stroke-width:0.5;" width="60.5858" x="199.31" y="49.072"/><text fill="#000000" font-family="sans-serif" font-size="14" lengthAdjust="spacing" textLength="54.5858" x="202.31" y="69.0379">Purpose</text></g><!--class Sector--><g class="entity" data-entity="Sector" data-source-line="7" data-uid="ent0005" id="entity_Sector"><rect fill="#F1F1F1" height="29.0679" rx="2.5" ry="2.5" style="stroke:#181818;stroke-width:0.5;" width="47.6078" x="394.9" y="49.072"/><text fill="#000000" font-family="sans-serif" font-size="14" lengthAdjust="spacing" textLength="41.6078" x="397.9" y="69.0379">Sector</text></g><!--class Thing--><g class="entity" data-entity="Thing" data-source-line="4" data-uid="ent0002" id="entity_Thing"><rect fill="#C0C0C0" height="29.0679" rx="2.5" ry="2.5" style="stroke:#181818;stroke-width:0.5;" width="43.3098" x="7" y="49.072"/><text fill="#000000" font-family="sans-serif" font-size="14" lengthAdjust="spacing" textLength="37.3098" x="10" y="69.0379">Thing</text></g><!--link Thing to Purpose--><g class="link" data-entity-1="Thing" data-entity-2="Purpose" data-source-line="9" data-uid="lnk6" id="link_Thing_Purpose"><path codeLine="9" d="M50.57,63.602 C86.09,63.602 158.28,63.602 198.98,63.602" fill="none" id="Thing-Purpose" style="stroke:#181818;stroke-width:1;"/><polygon fill="#000000" points="90.31,54.455,81.2649,51.5161,81.2649,57.3939,90.31,54.455" style="stroke:#000000;stroke-width:1;"/><text fill="#000000" font-family="sans-serif" font-size="13" lengthAdjust="spacing" textLength="72.2411" x="94.31" y="59.499">hasPurpose</text></g><!--link Purpose to Sector--><g class="link" data-entity-1="Purpose" data-entity-2="Sector" data-source-line="10" data-uid="lnk7" id="link_Purpose_Sector"><path codeLine="10" d="M260.25,63.602 C297.45,63.602 360.46,63.602 394.4,63.602" fill="none" id="Purpose-Sector" style="stroke:#181818;stroke-width:1;"/><polygon fill="#000000" points="299.9,54.455,290.8549,51.5161,290.8549,57.3939,299.9,54.455" style="stroke:#000000;stroke-width:1;"/><text fill="#000000" font-family="sans-serif" font-size="13" lengthAdjust="spacing" textLength="60.19" x="303.9" y="59.499">hasSector</text></g><!--SRC=[DOn12W8n34NNvXGHr-C1NCmP1Br0QMCRZ6rfqW4Hx-v0xUvzUEyVENlfWL3jBNIkuhBrbu3Gmz0ADex9C70ZRrmoW1UdYlV4EU99MJPgK9r_kaWOweOVE0pbsbijIdFUzeFIu0iZNPOfu0MJqpbMcBGRend2drVu0G00]--></g></svg>