<svg xmlns="http://www.w3.org/2000/svg" xmlns:xlink="http://www.w3.org/1999/xlink" contentStyleType="text/css" data-diagram-type="CLASS" height="483px" preserveAspectRatio="none" style="width:1728px;height:483px;background:#FFFFFF;" version="1.1" viewBox="0 0 1728 483" width="1728px" zoomAndPan="magnify"><defs/><g><!--cluster dpv--><g class="cluster" data-entity="dpv" data-source-line="6" data-uid="ent0003" id="cluster_dpv"><path d="M1234.5,6.602 L1261.1899,6.602 A3.75,3.75 0 0 1 1263.6899,9.102 L1270.6899,31.6699 L1343.5,31.6699 A2.5,2.5 0 0 1 1346,34.1699 L1346,87.172 A2.5,2.5 0 0 1 1343.5,89.672 L1234.5,89.672 A2.5,2.5 0 0 1 1232,87.172 L1232,9.102 A2.5,2.5 0 0 1 1234.5,6.602" fill="none" style="stroke:#000000;stroke-width:1.5;"/><line style="stroke:#000000;stroke-width:1.5;" x1="1232" x2="1270.6899" y1="31.6699" y2="31.6699"/><text fill="#000000" font-family="sans-serif" font-size="14" font-weight="bold" lengthAdjust="spacing" textLength="25.6899" x="1236" y="23.5679">dpv</text></g><!--cluster tech--><g class="cluster" data-entity="tech" data-source-line="10" data-uid="ent0005" id="cluster_tech"><path d="M1101.5,140.672 L1133.2579,140.672 A3.75,3.75 0 0 1 1135.7579,143.172 L1142.7579,165.7399 L1674.5,165.7399 A2.5,2.5 0 0 1 1677,168.2399 L1677,221.232 A2.5,2.5 0 0 1 1674.5,223.732 L1101.5,223.732 A2.5,2.5 0 0 1 1099,221.232 L1099,143.172 A2.5,2.5 0 0 1 1101.5,140.672" fill="none" style="stroke:#000000;stroke-width:1.5;"/><line style="stroke:#000000;stroke-width:1.5;" x1="1099" x2="1142.7579" y1="165.7399" y2="165.7399"/><text fill="#000000" font-family="sans-serif" font-size="14" font-weight="bold" lengthAdjust="spacing" textLength="30.7579" x="1103" y="157.6379">tech</text></g><!--cluster ai--><g class="cluster" data-entity="ai" data-source-line="17" data-uid="ent0010" id="cluster_ai"><path d="M8.5,6.602 L22.072,6.602 A3.75,3.75 0 0 1 24.572,9.102 L31.572,31.6699 L782.5,31.6699 A2.5,2.5 0 0 1 785,34.1699 L785,474.372 A2.5,2.5 0 0 1 782.5,476.872 L8.5,476.872 A2.5,2.5 0 0 1 6,474.372 L6,9.102 A2.5,2.5 0 0 1 8.5,6.602" fill="none" style="stroke:#000000;stroke-width:1.5;"/><line style="stroke:#000000;stroke-width:1.5;" x1="6" x2="31.572" y1="31.6699" y2="31.6699"/><text fill="#000000" font-family="sans-serif" font-size="14" font-weight="bold" lengthAdjust="spacing" textLength="12.572" x="10" y="23.5679">ai</text></g><!--class Technology--><g class="entity" data-entity="Technology" data-source-line="7" data-uid="ent0004" id="entity_Technology"><rect fill="#F1F1F1" height="29.0679" rx="2.5" ry="2.5" style="stroke:#181818;stroke-width:0.5;" width="82.0057" x="1248" y="44.602"/><text fill="#000000" font-family="sans-serif" font-size="14" lengthAdjust="spacing" textLength="76.0057" x="1251" y="64.5679">Technology</text></g><!--class ProvisionMethod--><g class="entity" data-entity="ProvisionMethod" data-source-line="11" data-uid="ent0006" id="entity_ProvisionMethod"><rect fill="#F1F1F1" height="29.0679" rx="2.5" ry="2.5" style="stroke:#181818;stroke-width:0.5;" width="118.2656" x="1114.87" y="178.672"/><text fill="#000000" font-family="sans-serif" font-size="14" lengthAdjust="spacing" textLength="112.2656" x="1117.87" y="198.6379">ProvisionMethod</text></g><!--class Documentation--><g class="entity" data-entity="Documentation" data-source-line="12" data-uid="ent0007" id="entity_Documentation"><rect fill="#F1F1F1" height="29.0679" rx="2.5" ry="2.5" style="stroke:#181818;stroke-width:0.5;" width="108.3956" x="1267.8" y="178.672"/><text fill="#000000" font-family="sans-serif" font-size="14" lengthAdjust="spacing" textLength="102.3956" x="1270.8" y="198.6379">Documentation</text></g><!--class IntendedUse--><g class="entity" data-entity="IntendedUse" data-source-line="13" data-uid="ent0008" id="entity_IntendedUse"><rect fill="#F1F1F1" height="29.0679" rx="2.5" ry="2.5" style="stroke:#181818;stroke-width:0.5;" width="90.9517" x="1411.52" y="178.672"/><text fill="#000000" font-family="sans-serif" font-size="14" lengthAdjust="spacing" textLength="84.9517" x="1414.52" y="198.6379">IntendedUse</text></g><!--class TechnologyStatus--><g class="entity" data-entity="TechnologyStatus" data-source-line="14" data-uid="ent0009" id="entity_TechnologyStatus"><rect fill="#F1F1F1" height="29.0679" rx="2.5" ry="2.5" style="stroke:#181818;stroke-width:0.5;" width="123.0116" x="1537.49" y="178.672"/><text fill="#000000" font-family="sans-serif" font-size="14" lengthAdjust="spacing" textLength="117.0116" x="1540.49" y="198.6379">TechnologyStatus</text></g><!--class AI--><g class="entity" data-entity="AI" data-source-line="18" data-uid="ent0011" id="entity_AI"><rect fill="#F1F1F1" height="29.0679" rx="2.5" ry="2.5" style="stroke:#181818;stroke-width:0.5;" width="19.692" x="464.15" y="178.672"/><text fill="#000000" font-family="sans-serif" font-size="14" lengthAdjust="spacing" textLength="13.692" x="467.15" y="198.6379">AI</text></g><!--class AISystem--><g class="entity" data-entity="AISystem" data-source-line="19" data-uid="ent0012" id="entity_AISystem"><rect fill="#F1F1F1" height="29.0679" rx="2.5" ry="2.5" style="stroke:#181818;stroke-width:0.5;" width="67.2638" x="440.37" y="44.602"/><text fill="#000000" font-family="sans-serif" font-size="14" lengthAdjust="spacing" textLength="61.2638" x="443.37" y="64.5679">AISystem</text></g><!--class Capability--><g class="entity" data-entity="Capability" data-source-line="20" data-uid="ent0013" id="entity_Capability"><rect fill="#F1F1F1" height="29.0679" rx="2.5" ry="2.5" style="stroke:#181818;stroke-width:0.5;" width="70.8058" x="542.6" y="44.602"/><text fill="#000000" font-family="sans-serif" font-size="14" lengthAdjust="spacing" textLength="64.8058" x="545.6" y="64.5679">Capability</text></g><!--class Measure--><g class="entity" data-entity="Measure" data-source-line="21" data-uid="ent0014" id="entity_Measure"><rect fill="#F1F1F1" height="29.0679" rx="2.5" ry="2.5" style="stroke:#181818;stroke-width:0.5;" width="63.4838" x="25.26" y="341.732"/><text fill="#000000" font-family="sans-serif" font-size="14" lengthAdjust="spacing" textLength="57.4838" x="28.26" y="361.6979">Measure</text></g><!--class Model--><g class="entity" data-entity="Model" data-source-line="22" data-uid="ent0015" id="entity_Model"><rect fill="#F1F1F1" height="29.0679" rx="2.5" ry="2.5" style="stroke:#181818;stroke-width:0.5;" width="47.2858" x="244.36" y="44.602"/><text fill="#000000" font-family="sans-serif" font-size="14" lengthAdjust="spacing" textLength="41.2858" x="247.36" y="64.5679">Model</text></g><!--class GPAIModel--><g class="entity" data-entity="GPAIModel" data-source-line="23" data-uid="ent0016" id="entity_GPAIModel"><rect fill="#F1F1F1" height="29.0679" rx="2.5" ry="2.5" style="stroke:#181818;stroke-width:0.5;" width="79.6397" x="326.18" y="44.602"/><text fill="#000000" font-family="sans-serif" font-size="14" lengthAdjust="spacing" textLength="73.6397" x="329.18" y="64.5679">GPAIModel</text></g><!--class Technique--><g class="entity" data-entity="Technique" data-source-line="24" data-uid="ent0017" id="entity_Technique"><rect fill="#F1F1F1" height="29.0679" rx="2.5" ry="2.5" style="stroke:#181818;stroke-width:0.5;" width="74.4737" x="163.76" y="341.732"/><text fill="#000000" font-family="sans-serif" font-size="14" lengthAdjust="spacing" textLength="68.4737" x="166.76" y="361.6979">Technique</text></g><!--class Data--><g class="entity" data-entity="Data" data-source-line="25" data-uid="ent0018" id="entity_Data"><rect fill="#F1F1F1" height="29.0679" rx="2.5" ry="2.5" style="stroke:#181818;stroke-width:0.5;" width="36.9819" x="336.51" y="341.732"/><text fill="#000000" font-family="sans-serif" font-size="14" lengthAdjust="spacing" textLength="30.9819" x="339.51" y="361.6979">Data</text></g><!--class RiskConcept--><g class="entity" data-entity="RiskConcept" data-source-line="26" data-uid="ent0019" id="entity_RiskConcept"><rect fill="#F1F1F1" height="29.0679" rx="2.5" ry="2.5" style="stroke:#181818;stroke-width:0.5;" width="86.7517" x="430.62" y="341.732"/><text fill="#000000" font-family="sans-serif" font-size="14" lengthAdjust="spacing" textLength="80.7517" x="433.62" y="361.6979">RiskConcept</text></g><!--class LifecycleStage--><g class="entity" data-entity="LifecycleStage" data-source-line="28" data-uid="ent0020" id="entity_LifecycleStage"><rect fill="#F1F1F1" height="29.0679" rx="2.5" ry="2.5" style="stroke:#181818;stroke-width:0.5;" width="98.8476" x="596.58" y="341.732"/><text fill="#000000" font-family="sans-serif" font-size="14" lengthAdjust="spacing" textLength="92.8476" x="599.58" y="361.6979">LifecycleStage</text></g><!--class AIBias--><g class="entity" data-entity="AIBias" data-source-line="29" data-uid="ent0021" id="entity_AIBias"><rect fill="#F1F1F1" height="29.0679" rx="2.5" ry="2.5" style="stroke:#181818;stroke-width:0.5;" width="46.9639" x="425.52" y="431.802"/><text fill="#000000" font-family="sans-serif" font-size="14" lengthAdjust="spacing" textLength="40.9639" x="428.52" y="451.7679">AIBias</text></g><!--class DataRisk--><g class="entity" data-entity="DataRisk" data-source-line="31" data-uid="ent0023" id="entity_DataRisk"><rect fill="#F1F1F1" height="29.0679" rx="2.5" ry="2.5" style="stroke:#181818;stroke-width:0.5;" width="63.4838" x="507.26" y="431.802"/><text fill="#000000" font-family="sans-serif" font-size="14" lengthAdjust="spacing" textLength="57.4838" x="510.26" y="451.7679">DataRisk</text></g><!--class Thing--><g class="entity" data-entity="Thing" data-source-line="4" data-uid="ent0002" id="entity_Thing"><rect fill="#C0C0C0" height="29.0679" rx="2.5" ry="2.5" style="stroke:#181818;stroke-width:0.5;" width="43.3098" x="801.35" y="44.602"/><text fill="#000000" font-family="sans-serif" font-size="14" lengthAdjust="spacing" textLength="37.3098" x="804.35" y="64.5679">Thing</text></g><!--reverse link RiskConcept to AIBias--><g class="link" data-entity-1="RiskConcept" data-entity-2="AIBias" data-source-line="30" data-uid="lnk22" id="link_RiskConcept_AIBias"><path codeLine="30" d="M465.1742,388.3477 C460.5042,404.7977 457.65,414.852 452.96,431.382" fill="none" id="RiskConcept-backto-AIBias" style="stroke:#181818;stroke-width:1;"/><polygon fill="none" points="470.09,371.032,459.4023,386.7091,470.9461,389.9863,470.09,371.032" style="stroke:#181818;stroke-width:1;"/></g><!--reverse link RiskConcept to DataRisk--><g class="link" data-entity-1="RiskConcept" data-entity-2="DataRisk" data-source-line="32" data-uid="lnk24" id="link_RiskConcept_DataRisk"><path codeLine="32" d="M494.8484,385.515 C506.9884,401.965 516.5,414.852 528.7,431.382" fill="none" id="RiskConcept-backto-DataRisk" style="stroke:#181818;stroke-width:1;"/><polygon fill="none" points="484.16,371.032,490.0207,389.0778,499.6761,381.9522,484.16,371.032" style="stroke:#181818;stroke-width:1;"/></g><!--link AI to RiskConcept--><g class="link" data-entity-1="AI" data-entity-2="RiskConcept" data-source-line="33" data-uid="lnk25" id="link_AI_RiskConcept"><path codeLine="33" d="M472.84,208.142 C472.15,217.152 471.35,229.122 471,239.732 C469.95,271.722 469.9,279.752 471,311.732 C471.34,321.732 472.13,332.992 472.81,341.562" fill="none" id="AI-RiskConcept" style="stroke:#181818;stroke-width:1;"/><text fill="#000000" font-family="sans-serif" font-size="13" lengthAdjust="spacing" textLength="113.5161" x="480.3785" y="254.629">risk:hasRiskSource</text><text fill="#000000" font-family="sans-serif" font-size="13" lengthAdjust="spacing" textLength="72.2411" x="501.016" y="272.335">dpv:hasRisk</text><text fill="#000000" font-family="sans-serif" font-size="13" lengthAdjust="spacing" textLength="130.2731" x="472" y="290.041">dpv:hasConsequence</text><polygon fill="#000000" points="490.4279,307.703,493.3689,298.6586,487.491,298.6573,490.4279,307.703" style="stroke:#000000;stroke-width:1;"/><text fill="#000000" font-family="sans-serif" font-size="13" lengthAdjust="spacing" textLength="90.4151" x="498.429" y="307.747">dpv:hasImpact</text></g><!--link AI to Data--><g class="link" data-entity-1="AI" data-entity-2="Data" data-source-line="34" data-uid="lnk26" id="link_AI_Data"><path codeLine="34" d="M463.74,196.342 C444.75,200.852 404.12,213.202 383,239.732 C358.84,270.092 355.06,318.172 354.76,341.572" fill="none" id="AI-Data" style="stroke:#181818;stroke-width:1;"/><polygon fill="#000000" points="384.999,280.0842,392.7786,274.6135,388.0772,271.0856,384.999,280.0842" style="stroke:#000000;stroke-width:1;"/><text fill="#000000" font-family="sans-serif" font-size="13" lengthAdjust="spacing" textLength="64.454" x="397" y="281.129">ai:hasData</text></g><!--link AI to LifecycleStage--><g class="link" data-entity-1="AI" data-entity-2="LifecycleStage" data-source-line="35" data-uid="lnk27" id="link_AI_LifecycleStage"><path codeLine="35" d="M484.25,194.732 C508.9,196.572 572.04,204.632 607,239.732 C635.23,268.092 643.03,317.552 645.19,341.502" fill="none" id="AI-LifecycleStage" style="stroke:#181818;stroke-width:1;"/><text fill="#000000" font-family="sans-serif" font-size="13" lengthAdjust="spacing" textLength="121.9011" x="641.22" y="281.129">ai:hasLifecycleStage</text></g><!--link Thing to AI--><g class="link" data-entity-1="Thing" data-entity-2="AI" data-source-line="38" data-uid="lnk28" id="link_Thing_AI"><path codeLine="38" d="M812.03,74.072 C805.07,82.052 795.44,91.632 785,97.672 C773.42,104.362 768.84,101.932 756,105.672 C649.31,136.752 520.87,177.312 484.21,188.952" fill="none" id="Thing-AI" style="stroke:#181818;stroke-width:1;"/><polygon fill="#000000" points="756.2814,117.1786,765.7894,116.9608,763.8455,111.4137,756.2814,117.1786" style="stroke:#000000;stroke-width:1;"/><text fill="#000000" font-family="sans-serif" font-size="13" lengthAdjust="spacing" textLength="224.1332" x="770" y="120.569">dpv:isImplementedUsingTechnology</text></g><!--reverse link Technology to AI--><g class="link" data-entity-1="Technology" data-entity-2="AI" data-source-line="39" data-uid="lnk29" id="link_Technology_AI"><path codeLine="39" d="M1229.9801,73.9487 C1161.8201,89.8387 1046.5,116.342 999,124.672 C792.62,160.832 537.42,186.152 484.06,191.252" fill="none" id="Technology-backto-AI" style="stroke:#181818;stroke-width:1;"/><polygon fill="none" points="1247.51,69.862,1228.6178,68.1054,1231.3423,79.792,1247.51,69.862" style="stroke:#181818;stroke-width:1;"/></g><!--link Technology to ProvisionMethod--><g class="link" data-entity-1="Technology" data-entity-2="ProvisionMethod" data-source-line="40" data-uid="lnk30" id="link_Technology_ProvisionMethod"><path codeLine="40" d="M1247.57,64.562 C1199.1,70.702 1123.24,83.612 1106,105.672 C1085.88,131.412 1122.98,161.372 1149.83,178.432" fill="none" id="Technology-ProvisionMethod" style="stroke:#181818;stroke-width:1;"/><polygon fill="#000000" points="1107.7434,119.319,1115.8647,114.3697,1111.4046,110.5414,1107.7434,119.319" style="stroke:#000000;stroke-width:1;"/><text fill="#000000" font-family="sans-serif" font-size="13" lengthAdjust="spacing" textLength="155.5842" x="1120" y="120.569">tech:hasProvisionMethod</text></g><!--link Technology to Documentation--><g class="link" data-entity-1="Technology" data-entity-2="Documentation" data-source-line="41" data-uid="lnk31" id="link_Technology_Documentation"><path codeLine="41" d="M1286.09,73.962 C1283.83,87.182 1281.73,107.582 1286,124.672 C1290.99,144.652 1303.14,165.192 1311.94,178.292" fill="none" id="Technology-Documentation" style="stroke:#181818;stroke-width:1;"/><polygon fill="#000000" points="1292.2025,120.3782,1292.8798,110.8918,1287.1745,112.3054,1292.2025,120.3782" style="stroke:#000000;stroke-width:1;"/><text fill="#000000" font-family="sans-serif" font-size="13" lengthAdjust="spacing" textLength="146.4191" x="1300" y="120.569">tech:hasDocumentation</text></g><!--link Technology to IntendedUse--><g class="link" data-entity-1="Technology" data-entity-2="IntendedUse" data-source-line="42" data-uid="lnk32" id="link_Technology_IntendedUse"><path codeLine="42" d="M1330.48,66.282 C1373.27,73.542 1435.83,87.032 1451,105.672 C1467.82,126.342 1464.25,159.792 1460.44,178.472" fill="none" id="Technology-IntendedUse" style="stroke:#181818;stroke-width:1;"/><polygon fill="#000000" points="1469.1348,118.7923,1464.2085,110.657,1460.3676,115.1063,1469.1348,118.7923" style="stroke:#000000;stroke-width:1;"/><text fill="#000000" font-family="sans-serif" font-size="13" lengthAdjust="spacing" textLength="130.2211" x="1474.35" y="120.569">tech:hasIntendedUse</text></g><!--link Technology to TechnologyStatus--><g class="link" data-entity-1="Technology" data-entity-2="TechnologyStatus" data-source-line="43" data-uid="lnk33" id="link_Technology_TechnologyStatus"><path codeLine="43" d="M1330.45,59.532 C1409.42,59.382 1576.85,64.082 1613,105.672 C1630.67,126.002 1617.21,159.582 1607.23,178.372" fill="none" id="Technology-TechnologyStatus" style="stroke:#181818;stroke-width:1;"/><polygon fill="#000000" points="1630.6744,117.4977,1623.5226,111.2285,1621.2035,116.6296,1630.6744,117.4977" style="stroke:#000000;stroke-width:1;"/><text fill="#000000" font-family="sans-serif" font-size="13" lengthAdjust="spacing" textLength="85.7091" x="1635.08" y="120.569">dpv:hasStatus</text></g><!--link Capability to AI--><g class="link" data-entity-1="Capability" data-entity-2="AI" data-source-line="44" data-uid="lnk35" id="link_Capability_AI"><path codeLine="44" d="M567.26,73.772 C547.13,99.342 503.95,154.172 484.22,179.222" fill="none" id="Capability-AI" style="stroke:#181818;stroke-width:1;"/><polygon fill="#000000" points="549.4834,111.5968,541.5784,116.8847,546.1963,120.5212,549.4834,111.5968" style="stroke:#000000;stroke-width:1;"/><text fill="#000000" font-family="sans-serif" font-size="13" lengthAdjust="spacing" textLength="95.8621" x="555.39" y="120.569">ai:hasCapability</text></g><!--link AI to Measure--><g class="link" data-entity-1="AI" data-entity-2="Measure" data-source-line="45" data-uid="lnk36" id="link_AI_Measure"><path codeLine="45" d="M463.71,193.952 C408.69,192.852 149.44,190.362 91,239.732 C60.65,265.372 56.62,316.592 56.56,341.302" fill="none" id="AI-Measure" style="stroke:#181818;stroke-width:1;"/><polygon fill="#000000" points="91.2984,277.7865,100.8038,277.4719,98.8035,271.9449,91.2984,277.7865" style="stroke:#000000;stroke-width:1;"/><text fill="#000000" font-family="sans-serif" font-size="13" lengthAdjust="spacing" textLength="89.0631" x="105" y="281.129">ai:hasMeasure</text></g><!--link Model to AI--><g class="link" data-entity-1="Model" data-entity-2="AI" data-source-line="46" data-uid="lnk38" id="link_Model_AI"><path codeLine="46" d="M281.75,74.152 C289.41,81.582 299.34,90.612 309,97.672 C363.92,137.782 421.092,166.7226 447.652,179.5526" fill="none" id="Model-to-AI" style="stroke:#181818;stroke-width:1;"/><polygon fill="none" points="463.86,187.382,450.2618,174.1499,445.0422,184.9553,463.86,187.382" style="stroke:#181818;stroke-width:1;"/></g><!--link AISystem to AI--><g class="link" data-entity-1="AISystem" data-entity-2="AI" data-source-line="47" data-uid="lnk40" id="link_AISystem_AI"><path codeLine="47" d="M474,73.772 C474,99.082 474,135.042 474,160.442" fill="none" id="AISystem-to-AI" style="stroke:#181818;stroke-width:1;"/><polygon fill="none" points="474,178.442,480,160.442,468,160.442,474,178.442" style="stroke:#181818;stroke-width:1;"/></g><!--reverse link Model to GPAIModel--><g class="link" data-entity-1="Model" data-entity-2="GPAIModel" data-source-line="48" data-uid="lnk41" id="link_Model_GPAIModel"><path codeLine="48" d="M310.12,59.132 C321.37,59.132 314.63,59.132 325.88,59.132" fill="none" id="Model-backto-GPAIModel" style="stroke:#181818;stroke-width:1;"/><polygon fill="none" points="292.12,59.132,310.12,65.132,310.12,53.132,292.12,59.132" style="stroke:#181818;stroke-width:1;"/></g><!--link AI to Technique--><g class="link" data-entity-1="AI" data-entity-2="Technique" data-source-line="49" data-uid="lnk42" id="link_AI_Technique"><path codeLine="49" d="M463.76,194.762 C422.57,197.232 269.58,208.392 235,239.732 C205.57,266.422 201.1,317.132 200.75,341.512" fill="none" id="AI-Technique" style="stroke:#181818;stroke-width:1;"/><polygon fill="#000000" points="235.6337,278.5212,244.9644,276.6805,242.1004,271.5476,235.6337,278.5212" style="stroke:#000000;stroke-width:1;"/><text fill="#000000" font-family="sans-serif" font-size="13" lengthAdjust="spacing" textLength="99.2681" x="249" y="281.129">ai:hasTechnique</text></g><!--SRC=[VLH1JiCm4Bpx5KOSE8K7L2XIQIKKYKeLXHiNusmJguuTOgTI1FoTjPicwmZHsyxCxcJjSM-KaRelWJi_QBXljJ2-RpIxqt3qt5lUgQhsl5GTIA-iOKnguHn_hPMf-ArJ-WmTOwsG9r41Bzip_s8SVwCCP6sijjN0VcQLHpIHxJjxLWx7xy3NjYJCrig-0UD5D9_nmdWm9PHl3lwqEs17xwYfK8dbkaYAm-0yD0JQY5PyAAtyGC0T2DTtr75dIz2aVjglYoKMlqfzzhHlAxmWvOjofuqr4bh_hzspEe8Sf0RShu9aWqSbN0J8BFxmdMMKcys3wczvmguBZX3Lh30IxhIgXGlemVQTX7U35t-5fW8x7E3QXWYA1k_3yvmC3tuuLQZ0nuAowSQJRd4GUC-NHCPrKHNiL73J4E8JWeBqd0_q8CLuJ1H2O95Ad1g26zoNJBxeJ59B-b9ysKKoJNeekknOvdrS7Bl6EcVX5Fis8tcUpf105rrsJTmakTQHnrCAaoxndklfyKGYeF4_8oDluJ9yUWVJ-1d9sIy0]--></g></svg>