<svg xmlns="http://www.w3.org/2000/svg" xmlns:xlink="http://www.w3.org/1999/xlink" contentStyleType="text/css" data-diagram-type="CLASS" height="1107px" preserveAspectRatio="none" style="width:1334px;height:1107px;background:#FFFFFF;" version="1.1" viewBox="0 0 1334 1107" width="1334px" zoomAndPan="magnify"><defs/><g><!--cluster dpv--><g class="cluster" data-entity="dpv" data-source-line="5" data-uid="ent0003" id="cluster_dpv"><path d="M245.81,6.602 L272.4999,6.602 A3.75,3.75 0 0 1 274.9999,9.102 L281.9999,31.6699 L1324.62,31.6699 A2.5,2.5 0 0 1 1327.12,34.1699 L1327.12,1098.102 A2.5,2.5 0 0 1 1324.62,1100.602 L245.81,1100.602 A2.5,2.5 0 0 1 243.31,1098.102 L243.31,9.102 A2.5,2.5 0 0 1 245.81,6.602" fill="none" style="stroke:#000000;stroke-width:1.5;"/><line style="stroke:#000000;stroke-width:1.5;" x1="243.31" x2="281.9999" y1="31.6699" y2="31.6699"/><text fill="#000000" font-family="sans-serif" font-size="14" font-weight="bold" lengthAdjust="spacing" textLength="25.6899" x="247.31" y="23.5679">dpv</text></g><!--cluster Automation--><g class="cluster" data-entity="Automation" data-source-line="6" data-uid="ent0004" id="cluster_Automation"><rect fill="none" height="468" rx="2.5" ry="2.5" style="stroke:#181818;stroke-width:1;stroke-dasharray:7,7;" width="530.95" x="271.25" y="52.602"/><text fill="#000000" font-family="sans-serif" font-size="14" font-weight="bold" lengthAdjust="spacing" textLength="83.7617" x="494.8442" y="69.5679">Automation</text></g><!--cluster Human--><g class="cluster" data-entity="Human" data-source-line="16" data-uid="ent0013" id="cluster_Human"><rect fill="none" height="532" rx="2.5" ry="2.5" style="stroke:#181818;stroke-width:1;stroke-dasharray:7,7;" width="1035.81" x="267.31" y="544.602"/><text fill="#000000" font-family="sans-serif" font-size="14" font-weight="bold" lengthAdjust="spacing" textLength="50.9458" x="759.7421" y="561.5679">Human</text></g><!--class AutomationLevel--><g class="entity" data-entity="AutomationLevel" data-source-line="7" data-uid="ent0005" id="entity_AutomationLevel"><rect fill="#F1F1F1" height="29.0679" rx="2.5" ry="2.5" style="stroke:#181818;stroke-width:0.5;" width="117.7056" x="287.25" y="316.072"/><text fill="#000000" font-family="sans-serif" font-size="14" lengthAdjust="spacing" textLength="111.7056" x="290.25" y="336.0379">AutomationLevel</text></g><!--class AssistiveAutomation--><g class="entity" data-entity="AssistiveAutomation" data-source-line="8" data-uid="ent0006" id="entity_AssistiveAutomation"><rect fill="#F1F1F1" height="29.0679" rx="2.5" ry="2.5" style="stroke:#181818;stroke-width:0.5;" width="140.2035" x="636.45" y="475.072"/><text fill="#000000" font-family="sans-serif" font-size="14" lengthAdjust="spacing" textLength="134.2035" x="639.45" y="495.0379">AssistiveAutomation</text></g><!--class Autonomous--><g class="entity" data-entity="Autonomous" data-source-line="9" data-uid="ent0007" id="entity_Autonomous"><rect fill="#F1F1F1" height="29.0679" rx="2.5" ry="2.5" style="stroke:#181818;stroke-width:0.5;" width="91.1617" x="660.97" y="411.072"/><text fill="#000000" font-family="sans-serif" font-size="14" lengthAdjust="spacing" textLength="85.1617" x="663.97" y="431.0379">Autonomous</text></g><!--class ConditionalAutomation--><g class="entity" data-entity="ConditionalAutomation" data-source-line="10" data-uid="ent0008" id="entity_ConditionalAutomation"><rect fill="#F1F1F1" height="29.0679" rx="2.5" ry="2.5" style="stroke:#181818;stroke-width:0.5;" width="159.2994" x="626.9" y="347.072"/><text fill="#000000" font-family="sans-serif" font-size="14" lengthAdjust="spacing" textLength="153.2994" x="629.9" y="367.0379">ConditionalAutomation</text></g><!--class FullAutomation--><g class="entity" data-entity="FullAutomation" data-source-line="11" data-uid="ent0009" id="entity_FullAutomation"><rect fill="#F1F1F1" height="29.0679" rx="2.5" ry="2.5" style="stroke:#181818;stroke-width:0.5;" width="106.9956" x="653.05" y="283.072"/><text fill="#000000" font-family="sans-serif" font-size="14" lengthAdjust="spacing" textLength="100.9956" x="656.05" y="303.0379">FullAutomation</text></g><!--class HighAutomation--><g class="entity" data-entity="HighAutomation" data-source-line="12" data-uid="ent0010" id="entity_HighAutomation"><rect fill="#F1F1F1" height="29.0679" rx="2.5" ry="2.5" style="stroke:#181818;stroke-width:0.5;" width="115.1016" x="649" y="219.072"/><text fill="#000000" font-family="sans-serif" font-size="14" lengthAdjust="spacing" textLength="109.1016" x="652" y="239.0379">HighAutomation</text></g><!--class NotAutomated--><g class="entity" data-entity="NotAutomated" data-source-line="13" data-uid="ent0011" id="entity_NotAutomated"><rect fill="#F1F1F1" height="29.0679" rx="2.5" ry="2.5" style="stroke:#181818;stroke-width:0.5;" width="103.7896" x="654.65" y="155.072"/><text fill="#000000" font-family="sans-serif" font-size="14" lengthAdjust="spacing" textLength="97.7896" x="657.65" y="175.0379">NotAutomated</text></g><!--class PartialAutomation--><g class="entity" data-entity="PartialAutomation" data-source-line="14" data-uid="ent0012" id="entity_PartialAutomation"><rect fill="#F1F1F1" height="29.0679" rx="2.5" ry="2.5" style="stroke:#181818;stroke-width:0.5;" width="126.0916" x="643.5" y="91.072"/><text fill="#000000" font-family="sans-serif" font-size="14" lengthAdjust="spacing" textLength="120.0916" x="646.5" y="111.0379">PartialAutomation</text></g><!--class EntityInvolvement--><g class="entity" data-entity="EntityInvolvement" data-source-line="17" data-uid="ent0014" id="entity_EntityInvolvement"><rect fill="#F1F1F1" height="29.0679" rx="2.5" ry="2.5" style="stroke:#181818;stroke-width:0.5;" width="125.5875" x="283.31" y="707.072"/><text fill="#000000" font-family="sans-serif" font-size="14" lengthAdjust="spacing" textLength="119.5875" x="286.31" y="727.0379">EntityInvolvement</text></g><!--class HumanInvolvement--><g class="entity" data-entity="HumanInvolvement" data-source-line="18" data-uid="ent0015" id="entity_HumanInvolvement"><rect fill="#F1F1F1" height="29.0679" rx="2.5" ry="2.5" style="stroke:#181818;stroke-width:0.5;" width="136.9135" x="849.2" y="775.072"/><text fill="#000000" font-family="sans-serif" font-size="14" lengthAdjust="spacing" textLength="130.9135" x="852.2" y="795.0379">HumanInvolvement</text></g><!--class HumanInvolved--><g class="entity" data-entity="HumanInvolved" data-source-line="19" data-uid="ent0016" id="entity_HumanInvolved"><rect fill="#F1F1F1" height="29.0679" rx="2.5" ry="2.5" style="stroke:#181818;stroke-width:0.5;" width="110.8316" x="1111.7" y="1031.072"/><text fill="#000000" font-family="sans-serif" font-size="14" lengthAdjust="spacing" textLength="104.8316" x="1114.7" y="1051.0379">HumanInvolved</text></g><!--class HumanInvolvementForControl--><g class="entity" data-entity="HumanInvolvementForControl" data-source-line="20" data-uid="ent0017" id="entity_HumanInvolvementForControl"><rect fill="#F1F1F1" height="29.0679" rx="2.5" ry="2.5" style="stroke:#181818;stroke-width:0.5;" width="207.3192" x="1063.46" y="967.072"/><text fill="#000000" font-family="sans-serif" font-size="14" lengthAdjust="spacing" textLength="201.3192" x="1066.46" y="987.0379">HumanInvolvementForControl</text></g><!--class HumanInvolvementForIntervention--><g class="entity" data-entity="HumanInvolvementForIntervention" data-source-line="21" data-uid="ent0018" id="entity_HumanInvolvementForIntervention"><rect fill="#F1F1F1" height="29.0679" rx="2.5" ry="2.5" style="stroke:#181818;stroke-width:0.5;" width="240.0091" x="1047.11" y="903.072"/><text fill="#000000" font-family="sans-serif" font-size="14" lengthAdjust="spacing" textLength="234.0091" x="1050.11" y="923.0379">HumanInvolvementForIntervention</text></g><!--class HumanInvolvementForDecision--><g class="entity" data-entity="HumanInvolvementForDecision" data-source-line="22" data-uid="ent0019" id="entity_HumanInvolvementForDecision"><rect fill="#F1F1F1" height="29.0679" rx="2.5" ry="2.5" style="stroke:#181818;stroke-width:0.5;" width="214.3192" x="1059.96" y="839.072"/><text fill="#000000" font-family="sans-serif" font-size="14" lengthAdjust="spacing" textLength="208.3192" x="1062.96" y="859.0379">HumanInvolvementForDecision</text></g><!--class HumanInvolvementForInput--><g class="entity" data-entity="HumanInvolvementForInput" data-source-line="23" data-uid="ent0020" id="entity_HumanInvolvementForInput"><rect fill="#F1F1F1" height="29.0679" rx="2.5" ry="2.5" style="stroke:#181818;stroke-width:0.5;" width="194.1453" x="1070.04" y="775.072"/><text fill="#000000" font-family="sans-serif" font-size="14" lengthAdjust="spacing" textLength="188.1453" x="1073.04" y="795.0379">HumanInvolvementForInput</text></g><!--class HumanInvolvementForOversight--><g class="entity" data-entity="HumanInvolvementForOversight" data-source-line="24" data-uid="ent0021" id="entity_HumanInvolvementForOversight"><rect fill="#F1F1F1" height="29.0679" rx="2.5" ry="2.5" style="stroke:#181818;stroke-width:0.5;" width="222.7892" x="1055.72" y="711.072"/><text fill="#000000" font-family="sans-serif" font-size="14" lengthAdjust="spacing" textLength="216.7892" x="1058.72" y="731.0379">HumanInvolvementForOversight</text></g><!--class HumanInvolvementForVerification--><g class="entity" data-entity="HumanInvolvementForVerification" data-source-line="25" data-uid="ent0022" id="entity_HumanInvolvementForVerification"><rect fill="#F1F1F1" height="29.0679" rx="2.5" ry="2.5" style="stroke:#181818;stroke-width:0.5;" width="232.9111" x="1050.66" y="647.072"/><text fill="#000000" font-family="sans-serif" font-size="14" lengthAdjust="spacing" textLength="226.9111" x="1053.66" y="667.0379">HumanInvolvementForVerification</text></g><!--class HumanNotInvolved--><g class="entity" data-entity="HumanNotInvolved" data-source-line="26" data-uid="ent0023" id="entity_HumanNotInvolved"><rect fill="#F1F1F1" height="29.0679" rx="2.5" ry="2.5" style="stroke:#181818;stroke-width:0.5;" width="134.9955" x="1099.62" y="583.072"/><text fill="#000000" font-family="sans-serif" font-size="14" lengthAdjust="spacing" textLength="128.9955" x="1102.62" y="603.0379">HumanNotInvolved</text></g><!--class Thing--><g class="entity" data-entity="Thing" data-source-line="4" data-uid="ent0002" id="entity_Thing"><rect fill="#C0C0C0" height="29.0679" rx="2.5" ry="2.5" style="stroke:#181818;stroke-width:0.5;" width="43.3098" x="7" y="707.072"/><text fill="#000000" font-family="sans-serif" font-size="14" lengthAdjust="spacing" textLength="37.3098" x="10" y="727.0379">Thing</text></g><!--link Thing to AutomationLevel--><g class="link" data-entity-1="Thing" data-entity-2="AutomationLevel" data-source-line="30" data-uid="lnk24" id="link_Thing_AutomationLevel"><path codeLine="30" d="M41.64,706.752 C91.6,644.812 283.12,407.432 333.11,345.472" fill="none" id="Thing-AutomationLevel" style="stroke:#181818;stroke-width:1;"/><polygon fill="#000000" points="91.9495,466.5435,83.9827,471.7379,88.5574,475.4286,91.9495,466.5435" style="stroke:#000000;stroke-width:1;"/><text fill="#000000" font-family="sans-serif" font-size="13" lengthAdjust="spacing" textLength="125.2811" x="97.81" y="475.479">hasAutomationLevel</text></g><!--reverse link AutomationLevel to AssistiveAutomation--><g class="link" data-entity-1="AutomationLevel" data-entity-2="AssistiveAutomation" data-source-line="31" data-uid="lnk25" id="link_AutomationLevel_AssistiveAutomation"><path codeLine="31" d="M374.0892,358.2187 C391.0992,375.1987 408.34,390.042 438.9,406.602 C501.66,440.622 580.45,462.962 636.05,475.812" fill="none" id="AutomationLevel-backto-AssistiveAutomation" style="stroke:#181818;stroke-width:1;"/><polygon fill="none" points="361.35,345.502,369.8503,362.465,378.328,353.9723,361.35,345.502" style="stroke:#181818;stroke-width:1;"/></g><!--reverse link AutomationLevel to Autonomous--><g class="link" data-entity-1="AutomationLevel" data-entity-2="Autonomous" data-source-line="32" data-uid="lnk26" id="link_AutomationLevel_Autonomous"><path codeLine="32" d="M409.844,351.0853 C424.534,355.7553 423.77,355.342 438.9,359.602 C516.25,381.372 607.3,403.072 660.5,415.372" fill="none" id="AutomationLevel-backto-Autonomous" style="stroke:#181818;stroke-width:1;"/><polygon fill="none" points="392.69,345.632,408.0263,356.8033,411.6618,345.3673,392.69,345.632" style="stroke:#181818;stroke-width:1;"/></g><!--reverse link AutomationLevel to ConditionalAutomation--><g class="link" data-entity-1="AutomationLevel" data-entity-2="ConditionalAutomation" data-source-line="33" data-uid="lnk27" id="link_AutomationLevel_ConditionalAutomation"><path codeLine="33" d="M423.0231,337.1726 C483.1631,342.3726 559.64,348.982 626.57,354.772" fill="none" id="AutomationLevel-backto-ConditionalAutomation" style="stroke:#181818;stroke-width:1;"/><polygon fill="none" points="405.09,335.622,422.5062,343.1503,423.54,331.1949,405.09,335.622" style="stroke:#181818;stroke-width:1;"/></g><!--reverse link AutomationLevel to FullAutomation--><g class="link" data-entity-1="AutomationLevel" data-entity-2="FullAutomation" data-source-line="34" data-uid="lnk28" id="link_AutomationLevel_FullAutomation"><path codeLine="34" d="M423.0143,323.6125 C491.4743,317.3125 586.43,308.572 652.61,302.472" fill="none" id="AutomationLevel-backto-FullAutomation" style="stroke:#181818;stroke-width:1;"/><polygon fill="none" points="405.09,325.262,423.5641,329.5873,422.4644,317.6378,405.09,325.262" style="stroke:#181818;stroke-width:1;"/></g><!--reverse link AutomationLevel to HighAutomation--><g class="link" data-entity-1="AutomationLevel" data-entity-2="HighAutomation" data-source-line="35" data-uid="lnk29" id="link_AutomationLevel_HighAutomation"><path codeLine="35" d="M419.3181,310.9143 C431.4781,307.6043 426.94,308.842 438.9,305.602 C511.79,285.832 595.92,263.142 649.87,248.602" fill="none" id="AutomationLevel-backto-HighAutomation" style="stroke:#181818;stroke-width:1;"/><polygon fill="none" points="401.95,315.642,420.8939,316.7037,417.7422,305.125,401.95,315.642" style="stroke:#181818;stroke-width:1;"/></g><!--reverse link AutomationLevel to NotAutomated--><g class="link" data-entity-1="AutomationLevel" data-entity-2="NotAutomated" data-source-line="36" data-uid="lnk30" id="link_AutomationLevel_NotAutomated"><path codeLine="36" d="M384.6834,306.0317 C402.9234,294.3117 414.42,287.702 438.9,275.602 C515.04,237.962 608.04,203.442 661.66,184.582" fill="none" id="AutomationLevel-backto-NotAutomated" style="stroke:#181818;stroke-width:1;"/><polygon fill="none" points="369.54,315.762,387.9268,311.0795,381.4399,300.9839,369.54,315.762" style="stroke:#181818;stroke-width:1;"/></g><!--reverse link AutomationLevel to PartialAutomation--><g class="link" data-entity-1="AutomationLevel" data-entity-2="PartialAutomation" data-source-line="37" data-uid="lnk31" id="link_AutomationLevel_PartialAutomation"><path codeLine="37" d="M369.7195,301.4966 C385.9095,281.0366 406.04,258.192 438.9,233.602 C509.81,180.522 606.23,140.862 661.58,120.632" fill="none" id="AutomationLevel-backto-PartialAutomation" style="stroke:#181818;stroke-width:1;"/><polygon fill="none" points="358.55,315.612,374.4246,305.2198,365.0144,297.7735,358.55,315.612" style="stroke:#181818;stroke-width:1;"/></g><!--link Thing to EntityInvolvement--><g class="link" data-entity-1="Thing" data-entity-2="EntityInvolvement" data-source-line="39" data-uid="lnk32" id="link_Thing_EntityInvolvement"><path codeLine="39" d="M50.35,721.602 C96.89,721.602 211.31,721.602 283.12,721.602" fill="none" id="Thing-EntityInvolvement" style="stroke:#181818;stroke-width:1;"/><polygon fill="#000000" points="90.31,712.455,81.2649,709.5161,81.2649,715.3939,90.31,712.455" style="stroke:#000000;stroke-width:1;"/><text fill="#000000" font-family="sans-serif" font-size="13" lengthAdjust="spacing" textLength="132.6001" x="94.31" y="717.499">hasEntityInvolvement</text></g><!--link Thing to HumanInvolvement--><g class="link" data-entity-1="Thing" data-entity-2="HumanInvolvement" data-source-line="40" data-uid="lnk33" id="link_Thing_HumanInvolvement"><path codeLine="40" d="M50.58,725.582 C87.66,732.482 167.38,746.562 235.31,753.602 C459.17,776.792 726.05,785.392 848.78,788.282" fill="none" id="Thing-HumanInvolvement" style="stroke:#181818;stroke-width:1;"/><polygon fill="#000000" points="448.8846,761.8065,440.0975,758.1683,439.6372,764.0281,448.8846,761.8065" style="stroke:#000000;stroke-width:1;"/><text fill="#000000" font-family="sans-serif" font-size="13" lengthAdjust="spacing" textLength="143.1171" x="452.9" y="766.459">hasHumanInvolvement</text></g><!--reverse link EntityInvolvement to HumanInvolvement--><g class="link" data-entity-1="EntityInvolvement" data-entity-2="HumanInvolvement" data-source-line="41" data-uid="lnk34" id="link_EntityInvolvement_HumanInvolvement"><path codeLine="41" d="M427.0237,724.4878 C517.6637,728.3478 673.54,737.892 819.2,763.602 C834.89,766.372 851.74,770.462 866.94,774.572" fill="none" id="EntityInvolvement-backto-HumanInvolvement" style="stroke:#181818;stroke-width:1;"/><polygon fill="none" points="409.04,723.722,426.7684,730.4824,427.279,718.4933,409.04,723.722" style="stroke:#181818;stroke-width:1;"/></g><!--reverse link HumanInvolvement to HumanInvolved--><g class="link" data-entity-1="HumanInvolvement" data-entity-2="HumanInvolved" data-source-line="42" data-uid="lnk35" id="link_HumanInvolvement_HumanInvolved"><path codeLine="42" d="M927.9248,821.817 C939.9148,862.187 973.42,956.832 1047.11,1013.602 C1065.5,1027.772 1089.68,1035.672 1111.43,1040.082" fill="none" id="HumanInvolvement-backto-HumanInvolved" style="stroke:#181818;stroke-width:1;"/><polygon fill="none" points="922.8,804.562,922.1731,823.5253,933.6765,820.1088,922.8,804.562" style="stroke:#181818;stroke-width:1;"/></g><!--reverse link HumanInvolvement to HumanInvolvementForControl--><g class="link" data-entity-1="HumanInvolvement" data-entity-2="HumanInvolvementForControl" data-source-line="43" data-uid="lnk36" id="link_HumanInvolvement_HumanInvolvementForControl"><path codeLine="43" d="M934.8918,820.4261 C952.0518,852.2561 988.05,911.032 1047.11,949.602 C1058.04,956.742 1070.51,962.292 1083.18,966.612" fill="none" id="HumanInvolvement-backto-HumanInvolvementForControl" style="stroke:#181818;stroke-width:1;"/><polygon fill="none" points="926.35,804.582,929.6104,823.2734,940.1732,817.5789,926.35,804.582" style="stroke:#181818;stroke-width:1;"/></g><!--reverse link HumanInvolvement to HumanInvolvementForIntervention--><g class="link" data-entity-1="HumanInvolvement" data-entity-2="HumanInvolvementForIntervention" data-source-line="44" data-uid="lnk37" id="link_HumanInvolvement_HumanInvolvementForIntervention"><path codeLine="44" d="M947.636,816.6772 C970.616,837.7172 1002.28,863.822 1047.11,885.602 C1061.45,892.562 1077.52,898.192 1093.1,902.662" fill="none" id="HumanInvolvement-backto-HumanInvolvementForIntervention" style="stroke:#181818;stroke-width:1;"/><polygon fill="none" points="934.36,804.522,943.5842,821.1025,951.6877,812.2519,934.36,804.522" style="stroke:#181818;stroke-width:1;"/></g><!--reverse link HumanInvolvement to HumanInvolvementForDecision--><g class="link" data-entity-1="HumanInvolvement" data-entity-2="HumanInvolvementForDecision" data-source-line="45" data-uid="lnk38" id="link_HumanInvolvement_HumanInvolvementForDecision"><path codeLine="45" d="M994.097,809.1174 C1033.667,819.3474 1068.45,828.342 1108.03,838.582" fill="none" id="HumanInvolvement-backto-HumanInvolvementForDecision" style="stroke:#181818;stroke-width:1;"/><polygon fill="none" points="976.67,804.612,992.5952,814.9264,995.5988,803.3084,976.67,804.612" style="stroke:#181818;stroke-width:1;"/></g><!--reverse link HumanInvolvement to HumanInvolvementForInput--><g class="link" data-entity-1="HumanInvolvement" data-entity-2="HumanInvolvementForInput" data-source-line="46" data-uid="lnk39" id="link_HumanInvolvement_HumanInvolvementForInput"><path codeLine="46" d="M1004.6,789.602 C1030.21,789.602 1041.86,789.602 1069.59,789.602" fill="none" id="HumanInvolvement-backto-HumanInvolvementForInput" style="stroke:#181818;stroke-width:1;"/><polygon fill="none" points="986.6,789.602,1004.6,795.602,1004.6,783.602,986.6,789.602" style="stroke:#181818;stroke-width:1;"/></g><!--reverse link HumanInvolvement to HumanInvolvementForOversight--><g class="link" data-entity-1="HumanInvolvement" data-entity-2="HumanInvolvementForOversight" data-source-line="47" data-uid="lnk40" id="link_HumanInvolvement_HumanInvolvementForOversight"><path codeLine="47" d="M994.097,770.0866 C1033.667,759.8566 1068.45,750.862 1108.03,740.622" fill="none" id="HumanInvolvement-backto-HumanInvolvementForOversight" style="stroke:#181818;stroke-width:1;"/><polygon fill="none" points="976.67,774.592,995.5988,775.8956,992.5952,764.2776,976.67,774.592" style="stroke:#181818;stroke-width:1;"/></g><!--reverse link HumanInvolvement to HumanInvolvementForVerification--><g class="link" data-entity-1="HumanInvolvement" data-entity-2="HumanInvolvementForVerification" data-source-line="48" data-uid="lnk41" id="link_HumanInvolvement_HumanInvolvementForVerification"><path codeLine="48" d="M947.636,762.5268 C970.616,741.4868 1002.28,715.382 1047.11,693.602 C1061.45,686.642 1077.52,681.012 1093.1,676.542" fill="none" id="HumanInvolvement-backto-HumanInvolvementForVerification" style="stroke:#181818;stroke-width:1;"/><polygon fill="none" points="934.36,774.682,951.6877,766.9521,943.5842,758.1015,934.36,774.682" style="stroke:#181818;stroke-width:1;"/></g><!--reverse link HumanInvolvement to HumanNotInvolved--><g class="link" data-entity-1="HumanInvolvement" data-entity-2="HumanNotInvolved" data-source-line="49" data-uid="lnk42" id="link_HumanInvolvement_HumanNotInvolved"><path codeLine="49" d="M934.8918,758.7778 C952.0518,726.9478 988.05,668.172 1047.11,629.602 C1062.69,619.422 1081.43,612.472 1099.38,607.722" fill="none" id="HumanInvolvement-backto-HumanNotInvolved" style="stroke:#181818;stroke-width:1;"/><polygon fill="none" points="926.35,774.622,940.1732,761.6251,929.6104,755.9305,926.35,774.622" style="stroke:#181818;stroke-width:1;"/></g><!--SRC=[bLFHIiCm57tFLqJsl7s0Z8Aemu6eYFWUchisc2ObkIaCtR-Rq6bjagwrJ-MUSsxJatEkX2gbuq0j7YLiMiaKkaOI2GUagAaHLOsK2mCb2gq8AIMpbhxLGbLqPONim92MbH-i0ihRZduIwf-VoOr3tR2WfDljgz_1L2MXAEXA2WKRpcmD_Am9JxzzK3r21p96hHKMHGS3BQDNkj7EHi2jLbm40PEJufsJq-23jsCIVD9une17q0ipA9AFdaPUFRY6NRQ9Hbll5GeyxbMd_JKqe30-RTYu3EOpqfqstZmqMiuJzmh1TFuzur_AleDIs4NClMeTpjEUVIHjYEqyzHsCE8YIJPtKt-Z8dnCv4T9dVxsEOqglQSriF2n8FDb-1Mqcn7dYaEKidezqbXebEyk90fxbZ7AUPQHn7rnBGjlxbewBGHDVNIz9fWL9juJpf0j8ekt_VjI8UKxKZCM2KKCMgtwRye_lXCOifW_DMImPDUY2wc-JlW40]--></g></svg>