<svg xmlns="http://www.w3.org/2000/svg" xmlns:xlink="http://www.w3.org/1999/xlink" contentStyleType="text/css" data-diagram-type="STATE" height="329px" preserveAspectRatio="none" style="width:689px;height:329px;background:#FFFFFF;" version="1.1" viewBox="0 0 689 329" width="689px" zoomAndPan="magnify"><defs/><g><!--cluster Terminated--><g class="cluster" data-entity="Terminated" data-source-line="28" data-uid="ent0002" id="cluster_Terminated"><path d="M511.17,7 L602.36,7 A12.5,12.5 0 0 1 614.86,19.5 L614.86,28.4883 L498.67,28.4883 L498.67,19.5 A12.5,12.5 0 0 1 511.17,7" fill="#FFFF00"/><rect fill="none" height="316" rx="12.5" ry="12.5" style="stroke:#181818;stroke-width:0.5;" width="116.19" x="498.67" y="7"/><line style="stroke:#181818;stroke-width:0.5;" x1="498.67" x2="614.86" y1="28.4883" y2="28.4883"/><text fill="#000000" font-family="sans-serif" font-size="14" lengthAdjust="spacing" textLength="77.7656" x="517.8822" y="24.5352">Terminated</text></g><rect fill="#FFFF00" height="40" rx="12.5" ry="12.5" style="stroke:#181818;stroke-width:0.5;" width="81.6953" x="515.92" y="42"/><text fill="#000000" font-family="sans-serif" font-size="14" lengthAdjust="spacing" textLength="71.6953" x="520.92" y="67.291">Withdrawn</text><rect fill="#FFFF00" height="40" rx="12.5" ry="12.5" style="stroke:#181818;stroke-width:0.5;" width="61.3721" x="526.08" y="117"/><text fill="#000000" font-family="sans-serif" font-size="14" lengthAdjust="spacing" textLength="51.3721" x="531.08" y="142.291">Expired</text><rect fill="#FFFF00" height="40" rx="12.5" ry="12.5" style="stroke:#181818;stroke-width:0.5;" width="84.1836" x="514.67" y="192"/><text fill="#000000" font-family="sans-serif" font-size="14" lengthAdjust="spacing" textLength="74.1836" x="519.67" y="217.291">Invalidated</text><rect fill="#FFFF00" height="40" rx="12.5" ry="12.5" style="stroke:#181818;stroke-width:0.5;" width="53.9141" x="529.81" y="267"/><text fill="#000000" font-family="sans-serif" font-size="14" lengthAdjust="spacing" textLength="43.9141" x="534.81" y="292.291">Halted</text><ellipse cx="16" cy="224" fill="#FA8072" rx="10" ry="10" style="stroke:#222222;stroke-width:1;"/><rect fill="#FFFF00" height="40" rx="12.5" ry="12.5" style="stroke:#181818;stroke-width:0.5;" width="97.5" x="87" y="204"/><text fill="#000000" font-family="sans-serif" font-size="14" lengthAdjust="spacing" textLength="87.5" x="92" y="229.291">NoticeShown</text><rect fill="#FFFF00" height="40" rx="12.5" ry="12.5" style="stroke:#181818;stroke-width:0.5;" width="80.9365" x="245.5" y="204"/><text fill="#000000" font-family="sans-serif" font-size="14" lengthAdjust="spacing" textLength="70.9365" x="250.5" y="229.291">Requested</text><rect fill="#FFFF00" height="40" rx="12.5" ry="12.5" style="stroke:#181818;stroke-width:0.5;" width="50" x="394.55" y="155"/><text fill="#000000" font-family="sans-serif" font-size="14" lengthAdjust="spacing" textLength="37.8984" x="400.6008" y="180.291">Given</text><rect fill="#FFFF00" height="40" rx="12.5" ry="12.5" style="stroke:#181818;stroke-width:0.5;" width="64.2363" x="387.44" y="233"/><text fill="#000000" font-family="sans-serif" font-size="14" lengthAdjust="spacing" textLength="54.2363" x="392.44" y="258.291">Refused</text><ellipse cx="672.86" cy="175" fill="none" rx="11" ry="11" style="stroke:#222222;stroke-width:1;"/><ellipse cx="672.86" cy="175" fill="#FA8072" rx="6" ry="6" style="stroke:#222222;stroke-width:1;"/><!--link *start* to NoticeShown--><g class="link" data-entity-1=".start." data-entity-2="NoticeShown" data-source-line="17" data-uid="lnk4" id="link_.start._NoticeShown"><path d="M26.24,224 C39.31,224 58.11,224 80.71,224" fill="none" id="*start*-to-NoticeShown" style="stroke:#181818;stroke-width:1;"/><polygon fill="#181818" points="86.71,224,77.71,220,81.71,224,77.71,228,86.71,224" style="stroke:#181818;stroke-width:1;"/></g><!--link NoticeShown to Requested--><g class="link" data-entity-1="NoticeShown" data-entity-2="Requested" data-source-line="18" data-uid="lnk6" id="link_NoticeShown_Requested"><path d="M184.87,224 C204.31,224 220.49,224 239.02,224" fill="none" id="NoticeShown-to-Requested" style="stroke:#181818;stroke-width:1;"/><polygon fill="#181818" points="245.02,224,236.02,220,240.02,224,236.02,228,245.02,224" style="stroke:#181818;stroke-width:1;"/></g><!--link Requested to Given--><g class="link" data-entity-1="Requested" data-entity-2="Given" data-source-line="19" data-uid="lnk8" id="link_Requested_Given"><path d="M326.81,209.17 C348.74,201 369.6371,193.2137 388.5171,186.1837" fill="none" id="Requested-to-Given" style="stroke:#181818;stroke-width:1;"/><polygon fill="#181818" points="394.14,184.09,384.3099,183.4819,389.4543,185.8347,387.1015,190.9791,394.14,184.09" style="stroke:#181818;stroke-width:1;"/></g><!--link Given to NoticeShown--><g class="link" data-entity-1="Given" data-entity-2="NoticeShown" data-source-line="20" data-uid="lnk9" id="link_Given_NoticeShown"><path d="M394.06,172.56 C382.62,171.75 368.83,171.22 356.44,172 C306.84,175.12 293.88,174.63 245.5,186 C225.25,190.76 209.1455,195.8606 190.4555,202.6906" fill="none" id="Given-to-NoticeShown" style="stroke:#181818;stroke-width:1;"/><polygon fill="#181818" points="184.82,204.75,194.6462,205.4179,189.5162,203.0338,191.9003,197.9039,184.82,204.75" style="stroke:#181818;stroke-width:1;"/><text fill="#000000" font-family="sans-serif" font-size="13" lengthAdjust="spacing" textLength="68.7896" x="251.97" y="170.4384">re-confirm</text></g><!--link Requested to Refused--><g class="link" data-entity-1="Requested" data-entity-2="Refused" data-source-line="21" data-uid="lnk11" id="link_Requested_Refused"><path d="M326.81,232.78 C346.17,237.05 363.2508,240.8077 381.3408,244.7977" fill="none" id="Requested-to-Refused" style="stroke:#181818;stroke-width:1;"/><polygon fill="#181818" points="387.2,246.09,379.2728,240.2454,382.3174,245.0131,377.5497,248.0576,387.2,246.09" style="stroke:#181818;stroke-width:1;"/></g><!--link Refused to NoticeShown--><g class="link" data-entity-1="Refused" data-entity-2="NoticeShown" data-source-line="22" data-uid="lnk12" id="link_Refused_NoticeShown"><path d="M386.98,264.93 C352.06,276.47 294.26,290.63 245.5,279 C217.31,272.28 193.27,260.1117 172.25,247.3617" fill="none" id="Refused-to-NoticeShown" style="stroke:#181818;stroke-width:1;"/><polygon fill="#181818" points="167.12,244.25,172.7406,252.3376,171.395,246.8431,176.8895,245.4975,167.12,244.25" style="stroke:#181818;stroke-width:1;"/><text fill="#000000" font-family="sans-serif" font-size="13" lengthAdjust="spacing" textLength="76.9844" x="247.97" y="275.5684">new request</text></g><!--link Given to Withdrawn--><g class="link" data-entity-1="Given" data-entity-2="Withdrawn" data-source-line="23" data-uid="lnk13" id="link_Given_Withdrawn"><path d="M436.36,154.66 C449.68,138.34 469.87,115.53 490.67,99 C498.31,92.94 501.8717,90.2807 510.4317,85.2707" fill="none" id="Given-to-Withdrawn" style="stroke:#181818;stroke-width:1;"/><polygon fill="#181818" points="515.61,82.24,505.8221,83.3339,511.2948,84.7656,509.8631,90.2383,515.61,82.24" style="stroke:#181818;stroke-width:1;"/></g><!--link Given to Expired--><g class="link" data-entity-1="Given" data-entity-2="Expired" data-source-line="24" data-uid="lnk14" id="link_Given_Expired"><path d="M445.04,168.12 C467.72,161.74 495.7342,153.8747 520.0142,147.0447" fill="none" id="Given-to-Expired" style="stroke:#181818;stroke-width:1;"/><polygon fill="#181818" points="525.79,145.42,516.0431,144.0066,520.9768,146.774,518.2094,151.7077,525.79,145.42" style="stroke:#181818;stroke-width:1;"/></g><!--link Given to Invalidated--><g class="link" data-entity-1="Given" data-entity-2="Invalidated" data-source-line="25" data-uid="lnk15" id="link_Given_Invalidated"><path d="M445.04,181.7 C464.29,186.97 485.7729,192.8459 508.4229,199.0459" fill="none" id="Given-to-Invalidated" style="stroke:#181818;stroke-width:1;"/><polygon fill="#181818" points="514.21,200.63,506.5854,194.3958,509.3874,199.3099,504.4733,202.1119,514.21,200.63" style="stroke:#181818;stroke-width:1;"/></g><!--link Given to Halted--><g class="link" data-entity-1="Given" data-entity-2="Halted" data-source-line="26" data-uid="lnk16" id="link_Given_Halted"><path d="M436.68,195.38 C450.04,211.45 470.1,233.77 490.67,250 C502.61,259.42 511.9287,265.1689 524.2787,271.6589" fill="none" id="Given-to-Halted" style="stroke:#181818;stroke-width:1;"/><polygon fill="#181818" points="529.59,274.45,523.4838,266.7225,525.1639,272.1241,519.7623,273.8042,529.59,274.45" style="stroke:#181818;stroke-width:1;"/></g><!--link Withdrawn to *end*--><g class="link" data-entity-1="Withdrawn" data-entity-2=".end." data-source-line="37" data-uid="lnk18" id="link_Withdrawn_.end."><path d="M598.07,80.88 C606.8,86.04 615.58,92.12 622.86,99 C643.84,118.85 657.4097,144.0084 664.8197,159.6384" fill="none" id="Withdrawn-to-*end*" style="stroke:#181818;stroke-width:1;"/><polygon fill="#181818" points="667.39,165.06,667.1489,155.2141,665.2481,160.542,659.9202,158.6412,667.39,165.06" style="stroke:#181818;stroke-width:1;"/></g><!--link Expired to *end*--><g class="link" data-entity-1="Expired" data-entity-2=".end." data-source-line="38" data-uid="lnk19" id="link_Expired_.end."><path d="M587.74,146.98 C612.3,155.16 639.8876,164.3537 656.2476,169.8037" fill="none" id="Expired-to-*end*" style="stroke:#181818;stroke-width:1;"/><polygon fill="#181818" points="661.94,171.7,654.6655,165.0606,657.1963,170.1197,652.1371,172.6505,661.94,171.7" style="stroke:#181818;stroke-width:1;"/></g><!--link Invalidated to *end*--><g class="link" data-entity-1="Invalidated" data-entity-2=".end." data-source-line="39" data-uid="lnk20" id="link_Invalidated_.end."><path d="M599.28,198.54 C621.96,191.18 642.4825,184.5304 656.3625,180.0304" fill="none" id="Invalidated-to-*end*" style="stroke:#181818;stroke-width:1;"/><polygon fill="#181818" points="662.07,178.18,652.2751,177.1506,657.3137,179.722,654.7423,184.7607,662.07,178.18" style="stroke:#181818;stroke-width:1;"/></g><!--link Halted to *end*--><g class="link" data-entity-1="Halted" data-entity-2=".end." data-source-line="40" data-uid="lnk21" id="link_Halted_.end."><path d="M584.05,275.65 C596.73,269.33 611.59,260.59 622.86,250 C643.71,230.4 657.287,205.6311 664.747,190.2111" fill="none" id="Halted-to-*end*" style="stroke:#181818;stroke-width:1;"/><polygon fill="#181818" points="667.36,184.81,659.8397,191.1697,665.1825,189.3109,667.0413,194.6537,667.36,184.81" style="stroke:#181818;stroke-width:1;"/></g><!--SRC=[XP1FIyCm6CRlxwTuRmLXU9UnWoBJYuTD416Hs3ormJIPwRlL8Vlkfbbjun3i8Kr-VVwaRy5tNi1IWxMfAWIu4lmAwG37nKl1ocakPWKRbrILiM2d6f159IoUWtch9Re3IZ7UKMqq6Cr6zgpHbi5i4gPvAtkB1RMYWl0NSNmkLVc-37xhz9MtFl1QsIPg3uJO-eyaviIRJwAtJFG8QtqNHVFpePMUpfvvDblq_sjAh6lVEShswTiA7rkq0atZBl6bsS5HMayp-883PgLtbGdDYMs5QjkciFJ-m-hGHNloPF4FHceTL9TNNdzkueHrHcxTJbcZbVoYDyhsO9ZEFK9ZN2yP1dN4Ky74VWecaXTCT2Wu41LPUbyT9qmqHeze21xFMUp8Zg7ZyHi0]--></g></svg>