<svg xmlns="http://www.w3.org/2000/svg" xmlns:xlink="http://www.w3.org/1999/xlink" contentStyleType="text/css" data-diagram-type="STATE" height="726.1804px" preserveAspectRatio="none" style="width:1500px;height:726px;background:#FFFFFF;" version="1.1" viewBox="0 0 1500 726" width="1500.4812px" zoomAndPan="magnify"><defs/><g><!--cluster Terminated--><g class="cluster" data-entity="Terminated" data-source-line="29" data-uid="ent0002" id="cluster_Terminated"><path d="M1112.609,15.311 L1310.7994,15.311 A27.3411,27.3411 0 0 1 1338.1405,42.6522 L1338.1405,67.9546 L1085.2679,67.9546 L1085.2679,42.6522 A27.3411,27.3411 0 0 1 1112.609,15.311" fill="#FFFF00"/><rect fill="none" height="697.7456" rx="27.3411" ry="27.3411" style="stroke:#181818;stroke-width:1.0936;" width="252.8726" x="1085.2679" y="15.311"/><line style="stroke:#181818;stroke-width:1.0936;" x1="1085.2679" x2="1338.1405" y1="67.9546" y2="67.9546"/><text fill="#000000" font-family="sans-serif" font-size="30.6221" lengthAdjust="spacing" textLength="166.7365" x="1128.3359" y="56.795">Terminated</text></g><rect fill="#FFFF00" height="87.4916" rx="27.3411" ry="27.3411" style="stroke:#181818;stroke-width:1.0936;" width="179.8821" x="1121.7519" y="98.4281"/><text fill="#000000" font-family="sans-serif" font-size="30.6221" lengthAdjust="spacing" textLength="158.0092" x="1132.6883" y="154.0552">Withdrawn</text><rect fill="#FFFF00" height="87.4916" rx="27.3411" ry="27.3411" style="stroke:#181818;stroke-width:1.0936;" width="130.5808" x="1146.4026" y="262.4748"/><text fill="#000000" font-family="sans-serif" font-size="30.6221" lengthAdjust="spacing" textLength="108.7079" x="1157.3391" y="318.102">Expired</text><rect fill="#FFFF00" height="87.4916" rx="27.3411" ry="27.3411" style="stroke:#181818;stroke-width:1.0936;" width="182.8831" x="1120.2645" y="426.5216"/><text fill="#000000" font-family="sans-serif" font-size="30.6221" lengthAdjust="spacing" textLength="161.0102" x="1131.201" y="482.1487">Invalidated</text><rect fill="#FFFF00" height="87.4916" rx="27.3411" ry="27.3411" style="stroke:#181818;stroke-width:1.0936;" width="116.801" x="1153.2926" y="590.5684"/><text fill="#000000" font-family="sans-serif" font-size="30.6221" lengthAdjust="spacing" textLength="94.9281" x="1164.2291" y="646.1955">Halted</text><ellipse cx="34.9966" cy="494.3276" fill="#FA8072" rx="21.8729" ry="21.8729" style="stroke:#222222;stroke-width:2.1873;"/><rect fill="#FFFF00" height="87.4916" rx="27.3411" ry="27.3411" style="stroke:#181818;stroke-width:1.0936;" width="211.8514" x="190.2943" y="450.5818"/><text fill="#000000" font-family="sans-serif" font-size="30.6221" lengthAdjust="spacing" textLength="189.9785" x="201.2307" y="506.2089">NoticeShown</text><rect fill="#FFFF00" height="87.4916" rx="27.3411" ry="27.3411" style="stroke:#181818;stroke-width:1.0936;" width="175.0439" x="535.5799" y="450.5818"/><text fill="#000000" font-family="sans-serif" font-size="30.6221" lengthAdjust="spacing" textLength="153.171" x="546.5164" y="506.2089">Requested</text><rect fill="#FFFF00" height="87.4916" rx="27.3411" ry="27.3411" style="stroke:#181818;stroke-width:1.0936;" width="109.3645" x="858.5771" y="345.5919"/><text fill="#000000" font-family="sans-serif" font-size="30.6221" lengthAdjust="spacing" textLength="81.9443" x="872.2872" y="401.219">Given</text><rect fill="#FFFF00" height="87.4916" rx="27.3411" ry="27.3411" style="stroke:#181818;stroke-width:1.0936;" width="138.42" x="844.0316" y="516.2005"/><text fill="#000000" font-family="sans-serif" font-size="30.6221" lengthAdjust="spacing" textLength="116.5471" x="854.9681" y="571.8276">Refused</text><ellipse cx="1465.0034" cy="389.3377" fill="none" rx="24.0602" ry="24.0602" style="stroke:#222222;stroke-width:2.1873;"/><ellipse cx="1465.0034" cy="389.3377" fill="#FA8072" rx="13.1237" ry="13.1237" style="stroke:#222222;stroke-width:2.1873;"/><!--link *start* to NoticeShown--><g class="link" data-entity-1=".start." data-entity-2="NoticeShown" data-source-line="18" data-uid="lnk4" id="link_.start._NoticeShown"><path d="M57.3289,494.3276 C85.8293,494.3276 126.8191,494.3276 176.1206,494.3276" fill="none" id="*start*-to-NoticeShown" style="stroke:#181818;stroke-width:2.1873;"/><polygon fill="#181818" points="189.2444,494.3276,169.5588,485.5785,178.3079,494.3276,169.5588,503.0768,189.2444,494.3276" style="stroke:#181818;stroke-width:2.1873;"/></g><!--link NoticeShown to Requested--><g class="link" data-entity-1="NoticeShown" data-entity-2="Requested" data-source-line="19" data-uid="lnk6" id="link_NoticeShown_Requested"><path d="M403.1176,494.3276 C445.7917,494.3276 481.3789,494.3276 521.9094,494.3276" fill="none" id="NoticeShown-to-Requested" style="stroke:#181818;stroke-width:2.1873;"/><polygon fill="#181818" points="535.0331,494.3276,515.3475,485.5785,524.0966,494.3276,515.3475,503.0768,535.0331,494.3276" style="stroke:#181818;stroke-width:2.1873;"/></g><!--link Requested to Given--><g class="link" data-entity-1="Requested" data-entity-2="Given" data-source-line="20" data-uid="lnk8" id="link_Requested_Given"><path d="M711.0225,462.8306 C758.7054,445.3104 804.2162,428.569 845.4248,413.4549" fill="none" id="Requested-to-Given" style="stroke:#181818;stroke-width:2.1873;"/><polygon fill="#181818" points="857.7459,408.9358,836.2515,407.5003,847.4783,412.7017,842.2769,423.9285,857.7459,408.9358" style="stroke:#181818;stroke-width:2.1873;"/></g><!--link Given to NoticeShown--><g class="link" data-entity-1="Given" data-entity-2="NoticeShown" data-source-line="21" data-uid="lnk9" id="link_Given_NoticeShown"><path d="M857.899,384.1101 C833.0733,382.3602 803.1293,381.201 776.2256,382.7758 C668.7203,389.0971 640.5042,386.9317 535.5799,411.2106 C491.3529,421.4471 456.2513,432.5391 415.524,447.5001" fill="none" id="Given-to-NoticeShown" style="stroke:#181818;stroke-width:2.1873;"/><polygon fill="#181818" points="403.2051,452.0254,424.7003,453.4501,413.4708,448.2544,418.6665,437.0249,403.2051,452.0254" style="stroke:#181818;stroke-width:2.1873;"/><text fill="#000000" font-family="sans-serif" font-size="28.4348" lengthAdjust="spacing" textLength="140.8091" x="553.1001" y="377.4323">re-confirm</text></g><!--link Requested to Refused--><g class="link" data-entity-1="Requested" data-entity-2="Refused" data-source-line="22" data-uid="lnk11" id="link_Requested_Refused"><path d="M711.0225,514.0132 C753.434,523.7467 791.1039,532.4028 830.7376,541.5019" fill="none" id="Requested-to-Refused" style="stroke:#181818;stroke-width:2.1873;"/><polygon fill="#181818" points="843.5285,544.4384,826.2998,531.5063,832.8694,541.9913,822.3844,548.5609,843.5285,544.4384" style="stroke:#181818;stroke-width:2.1873;"/></g><!--link Refused to NoticeShown--><g class="link" data-entity-1="Refused" data-entity-2="NoticeShown" data-source-line="23" data-uid="lnk12" id="link_Refused_NoticeShown"><path d="M843.2223,586.675 C767.4765,612.835 641.5979,645.185 535.5799,619.0032 C472.8047,603.5172 419.3575,575.1196 373.49,545.9849" fill="none" id="Refused-to-NoticeShown" style="stroke:#181818;stroke-width:2.1873;"/><polygon fill="#181818" points="362.4121,538.9484,374.3379,556.8885,371.6437,544.8122,383.72,542.118,362.4121,538.9484" style="stroke:#181818;stroke-width:2.1873;"/><text fill="#000000" font-family="sans-serif" font-size="28.4348" lengthAdjust="spacing" textLength="166.1161" x="541.07" y="610.0288">new request</text></g><!--link Given to Withdrawn--><g class="link" data-entity-1="Given" data-entity-2="Withdrawn" data-source-line="24" data-uid="lnk13" id="link_Given_Withdrawn"><path d="M949.7215,344.8482 C978.6593,309.1735 1022.4926,259.2595 1067.7695,223.1036 C1084.1524,210.0236 1091.5932,204.398 1109.9883,193.549" fill="none" id="Given-to-Withdrawn" style="stroke:#181818;stroke-width:2.1873;"/><polygon fill="#181818" points="1121.2925,186.8821,1099.8916,189.3463,1111.8724,192.4379,1108.7809,204.4186,1121.2925,186.8821" style="stroke:#181818;stroke-width:2.1873;"/></g><!--link Given to Expired--><g class="link" data-entity-1="Given" data-entity-2="Expired" data-source-line="25" data-uid="lnk14" id="link_Given_Expired"><path d="M968.6853,374.2891 C1018.3368,360.2467 1079.8564,342.8599 1132.745,327.9207" fill="none" id="Given-to-Expired" style="stroke:#181818;stroke-width:2.1873;"/><polygon fill="#181818" points="1145.3746,324.3533,1124.052,321.2847,1134.85,327.3261,1128.8085,338.1241,1145.3746,324.3533" style="stroke:#181818;stroke-width:2.1873;"/></g><!--link Given to Invalidated--><g class="link" data-entity-1="Given" data-entity-2="Invalidated" data-source-line="26" data-uid="lnk15" id="link_Given_Invalidated"><path d="M968.6853,403.9925 C1010.725,415.5633 1057.6748,428.4879 1107.0638,442.0709" fill="none" id="Given-to-Invalidated" style="stroke:#181818;stroke-width:2.1873;"/><polygon fill="#181818" points="1119.7177,445.5511,1103.0569,431.895,1109.1728,442.651,1098.4168,448.7668,1119.7177,445.5511" style="stroke:#181818;stroke-width:2.1873;"/></g><!--link Given to Halted--><g class="link" data-entity-1="Given" data-entity-2="Halted" data-source-line="27" data-uid="lnk16" id="link_Given_Halted"><path d="M950.4214,433.9147 C979.4249,469.0644 1022.9957,517.8847 1067.7695,553.3845 C1093.7327,573.9887 1113.9705,586.5477 1140.896,600.7432" fill="none" id="Given-to-Halted" style="stroke:#181818;stroke-width:2.1873;"/><polygon fill="#181818" points="1152.5052,606.8637,1139.1718,589.9435,1142.8309,601.7633,1131.0111,605.4224,1152.5052,606.8637" style="stroke:#181818;stroke-width:2.1873;"/></g><!--link Withdrawn to *end*--><g class="link" data-entity-1="Withdrawn" data-entity-2=".end." data-source-line="36" data-uid="lnk18" id="link_Withdrawn_.end."><path d="M1302.3783,183.973 C1321.1671,195.15 1339.9997,208.2957 1355.6388,223.1036 C1401.5063,266.5651 1431.178,321.5763 1447.4077,355.7418" fill="none" id="Withdrawn-to-*end*" style="stroke:#181818;stroke-width:2.1873;"/><polygon fill="#181818" points="1453.0389,367.596,1452.495,346.0606,1448.3463,357.7175,1436.6893,353.5688,1453.0389,367.596" style="stroke:#181818;stroke-width:2.1873;"/></g><!--link Expired to *end*--><g class="link" data-entity-1="Expired" data-entity-2=".end." data-source-line="37" data-uid="lnk19" id="link_Expired_.end."><path d="M1277.99,327.6342 C1331.5786,345.5263 1392.4049,365.8233 1428.4951,377.8753" fill="none" id="Expired-to-*end*" style="stroke:#181818;stroke-width:2.1873;"/><polygon fill="#181818" points="1440.9432,382.0321,1425.0424,367.4981,1430.5698,378.5681,1419.4999,384.0955,1440.9432,382.0321" style="stroke:#181818;stroke-width:2.1873;"/></g><!--link Invalidated to *end*--><g class="link" data-entity-1="Invalidated" data-entity-2=".end." data-source-line="38" data-uid="lnk20" id="link_Invalidated_.end."><path d="M1303.7563,441.0452 C1353.3422,424.9249 1398.3884,410.2848 1428.8355,400.3764" fill="none" id="Invalidated-to-*end*" style="stroke:#181818;stroke-width:2.1873;"/><polygon fill="#181818" points="1441.315,396.3151,1419.8882,394.0873,1430.9154,399.6995,1425.3032,410.7267,1441.315,396.3151" style="stroke:#181818;stroke-width:2.1873;"/></g><!--link Halted to *end*--><g class="link" data-entity-1="Halted" data-entity-2=".end." data-source-line="39" data-uid="lnk21" id="link_Halted_.end."><path d="M1271.1219,609.4447 C1298.7255,595.621 1331.0974,576.5041 1355.6388,553.3845 C1401.2001,510.4698 1430.9126,456.312 1447.2517,422.584" fill="none" id="Halted-to-*end*" style="stroke:#181818;stroke-width:2.1873;"/><polygon fill="#181818" points="1452.9733,410.7731,1436.517,424.675,1448.2053,420.6155,1452.2648,432.3038,1452.9733,410.7731" style="stroke:#181818;stroke-width:2.1873;"/></g><!--SRC=[XP3FIyCm5CVlxwzuju9Gd0SlCdPGP7hni0aY8XARr_LXcjJqRNN8_dUph6lZ4EmXJJxz_aXVXWzE2AKYr5oMvCaMXEya7P75x2r3PJLcUOPiewfaGsXLJM2e51I7dbUL1BUdGjXPg5WJKjt85ZMrXUScuhPGmNbnEPbWnregW6ahMqCpQ4LvmM_0y5ohucFktThg6sUSnwKoTJ3lWC8r_f64dF0hesYLY9x96DS5qVIyRuMNirVCyzb-05pGidATXMGVloteSqsja8PX5_cSDsGXhgSPU8MUyiBPadrzObjGkMvZM7p_ORNK1Nlq9F5FB9NsgaihRx-QC7ATa7kxKOQrab_qJfazwAVpIBvckvVqWphWiM1anuAHf0KZxGjs04DAB0xpXJvZE2S90pluXoDaoHsFy0S0]--></g></svg>