<svg xmlns="http://www.w3.org/2000/svg" xmlns:xlink="http://www.w3.org/1999/xlink" contentStyleType="text/css" data-diagram-type="CLASS" height="461px" preserveAspectRatio="none" style="width:695px;height:461px;background:#FFFFFF;" version="1.1" viewBox="0 0 695 461" width="695px" zoomAndPan="magnify"><defs/><g><!--cluster dpv--><g class="cluster" data-entity="dpv" data-source-line="6" data-uid="ent0003" id="cluster_dpv"><path d="M8.5,101.07 L35.1899,101.07 A3.75,3.75 0 0 1 37.6899,103.57 L44.6899,126.1379 L685.5,126.1379 A2.5,2.5 0 0 1 688,128.6379 L688,451.84 A2.5,2.5 0 0 1 685.5,454.34 L8.5,454.34 A2.5,2.5 0 0 1 6,451.84 L6,103.57 A2.5,2.5 0 0 1 8.5,101.07" fill="none" style="stroke:#000000;stroke-width:1.5;"/><line style="stroke:#000000;stroke-width:1.5;" x1="6" x2="44.6899" y1="126.1379" y2="126.1379"/><text fill="#000000" font-family="sans-serif" font-size="14" font-weight="bold" lengthAdjust="spacing" textLength="25.6899" x="10" y="118.0359">dpv</text></g><!--class Consequence--><g class="entity" data-entity="Consequence" data-source-line="7" data-uid="ent0004" id="entity_Consequence"><rect fill="#F1F1F1" height="29.0679" rx="2.5" ry="2.5" style="stroke:#181818;stroke-width:0.5;" width="94.9976" x="249.5" y="139.07"/><text fill="#000000" font-family="sans-serif" font-size="14" lengthAdjust="spacing" textLength="88.9976" x="252.5" y="159.0359">Consequence</text></g><!--class Impact--><g class="entity" data-entity="Impact" data-source-line="8" data-uid="ent0005" id="entity_Impact"><rect fill="#F1F1F1" height="29.0679" rx="2.5" ry="2.5" style="stroke:#181818;stroke-width:0.5;" width="52.0738" x="21.96" y="229.14"/><text fill="#000000" font-family="sans-serif" font-size="14" lengthAdjust="spacing" textLength="46.0738" x="24.96" y="249.1059">Impact</text></g><!--class ConsequenceAsSideEffect--><g class="entity" data-entity="ConsequenceAsSideEffect" data-source-line="9" data-uid="ent0006" id="entity_ConsequenceAsSideEffect"><rect fill="#F1F1F1" height="29.0679" rx="2.5" ry="2.5" style="stroke:#181818;stroke-width:0.5;" width="175.5393" x="109.23" y="229.14"/><text fill="#000000" font-family="sans-serif" font-size="14" lengthAdjust="spacing" textLength="169.5393" x="112.23" y="249.1059">ConsequenceAsSideEffect</text></g><!--class ConsequenceOfFailure--><g class="entity" data-entity="ConsequenceOfFailure" data-source-line="10" data-uid="ent0007" id="entity_ConsequenceOfFailure"><rect fill="#F1F1F1" height="29.0679" rx="2.5" ry="2.5" style="stroke:#181818;stroke-width:0.5;" width="155.4214" x="319.29" y="229.14"/><text fill="#000000" font-family="sans-serif" font-size="14" lengthAdjust="spacing" textLength="149.4214" x="322.29" y="249.1059">ConsequenceOfFailure</text></g><!--class ConsequenceOfSuccess--><g class="entity" data-entity="ConsequenceOfSuccess" data-source-line="11" data-uid="ent0008" id="entity_ConsequenceOfSuccess"><rect fill="#F1F1F1" height="29.0679" rx="2.5" ry="2.5" style="stroke:#181818;stroke-width:0.5;" width="161.8334" x="510.08" y="229.14"/><text fill="#000000" font-family="sans-serif" font-size="14" lengthAdjust="spacing" textLength="155.8334" x="513.08" y="249.1059">ConsequenceOfSuccess</text></g><!--class Benefit--><g class="entity" data-entity="Benefit" data-source-line="12" data-uid="ent0009" id="entity_Benefit"><rect fill="#F1F1F1" height="29.0679" rx="2.5" ry="2.5" style="stroke:#181818;stroke-width:0.5;" width="53.0258" x="22.49" y="319.2"/><text fill="#000000" font-family="sans-serif" font-size="14" lengthAdjust="spacing" textLength="47.0258" x="25.49" y="339.1659">Benefit</text></g><!--class Damage--><g class="entity" data-entity="Damage" data-source-line="13" data-uid="ent0010" id="entity_Damage"><rect fill="#F1F1F1" height="29.0679" rx="2.5" ry="2.5" style="stroke:#181818;stroke-width:0.5;" width="61.5238" x="110.24" y="319.2"/><text fill="#000000" font-family="sans-serif" font-size="14" lengthAdjust="spacing" textLength="55.5238" x="113.24" y="339.1659">Damage</text></g><!--class Detriment--><g class="entity" data-entity="Detriment" data-source-line="14" data-uid="ent0011" id="entity_Detriment"><rect fill="#F1F1F1" height="29.0679" rx="2.5" ry="2.5" style="stroke:#181818;stroke-width:0.5;" width="73.2557" x="206.37" y="319.2"/><text fill="#000000" font-family="sans-serif" font-size="14" lengthAdjust="spacing" textLength="67.2557" x="209.37" y="339.1659">Detriment</text></g><!--class Harm--><g class="entity" data-entity="Harm" data-source-line="15" data-uid="ent0012" id="entity_Harm"><rect fill="#F1F1F1" height="29.0679" rx="2.5" ry="2.5" style="stroke:#181818;stroke-width:0.5;" width="43.0999" x="22.45" y="409.27"/><text fill="#000000" font-family="sans-serif" font-size="14" lengthAdjust="spacing" textLength="37.0999" x="25.45" y="429.2359">Harm</text></g><!--class MaterialDamage--><g class="entity" data-entity="MaterialDamage" data-source-line="16" data-uid="ent0013" id="entity_MaterialDamage"><rect fill="#F1F1F1" height="29.0679" rx="2.5" ry="2.5" style="stroke:#181818;stroke-width:0.5;" width="115.8856" x="100.06" y="409.27"/><text fill="#000000" font-family="sans-serif" font-size="14" lengthAdjust="spacing" textLength="109.8856" x="103.06" y="429.2359">MaterialDamage</text></g><!--class NonMaterialDamage--><g class="entity" data-entity="NonMaterialDamage" data-source-line="17" data-uid="ent0014" id="entity_NonMaterialDamage"><rect fill="#F1F1F1" height="29.0679" rx="2.5" ry="2.5" style="stroke:#181818;stroke-width:0.5;" width="143.6475" x="251.18" y="409.27"/><text fill="#000000" font-family="sans-serif" font-size="14" lengthAdjust="spacing" textLength="137.6475" x="254.18" y="429.2359">NonMaterialDamage</text></g><!--class Thing--><g class="entity" data-entity="Thing" data-source-line="5" data-uid="ent0002" id="entity_Thing"><rect fill="#C0C0C0" height="29.0679" rx="2.5" ry="2.5" style="stroke:#181818;stroke-width:0.5;" width="43.3098" x="275.35" y="7"/><text fill="#000000" font-family="sans-serif" font-size="14" lengthAdjust="spacing" textLength="37.3098" x="278.35" y="26.9659">Thing</text></g><!--link Thing to Consequence--><g class="link" data-entity-1="Thing" data-entity-2="Consequence" data-source-line="19" data-uid="lnk15" id="link_Thing_Consequence"><path codeLine="19" d="M297,36.45 C297,61.49 297,113.82 297,138.78" fill="none" id="Thing-Consequence" style="stroke:#181818;stroke-width:1;"/><polygon fill="#000000" points="302,80.923,304.9389,71.8779,299.0611,71.8779,302,80.923" style="stroke:#000000;stroke-width:1;"/><text fill="#000000" font-family="sans-serif" font-size="13" lengthAdjust="spacing" textLength="104.1951" x="311" y="80.967">hasConsequence</text></g><!--reverse link Consequence to Impact--><g class="link" data-entity-1="Consequence" data-entity-2="Impact" data-source-line="20" data-uid="lnk16" id="link_Consequence_Impact"><path codeLine="20" d="M240.5801,174.5618 C189.2901,192.7018 118.09,217.88 74.28,233.37" fill="none" id="Consequence-backto-Impact" style="stroke:#181818;stroke-width:1;"/><polygon fill="none" points="257.55,168.56,238.5795,168.9052,242.5807,180.2185,257.55,168.56" style="stroke:#181818;stroke-width:1;"/></g><!--reverse link Consequence to ConsequenceAsSideEffect--><g class="link" data-entity-1="Consequence" data-entity-2="ConsequenceAsSideEffect" data-source-line="21" data-uid="lnk17" id="link_Consequence_ConsequenceAsSideEffect"><path codeLine="21" d="M267.8713,180.256 C249.1913,196.706 231.62,212.18 212.85,228.72" fill="none" id="Consequence-backto-ConsequenceAsSideEffect" style="stroke:#181818;stroke-width:1;"/><polygon fill="none" points="281.38,168.36,263.906,175.7531,271.8367,184.7589,281.38,168.36" style="stroke:#181818;stroke-width:1;"/></g><!--reverse link Consequence to ConsequenceOfFailure--><g class="link" data-entity-1="Consequence" data-entity-2="ConsequenceOfFailure" data-source-line="22" data-uid="lnk18" id="link_Consequence_ConsequenceOfFailure"><path codeLine="22" d="M326.1287,180.256 C344.8087,196.706 362.38,212.18 381.15,228.72" fill="none" id="Consequence-backto-ConsequenceOfFailure" style="stroke:#181818;stroke-width:1;"/><polygon fill="none" points="312.62,168.36,322.1633,184.7589,330.094,175.7531,312.62,168.36" style="stroke:#181818;stroke-width:1;"/></g><!--reverse link Consequence to ConsequenceOfSuccess--><g class="link" data-entity-1="Consequence" data-entity-2="ConsequenceOfSuccess" data-source-line="23" data-uid="lnk19" id="link_Consequence_ConsequenceOfSuccess"><path codeLine="23" d="M360.833,173.7251 C415.883,190.2151 489.68,212.32 544.63,228.78" fill="none" id="Consequence-backto-ConsequenceOfSuccess" style="stroke:#181818;stroke-width:1;"/><polygon fill="none" points="343.59,168.56,359.1113,179.4728,362.5547,167.9774,343.59,168.56" style="stroke:#181818;stroke-width:1;"/></g><!--reverse link Impact to Benefit--><g class="link" data-entity-1="Impact" data-entity-2="Benefit" data-source-line="24" data-uid="lnk20" id="link_Impact_Benefit"><path codeLine="24" d="M48.3569,276.4289 C48.5369,292.8789 48.65,302.25 48.84,318.78" fill="none" id="Impact-backto-Benefit" style="stroke:#181818;stroke-width:1;"/><polygon fill="none" points="48.16,258.43,42.3573,276.4946,54.3566,276.3633,48.16,258.43" style="stroke:#181818;stroke-width:1;"/></g><!--reverse link Impact to Damage--><g class="link" data-entity-1="Impact" data-entity-2="Damage" data-source-line="25" data-uid="lnk21" id="link_Impact_Damage"><path codeLine="25" d="M75.5993,270.8071 C92.9693,287.2571 108.8,302.25 126.26,318.78" fill="none" id="Impact-backto-Damage" style="stroke:#181818;stroke-width:1;"/><polygon fill="none" points="62.53,258.43,71.4736,275.1635,79.725,266.4507,62.53,258.43" style="stroke:#181818;stroke-width:1;"/></g><!--reverse link Impact to Detriment--><g class="link" data-entity-1="Impact" data-entity-2="Detriment" data-source-line="26" data-uid="lnk22" id="link_Impact_Detriment"><path codeLine="26" d="M90.7046,263.9587 C126.4646,280.1087 173.92,301.54 211.98,318.73" fill="none" id="Impact-backto-Detriment" style="stroke:#181818;stroke-width:1;"/><polygon fill="none" points="74.3,256.55,88.2351,269.4269,93.1742,258.4905,74.3,256.55" style="stroke:#181818;stroke-width:1;"/></g><!--reverse link Damage to Harm--><g class="link" data-entity-1="Damage" data-entity-2="Harm" data-source-line="27" data-uid="lnk23" id="link_Damage_Harm"><path codeLine="27" d="M112.5161,360.6026 C94.4061,377.0526 77.58,392.32 59.37,408.85" fill="none" id="Damage-backto-Harm" style="stroke:#181818;stroke-width:1;"/><polygon fill="none" points="125.84,348.5,108.4819,356.1613,116.5503,365.0439,125.84,348.5" style="stroke:#181818;stroke-width:1;"/></g><!--reverse link Damage to MaterialDamage--><g class="link" data-entity-1="Damage" data-entity-2="MaterialDamage" data-source-line="28" data-uid="lnk24" id="link_Damage_MaterialDamage"><path codeLine="28" d="M147.066,366.1748 C150.236,382.6248 152.11,392.32 155.31,408.85" fill="none" id="Damage-backto-MaterialDamage" style="stroke:#181818;stroke-width:1;"/><polygon fill="none" points="143.66,348.5,141.1744,367.3102,152.9576,365.0395,143.66,348.5" style="stroke:#181818;stroke-width:1;"/></g><!--reverse link Damage to NonMaterialDamage--><g class="link" data-entity-1="Damage" data-entity-2="NonMaterialDamage" data-source-line="29" data-uid="lnk25" id="link_Damage_NonMaterialDamage"><path codeLine="29" d="M186.0429,356.53 C220.1229,373.02 260.28,392.45 294.3,408.92" fill="none" id="Damage-backto-NonMaterialDamage" style="stroke:#181818;stroke-width:1;"/><polygon fill="none" points="169.84,348.69,183.4296,361.9309,188.6563,351.129,169.84,348.69" style="stroke:#181818;stroke-width:1;"/></g><!--SRC=[VP3BJiCm44NN-2i6iM1LFW0X99w21R0eFp0uasI47y4ULqB0lnDm7TmsT6UVUssFpo4xRL934ENTqCbWq4coHXqRQWN4G-2k5sWua1RsJeaVVl2B5_6suaeRZ16UUtOT74KsAmfgGFsA7K4phE137UJAbNUHtX8vJGNTsx4fCuMBkEI6RjgMPkEdzXRPf42psJ9fJJ6Mx98SjJnTSurs76tQaGIsvARu3eCjwmSK2encyyYZTrl1byhVNopgGU0KUemrE5VrxknpxAyDxF3_NEmh_bdPtof-yjkvK2JLRFsx3JJfoc6clyvgiEMdZdRjVGC0]--></g></svg>