<svg xmlns="http://www.w3.org/2000/svg" xmlns:xlink="http://www.w3.org/1999/xlink" contentStyleType="text/css" height="308px" preserveAspectRatio="none" style="width:1790px;height:308px;background:#FFFFFF;" version="1.1" viewBox="0 0 1790 308" width="1790px" zoomAndPan="magnify"><defs/><g><!--cluster dpv--><g id="cluster_dpv"><path d="M8.5,96.48 L35.5,96.48 A3.75,3.75 0 0 1 38,98.98 L45,118.9683 L1688.5,118.9683 A2.5,2.5 0 0 1 1691,121.4683 L1691,171.47 A2.5,2.5 0 0 1 1688.5,173.97 L8.5,173.97 A2.5,2.5 0 0 1 6,171.47 L6,98.98 A2.5,2.5 0 0 1 8.5,96.48 " fill="none" style="stroke:#000000;stroke-width:1.5;"/><line style="stroke:#000000;stroke-width:1.5;" x1="6" x2="45" y1="118.9683" y2="118.9683"/><text fill="#000000" font-family="sans-serif" font-size="14" font-weight="bold" lengthAdjust="spacing" textLength="26" x="10" y="112.0152">dpv</text></g><!--class Context--><g id="elem_Context"><rect codeLine="10" fill="#F1F1F1" height="26.4883" id="Context" rx="2.5" ry="2.5" style="stroke:#181818;stroke-width:0.5;" width="61" x="943.5" y="131.48"/><text fill="#000000" font-family="sans-serif" font-size="14" lengthAdjust="spacing" textLength="55" x="946.5" y="150.0152">Context</text></g><!--class Importance--><g id="elem_Importance"><rect codeLine="11" fill="#F1F1F1" height="26.4883" id="Importance" rx="2.5" ry="2.5" style="stroke:#181818;stroke-width:0.5;" width="84" x="642" y="131.48"/><text fill="#000000" font-family="sans-serif" font-size="14" lengthAdjust="spacing" textLength="78" x="645" y="150.0152">Importance</text></g><!--class Necessity--><g id="elem_Necessity"><rect codeLine="12" fill="#F1F1F1" height="26.4883" id="Necessity" rx="2.5" ry="2.5" style="stroke:#181818;stroke-width:0.5;" width="69" x="761.5" y="131.48"/><text fill="#000000" font-family="sans-serif" font-size="14" lengthAdjust="spacing" textLength="63" x="764.5" y="150.0152">Necessity</text></g><!--class Entity--><g id="elem_Entity"><rect codeLine="13" fill="#F1F1F1" height="26.4883" id="Entity" rx="2.5" ry="2.5" style="stroke:#181818;stroke-width:0.5;" width="44" x="865" y="131.48"/><text fill="#000000" font-family="sans-serif" font-size="14" lengthAdjust="spacing" textLength="38" x="868" y="150.0152">Entity</text></g><!--class Technology--><g id="elem_Technology"><rect codeLine="14" fill="#F1F1F1" height="26.4883" id="Technology" rx="2.5" ry="2.5" style="stroke:#181818;stroke-width:0.5;" width="86" x="521" y="131.48"/><text fill="#000000" font-family="sans-serif" font-size="14" lengthAdjust="spacing" textLength="80" x="524" y="150.0152">Technology</text></g><!--class Justification--><g id="elem_Justification"><rect codeLine="15" fill="#F1F1F1" height="26.4883" id="Justification" rx="2.5" ry="2.5" style="stroke:#181818;stroke-width:0.5;" width="86" x="400" y="131.48"/><text fill="#000000" font-family="sans-serif" font-size="14" lengthAdjust="spacing" textLength="80" x="403" y="150.0152">Justification</text></g><!--class Frequency--><g id="elem_Frequency"><rect codeLine="16" fill="#F1F1F1" height="26.4883" id="Frequency" rx="2.5" ry="2.5" style="stroke:#181818;stroke-width:0.5;" width="77" x="288.5" y="131.48"/><text fill="#000000" font-family="sans-serif" font-size="14" lengthAdjust="spacing" textLength="71" x="291.5" y="150.0152">Frequency</text></g><!--class Duration--><g id="elem_Duration"><rect codeLine="17" fill="#F1F1F1" height="26.4883" id="Duration" rx="2.5" ry="2.5" style="stroke:#181818;stroke-width:0.5;" width="66" x="188" y="131.48"/><text fill="#000000" font-family="sans-serif" font-size="14" lengthAdjust="spacing" textLength="60" x="191" y="150.0152">Duration</text></g><!--class Scope--><g id="elem_Scope"><rect codeLine="18" fill="#F1F1F1" height="26.4883" id="Scope" rx="2.5" ry="2.5" style="stroke:#181818;stroke-width:0.5;" width="47" x="105.5" y="131.48"/><text fill="#000000" font-family="sans-serif" font-size="14" lengthAdjust="spacing" textLength="41" x="108.5" y="150.0152">Scope</text></g><!--class Status--><g id="elem_Status"><rect codeLine="19" fill="#F1F1F1" height="26.4883" id="Status" rx="2.5" ry="2.5" style="stroke:#181818;stroke-width:0.5;" width="48" x="22" y="131.48"/><text fill="#000000" font-family="sans-serif" font-size="14" lengthAdjust="spacing" textLength="42" x="25" y="150.0152">Status</text></g><!--class ActivityStatus--><g id="elem_ActivityStatus"><rect codeLine="20" fill="#F1F1F1" height="26.4883" id="ActivityStatus" rx="2.5" ry="2.5" style="stroke:#181818;stroke-width:0.5;" width="97" x="1155.5" y="131.48"/><text fill="#000000" font-family="sans-serif" font-size="14" lengthAdjust="spacing" textLength="91" x="1158.5" y="150.0152">ActivityStatus</text></g><!--class AuditStatus--><g id="elem_AuditStatus"><rect codeLine="21" fill="#F1F1F1" height="26.4883" id="AuditStatus" rx="2.5" ry="2.5" style="stroke:#181818;stroke-width:0.5;" width="85" x="1287.5" y="131.48"/><text fill="#000000" font-family="sans-serif" font-size="14" lengthAdjust="spacing" textLength="79" x="1290.5" y="150.0152">AuditStatus</text></g><!--class RequestStatus--><g id="elem_RequestStatus"><rect codeLine="22" fill="#F1F1F1" height="26.4883" id="RequestStatus" rx="2.5" ry="2.5" style="stroke:#181818;stroke-width:0.5;" width="103" x="1407.5" y="131.48"/><text fill="#000000" font-family="sans-serif" font-size="14" lengthAdjust="spacing" textLength="97" x="1410.5" y="150.0152">RequestStatus</text></g><!--class ComplianceStatus--><g id="elem_ComplianceStatus"><rect codeLine="23" fill="#F1F1F1" height="26.4883" id="ComplianceStatus" rx="2.5" ry="2.5" style="stroke:#181818;stroke-width:0.5;" width="129" x="1545.5" y="131.48"/><text fill="#000000" font-family="sans-serif" font-size="14" lengthAdjust="spacing" textLength="123" x="1548.5" y="150.0152">ComplianceStatus</text></g><!--class Lawfulness--><g id="elem_Lawfulness"><rect codeLine="24" fill="#F1F1F1" height="26.4883" id="Lawfulness" rx="2.5" ry="2.5" style="stroke:#181818;stroke-width:0.5;" width="81" x="1039.5" y="131.48"/><text fill="#000000" font-family="sans-serif" font-size="14" lengthAdjust="spacing" textLength="75" x="1042.5" y="150.0152">Lawfulness</text></g><!--class Thing1--><g id="elem_Thing1"><rect codeLine="4" fill="#C0C0C0" height="26.4883" id="Thing1" rx="2.5" ry="2.5" style="stroke:#181818;stroke-width:0.5;" width="46" x="748" y="7"/><text fill="#000000" font-family="sans-serif" font-size="14" lengthAdjust="spacing" textLength="40" x="751" y="25.5352">Thing</text></g><!--class Thing2--><g id="elem_Thing2"><rect codeLine="5" fill="#C0C0C0" height="26.4883" id="Thing2" rx="2.5" ry="2.5" style="stroke:#181818;stroke-width:0.5;" width="46" x="487" y="236.97"/><text fill="#000000" font-family="sans-serif" font-size="14" lengthAdjust="spacing" textLength="40" x="490" y="255.5052">Thing</text></g><!--class Thing3--><g id="elem_Thing3"><rect codeLine="6" fill="#C0C0C0" height="26.4883" id="Thing3" rx="2.5" ry="2.5" style="stroke:#181818;stroke-width:0.5;" width="46" x="155" y="236.97"/><text fill="#000000" font-family="sans-serif" font-size="14" lengthAdjust="spacing" textLength="40" x="158" y="255.5052">Thing</text></g><!--class Thing4--><g id="elem_Thing4"><rect codeLine="7" fill="#C0C0C0" height="26.4883" id="Thing4" rx="2.5" ry="2.5" style="stroke:#181818;stroke-width:0.5;" width="46" x="1368" y="7"/><text fill="#000000" font-family="sans-serif" font-size="14" lengthAdjust="spacing" textLength="40" x="1371" y="25.5352">Thing</text></g><!--class Resource--><g id="elem_Resource"><rect fill="#F1F1F1" height="26.4883" id="Resource" rx="2.5" ry="2.5" style="stroke:#181818;stroke-width:0.5;" width="69" x="289.5" y="236.97"/><text fill="#000000" font-family="sans-serif" font-size="14" lengthAdjust="spacing" textLength="63" x="292.5" y="255.5052">Resource</text></g><!--link Thing1 to Context--><g id="link_Thing1_Context"><path codeLine="27" d="M794.5,23.58 C824.56,27.54 877.13,37.83 914,63.48 C939.56,81.27 958.71,113.42 967.92,131.14 " fill="none" id="Thing1-Context" style="stroke:#181818;stroke-width:1.0;"/><polygon fill="#000000" points="941.2491,74.7707,935.1115,67.5056,932.0134,72.5007,941.2491,74.7707" style="stroke:#000000;stroke-width:1.0;"/><text fill="#000000" font-family="sans-serif" font-size="13" lengthAdjust="spacing" textLength="72" x="946" y="77.0484">hasContext</text></g><!--link Thing1 to Importance--><g id="link_Thing1_Importance"><path codeLine="28" d="M747.64,22.8 C701.01,26.45 599.08,37.3 578,63.48 C548.38,100.29 611.43,82.28 624,88.48 C644.83,98.75 663.59,118.54 674.39,131.43 " fill="none" id="Thing1-Importance" style="stroke:#181818;stroke-width:1.0;"/><polygon fill="#000000" points="580.2046,76.2808,587.6982,70.4245,582.8248,67.1383,580.2046,76.2808" style="stroke:#000000;stroke-width:1.0;"/><text fill="#000000" font-family="sans-serif" font-size="13" lengthAdjust="spacing" textLength="93" x="592" y="77.0484">hasImportance</text></g><!--link Thing1 to Necessity--><g id="link_Thing1_Necessity"><path codeLine="29" d="M747.53,29.11 C720.22,39.51 681.01,59.02 699,80.48 C712.05,96.05 726.13,78.82 744,88.48 C763,98.76 779,118.54 788.04,131.43 " fill="none" id="Thing1-Necessity" style="stroke:#181818;stroke-width:1.0;"/><polygon fill="#000000" points="705.8406,76.7842,705.2435,67.2924,699.7784,69.4561,705.8406,76.7842" style="stroke:#000000;stroke-width:1.0;"/><text fill="#000000" font-family="sans-serif" font-size="13" lengthAdjust="spacing" textLength="83" x="713" y="77.0484">hasNecessity</text></g><!--link Thing1 to Entity--><g id="link_Thing1_Entity"><path codeLine="30" d="M784.3,33.91 C797.38,46.2 818.09,65.18 837,80.48 C841.7,84.29 843.76,84.18 848,88.48 C860.86,101.52 872.53,119.19 879.68,130.99 " fill="none" id="Thing1-Entity" style="stroke:#181818;stroke-width:1.0;"/><polygon fill="#000000" points="845.5042,75.7019,841.2615,67.1901,837.0687,71.3095,845.5042,75.7019" style="stroke:#000000;stroke-width:1.0;"/><text fill="#000000" font-family="sans-serif" font-size="13" lengthAdjust="spacing" textLength="58" x="851" y="77.0484">hasEntity</text></g><!--link Technology to Thing2--><g id="link_Technology_Thing2"><path codeLine="31" d="M578.05,158.27 C590.42,170.89 605.04,190.76 595,206.97 C581.63,228.54 553.59,239.45 533.36,244.71 " fill="none" id="Technology-Thing2" style="stroke:#181818;stroke-width:1.0;"/><polygon fill="#000000" points="605.2963,194.1838,598.5316,200.8688,603.7529,203.5683,605.2963,194.1838" style="stroke:#000000;stroke-width:1.0;"/><text fill="#000000" font-family="sans-serif" font-size="13" lengthAdjust="spacing" textLength="95" x="612" y="203.5384">hasTechnology</text></g><!--link Justification to Thing2--><g id="link_Justification_Thing2"><path codeLine="32" d="M448.35,158.41 C453.97,171.14 463.44,191.1 474,206.97 C481.05,217.56 490.4,228.46 497.8,236.54 " fill="none" id="Justification-Thing2" style="stroke:#181818;stroke-width:1.0;"/><polygon fill="#000000" points="476.326,194.4004,478.68,203.615,483.6466,200.4715,476.326,194.4004" style="stroke:#000000;stroke-width:1.0;"/><text fill="#000000" font-family="sans-serif" font-size="13" lengthAdjust="spacing" textLength="98" x="488" y="203.5384">hasJustification</text></g><!--link Frequency to Thing3--><g id="link_Frequency_Thing3"><path codeLine="33" d="M324.82,158.27 C321.8,172.03 315.03,193.9 301,206.97 C273.08,232.98 228.42,243.06 201.29,246.91 " fill="none" id="Frequency-Thing3" style="stroke:#181818;stroke-width:1.0;"/><polygon fill="#000000" points="321.0624,195.7103,312.0001,198.5957,315.4269,203.3713,321.0624,195.7103" style="stroke:#000000;stroke-width:1.0;"/><text fill="#000000" font-family="sans-serif" font-size="13" lengthAdjust="spacing" textLength="86" x="326" y="203.5384">hasFrequency</text></g><!--link Duration to Thing3--><g id="link_Duration_Thing3"><path codeLine="34" d="M215.73,158.42 C207.43,178.39 191.42,216.91 183.18,236.75 " fill="none" id="Duration-Thing3" style="stroke:#181818;stroke-width:1.0;"/><polygon fill="#000000" points="208.9187,194.0081,202.7338,201.2329,208.1617,203.4885,208.9187,194.0081" style="stroke:#000000;stroke-width:1.0;"/><text fill="#000000" font-family="sans-serif" font-size="13" lengthAdjust="spacing" textLength="77" x="216" y="203.5384">hasDuration</text></g><!--link Scope to Thing3--><g id="link_Scope_Thing3"><path codeLine="35" d="M120.68,158.11 C113.17,170.96 104.51,191.32 113,206.97 C121.8,223.18 139.79,234.14 154.62,240.82 " fill="none" id="Scope-Thing3" style="stroke:#181818;stroke-width:1.0;"/><polygon fill="#000000" points="116.1018,193.9996,116.8167,203.4832,122.2545,201.2518,116.1018,193.9996" style="stroke:#000000;stroke-width:1.0;"/><text fill="#000000" font-family="sans-serif" font-size="13" lengthAdjust="spacing" textLength="59" x="127" y="203.5384">hasScope</text></g><!--link Status to Thing3--><g id="link_Status_Thing3"><path codeLine="36" d="M35.49,158.09 C25.59,171.3 13.83,192.3 25,206.97 C40.69,227.58 115.85,240.7 154.67,246.22 " fill="none" id="Status-Thing3" style="stroke:#181818;stroke-width:1.0;"/><polygon fill="#000000" points="25.9798,195.6524,31.505,203.3934,34.9998,198.6673,25.9798,195.6524" style="stroke:#000000;stroke-width:1.0;"/><text fill="#000000" font-family="sans-serif" font-size="13" lengthAdjust="spacing" textLength="61" x="39" y="203.5384">hasStatus</text></g><!--link Thing4 to ActivityStatus--><g id="link_Thing4_ActivityStatus"><path codeLine="37" d="M1367.72,20.74 C1333.12,21.28 1268.12,27.46 1230,63.48 C1210.95,81.49 1205.83,113.54 1204.47,131.2 " fill="none" id="Thing4-ActivityStatus" style="stroke:#181818;stroke-width:1.0;"/><polygon fill="#000000" points="1230.8589,74.9373,1239.9972,72.3025,1236.7033,67.4343,1230.8589,74.9373" style="stroke:#000000;stroke-width:1.0;"/><text fill="#000000" font-family="sans-serif" font-size="13" lengthAdjust="spacing" textLength="109" x="1244" y="77.0484">hasActivityStatus</text></g><!--link Thing4 to AuditStatus--><g id="link_Thing4_AuditStatus"><path codeLine="38" d="M1384.7,33.89 C1372.95,57.48 1347.83,107.93 1336.17,131.33 " fill="none" id="Thing4-AuditStatus" style="stroke:#181818;stroke-width:1.0;"/><polygon fill="#000000" points="1371.7709,76.6109,1378.4341,69.8246,1373.1727,67.2042,1371.7709,76.6109" style="stroke:#000000;stroke-width:1.0;"/><text fill="#000000" font-family="sans-serif" font-size="13" lengthAdjust="spacing" textLength="95" x="1383" y="77.0484">hasAuditStatus</text></g><!--link Thing4 to RequestStatus--><g id="link_Thing4_RequestStatus"><path codeLine="39" d="M1414.23,24.23 C1437.14,28.55 1470.98,38.93 1487,63.48 C1501.11,85.11 1482.84,114.67 1469.87,131.21 " fill="none" id="Thing4-RequestStatus" style="stroke:#181818;stroke-width:1.0;"/><polygon fill="#000000" points="1499.3071,76.5712,1497.7409,67.1905,1492.5262,69.9026,1499.3071,76.5712" style="stroke:#000000;stroke-width:1.0;"/><text fill="#000000" font-family="sans-serif" font-size="13" lengthAdjust="spacing" textLength="111" x="1506" y="77.0484">hasRequestStatus</text></g><!--link Thing4 to ComplianceStatus--><g id="link_Thing4_ComplianceStatus"><path codeLine="40" d="M1414.37,21.8 C1468.35,23.63 1599.14,31.37 1626,63.48 C1642.13,82.77 1628.31,113.75 1618.24,131.03 " fill="none" id="Thing4-ComplianceStatus" style="stroke:#181818;stroke-width:1.0;"/><polygon fill="#000000" points="1642.4073,74.4966,1635.8224,67.6344,1633.0465,72.8154,1642.4073,74.4966" style="stroke:#000000;stroke-width:1.0;"/><text fill="#000000" font-family="sans-serif" font-size="13" lengthAdjust="spacing" textLength="135" x="1647" y="77.0484">hasComplianceStatus</text></g><!--link Thing4 to Lawfulness--><g id="link_Thing4_Lawfulness"><path codeLine="41" d="M1367.61,21.47 C1306,22.55 1141.31,28.71 1102,63.48 C1082.52,80.71 1079.56,113.38 1079.52,131.26 " fill="none" id="Thing4-Lawfulness" style="stroke:#181818;stroke-width:1.0;"/><polygon fill="#000000" points="1102.3278,73.9158,1111.8265,73.441,1109.7333,67.9485,1102.3278,73.9158" style="stroke:#000000;stroke-width:1.0;"/><text fill="#000000" font-family="sans-serif" font-size="13" lengthAdjust="spacing" textLength="92" x="1116" y="77.0484">hasLawfulness</text></g><!--link Thing2 to Resource--><g id="link_Thing2_Resource"><path codeLine="43" d="M486.65,250.22 C454.5,250.22 396.34,250.22 358.99,250.22 " fill="none" id="Thing2-Resource" style="stroke:#181818;stroke-width:1.0;"/><polygon fill="#000000" points="375.75,238.8753,384.7951,241.8142,384.7951,235.9363,375.75,238.8753" style="stroke:#000000;stroke-width:1.0;"/><text fill="#000000" font-family="sans-serif" font-size="13" lengthAdjust="spacing" textLength="79" x="389.75" y="243.7884">hasIdentifier</text></g><!--link Thing2 to Resource--><g id="link_Thing2_Resource"><path codeLine="44" d="M487.28,263.76 C481.73,266.42 475.68,268.82 469.75,270.22 C449.41,274.99 396.28,274.05 375.75,270.22 C368.46,268.86 360.87,266.5 353.83,263.88 " fill="none" id="Thing2-Resource-1" style="stroke:#181818;stroke-width:1.0;"/><polygon fill="#000000" points="375.75,261.8798,384.7977,264.8106,384.7924,258.9327,375.75,261.8798" style="stroke:#000000;stroke-width:1.0;"/><text fill="#000000" font-family="sans-serif" font-size="13" lengthAdjust="spacing" textLength="79" x="389.75" y="266.7884">hasOutcome</text></g><!--link Resource to Thing2--><g id="link_Resource_Thing2"><path codeLine="45" d="M335.18,263.58 C344.73,273.89 359.49,287.34 375.75,293.22 C395.4,300.31 450.59,301.53 469.75,293.22 C483.45,287.28 494.61,274.13 501.68,263.92 " fill="none" id="Resource-Thing2" style="stroke:#181818;stroke-width:1.0;"/><polygon fill="#000000" points="394.25,284.8651,403.2891,287.8225,403.3011,281.9446,394.25,284.8651" style="stroke:#000000;stroke-width:1.0;"/><text fill="#000000" font-family="sans-serif" font-size="13" lengthAdjust="spacing" textLength="42" x="408.25" y="289.7884">isAfter</text></g><!--link Resource to Thing2--><g id="link_Resource_Thing2"><path codeLine="46" d="M353.83,236.55 C360.87,233.93 368.46,231.58 375.75,230.22 C396.28,226.39 449.41,225.44 469.75,230.22 C475.68,231.61 481.73,234.01 487.28,236.67 " fill="none" id="Resource-Thing2-1" style="stroke:#181818;stroke-width:1.0;"/><polygon fill="#000000" points="390.25,215.8708,399.2924,218.8178,399.2977,212.94,390.25,215.8708" style="stroke:#000000;stroke-width:1.0;"/><text fill="#000000" font-family="sans-serif" font-size="13" lengthAdjust="spacing" textLength="50" x="404.25" y="220.7884">isBefore</text></g><!--SRC=[XPB1JiCm44JFv2jCEGU9jYSEIAM0148WqVw0SPpMmh63lIvKY7ydsSHEDXBgRMVcfQvtVAwCqA6GpCDHoyjQSmEXqXdOce5bxnR0LgnGJWfGrcIPqDnxDjlkbTdD6FSCfojsuPK-IFTFFZ-HBqxaovHdDHSVV2TPKH_OJtRMyMjhG7v3b8zLRHrm8sHqNgIGtYiuHkFUm4XjfTWRg-qkEK_1WogLu7ZjtdnmyZD88n9r5nm1DiBMwSmDS0W-gbMpm4DpvCGDXG9glRLd-8cvjbMjLNiZwZ_php9eqzmj-ysolekyoED6hjcU-tvcDsDWs14oWwHOMXnIIL6eMoOItHZZESj3Fjek8eEa65avaiI9y0BXL0M2IL4ereDC51J1nZ37QHBYhhiKnnWlyTgqKiIeDS67hZjsq1GaBm1Hub1u-ZBwngb9FnaU3SA3RB1KY6l_XxV1nGTIIDEM8TsejIdq6a3OIeu8FIQKNvL0Vc0ItyhIklRpFm00]--></g></svg>