<svg xmlns="http://www.w3.org/2000/svg" xmlns:xlink="http://www.w3.org/1999/xlink" contentStyleType="text/css" height="1034px" preserveAspectRatio="none" style="width:2157px;height:1034px;background:#FFFFFF;" version="1.1" viewBox="0 0 2157 1034" width="2157px" zoomAndPan="magnify"><defs/><g><!--cluster ContractPreparationStatus--><g id="cluster_ContractPreparationStatus"><path d="M79.5,787.53 L1314,787.53 A12.5,12.5 0 0 1 1326.5,800.03 L1326.5,811.5979 L67,811.5979 L67,800.03 A12.5,12.5 0 0 1 79.5,787.53 " fill="#FFFFFF" style="stroke:#FFFFFF;stroke-width:1.0;"/><path d="M67,811.5979 L1326.5,811.5979 L1326.5,1008.03 A12.5,12.5 0 0 1 1314,1020.53 L79.5,1020.53 A12.5,12.5 0 0 1 67,1008.03 L67,811.5979 " fill="#FFFFFF" style="stroke:#FFFFFF;stroke-width:1.0;"/><rect fill="none" height="233" rx="12.5" ry="12.5" style="stroke:#000000;stroke-width:1.0;" width="1259.5" x="67" y="787.53"/><line style="stroke:#000000;stroke-width:1.0;" x1="67" x2="1326.5" y1="811.5979" y2="811.5979"/><text fill="#000000" font-family="Verdana" font-size="14" lengthAdjust="spacing" textLength="178" x="607.75" y="806.4959">ContractPreparationStatus</text></g><!--cluster ContractExecutionStatus--><g id="cluster_ContractExecutionStatus"><path d="M744.5,661.53 L2131.5,661.53 A12.5,12.5 0 0 1 2144,674.03 L2144,685.5979 L732,685.5979 L732,674.03 A12.5,12.5 0 0 1 744.5,661.53 " fill="#FFFFFF" style="stroke:#FFFFFF;stroke-width:1.0;"/><path d="M732,685.5979 L2144,685.5979 L2144,743.03 A12.5,12.5 0 0 1 2131.5,755.53 L744.5,755.53 A12.5,12.5 0 0 1 732,743.03 L732,685.5979 " fill="#FFFFFF" style="stroke:#FFFFFF;stroke-width:1.0;"/><rect fill="none" height="94" rx="12.5" ry="12.5" style="stroke:#000000;stroke-width:1.0;" width="1412" x="732" y="661.53"/><line style="stroke:#000000;stroke-width:1.0;" x1="732" x2="2144" y1="685.5979" y2="685.5979"/><text fill="#000000" font-family="Verdana" font-size="14" lengthAdjust="spacing" textLength="164" x="1356" y="680.4959">ContractExecutionStatus</text></g><rect fill="#FFFFFF" height="40" rx="12.5" ry="12.5" style="stroke:#000000;stroke-width:1.0;" width="125" x="1174" y="938.53"/><text fill="#000000" font-family="Verdana" font-size="14" lengthAdjust="spacing" textLength="115" x="1179" y="963.962">ContractRejected</text><rect fill="#FFFFFF" height="40" rx="12.5" ry="12.5" style="stroke:#000000;stroke-width:1.0;" width="118" x="91" y="938.53"/><text fill="#000000" font-family="Verdana" font-size="14" lengthAdjust="spacing" textLength="108" x="96" y="963.962">ContractDrafted</text><rect fill="#FFFFFF" height="40" rx="12.5" ry="12.5" style="stroke:#000000;stroke-width:1.0;" width="119" x="269" y="938.53"/><text fill="#000000" font-family="Verdana" font-size="14" lengthAdjust="spacing" textLength="109" x="274" y="963.962">ContractOffered</text><rect fill="#FFFFFF" height="40" rx="12.5" ry="12.5" style="stroke:#000000;stroke-width:1.0;" width="156" x="448" y="901.53"/><text fill="#000000" font-family="Verdana" font-size="14" lengthAdjust="spacing" textLength="146" x="453" y="926.962">ContractUnderReview</text><rect fill="#FFFFFF" height="40" rx="12.5" ry="12.5" style="stroke:#000000;stroke-width:1.0;" width="188" x="664" y="882.53"/><text fill="#000000" font-family="Verdana" font-size="14" lengthAdjust="spacing" textLength="178" x="669" y="907.962">ContractUnderNegotiation</text><rect fill="#FFFFFF" height="40" rx="12.5" ry="12.5" style="stroke:#000000;stroke-width:1.0;" width="142" x="923" y="882.53"/><text fill="#000000" font-family="Verdana" font-size="14" lengthAdjust="spacing" textLength="132" x="928" y="907.962">ContractNegotiated</text><rect fill="#FFFFFF" height="40" rx="12.5" ry="12.5" style="stroke:#000000;stroke-width:1.0;" width="132" x="1170.5" y="845.53"/><text fill="#000000" font-family="Verdana" font-size="14" lengthAdjust="spacing" textLength="122" x="1175.5" y="870.962">ContractApproved</text><rect fill="#FFFFFF" height="40" rx="12.5" ry="12.5" style="stroke:#000000;stroke-width:1.0;" width="168" x="1152.5" y="699.53"/><text fill="#000000" font-family="Verdana" font-size="14" lengthAdjust="spacing" textLength="158" x="1157.5" y="724.962">ContractPartiallySigned</text><rect fill="#FFFFFF" height="40" rx="12.5" ry="12.5" style="stroke:#000000;stroke-width:1.0;" width="145" x="1580.5" y="699.53"/><text fill="#000000" font-family="Verdana" font-size="14" lengthAdjust="spacing" textLength="135" x="1585.5" y="724.962">ContractFullySigned</text><rect fill="#FFFFFF" height="40" rx="12.5" ry="12.5" style="stroke:#000000;stroke-width:1.0;" width="164" x="912" y="699.53"/><text fill="#000000" font-family="Verdana" font-size="14" lengthAdjust="spacing" textLength="154" x="917" y="724.962">ContractSignedByParty</text><rect fill="#FFFFFF" height="40" rx="12.5" ry="12.5" style="stroke:#000000;stroke-width:1.0;" width="159" x="1969" y="699.53"/><text fill="#000000" font-family="Verdana" font-size="14" lengthAdjust="spacing" textLength="149" x="1974" y="724.962">ContractFullyExecuted</text><ellipse cx="758" cy="719.53" fill="#FFFFFF" rx="10" ry="10" style="stroke:#000000;stroke-width:1.0;"/><ellipse cx="21" cy="819.53" fill="#FFFFFF" rx="10" ry="10" style="stroke:#000000;stroke-width:1.0;"/><path d="M1524,254 L1782,254 A12.5,12.5 0 0 1 1794.5,266.5 L1794.5,283.0679 L1511.5,283.0679 L1511.5,266.5 A12.5,12.5 0 0 1 1524,254 " fill="#FFFFFF" style="stroke:#FFFFFF;stroke-width:1.0;"/><path d="M1511.5,283.0679 L1794.5,283.0679 L1794.5,332.5679 A12.5,12.5 0 0 1 1782,345.0679 L1524,345.0679 A12.5,12.5 0 0 1 1511.5,332.5679 L1511.5,283.0679 " fill="#FFFFFF" style="stroke:#FFFFFF;stroke-width:1.0;"/><rect fill="none" height="91.0679" rx="12.5" ry="12.5" style="stroke:#000000;stroke-width:1.0;" width="283" x="1511.5" y="254"/><line style="stroke:#000000;stroke-width:1.0;" x1="1511.5" x2="1794.5" y1="283.0679" y2="283.0679"/><text fill="#000000" font-family="Verdana" font-size="14" lengthAdjust="spacing" textLength="165" x="1570.5" y="273.9659">ContractActivationStatus</text><rect fill="#FFFFFF" height="40" rx="12.5" ry="12.5" style="stroke:#000000;stroke-width:1.0;" width="120" x="1523.5" y="295.0679"/><text fill="#000000" font-family="Verdana" font-size="14" lengthAdjust="spacing" textLength="110" x="1528.5" y="320.4999">ContractInactive</text><rect fill="#FFFFFF" height="40" rx="12.5" ry="12.5" style="stroke:#000000;stroke-width:1.0;" width="107" x="1679.5" y="295.0679"/><text fill="#000000" font-family="Verdana" font-size="14" lengthAdjust="spacing" textLength="97" x="1684.5" y="320.4999">ContractActive</text><!--link ContractInactive to ContractActive--><g id="link_ContractInactive_ContractActive"><path d="M1643.64,315.0679 C1655.35,315.0679 1661.56,315.0679 1673.04,315.0679 " fill="none" id="ContractInactive-to-ContractActive" style="stroke:#000000;stroke-width:1.0;"/><polygon fill="#000000" points="1679.04,315.0679,1670.04,311.0679,1674.04,315.0679,1670.04,319.0679,1679.04,315.0679" style="stroke:#000000;stroke-width:1.0;"/></g><path d="M1409.5,380 L1896.5,380 A12.5,12.5 0 0 1 1909,392.5 L1909,409.0679 L1397,409.0679 L1397,392.5 A12.5,12.5 0 0 1 1409.5,380 " fill="#FFFFFF" style="stroke:#FFFFFF;stroke-width:1.0;"/><path d="M1397,409.0679 L1909,409.0679 L1909,632.5679 A12.5,12.5 0 0 1 1896.5,645.0679 L1409.5,645.0679 A12.5,12.5 0 0 1 1397,632.5679 L1397,409.0679 " fill="#FFFFFF" style="stroke:#FFFFFF;stroke-width:1.0;"/><rect fill="none" height="265.0679" rx="12.5" ry="12.5" style="stroke:#000000;stroke-width:1.0;" width="512" x="1397" y="380"/><line style="stroke:#000000;stroke-width:1.0;" x1="1397" x2="1909" y1="409.0679" y2="409.0679"/><text fill="#000000" font-family="Verdana" font-size="14" lengthAdjust="spacing" textLength="185" x="1560.5" y="399.9659">ContractPerformanceStatus</text><rect fill="#FFFFFF" height="40" rx="12.5" ry="12.5" style="stroke:#000000;stroke-width:1.0;" width="177" x="1464" y="508.0679"/><text fill="#000000" font-family="Verdana" font-size="14" lengthAdjust="spacing" textLength="167" x="1469" y="533.4999">ContractBeingPerformed</text><rect fill="#FFFFFF" height="40" rx="12.5" ry="12.5" style="stroke:#000000;stroke-width:1.0;" width="132" x="1723" y="421.0679"/><text fill="#000000" font-family="Verdana" font-size="14" lengthAdjust="spacing" textLength="122" x="1728" y="446.4999">ContractAmended</text><rect fill="#FFFFFF" height="40" rx="12.5" ry="12.5" style="stroke:#000000;stroke-width:1.0;" width="224" x="1677" y="479.0679"/><text fill="#000000" font-family="Verdana" font-size="14" lengthAdjust="spacing" textLength="214" x="1682" y="504.4999">ContractTemporarilySuspended</text><rect fill="#FFFFFF" height="40" rx="12.5" ry="12.5" style="stroke:#000000;stroke-width:1.0;" width="129" x="1724.5" y="537.0679"/><text fill="#000000" font-family="Verdana" font-size="14" lengthAdjust="spacing" textLength="119" x="1729.5" y="562.4999">ContractRenewed</text><rect fill="#FFFFFF" height="40" rx="12.5" ry="12.5" style="stroke:#000000;stroke-width:1.0;" width="130" x="1724" y="595.0679"/><text fill="#000000" font-family="Verdana" font-size="14" lengthAdjust="spacing" textLength="120" x="1729" y="620.4999">ContractExtended</text><ellipse cx="1418" cy="528.0679" fill="#FFFFFF" rx="10" ry="10" style="stroke:#000000;stroke-width:1.0;"/><!--link *start*ContractPerformanceStatus to ContractBeingPerformed--><g id="link_*start*ContractPerformanceStatus_ContractBeingPerformed"><path d="M1428.11,528.0679 C1436.29,528.0679 1443.23,528.0679 1457.7,528.0679 " fill="none" id="*start*ContractPerformanceStatus-to-ContractBeingPerformed" style="stroke:#000000;stroke-width:1.0;"/><polygon fill="#000000" points="1463.7,528.0679,1454.7,524.0679,1458.7,528.0679,1454.7,532.0679,1463.7,528.0679" style="stroke:#000000;stroke-width:1.0;"/></g><!--link ContractBeingPerformed to ContractAmended--><g id="link_ContractBeingPerformed_ContractAmended"><path d="M1609.45,507.5679 C1630.3,498.0679 1654.39,487.2479 1677,479.0679 C1695.26,472.4579 1709.9312,468.2921 1728.2612,463.1721 " fill="none" id="ContractBeingPerformed-to-ContractAmended" style="stroke:#000000;stroke-width:1.0;"/><polygon fill="#000000" points="1734.04,461.5579,1724.2957,460.1266,1729.2243,462.903,1726.4479,467.8317,1734.04,461.5579" style="stroke:#000000;stroke-width:1.0;"/></g><!--link ContractBeingPerformed to ContractTemporarilySuspended--><g id="link_ContractBeingPerformed_ContractTemporarilySuspended"><path d="M1641.49,523.7479 C1653.05,522.4679 1659.0773,521.7995 1670.9573,520.2995 " fill="none" id="ContractBeingPerformed-to-ContractTemporarilySuspended" style="stroke:#000000;stroke-width:1.0;"/><polygon fill="#000000" points="1676.91,519.5479,1667.4798,516.7068,1671.9494,520.1743,1668.482,524.6438,1676.91,519.5479" style="stroke:#000000;stroke-width:1.0;"/></g><!--link ContractBeingPerformed to ContractRenewed--><g id="link_ContractBeingPerformed_ContractRenewed"><path d="M1641.49,545.5079 C1668.91,549.2679 1692.6381,552.1983 1718.0881,554.6683 " fill="none" id="ContractBeingPerformed-to-ContractRenewed" style="stroke:#000000;stroke-width:1.0;"/><polygon fill="#000000" points="1724.06,555.2479,1715.4885,550.3972,1719.0834,554.7649,1714.7157,558.3598,1724.06,555.2479" style="stroke:#000000;stroke-width:1.0;"/></g><!--link ContractBeingPerformed to ContractExtended--><g id="link_ContractBeingPerformed_ContractExtended"><path d="M1578.47,548.3479 C1603.01,563.2179 1641.81,582.3279 1677,595.0679 C1691.89,600.4579 1702.4169,603.8516 1717.8769,607.6916 " fill="none" id="ContractBeingPerformed-to-ContractExtended" style="stroke:#000000;stroke-width:1.0;"/><polygon fill="#000000" points="1723.7,609.1379,1715.9296,603.0863,1718.8474,607.9326,1714.0012,610.8504,1723.7,609.1379" style="stroke:#000000;stroke-width:1.0;"/></g><!--link ContractRenewed to ContractBeingPerformed--><g id="link_ContractRenewed_ContractBeingPerformed"><path d="M1724.06,543.0779 C1698.61,539.2479 1674.8737,536.0769 1647.4537,533.0469 " fill="none" id="ContractRenewed-to-ContractBeingPerformed" style="stroke:#000000;stroke-width:1.0;"/><polygon fill="#000000" points="1641.49,532.3879,1649.9962,537.3522,1646.4597,532.9371,1650.8749,529.4006,1641.49,532.3879" style="stroke:#000000;stroke-width:1.0;"/></g><!--link ContractExtended to ContractBeingPerformed--><g id="link_ContractExtended_ContractBeingPerformed"><path d="M1734.04,594.5779 C1715.71,589.4579 1695.26,583.6779 1677,577.0679 C1654.39,568.8879 1635.76,560.5557 1614.91,551.0557 " fill="none" id="ContractExtended-to-ContractBeingPerformed" style="stroke:#000000;stroke-width:1.0;"/><polygon fill="#000000" points="1609.45,548.5679,1615.9814,555.9395,1614,550.641,1619.2984,548.6596,1609.45,548.5679" style="stroke:#000000;stroke-width:1.0;"/></g><!--link ContractTemporarilySuspended to ContractBeingPerformed--><g id="link_ContractTemporarilySuspended_ContractBeingPerformed"><path d="M1676.51,506.1079 C1664.76,507.5379 1658.8642,508.2414 1647.4342,509.8114 " fill="none" id="ContractTemporarilySuspended-to-ContractBeingPerformed" style="stroke:#000000;stroke-width:1.0;"/><polygon fill="#000000" points="1641.49,510.6279,1650.9506,513.366,1646.4435,509.9475,1649.862,505.4404,1641.49,510.6279" style="stroke:#000000;stroke-width:1.0;"/></g><!--link ContractAmended to ContractBeingPerformed--><g id="link_ContractAmended_ContractBeingPerformed"><path d="M1722.53,447.2879 C1707.41,451.0879 1691.51,455.8179 1677,461.0679 C1641.81,473.8079 1608.1414,489.8085 1583.6014,504.6785 " fill="none" id="ContractAmended-to-ContractBeingPerformed" style="stroke:#000000;stroke-width:1.0;"/><polygon fill="#000000" points="1578.47,507.7879,1588.2401,506.5448,1582.7462,505.1968,1584.0942,499.7029,1578.47,507.7879" style="stroke:#000000;stroke-width:1.0;"/></g><path d="M1148.5,167 L1324.5,167 A12.5,12.5 0 0 1 1337,179.5 L1337,196.0679 L1136,196.0679 L1136,179.5 A12.5,12.5 0 0 1 1148.5,167 " fill="#FFFFFF" style="stroke:#FFFFFF;stroke-width:1.0;"/><path d="M1136,196.0679 L1337,196.0679 L1337,419.5679 A12.5,12.5 0 0 1 1324.5,432.0679 L1148.5,432.0679 A12.5,12.5 0 0 1 1136,419.5679 L1136,196.0679 " fill="#FFFFFF" style="stroke:#FFFFFF;stroke-width:1.0;"/><rect fill="none" height="265.0679" rx="12.5" ry="12.5" style="stroke:#000000;stroke-width:1.0;" width="201" x="1136" y="167"/><line style="stroke:#000000;stroke-width:1.0;" x1="1136" x2="1337" y1="196.0679" y2="196.0679"/><text fill="#000000" font-family="Verdana" font-size="14" lengthAdjust="spacing" textLength="181" x="1146" y="186.9659">ContractTerminationStatus</text><rect fill="#FFFFFF" height="40" rx="12.5" ry="12.5" style="stroke:#000000;stroke-width:1.0;" width="145" x="1148" y="382.0679"/><text fill="#000000" font-family="Verdana" font-size="14" lengthAdjust="spacing" textLength="135" x="1153" y="407.4999">ContractTerminated</text><rect fill="#FFFFFF" height="40" rx="12.5" ry="12.5" style="stroke:#000000;stroke-width:1.0;" width="118" x="1161.5" y="324.0679"/><text fill="#000000" font-family="Verdana" font-size="14" lengthAdjust="spacing" textLength="108" x="1166.5" y="349.4999">ContractExpired</text><rect fill="#FFFFFF" height="40" rx="12.5" ry="12.5" style="stroke:#000000;stroke-width:1.0;" width="131" x="1155" y="266.0679"/><text fill="#000000" font-family="Verdana" font-size="14" lengthAdjust="spacing" textLength="121" x="1160" y="291.4999">ContractBreached</text><rect fill="#FFFFFF" height="40" rx="12.5" ry="12.5" style="stroke:#000000;stroke-width:1.0;" width="128" x="1156.5" y="208.0679"/><text fill="#000000" font-family="Verdana" font-size="14" lengthAdjust="spacing" textLength="118" x="1161.5" y="233.4999">ContractDisputed</text><path d="M1481.5,12 L1824.5,12 A12.5,12.5 0 0 1 1837,24.5 L1837,41.0679 L1469,41.0679 L1469,24.5 A12.5,12.5 0 0 1 1481.5,12 " fill="#FFFFFF" style="stroke:#FFFFFF;stroke-width:1.0;"/><path d="M1469,41.0679 L1837,41.0679 L1837,206.5679 A12.5,12.5 0 0 1 1824.5,219.0679 L1481.5,219.0679 A12.5,12.5 0 0 1 1469,206.5679 L1469,41.0679 " fill="#FFFFFF" style="stroke:#FFFFFF;stroke-width:1.0;"/><rect fill="none" height="207.0679" rx="12.5" ry="12.5" style="stroke:#000000;stroke-width:1.0;" width="368" x="1469" y="12"/><line style="stroke:#000000;stroke-width:1.0;" x1="1469" x2="1837" y1="41.0679" y2="41.0679"/><text fill="#000000" font-family="Verdana" font-size="14" lengthAdjust="spacing" textLength="167" x="1569.5" y="31.9659">ContractFulfilmentStatus</text><rect fill="#FFFFFF" height="40" rx="12.5" ry="12.5" style="stroke:#000000;stroke-width:1.0;" width="117" x="1700" y="53.0679"/><text fill="#000000" font-family="Verdana" font-size="14" lengthAdjust="spacing" textLength="107" x="1705" y="78.4999">ContractFulfiled</text><rect fill="#FFFFFF" height="40" rx="12.5" ry="12.5" style="stroke:#000000;stroke-width:1.0;" width="171" x="1481" y="111.0679"/><text fill="#000000" font-family="Verdana" font-size="14" lengthAdjust="spacing" textLength="161" x="1486" y="136.4999">ContractPartiallyFulfiled</text><rect fill="#FFFFFF" height="40" rx="12.5" ry="12.5" style="stroke:#000000;stroke-width:1.0;" width="141" x="1688" y="111.0679"/><text fill="#000000" font-family="Verdana" font-size="14" lengthAdjust="spacing" textLength="131" x="1693" y="136.4999">ContractNotFulfiled</text><rect fill="#FFFFFF" height="40" rx="12.5" ry="12.5" style="stroke:#000000;stroke-width:1.0;" width="121" x="1698" y="169.0679"/><text fill="#000000" font-family="Verdana" font-size="14" lengthAdjust="spacing" textLength="111" x="1703" y="194.4999">ContractViolated</text><!--link ContractPartiallyFulfiled to ContractFulfiled--><g id="link_ContractPartiallyFulfiled_ContractFulfiled"><path d="M1634.49,110.6179 C1655.75,104.1279 1673.3309,98.7581 1693.8909,92.4881 " fill="none" id="ContractPartiallyFulfiled-to-ContractFulfiled" style="stroke:#000000;stroke-width:1.0;"/><polygon fill="#000000" points="1699.63,90.7379,1689.8546,89.5372,1694.8474,92.1964,1692.1882,97.1892,1699.63,90.7379" style="stroke:#000000;stroke-width:1.0;"/></g><!--link ContractPartiallyFulfiled to ContractNotFulfiled--><g id="link_ContractPartiallyFulfiled_ContractNotFulfiled"><path d="M1652.5,131.0679 C1664.25,131.0679 1670.22,131.0679 1681.66,131.0679 " fill="none" id="ContractPartiallyFulfiled-to-ContractNotFulfiled" style="stroke:#000000;stroke-width:1.0;"/><polygon fill="#000000" points="1687.66,131.0679,1678.66,127.0679,1682.66,131.0679,1678.66,135.0679,1687.66,131.0679" style="stroke:#000000;stroke-width:1.0;"/></g><!--link ContractPartiallyFulfiled to ContractViolated--><g id="link_ContractPartiallyFulfiled_ContractViolated"><path d="M1634.49,151.5179 C1655.11,157.8079 1671.921,162.9477 1692.021,169.0777 " fill="none" id="ContractPartiallyFulfiled-to-ContractViolated" style="stroke:#000000;stroke-width:1.0;"/><polygon fill="#000000" points="1697.76,170.8279,1690.3183,164.3765,1692.9775,169.3694,1687.9846,172.0285,1697.76,170.8279" style="stroke:#000000;stroke-width:1.0;"/></g><!--link *start* to ContractPreparationStatus--><g id="link_*start*_ContractPreparationStatus"><path d="M31.13,819.53 C37.9,819.53 47.89,819.53 59.2377,819.53 C60.6561,819.53 62.0958,819.53 63.553,819.53 C64.2817,819.53 65.0147,819.53 65.7516,819.53 C66.1201,819.53 60.4896,819.53 60.86,819.53 " fill="none" id="*start*-to-ContractPreparationStatus" style="stroke:#000000;stroke-width:1.0;"/><polygon fill="#000000" points="66.86,819.53,57.86,815.53,61.86,819.53,57.86,823.53,66.86,819.53" style="stroke:#000000;stroke-width:1.0;"/></g><!--link ContractNegotiated to ContractRejected--><g id="link_ContractNegotiated_ContractRejected"><path d="M1065.21,918.88 C1099.59,926.88 1134.7762,935.0799 1167.9462,942.7999 " fill="none" id="ContractNegotiated-to-ContractRejected" style="stroke:#000000;stroke-width:1.0;"/><polygon fill="#000000" points="1173.79,944.16,1165.931,938.224,1168.9202,943.0266,1164.1176,946.0157,1173.79,944.16" style="stroke:#000000;stroke-width:1.0;"/></g><!--link ContractDrafted to ContractOffered--><g id="link_ContractDrafted_ContractOffered"><path d="M209.28,958.53 C228.36,958.53 243.56,958.53 262.68,958.53 " fill="none" id="ContractDrafted-to-ContractOffered" style="stroke:#000000;stroke-width:1.0;"/><polygon fill="#000000" points="268.68,958.53,259.68,954.53,263.68,958.53,259.68,962.53,268.68,958.53" style="stroke:#000000;stroke-width:1.0;"/></g><!--link ContractOffered to ContractUnderReview--><g id="link_ContractOffered_ContractUnderReview"><path d="M388.42,947.38 C407.08,943.85 422.1048,941.0064 441.8548,937.2664 " fill="none" id="ContractOffered-to-ContractUnderReview" style="stroke:#000000;stroke-width:1.0;"/><polygon fill="#000000" points="447.75,936.15,438.1629,933.8944,442.8373,937.0803,439.6514,941.7547,447.75,936.15" style="stroke:#000000;stroke-width:1.0;"/></g><!--link ContractOffered to ContractRejected--><g id="link_ContractOffered_ContractRejected"><path d="M388.06,960.33 C513.96,963.91 819.77,971.15 1076,965.53 C1108.28,964.82 1138.2271,963.6018 1167.7971,962.1618 " fill="none" id="ContractOffered-to-ContractRejected" style="stroke:#000000;stroke-width:1.0;"/><polygon fill="#000000" points="1173.79,961.87,1164.6061,958.3125,1168.7959,962.1132,1164.9952,966.303,1173.79,961.87" style="stroke:#000000;stroke-width:1.0;"/></g><!--link ContractUnderReview to ContractUnderNegotiation--><g id="link_ContractUnderReview_ContractUnderNegotiation"><path d="M604.23,915.15 C623.28,913.58 637.9104,912.364 657.6404,910.734 " fill="none" id="ContractUnderReview-to-ContractUnderNegotiation" style="stroke:#000000;stroke-width:1.0;"/><polygon fill="#000000" points="663.62,910.24,654.3212,906.9946,658.637,910.6517,654.9799,914.9674,663.62,910.24" style="stroke:#000000;stroke-width:1.0;"/></g><!--link ContractUnderReview to ContractApproved--><g id="link_ContractUnderReview_ContractApproved"><path d="M564.69,901.09 C591.51,887.75 628.89,871.54 664,864.53 C844.49,828.48 1057.5171,844.5342 1164.4471,856.4742 " fill="none" id="ContractUnderReview-to-ContractApproved" style="stroke:#000000;stroke-width:1.0;"/><polygon fill="#000000" points="1170.41,857.14,1161.9095,852.166,1165.4409,856.5851,1161.0217,860.1165,1170.41,857.14" style="stroke:#000000;stroke-width:1.0;"/></g><!--link ContractUnderReview to ContractRejected--><g id="link_ContractUnderReview_ContractRejected"><path d="M604.36,933.72 C623.79,936.38 644.62,938.89 664,940.53 C848.97,956.22 1062.65,958.582 1167.64,958.722 " fill="none" id="ContractUnderReview-to-ContractRejected" style="stroke:#000000;stroke-width:1.0;"/><polygon fill="#000000" points="1173.64,958.73,1164.6453,954.718,1168.64,958.7233,1164.6347,962.718,1173.64,958.73" style="stroke:#000000;stroke-width:1.0;"/></g><!--link ContractUnderNegotiation to ContractNegotiated--><g id="link_ContractUnderNegotiation_ContractNegotiated"><path d="M852.49,902.53 C875.92,902.53 894.65,902.53 916.73,902.53 " fill="none" id="ContractUnderNegotiation-to-ContractNegotiated" style="stroke:#000000;stroke-width:1.0;"/><polygon fill="#000000" points="922.73,902.53,913.73,898.53,917.73,902.53,913.73,906.53,922.73,902.53" style="stroke:#000000;stroke-width:1.0;"/></g><!--link ContractNegotiated to ContractApproved--><g id="link_ContractNegotiated_ContractApproved"><path d="M1065.21,891.73 C1098.35,886.63 1131.7198,881.4923 1164.2198,876.4923 " fill="none" id="ContractNegotiated-to-ContractApproved" style="stroke:#000000;stroke-width:1.0;"/><polygon fill="#000000" points="1170.15,875.58,1160.6464,872.995,1165.2081,876.3403,1161.8629,880.902,1170.15,875.58" style="stroke:#000000;stroke-width:1.0;"/></g><!--link *start*ContractExecutionStatus to ContractSignedByParty--><g id="link_*start*ContractExecutionStatus_ContractSignedByParty"><path d="M768.46,719.53 C792.45,719.53 851.54,719.53 905.51,719.53 " fill="none" id="*start*ContractExecutionStatus-to-ContractSignedByParty" style="stroke:#000000;stroke-width:1.0;"/><polygon fill="#000000" points="911.51,719.53,902.51,715.53,906.51,719.53,902.51,723.53,911.51,719.53" style="stroke:#000000;stroke-width:1.0;"/></g><!--link ContractSignedByParty to ContractPartiallySigned--><g id="link_ContractSignedByParty_ContractPartiallySigned"><path d="M1076.42,719.53 C1100.81,719.53 1121.6,719.53 1146.11,719.53 " fill="none" id="ContractSignedByParty-to-ContractPartiallySigned" style="stroke:#000000;stroke-width:1.0;"/><polygon fill="#000000" points="1152.11,719.53,1143.11,715.53,1147.11,719.53,1143.11,723.53,1152.11,719.53" style="stroke:#000000;stroke-width:1.0;"/></g><!--link ContractPartiallySigned to ContractFullySigned--><g id="link_ContractPartiallySigned_ContractFullySigned"><path d="M1320.88,719.53 C1396.89,719.53 1502,719.53 1574.16,719.53 " fill="none" id="ContractPartiallySigned-to-ContractFullySigned" style="stroke:#000000;stroke-width:1.0;"/><polygon fill="#000000" points="1580.16,719.53,1571.16,715.53,1575.16,719.53,1571.16,723.53,1580.16,719.53" style="stroke:#000000;stroke-width:1.0;"/></g><!--link ContractFullySigned to ContractFullyExecuted--><g id="link_ContractFullySigned_ContractFullyExecuted"><path d="M1725.72,719.53 C1794.33,719.53 1891.57,719.53 1962.51,719.53 " fill="none" id="ContractFullySigned-to-ContractFullyExecuted" style="stroke:#000000;stroke-width:1.0;"/><polygon fill="#000000" points="1968.51,719.53,1959.51,715.53,1963.51,719.53,1959.51,723.53,1968.51,719.53" style="stroke:#000000;stroke-width:1.0;"/></g><!--reverse link ContractSignedByParty to ContractApproved--><g id="link_ContractSignedByParty_ContractApproved"><path d="M1033.8191,743.0932 C1079.7191,770.9532 1156.26,817.43 1202.03,845.21 " fill="none" id="ContractSignedByParty-backto-ContractApproved" style="stroke:#FF0000;stroke-width:1.0;"/><polygon fill="#FF0000" points="1028.69,739.98,1034.3082,748.0693,1032.9643,742.5744,1038.4592,741.2304,1028.69,739.98" style="stroke:#FF0000;stroke-width:1.0;"/></g><!--reverse link ContractActivationStatus to ContractFullyExecuted--><g id="link_ContractActivationStatus_ContractFullyExecuted"><path d="M1800.618,311.0776 C1841.338,320.0976 1877.41,334.74 1909,362.53 C2014.57,455.4 2040.24,638.49 2045.97,699.34 " fill="none" id="ContractActivationStatus-backto-ContractFullyExecuted" style="stroke:#FF0000;stroke-width:1.0;"/><polygon fill="#FF0000" points="1794.76,309.78,1802.6819,315.6318,1799.6417,310.8614,1804.4121,307.8211,1794.76,309.78" style="stroke:#FF0000;stroke-width:1.0;"/></g><!--link ContractActivationStatus to ContractPerformanceStatus--><g id="link_ContractActivationStatus_ContractPerformanceStatus"><path d="M1653,345.32 C1653,356.82 1653,362.32 1653,373.82 " fill="none" id="ContractActivationStatus-to-ContractPerformanceStatus" style="stroke:#FF0000;stroke-width:1.0;"/><polygon fill="#FF0000" points="1653,379.82,1657,370.82,1653,374.82,1649,370.82,1653,379.82" style="stroke:#FF0000;stroke-width:1.0;"/></g><!--link ContractActivationStatus to ContractTerminationStatus--><g id="link_ContractActivationStatus_ContractTerminationStatus"><path d="M1511.14,299.53 C1454.04,299.53 1395.41,299.53 1343.31,299.53 " fill="none" id="ContractActivationStatus-to-ContractTerminationStatus" style="stroke:#FF0000;stroke-width:1.0;"/><polygon fill="#FF0000" points="1337.31,299.53,1346.31,303.53,1342.31,299.53,1346.31,295.53,1337.31,299.53" style="stroke:#FF0000;stroke-width:1.0;"/></g><!--link ContractPerformanceStatus to ContractTerminationStatus--><g id="link_ContractPerformanceStatus_ContractTerminationStatus"><path d="M1396.87,381.43 C1376.03,370.72 1361.2169,363.1018 1342.6469,353.5618 " fill="none" id="ContractPerformanceStatus-to-ContractTerminationStatus" style="stroke:#FF0000;stroke-width:1.0;"/><polygon fill="#FF0000" points="1337.31,350.82,1343.4876,358.4906,1341.7574,353.1048,1347.1432,351.3747,1337.31,350.82" style="stroke:#FF0000;stroke-width:1.0;"/></g><!--reverse link ContractFulfilmentStatus to ContractActivationStatus--><g id="link_ContractFulfilmentStatus_ContractActivationStatus"><path d="M1653,225.3 C1653,236.71 1653,242.12 1653,253.53 " fill="none" id="ContractFulfilmentStatus-backto-ContractActivationStatus" style="stroke:#FF0000;stroke-width:1.0;"/><polygon fill="#FF0000" points="1653,219.3,1649,228.3,1653,224.3,1657,228.3,1653,219.3" style="stroke:#FF0000;stroke-width:1.0;"/></g><!--reverse link ContractFulfilmentStatus to ContractPerformanceStatus--><g id="link_ContractFulfilmentStatus_ContractPerformanceStatus"><path d="M1463.1579,168.432 C1422.9379,188.812 1391.33,214.52 1369.75,254.03 C1350.36,289.52 1350.36,309.54 1369.75,345.03 C1377.21,358.69 1386.3,371.34 1396.57,383.05 " fill="none" id="ContractFulfilmentStatus-backto-ContractPerformanceStatus" style="stroke:#FF0000;stroke-width:1.0;"/><polygon fill="#FF0000" points="1468.51,165.72,1458.6738,166.2199,1464.0499,167.98,1462.2898,173.3561,1468.51,165.72" style="stroke:#FF0000;stroke-width:1.0;"/></g><!--reverse link ContractTerminationStatus to ContractFulfilmentStatus--><g id="link_ContractTerminationStatus_ContractFulfilmentStatus"><path d="M1342.7944,252.7865 C1382.3244,235.2465 1423.57,216.93 1468.76,196.87 " fill="none" id="ContractTerminationStatus-backto-ContractFulfilmentStatus" style="stroke:#FF0000;stroke-width:1.0;"/><polygon fill="#FF0000" points="1337.31,255.22,1347.1589,255.226,1341.8803,253.1921,1343.9142,247.9135,1337.31,255.22" style="stroke:#FF0000;stroke-width:1.0;"/></g><!--SRC=[bLR1Rk8m4BtxArpjhHA_i18ih5HfrIBQtKlLWvLCm5LYMuv3Yoh-VKs091wFGtf2clTcUEzvRBXpEwY0cr98nLW9XUDESoktEyTpQI5pKYksapbmg8mxy1pgp4hJbjbT3eLKm1-Mg_aV_cEpMZBsUl_6PxEV_9TMpehChIqOOSMfuTa9rzICrVuJqWJ-nJWFEHjuzr8WZu2b5GLLVoeAi4Jzhyh1Rc0luOF67c6hdMpLH8GhHioT6sFrlWLYTf37m0eo4T1w0wWIi48xOqpYQmVDyT0mXrijXFqKDILay8K1FmZzThoTaYFUizKdPCtebgs5zHFByl0ijueuvDzD6ZkN5uVJZ0FTUHRGzk9BWhl9UdYj8gq99EWA7H3LcDsfFZASCPyrvhMz-sz9B-WGvlv1sUExZjDwKE940mAQzm1cXsjmvlMQ0o-qSAoD9KNFsWSodh06MsXR2PL1ugt31DB_0gJQNgZjGKKfLE2l38My-5TQMs6bFz2cDYdQ1XHyaCZgq_LDU4q9OJGKdiL0xGHwqiA4tg6l2VJ0B9enrVXrnbG-PMzgxoN9CRf_zj9h6s_i2zXAAchfurMTrCxmFY82kV1NLc8ZZRGaih0WiXq9BMLjBg_MI1wd_pknAVzK5BBqKRlRaNnp0WPI0sxc6WsYOZsJo7ow7uaHpgCUc_1Fwh8xiUHO_7lIJvlMWZLCw-gq7Tb_]--></g></svg>