<svg xmlns="http://www.w3.org/2000/svg" xmlns:xlink="http://www.w3.org/1999/xlink" contentStyleType="text/css" data-diagram-type="STATE" height="1020px" preserveAspectRatio="none" style="width:2212px;height:1020px;background:#FFFFFF;" version="1.1" viewBox="0 0 2212 1020" width="2212px" zoomAndPan="magnify"><defs/><g><!--cluster ContractPreparationStatus--><g class="cluster" data-entity="ContractPreparationStatus" data-source-line="10" data-uid="ent0002" id="cluster_ContractPreparationStatus"><path d="M79.5,779.51 L1347.02,779.51 A12.5,12.5 0 0 1 1359.52,792.01 L1359.52,801.5246 L67,801.5246 L67,792.01 A12.5,12.5 0 0 1 79.5,779.51" fill="#FFFFFF"/><path d="M67,801.5246 L1359.52,801.5246 L1359.52,994.01 A12.5,12.5 0 0 1 1347.02,1006.51 L79.5,1006.51 A12.5,12.5 0 0 1 67,994.01 L67,801.5246" fill="#FFFFFF"/><rect fill="none" height="227" rx="12.5" ry="12.5" style="stroke:#000000;stroke-width:1;" width="1292.52" x="67" y="779.51"/><line style="stroke:#000000;stroke-width:1;" x1="67" x2="1359.52" y1="801.5246" y2="801.5246"/><text fill="#000000" font-family="Verdana" font-size="14" lengthAdjust="spacing" textLength="185.9922" x="620.2639" y="797.5852">ContractPreparationStatus</text></g><!--cluster ContractExecutionStatus--><g class="cluster" data-entity="ContractExecutionStatus" data-source-line="30" data-uid="ent0010" id="cluster_ContractExecutionStatus"><path d="M760.33,655.51 L2186.73,655.51 A12.5,12.5 0 0 1 2199.23,668.01 L2199.23,677.5246 L747.83,677.5246 L747.83,668.01 A12.5,12.5 0 0 1 760.33,655.51" fill="#FFFFFF"/><path d="M747.83,677.5246 L2199.23,677.5246 L2199.23,735.01 A12.5,12.5 0 0 1 2186.73,747.51 L760.33,747.51 A12.5,12.5 0 0 1 747.83,735.01 L747.83,677.5246" fill="#FFFFFF"/><rect fill="none" height="92" rx="12.5" ry="12.5" style="stroke:#000000;stroke-width:1;" width="1451.4" x="747.83" y="655.51"/><line style="stroke:#000000;stroke-width:1;" x1="747.83" x2="2199.23" y1="677.5246" y2="677.5246"/><text fill="#000000" font-family="Verdana" font-size="14" lengthAdjust="spacing" textLength="173.3525" x="1386.8537" y="673.5852">ContractExecutionStatus</text></g><rect fill="#FFFFFF" height="40" rx="12.5" ry="12.5" style="stroke:#000000;stroke-width:1;" width="130.9482" x="1201.71" y="924.51"/><text fill="#000000" font-family="Verdana" font-size="14" lengthAdjust="spacing" textLength="120.9482" x="1206.71" y="950.0779">ContractRejected</text><rect fill="#FFFFFF" height="40" rx="12.5" ry="12.5" style="stroke:#000000;stroke-width:1;" width="122.5127" x="91" y="924.51"/><text fill="#000000" font-family="Verdana" font-size="14" lengthAdjust="spacing" textLength="112.5127" x="96" y="950.0779">ContractDrafted</text><rect fill="#FFFFFF" height="40" rx="12.5" ry="12.5" style="stroke:#000000;stroke-width:1;" width="122.082" x="273.51" y="924.51"/><text fill="#000000" font-family="Verdana" font-size="14" lengthAdjust="spacing" textLength="112.082" x="278.51" y="950.0779">ContractOffered</text><rect fill="#FFFFFF" height="40" rx="12.5" ry="12.5" style="stroke:#000000;stroke-width:1;" width="161.9834" x="455.59" y="887.51"/><text fill="#000000" font-family="Verdana" font-size="14" lengthAdjust="spacing" textLength="151.9834" x="460.59" y="913.0779">ContractUnderReview</text><rect fill="#FFFFFF" height="40" rx="12.5" ry="12.5" style="stroke:#000000;stroke-width:1;" width="192.499" x="677.58" y="868.51"/><text fill="#000000" font-family="Verdana" font-size="14" lengthAdjust="spacing" textLength="182.499" x="682.58" y="894.0779">ContractUnderNegotiation</text><rect fill="#FFFFFF" height="40" rx="12.5" ry="12.5" style="stroke:#000000;stroke-width:1;" width="146.2197" x="943.17" y="868.51"/><text fill="#000000" font-family="Verdana" font-size="14" lengthAdjust="spacing" textLength="136.2197" x="948.17" y="894.0779">ContractNegotiated</text><rect fill="#FFFFFF" height="40" rx="12.5" ry="12.5" style="stroke:#000000;stroke-width:1;" width="136.6768" x="1198.84" y="831.51"/><text fill="#000000" font-family="Verdana" font-size="14" lengthAdjust="spacing" textLength="126.6768" x="1203.84" y="857.0779">ContractApproved</text><rect fill="#FFFFFF" height="40" rx="12.5" ry="12.5" style="stroke:#000000;stroke-width:1;" width="174.459" x="1179.95" y="691.51"/><text fill="#000000" font-family="Verdana" font-size="14" lengthAdjust="spacing" textLength="164.459" x="1184.95" y="717.0779">ContractPartiallySigned</text><rect fill="#FFFFFF" height="40" rx="12.5" ry="12.5" style="stroke:#000000;stroke-width:1;" width="150.7725" x="1618.7" y="691.51"/><text fill="#000000" font-family="Verdana" font-size="14" lengthAdjust="spacing" textLength="140.7725" x="1623.7" y="717.0779">ContractFullySigned</text><rect fill="#FFFFFF" height="40" rx="12.5" ry="12.5" style="stroke:#000000;stroke-width:1;" width="172.4082" x="930.08" y="691.51"/><text fill="#000000" font-family="Verdana" font-size="14" lengthAdjust="spacing" textLength="162.4082" x="935.08" y="717.0779">ContractSignedByParty</text><rect fill="#FFFFFF" height="40" rx="12.5" ry="12.5" style="stroke:#000000;stroke-width:1;" width="166.9258" x="2016.31" y="691.51"/><text fill="#000000" font-family="Verdana" font-size="14" lengthAdjust="spacing" textLength="156.9258" x="2021.31" y="717.0779">ContractFullyExecuted</text><ellipse cx="773.83" cy="711.51" fill="#FFFFFF" rx="10" ry="10" style="stroke:#000000;stroke-width:1;"/><path d="M1559.11,252 L1829.0795,252 A12.5,12.5 0 0 1 1841.5795,264.5 L1841.5795,279.0146 L1546.61,279.0146 L1546.61,264.5 A12.5,12.5 0 0 1 1559.11,252" fill="#FFFFFF"/><path d="M1546.61,279.0146 L1841.5795,279.0146 L1841.5795,328.5146 A12.5,12.5 0 0 1 1829.0795,341.0146 L1559.11,341.0146 A12.5,12.5 0 0 1 1546.61,328.5146 L1546.61,279.0146" fill="#FFFFFF"/><rect fill="none" height="89.0146" rx="12.5" ry="12.5" style="stroke:#000000;stroke-width:1;" width="294.9695" x="1546.61" y="252"/><line style="stroke:#000000;stroke-width:1;" x1="1546.61" x2="1841.5795" y1="279.0146" y2="279.0146"/><text fill="#000000" font-family="Verdana" font-size="14" lengthAdjust="spacing" textLength="174.6377" x="1606.7759" y="271.0752">ContractActivationStatus</text><rect fill="#FFFFFF" height="40" rx="12.5" ry="12.5" style="stroke:#000000;stroke-width:1;" width="126.2793" x="1558.61" y="291.0146"/><text fill="#000000" font-family="Verdana" font-size="14" lengthAdjust="spacing" textLength="116.2793" x="1563.61" y="316.5825">ContractInactive</text><rect fill="#FFFFFF" height="40" rx="12.5" ry="12.5" style="stroke:#000000;stroke-width:1;" width="112.6895" x="1720.89" y="291.0146"/><text fill="#000000" font-family="Verdana" font-size="14" lengthAdjust="spacing" textLength="102.6895" x="1725.89" y="316.5825">ContractActive</text><!--link ContractInactive to ContractActive--><g class="link" data-entity-1="ContractInactive" data-entity-2="ContractActive" data-source-line="45" data-uid="lnk20" id="link_ContractInactive_ContractActive"><path d="M1685.18,311.0146 C1696.96,311.0146 1703.21,311.0146 1714.77,311.0146" fill="none" id="ContractInactive-to-ContractActive" style="stroke:#000000;stroke-width:1;"/><polygon fill="#000000" points="1720.77,311.0146,1711.77,307.0146,1715.77,311.0146,1711.77,315.0146,1720.77,311.0146" style="stroke:#000000;stroke-width:1;"/></g><path d="M1444.38,376 L1943.8123,376 A12.5,12.5 0 0 1 1956.3123,388.5 L1956.3123,403.0146 L1431.88,403.0146 L1431.88,388.5 A12.5,12.5 0 0 1 1444.38,376" fill="#FFFFFF"/><path d="M1431.88,403.0146 L1956.3123,403.0146 L1956.3123,626.5146 A12.5,12.5 0 0 1 1943.8123,639.0146 L1444.38,639.0146 A12.5,12.5 0 0 1 1431.88,626.5146 L1431.88,403.0146" fill="#FFFFFF"/><rect fill="none" height="263.0146" rx="12.5" ry="12.5" style="stroke:#000000;stroke-width:1;" width="524.4323" x="1431.88" y="376"/><line style="stroke:#000000;stroke-width:1;" x1="1431.88" x2="1956.3123" y1="403.0146" y2="403.0146"/><text fill="#000000" font-family="Verdana" font-size="14" lengthAdjust="spacing" textLength="193.6758" x="1597.2583" y="395.0752">ContractPerformanceStatus</text><rect fill="#FFFFFF" height="40" rx="12.5" ry="12.5" style="stroke:#000000;stroke-width:1;" width="182.0332" x="1498.88" y="502.0146"/><text fill="#000000" font-family="Verdana" font-size="14" lengthAdjust="spacing" textLength="172.0332" x="1503.88" y="527.5825">ContractBeingPerformed</text><rect fill="#FFFFFF" height="40" rx="12.5" ry="12.5" style="stroke:#000000;stroke-width:1;" width="136.0137" x="1764.61" y="415.0146"/><text fill="#000000" font-family="Verdana" font-size="14" lengthAdjust="spacing" textLength="126.0137" x="1769.61" y="440.5825">ContractAmended</text><rect fill="#FFFFFF" height="40" rx="12.5" ry="12.5" style="stroke:#000000;stroke-width:1;" width="231.4023" x="1716.91" y="473.0146"/><text fill="#000000" font-family="Verdana" font-size="14" lengthAdjust="spacing" textLength="221.4023" x="1721.91" y="498.5825">ContractTemporarilySuspended</text><rect fill="#FFFFFF" height="40" rx="12.5" ry="12.5" style="stroke:#000000;stroke-width:1;" width="133.6348" x="1765.8" y="531.0146"/><text fill="#000000" font-family="Verdana" font-size="14" lengthAdjust="spacing" textLength="123.6348" x="1770.8" y="556.5825">ContractRenewed</text><rect fill="#FFFFFF" height="40" rx="12.5" ry="12.5" style="stroke:#000000;stroke-width:1;" width="135.4805" x="1764.87" y="589.0146"/><text fill="#000000" font-family="Verdana" font-size="14" lengthAdjust="spacing" textLength="125.4805" x="1769.87" y="614.5825">ContractExtended</text><ellipse cx="1452.88" cy="522.0146" fill="#FFFFFF" rx="10" ry="10" style="stroke:#000000;stroke-width:1;"/><!--link *start*ContractPerformanceStatus to ContractBeingPerformed--><g class="link" data-entity-1=".start.ContractPerformanceStatus" data-entity-2="ContractBeingPerformed" data-source-line="56" data-uid="lnk25" id="link_.start.ContractPerformanceStatus_ContractBeingPerformed"><path d="M1463.16,522.0146 C1471.32,522.0146 1478.12,522.0146 1492.49,522.0146" fill="none" id="*start*ContractPerformanceStatus-to-ContractBeingPerformed" style="stroke:#000000;stroke-width:1;"/><polygon fill="#000000" points="1498.49,522.0146,1489.49,518.0146,1493.49,522.0146,1489.49,526.0146,1498.49,522.0146" style="stroke:#000000;stroke-width:1;"/></g><!--link ContractBeingPerformed to ContractAmended--><g class="link" data-entity-1="ContractBeingPerformed" data-entity-2="ContractAmended" data-source-line="57" data-uid="lnk26" id="link_ContractBeingPerformed_ContractAmended"><path d="M1647.69,501.6146 C1669.04,492.0646 1693.75,481.1946 1716.91,473.0146 C1735.7,466.3846 1750.9273,462.168 1769.7873,457.078" fill="none" id="ContractBeingPerformed-to-ContractAmended" style="stroke:#000000;stroke-width:1;"/><polygon fill="#000000" points="1775.58,455.5146,1765.8486,453.9979,1770.7527,456.8175,1767.9331,461.7215,1775.58,455.5146" style="stroke:#000000;stroke-width:1;"/></g><!--link ContractBeingPerformed to ContractTemporarilySuspended--><g class="link" data-entity-1="ContractBeingPerformed" data-entity-2="ContractTemporarilySuspended" data-source-line="58" data-uid="lnk27" id="link_ContractBeingPerformed_ContractTemporarilySuspended"><path d="M1681.22,517.6946 C1693.09,516.4146 1699.4248,515.7268 1711.6248,514.2268" fill="none" id="ContractBeingPerformed-to-ContractTemporarilySuspended" style="stroke:#000000;stroke-width:1;"/><polygon fill="#000000" points="1717.58,513.4946,1708.1591,510.6228,1712.6174,514.1048,1709.1354,518.563,1717.58,513.4946" style="stroke:#000000;stroke-width:1;"/></g><!--link ContractBeingPerformed to ContractRenewed--><g class="link" data-entity-1="ContractBeingPerformed" data-entity-2="ContractRenewed" data-source-line="59" data-uid="lnk28" id="link_ContractBeingPerformed_ContractRenewed"><path d="M1681.22,539.4546 C1709.23,543.1946 1733.5966,546.1303 1759.6366,548.5903" fill="none" id="ContractBeingPerformed-to-ContractRenewed" style="stroke:#000000;stroke-width:1;"/><polygon fill="#000000" points="1765.61,549.1546,1757.0261,544.3259,1760.6322,548.6844,1756.2737,552.2905,1765.61,549.1546" style="stroke:#000000;stroke-width:1;"/></g><!--link ContractBeingPerformed to ContractExtended--><g class="link" data-entity-1="ContractBeingPerformed" data-entity-2="ContractExtended" data-source-line="60" data-uid="lnk29" id="link_ContractBeingPerformed_ContractExtended"><path d="M1616.38,542.3146 C1641.44,557.2146 1681.03,576.3446 1716.91,589.0146 C1732.12,594.3846 1742.948,597.7746 1758.748,601.5946" fill="none" id="ContractBeingPerformed-to-ContractExtended" style="stroke:#000000;stroke-width:1;"/><polygon fill="#000000" points="1764.58,603.0046,1756.772,597.0017,1759.72,601.8296,1754.892,604.7776,1764.58,603.0046" style="stroke:#000000;stroke-width:1;"/></g><!--link ContractRenewed to ContractBeingPerformed--><g class="link" data-entity-1="ContractRenewed" data-entity-2="ContractBeingPerformed" data-source-line="61" data-uid="lnk30" id="link_ContractRenewed_ContractBeingPerformed"><path d="M1765.61,536.9646 C1739.57,533.1546 1715.1957,529.9857 1687.1857,526.9757" fill="none" id="ContractRenewed-to-ContractBeingPerformed" style="stroke:#000000;stroke-width:1;"/><polygon fill="#000000" points="1681.22,526.3346,1689.7411,531.2734,1686.1914,526.8689,1690.5959,523.3192,1681.22,526.3346" style="stroke:#000000;stroke-width:1;"/></g><!--link ContractExtended to ContractBeingPerformed--><g class="link" data-entity-1="ContractExtended" data-entity-2="ContractBeingPerformed" data-source-line="62" data-uid="lnk31" id="link_ContractExtended_ContractBeingPerformed"><path d="M1775.58,588.5146 C1756.72,583.4246 1735.7,577.6446 1716.91,571.0146 C1693.75,562.8346 1674.517,554.4146 1653.167,544.8646" fill="none" id="ContractExtended-to-ContractBeingPerformed" style="stroke:#000000;stroke-width:1;"/><polygon fill="#000000" points="1647.69,542.4146,1654.2723,549.7409,1652.2542,544.4562,1657.5388,542.4382,1647.69,542.4146" style="stroke:#000000;stroke-width:1;"/></g><!--link ContractTemporarilySuspended to ContractBeingPerformed--><g class="link" data-entity-1="ContractTemporarilySuspended" data-entity-2="ContractBeingPerformed" data-source-line="63" data-uid="lnk32" id="link_ContractTemporarilySuspended_ContractBeingPerformed"><path d="M1716.76,500.1046 C1704.83,501.5146 1698.7671,502.23 1687.1671,503.78" fill="none" id="ContractTemporarilySuspended-to-ContractBeingPerformed" style="stroke:#000000;stroke-width:1;"/><polygon fill="#000000" points="1681.22,504.5746,1690.6705,507.3474,1686.176,503.9124,1689.6109,499.4179,1681.22,504.5746" style="stroke:#000000;stroke-width:1;"/></g><!--link ContractAmended to ContractBeingPerformed--><g class="link" data-entity-1="ContractAmended" data-entity-2="ContractBeingPerformed" data-source-line="64" data-uid="lnk33" id="link_ContractAmended_ContractBeingPerformed"><path d="M1764.28,441.0946 C1748.57,444.9046 1732.02,449.6746 1716.91,455.0146 C1681.03,467.6846 1646.5973,483.7483 1621.5373,498.6483" fill="none" id="ContractAmended-to-ContractBeingPerformed" style="stroke:#000000;stroke-width:1;"/><polygon fill="#000000" points="1616.38,501.7146,1626.1601,500.5533,1620.6777,499.1593,1622.0716,493.6769,1616.38,501.7146" style="stroke:#000000;stroke-width:1;"/></g><path d="M1174.99,165 L1359.3796,165 A12.5,12.5 0 0 1 1371.8796,177.5 L1371.8796,192.0146 L1162.49,192.0146 L1162.49,177.5 A12.5,12.5 0 0 1 1174.99,165" fill="#FFFFFF"/><path d="M1162.49,192.0146 L1371.8796,192.0146 L1371.8796,415.5146 A12.5,12.5 0 0 1 1359.3796,428.0146 L1174.99,428.0146 A12.5,12.5 0 0 1 1162.49,415.5146 L1162.49,192.0146" fill="#FFFFFF"/><rect fill="none" height="263.0146" rx="12.5" ry="12.5" style="stroke:#000000;stroke-width:1;" width="209.3896" x="1162.49" y="165"/><line style="stroke:#000000;stroke-width:1;" x1="1162.49" x2="1371.8796" y1="192.0146" y2="192.0146"/><text fill="#000000" font-family="Verdana" font-size="14" lengthAdjust="spacing" textLength="189.3896" x="1172.49" y="184.0752">ContractTerminationStatus</text><rect fill="#FFFFFF" height="40" rx="12.5" ry="12.5" style="stroke:#000000;stroke-width:1;" width="150.0889" x="1174.49" y="378.0146"/><text fill="#000000" font-family="Verdana" font-size="14" lengthAdjust="spacing" textLength="140.0889" x="1179.49" y="403.5825">ContractTerminated</text><rect fill="#FFFFFF" height="40" rx="12.5" ry="12.5" style="stroke:#000000;stroke-width:1;" width="122.5811" x="1188.24" y="320.0146"/><text fill="#000000" font-family="Verdana" font-size="14" lengthAdjust="spacing" textLength="112.5811" x="1193.24" y="345.5825">ContractExpired</text><rect fill="#FFFFFF" height="40" rx="12.5" ry="12.5" style="stroke:#000000;stroke-width:1;" width="135.3779" x="1181.85" y="262.0146"/><text fill="#000000" font-family="Verdana" font-size="14" lengthAdjust="spacing" textLength="125.3779" x="1186.85" y="287.5825">ContractBreached</text><rect fill="#FFFFFF" height="40" rx="12.5" ry="12.5" style="stroke:#000000;stroke-width:1;" width="131.9258" x="1183.57" y="204.0146"/><text fill="#000000" font-family="Verdana" font-size="14" lengthAdjust="spacing" textLength="121.9258" x="1188.57" y="229.5825">ContractDisputed</text><path d="M1513.97,12 L1874.215,12 A12.5,12.5 0 0 1 1886.715,24.5 L1886.715,39.0146 L1501.47,39.0146 L1501.47,24.5 A12.5,12.5 0 0 1 1513.97,12" fill="#FFFFFF"/><path d="M1501.47,39.0146 L1886.715,39.0146 L1886.715,204.5146 A12.5,12.5 0 0 1 1874.215,217.0146 L1513.97,217.0146 A12.5,12.5 0 0 1 1501.47,204.5146 L1501.47,39.0146" fill="#FFFFFF"/><rect fill="none" height="205.0146" rx="12.5" ry="12.5" style="stroke:#000000;stroke-width:1;" width="385.245" x="1501.47" y="12"/><line style="stroke:#000000;stroke-width:1;" x1="1501.47" x2="1886.715" y1="39.0146" y2="39.0146"/><text fill="#000000" font-family="Verdana" font-size="14" lengthAdjust="spacing" textLength="174.6924" x="1606.7463" y="31.0752">ContractFulfilmentStatus</text><rect fill="#FFFFFF" height="40" rx="12.5" ry="12.5" style="stroke:#000000;stroke-width:1;" width="124.0986" x="1742.37" y="51.0146"/><text fill="#000000" font-family="Verdana" font-size="14" lengthAdjust="spacing" textLength="114.0986" x="1747.37" y="76.5825">ContractFulfilled</text><rect fill="#FFFFFF" height="40" rx="12.5" ry="12.5" style="stroke:#000000;stroke-width:1;" width="180.6592" x="1513.47" y="109.0146"/><text fill="#000000" font-family="Verdana" font-size="14" lengthAdjust="spacing" textLength="170.6592" x="1518.47" y="134.5825">ContractPartiallyFulfilled</text><rect fill="#FFFFFF" height="40" rx="12.5" ry="12.5" style="stroke:#000000;stroke-width:1;" width="148.585" x="1730.13" y="109.0146"/><text fill="#000000" font-family="Verdana" font-size="14" lengthAdjust="spacing" textLength="138.585" x="1735.13" y="134.5825">ContractNotFulfilled</text><rect fill="#FFFFFF" height="40" rx="12.5" ry="12.5" style="stroke:#000000;stroke-width:1;" width="126.5801" x="1741.13" y="167.0146"/><text fill="#000000" font-family="Verdana" font-size="14" lengthAdjust="spacing" textLength="116.5801" x="1746.13" y="192.5825">ContractViolated</text><!--link ContractPartiallyFulfilled to ContractFulfilled--><g class="link" data-entity-1="ContractPartiallyFulfilled" data-entity-2="ContractFulfilled" data-source-line="86" data-uid="lnk42" id="link_ContractPartiallyFulfilled_ContractFulfilled"><path d="M1674.83,108.5646 C1696.72,102.1746 1714.9307,96.8569 1736.1907,90.6469" fill="none" id="ContractPartiallyFulfilled-to-ContractFulfilled" style="stroke:#000000;stroke-width:1;"/><polygon fill="#000000" points="1741.95,88.9646,1732.1895,87.6485,1737.1506,90.3666,1734.4325,95.3276,1741.95,88.9646" style="stroke:#000000;stroke-width:1;"/></g><!--link ContractPartiallyFulfilled to ContractNotFulfilled--><g class="link" data-entity-1="ContractPartiallyFulfilled" data-entity-2="ContractNotFulfilled" data-source-line="87" data-uid="lnk43" id="link_ContractPartiallyFulfilled_ContractNotFulfilled"><path d="M1694.52,129.0146 C1706.35,129.0146 1712.35,129.0146 1723.86,129.0146" fill="none" id="ContractPartiallyFulfilled-to-ContractNotFulfilled" style="stroke:#000000;stroke-width:1;"/><polygon fill="#000000" points="1729.86,129.0146,1720.86,125.0146,1724.86,129.0146,1720.86,133.0146,1729.86,129.0146" style="stroke:#000000;stroke-width:1;"/></g><!--link ContractPartiallyFulfilled to ContractViolated--><g class="link" data-entity-1="ContractPartiallyFulfilled" data-entity-2="ContractViolated" data-source-line="88" data-uid="lnk44" id="link_ContractPartiallyFulfilled_ContractViolated"><path d="M1674.83,149.4646 C1696.27,155.7246 1713.9606,160.8925 1734.8806,167.0025" fill="none" id="ContractPartiallyFulfilled-to-ContractViolated" style="stroke:#000000;stroke-width:1;"/><polygon fill="#000000" points="1740.64,168.6846,1733.1223,162.3219,1735.8405,167.2829,1730.8795,170.0011,1740.64,168.6846" style="stroke:#000000;stroke-width:1;"/></g><ellipse cx="21" cy="807.51" fill="#FFFFFF" rx="10" ry="10" style="stroke:#000000;stroke-width:1;"/><!--link *start* to ContractPreparationStatus--><g class="link" data-entity-1=".start." data-entity-2="ContractPreparationStatus" data-source-line="8" data-uid="lnk3" id="link_.start._ContractPreparationStatus"><path d="M31.3,807.51 C38.5925,807.51 49.5606,807.51 61.9536,807.51 C63.5027,807.51 59.0741,807.51 60.6634,807.51" fill="none" id="*start*-to-ContractPreparationStatus" style="stroke:#000000;stroke-width:1;"/><polygon fill="#000000" points="66.6634,807.51,57.6634,803.51,61.6634,807.51,57.6634,811.51,66.6634,807.51" style="stroke:#000000;stroke-width:1;"/></g><!--link ContractNegotiated to ContractRejected--><g class="link" data-entity-1="ContractNegotiated" data-entity-2="ContractRejected" data-source-line="18" data-uid="lnk4" id="link_ContractNegotiated_ContractRejected"><path d="M1089.61,904.78 C1124.92,912.73 1161.2065,920.8923 1195.4565,928.6023" fill="none" id="ContractNegotiated-to-ContractRejected" style="stroke:#000000;stroke-width:1;"/><polygon fill="#000000" points="1201.31,929.92,1193.4082,924.0411,1196.4321,928.8219,1191.6513,931.8458,1201.31,929.92" style="stroke:#000000;stroke-width:1;"/></g><!--link ContractDrafted to ContractOffered--><g class="link" data-entity-1="ContractDrafted" data-entity-2="ContractOffered" data-source-line="19" data-uid="lnk5" id="link_ContractDrafted_ContractOffered"><path d="M213.79,944.51 C232.92,944.51 248.06,944.51 267.18,944.51" fill="none" id="ContractDrafted-to-ContractOffered" style="stroke:#000000;stroke-width:1;"/><polygon fill="#000000" points="273.18,944.51,264.18,940.51,268.18,944.51,264.18,948.51,273.18,944.51" style="stroke:#000000;stroke-width:1;"/></g><!--link ContractOffered to ContractUnderReview--><g class="link" data-entity-1="ContractOffered" data-entity-2="ContractUnderReview" data-source-line="20" data-uid="lnk6" id="link_ContractOffered_ContractUnderReview"><path d="M395.84,933.36 C414.59,929.89 429.6702,927.1021 449.5502,923.4221" fill="none" id="ContractOffered-to-ContractUnderReview" style="stroke:#000000;stroke-width:1;"/><polygon fill="#000000" points="455.45,922.33,445.8723,920.035,450.5335,923.2401,447.3284,927.9013,455.45,922.33" style="stroke:#000000;stroke-width:1;"/></g><!--link ContractOffered to ContractRejected--><g class="link" data-entity-1="ContractOffered" data-entity-2="ContractRejected" data-source-line="21" data-uid="lnk7" id="link_ContractOffered_ContractRejected"><path d="M395.72,946.56 C525.07,950.66 839.25,958.94 1102.49,952.51 C1135.05,951.71 1165.2487,950.3531 1195.2887,948.7331" fill="none" id="ContractOffered-to-ContractRejected" style="stroke:#000000;stroke-width:1;"/><polygon fill="#000000" points="1201.28,948.41,1192.0777,944.9005,1196.2873,948.6792,1192.5085,952.8888,1201.28,948.41" style="stroke:#000000;stroke-width:1;"/></g><!--link ContractUnderReview to ContractUnderNegotiation--><g class="link" data-entity-1="ContractUnderReview" data-entity-2="ContractUnderNegotiation" data-source-line="22" data-uid="lnk8" id="link_ContractUnderReview_ContractUnderNegotiation"><path d="M617.89,901.02 C637.05,899.48 651.7096,898.294 671.4796,896.694" fill="none" id="ContractUnderReview-to-ContractUnderNegotiation" style="stroke:#000000;stroke-width:1;"/><polygon fill="#000000" points="677.46,896.21,668.1667,892.949,672.4763,896.6133,668.812,900.923,677.46,896.21" style="stroke:#000000;stroke-width:1;"/></g><!--link ContractUnderReview to ContractApproved--><g class="link" data-entity-1="ContractUnderReview" data-entity-2="ContractApproved" data-source-line="23" data-uid="lnk9" id="link_ContractUnderReview_ContractApproved"><path d="M576.15,887.07 C603.59,873.72 641.78,857.52 677.58,850.51 C863.35,814.14 1082.5156,830.2776 1192.7656,842.3376" fill="none" id="ContractUnderReview-to-ContractApproved" style="stroke:#000000;stroke-width:1;"/><polygon fill="#000000" points="1198.73,842.99,1190.2183,838.0351,1193.7596,842.4463,1189.3484,845.9876,1198.73,842.99" style="stroke:#000000;stroke-width:1;"/></g><!--link ContractUnderReview to ContractRejected--><g class="link" data-entity-1="ContractUnderReview" data-entity-2="ContractRejected" data-source-line="24" data-uid="lnk10" id="link_ContractUnderReview_ContractRejected"><path d="M617.75,919.85 C637.28,922.46 658.15,924.9 677.58,926.51 C867.6,942.27 1087.14,944.6139 1195.6,944.7239" fill="none" id="ContractUnderReview-to-ContractRejected" style="stroke:#000000;stroke-width:1;"/><polygon fill="#000000" points="1201.6,944.73,1192.6041,940.7209,1196.6,944.7249,1192.5959,948.7209,1201.6,944.73" style="stroke:#000000;stroke-width:1;"/></g><!--link ContractUnderNegotiation to ContractNegotiated--><g class="link" data-entity-1="ContractUnderNegotiation" data-entity-2="ContractNegotiated" data-source-line="25" data-uid="lnk11" id="link_ContractUnderNegotiation_ContractNegotiated"><path d="M870.55,888.51 C894.65,888.51 914.12,888.51 936.86,888.51" fill="none" id="ContractUnderNegotiation-to-ContractNegotiated" style="stroke:#000000;stroke-width:1;"/><polygon fill="#000000" points="942.86,888.51,933.86,884.51,937.86,888.51,933.86,892.51,942.86,888.51" style="stroke:#000000;stroke-width:1;"/></g><!--link ContractNegotiated to ContractApproved--><g class="link" data-entity-1="ContractNegotiated" data-entity-2="ContractApproved" data-source-line="27" data-uid="lnk12" id="link_ContractNegotiated_ContractApproved"><path d="M1089.61,877.76 C1123.91,872.66 1158.7252,867.482 1192.4352,862.472" fill="none" id="ContractNegotiated-to-ContractApproved" style="stroke:#000000;stroke-width:1;"/><polygon fill="#000000" points="1198.37,861.59,1188.8798,858.9565,1193.4243,862.325,1190.0558,866.8696,1198.37,861.59" style="stroke:#000000;stroke-width:1;"/></g><!--link *start*ContractExecutionStatus to ContractSignedByParty--><g class="link" data-entity-1=".start.ContractExecutionStatus" data-entity-2="ContractSignedByParty" data-source-line="35" data-uid="lnk14" id="link_.start.ContractExecutionStatus_ContractSignedByParty"><path d="M784.25,711.51 C808.39,711.51 868.43,711.51 923.75,711.51" fill="none" id="*start*ContractExecutionStatus-to-ContractSignedByParty" style="stroke:#000000;stroke-width:1;"/><polygon fill="#000000" points="929.75,711.51,920.75,707.51,924.75,711.51,920.75,715.51,929.75,711.51" style="stroke:#000000;stroke-width:1;"/></g><!--link ContractSignedByParty to ContractPartiallySigned--><g class="link" data-entity-1="ContractSignedByParty" data-entity-2="ContractPartiallySigned" data-source-line="36" data-uid="lnk15" id="link_ContractSignedByParty_ContractPartiallySigned"><path d="M1102.94,711.51 C1127.69,711.51 1148.71,711.51 1173.52,711.51" fill="none" id="ContractSignedByParty-to-ContractPartiallySigned" style="stroke:#000000;stroke-width:1;"/><polygon fill="#000000" points="1179.52,711.51,1170.52,707.51,1174.52,711.51,1170.52,715.51,1179.52,711.51" style="stroke:#000000;stroke-width:1;"/></g><!--link ContractPartiallySigned to ContractFullySigned--><g class="link" data-entity-1="ContractPartiallySigned" data-entity-2="ContractFullySigned" data-source-line="37" data-uid="lnk16" id="link_ContractPartiallySigned_ContractFullySigned"><path d="M1354.68,711.51 C1432.21,711.51 1538.76,711.51 1612.43,711.51" fill="none" id="ContractPartiallySigned-to-ContractFullySigned" style="stroke:#000000;stroke-width:1;"/><polygon fill="#000000" points="1618.43,711.51,1609.43,707.51,1613.43,711.51,1609.43,715.51,1618.43,711.51" style="stroke:#000000;stroke-width:1;"/></g><!--link ContractFullySigned to ContractFullyExecuted--><g class="link" data-entity-1="ContractFullySigned" data-entity-2="ContractFullyExecuted" data-source-line="38" data-uid="lnk17" id="link_ContractFullySigned_ContractFullyExecuted"><path d="M1769.6,711.51 C1839.43,711.51 1937.61,711.51 2010,711.51" fill="none" id="ContractFullySigned-to-ContractFullyExecuted" style="stroke:#000000;stroke-width:1;"/><polygon fill="#000000" points="2016,711.51,2007,707.51,2011,711.51,2007,715.51,2016,711.51" style="stroke:#000000;stroke-width:1;"/></g><!--reverse link ContractSignedByParty to ContractApproved--><g class="link" data-entity-1="ContractSignedByParty" data-entity-2="ContractApproved" data-source-line="40" data-uid="lnk19" id="link_ContractSignedByParty_ContractApproved"><path d="M1058.6997,734.8112 C1105.8897,761.3512 1182.73,804.57 1229.94,831.13" fill="none" id="ContractSignedByParty-backto-ContractApproved" style="stroke:#FF0000;stroke-width:1;"/><polygon fill="#FF0000" points="1053.47,731.87,1059.3537,739.7682,1057.8281,734.321,1063.2753,732.7954,1053.47,731.87" style="stroke:#FF0000;stroke-width:1;"/></g><!--reverse link ContractActivationStatus to ContractFullyExecuted--><g class="link" data-entity-1="ContractActivationStatus" data-entity-2="ContractFullyExecuted" data-source-line="47" data-uid="lnk22" id="link_ContractActivationStatus_ContractFullyExecuted"><path d="M1847.8896,307.7002 C1888.6296,316.6702 1924.5,331.16 1956.31,358.51 C2062.05,449.42 2090.26,630.28 2096.91,691.05" fill="none" id="ContractActivationStatus-backto-ContractFullyExecuted" style="stroke:#FF0000;stroke-width:1;"/><polygon fill="#FF0000" points="1842.03,306.41,1849.9594,312.2517,1846.913,307.4851,1851.6796,304.4388,1842.03,306.41" style="stroke:#FF0000;stroke-width:1;"/></g><!--link ContractActivationStatus to ContractPerformanceStatus--><g class="link" data-entity-1="ContractActivationStatus" data-entity-2="ContractPerformanceStatus" data-source-line="48" data-uid="lnk23" id="link_ContractActivationStatus_ContractPerformanceStatus"><path d="M1694.09,341.33 C1694.09,352.76 1694.09,358.2 1694.09,369.63" fill="none" id="ContractActivationStatus-to-ContractPerformanceStatus" style="stroke:#FF0000;stroke-width:1;"/><polygon fill="#FF0000" points="1694.09,375.63,1698.09,366.63,1694.09,370.63,1690.09,366.63,1694.09,375.63" style="stroke:#FF0000;stroke-width:1;"/></g><!--link ContractActivationStatus to ContractTerminationStatus--><g class="link" data-entity-1="ContractActivationStatus" data-entity-2="ContractTerminationStatus" data-source-line="67" data-uid="lnk34" id="link_ContractActivationStatus_ContractTerminationStatus"><path d="M1546.5,296.51 C1489.1,296.51 1430.58,296.51 1378.13,296.51" fill="none" id="ContractActivationStatus-to-ContractTerminationStatus" style="stroke:#FF0000;stroke-width:1;"/><polygon fill="#FF0000" points="1372.13,296.51,1381.13,300.51,1377.13,296.51,1381.13,292.51,1372.13,296.51" style="stroke:#FF0000;stroke-width:1;"/></g><!--link ContractPerformanceStatus to ContractTerminationStatus--><g class="link" data-entity-1="ContractPerformanceStatus" data-entity-2="ContractTerminationStatus" data-source-line="68" data-uid="lnk35" id="link_ContractPerformanceStatus_ContractTerminationStatus"><path d="M1431.45,377.59 C1410.73,367.3 1396.0435,360.0094 1377.5035,350.7994" fill="none" id="ContractPerformanceStatus-to-ContractTerminationStatus" style="stroke:#FF0000;stroke-width:1;"/><polygon fill="#FF0000" points="1372.13,348.13,1378.4107,355.7164,1376.6079,350.3545,1381.9698,348.5517,1372.13,348.13" style="stroke:#FF0000;stroke-width:1;"/></g><!--reverse link ContractFulfilmentStatus to ContractActivationStatus--><g class="link" data-entity-1="ContractFulfilmentStatus" data-entity-2="ContractActivationStatus" data-source-line="77" data-uid="lnk37" id="link_ContractFulfilmentStatus_ContractActivationStatus"><path d="M1694.09,223.42 C1694.09,234.85 1694.09,240.29 1694.09,251.72" fill="none" id="ContractFulfilmentStatus-backto-ContractActivationStatus" style="stroke:#FF0000;stroke-width:1;"/><polygon fill="#FF0000" points="1694.09,217.42,1690.09,226.42,1694.09,222.42,1698.09,226.42,1694.09,217.42" style="stroke:#FF0000;stroke-width:1;"/></g><!--reverse link ContractFulfilmentStatus to ContractPerformanceStatus--><g class="link" data-entity-1="ContractFulfilmentStatus" data-entity-2="ContractPerformanceStatus" data-source-line="78" data-uid="lnk39" id="link_ContractFulfilmentStatus_ContractPerformanceStatus"><path d="M1495.6995,167.9151 C1456.0695,188.0251 1425.25,213.25 1403.7,252.01 C1384.47,286.58 1384.47,306.44 1403.7,341.01 C1411.46,354.98 1420.91,367.86 1431.59,379.74" fill="none" id="ContractFulfilmentStatus-backto-ContractPerformanceStatus" style="stroke:#FF0000;stroke-width:1;"/><polygon fill="#FF0000" points="1501.05,165.2,1491.2141,165.7056,1496.5912,167.4626,1494.8343,172.8397,1501.05,165.2" style="stroke:#FF0000;stroke-width:1;"/></g><!--reverse link ContractTerminationStatus to ContractFulfilmentStatus--><g class="link" data-entity-1="ContractTerminationStatus" data-entity-2="ContractFulfilmentStatus" data-source-line="79" data-uid="lnk41" id="link_ContractTerminationStatus_ContractFulfilmentStatus"><path d="M1377.6453,249.6275 C1416.5853,232.9475 1456.66,215.78 1501.05,196.77" fill="none" id="ContractTerminationStatus-backto-ContractFulfilmentStatus" style="stroke:#FF0000;stroke-width:1;"/><polygon fill="#FF0000" points="1372.13,251.99,1381.978,252.1231,1376.7261,250.0213,1378.828,244.7694,1372.13,251.99" style="stroke:#FF0000;stroke-width:1;"/></g><!--SRC=[bLR1Zjem4BtxAxpghHA_K0aAbLQgjeZTzhBQWvLCm5LYMux3Bghuzve08HwFW_U4DE_DyDxpsF3WTj00DxMGYh4QAiUTvbPkTuwNqaBXf5Pi9qlWq1Xtu2MqXPMcBxE74YgfW3ykL_EV_CjcjMJizUiRdys-yUzQEIiAjxPWX1MdXcSdNDSorlfFI1FuFyPvoDd0Noy5oWXOMb5HzLzL1PQe_rObs0ti9RpJs1DijPEzceXmnOYvSsEitlT0p0xo65b19WBQpG2g1ApGpXIJ-DfHSpmqpE5U2s4_HKq96NrXm0z2ln_leEI8zspr0KKtkMLhOVt4kZuyowqY3lb7byREvSNXDED0Tvu5zBtuak1kiXvUgqXh0WcwGWT4DMOFgeyCPynddNdjx_vRqWiwXBb_KFRuhkEq7fKuqO20vZS0iyCrEFDkcWClj72iZIL5p_e7Cfwm1bjfsmXLGEAjmmJI_mAasbwe_K55AJJWhmo5lFXNMbjXfJ_GhZKfsWOKl9F8wiFTcl2Q4i9eA3oBaTeCUj92Hk_OLmOzC8jcv1g_piZbK_PoUoz9Jj7zivTUstXZNy0sKb5B7wzgLZl3-uW8vC9VMOcDDDAIoCA2A7Oaj9IjkRnQ4tcS_k_4flnJKSdQH-tkH_B92HX83RYRQpI8YlLCgic0Xb-9ATAJdfpnH-fwEBJqOFoRCfgNsHJfoEmR11xPVm00]--></g></svg>