<svg xmlns="http://www.w3.org/2000/svg" xmlns:xlink="http://www.w3.org/1999/xlink" contentStyleType="text/css" data-diagram-type="STATE" height="1030px" preserveAspectRatio="none" style="width:2135px;height:1030px;background:#FFFFFF;" version="1.1" viewBox="0 0 2135 1030" width="2135px" zoomAndPan="magnify"><defs/><g><!--cluster ContractPreparationStatus--><g class="cluster" data-entity="ContractPreparationStatus" data-source-line="10" data-uid="ent0002" id="cluster_ContractPreparationStatus"><path d="M79.5,787.53 L1301.94,787.53 A12.5,12.5 0 0 1 1314.44,800.03 L1314.44,811.5979 L67,811.5979 L67,800.03 A12.5,12.5 0 0 1 79.5,787.53" fill="#FFFFFF"/><path d="M67,811.5979 L1314.44,811.5979 L1314.44,1004.03 A12.5,12.5 0 0 1 1301.94,1016.53 L79.5,1016.53 A12.5,12.5 0 0 1 67,1004.03 L67,811.5979" fill="#FFFFFF"/><rect fill="none" height="229" rx="12.5" ry="12.5" style="stroke:#000000;stroke-width:1;" width="1247.44" x="67" y="787.53"/><line style="stroke:#000000;stroke-width:1;" x1="67" x2="1314.44" y1="811.5979" y2="811.5979"/><text fill="#000000" font-family="Verdana" font-size="14" lengthAdjust="spacing" textLength="175.4754" x="602.9823" y="806.4959">ContractPreparationStatus</text></g><!--cluster ContractExecutionStatus--><g class="cluster" data-entity="ContractExecutionStatus" data-source-line="30" data-uid="ent0010" id="cluster_ContractExecutionStatus"><path d="M737.95,661.53 L2109.89,661.53 A12.5,12.5 0 0 1 2122.39,674.03 L2122.39,685.5979 L725.45,685.5979 L725.45,674.03 A12.5,12.5 0 0 1 737.95,661.53" fill="#FFFFFF"/><path d="M725.45,685.5979 L2122.39,685.5979 L2122.39,743.03 A12.5,12.5 0 0 1 2109.89,755.53 L737.95,755.53 A12.5,12.5 0 0 1 725.45,743.03 L725.45,685.5979" fill="#FFFFFF"/><rect fill="none" height="94" rx="12.5" ry="12.5" style="stroke:#000000;stroke-width:1;" width="1396.94" x="725.45" y="661.53"/><line style="stroke:#000000;stroke-width:1;" x1="725.45" x2="2122.39" y1="685.5979" y2="685.5979"/><text fill="#000000" font-family="Verdana" font-size="14" lengthAdjust="spacing" textLength="161.6854" x="1343.0773" y="680.4959">ContractExecutionStatus</text></g><rect fill="#FFFFFF" height="40" rx="12.5" ry="12.5" style="stroke:#000000;stroke-width:1;" width="122.8256" x="1163.79" y="934.53"/><text fill="#000000" font-family="Verdana" font-size="14" lengthAdjust="spacing" textLength="112.8256" x="1168.79" y="959.962">ContractRejected</text><rect fill="#FFFFFF" height="40" rx="12.5" ry="12.5" style="stroke:#000000;stroke-width:1;" width="116.6656" x="91" y="934.53"/><text fill="#000000" font-family="Verdana" font-size="14" lengthAdjust="spacing" textLength="106.6656" x="96" y="959.962">ContractDrafted</text><rect fill="#FFFFFF" height="40" rx="12.5" ry="12.5" style="stroke:#000000;stroke-width:1;" width="117.1836" x="267.67" y="934.53"/><text fill="#000000" font-family="Verdana" font-size="14" lengthAdjust="spacing" textLength="107.1836" x="272.67" y="959.962">ContractOffered</text><rect fill="#FFFFFF" height="40" rx="12.5" ry="12.5" style="stroke:#000000;stroke-width:1;" width="153.8354" x="444.85" y="897.53"/><text fill="#000000" font-family="Verdana" font-size="14" lengthAdjust="spacing" textLength="143.8354" x="449.85" y="922.962">ContractUnderReview</text><rect fill="#FFFFFF" height="40" rx="12.5" ry="12.5" style="stroke:#000000;stroke-width:1;" width="185.5313" x="658.68" y="878.53"/><text fill="#000000" font-family="Verdana" font-size="14" lengthAdjust="spacing" textLength="175.5313" x="663.68" y="903.962">ContractUnderNegotiation</text><rect fill="#FFFFFF" height="40" rx="12.5" ry="12.5" style="stroke:#000000;stroke-width:1;" width="140.1295" x="915.17" y="878.53"/><text fill="#000000" font-family="Verdana" font-size="14" lengthAdjust="spacing" textLength="130.1295" x="920.17" y="903.962">ContractNegotiated</text><rect fill="#FFFFFF" height="40" rx="12.5" ry="12.5" style="stroke:#000000;stroke-width:1;" width="130.4696" x="1159.97" y="841.53"/><text fill="#000000" font-family="Verdana" font-size="14" lengthAdjust="spacing" textLength="120.4696" x="1164.97" y="866.962">ContractApproved</text><rect fill="#FFFFFF" height="40" rx="12.5" ry="12.5" style="stroke:#000000;stroke-width:1;" width="164.4894" x="1142.96" y="699.53"/><text fill="#000000" font-family="Verdana" font-size="14" lengthAdjust="spacing" textLength="154.4894" x="1147.96" y="724.962">ContractPartiallySigned</text><rect fill="#FFFFFF" height="40" rx="12.5" ry="12.5" style="stroke:#000000;stroke-width:1;" width="141.7815" x="1566.01" y="699.53"/><text fill="#000000" font-family="Verdana" font-size="14" lengthAdjust="spacing" textLength="131.7815" x="1571.01" y="724.962">ContractFullySigned</text><rect fill="#FFFFFF" height="40" rx="12.5" ry="12.5" style="stroke:#000000;stroke-width:1;" width="162.0394" x="904.22" y="699.53"/><text fill="#000000" font-family="Verdana" font-size="14" lengthAdjust="spacing" textLength="152.0394" x="909.22" y="724.962">ContractSignedByParty</text><rect fill="#FFFFFF" height="40" rx="12.5" ry="12.5" style="stroke:#000000;stroke-width:1;" width="156.7334" x="1949.66" y="699.53"/><text fill="#000000" font-family="Verdana" font-size="14" lengthAdjust="spacing" textLength="146.7334" x="1954.66" y="724.962">ContractFullyExecuted</text><ellipse cx="751.45" cy="719.53" fill="#FFFFFF" rx="10" ry="10" style="stroke:#000000;stroke-width:1;"/><path d="M1509.48,254 L1764.3336,254 A12.5,12.5 0 0 1 1776.8336,266.5 L1776.8336,283.0679 L1496.98,283.0679 L1496.98,266.5 A12.5,12.5 0 0 1 1509.48,254" fill="#FFFFFF"/><path d="M1496.98,283.0679 L1776.8336,283.0679 L1776.8336,332.5679 A12.5,12.5 0 0 1 1764.3336,345.0679 L1509.48,345.0679 A12.5,12.5 0 0 1 1496.98,332.5679 L1496.98,283.0679" fill="#FFFFFF"/><rect fill="none" height="91.0679" rx="12.5" ry="12.5" style="stroke:#000000;stroke-width:1;" width="279.8536" x="1496.98" y="254"/><line style="stroke:#000000;stroke-width:1;" x1="1496.98" x2="1776.8336" y1="283.0679" y2="283.0679"/><text fill="#000000" font-family="Verdana" font-size="14" lengthAdjust="spacing" textLength="162.5254" x="1555.6441" y="273.9659">ContractActivationStatus</text><rect fill="#FFFFFF" height="40" rx="12.5" ry="12.5" style="stroke:#000000;stroke-width:1;" width="118.0796" x="1508.98" y="295.0679"/><text fill="#000000" font-family="Verdana" font-size="14" lengthAdjust="spacing" textLength="108.0796" x="1513.98" y="320.4999">ContractInactive</text><rect fill="#FFFFFF" height="40" rx="12.5" ry="12.5" style="stroke:#000000;stroke-width:1;" width="105.7736" x="1663.06" y="295.0679"/><text fill="#000000" font-family="Verdana" font-size="14" lengthAdjust="spacing" textLength="95.7736" x="1668.06" y="320.4999">ContractActive</text><!--link ContractInactive to ContractActive--><g class="link" data-entity-1="ContractInactive" data-entity-2="ContractActive" data-source-line="45" data-uid="lnk20" id="link_ContractInactive_ContractActive"><path d="M1627.53,315.0679 C1639.27,315.0679 1645.52,315.0679 1657.02,315.0679" fill="none" id="ContractInactive-to-ContractActive" style="stroke:#000000;stroke-width:1;"/><polygon fill="#000000" points="1663.02,315.0679,1654.02,311.0679,1658.02,315.0679,1654.02,319.0679,1663.02,315.0679" style="stroke:#000000;stroke-width:1;"/></g><path d="M1396.65,380 L1877.1532,380 A12.5,12.5 0 0 1 1889.6532,392.5 L1889.6532,409.0679 L1384.15,409.0679 L1384.15,392.5 A12.5,12.5 0 0 1 1396.65,380" fill="#FFFFFF"/><path d="M1384.15,409.0679 L1889.6532,409.0679 L1889.6532,632.5679 A12.5,12.5 0 0 1 1877.1532,645.0679 L1396.65,645.0679 A12.5,12.5 0 0 1 1384.15,632.5679 L1384.15,409.0679" fill="#FFFFFF"/><rect fill="none" height="265.0679" rx="12.5" ry="12.5" style="stroke:#000000;stroke-width:1;" width="505.5032" x="1384.15" y="380"/><line style="stroke:#000000;stroke-width:1;" x1="1384.15" x2="1889.6532" y1="409.0679" y2="409.0679"/><text fill="#000000" font-family="Verdana" font-size="14" lengthAdjust="spacing" textLength="182.8673" x="1545.4679" y="399.9659">ContractPerformanceStatus</text><rect fill="#FFFFFF" height="40" rx="12.5" ry="12.5" style="stroke:#000000;stroke-width:1;" width="175.1154" x="1451.15" y="508.0679"/><text fill="#000000" font-family="Verdana" font-size="14" lengthAdjust="spacing" textLength="165.1154" x="1456.15" y="533.4999">ContractBeingPerformed</text><rect fill="#FFFFFF" height="40" rx="12.5" ry="12.5" style="stroke:#000000;stroke-width:1;" width="130.1335" x="1706.89" y="421.0679"/><text fill="#000000" font-family="Verdana" font-size="14" lengthAdjust="spacing" textLength="120.1335" x="1711.89" y="446.4999">ContractAmended</text><rect fill="#FFFFFF" height="40" rx="12.5" ry="12.5" style="stroke:#000000;stroke-width:1;" width="219.3832" x="1662.27" y="479.0679"/><text fill="#000000" font-family="Verdana" font-size="14" lengthAdjust="spacing" textLength="209.3832" x="1667.27" y="504.4999">ContractTemporarilySuspended</text><rect fill="#FFFFFF" height="40" rx="12.5" ry="12.5" style="stroke:#000000;stroke-width:1;" width="127.0955" x="1708.41" y="537.0679"/><text fill="#000000" font-family="Verdana" font-size="14" lengthAdjust="spacing" textLength="117.0955" x="1713.41" y="562.4999">ContractRenewed</text><rect fill="#FFFFFF" height="40" rx="12.5" ry="12.5" style="stroke:#000000;stroke-width:1;" width="128.3416" x="1707.79" y="595.0679"/><text fill="#000000" font-family="Verdana" font-size="14" lengthAdjust="spacing" textLength="118.3416" x="1712.79" y="620.4999">ContractExtended</text><ellipse cx="1405.15" cy="528.0679" fill="#FFFFFF" rx="10" ry="10" style="stroke:#000000;stroke-width:1;"/><!--link *start*ContractPerformanceStatus to ContractBeingPerformed--><g class="link" data-entity-1=".start.ContractPerformanceStatus" data-entity-2="ContractBeingPerformed" data-source-line="56" data-uid="lnk25" id="link_.start.ContractPerformanceStatus_ContractBeingPerformed"><path d="M1415.61,528.0679 C1423.8,528.0679 1430.54,528.0679 1444.76,528.0679" fill="none" id="*start*ContractPerformanceStatus-to-ContractBeingPerformed" style="stroke:#000000;stroke-width:1;"/><polygon fill="#000000" points="1450.76,528.0679,1441.76,524.0679,1445.76,528.0679,1441.76,532.0679,1450.76,528.0679" style="stroke:#000000;stroke-width:1;"/></g><!--link ContractBeingPerformed to ContractAmended--><g class="link" data-entity-1="ContractBeingPerformed" data-entity-2="ContractAmended" data-source-line="57" data-uid="lnk26" id="link_ContractBeingPerformed_ContractAmended"><path d="M1595.23,507.6179 C1615.92,498.1079 1639.83,487.2879 1662.27,479.0679 C1680.24,472.4779 1694.6112,468.3375 1712.6212,463.1875" fill="none" id="ContractBeingPerformed-to-ContractAmended" style="stroke:#000000;stroke-width:1;"/><polygon fill="#000000" points="1718.39,461.5379,1708.6371,460.1665,1713.5827,462.9126,1710.8366,467.8582,1718.39,461.5379" style="stroke:#000000;stroke-width:1;"/></g><!--link ContractBeingPerformed to ContractTemporarilySuspended--><g class="link" data-entity-1="ContractBeingPerformed" data-entity-2="ContractTemporarilySuspended" data-source-line="58" data-uid="lnk27" id="link_ContractBeingPerformed_ContractTemporarilySuspended"><path d="M1626.47,523.7479 C1638.01,522.4579 1643.9987,521.7806 1655.8587,520.2606" fill="none" id="ContractBeingPerformed-to-ContractTemporarilySuspended" style="stroke:#000000;stroke-width:1;"/><polygon fill="#000000" points="1661.81,519.4979,1652.3745,516.6745,1656.8506,520.1335,1653.3915,524.6096,1661.81,519.4979" style="stroke:#000000;stroke-width:1;"/></g><!--link ContractBeingPerformed to ContractRenewed--><g class="link" data-entity-1="ContractBeingPerformed" data-entity-2="ContractRenewed" data-source-line="59" data-uid="lnk28" id="link_ContractBeingPerformed_ContractRenewed"><path d="M1626.47,545.5079 C1653.64,549.2779 1677.1187,552.2219 1702.2887,554.6919" fill="none" id="ContractBeingPerformed-to-ContractRenewed" style="stroke:#000000;stroke-width:1;"/><polygon fill="#000000" points="1708.26,555.2779,1699.6937,550.4181,1703.2839,554.7896,1698.9124,558.3798,1708.26,555.2779" style="stroke:#000000;stroke-width:1;"/></g><!--link ContractBeingPerformed to ContractExtended--><g class="link" data-entity-1="ContractBeingPerformed" data-entity-2="ContractExtended" data-source-line="60" data-uid="lnk29" id="link_ContractBeingPerformed_ContractExtended"><path d="M1564.49,548.3179 C1588.84,563.1779 1627.35,582.2679 1662.27,595.0679 C1676.66,600.3479 1686.6363,603.6244 1701.6063,607.4444" fill="none" id="ContractBeingPerformed-to-ContractExtended" style="stroke:#000000;stroke-width:1;"/><polygon fill="#000000" points="1707.42,608.9279,1699.6885,602.8268,1702.5752,607.6916,1697.7104,610.5784,1707.42,608.9279" style="stroke:#000000;stroke-width:1;"/></g><!--link ContractRenewed to ContractBeingPerformed--><g class="link" data-entity-1="ContractRenewed" data-entity-2="ContractBeingPerformed" data-source-line="61" data-uid="lnk30" id="link_ContractRenewed_ContractBeingPerformed"><path d="M1708.26,543.1279 C1683.09,539.2879 1659.6028,536.0951 1632.4328,533.0551" fill="none" id="ContractRenewed-to-ContractBeingPerformed" style="stroke:#000000;stroke-width:1;"/><polygon fill="#000000" points="1626.47,532.3879,1634.9694,537.3639,1631.439,532.9439,1635.859,529.4135,1626.47,532.3879" style="stroke:#000000;stroke-width:1;"/></g><!--link ContractExtended to ContractBeingPerformed--><g class="link" data-entity-1="ContractExtended" data-entity-2="ContractBeingPerformed" data-source-line="62" data-uid="lnk31" id="link_ContractExtended_ContractBeingPerformed"><path d="M1718.39,594.5979 C1700.38,589.4479 1680.24,583.6579 1662.27,577.0679 C1639.83,568.8479 1621.3717,560.5337 1600.6817,551.0237" fill="none" id="ContractExtended-to-ContractBeingPerformed" style="stroke:#000000;stroke-width:1;"/><polygon fill="#000000" points="1595.23,548.5179,1601.737,555.9111,1599.7731,550.6061,1605.0781,548.6422,1595.23,548.5179" style="stroke:#000000;stroke-width:1;"/></g><!--link ContractTemporarilySuspended to ContractBeingPerformed--><g class="link" data-entity-1="ContractTemporarilySuspended" data-entity-2="ContractBeingPerformed" data-source-line="63" data-uid="lnk32" id="link_ContractTemporarilySuspended_ContractBeingPerformed"><path d="M1661.81,506.0179 C1649.95,507.4679 1643.9531,508.2039 1632.4131,509.8039" fill="none" id="ContractTemporarilySuspended-to-ContractBeingPerformed" style="stroke:#000000;stroke-width:1;"/><polygon fill="#000000" points="1626.47,510.6279,1635.9341,513.354,1631.4226,509.9412,1634.8354,505.4298,1626.47,510.6279" style="stroke:#000000;stroke-width:1;"/></g><!--link ContractAmended to ContractBeingPerformed--><g class="link" data-entity-1="ContractAmended" data-entity-2="ContractBeingPerformed" data-source-line="64" data-uid="lnk33" id="link_ContractAmended_ContractBeingPerformed"><path d="M1706.56,447.4279 C1691.84,451.2079 1676.38,455.8879 1662.27,461.0679 C1627.35,473.8679 1593.9616,489.8324 1569.6116,504.6924" fill="none" id="ContractAmended-to-ContractBeingPerformed" style="stroke:#000000;stroke-width:1;"/><polygon fill="#000000" points="1564.49,507.8179,1574.2561,506.544,1568.758,505.2133,1570.0887,499.7152,1564.49,507.8179" style="stroke:#000000;stroke-width:1;"/></g><path d="M1138.76,167 L1311.6573,167 A12.5,12.5 0 0 1 1324.1573,179.5 L1324.1573,196.0679 L1126.26,196.0679 L1126.26,179.5 A12.5,12.5 0 0 1 1138.76,167" fill="#FFFFFF"/><path d="M1126.26,196.0679 L1324.1573,196.0679 L1324.1573,419.5679 A12.5,12.5 0 0 1 1311.6573,432.0679 L1138.76,432.0679 A12.5,12.5 0 0 1 1126.26,419.5679 L1126.26,196.0679" fill="#FFFFFF"/><rect fill="none" height="265.0679" rx="12.5" ry="12.5" style="stroke:#000000;stroke-width:1;" width="197.8973" x="1126.26" y="167"/><line style="stroke:#000000;stroke-width:1;" x1="1126.26" x2="1324.1573" y1="196.0679" y2="196.0679"/><text fill="#000000" font-family="Verdana" font-size="14" lengthAdjust="spacing" textLength="177.8973" x="1136.26" y="186.9659">ContractTerminationStatus</text><rect fill="#FFFFFF" height="40" rx="12.5" ry="12.5" style="stroke:#000000;stroke-width:1;" width="142.6635" x="1138.26" y="382.0679"/><text fill="#000000" font-family="Verdana" font-size="14" lengthAdjust="spacing" textLength="132.6635" x="1143.26" y="407.4999">ContractTerminated</text><rect fill="#FFFFFF" height="40" rx="12.5" ry="12.5" style="stroke:#000000;stroke-width:1;" width="116.1336" x="1151.52" y="324.0679"/><text fill="#000000" font-family="Verdana" font-size="14" lengthAdjust="spacing" textLength="106.1336" x="1156.52" y="349.4999">ContractExpired</text><rect fill="#FFFFFF" height="40" rx="12.5" ry="12.5" style="stroke:#000000;stroke-width:1;" width="128.9435" x="1145.12" y="266.0679"/><text fill="#000000" font-family="Verdana" font-size="14" lengthAdjust="spacing" textLength="118.9435" x="1150.12" y="291.4999">ContractBreached</text><rect fill="#FFFFFF" height="40" rx="12.5" ry="12.5" style="stroke:#000000;stroke-width:1;" width="125.7936" x="1146.69" y="208.0679"/><text fill="#000000" font-family="Verdana" font-size="14" lengthAdjust="spacing" textLength="115.7936" x="1151.69" y="233.4999">ContractDisputed</text><path d="M1464.71,12 L1809.1055,12 A12.5,12.5 0 0 1 1821.6055,24.5 L1821.6055,41.0679 L1452.21,41.0679 L1452.21,24.5 A12.5,12.5 0 0 1 1464.71,12" fill="#FFFFFF"/><path d="M1452.21,41.0679 L1821.6055,41.0679 L1821.6055,206.5679 A12.5,12.5 0 0 1 1809.1055,219.0679 L1464.71,219.0679 A12.5,12.5 0 0 1 1452.21,206.5679 L1452.21,41.0679" fill="#FFFFFF"/><rect fill="none" height="207.0679" rx="12.5" ry="12.5" style="stroke:#000000;stroke-width:1;" width="369.3955" x="1452.21" y="12"/><line style="stroke:#000000;stroke-width:1;" x1="1452.21" x2="1821.6055" y1="41.0679" y2="41.0679"/><text fill="#000000" font-family="Verdana" font-size="14" lengthAdjust="spacing" textLength="163.7014" x="1555.0571" y="31.9659">ContractFulfilmentStatus</text><rect fill="#FFFFFF" height="40" rx="12.5" ry="12.5" style="stroke:#000000;stroke-width:1;" width="118.1216" x="1683.4" y="53.0679"/><text fill="#000000" font-family="Verdana" font-size="14" lengthAdjust="spacing" textLength="108.1216" x="1688.4" y="78.4999">ContractFulfilled</text><rect fill="#FFFFFF" height="40" rx="12.5" ry="12.5" style="stroke:#000000;stroke-width:1;" width="171.1114" x="1464.21" y="111.0679"/><text fill="#000000" font-family="Verdana" font-size="14" lengthAdjust="spacing" textLength="161.1114" x="1469.21" y="136.4999">ContractPartiallyFulfilled</text><rect fill="#FFFFFF" height="40" rx="12.5" ry="12.5" style="stroke:#000000;stroke-width:1;" width="142.2855" x="1671.32" y="111.0679"/><text fill="#000000" font-family="Verdana" font-size="14" lengthAdjust="spacing" textLength="132.2855" x="1676.32" y="136.4999">ContractNotFulfilled</text><rect fill="#FFFFFF" height="40" rx="12.5" ry="12.5" style="stroke:#000000;stroke-width:1;" width="119.9416" x="1682.49" y="169.0679"/><text fill="#000000" font-family="Verdana" font-size="14" lengthAdjust="spacing" textLength="109.9416" x="1687.49" y="194.4999">ContractViolated</text><!--link ContractPartiallyFulfilled to ContractFulfilled--><g class="link" data-entity-1="ContractPartiallyFulfilled" data-entity-2="ContractFulfilled" data-source-line="86" data-uid="lnk42" id="link_ContractPartiallyFulfilled_ContractFulfilled"><path d="M1618,110.6179 C1639.23,104.1579 1656.7694,98.823 1677.3294,92.573" fill="none" id="ContractPartiallyFulfilled-to-ContractFulfilled" style="stroke:#000000;stroke-width:1;"/><polygon fill="#000000" points="1683.07,90.8279,1673.2957,89.6185,1678.2862,92.2822,1675.6225,97.2726,1683.07,90.8279" style="stroke:#000000;stroke-width:1;"/></g><!--link ContractPartiallyFulfilled to ContractNotFulfilled--><g class="link" data-entity-1="ContractPartiallyFulfilled" data-entity-2="ContractNotFulfilled" data-source-line="87" data-uid="lnk43" id="link_ContractPartiallyFulfilled_ContractNotFulfilled"><path d="M1635.8,131.0679 C1647.52,131.0679 1653.45,131.0679 1664.87,131.0679" fill="none" id="ContractPartiallyFulfilled-to-ContractNotFulfilled" style="stroke:#000000;stroke-width:1;"/><polygon fill="#000000" points="1670.87,131.0679,1661.87,127.0679,1665.87,131.0679,1661.87,135.0679,1670.87,131.0679" style="stroke:#000000;stroke-width:1;"/></g><!--link ContractPartiallyFulfilled to ContractViolated--><g class="link" data-entity-1="ContractPartiallyFulfilled" data-entity-2="ContractViolated" data-source-line="88" data-uid="lnk44" id="link_ContractPartiallyFulfilled_ContractViolated"><path d="M1618,151.5179 C1638.91,157.8779 1656.0594,163.0929 1676.3894,169.2729" fill="none" id="ContractPartiallyFulfilled-to-ContractViolated" style="stroke:#000000;stroke-width:1;"/><polygon fill="#000000" points="1682.13,171.0179,1674.6824,164.5732,1677.3461,169.5637,1672.3557,172.2274,1682.13,171.0179" style="stroke:#000000;stroke-width:1;"/></g><ellipse cx="21" cy="817.53" fill="#FFFFFF" rx="10" ry="10" style="stroke:#000000;stroke-width:1;"/><!--link *start* to ContractPreparationStatus--><g class="link" data-entity-1=".start." data-entity-2="ContractPreparationStatus" data-source-line="8" data-uid="lnk3" id="link_.start._ContractPreparationStatus"><path d="M31.5,817.53 C38.73,817.53 49.4769,817.53 61.5719,817.53 C63.0838,817.53 64.6167,817.53 66.1665,817.53 C66.3602,817.53 60.5542,817.53 60.7484,817.53" fill="none" id="*start*-to-ContractPreparationStatus" style="stroke:#000000;stroke-width:1;"/><polygon fill="#000000" points="66.7484,817.53,57.7484,813.53,61.7484,817.53,57.7484,821.53,66.7484,817.53" style="stroke:#000000;stroke-width:1;"/></g><!--link ContractNegotiated to ContractRejected--><g class="link" data-entity-1="ContractNegotiated" data-entity-2="ContractRejected" data-source-line="18" data-uid="lnk4" id="link_ContractNegotiated_ContractRejected"><path d="M1055.71,914.88 C1089.87,922.92 1124.8095,931.1356 1157.6995,938.8756" fill="none" id="ContractNegotiated-to-ContractRejected" style="stroke:#000000;stroke-width:1;"/><polygon fill="#000000" points="1163.54,940.25,1155.6956,934.2947,1158.673,939.1046,1153.863,942.082,1163.54,940.25" style="stroke:#000000;stroke-width:1;"/></g><!--link ContractDrafted to ContractOffered--><g class="link" data-entity-1="ContractDrafted" data-entity-2="ContractOffered" data-source-line="19" data-uid="lnk5" id="link_ContractDrafted_ContractOffered"><path d="M208.09,954.53 C227.1,954.53 242.23,954.53 261.26,954.53" fill="none" id="ContractDrafted-to-ContractOffered" style="stroke:#000000;stroke-width:1;"/><polygon fill="#000000" points="267.26,954.53,258.26,950.53,262.26,954.53,258.26,958.53,267.26,954.53" style="stroke:#000000;stroke-width:1;"/></g><!--link ContractOffered to ContractUnderReview--><g class="link" data-entity-1="ContractOffered" data-entity-2="ContractUnderReview" data-source-line="20" data-uid="lnk6" id="link_ContractOffered_ContractUnderReview"><path d="M385.32,943.43 C403.91,939.87 418.8865,937.0054 438.5765,933.2454" fill="none" id="ContractOffered-to-ContractUnderReview" style="stroke:#000000;stroke-width:1;"/><polygon fill="#000000" points="444.47,932.12,434.8795,929.8791,439.5587,933.0579,436.38,937.7371,444.47,932.12" style="stroke:#000000;stroke-width:1;"/></g><!--link ContractOffered to ContractRejected--><g class="link" data-entity-1="ContractOffered" data-entity-2="ContractRejected" data-source-line="21" data-uid="lnk7" id="link_ContractOffered_ContractRejected"><path d="M385.23,956.32 C509.86,959.91 812.6,967.15 1066.26,961.53 C1098.36,960.82 1128.1173,959.596 1157.4773,958.146" fill="none" id="ContractOffered-to-ContractRejected" style="stroke:#000000;stroke-width:1;"/><polygon fill="#000000" points="1163.47,957.85,1154.2836,954.2988,1158.4761,958.0966,1154.6783,962.2891,1163.47,957.85" style="stroke:#000000;stroke-width:1;"/></g><!--link ContractUnderReview to ContractUnderNegotiation--><g class="link" data-entity-1="ContractUnderReview" data-entity-2="ContractUnderNegotiation" data-source-line="22" data-uid="lnk8" id="link_ContractUnderReview_ContractUnderNegotiation"><path d="M598.9,911.18 C618.03,909.58 632.7907,908.348 652.6007,906.698" fill="none" id="ContractUnderReview-to-ContractUnderNegotiation" style="stroke:#000000;stroke-width:1;"/><polygon fill="#000000" points="658.58,906.2,649.279,902.9608,653.5973,906.615,649.9431,910.9332,658.58,906.2" style="stroke:#000000;stroke-width:1;"/></g><!--link ContractUnderReview to ContractApproved--><g class="link" data-entity-1="ContractUnderReview" data-entity-2="ContractApproved" data-source-line="23" data-uid="lnk9" id="link_ContractUnderReview_ContractApproved"><path d="M560.14,897.09 C586.74,883.75 623.82,867.55 658.68,860.53 C837.23,824.61 1047.9976,840.5995 1153.8176,852.4995" fill="none" id="ContractUnderReview-to-ContractApproved" style="stroke:#000000;stroke-width:1;"/><polygon fill="#000000" points="1159.78,853.17,1151.2834,848.1893,1154.8113,852.6112,1150.3894,856.1392,1159.78,853.17" style="stroke:#000000;stroke-width:1;"/></g><!--link ContractUnderReview to ContractRejected--><g class="link" data-entity-1="ContractUnderReview" data-entity-2="ContractRejected" data-source-line="24" data-uid="lnk10" id="link_ContractUnderReview_ContractRejected"><path d="M599.16,929.67 C618.53,932.35 639.34,934.87 658.68,936.53 C841.95,952.21 1053.68,954.5713 1157.4,954.7213" fill="none" id="ContractUnderReview-to-ContractRejected" style="stroke:#000000;stroke-width:1;"/><polygon fill="#000000" points="1163.4,954.73,1154.4058,950.717,1158.4,954.7228,1154.3942,958.717,1163.4,954.73" style="stroke:#000000;stroke-width:1;"/></g><!--link ContractUnderNegotiation to ContractNegotiated--><g class="link" data-entity-1="ContractUnderNegotiation" data-entity-2="ContractNegotiated" data-source-line="25" data-uid="lnk11" id="link_ContractUnderNegotiation_ContractNegotiated"><path d="M844.39,898.53 C867.9,898.53 886.78,898.53 908.94,898.53" fill="none" id="ContractUnderNegotiation-to-ContractNegotiated" style="stroke:#000000;stroke-width:1;"/><polygon fill="#000000" points="914.94,898.53,905.94,894.53,909.94,898.53,905.94,902.53,914.94,898.53" style="stroke:#000000;stroke-width:1;"/></g><!--link ContractNegotiated to ContractApproved--><g class="link" data-entity-1="ContractNegotiated" data-entity-2="ContractApproved" data-source-line="27" data-uid="lnk12" id="link_ContractNegotiated_ContractApproved"><path d="M1055.71,887.73 C1088.49,882.63 1121.4613,877.502 1153.6113,872.502" fill="none" id="ContractNegotiated-to-ContractApproved" style="stroke:#000000;stroke-width:1;"/><polygon fill="#000000" points="1159.54,871.58,1150.0322,869.0106,1154.5994,872.3484,1151.2616,876.9155,1159.54,871.58" style="stroke:#000000;stroke-width:1;"/></g><!--link *start*ContractExecutionStatus to ContractSignedByParty--><g class="link" data-entity-1=".start.ContractExecutionStatus" data-entity-2="ContractSignedByParty" data-source-line="35" data-uid="lnk14" id="link_.start.ContractExecutionStatus_ContractSignedByParty"><path d="M761.82,719.53 C785.62,719.53 844.29,719.53 897.8,719.53" fill="none" id="*start*ContractExecutionStatus-to-ContractSignedByParty" style="stroke:#000000;stroke-width:1;"/><polygon fill="#000000" points="903.8,719.53,894.8,715.53,898.8,719.53,894.8,723.53,903.8,719.53" style="stroke:#000000;stroke-width:1;"/></g><!--link ContractSignedByParty to ContractPartiallySigned--><g class="link" data-entity-1="ContractSignedByParty" data-entity-2="ContractPartiallySigned" data-source-line="36" data-uid="lnk15" id="link_ContractSignedByParty_ContractPartiallySigned"><path d="M1066.47,719.53 C1091.03,719.53 1112.06,719.53 1136.7,719.53" fill="none" id="ContractSignedByParty-to-ContractPartiallySigned" style="stroke:#000000;stroke-width:1;"/><polygon fill="#000000" points="1142.7,719.53,1133.7,715.53,1137.7,719.53,1133.7,723.53,1142.7,719.53" style="stroke:#000000;stroke-width:1;"/></g><!--link ContractPartiallySigned to ContractFullySigned--><g class="link" data-entity-1="ContractPartiallySigned" data-entity-2="ContractFullySigned" data-source-line="37" data-uid="lnk16" id="link_ContractPartiallySigned_ContractFullySigned"><path d="M1307.64,719.53 C1383.01,719.53 1487.93,719.53 1559.55,719.53" fill="none" id="ContractPartiallySigned-to-ContractFullySigned" style="stroke:#000000;stroke-width:1;"/><polygon fill="#000000" points="1565.55,719.53,1556.55,715.53,1560.55,719.53,1556.55,723.53,1565.55,719.53" style="stroke:#000000;stroke-width:1;"/></g><!--link ContractFullySigned to ContractFullyExecuted--><g class="link" data-entity-1="ContractFullySigned" data-entity-2="ContractFullyExecuted" data-source-line="38" data-uid="lnk17" id="link_ContractFullySigned_ContractFullyExecuted"><path d="M1707.92,719.53 C1775.86,719.53 1872.75,719.53 1943.22,719.53" fill="none" id="ContractFullySigned-to-ContractFullyExecuted" style="stroke:#000000;stroke-width:1;"/><polygon fill="#000000" points="1949.22,719.53,1940.22,715.53,1944.22,719.53,1940.22,723.53,1949.22,719.53" style="stroke:#000000;stroke-width:1;"/></g><!--reverse link ContractSignedByParty to ContractApproved--><g class="link" data-entity-1="ContractSignedByParty" data-entity-2="ContractApproved" data-source-line="40" data-uid="lnk19" id="link_ContractSignedByParty_ContractApproved"><path d="M1025.7329,743.1037 C1070.9129,770.0537 1144.69,814.08 1189.87,841.04" fill="none" id="ContractSignedByParty-backto-ContractApproved" style="stroke:#FF0000;stroke-width:1;"/><polygon fill="#FF0000" points="1020.58,740.03,1026.2602,748.0758,1024.8741,742.5914,1030.3585,741.2053,1020.58,740.03" style="stroke:#FF0000;stroke-width:1;"/></g><!--reverse link ContractActivationStatus to ContractFullyExecuted--><g class="link" data-entity-1="ContractActivationStatus" data-entity-2="ContractFullyExecuted" data-source-line="47" data-uid="lnk22" id="link_ContractActivationStatus_ContractFullyExecuted"><path d="M1783.1129,311.4706 C1823.2229,320.5206 1858.61,335.06 1889.66,362.53 C1994.85,455.6 2019.99,638.56 2025.55,699.36" fill="none" id="ContractActivationStatus-backto-ContractFullyExecuted" style="stroke:#FF0000;stroke-width:1;"/><polygon fill="#FF0000" points="1777.26,310.15,1785.1589,316.0328,1782.1374,311.2505,1786.9197,308.229,1777.26,310.15" style="stroke:#FF0000;stroke-width:1;"/></g><!--link ContractActivationStatus to ContractPerformanceStatus--><g class="link" data-entity-1="ContractActivationStatus" data-entity-2="ContractPerformanceStatus" data-source-line="48" data-uid="lnk23" id="link_ContractActivationStatus_ContractPerformanceStatus"><path d="M1636.9,345.32 C1636.9,356.82 1636.9,362.32 1636.9,373.82" fill="none" id="ContractActivationStatus-to-ContractPerformanceStatus" style="stroke:#FF0000;stroke-width:1;"/><polygon fill="#FF0000" points="1636.9,379.82,1640.9,370.82,1636.9,374.82,1632.9,370.82,1636.9,379.82" style="stroke:#FF0000;stroke-width:1;"/></g><!--link ContractActivationStatus to ContractTerminationStatus--><g class="link" data-entity-1="ContractActivationStatus" data-entity-2="ContractTerminationStatus" data-source-line="67" data-uid="lnk34" id="link_ContractActivationStatus_ContractTerminationStatus"><path d="M1496.51,299.53 C1440.01,299.53 1382.09,299.53 1330.6,299.53" fill="none" id="ContractActivationStatus-to-ContractTerminationStatus" style="stroke:#FF0000;stroke-width:1;"/><polygon fill="#FF0000" points="1324.6,299.53,1333.6,303.53,1329.6,299.53,1333.6,295.53,1324.6,299.53" style="stroke:#FF0000;stroke-width:1;"/></g><!--link ContractPerformanceStatus to ContractTerminationStatus--><g class="link" data-entity-1="ContractPerformanceStatus" data-entity-2="ContractTerminationStatus" data-source-line="68" data-uid="lnk35" id="link_ContractPerformanceStatus_ContractTerminationStatus"><path d="M1383.88,381.5 C1363.13,370.72 1348.382,363.0606 1329.922,353.4506" fill="none" id="ContractPerformanceStatus-to-ContractTerminationStatus" style="stroke:#FF0000;stroke-width:1;"/><polygon fill="#FF0000" points="1324.6,350.68,1330.736,358.3839,1329.035,352.9888,1334.4301,351.2878,1324.6,350.68" style="stroke:#FF0000;stroke-width:1;"/></g><!--reverse link ContractFulfilmentStatus to ContractActivationStatus--><g class="link" data-entity-1="ContractFulfilmentStatus" data-entity-2="ContractActivationStatus" data-source-line="77" data-uid="lnk37" id="link_ContractFulfilmentStatus_ContractActivationStatus"><path d="M1636.9,225.3 C1636.9,236.71 1636.9,242.12 1636.9,253.53" fill="none" id="ContractFulfilmentStatus-backto-ContractActivationStatus" style="stroke:#FF0000;stroke-width:1;"/><polygon fill="#FF0000" points="1636.9,219.3,1632.9,228.3,1636.9,224.3,1640.9,228.3,1636.9,219.3" style="stroke:#FF0000;stroke-width:1;"/></g><!--reverse link ContractFulfilmentStatus to ContractPerformanceStatus--><g class="link" data-entity-1="ContractFulfilmentStatus" data-entity-2="ContractPerformanceStatus" data-source-line="78" data-uid="lnk39" id="link_ContractFulfilmentStatus_ContractPerformanceStatus"><path d="M1446.4774,170.4785 C1407.8974,190.7285 1378.01,215.81 1357.3,254.03 C1338.02,289.59 1338.02,309.47 1357.3,345.03 C1364.64,358.59 1373.59,371.16 1383.72,382.79" fill="none" id="ContractFulfilmentStatus-backto-ContractPerformanceStatus" style="stroke:#FF0000;stroke-width:1;"/><polygon fill="#FF0000" points="1451.79,167.69,1441.962,168.331,1447.3628,170.0138,1445.68,175.4145,1451.79,167.69" style="stroke:#FF0000;stroke-width:1;"/></g><!--reverse link ContractTerminationStatus to ContractFulfilmentStatus--><g class="link" data-entity-1="ContractTerminationStatus" data-entity-2="ContractFulfilmentStatus" data-source-line="79" data-uid="lnk41" id="link_ContractTerminationStatus_ContractFulfilmentStatus"><path d="M1330.0733,252.8818 C1368.3033,235.7118 1407.92,217.92 1451.74,198.24" fill="none" id="ContractTerminationStatus-backto-ContractFulfilmentStatus" style="stroke:#FF0000;stroke-width:1;"/><polygon fill="#FF0000" points="1324.6,255.34,1334.4488,255.3016,1329.1611,253.2915,1331.1712,248.0038,1324.6,255.34" style="stroke:#FF0000;stroke-width:1;"/></g><!--SRC=[bLR1Zjem4BtxAxpghHA_K0aAbLQgjeZTzhBQWvLCm5LYMux3Bghuzve08HwFW_U4DE_DyDxpsF3WTj00DxMGYh4QAiUTvbPkTuwNqaBXf5Pi9qlWq1Xtu2MqXPMcBxE74YgfW3ykL_EV_CjcjMJizUiRdys-yUzQEIiAjxPWX1MdXcSdNDSorlfFI1FuFyPvoDd0Noy5oWXOMb5HzLzL1PQe_rObs0ti9RpJs1DijPEzceXmnOYvSsEitlT0p0xo65b19WBQpG2g1ApGpXIJ-DfHSpmqpE5U2s4_HKq96NrXm0z2ln_leEI8zspr0KKtkMLhOVt4kZuyowqY3lb7byREvSNXDED0Tvu5zBtuak1kiXvUgqXh0WcwGWT4DMOFgeyCPynddNdjx_vRqWiwXBb_KFRuhkEq7fKuqO20vZS0iyCrEFDkcWClj72iZIL5p_e7Cfwm1bjfsmXLGEAjmmJI_mAasbwe_K55AJJWhmo5lFXNMbjXfJ_GhZKfsWOKl9F8wiFTcl2Q4i9eA3oBaTeCUj92Hk_OLmOzC8jcv1g_piZbK_PoUoz9Jj7zivTUstXZNy0sKb5B7wzgLZl3-uW8vC9VMOcDDDAIoCA2A7Oaj9IjkRnQ4tcS_k_4flnJKSdQH-tkH_B92HX83RYRQpI8YlLCgic0Xb-9ATAJdfpnH-fwEBJqOFoRCfgNsHJfoEmR11xPVm00]--></g></svg>