<svg xmlns="http://www.w3.org/2000/svg" xmlns:xlink="http://www.w3.org/1999/xlink" contentStyleType="text/css" data-diagram-type="CLASS" height="461px" preserveAspectRatio="none" style="width:948px;height:461px;background:#FFFFFF;" version="1.1" viewBox="0 0 948 461" width="948px" zoomAndPan="magnify"><defs/><g><!--cluster dpv--><g class="cluster" data-entity="dpv" data-source-line="5" data-uid="ent0003" id="cluster_dpv"><path d="M8.5,101.07 L35.1899,101.07 A3.75,3.75 0 0 1 37.6899,103.57 L44.6899,126.1379 L938.5,126.1379 A2.5,2.5 0 0 1 941,128.6379 L941,451.84 A2.5,2.5 0 0 1 938.5,454.34 L8.5,454.34 A2.5,2.5 0 0 1 6,451.84 L6,103.57 A2.5,2.5 0 0 1 8.5,101.07" fill="none" style="stroke:#000000;stroke-width:1.5;"/><line style="stroke:#000000;stroke-width:1.5;" x1="6" x2="44.6899" y1="126.1379" y2="126.1379"/><text fill="#000000" font-family="sans-serif" font-size="14" font-weight="bold" lengthAdjust="spacing" textLength="25.6899" x="10" y="118.0359">dpv</text></g><!--class DataSource--><g class="entity" data-entity="DataSource" data-source-line="6" data-uid="ent0004" id="entity_DataSource"><rect fill="#F1F1F1" height="29.0679" rx="2.5" ry="2.5" style="stroke:#181818;stroke-width:0.5;" width="82.1877" x="466.91" y="139.07"/><text fill="#000000" font-family="sans-serif" font-size="14" lengthAdjust="spacing" textLength="76.1877" x="469.91" y="159.0359">DataSource</text></g><!--class DataSubjectDataSource--><g class="entity" data-entity="DataSubjectDataSource" data-source-line="7" data-uid="ent0005" id="entity_DataSubjectDataSource"><rect fill="#F1F1F1" height="29.0679" rx="2.5" ry="2.5" style="stroke:#181818;stroke-width:0.5;" width="161.3994" x="22.3" y="229.14"/><text fill="#000000" font-family="sans-serif" font-size="14" lengthAdjust="spacing" textLength="155.3994" x="25.3" y="249.1059">DataSubjectDataSource</text></g><!--class DataPublishedByDataSubject--><g class="entity" data-entity="DataPublishedByDataSubject" data-source-line="8" data-uid="ent0006" id="entity_DataPublishedByDataSubject"><rect fill="#F1F1F1" height="29.0679" rx="2.5" ry="2.5" style="stroke:#181818;stroke-width:0.5;" width="197.2533" x="22.37" y="319.2"/><text fill="#000000" font-family="sans-serif" font-size="14" lengthAdjust="spacing" textLength="191.2533" x="25.37" y="339.1659">DataPublishedByDataSubject</text></g><!--class DataControllerDataSource--><g class="entity" data-entity="DataControllerDataSource" data-source-line="9" data-uid="ent0007" id="entity_DataControllerDataSource"><rect fill="#F1F1F1" height="29.0679" rx="2.5" ry="2.5" style="stroke:#181818;stroke-width:0.5;" width="179.3474" x="218.33" y="229.14"/><text fill="#000000" font-family="sans-serif" font-size="14" lengthAdjust="spacing" textLength="173.3474" x="221.33" y="249.1059">DataControllerDataSource</text></g><!--class ThirdPartyDataSource--><g class="entity" data-entity="ThirdPartyDataSource" data-source-line="10" data-uid="ent0008" id="entity_ThirdPartyDataSource"><rect fill="#F1F1F1" height="29.0679" rx="2.5" ry="2.5" style="stroke:#181818;stroke-width:0.5;" width="150.9275" x="432.54" y="229.14"/><text fill="#000000" font-family="sans-serif" font-size="14" lengthAdjust="spacing" textLength="144.9275" x="435.54" y="249.1059">ThirdPartyDataSource</text></g><!--class PublicDataSource--><g class="entity" data-entity="PublicDataSource" data-source-line="11" data-uid="ent0009" id="entity_PublicDataSource"><rect fill="#F1F1F1" height="29.0679" rx="2.5" ry="2.5" style="stroke:#181818;stroke-width:0.5;" width="121.8636" x="618.07" y="229.14"/><text fill="#000000" font-family="sans-serif" font-size="14" lengthAdjust="spacing" textLength="115.8636" x="621.07" y="249.1059">PublicDataSource</text></g><!--class NonPublicDataSource--><g class="entity" data-entity="NonPublicDataSource" data-source-line="12" data-uid="ent0010" id="entity_NonPublicDataSource"><rect fill="#F1F1F1" height="29.0679" rx="2.5" ry="2.5" style="stroke:#181818;stroke-width:0.5;" width="149.6254" x="775.19" y="229.14"/><text fill="#000000" font-family="sans-serif" font-size="14" lengthAdjust="spacing" textLength="143.6254" x="778.19" y="249.1059">NonPublicDataSource</text></g><!--class DataSubject--><g class="entity" data-entity="DataSubject" data-source-line="13" data-uid="ent0011" id="entity_DataSubject"><rect fill="#F1F1F1" height="29.0679" rx="2.5" ry="2.5" style="stroke:#181818;stroke-width:0.5;" width="85.2117" x="146.39" y="409.27"/><text fill="#000000" font-family="sans-serif" font-size="14" lengthAdjust="spacing" textLength="79.2117" x="149.39" y="429.2359">DataSubject</text></g><!--class DataController--><g class="entity" data-entity="DataController" data-source-line="14" data-uid="ent0012" id="entity_DataController"><rect fill="#F1F1F1" height="29.0679" rx="2.5" ry="2.5" style="stroke:#181818;stroke-width:0.5;" width="103.1596" x="292.42" y="319.2"/><text fill="#000000" font-family="sans-serif" font-size="14" lengthAdjust="spacing" textLength="97.1596" x="295.42" y="339.1659">DataController</text></g><!--class ThirdParty--><g class="entity" data-entity="ThirdParty" data-source-line="15" data-uid="ent0013" id="entity_ThirdParty"><rect fill="#F1F1F1" height="29.0679" rx="2.5" ry="2.5" style="stroke:#181818;stroke-width:0.5;" width="74.7397" x="470.63" y="319.2"/><text fill="#000000" font-family="sans-serif" font-size="14" lengthAdjust="spacing" textLength="68.7397" x="473.63" y="339.1659">ThirdParty</text></g><!--class Thing--><g class="entity" data-entity="Thing" data-source-line="3" data-uid="ent0002" id="entity_Thing"><rect fill="#C0C0C0" height="29.0679" rx="2.5" ry="2.5" style="stroke:#181818;stroke-width:0.5;" width="43.3098" x="486.35" y="7"/><text fill="#000000" font-family="sans-serif" font-size="14" lengthAdjust="spacing" textLength="37.3098" x="489.35" y="26.9659">Thing</text></g><!--link Thing to DataSource--><g class="link" data-entity-1="Thing" data-entity-2="DataSource" data-source-line="18" data-uid="lnk14" id="link_Thing_DataSource"><path codeLine="18" d="M508,36.45 C508,61.49 508,113.82 508,138.78" fill="none" id="Thing-DataSource" style="stroke:#181818;stroke-width:1;"/><polygon fill="#000000" points="513,80.923,515.9389,71.8779,510.0611,71.8779,513,80.923" style="stroke:#000000;stroke-width:1;"/><text fill="#000000" font-family="sans-serif" font-size="13" lengthAdjust="spacing" textLength="92.3001" x="522" y="80.967">hasDataSource</text></g><!--reverse link DataSource to DataSubjectDataSource--><g class="link" data-entity-1="DataSource" data-entity-2="DataSubjectDataSource" data-source-line="20" data-uid="lnk15" id="link_DataSource_DataSubjectDataSource"><path codeLine="20" d="M448.9712,167.4355 C378.2112,182.8255 251.19,210.45 167.25,228.7" fill="none" id="DataSource-backto-DataSubjectDataSource" style="stroke:#181818;stroke-width:1;"/><polygon fill="none" points="466.56,163.61,447.696,161.5726,450.2464,173.2984,466.56,163.61" style="stroke:#181818;stroke-width:1;"/></g><!--reverse link DataSubjectDataSource to DataPublishedByDataSubject--><g class="link" data-entity-1="DataSubjectDataSource" data-entity-2="DataPublishedByDataSubject" data-source-line="21" data-uid="lnk16" id="link_DataSubjectDataSource_DataPublishedByDataSubject"><path codeLine="21" d="M109.4122,276.0659 C112.7722,292.5159 114.77,302.25 118.15,318.78" fill="none" id="DataSubjectDataSource-backto-DataPublishedByDataSubject" style="stroke:#181818;stroke-width:1;"/><polygon fill="none" points="105.81,258.43,103.5336,277.2666,115.2908,274.8651,105.81,258.43" style="stroke:#181818;stroke-width:1;"/></g><!--reverse link DataSource to DataControllerDataSource--><g class="link" data-entity-1="DataSource" data-entity-2="DataControllerDataSource" data-source-line="22" data-uid="lnk17" id="link_DataSource_DataControllerDataSource"><path codeLine="22" d="M459.8363,175.8137 C422.3863,192.3037 376.93,212.32 339.54,228.78" fill="none" id="DataSource-backto-DataControllerDataSource" style="stroke:#181818;stroke-width:1;"/><polygon fill="none" points="476.31,168.56,457.4184,170.3225,462.2542,181.305,476.31,168.56" style="stroke:#181818;stroke-width:1;"/></g><!--reverse link DataSource to ThirdPartyDataSource--><g class="link" data-entity-1="DataSource" data-entity-2="ThirdPartyDataSource" data-source-line="23" data-uid="lnk18" id="link_DataSource_ThirdPartyDataSource"><path codeLine="23" d="M508,186.36 C508,202.81 508,212.18 508,228.72" fill="none" id="DataSource-backto-ThirdPartyDataSource" style="stroke:#181818;stroke-width:1;"/><polygon fill="none" points="508,168.36,502,186.36,514,186.36,508,168.36" style="stroke:#181818;stroke-width:1;"/></g><!--reverse link DataSource to PublicDataSource--><g class="link" data-entity-1="DataSource" data-entity-2="PublicDataSource" data-source-line="24" data-uid="lnk19" id="link_DataSource_PublicDataSource"><path codeLine="24" d="M551.1015,176.8032 C583.1115,193.2932 620.07,212.32 652.03,228.78" fill="none" id="DataSource-backto-PublicDataSource" style="stroke:#181818;stroke-width:1;"/><polygon fill="none" points="535.1,168.56,548.3538,182.1371,553.8493,171.4694,535.1,168.56" style="stroke:#181818;stroke-width:1;"/></g><!--reverse link DataSource to NonPublicDataSource--><g class="link" data-entity-1="DataSource" data-entity-2="NonPublicDataSource" data-source-line="25" data-uid="lnk20" id="link_DataSource_NonPublicDataSource"><path codeLine="25" d="M566.6817,169.7173 C628.3317,185.5873 727.13,211.03 795.64,228.67" fill="none" id="DataSource-backto-NonPublicDataSource" style="stroke:#181818;stroke-width:1;"/><polygon fill="none" points="549.25,165.23,565.1859,175.5279,568.1775,163.9067,549.25,165.23" style="stroke:#181818;stroke-width:1;"/></g><!--link DataSubjectDataSource to DataSubject--><g class="link" data-entity-1="DataSubjectDataSource" data-entity-2="DataSubject" data-source-line="27" data-uid="lnk21" id="link_DataSubjectDataSource_DataSubject"><path codeLine="27" d="M153.65,258.62 C183.59,269.76 219.05,288.68 237,319.2 C255.09,349.96 224.01,388.69 203.96,408.97" fill="none" id="DataSubjectDataSource-DataSubject" style="stroke:#181818;stroke-width:1;stroke-dasharray:7,7;"/></g><!--link DataPublishedByDataSubject to DataSubject--><g class="link" data-entity-1="DataPublishedByDataSubject" data-entity-2="DataSubject" data-source-line="28" data-uid="lnk22" id="link_DataPublishedByDataSubject_DataSubject"><path codeLine="28" d="M131.62,348.5 C144.33,364.95 165.46,392.32 178.23,408.85" fill="none" id="DataPublishedByDataSubject-DataSubject" style="stroke:#181818;stroke-width:1;stroke-dasharray:7,7;"/></g><!--link DataControllerDataSource to DataController--><g class="link" data-entity-1="DataControllerDataSource" data-entity-2="DataController" data-source-line="29" data-uid="lnk23" id="link_DataControllerDataSource_DataController"><path codeLine="29" d="M313.62,258.43 C320.35,274.88 331.54,302.25 338.3,318.78" fill="none" id="DataControllerDataSource-DataController" style="stroke:#181818;stroke-width:1;stroke-dasharray:7,7;"/></g><!--link ThirdPartyDataSource to ThirdParty--><g class="link" data-entity-1="ThirdPartyDataSource" data-entity-2="ThirdParty" data-source-line="30" data-uid="lnk24" id="link_ThirdPartyDataSource_ThirdParty"><path codeLine="30" d="M508,258.43 C508,274.88 508,302.25 508,318.78" fill="none" id="ThirdPartyDataSource-ThirdParty" style="stroke:#181818;stroke-width:1;stroke-dasharray:7,7;"/></g><!--SRC=[ZP5D2i8m48NtSueHr-q1H5oeQn7q0caIR7LCItuAHRsxrL8CSIfcbtbValTUPfMH59H6vplIUKF2-70b04d2EJoMbJdXt5NKQWlG27aH9usgQV46sAy1smel3dMmKgV3K9orz9FwFXHKkLAhTHVX2RIfZRSraRRiFRr7g_R2-ewLtqz8LjhLveVwZo7M1Zm0XkAoBAe65rWA5-rN0D5kUH_fhyxOwUV0H8aSobQPWcoXAVHLN0fmvKuaoNDCZVEPE9ABD7BHHt6XNjXd_WG0]--></g></svg>