<svg xmlns="http://www.w3.org/2000/svg" xmlns:xlink="http://www.w3.org/1999/xlink" contentStyleType="text/css" height="1246px" preserveAspectRatio="none" style="width:1524px;height:1246px;background:#FFFFFF;" version="1.1" viewBox="0 0 1524 1246" width="1524px" zoomAndPan="magnify"><defs/><g><!--cluster dpv--><g id="cluster_dpv"><path d="M71,6.602 L98,6.602 A3.75,3.75 0 0 1 100.5,9.102 L107.5,31.6699 L1515,31.6699 A2.5,2.5 0 0 1 1517.5,34.1699 L1517.5,1237.052 A2.5,2.5 0 0 1 1515,1239.552 L71,1239.552 A2.5,2.5 0 0 1 68.5,1237.052 L68.5,9.102 A2.5,2.5 0 0 1 71,6.602 " fill="none" style="stroke:#000000;stroke-width:1.5;"/><line style="stroke:#000000;stroke-width:1.5;" x1="68.5" x2="107.5" y1="31.6699" y2="31.6699"/><text fill="#000000" font-family="sans-serif" font-size="14" font-weight="bold" lengthAdjust="spacing" textLength="26" x="72.5" y="23.5679">dpv</text></g><!--cluster legal--><g id="cluster_legal"><polygon fill="none" points="817.5,264.742,827.5,254.742,1485.5,254.742,1485.5,1197.552,1475.5,1207.552,817.5,1207.552,817.5,264.742" style="stroke:#181818;stroke-width:1.0;"/><line style="stroke:#181818;stroke-width:1.0;" x1="1475.5" x2="1485.5" y1="264.742" y2="254.742"/><line style="stroke:#181818;stroke-width:1.0;" x1="817.5" x2="1475.5" y1="264.742" y2="264.742"/><line style="stroke:#181818;stroke-width:1.0;" x1="1475.5" x2="1475.5" y1="264.742" y2="1207.552"/><text fill="#000000" font-family="sans-serif" font-size="14" font-weight="bold" lengthAdjust="spacing" textLength="33" x="1131" y="282.7079">legal</text></g><!--cluster eu--><g id="cluster_eu"><path d="M868,321.742 L886,321.742 A3.75,3.75 0 0 1 888.5,324.242 L895.5,346.8099 L1421,346.8099 A2.5,2.5 0 0 1 1423.5,349.3099 L1423.5,447.372 A2.5,2.5 0 0 1 1421,449.872 L868,449.872 A2.5,2.5 0 0 1 865.5,447.372 L865.5,324.242 A2.5,2.5 0 0 1 868,321.742 " fill="none" style="stroke:#000000;stroke-width:1.5;"/><line style="stroke:#000000;stroke-width:1.5;" x1="865.5" x2="895.5" y1="346.8099" y2="346.8099"/><text fill="#000000" font-family="sans-serif" font-size="14" font-weight="bold" lengthAdjust="spacing" textLength="17" x="869.5" y="338.7079">eu</text></g><!--cluster sector--><g id="cluster_sector"><polygon fill="none" points="100.5,646.012,110.5,636.012,777.5,636.012,777.5,759.142,767.5,769.142,100.5,769.142,100.5,646.012" style="stroke:#181818;stroke-width:1.0;"/><line style="stroke:#181818;stroke-width:1.0;" x1="767.5" x2="777.5" y1="646.012" y2="636.012"/><line style="stroke:#181818;stroke-width:1.0;" x1="100.5" x2="767.5" y1="646.012" y2="646.012"/><line style="stroke:#181818;stroke-width:1.0;" x1="767.5" x2="767.5" y1="646.012" y2="769.142"/><text fill="#000000" font-family="sans-serif" font-size="14" font-weight="bold" lengthAdjust="spacing" textLength="43" x="413.5" y="663.9779">sector</text></g><!--cluster standards--><g id="cluster_standards"><polygon fill="none" points="632.5,828.142,642.5,818.142,777.5,818.142,777.5,941.282,767.5,951.282,632.5,951.282,632.5,828.142" style="stroke:#181818;stroke-width:1.0;"/><line style="stroke:#181818;stroke-width:1.0;" x1="767.5" x2="777.5" y1="828.142" y2="818.142"/><line style="stroke:#181818;stroke-width:1.0;" x1="632.5" x2="767.5" y1="828.142" y2="828.142"/><line style="stroke:#181818;stroke-width:1.0;" x1="767.5" x2="767.5" y1="828.142" y2="951.282"/><text fill="#000000" font-family="sans-serif" font-size="14" font-weight="bold" lengthAdjust="spacing" textLength="69" x="666.5" y="846.1079">standards</text></g><!--class Process--><g id="elem_Process"><rect codeLine="9" fill="#F1F1F1" height="29.0679" id="Process" rx="2.5" ry="2.5" style="stroke:#181818;stroke-width:0.5;" width="57" x="489" y="44.602"/><text fill="#000000" font-family="sans-serif" font-size="14" lengthAdjust="spacing" textLength="51" x="492" y="64.5679">Process</text></g><!--class PersonalData--><g id="elem_PersonalData"><rect codeLine="10" fill="#F1F1F1" height="29.0679" id="PersonalData" rx="2.5" ry="2.5" style="stroke:#181818;stroke-width:0.5;" width="95" x="276" y="152.672"/><text fill="#000000" font-family="sans-serif" font-size="14" lengthAdjust="spacing" textLength="89" x="279" y="172.6379">PersonalData</text></g><!--class Risk--><g id="elem_Risk"><rect codeLine="11" fill="#F1F1F1" height="29.0679" id="Risk" rx="2.5" ry="2.5" style="stroke:#181818;stroke-width:0.5;" width="33" x="448" y="152.672"/><text fill="#000000" font-family="sans-serif" font-size="14" lengthAdjust="spacing" textLength="27" x="451" y="172.6379">Risk</text></g><!--class Technology--><g id="elem_Technology"><rect codeLine="12" fill="#F1F1F1" height="29.0679" id="Technology" rx="2.5" ry="2.5" style="stroke:#181818;stroke-width:0.5;" width="83" x="676" y="152.672"/><text fill="#000000" font-family="sans-serif" font-size="14" lengthAdjust="spacing" textLength="77" x="679" y="172.6379">Technology</text></g><!--class Location--><g id="elem_Location"><rect codeLine="13" fill="#F1F1F1" height="29.0679" id="Location" rx="2.5" ry="2.5" style="stroke:#181818;stroke-width:0.5;" width="62" x="538.5" y="382.272"/><text fill="#000000" font-family="sans-serif" font-size="14" lengthAdjust="spacing" textLength="56" x="541.5" y="402.2379">Location</text></g><!--class Law--><g id="elem_Law"><rect codeLine="14" fill="#F1F1F1" height="29.0679" id="Law" rx="2.5" ry="2.5" style="stroke:#181818;stroke-width:0.5;" width="32" x="814.5" y="152.672"/><text fill="#000000" font-family="sans-serif" font-size="14" lengthAdjust="spacing" textLength="26" x="817.5" y="172.6379">Law</text></g><!--class Justification--><g id="elem_Justification"><rect codeLine="15" fill="#F1F1F1" height="29.0679" id="Justification" rx="2.5" ry="2.5" style="stroke:#181818;stroke-width:0.5;" width="85" x="150" y="152.672"/><text fill="#000000" font-family="sans-serif" font-size="14" lengthAdjust="spacing" textLength="79" x="153" y="172.6379">Justification</text></g><!--class Data--><g id="elem_Data"><rect fill="#F1F1F1" height="29.0679" id="Data" rx="2.5" ry="2.5" style="stroke:#181818;stroke-width:0.5;" width="37" x="984" y="152.672"/><text fill="#000000" font-family="sans-serif" font-size="14" lengthAdjust="spacing" textLength="31" x="987" y="172.6379">Data</text></g><path d="M307,367.742 L326,367.742 A3.75,3.75 0 0 1 328.5,370.242 L335.5,392.8099 L340,392.8099 A2.5,2.5 0 0 1 342.5,395.3099 L342.5,423.3778 A2.5,2.5 0 0 1 340,425.8778 L307,425.8778 A2.5,2.5 0 0 1 304.5,423.3778 L304.5,370.242 A2.5,2.5 0 0 1 307,367.742 " fill="#F1F1F1" style="stroke:#181818;stroke-width:0.5;"/><line style="stroke:#181818;stroke-width:0.5;" x1="304.5" x2="335.5" y1="392.8099" y2="392.8099"/><text fill="#000000" font-family="sans-serif" font-size="14" font-weight="bold" lengthAdjust="spacing" textLength="18" x="308.5" y="384.7079">pd</text><path d="M444,367.742 L471,367.742 A3.75,3.75 0 0 1 473.5,370.242 L480.5,392.8099 L485,392.8099 A2.5,2.5 0 0 1 487.5,395.3099 L487.5,423.3778 A2.5,2.5 0 0 1 485,425.8778 L444,425.8778 A2.5,2.5 0 0 1 441.5,423.3778 L441.5,370.242 A2.5,2.5 0 0 1 444,367.742 " fill="#F1F1F1" style="stroke:#181818;stroke-width:0.5;"/><line style="stroke:#181818;stroke-width:0.5;" x1="441.5" x2="480.5" y1="392.8099" y2="392.8099"/><text fill="#000000" font-family="sans-serif" font-size="14" font-weight="bold" lengthAdjust="spacing" textLength="26" x="445.5" y="384.7079">risk</text><path d="M699,367.742 L730,367.742 A3.75,3.75 0 0 1 732.5,370.242 L739.5,392.8099 L744,392.8099 A2.5,2.5 0 0 1 746.5,395.3099 L746.5,423.3778 A2.5,2.5 0 0 1 744,425.8778 L699,425.8778 A2.5,2.5 0 0 1 696.5,423.3778 L696.5,370.242 A2.5,2.5 0 0 1 699,367.742 " fill="#F1F1F1" style="stroke:#181818;stroke-width:0.5;"/><line style="stroke:#181818;stroke-width:0.5;" x1="696.5" x2="739.5" y1="392.8099" y2="392.8099"/><text fill="#000000" font-family="sans-serif" font-size="14" font-weight="bold" lengthAdjust="spacing" textLength="30" x="700.5" y="384.7079">tech</text><path d="M140.5,367.742 L230.5,367.742 A3.75,3.75 0 0 1 233,370.242 L240,392.8099 L244.5,392.8099 A2.5,2.5 0 0 1 247,395.3099 L247,423.3778 A2.5,2.5 0 0 1 244.5,425.8778 L140.5,425.8778 A2.5,2.5 0 0 1 138,423.3778 L138,370.242 A2.5,2.5 0 0 1 140.5,367.742 " fill="#F1F1F1" style="stroke:#181818;stroke-width:0.5;"/><line style="stroke:#181818;stroke-width:0.5;" x1="138" x2="240" y1="392.8099" y2="392.8099"/><text fill="#000000" font-family="sans-serif" font-size="14" font-weight="bold" lengthAdjust="spacing" textLength="89" x="142" y="384.7079">justifications</text><path d="M625,522.872 L646,522.872 A3.75,3.75 0 0 1 648.5,525.372 L655.5,547.9399 L660,547.9399 A2.5,2.5 0 0 1 662.5,550.4399 L662.5,578.5078 A2.5,2.5 0 0 1 660,581.0078 L625,581.0078 A2.5,2.5 0 0 1 622.5,578.5078 L622.5,525.372 A2.5,2.5 0 0 1 625,522.872 " fill="#F1F1F1" style="stroke:#181818;stroke-width:0.5;"/><line style="stroke:#181818;stroke-width:0.5;" x1="622.5" x2="655.5" y1="547.9399" y2="547.9399"/><text fill="#000000" font-family="sans-serif" font-size="14" font-weight="bold" lengthAdjust="spacing" textLength="20" x="626.5" y="539.8379">loc</text><path d="M756,522.872 L769,522.872 A3.75,3.75 0 0 1 771.5,525.372 L778.5,547.9399 L783,547.9399 A2.5,2.5 0 0 1 785.5,550.4399 L785.5,578.5078 A2.5,2.5 0 0 1 783,581.0078 L756,581.0078 A2.5,2.5 0 0 1 753.5,578.5078 L753.5,525.372 A2.5,2.5 0 0 1 756,522.872 " fill="#F1F1F1" style="stroke:#181818;stroke-width:0.5;"/><line style="stroke:#181818;stroke-width:0.5;" x1="753.5" x2="778.5" y1="547.9399" y2="547.9399"/><text fill="#000000" font-family="sans-serif" font-size="14" font-weight="bold" lengthAdjust="spacing" textLength="12" x="757.5" y="539.8379">ai</text><path d="M891.5,367.742 L925.5,367.742 A3.75,3.75 0 0 1 928,370.242 L935,392.8099 L939.5,392.8099 A2.5,2.5 0 0 1 942,395.3099 L942,423.3778 A2.5,2.5 0 0 1 939.5,425.8778 L891.5,425.8778 A2.5,2.5 0 0 1 889,423.3778 L889,370.242 A2.5,2.5 0 0 1 891.5,367.742 " fill="#F1F1F1" style="stroke:#181818;stroke-width:0.5;"/><line style="stroke:#181818;stroke-width:0.5;" x1="889" x2="935" y1="392.8099" y2="392.8099"/><text fill="#000000" font-family="sans-serif" font-size="14" font-weight="bold" lengthAdjust="spacing" textLength="33" x="893" y="384.7079">aiact</text><path d="M980,367.742 L1007,367.742 A3.75,3.75 0 0 1 1009.5,370.242 L1016.5,392.8099 L1021,392.8099 A2.5,2.5 0 0 1 1023.5,395.3099 L1023.5,423.3778 A2.5,2.5 0 0 1 1021,425.8778 L980,425.8778 A2.5,2.5 0 0 1 977.5,423.3778 L977.5,370.242 A2.5,2.5 0 0 1 980,367.742 " fill="#F1F1F1" style="stroke:#181818;stroke-width:0.5;"/><line style="stroke:#181818;stroke-width:0.5;" x1="977.5" x2="1016.5" y1="392.8099" y2="392.8099"/><text fill="#000000" font-family="sans-serif" font-size="14" font-weight="bold" lengthAdjust="spacing" textLength="26" x="981.5" y="384.7079">dga</text><path d="M1061.5,367.742 L1095.5,367.742 A3.75,3.75 0 0 1 1098,370.242 L1105,392.8099 L1109.5,392.8099 A2.5,2.5 0 0 1 1112,395.3099 L1112,423.3778 A2.5,2.5 0 0 1 1109.5,425.8778 L1061.5,425.8778 A2.5,2.5 0 0 1 1059,423.3778 L1059,370.242 A2.5,2.5 0 0 1 1061.5,367.742 " fill="#F1F1F1" style="stroke:#181818;stroke-width:0.5;"/><line style="stroke:#181818;stroke-width:0.5;" x1="1059" x2="1105" y1="392.8099" y2="392.8099"/><text fill="#000000" font-family="sans-serif" font-size="14" font-weight="bold" lengthAdjust="spacing" textLength="33" x="1063" y="384.7079">gdpr</text><path d="M1150,367.742 L1179,367.742 A3.75,3.75 0 0 1 1181.5,370.242 L1188.5,392.8099 L1193,392.8099 A2.5,2.5 0 0 1 1195.5,395.3099 L1195.5,423.3778 A2.5,2.5 0 0 1 1193,425.8778 L1150,425.8778 A2.5,2.5 0 0 1 1147.5,423.3778 L1147.5,370.242 A2.5,2.5 0 0 1 1150,367.742 " fill="#F1F1F1" style="stroke:#181818;stroke-width:0.5;"/><line style="stroke:#181818;stroke-width:0.5;" x1="1147.5" x2="1188.5" y1="392.8099" y2="392.8099"/><text fill="#000000" font-family="sans-serif" font-size="14" font-weight="bold" lengthAdjust="spacing" textLength="28" x="1151.5" y="384.7079">nis2</text><path d="M1233.5,367.742 L1275.5,367.742 A3.75,3.75 0 0 1 1278,370.242 L1285,392.8099 L1289.5,392.8099 A2.5,2.5 0 0 1 1292,395.3099 L1292,423.3778 A2.5,2.5 0 0 1 1289.5,425.8778 L1233.5,425.8778 A2.5,2.5 0 0 1 1231,423.3778 L1231,370.242 A2.5,2.5 0 0 1 1233.5,367.742 " fill="#F1F1F1" style="stroke:#181818;stroke-width:0.5;"/><line style="stroke:#181818;stroke-width:0.5;" x1="1231" x2="1285" y1="392.8099" y2="392.8099"/><text fill="#000000" font-family="sans-serif" font-size="14" font-weight="bold" lengthAdjust="spacing" textLength="41" x="1235" y="384.7079">rights</text><path d="M1329.5,367.742 L1363.5,367.742 A3.75,3.75 0 0 1 1366,370.242 L1373,392.8099 L1377.5,392.8099 A2.5,2.5 0 0 1 1380,395.3099 L1380,423.3778 A2.5,2.5 0 0 1 1377.5,425.8778 L1329.5,425.8778 A2.5,2.5 0 0 1 1327,423.3778 L1327,370.242 A2.5,2.5 0 0 1 1329.5,367.742 " fill="#F1F1F1" style="stroke:#181818;stroke-width:0.5;"/><line style="stroke:#181818;stroke-width:0.5;" x1="1327" x2="1373" y1="392.8099" y2="392.8099"/><text fill="#000000" font-family="sans-serif" font-size="14" font-weight="bold" lengthAdjust="spacing" textLength="33" x="1331" y="384.7079">ehds</text><path d="M891,522.872 L906,522.872 A3.75,3.75 0 0 1 908.5,525.372 L915.5,547.9399 L920,547.9399 A2.5,2.5 0 0 1 922.5,550.4399 L922.5,578.5078 A2.5,2.5 0 0 1 920,581.0078 L891,581.0078 A2.5,2.5 0 0 1 888.5,578.5078 L888.5,525.372 A2.5,2.5 0 0 1 891,522.872 " fill="#F1F1F1" style="stroke:#181818;stroke-width:0.5;"/><line style="stroke:#181818;stroke-width:0.5;" x1="888.5" x2="915.5" y1="547.9399" y2="547.9399"/><text fill="#000000" font-family="sans-serif" font-size="14" font-weight="bold" lengthAdjust="spacing" textLength="14" x="892.5" y="539.8379">at</text><path d="M959.5,522.872 L977.5,522.872 A3.75,3.75 0 0 1 980,525.372 L987,547.9399 L991.5,547.9399 A2.5,2.5 0 0 1 994,550.4399 L994,578.5078 A2.5,2.5 0 0 1 991.5,581.0078 L959.5,581.0078 A2.5,2.5 0 0 1 957,578.5078 L957,525.372 A2.5,2.5 0 0 1 959.5,522.872 " fill="#F1F1F1" style="stroke:#181818;stroke-width:0.5;"/><line style="stroke:#181818;stroke-width:0.5;" x1="957" x2="987" y1="547.9399" y2="547.9399"/><text fill="#000000" font-family="sans-serif" font-size="14" font-weight="bold" lengthAdjust="spacing" textLength="17" x="961" y="539.8379">be</text><path d="M1032,522.872 L1051,522.872 A3.75,3.75 0 0 1 1053.5,525.372 L1060.5,547.9399 L1065,547.9399 A2.5,2.5 0 0 1 1067.5,550.4399 L1067.5,578.5078 A2.5,2.5 0 0 1 1065,581.0078 L1032,581.0078 A2.5,2.5 0 0 1 1029.5,578.5078 L1029.5,525.372 A2.5,2.5 0 0 1 1032,522.872 " fill="#F1F1F1" style="stroke:#181818;stroke-width:0.5;"/><line style="stroke:#181818;stroke-width:0.5;" x1="1029.5" x2="1060.5" y1="547.9399" y2="547.9399"/><text fill="#000000" font-family="sans-serif" font-size="14" font-weight="bold" lengthAdjust="spacing" textLength="18" x="1033.5" y="539.8379">bg</text><path d="M1105.5,522.872 L1121.5,522.872 A3.75,3.75 0 0 1 1124,525.372 L1131,547.9399 L1135.5,547.9399 A2.5,2.5 0 0 1 1138,550.4399 L1138,578.5078 A2.5,2.5 0 0 1 1135.5,581.0078 L1105.5,581.0078 A2.5,2.5 0 0 1 1103,578.5078 L1103,525.372 A2.5,2.5 0 0 1 1105.5,522.872 " fill="#F1F1F1" style="stroke:#181818;stroke-width:0.5;"/><line style="stroke:#181818;stroke-width:0.5;" x1="1103" x2="1131" y1="547.9399" y2="547.9399"/><text fill="#000000" font-family="sans-serif" font-size="14" font-weight="bold" lengthAdjust="spacing" textLength="15" x="1107" y="539.8379">cy</text><path d="M1175,522.872 L1190,522.872 A3.75,3.75 0 0 1 1192.5,525.372 L1199.5,547.9399 L1204,547.9399 A2.5,2.5 0 0 1 1206.5,550.4399 L1206.5,578.5078 A2.5,2.5 0 0 1 1204,581.0078 L1175,581.0078 A2.5,2.5 0 0 1 1172.5,578.5078 L1172.5,525.372 A2.5,2.5 0 0 1 1175,522.872 " fill="#F1F1F1" style="stroke:#181818;stroke-width:0.5;"/><line style="stroke:#181818;stroke-width:0.5;" x1="1172.5" x2="1199.5" y1="547.9399" y2="547.9399"/><text fill="#000000" font-family="sans-serif" font-size="14" font-weight="bold" lengthAdjust="spacing" textLength="14" x="1176.5" y="539.8379">cz</text><path d="M1243.5,522.872 L1261.5,522.872 A3.75,3.75 0 0 1 1264,525.372 L1271,547.9399 L1275.5,547.9399 A2.5,2.5 0 0 1 1278,550.4399 L1278,578.5078 A2.5,2.5 0 0 1 1275.5,581.0078 L1243.5,581.0078 A2.5,2.5 0 0 1 1241,578.5078 L1241,525.372 A2.5,2.5 0 0 1 1243.5,522.872 " fill="#F1F1F1" style="stroke:#181818;stroke-width:0.5;"/><line style="stroke:#181818;stroke-width:0.5;" x1="1241" x2="1271" y1="547.9399" y2="547.9399"/><text fill="#000000" font-family="sans-serif" font-size="14" font-weight="bold" lengthAdjust="spacing" textLength="17" x="1245" y="539.8379">de</text><path d="M1316,522.872 L1335,522.872 A3.75,3.75 0 0 1 1337.5,525.372 L1344.5,547.9399 L1349,547.9399 A2.5,2.5 0 0 1 1351.5,550.4399 L1351.5,578.5078 A2.5,2.5 0 0 1 1349,581.0078 L1316,581.0078 A2.5,2.5 0 0 1 1313.5,578.5078 L1313.5,525.372 A2.5,2.5 0 0 1 1316,522.872 " fill="#F1F1F1" style="stroke:#181818;stroke-width:0.5;"/><line style="stroke:#181818;stroke-width:0.5;" x1="1313.5" x2="1344.5" y1="547.9399" y2="547.9399"/><text fill="#000000" font-family="sans-serif" font-size="14" font-weight="bold" lengthAdjust="spacing" textLength="18" x="1317.5" y="539.8379">dk</text><path d="M1389,522.872 L1406,522.872 A3.75,3.75 0 0 1 1408.5,525.372 L1415.5,547.9399 L1420,547.9399 A2.5,2.5 0 0 1 1422.5,550.4399 L1422.5,578.5078 A2.5,2.5 0 0 1 1420,581.0078 L1389,581.0078 A2.5,2.5 0 0 1 1386.5,578.5078 L1386.5,525.372 A2.5,2.5 0 0 1 1389,522.872 " fill="#F1F1F1" style="stroke:#181818;stroke-width:0.5;"/><line style="stroke:#181818;stroke-width:0.5;" x1="1386.5" x2="1415.5" y1="547.9399" y2="547.9399"/><text fill="#000000" font-family="sans-serif" font-size="14" font-weight="bold" lengthAdjust="spacing" textLength="16" x="1390.5" y="539.8379">ee</text><path d="M860.5,687.012 L876.5,687.012 A3.75,3.75 0 0 1 879,689.512 L886,712.0799 L890.5,712.0799 A2.5,2.5 0 0 1 893,714.5799 L893,742.6478 A2.5,2.5 0 0 1 890.5,745.1478 L860.5,745.1478 A2.5,2.5 0 0 1 858,742.6478 L858,689.512 A2.5,2.5 0 0 1 860.5,687.012 " fill="#F1F1F1" style="stroke:#181818;stroke-width:0.5;"/><line style="stroke:#181818;stroke-width:0.5;" x1="858" x2="886" y1="712.0799" y2="712.0799"/><text fill="#000000" font-family="sans-serif" font-size="14" font-weight="bold" lengthAdjust="spacing" textLength="15" x="862" y="703.9779">es</text><path d="M930.5,687.012 L940.5,687.012 A3.75,3.75 0 0 1 943,689.512 L950,712.0799 L954.5,712.0799 A2.5,2.5 0 0 1 957,714.5799 L957,742.6478 A2.5,2.5 0 0 1 954.5,745.1478 L930.5,745.1478 A2.5,2.5 0 0 1 928,742.6478 L928,689.512 A2.5,2.5 0 0 1 930.5,687.012 " fill="#F1F1F1" style="stroke:#181818;stroke-width:0.5;"/><line style="stroke:#181818;stroke-width:0.5;" x1="928" x2="950" y1="712.0799" y2="712.0799"/><text fill="#000000" font-family="sans-serif" font-size="14" font-weight="bold" lengthAdjust="spacing" textLength="9" x="932" y="703.9779">fi</text><path d="M994.5,687.012 L1006.5,687.012 A3.75,3.75 0 0 1 1009,689.512 L1016,712.0799 L1020.5,712.0799 A2.5,2.5 0 0 1 1023,714.5799 L1023,742.6478 A2.5,2.5 0 0 1 1020.5,745.1478 L994.5,745.1478 A2.5,2.5 0 0 1 992,742.6478 L992,689.512 A2.5,2.5 0 0 1 994.5,687.012 " fill="#F1F1F1" style="stroke:#181818;stroke-width:0.5;"/><line style="stroke:#181818;stroke-width:0.5;" x1="992" x2="1016" y1="712.0799" y2="712.0799"/><text fill="#000000" font-family="sans-serif" font-size="14" font-weight="bold" lengthAdjust="spacing" textLength="11" x="996" y="703.9779">fr</text><path d="M1061,687.012 L1080,687.012 A3.75,3.75 0 0 1 1082.5,689.512 L1089.5,712.0799 L1094,712.0799 A2.5,2.5 0 0 1 1096.5,714.5799 L1096.5,742.6478 A2.5,2.5 0 0 1 1094,745.1478 L1061,745.1478 A2.5,2.5 0 0 1 1058.5,742.6478 L1058.5,689.512 A2.5,2.5 0 0 1 1061,687.012 " fill="#F1F1F1" style="stroke:#181818;stroke-width:0.5;"/><line style="stroke:#181818;stroke-width:0.5;" x1="1058.5" x2="1089.5" y1="712.0799" y2="712.0799"/><text fill="#000000" font-family="sans-serif" font-size="14" font-weight="bold" lengthAdjust="spacing" textLength="18" x="1062.5" y="703.9779">gb</text><path d="M1134.5,687.012 L1150.5,687.012 A3.75,3.75 0 0 1 1153,689.512 L1160,712.0799 L1164.5,712.0799 A2.5,2.5 0 0 1 1167,714.5799 L1167,742.6478 A2.5,2.5 0 0 1 1164.5,745.1478 L1134.5,745.1478 A2.5,2.5 0 0 1 1132,742.6478 L1132,689.512 A2.5,2.5 0 0 1 1134.5,687.012 " fill="#F1F1F1" style="stroke:#181818;stroke-width:0.5;"/><line style="stroke:#181818;stroke-width:0.5;" x1="1132" x2="1160" y1="712.0799" y2="712.0799"/><text fill="#000000" font-family="sans-serif" font-size="14" font-weight="bold" lengthAdjust="spacing" textLength="15" x="1136" y="703.9779">gr</text><path d="M1205,687.012 L1224,687.012 A3.75,3.75 0 0 1 1226.5,689.512 L1233.5,712.0799 L1238,712.0799 A2.5,2.5 0 0 1 1240.5,714.5799 L1240.5,742.6478 A2.5,2.5 0 0 1 1238,745.1478 L1205,745.1478 A2.5,2.5 0 0 1 1202.5,742.6478 L1202.5,689.512 A2.5,2.5 0 0 1 1205,687.012 " fill="#F1F1F1" style="stroke:#181818;stroke-width:0.5;"/><line style="stroke:#181818;stroke-width:0.5;" x1="1202.5" x2="1233.5" y1="712.0799" y2="712.0799"/><text fill="#000000" font-family="sans-serif" font-size="14" font-weight="bold" lengthAdjust="spacing" textLength="18" x="1206.5" y="703.9779">hk</text><path d="M1278.5,687.012 L1294.5,687.012 A3.75,3.75 0 0 1 1297,689.512 L1304,712.0799 L1308.5,712.0799 A2.5,2.5 0 0 1 1311,714.5799 L1311,742.6478 A2.5,2.5 0 0 1 1308.5,745.1478 L1278.5,745.1478 A2.5,2.5 0 0 1 1276,742.6478 L1276,689.512 A2.5,2.5 0 0 1 1278.5,687.012 " fill="#F1F1F1" style="stroke:#181818;stroke-width:0.5;"/><line style="stroke:#181818;stroke-width:0.5;" x1="1276" x2="1304" y1="712.0799" y2="712.0799"/><text fill="#000000" font-family="sans-serif" font-size="14" font-weight="bold" lengthAdjust="spacing" textLength="15" x="1280" y="703.9779">hr</text><path d="M1349,687.012 L1368,687.012 A3.75,3.75 0 0 1 1370.5,689.512 L1377.5,712.0799 L1382,712.0799 A2.5,2.5 0 0 1 1384.5,714.5799 L1384.5,742.6478 A2.5,2.5 0 0 1 1382,745.1478 L1349,745.1478 A2.5,2.5 0 0 1 1346.5,742.6478 L1346.5,689.512 A2.5,2.5 0 0 1 1349,687.012 " fill="#F1F1F1" style="stroke:#181818;stroke-width:0.5;"/><line style="stroke:#181818;stroke-width:0.5;" x1="1346.5" x2="1377.5" y1="712.0799" y2="712.0799"/><text fill="#000000" font-family="sans-serif" font-size="14" font-weight="bold" lengthAdjust="spacing" textLength="18" x="1350.5" y="703.9779">hu</text><path d="M1422,687.012 L1435,687.012 A3.75,3.75 0 0 1 1437.5,689.512 L1444.5,712.0799 L1449,712.0799 A2.5,2.5 0 0 1 1451.5,714.5799 L1451.5,742.6478 A2.5,2.5 0 0 1 1449,745.1478 L1422,745.1478 A2.5,2.5 0 0 1 1419.5,742.6478 L1419.5,689.512 A2.5,2.5 0 0 1 1422,687.012 " fill="#F1F1F1" style="stroke:#181818;stroke-width:0.5;"/><line style="stroke:#181818;stroke-width:0.5;" x1="1419.5" x2="1444.5" y1="712.0799" y2="712.0799"/><text fill="#000000" font-family="sans-serif" font-size="14" font-weight="bold" lengthAdjust="spacing" textLength="12" x="1423.5" y="703.9779">ie</text><path d="M907.5,869.142 L921.5,869.142 A3.75,3.75 0 0 1 924,871.642 L931,894.2099 L935.5,894.2099 A2.5,2.5 0 0 1 938,896.7099 L938,924.7778 A2.5,2.5 0 0 1 935.5,927.2778 L907.5,927.2778 A2.5,2.5 0 0 1 905,924.7778 L905,871.642 A2.5,2.5 0 0 1 907.5,869.142 " fill="#F1F1F1" style="stroke:#181818;stroke-width:0.5;"/><line style="stroke:#181818;stroke-width:0.5;" x1="905" x2="931" y1="894.2099" y2="894.2099"/><text fill="#000000" font-family="sans-serif" font-size="14" font-weight="bold" lengthAdjust="spacing" textLength="13" x="909" y="886.1079">in</text><path d="M975.5,869.142 L987.5,869.142 A3.75,3.75 0 0 1 990,871.642 L997,894.2099 L1001.5,894.2099 A2.5,2.5 0 0 1 1004,896.7099 L1004,924.7778 A2.5,2.5 0 0 1 1001.5,927.2778 L975.5,927.2778 A2.5,2.5 0 0 1 973,924.7778 L973,871.642 A2.5,2.5 0 0 1 975.5,869.142 " fill="#F1F1F1" style="stroke:#181818;stroke-width:0.5;"/><line style="stroke:#181818;stroke-width:0.5;" x1="973" x2="997" y1="894.2099" y2="894.2099"/><text fill="#000000" font-family="sans-serif" font-size="14" font-weight="bold" lengthAdjust="spacing" textLength="11" x="977" y="886.1079">is</text><path d="M1042,869.142 L1053,869.142 A3.75,3.75 0 0 1 1055.5,871.642 L1062.5,894.2099 L1067,894.2099 A2.5,2.5 0 0 1 1069.5,896.7099 L1069.5,924.7778 A2.5,2.5 0 0 1 1067,927.2778 L1042,927.2778 A2.5,2.5 0 0 1 1039.5,924.7778 L1039.5,871.642 A2.5,2.5 0 0 1 1042,869.142 " fill="#F1F1F1" style="stroke:#181818;stroke-width:0.5;"/><line style="stroke:#181818;stroke-width:0.5;" x1="1039.5" x2="1062.5" y1="894.2099" y2="894.2099"/><text fill="#000000" font-family="sans-serif" font-size="14" font-weight="bold" lengthAdjust="spacing" textLength="10" x="1043.5" y="886.1079">it</text><path d="M1107.5,869.142 L1121.5,869.142 A3.75,3.75 0 0 1 1124,871.642 L1131,894.2099 L1135.5,894.2099 A2.5,2.5 0 0 1 1138,896.7099 L1138,924.7778 A2.5,2.5 0 0 1 1135.5,927.2778 L1107.5,927.2778 A2.5,2.5 0 0 1 1105,924.7778 L1105,871.642 A2.5,2.5 0 0 1 1107.5,869.142 " fill="#F1F1F1" style="stroke:#181818;stroke-width:0.5;"/><line style="stroke:#181818;stroke-width:0.5;" x1="1105" x2="1131" y1="894.2099" y2="894.2099"/><text fill="#000000" font-family="sans-serif" font-size="14" font-weight="bold" lengthAdjust="spacing" textLength="13" x="1109" y="886.1079">jp</text><path d="M1175.5,869.142 L1191.5,869.142 A3.75,3.75 0 0 1 1194,871.642 L1201,894.2099 L1205.5,894.2099 A2.5,2.5 0 0 1 1208,896.7099 L1208,924.7778 A2.5,2.5 0 0 1 1205.5,927.2778 L1175.5,927.2778 A2.5,2.5 0 0 1 1173,924.7778 L1173,871.642 A2.5,2.5 0 0 1 1175.5,869.142 " fill="#F1F1F1" style="stroke:#181818;stroke-width:0.5;"/><line style="stroke:#181818;stroke-width:0.5;" x1="1173" x2="1201" y1="894.2099" y2="894.2099"/><text fill="#000000" font-family="sans-serif" font-size="14" font-weight="bold" lengthAdjust="spacing" textLength="15" x="1177" y="886.1079">kr</text><path d="M1246,869.142 L1255,869.142 A3.75,3.75 0 0 1 1257.5,871.642 L1264.5,894.2099 L1269,894.2099 A2.5,2.5 0 0 1 1271.5,896.7099 L1271.5,924.7778 A2.5,2.5 0 0 1 1269,927.2778 L1246,927.2778 A2.5,2.5 0 0 1 1243.5,924.7778 L1243.5,871.642 A2.5,2.5 0 0 1 1246,869.142 " fill="#F1F1F1" style="stroke:#181818;stroke-width:0.5;"/><line style="stroke:#181818;stroke-width:0.5;" x1="1243.5" x2="1264.5" y1="894.2099" y2="894.2099"/><text fill="#000000" font-family="sans-serif" font-size="14" font-weight="bold" lengthAdjust="spacing" textLength="8" x="1247.5" y="886.1079">li</text><path d="M1309,869.142 L1320,869.142 A3.75,3.75 0 0 1 1322.5,871.642 L1329.5,894.2099 L1334,894.2099 A2.5,2.5 0 0 1 1336.5,896.7099 L1336.5,924.7778 A2.5,2.5 0 0 1 1334,927.2778 L1309,927.2778 A2.5,2.5 0 0 1 1306.5,924.7778 L1306.5,871.642 A2.5,2.5 0 0 1 1309,869.142 " fill="#F1F1F1" style="stroke:#181818;stroke-width:0.5;"/><line style="stroke:#181818;stroke-width:0.5;" x1="1306.5" x2="1329.5" y1="894.2099" y2="894.2099"/><text fill="#000000" font-family="sans-serif" font-size="14" font-weight="bold" lengthAdjust="spacing" textLength="10" x="1310.5" y="886.1079">lt</text><path d="M1374.5,869.142 L1388.5,869.142 A3.75,3.75 0 0 1 1391,871.642 L1398,894.2099 L1402.5,894.2099 A2.5,2.5 0 0 1 1405,896.7099 L1405,924.7778 A2.5,2.5 0 0 1 1402.5,927.2778 L1374.5,927.2778 A2.5,2.5 0 0 1 1372,924.7778 L1372,871.642 A2.5,2.5 0 0 1 1374.5,869.142 " fill="#F1F1F1" style="stroke:#181818;stroke-width:0.5;"/><line style="stroke:#181818;stroke-width:0.5;" x1="1372" x2="1398" y1="894.2099" y2="894.2099"/><text fill="#000000" font-family="sans-serif" font-size="14" font-weight="bold" lengthAdjust="spacing" textLength="13" x="1376" y="886.1079">lu</text><path d="M852,1006.282 L865,1006.282 A3.75,3.75 0 0 1 867.5,1008.782 L874.5,1031.3499 L879,1031.3499 A2.5,2.5 0 0 1 881.5,1033.8499 L881.5,1061.9178 A2.5,2.5 0 0 1 879,1064.4178 L852,1064.4178 A2.5,2.5 0 0 1 849.5,1061.9178 L849.5,1008.782 A2.5,2.5 0 0 1 852,1006.282 " fill="#F1F1F1" style="stroke:#181818;stroke-width:0.5;"/><line style="stroke:#181818;stroke-width:0.5;" x1="849.5" x2="874.5" y1="1031.3499" y2="1031.3499"/><text fill="#000000" font-family="sans-serif" font-size="14" font-weight="bold" lengthAdjust="spacing" textLength="12" x="853.5" y="1023.2479">lv</text><path d="M918.5,1006.282 L942.5,1006.282 A3.75,3.75 0 0 1 945,1008.782 L952,1031.3499 L956.5,1031.3499 A2.5,2.5 0 0 1 959,1033.8499 L959,1061.9178 A2.5,2.5 0 0 1 956.5,1064.4178 L918.5,1064.4178 A2.5,2.5 0 0 1 916,1061.9178 L916,1008.782 A2.5,2.5 0 0 1 918.5,1006.282 " fill="#F1F1F1" style="stroke:#181818;stroke-width:0.5;"/><line style="stroke:#181818;stroke-width:0.5;" x1="916" x2="952" y1="1031.3499" y2="1031.3499"/><text fill="#000000" font-family="sans-serif" font-size="14" font-weight="bold" lengthAdjust="spacing" textLength="23" x="920" y="1023.2479">mo</text><path d="M997,1006.282 L1018,1006.282 A3.75,3.75 0 0 1 1020.5,1008.782 L1027.5,1031.3499 L1032,1031.3499 A2.5,2.5 0 0 1 1034.5,1033.8499 L1034.5,1061.9178 A2.5,2.5 0 0 1 1032,1064.4178 L997,1064.4178 A2.5,2.5 0 0 1 994.5,1061.9178 L994.5,1008.782 A2.5,2.5 0 0 1 997,1006.282 " fill="#F1F1F1" style="stroke:#181818;stroke-width:0.5;"/><line style="stroke:#181818;stroke-width:0.5;" x1="994.5" x2="1027.5" y1="1031.3499" y2="1031.3499"/><text fill="#000000" font-family="sans-serif" font-size="14" font-weight="bold" lengthAdjust="spacing" textLength="20" x="998.5" y="1023.2479">mt</text><path d="M1072,1006.282 L1095,1006.282 A3.75,3.75 0 0 1 1097.5,1008.782 L1104.5,1031.3499 L1109,1031.3499 A2.5,2.5 0 0 1 1111.5,1033.8499 L1111.5,1061.9178 A2.5,2.5 0 0 1 1109,1064.4178 L1072,1064.4178 A2.5,2.5 0 0 1 1069.5,1061.9178 L1069.5,1008.782 A2.5,2.5 0 0 1 1072,1006.282 " fill="#F1F1F1" style="stroke:#181818;stroke-width:0.5;"/><line style="stroke:#181818;stroke-width:0.5;" x1="1069.5" x2="1104.5" y1="1031.3499" y2="1031.3499"/><text fill="#000000" font-family="sans-serif" font-size="14" font-weight="bold" lengthAdjust="spacing" textLength="22" x="1073.5" y="1023.2479">my</text><path d="M1148.5,1006.282 L1162.5,1006.282 A3.75,3.75 0 0 1 1165,1008.782 L1172,1031.3499 L1176.5,1031.3499 A2.5,2.5 0 0 1 1179,1033.8499 L1179,1061.9178 A2.5,2.5 0 0 1 1176.5,1064.4178 L1148.5,1064.4178 A2.5,2.5 0 0 1 1146,1061.9178 L1146,1008.782 A2.5,2.5 0 0 1 1148.5,1006.282 " fill="#F1F1F1" style="stroke:#181818;stroke-width:0.5;"/><line style="stroke:#181818;stroke-width:0.5;" x1="1146" x2="1172" y1="1031.3499" y2="1031.3499"/><text fill="#000000" font-family="sans-serif" font-size="14" font-weight="bold" lengthAdjust="spacing" textLength="13" x="1150" y="1023.2479">nl</text><path d="M1216,1006.282 L1235,1006.282 A3.75,3.75 0 0 1 1237.5,1008.782 L1244.5,1031.3499 L1249,1031.3499 A2.5,2.5 0 0 1 1251.5,1033.8499 L1251.5,1061.9178 A2.5,2.5 0 0 1 1249,1064.4178 L1216,1064.4178 A2.5,2.5 0 0 1 1213.5,1061.9178 L1213.5,1008.782 A2.5,2.5 0 0 1 1216,1006.282 " fill="#F1F1F1" style="stroke:#181818;stroke-width:0.5;"/><line style="stroke:#181818;stroke-width:0.5;" x1="1213.5" x2="1244.5" y1="1031.3499" y2="1031.3499"/><text fill="#000000" font-family="sans-serif" font-size="14" font-weight="bold" lengthAdjust="spacing" textLength="18" x="1217.5" y="1023.2479">no</text><path d="M1289,1006.282 L1308,1006.282 A3.75,3.75 0 0 1 1310.5,1008.782 L1317.5,1031.3499 L1322,1031.3499 A2.5,2.5 0 0 1 1324.5,1033.8499 L1324.5,1061.9178 A2.5,2.5 0 0 1 1322,1064.4178 L1289,1064.4178 A2.5,2.5 0 0 1 1286.5,1061.9178 L1286.5,1008.782 A2.5,2.5 0 0 1 1289,1006.282 " fill="#F1F1F1" style="stroke:#181818;stroke-width:0.5;"/><line style="stroke:#181818;stroke-width:0.5;" x1="1286.5" x2="1317.5" y1="1031.3499" y2="1031.3499"/><text fill="#000000" font-family="sans-serif" font-size="14" font-weight="bold" lengthAdjust="spacing" textLength="18" x="1290.5" y="1023.2479">ph</text><path d="M1361.5,1006.282 L1375.5,1006.282 A3.75,3.75 0 0 1 1378,1008.782 L1385,1031.3499 L1389.5,1031.3499 A2.5,2.5 0 0 1 1392,1033.8499 L1392,1061.9178 A2.5,2.5 0 0 1 1389.5,1064.4178 L1361.5,1064.4178 A2.5,2.5 0 0 1 1359,1061.9178 L1359,1008.782 A2.5,2.5 0 0 1 1361.5,1006.282 " fill="#F1F1F1" style="stroke:#181818;stroke-width:0.5;"/><line style="stroke:#181818;stroke-width:0.5;" x1="1359" x2="1385" y1="1031.3499" y2="1031.3499"/><text fill="#000000" font-family="sans-serif" font-size="14" font-weight="bold" lengthAdjust="spacing" textLength="13" x="1363" y="1023.2479">pl</text><path d="M1429.5,1006.282 L1445.5,1006.282 A3.75,3.75 0 0 1 1448,1008.782 L1455,1031.3499 L1459.5,1031.3499 A2.5,2.5 0 0 1 1462,1033.8499 L1462,1061.9178 A2.5,2.5 0 0 1 1459.5,1064.4178 L1429.5,1064.4178 A2.5,2.5 0 0 1 1427,1061.9178 L1427,1008.782 A2.5,2.5 0 0 1 1429.5,1006.282 " fill="#F1F1F1" style="stroke:#181818;stroke-width:0.5;"/><line style="stroke:#181818;stroke-width:0.5;" x1="1427" x2="1455" y1="1031.3499" y2="1031.3499"/><text fill="#000000" font-family="sans-serif" font-size="14" font-weight="bold" lengthAdjust="spacing" textLength="15" x="1431" y="1023.2479">pt</text><path d="M936.5,1125.412 L952.5,1125.412 A3.75,3.75 0 0 1 955,1127.912 L962,1150.4799 L966.5,1150.4799 A2.5,2.5 0 0 1 969,1152.9799 L969,1181.0478 A2.5,2.5 0 0 1 966.5,1183.5478 L936.5,1183.5478 A2.5,2.5 0 0 1 934,1181.0478 L934,1127.912 A2.5,2.5 0 0 1 936.5,1125.412 " fill="#F1F1F1" style="stroke:#181818;stroke-width:0.5;"/><line style="stroke:#181818;stroke-width:0.5;" x1="934" x2="962" y1="1150.4799" y2="1150.4799"/><text fill="#000000" font-family="sans-serif" font-size="14" font-weight="bold" lengthAdjust="spacing" textLength="15" x="938" y="1142.3779">ro</text><path d="M1006.5,1125.412 L1022.5,1125.412 A3.75,3.75 0 0 1 1025,1127.912 L1032,1150.4799 L1036.5,1150.4799 A2.5,2.5 0 0 1 1039,1152.9799 L1039,1181.0478 A2.5,2.5 0 0 1 1036.5,1183.5478 L1006.5,1183.5478 A2.5,2.5 0 0 1 1004,1181.0478 L1004,1127.912 A2.5,2.5 0 0 1 1006.5,1125.412 " fill="#F1F1F1" style="stroke:#181818;stroke-width:0.5;"/><line style="stroke:#181818;stroke-width:0.5;" x1="1004" x2="1032" y1="1150.4799" y2="1150.4799"/><text fill="#000000" font-family="sans-serif" font-size="14" font-weight="bold" lengthAdjust="spacing" textLength="15" x="1008" y="1142.3779">se</text><path d="M1076,1125.412 L1093,1125.412 A3.75,3.75 0 0 1 1095.5,1127.912 L1102.5,1150.4799 L1107,1150.4799 A2.5,2.5 0 0 1 1109.5,1152.9799 L1109.5,1181.0478 A2.5,2.5 0 0 1 1107,1183.5478 L1076,1183.5478 A2.5,2.5 0 0 1 1073.5,1181.0478 L1073.5,1127.912 A2.5,2.5 0 0 1 1076,1125.412 " fill="#F1F1F1" style="stroke:#181818;stroke-width:0.5;"/><line style="stroke:#181818;stroke-width:0.5;" x1="1073.5" x2="1102.5" y1="1150.4799" y2="1150.4799"/><text fill="#000000" font-family="sans-serif" font-size="14" font-weight="bold" lengthAdjust="spacing" textLength="16" x="1077.5" y="1142.3779">sg</text><path d="M1147.5,1125.412 L1159.5,1125.412 A3.75,3.75 0 0 1 1162,1127.912 L1169,1150.4799 L1173.5,1150.4799 A2.5,2.5 0 0 1 1176,1152.9799 L1176,1181.0478 A2.5,2.5 0 0 1 1173.5,1183.5478 L1147.5,1183.5478 A2.5,2.5 0 0 1 1145,1181.0478 L1145,1127.912 A2.5,2.5 0 0 1 1147.5,1125.412 " fill="#F1F1F1" style="stroke:#181818;stroke-width:0.5;"/><line style="stroke:#181818;stroke-width:0.5;" x1="1145" x2="1169" y1="1150.4799" y2="1150.4799"/><text fill="#000000" font-family="sans-serif" font-size="14" font-weight="bold" lengthAdjust="spacing" textLength="11" x="1149" y="1142.3779">si</text><path d="M1214,1125.412 L1231,1125.412 A3.75,3.75 0 0 1 1233.5,1127.912 L1240.5,1150.4799 L1245,1150.4799 A2.5,2.5 0 0 1 1247.5,1152.9799 L1247.5,1181.0478 A2.5,2.5 0 0 1 1245,1183.5478 L1214,1183.5478 A2.5,2.5 0 0 1 1211.5,1181.0478 L1211.5,1127.912 A2.5,2.5 0 0 1 1214,1125.412 " fill="#F1F1F1" style="stroke:#181818;stroke-width:0.5;"/><line style="stroke:#181818;stroke-width:0.5;" x1="1211.5" x2="1240.5" y1="1150.4799" y2="1150.4799"/><text fill="#000000" font-family="sans-serif" font-size="14" font-weight="bold" lengthAdjust="spacing" textLength="16" x="1215.5" y="1142.3779">sk</text><path d="M1284.5,1125.412 L1300.5,1125.412 A3.75,3.75 0 0 1 1303,1127.912 L1310,1150.4799 L1314.5,1150.4799 A2.5,2.5 0 0 1 1317,1152.9799 L1317,1181.0478 A2.5,2.5 0 0 1 1314.5,1183.5478 L1284.5,1183.5478 A2.5,2.5 0 0 1 1282,1181.0478 L1282,1127.912 A2.5,2.5 0 0 1 1284.5,1125.412 " fill="#F1F1F1" style="stroke:#181818;stroke-width:0.5;"/><line style="stroke:#181818;stroke-width:0.5;" x1="1282" x2="1310" y1="1150.4799" y2="1150.4799"/><text fill="#000000" font-family="sans-serif" font-size="14" font-weight="bold" lengthAdjust="spacing" textLength="15" x="1286" y="1142.3779">th</text><path d="M1355,1125.412 L1374,1125.412 A3.75,3.75 0 0 1 1376.5,1127.912 L1383.5,1150.4799 L1388,1150.4799 A2.5,2.5 0 0 1 1390.5,1152.9799 L1390.5,1181.0478 A2.5,2.5 0 0 1 1388,1183.5478 L1355,1183.5478 A2.5,2.5 0 0 1 1352.5,1181.0478 L1352.5,1127.912 A2.5,2.5 0 0 1 1355,1125.412 " fill="#F1F1F1" style="stroke:#181818;stroke-width:0.5;"/><line style="stroke:#181818;stroke-width:0.5;" x1="1352.5" x2="1383.5" y1="1150.4799" y2="1150.4799"/><text fill="#000000" font-family="sans-serif" font-size="14" font-weight="bold" lengthAdjust="spacing" textLength="18" x="1356.5" y="1142.3779">tw</text><path d="M1428,1125.412 L1445,1125.412 A3.75,3.75 0 0 1 1447.5,1127.912 L1454.5,1150.4799 L1459,1150.4799 A2.5,2.5 0 0 1 1461.5,1152.9799 L1461.5,1181.0478 A2.5,2.5 0 0 1 1459,1183.5478 L1428,1183.5478 A2.5,2.5 0 0 1 1425.5,1181.0478 L1425.5,1127.912 A2.5,2.5 0 0 1 1428,1125.412 " fill="#F1F1F1" style="stroke:#181818;stroke-width:0.5;"/><line style="stroke:#181818;stroke-width:0.5;" x1="1425.5" x2="1454.5" y1="1150.4799" y2="1150.4799"/><text fill="#000000" font-family="sans-serif" font-size="14" font-weight="bold" lengthAdjust="spacing" textLength="16" x="1429.5" y="1142.3779">us</text><path d="M126.5,687.012 L196.5,687.012 A3.75,3.75 0 0 1 199,689.512 L206,712.0799 L210.5,712.0799 A2.5,2.5 0 0 1 213,714.5799 L213,742.6478 A2.5,2.5 0 0 1 210.5,745.1478 L126.5,745.1478 A2.5,2.5 0 0 1 124,742.6478 L124,689.512 A2.5,2.5 0 0 1 126.5,687.012 " fill="#F1F1F1" style="stroke:#181818;stroke-width:0.5;"/><line style="stroke:#181818;stroke-width:0.5;" x1="124" x2="206" y1="712.0799" y2="712.0799"/><text fill="#000000" font-family="sans-serif" font-size="14" font-weight="bold" lengthAdjust="spacing" textLength="69" x="128" y="703.9779">education</text><path d="M250,687.012 L301,687.012 A3.75,3.75 0 0 1 303.5,689.512 L310.5,712.0799 L315,712.0799 A2.5,2.5 0 0 1 317.5,714.5799 L317.5,742.6478 A2.5,2.5 0 0 1 315,745.1478 L250,745.1478 A2.5,2.5 0 0 1 247.5,742.6478 L247.5,689.512 A2.5,2.5 0 0 1 250,687.012 " fill="#F1F1F1" style="stroke:#181818;stroke-width:0.5;"/><line style="stroke:#181818;stroke-width:0.5;" x1="247.5" x2="310.5" y1="712.0799" y2="712.0799"/><text fill="#000000" font-family="sans-serif" font-size="14" font-weight="bold" lengthAdjust="spacing" textLength="50" x="251.5" y="703.9779">finance</text><path d="M355,687.012 L400,687.012 A3.75,3.75 0 0 1 402.5,689.512 L409.5,712.0799 L414,712.0799 A2.5,2.5 0 0 1 416.5,714.5799 L416.5,742.6478 A2.5,2.5 0 0 1 414,745.1478 L355,745.1478 A2.5,2.5 0 0 1 352.5,742.6478 L352.5,689.512 A2.5,2.5 0 0 1 355,687.012 " fill="#F1F1F1" style="stroke:#181818;stroke-width:0.5;"/><line style="stroke:#181818;stroke-width:0.5;" x1="352.5" x2="409.5" y1="712.0799" y2="712.0799"/><text fill="#000000" font-family="sans-serif" font-size="14" font-weight="bold" lengthAdjust="spacing" textLength="44" x="356.5" y="703.9779">health</text><path d="M454,687.012 L487,687.012 A3.75,3.75 0 0 1 489.5,689.512 L496.5,712.0799 L501,712.0799 A2.5,2.5 0 0 1 503.5,714.5799 L503.5,742.6478 A2.5,2.5 0 0 1 501,745.1478 L454,745.1478 A2.5,2.5 0 0 1 451.5,742.6478 L451.5,689.512 A2.5,2.5 0 0 1 454,687.012 " fill="#F1F1F1" style="stroke:#181818;stroke-width:0.5;"/><line style="stroke:#181818;stroke-width:0.5;" x1="451.5" x2="496.5" y1="712.0799" y2="712.0799"/><text fill="#000000" font-family="sans-serif" font-size="14" font-weight="bold" lengthAdjust="spacing" textLength="32" x="455.5" y="703.9779">infra</text><path d="M541,687.012 L566,687.012 A3.75,3.75 0 0 1 568.5,689.512 L575.5,712.0799 L580,712.0799 A2.5,2.5 0 0 1 582.5,714.5799 L582.5,742.6478 A2.5,2.5 0 0 1 580,745.1478 L541,745.1478 A2.5,2.5 0 0 1 538.5,742.6478 L538.5,689.512 A2.5,2.5 0 0 1 541,687.012 " fill="#F1F1F1" style="stroke:#181818;stroke-width:0.5;"/><line style="stroke:#181818;stroke-width:0.5;" x1="538.5" x2="575.5" y1="712.0799" y2="712.0799"/><text fill="#000000" font-family="sans-serif" font-size="14" font-weight="bold" lengthAdjust="spacing" textLength="24" x="542.5" y="703.9779">law</text><path d="M619.5,687.012 L717.5,687.012 A3.75,3.75 0 0 1 720,689.512 L727,712.0799 L731.5,712.0799 A2.5,2.5 0 0 1 734,714.5799 L734,742.6478 A2.5,2.5 0 0 1 731.5,745.1478 L619.5,745.1478 A2.5,2.5 0 0 1 617,742.6478 L617,689.512 A2.5,2.5 0 0 1 619.5,687.012 " fill="#F1F1F1" style="stroke:#181818;stroke-width:0.5;"/><line style="stroke:#181818;stroke-width:0.5;" x1="617" x2="727" y1="712.0799" y2="712.0799"/><text fill="#000000" font-family="sans-serif" font-size="14" font-weight="bold" lengthAdjust="spacing" textLength="97" x="621" y="703.9779">publicservices</text><path d="M667.5,869.142 L709.5,869.142 A3.75,3.75 0 0 1 712,871.642 L719,894.2099 L723.5,894.2099 A2.5,2.5 0 0 1 726,896.7099 L726,924.7778 A2.5,2.5 0 0 1 723.5,927.2778 L667.5,927.2778 A2.5,2.5 0 0 1 665,924.7778 L665,871.642 A2.5,2.5 0 0 1 667.5,869.142 " fill="#F1F1F1" style="stroke:#181818;stroke-width:0.5;"/><line style="stroke:#181818;stroke-width:0.5;" x1="665" x2="719" y1="894.2099" y2="894.2099"/><text fill="#000000" font-family="sans-serif" font-size="14" font-weight="bold" lengthAdjust="spacing" textLength="41" x="669" y="886.1079">p7012</text><!--class Thing--><g id="elem_Thing"><rect codeLine="5" fill="#C0C0C0" height="29.0679" id="Thing" rx="2.5" ry="2.5" style="stroke:#181818;stroke-width:0.5;" width="45" x="7" y="44.602"/><text fill="#000000" font-family="sans-serif" font-size="14" lengthAdjust="spacing" textLength="39" x="10" y="64.5679">Thing</text></g><!--link Thing to Process--><g id="link_Thing_Process"><path codeLine="6" d="M52.38,59.132 C132.47,59.132 394.08,59.132 482.71,59.132 " fill="none" id="Thing-to-Process" style="stroke:#181818;stroke-width:1.0;"/><polygon fill="#181818" points="488.71,59.132,479.71,55.132,483.71,59.132,479.71,63.132,488.71,59.132" style="stroke:#181818;stroke-width:1.0;"/><polygon fill="#000000" points="239.5,46.985,230.4549,44.0461,230.4549,49.9239,239.5,46.985" style="stroke:#000000;stroke-width:1.0;"/><text fill="#000000" font-family="sans-serif" font-size="13" lengthAdjust="spacing" textLength="67" x="243.5" y="52.029">hasProcess</text></g><!--link Process to Data--><g id="link_Process_Data"><path codeLine="17" d="M546.38,60.382 C630.9,61.512 876.2,67.882 946.5,103.672 C967.93,114.572 985,137.402 994.43,152.252 " fill="none" id="Process-Data" style="stroke:#181818;stroke-width:1.0;"/><polygon fill="#000000" points="979.9881,114.5293,971.7177,109.8334,970.537,115.5915,979.9881,114.5293" style="stroke:#000000;stroke-width:1.0;"/><text fill="#000000" font-family="sans-serif" font-size="13" lengthAdjust="spacing" textLength="49" x="984.09" y="118.569">hasData</text></g><!--link Process to Justification--><g id="link_Process_Justification"><path codeLine="18" d="M488.79,61.012 C423.14,63.522 264.49,72.732 222.5,103.672 C206.6,115.382 198.76,137.752 195.18,152.322 " fill="none" id="Process-Justification" style="stroke:#181818;stroke-width:1.0;"/><polygon fill="#000000" points="222.7256,115.0098,232.2354,115.1301,230.4899,109.5174,222.7256,115.0098" style="stroke:#000000;stroke-width:1.0;"/><text fill="#000000" font-family="sans-serif" font-size="13" lengthAdjust="spacing" textLength="91" x="236.5" y="118.569">hasJustification</text></g><!--link Process to PersonalData--><g id="link_Process_PersonalData"><path codeLine="19" d="M488.62,60.252 C452.27,61.902 389.84,69.912 350.5,103.672 C335.87,116.222 328.93,138.142 325.81,152.412 " fill="none" id="Process-PersonalData" style="stroke:#181818;stroke-width:1.0;"/><polygon fill="#000000" points="351.1488,115.9881,360.468,114.0899,357.5725,108.9747,351.1488,115.9881" style="stroke:#000000;stroke-width:1.0;"/><text fill="#000000" font-family="sans-serif" font-size="13" lengthAdjust="spacing" textLength="101" x="364.5" y="118.569">hasPersonalData</text></g><!--link Process to Risk--><g id="link_Process_Risk"><path codeLine="20" d="M503.48,73.922 C496,81.982 487.19,92.702 481.5,103.672 C473.37,119.352 468.82,139.322 466.51,152.412 " fill="none" id="Process-Risk" style="stroke:#181818;stroke-width:1.0;"/><polygon fill="#000000" points="484.3694,118.0483,490.8824,111.1178,485.5649,108.6132,484.3694,118.0483" style="stroke:#000000;stroke-width:1.0;"/><text fill="#000000" font-family="sans-serif" font-size="13" lengthAdjust="spacing" textLength="45" x="495.5" y="118.569">hasRisk</text></g><!--link Process to Technology--><g id="link_Process_Technology"><path codeLine="21" d="M530.11,74.112 C543.42,88.122 565.6,109.442 588.5,122.672 C615.72,138.392 649.48,149.532 675.63,156.602 " fill="none" id="Process-Technology" style="stroke:#181818;stroke-width:1.0;"/><polygon fill="#000000" points="597.8497,115.9907,591.4303,108.9735,588.5317,114.0869,597.8497,115.9907" style="stroke:#000000;stroke-width:1.0;"/><text fill="#000000" font-family="sans-serif" font-size="13" lengthAdjust="spacing" textLength="195" x="602.5" y="118.569">isImplementedUsingTechnology</text></g><!--link Process to Location--><g id="link_Process_Location"><path codeLine="22" d="M529.02,74.112 C535.03,82.232 541.87,92.942 545.5,103.672 C580.13,205.842 573.86,339.132 570.69,381.932 " fill="none" id="Process-Location" style="stroke:#181818;stroke-width:1.0;"/><polygon fill="#000000" points="569.7207,172.5098,571.4197,163.1522,565.595,163.9407,569.7207,172.5098" style="stroke:#000000;stroke-width:1.0;"/><text fill="#000000" font-family="sans-serif" font-size="13" lengthAdjust="spacing" textLength="73" x="578.05" y="172.599">hasLocation</text></g><!--link Process to Law--><g id="link_Process_Law"><path codeLine="23" d="M546.25,61.102 C610.37,63.782 762.58,73.272 802.5,103.672 C818.02,115.482 825.15,137.822 828.26,152.362 " fill="none" id="Process-Law" style="stroke:#181818;stroke-width:1.0;"/><polygon fill="#000000" points="827.2971,115.0644,819.5963,109.4834,817.7866,115.0757,827.2971,115.0644" style="stroke:#000000;stroke-width:1.0;"/><text fill="#000000" font-family="sans-serif" font-size="13" lengthAdjust="spacing" textLength="106" x="831.54" y="118.569">hasApplicableLaw</text></g><!--reverse link PersonalData to pd--><g id="link_PersonalData_pd"><path codeLine="28" d="M323.5,188.102 C323.5,224.682 323.5,318.202 323.5,367.442 " fill="none" id="PersonalData-backto-pd" style="stroke:#181818;stroke-width:1.0;stroke-dasharray:7.0,7.0;"/><polygon fill="#181818" points="323.5,182.102,319.5,191.102,323.5,187.102,327.5,191.102,323.5,182.102" style="stroke:#181818;stroke-width:1.0;"/><text fill="#000000" font-family="sans-serif" font-size="13" lengthAdjust="spacing" textLength="62" x="324.5" y="226.639">&#171;extends&#187;</text></g><!--reverse link Risk to risk--><g id="link_Risk_risk"><path codeLine="32" d="M464.5,188.102 C464.5,224.682 464.5,318.202 464.5,367.442 " fill="none" id="Risk-backto-risk" style="stroke:#181818;stroke-width:1.0;stroke-dasharray:7.0,7.0;"/><polygon fill="#181818" points="464.5,182.102,460.5,191.102,464.5,187.102,468.5,191.102,464.5,182.102" style="stroke:#181818;stroke-width:1.0;"/><text fill="#000000" font-family="sans-serif" font-size="13" lengthAdjust="spacing" textLength="62" x="465.5" y="226.639">&#171;extends&#187;</text></g><!--reverse link Technology to tech--><g id="link_Technology_tech"><path codeLine="36" d="M717.8466,188.101 C718.4966,224.681 720.14,318.202 721,367.442 " fill="none" id="Technology-backto-tech" style="stroke:#181818;stroke-width:1.0;stroke-dasharray:7.0,7.0;"/><polygon fill="#181818" points="717.74,182.102,713.9005,191.1716,717.8288,187.1012,721.8993,191.0295,717.74,182.102" style="stroke:#181818;stroke-width:1.0;"/><text fill="#000000" font-family="sans-serif" font-size="13" lengthAdjust="spacing" textLength="62" x="719.57" y="226.639">&#171;extends&#187;</text></g><!--reverse link Justification to justifications--><g id="link_Justification_justifications"><path codeLine="40" d="M192.5,188.102 C192.5,224.682 192.5,318.202 192.5,367.442 " fill="none" id="Justification-backto-justifications" style="stroke:#181818;stroke-width:1.0;stroke-dasharray:7.0,7.0;"/><polygon fill="#181818" points="192.5,182.102,188.5,191.102,192.5,187.102,196.5,191.102,192.5,182.102" style="stroke:#181818;stroke-width:1.0;"/><text fill="#000000" font-family="sans-serif" font-size="13" lengthAdjust="spacing" textLength="62" x="193.5" y="226.639">&#171;extends&#187;</text></g><!--reverse link Location to loc--><g id="link_Location_loc"><path codeLine="44" d="M578.6904,417.0788 C590.5804,442.0388 613.25,489.592 628.96,522.532 " fill="none" id="Location-backto-loc" style="stroke:#181818;stroke-width:1.0;stroke-dasharray:7.0,7.0;"/><polygon fill="#181818" points="576.11,411.662,576.3693,421.5074,578.2603,416.176,583.5917,418.0669,576.11,411.662" style="stroke:#181818;stroke-width:1.0;"/><text fill="#000000" font-family="sans-serif" font-size="13" lengthAdjust="spacing" textLength="62" x="615.69" y="488.769">&#171;extends&#187;</text></g><!--reverse link tech to ai--><g id="link_tech_ai"><path codeLine="47" d="M723.8876,432.3041 C725.7476,451.5341 728.94,471.262 736.5,492.872 C740.6,504.582 747.04,516.652 753.14,526.732 " fill="none" id="tech-backto-ai" style="stroke:#181818;stroke-width:1.0;stroke-dasharray:7.0,7.0;"/><polygon fill="#181818" points="723.31,426.332,720.1951,435.6753,723.7914,431.3088,728.1579,434.9051,723.31,426.332" style="stroke:#181818;stroke-width:1.0;"/><text fill="#000000" font-family="sans-serif" font-size="13" lengthAdjust="spacing" textLength="62" x="737.5" y="488.769">&#171;extends&#187;</text></g><!--reverse link Law to legal--><g id="link_Law_legal"><path codeLine="50" d="M830.0593,188.1006 C829.7943,200.2606 829.5063,213.3795 829.0255,235.2935 C828.9053,240.7721 828.7812,246.4254 828.6547,252.1884 C828.6389,252.9088 828.623,253.6309 828.6071,254.3546 " fill="none" id="Law-backto-legal" style="stroke:#181818;stroke-width:1.0;stroke-dasharray:7.0,7.0;"/><polygon fill="#181818" points="830.19,182.102,825.9949,191.0127,830.0811,187.1008,833.993,191.187,830.19,182.102" style="stroke:#181818;stroke-width:1.0;"/><text fill="#000000" font-family="sans-serif" font-size="13" lengthAdjust="spacing" textLength="62" x="830.54" y="226.639">&#171;extends&#187;</text></g><!--link eu to at--><!--link at to be--><!--link be to bg--><!--link bg to cy--><!--link cy to cz--><!--link cz to de--><!--link de to dk--><!--link dk to ee--><!--link ee to es--><!--link es to fi--><!--link fi to fr--><!--link fr to gb--><!--link gb to gr--><!--link gr to hk--><!--link hk to hr--><!--link hr to hu--><!--link hu to ie--><!--link ie to in--><!--link in to is--><!--link is to it--><!--link it to jp--><!--link jp to kr--><!--link kr to li--><!--link li to lt--><!--link lt to lu--><!--link lu to lv--><!--link lv to mo--><!--link mo to mt--><!--link mt to my--><!--link my to nl--><!--link nl to no--><!--link no to ph--><!--link ph to pl--><!--link pl to pt--><!--link pt to ro--><!--link ro to se--><!--link se to sg--><!--link sg to si--><!--link si to sk--><!--link sk to th--><!--link th to tw--><!--link tw to us--><!--link loc to sector--><!--link sector to standards--><!--link legal to ai--><!--link Justification to PersonalData--><!--link ai to sector--><!--SRC=[VPPDQzmm48RFwr-XqaDFkxIv549OAFJIKaefwQdqeBLcRSMoB2Hvjqd8Vw-iMTapJbamo1uzCtfdzEKtsjPcL212V3ImSqRQEFQcgjuPE4OH1-5rqqQXj8Swwi5MLMra2EA-rROHRuCs9_0LVcttGhdJxeSVQWZXLhGoNDx5lggSh3lPm8I8vsg3OIxzyoVuC5XfFiieY-sd3brvluUwjOCPciTY-JRKCkigt_9SNh-E8UgZllHNcw9bknLJV945vhVzXlKonqmnIqg6qbGpvamCAtRA9JFJowfloUrMwF2bTmPwi17Khv2Ak_Ikt4e1SjZoiMRaENT_Siwa90u6aYKnBsnMTawbYNcfyXpI7Evskz9_A-xku6y4gyAUp-dEJoaL_vnVySizLpnZocts98aM_zn_nV-1pawO8_59Ay5My9MmPgZdM7DXIvYfa_jILwbdpoo-U2NxjG6XaIPrVnyKxFVJ9ib3fwcQHyq43x4f8M2SNEPFgMKTnVCBCQb6SaEZdESMgyCDj-G3870Rj0ejwKd3Rd-tMYcmVzHMoBWeaZX-QcR2RyK15k80cKWD8nf2D4WqZAWV5w9-p4Hg6F54Y2SadXYXY0w5EXJNeJf2T4XqZ00I0p060Ai7149WqL93OnprGXnr9bB324y8dB3KKA8vB4Hpo4Hg645YD1YZuJ5QacsBsROysvR4Q356kuen4c94OcI49XNJM37DAwOj8ImIbiSWDTLOKyrhgiagrBWADL-53suX7bmcKaE9ZcJROROTpzQGcJCuSuRFd24w3EemN8SPXI0CripmFMLEZ3aXSs9n-c4X-Y4JgM44qTAZbfvhwSckwd5NzNnNMRCGrcGYDOmWEYpgi5o7QnV2jPb83IF8A0v7SNmKHt9nc8kBh6QUwF2emtCTWQp4W2inyFqVo3aKy1mA_1mAP0K4N061hu10TbN0NHNuhega7X7h4NazufaGPoJEZ1Z9ZXZpZbXVxY7zlmsUtIxpiQJ6o-sMwpWVHLRQ6fYj1Mak4fSTUlIIMOmyisyt7j9VHm1_qZMUW6jfKLebVRfI_gVEVNp_uURYzIwb3x8JymNZlRHD_a-ggd8jqrMmP5wH8hmYYe3gSadFWDakz-xh7wCrnlyurx6ud7y0]--></g></svg>