<svg xmlns="http://www.w3.org/2000/svg" xmlns:xlink="http://www.w3.org/1999/xlink" contentStyleType="text/css" data-diagram-type="CLASS" height="1246px" preserveAspectRatio="none" style="width:1531px;height:1246px;background:#FFFFFF;" version="1.1" viewBox="0 0 1531 1246" width="1531px" zoomAndPan="magnify"><defs/><g><!--cluster dpv--><g class="cluster" data-entity="dpv" data-source-line="6" data-uid="ent0004" id="cluster_dpv"><path d="M69.15,6.602 L95.8399,6.602 A3.75,3.75 0 0 1 98.3399,9.102 L105.3399,31.6699 L1522.15,31.6699 A2.5,2.5 0 0 1 1524.65,34.1699 L1524.65,1237.052 A2.5,2.5 0 0 1 1522.15,1239.552 L69.15,1239.552 A2.5,2.5 0 0 1 66.65,1237.052 L66.65,9.102 A2.5,2.5 0 0 1 69.15,6.602" fill="none" style="stroke:#000000;stroke-width:1.5;"/><line style="stroke:#000000;stroke-width:1.5;" x1="66.65" x2="105.3399" y1="31.6699" y2="31.6699"/><text fill="#000000" font-family="sans-serif" font-size="14" font-weight="bold" lengthAdjust="spacing" textLength="25.6899" x="70.65" y="23.5679">dpv</text></g><!--cluster legal--><g class="cluster" data-entity="legal" data-source-line="49" data-uid="ent0032" id="cluster_legal"><polygon fill="none" points="824.65,264.742,834.65,254.742,1492.65,254.742,1492.65,1197.552,1482.65,1207.552,824.65,1207.552,824.65,264.742" style="stroke:#181818;stroke-width:1;"/><line style="stroke:#181818;stroke-width:1;" x1="1482.65" x2="1492.65" y1="264.742" y2="254.742"/><line style="stroke:#181818;stroke-width:1;" x1="824.65" x2="1482.65" y1="264.742" y2="264.742"/><line style="stroke:#181818;stroke-width:1;" x1="1482.65" x2="1482.65" y1="264.742" y2="1207.552"/><text fill="#000000" font-family="sans-serif" font-size="14" font-weight="bold" lengthAdjust="spacing" textLength="33.9359" x="1137.6821" y="282.7079">legal</text></g><!--cluster eu--><g class="cluster" data-entity="eu" data-source-line="51" data-uid="ent0034" id="cluster_eu"><path d="M875.15,321.742 L893.6079,321.742 A3.75,3.75 0 0 1 896.1079,324.242 L903.1079,346.8099 L1428.15,346.8099 A2.5,2.5 0 0 1 1430.65,349.3099 L1430.65,447.372 A2.5,2.5 0 0 1 1428.15,449.872 L875.15,449.872 A2.5,2.5 0 0 1 872.65,447.372 L872.65,324.242 A2.5,2.5 0 0 1 875.15,321.742" fill="none" style="stroke:#000000;stroke-width:1.5;"/><line style="stroke:#000000;stroke-width:1.5;" x1="872.65" x2="903.1079" y1="346.8099" y2="346.8099"/><text fill="#000000" font-family="sans-serif" font-size="14" font-weight="bold" lengthAdjust="spacing" textLength="17.4579" x="876.65" y="338.7079">eu</text></g><!--cluster sector--><g class="cluster" data-entity="sector" data-source-line="146" data-uid="ent0125" id="cluster_sector"><polygon fill="none" points="98.65,646.012,108.65,636.012,784.65,636.012,784.65,759.142,774.65,769.142,98.65,769.142,98.65,646.012" style="stroke:#181818;stroke-width:1;"/><line style="stroke:#181818;stroke-width:1;" x1="774.65" x2="784.65" y1="646.012" y2="636.012"/><line style="stroke:#181818;stroke-width:1;" x1="98.65" x2="774.65" y1="646.012" y2="646.012"/><line style="stroke:#181818;stroke-width:1;" x1="774.65" x2="774.65" y1="646.012" y2="769.142"/><text fill="#000000" font-family="sans-serif" font-size="14" font-weight="bold" lengthAdjust="spacing" textLength="43.6938" x="415.8031" y="663.9779">sector</text></g><!--cluster standards--><g class="cluster" data-entity="standards" data-source-line="155" data-uid="ent0132" id="cluster_standards"><polygon fill="none" points="639.65,828.142,649.65,818.142,784.65,818.142,784.65,941.282,774.65,951.282,639.65,951.282,639.65,828.142" style="stroke:#181818;stroke-width:1;"/><line style="stroke:#181818;stroke-width:1;" x1="774.65" x2="784.65" y1="828.142" y2="818.142"/><line style="stroke:#181818;stroke-width:1;" x1="639.65" x2="774.65" y1="828.142" y2="828.142"/><line style="stroke:#181818;stroke-width:1;" x1="774.65" x2="774.65" y1="828.142" y2="951.282"/><text fill="#000000" font-family="sans-serif" font-size="14" font-weight="bold" lengthAdjust="spacing" textLength="69.9577" x="673.1711" y="846.1079">standards</text></g><!--class Process--><g class="entity" data-entity="Process" data-source-line="6" data-uid="ent0003" id="entity_Process"><rect fill="#F1F1F1" height="29.0679" rx="2.5" ry="2.5" style="stroke:#181818;stroke-width:0.5;" width="56.7498" x="495.28" y="44.602"/><text fill="#000000" font-family="sans-serif" font-size="14" lengthAdjust="spacing" textLength="50.7498" x="498.28" y="64.5679">Process</text></g><!--class PersonalData--><g class="entity" data-entity="PersonalData" data-source-line="10" data-uid="ent0006" id="entity_PersonalData"><rect fill="#F1F1F1" height="29.0679" rx="2.5" ry="2.5" style="stroke:#181818;stroke-width:0.5;" width="94.4237" x="279.44" y="152.672"/><text fill="#000000" font-family="sans-serif" font-size="14" lengthAdjust="spacing" textLength="88.4237" x="282.44" y="172.6379">PersonalData</text></g><!--class Risk--><g class="entity" data-entity="Risk" data-source-line="11" data-uid="ent0007" id="entity_Risk"><rect fill="#F1F1F1" height="29.0679" rx="2.5" ry="2.5" style="stroke:#181818;stroke-width:0.5;" width="32.5019" x="455.4" y="152.672"/><text fill="#000000" font-family="sans-serif" font-size="14" lengthAdjust="spacing" textLength="26.5019" x="458.4" y="172.6379">Risk</text></g><!--class Technology--><g class="entity" data-entity="Technology" data-source-line="12" data-uid="ent0008" id="entity_Technology"><rect fill="#F1F1F1" height="29.0679" rx="2.5" ry="2.5" style="stroke:#181818;stroke-width:0.5;" width="82.0057" x="682.65" y="152.672"/><text fill="#000000" font-family="sans-serif" font-size="14" lengthAdjust="spacing" textLength="76.0057" x="685.65" y="172.6379">Technology</text></g><!--class Location--><g class="entity" data-entity="Location" data-source-line="13" data-uid="ent0009" id="entity_Location"><rect fill="#F1F1F1" height="29.0679" rx="2.5" ry="2.5" style="stroke:#181818;stroke-width:0.5;" width="62.1678" x="545.57" y="382.272"/><text fill="#000000" font-family="sans-serif" font-size="14" lengthAdjust="spacing" textLength="56.1678" x="548.57" y="402.2379">Location</text></g><!--class Law--><g class="entity" data-entity="Law" data-source-line="14" data-uid="ent0010" id="entity_Law"><rect fill="#F1F1F1" height="29.0679" rx="2.5" ry="2.5" style="stroke:#181818;stroke-width:0.5;" width="32.1939" x="822.56" y="152.672"/><text fill="#000000" font-family="sans-serif" font-size="14" lengthAdjust="spacing" textLength="26.1939" x="825.56" y="172.6379">Law</text></g><!--class Justification--><g class="entity" data-entity="Justification" data-source-line="15" data-uid="ent0011" id="entity_Justification"><rect fill="#F1F1F1" height="29.0679" rx="2.5" ry="2.5" style="stroke:#181818;stroke-width:0.5;" width="82.6357" x="155.34" y="152.672"/><text fill="#000000" font-family="sans-serif" font-size="14" lengthAdjust="spacing" textLength="76.6357" x="158.34" y="172.6379">Justification</text></g><!--class Data--><g class="entity" data-entity="Data" data-source-line="17" data-uid="ent0012" id="entity_Data"><rect fill="#F1F1F1" height="29.0679" rx="2.5" ry="2.5" style="stroke:#181818;stroke-width:0.5;" width="36.9819" x="997.16" y="152.672"/><text fill="#000000" font-family="sans-serif" font-size="14" lengthAdjust="spacing" textLength="30.9819" x="1000.16" y="172.6379">Data</text></g><path d="M310.31,367.742 L329.0059,367.742 A3.75,3.75 0 0 1 331.5059,370.242 L338.5059,392.8099 L343.0059,392.8099 A2.5,2.5 0 0 1 345.5059,395.3099 L345.5059,423.3778 A2.5,2.5 0 0 1 343.0059,425.8778 L310.31,425.8778 A2.5,2.5 0 0 1 307.81,423.3778 L307.81,370.242 A2.5,2.5 0 0 1 310.31,367.742" fill="#F1F1F1" style="stroke:#181818;stroke-width:0.5;"/><line style="stroke:#181818;stroke-width:0.5;" x1="307.81" x2="338.5059" y1="392.8099" y2="392.8099"/><text fill="#000000" font-family="sans-serif" font-size="14" font-weight="bold" lengthAdjust="spacing" textLength="17.6959" x="311.81" y="384.7079">pd</text><path d="M451.08,367.742 L478.2319,367.742 A3.75,3.75 0 0 1 480.7319,370.242 L487.7319,392.8099 L492.2319,392.8099 A2.5,2.5 0 0 1 494.7319,395.3099 L494.7319,423.3778 A2.5,2.5 0 0 1 492.2319,425.8778 L451.08,425.8778 A2.5,2.5 0 0 1 448.58,423.3778 L448.58,370.242 A2.5,2.5 0 0 1 451.08,367.742" fill="#F1F1F1" style="stroke:#181818;stroke-width:0.5;"/><line style="stroke:#181818;stroke-width:0.5;" x1="448.58" x2="487.7319" y1="392.8099" y2="392.8099"/><text fill="#000000" font-family="sans-serif" font-size="14" font-weight="bold" lengthAdjust="spacing" textLength="26.1519" x="452.58" y="384.7079">risk</text><path d="M705.78,367.742 L737.5379,367.742 A3.75,3.75 0 0 1 740.0379,370.242 L747.0379,392.8099 L751.5379,392.8099 A2.5,2.5 0 0 1 754.0379,395.3099 L754.0379,423.3778 A2.5,2.5 0 0 1 751.5379,425.8778 L705.78,425.8778 A2.5,2.5 0 0 1 703.28,423.3778 L703.28,370.242 A2.5,2.5 0 0 1 705.78,367.742" fill="#F1F1F1" style="stroke:#181818;stroke-width:0.5;"/><line style="stroke:#181818;stroke-width:0.5;" x1="703.28" x2="747.0379" y1="392.8099" y2="392.8099"/><text fill="#000000" font-family="sans-serif" font-size="14" font-weight="bold" lengthAdjust="spacing" textLength="30.7579" x="707.28" y="384.7079">tech</text><path d="M143.7,367.742 L235.6156,367.742 A3.75,3.75 0 0 1 238.1156,370.242 L245.1156,392.8099 L249.6156,392.8099 A2.5,2.5 0 0 1 252.1156,395.3099 L252.1156,423.3778 A2.5,2.5 0 0 1 249.6156,425.8778 L143.7,425.8778 A2.5,2.5 0 0 1 141.2,423.3778 L141.2,370.242 A2.5,2.5 0 0 1 143.7,367.742" fill="#F1F1F1" style="stroke:#181818;stroke-width:0.5;"/><line style="stroke:#181818;stroke-width:0.5;" x1="141.2" x2="245.1156" y1="392.8099" y2="392.8099"/><text fill="#000000" font-family="sans-serif" font-size="14" font-weight="bold" lengthAdjust="spacing" textLength="90.9156" x="145.2" y="384.7079">justifications</text><path d="M633.08,522.872 L654.2259,522.872 A3.75,3.75 0 0 1 656.7259,525.372 L663.7259,547.9399 L668.2259,547.9399 A2.5,2.5 0 0 1 670.7259,550.4399 L670.7259,578.5078 A2.5,2.5 0 0 1 668.2259,581.0078 L633.08,581.0078 A2.5,2.5 0 0 1 630.58,578.5078 L630.58,525.372 A2.5,2.5 0 0 1 633.08,522.872" fill="#F1F1F1" style="stroke:#181818;stroke-width:0.5;"/><line style="stroke:#181818;stroke-width:0.5;" x1="630.58" x2="663.7259" y1="547.9399" y2="547.9399"/><text fill="#000000" font-family="sans-serif" font-size="14" font-weight="bold" lengthAdjust="spacing" textLength="20.1459" x="634.58" y="539.8379">loc</text><path d="M762.87,522.872 L776.442,522.872 A3.75,3.75 0 0 1 778.942,525.372 L785.942,547.9399 L790.442,547.9399 A2.5,2.5 0 0 1 792.942,550.4399 L792.942,578.5078 A2.5,2.5 0 0 1 790.442,581.0078 L762.87,581.0078 A2.5,2.5 0 0 1 760.37,578.5078 L760.37,525.372 A2.5,2.5 0 0 1 762.87,522.872" fill="#F1F1F1" style="stroke:#181818;stroke-width:0.5;"/><line style="stroke:#181818;stroke-width:0.5;" x1="760.37" x2="785.942" y1="547.9399" y2="547.9399"/><text fill="#000000" font-family="sans-serif" font-size="14" font-weight="bold" lengthAdjust="spacing" textLength="12.572" x="764.37" y="539.8379">ai</text><path d="M899.03,367.742 L934.2879,367.742 A3.75,3.75 0 0 1 936.7879,370.242 L943.7879,392.8099 L948.2879,392.8099 A2.5,2.5 0 0 1 950.7879,395.3099 L950.7879,423.3778 A2.5,2.5 0 0 1 948.2879,425.8778 L899.03,425.8778 A2.5,2.5 0 0 1 896.53,423.3778 L896.53,370.242 A2.5,2.5 0 0 1 899.03,367.742" fill="#F1F1F1" style="stroke:#181818;stroke-width:0.5;"/><line style="stroke:#181818;stroke-width:0.5;" x1="896.53" x2="943.7879" y1="392.8099" y2="392.8099"/><text fill="#000000" font-family="sans-serif" font-size="14" font-weight="bold" lengthAdjust="spacing" textLength="34.2579" x="900.53" y="384.7079">aiact</text><path d="M988.11,367.742 L1015.1919,367.742 A3.75,3.75 0 0 1 1017.6919,370.242 L1024.6919,392.8099 L1029.1919,392.8099 A2.5,2.5 0 0 1 1031.6919,395.3099 L1031.6919,423.3778 A2.5,2.5 0 0 1 1029.1919,425.8778 L988.11,425.8778 A2.5,2.5 0 0 1 985.61,423.3778 L985.61,370.242 A2.5,2.5 0 0 1 988.11,367.742" fill="#F1F1F1" style="stroke:#181818;stroke-width:0.5;"/><line style="stroke:#181818;stroke-width:0.5;" x1="985.61" x2="1024.6919" y1="392.8099" y2="392.8099"/><text fill="#000000" font-family="sans-serif" font-size="14" font-weight="bold" lengthAdjust="spacing" textLength="26.0819" x="989.61" y="384.7079">dga</text><path d="M1068.75,367.742 L1102.5519,367.742 A3.75,3.75 0 0 1 1105.0519,370.242 L1112.0519,392.8099 L1116.5519,392.8099 A2.5,2.5 0 0 1 1119.0519,395.3099 L1119.0519,423.3778 A2.5,2.5 0 0 1 1116.5519,425.8778 L1068.75,425.8778 A2.5,2.5 0 0 1 1066.25,423.3778 L1066.25,370.242 A2.5,2.5 0 0 1 1068.75,367.742" fill="#F1F1F1" style="stroke:#181818;stroke-width:0.5;"/><line style="stroke:#181818;stroke-width:0.5;" x1="1066.25" x2="1112.0519" y1="392.8099" y2="392.8099"/><text fill="#000000" font-family="sans-serif" font-size="14" font-weight="bold" lengthAdjust="spacing" textLength="32.8019" x="1070.25" y="384.7079">gdpr</text><path d="M1156.99,367.742 L1186.3119,367.742 A3.75,3.75 0 0 1 1188.8119,370.242 L1195.8119,392.8099 L1200.3119,392.8099 A2.5,2.5 0 0 1 1202.8119,395.3099 L1202.8119,423.3778 A2.5,2.5 0 0 1 1200.3119,425.8778 L1156.99,425.8778 A2.5,2.5 0 0 1 1154.49,423.3778 L1154.49,370.242 A2.5,2.5 0 0 1 1156.99,367.742" fill="#F1F1F1" style="stroke:#181818;stroke-width:0.5;"/><line style="stroke:#181818;stroke-width:0.5;" x1="1154.49" x2="1195.8119" y1="392.8099" y2="392.8099"/><text fill="#000000" font-family="sans-serif" font-size="14" font-weight="bold" lengthAdjust="spacing" textLength="28.3219" x="1158.49" y="384.7079">nis2</text><path d="M1240.41,367.742 L1282.9058,367.742 A3.75,3.75 0 0 1 1285.4058,370.242 L1292.4058,392.8099 L1296.9058,392.8099 A2.5,2.5 0 0 1 1299.4058,395.3099 L1299.4058,423.3778 A2.5,2.5 0 0 1 1296.9058,425.8778 L1240.41,425.8778 A2.5,2.5 0 0 1 1237.91,423.3778 L1237.91,370.242 A2.5,2.5 0 0 1 1240.41,367.742" fill="#F1F1F1" style="stroke:#181818;stroke-width:0.5;"/><line style="stroke:#181818;stroke-width:0.5;" x1="1237.91" x2="1292.4058" y1="392.8099" y2="392.8099"/><text fill="#000000" font-family="sans-serif" font-size="14" font-weight="bold" lengthAdjust="spacing" textLength="41.4958" x="1241.91" y="384.7079">rights</text><path d="M1336.49,367.742 L1370.8239,367.742 A3.75,3.75 0 0 1 1373.3239,370.242 L1380.3239,392.8099 L1384.8239,392.8099 A2.5,2.5 0 0 1 1387.3239,395.3099 L1387.3239,423.3778 A2.5,2.5 0 0 1 1384.8239,425.8778 L1336.49,425.8778 A2.5,2.5 0 0 1 1333.99,423.3778 L1333.99,370.242 A2.5,2.5 0 0 1 1336.49,367.742" fill="#F1F1F1" style="stroke:#181818;stroke-width:0.5;"/><line style="stroke:#181818;stroke-width:0.5;" x1="1333.99" x2="1380.3239" y1="392.8099" y2="392.8099"/><text fill="#000000" font-family="sans-serif" font-size="14" font-weight="bold" lengthAdjust="spacing" textLength="33.3339" x="1337.99" y="384.7079">ehds</text><path d="M897.92,522.872 L913.3819,522.872 A3.75,3.75 0 0 1 915.8819,525.372 L922.8819,547.9399 L927.3819,547.9399 A2.5,2.5 0 0 1 929.8819,550.4399 L929.8819,578.5078 A2.5,2.5 0 0 1 927.3819,581.0078 L897.92,581.0078 A2.5,2.5 0 0 1 895.42,578.5078 L895.42,525.372 A2.5,2.5 0 0 1 897.92,522.872" fill="#F1F1F1" style="stroke:#181818;stroke-width:0.5;"/><line style="stroke:#181818;stroke-width:0.5;" x1="895.42" x2="922.8819" y1="547.9399" y2="547.9399"/><text fill="#000000" font-family="sans-serif" font-size="14" font-weight="bold" lengthAdjust="spacing" textLength="14.4619" x="899.42" y="539.8379">at</text><path d="M967.55,522.872 L985.7559,522.872 A3.75,3.75 0 0 1 988.2559,525.372 L995.2559,547.9399 L999.7559,547.9399 A2.5,2.5 0 0 1 1002.2559,550.4399 L1002.2559,578.5078 A2.5,2.5 0 0 1 999.7559,581.0078 L967.55,581.0078 A2.5,2.5 0 0 1 965.05,578.5078 L965.05,525.372 A2.5,2.5 0 0 1 967.55,522.872" fill="#F1F1F1" style="stroke:#181818;stroke-width:0.5;"/><line style="stroke:#181818;stroke-width:0.5;" x1="965.05" x2="995.2559" y1="547.9399" y2="547.9399"/><text fill="#000000" font-family="sans-serif" font-size="14" font-weight="bold" lengthAdjust="spacing" textLength="17.2059" x="969.05" y="539.8379">be</text><path d="M1039.31,522.872 L1058.0059,522.872 A3.75,3.75 0 0 1 1060.5059,525.372 L1067.5059,547.9399 L1072.0059,547.9399 A2.5,2.5 0 0 1 1074.5059,550.4399 L1074.5059,578.5078 A2.5,2.5 0 0 1 1072.0059,581.0078 L1039.31,581.0078 A2.5,2.5 0 0 1 1036.81,578.5078 L1036.81,525.372 A2.5,2.5 0 0 1 1039.31,522.872" fill="#F1F1F1" style="stroke:#181818;stroke-width:0.5;"/><line style="stroke:#181818;stroke-width:0.5;" x1="1036.81" x2="1067.5059" y1="547.9399" y2="547.9399"/><text fill="#000000" font-family="sans-serif" font-size="14" font-weight="bold" lengthAdjust="spacing" textLength="17.6959" x="1040.81" y="539.8379">bg</text><path d="M1111.55,522.872 L1127.7679,522.872 A3.75,3.75 0 0 1 1130.2679,525.372 L1137.2679,547.9399 L1141.7679,547.9399 A2.5,2.5 0 0 1 1144.2679,550.4399 L1144.2679,578.5078 A2.5,2.5 0 0 1 1141.7679,581.0078 L1111.55,581.0078 A2.5,2.5 0 0 1 1109.05,578.5078 L1109.05,525.372 A2.5,2.5 0 0 1 1111.55,522.872" fill="#F1F1F1" style="stroke:#181818;stroke-width:0.5;"/><line style="stroke:#181818;stroke-width:0.5;" x1="1109.05" x2="1137.2679" y1="547.9399" y2="547.9399"/><text fill="#000000" font-family="sans-serif" font-size="14" font-weight="bold" lengthAdjust="spacing" textLength="15.2179" x="1113.05" y="539.8379">cy</text><path d="M1182.09,522.872 L1197.2159,522.872 A3.75,3.75 0 0 1 1199.7159,525.372 L1206.7159,547.9399 L1211.2159,547.9399 A2.5,2.5 0 0 1 1213.7159,550.4399 L1213.7159,578.5078 A2.5,2.5 0 0 1 1211.2159,581.0078 L1182.09,581.0078 A2.5,2.5 0 0 1 1179.59,578.5078 L1179.59,525.372 A2.5,2.5 0 0 1 1182.09,522.872" fill="#F1F1F1" style="stroke:#181818;stroke-width:0.5;"/><line style="stroke:#181818;stroke-width:0.5;" x1="1179.59" x2="1206.7159" y1="547.9399" y2="547.9399"/><text fill="#000000" font-family="sans-serif" font-size="14" font-weight="bold" lengthAdjust="spacing" textLength="14.1259" x="1183.59" y="539.8379">cz</text><path d="M1251.55,522.872 L1269.7559,522.872 A3.75,3.75 0 0 1 1272.2559,525.372 L1279.2559,547.9399 L1283.7559,547.9399 A2.5,2.5 0 0 1 1286.2559,550.4399 L1286.2559,578.5078 A2.5,2.5 0 0 1 1283.7559,581.0078 L1251.55,581.0078 A2.5,2.5 0 0 1 1249.05,578.5078 L1249.05,525.372 A2.5,2.5 0 0 1 1251.55,522.872" fill="#F1F1F1" style="stroke:#181818;stroke-width:0.5;"/><line style="stroke:#181818;stroke-width:0.5;" x1="1249.05" x2="1279.2559" y1="547.9399" y2="547.9399"/><text fill="#000000" font-family="sans-serif" font-size="14" font-weight="bold" lengthAdjust="spacing" textLength="17.2059" x="1253.05" y="539.8379">de</text><path d="M1323.39,522.872 L1341.9179,522.872 A3.75,3.75 0 0 1 1344.4179,525.372 L1351.4179,547.9399 L1355.9179,547.9399 A2.5,2.5 0 0 1 1358.4179,550.4399 L1358.4179,578.5078 A2.5,2.5 0 0 1 1355.9179,581.0078 L1323.39,581.0078 A2.5,2.5 0 0 1 1320.89,578.5078 L1320.89,525.372 A2.5,2.5 0 0 1 1323.39,522.872" fill="#F1F1F1" style="stroke:#181818;stroke-width:0.5;"/><line style="stroke:#181818;stroke-width:0.5;" x1="1320.89" x2="1351.4179" y1="547.9399" y2="547.9399"/><text fill="#000000" font-family="sans-serif" font-size="14" font-weight="bold" lengthAdjust="spacing" textLength="17.5279" x="1324.89" y="539.8379">dk</text><path d="M1395.8,522.872 L1413.5159,522.872 A3.75,3.75 0 0 1 1416.0159,525.372 L1423.0159,547.9399 L1427.5159,547.9399 A2.5,2.5 0 0 1 1430.0159,550.4399 L1430.0159,578.5078 A2.5,2.5 0 0 1 1427.5159,581.0078 L1395.8,581.0078 A2.5,2.5 0 0 1 1393.3,578.5078 L1393.3,525.372 A2.5,2.5 0 0 1 1395.8,522.872" fill="#F1F1F1" style="stroke:#181818;stroke-width:0.5;"/><line style="stroke:#181818;stroke-width:0.5;" x1="1393.3" x2="1423.0159" y1="547.9399" y2="547.9399"/><text fill="#000000" font-family="sans-serif" font-size="14" font-weight="bold" lengthAdjust="spacing" textLength="16.7159" x="1397.3" y="539.8379">ee</text><path d="M868.46,687.012 L884.8459,687.012 A3.75,3.75 0 0 1 887.3459,689.512 L894.3459,712.0799 L898.8459,712.0799 A2.5,2.5 0 0 1 901.3459,714.5799 L901.3459,742.6478 A2.5,2.5 0 0 1 898.8459,745.1478 L868.46,745.1478 A2.5,2.5 0 0 1 865.96,742.6478 L865.96,689.512 A2.5,2.5 0 0 1 868.46,687.012" fill="#F1F1F1" style="stroke:#181818;stroke-width:0.5;"/><line style="stroke:#181818;stroke-width:0.5;" x1="865.96" x2="894.3459" y1="712.0799" y2="712.0799"/><text fill="#000000" font-family="sans-serif" font-size="14" font-weight="bold" lengthAdjust="spacing" textLength="15.3859" x="869.96" y="703.9779">es</text><path d="M938.35,687.012 L948.954,687.012 A3.75,3.75 0 0 1 951.454,689.512 L958.454,712.0799 L962.954,712.0799 A2.5,2.5 0 0 1 965.454,714.5799 L965.454,742.6478 A2.5,2.5 0 0 1 962.954,745.1478 L938.35,745.1478 A2.5,2.5 0 0 1 935.85,742.6478 L935.85,689.512 A2.5,2.5 0 0 1 938.35,687.012" fill="#F1F1F1" style="stroke:#181818;stroke-width:0.5;"/><line style="stroke:#181818;stroke-width:0.5;" x1="935.85" x2="958.454" y1="712.0799" y2="712.0799"/><text fill="#000000" font-family="sans-serif" font-size="14" font-weight="bold" lengthAdjust="spacing" textLength="9.604" x="939.85" y="703.9779">fi</text><path d="M1003.32,687.012 L1015.996,687.012 A3.75,3.75 0 0 1 1018.496,689.512 L1025.496,712.0799 L1029.996,712.0799 A2.5,2.5 0 0 1 1032.496,714.5799 L1032.496,742.6478 A2.5,2.5 0 0 1 1029.996,745.1478 L1003.32,745.1478 A2.5,2.5 0 0 1 1000.82,742.6478 L1000.82,689.512 A2.5,2.5 0 0 1 1003.32,687.012" fill="#F1F1F1" style="stroke:#181818;stroke-width:0.5;"/><line style="stroke:#181818;stroke-width:0.5;" x1="1000.82" x2="1025.496" y1="712.0799" y2="712.0799"/><text fill="#000000" font-family="sans-serif" font-size="14" font-weight="bold" lengthAdjust="spacing" textLength="11.676" x="1004.82" y="703.9779">fr</text><path d="M1070.31,687.012 L1089.0059,687.012 A3.75,3.75 0 0 1 1091.5059,689.512 L1098.5059,712.0799 L1103.0059,712.0799 A2.5,2.5 0 0 1 1105.5059,714.5799 L1105.5059,742.6478 A2.5,2.5 0 0 1 1103.0059,745.1478 L1070.31,745.1478 A2.5,2.5 0 0 1 1067.81,742.6478 L1067.81,689.512 A2.5,2.5 0 0 1 1070.31,687.012" fill="#F1F1F1" style="stroke:#181818;stroke-width:0.5;"/><line style="stroke:#181818;stroke-width:0.5;" x1="1067.81" x2="1098.5059" y1="712.0799" y2="712.0799"/><text fill="#000000" font-family="sans-serif" font-size="14" font-weight="bold" lengthAdjust="spacing" textLength="17.6959" x="1071.81" y="703.9779">gb</text><path d="M1142.6,687.012 L1158.7059,687.012 A3.75,3.75 0 0 1 1161.2059,689.512 L1168.2059,712.0799 L1172.7059,712.0799 A2.5,2.5 0 0 1 1175.2059,714.5799 L1175.2059,742.6478 A2.5,2.5 0 0 1 1172.7059,745.1478 L1142.6,745.1478 A2.5,2.5 0 0 1 1140.1,742.6478 L1140.1,689.512 A2.5,2.5 0 0 1 1142.6,687.012" fill="#F1F1F1" style="stroke:#181818;stroke-width:0.5;"/><line style="stroke:#181818;stroke-width:0.5;" x1="1140.1" x2="1168.2059" y1="712.0799" y2="712.0799"/><text fill="#000000" font-family="sans-serif" font-size="14" font-weight="bold" lengthAdjust="spacing" textLength="15.1059" x="1144.1" y="703.9779">gr</text><path d="M1212.26,687.012 L1231.0399,687.012 A3.75,3.75 0 0 1 1233.5399,689.512 L1240.5399,712.0799 L1245.0399,712.0799 A2.5,2.5 0 0 1 1247.5399,714.5799 L1247.5399,742.6478 A2.5,2.5 0 0 1 1245.0399,745.1478 L1212.26,745.1478 A2.5,2.5 0 0 1 1209.76,742.6478 L1209.76,689.512 A2.5,2.5 0 0 1 1212.26,687.012" fill="#F1F1F1" style="stroke:#181818;stroke-width:0.5;"/><line style="stroke:#181818;stroke-width:0.5;" x1="1209.76" x2="1240.5399" y1="712.0799" y2="712.0799"/><text fill="#000000" font-family="sans-serif" font-size="14" font-weight="bold" lengthAdjust="spacing" textLength="17.7799" x="1213.76" y="703.9779">hk</text><path d="M1285.48,687.012 L1301.8379,687.012 A3.75,3.75 0 0 1 1304.3379,689.512 L1311.3379,712.0799 L1315.8379,712.0799 A2.5,2.5 0 0 1 1318.3379,714.5799 L1318.3379,742.6478 A2.5,2.5 0 0 1 1315.8379,745.1478 L1285.48,745.1478 A2.5,2.5 0 0 1 1282.98,742.6478 L1282.98,689.512 A2.5,2.5 0 0 1 1285.48,687.012" fill="#F1F1F1" style="stroke:#181818;stroke-width:0.5;"/><line style="stroke:#181818;stroke-width:0.5;" x1="1282.98" x2="1311.3379" y1="712.0799" y2="712.0799"/><text fill="#000000" font-family="sans-serif" font-size="14" font-weight="bold" lengthAdjust="spacing" textLength="15.3579" x="1286.98" y="703.9779">hr</text><path d="M1356.05,687.012 L1375.2499,687.012 A3.75,3.75 0 0 1 1377.7499,689.512 L1384.7499,712.0799 L1389.2499,712.0799 A2.5,2.5 0 0 1 1391.7499,714.5799 L1391.7499,742.6478 A2.5,2.5 0 0 1 1389.2499,745.1478 L1356.05,745.1478 A2.5,2.5 0 0 1 1353.55,742.6478 L1353.55,689.512 A2.5,2.5 0 0 1 1356.05,687.012" fill="#F1F1F1" style="stroke:#181818;stroke-width:0.5;"/><line style="stroke:#181818;stroke-width:0.5;" x1="1353.55" x2="1384.7499" y1="712.0799" y2="712.0799"/><text fill="#000000" font-family="sans-serif" font-size="14" font-weight="bold" lengthAdjust="spacing" textLength="18.1999" x="1357.55" y="703.9779">hu</text><path d="M1428.88,687.012 L1442.424,687.012 A3.75,3.75 0 0 1 1444.924,689.512 L1451.924,712.0799 L1456.424,712.0799 A2.5,2.5 0 0 1 1458.924,714.5799 L1458.924,742.6478 A2.5,2.5 0 0 1 1456.424,745.1478 L1428.88,745.1478 A2.5,2.5 0 0 1 1426.38,742.6478 L1426.38,689.512 A2.5,2.5 0 0 1 1428.88,687.012" fill="#F1F1F1" style="stroke:#181818;stroke-width:0.5;"/><line style="stroke:#181818;stroke-width:0.5;" x1="1426.38" x2="1451.924" y1="712.0799" y2="712.0799"/><text fill="#000000" font-family="sans-serif" font-size="14" font-weight="bold" lengthAdjust="spacing" textLength="12.544" x="1430.38" y="703.9779">ie</text><path d="M914.51,869.142 L928.7959,869.142 A3.75,3.75 0 0 1 931.2959,871.642 L938.2959,894.2099 L942.7959,894.2099 A2.5,2.5 0 0 1 945.2959,896.7099 L945.2959,924.7778 A2.5,2.5 0 0 1 942.7959,927.2778 L914.51,927.2778 A2.5,2.5 0 0 1 912.01,924.7778 L912.01,871.642 A2.5,2.5 0 0 1 914.51,869.142" fill="#F1F1F1" style="stroke:#181818;stroke-width:0.5;"/><line style="stroke:#181818;stroke-width:0.5;" x1="912.01" x2="938.2959" y1="894.2099" y2="894.2099"/><text fill="#000000" font-family="sans-serif" font-size="14" font-weight="bold" lengthAdjust="spacing" textLength="13.2859" x="916.01" y="886.1079">in</text><path d="M982.55,869.142 L994.764,869.142 A3.75,3.75 0 0 1 997.264,871.642 L1004.264,894.2099 L1008.764,894.2099 A2.5,2.5 0 0 1 1011.264,896.7099 L1011.264,924.7778 A2.5,2.5 0 0 1 1008.764,927.2778 L982.55,927.2778 A2.5,2.5 0 0 1 980.05,924.7778 L980.05,871.642 A2.5,2.5 0 0 1 982.55,869.142" fill="#F1F1F1" style="stroke:#181818;stroke-width:0.5;"/><line style="stroke:#181818;stroke-width:0.5;" x1="980.05" x2="1004.264" y1="894.2099" y2="894.2099"/><text fill="#000000" font-family="sans-serif" font-size="14" font-weight="bold" lengthAdjust="spacing" textLength="11.214" x="984.05" y="886.1079">is</text><path d="M1049.02,869.142 L1060.282,869.142 A3.75,3.75 0 0 1 1062.782,871.642 L1069.782,894.2099 L1074.282,894.2099 A2.5,2.5 0 0 1 1076.782,896.7099 L1076.782,924.7778 A2.5,2.5 0 0 1 1074.282,927.2778 L1049.02,927.2778 A2.5,2.5 0 0 1 1046.52,924.7778 L1046.52,871.642 A2.5,2.5 0 0 1 1049.02,869.142" fill="#F1F1F1" style="stroke:#181818;stroke-width:0.5;"/><line style="stroke:#181818;stroke-width:0.5;" x1="1046.52" x2="1069.782" y1="894.2099" y2="894.2099"/><text fill="#000000" font-family="sans-serif" font-size="14" font-weight="bold" lengthAdjust="spacing" textLength="10.262" x="1050.52" y="886.1079">it</text><path d="M1114.64,869.142 L1128.6599,869.142 A3.75,3.75 0 0 1 1131.1599,871.642 L1138.1599,894.2099 L1142.6599,894.2099 A2.5,2.5 0 0 1 1145.1599,896.7099 L1145.1599,924.7778 A2.5,2.5 0 0 1 1142.6599,927.2778 L1114.64,927.2778 A2.5,2.5 0 0 1 1112.14,924.7778 L1112.14,871.642 A2.5,2.5 0 0 1 1114.64,869.142" fill="#F1F1F1" style="stroke:#181818;stroke-width:0.5;"/><line style="stroke:#181818;stroke-width:0.5;" x1="1112.14" x2="1138.1599" y1="894.2099" y2="894.2099"/><text fill="#000000" font-family="sans-serif" font-size="14" font-weight="bold" lengthAdjust="spacing" textLength="13.0199" x="1116.14" y="886.1079">jp</text><path d="M1182.69,869.142 L1198.6279,869.142 A3.75,3.75 0 0 1 1201.1279,871.642 L1208.1279,894.2099 L1212.6279,894.2099 A2.5,2.5 0 0 1 1215.1279,896.7099 L1215.1279,924.7778 A2.5,2.5 0 0 1 1212.6279,927.2778 L1182.69,927.2778 A2.5,2.5 0 0 1 1180.19,924.7778 L1180.19,871.642 A2.5,2.5 0 0 1 1182.69,869.142" fill="#F1F1F1" style="stroke:#181818;stroke-width:0.5;"/><line style="stroke:#181818;stroke-width:0.5;" x1="1180.19" x2="1208.1279" y1="894.2099" y2="894.2099"/><text fill="#000000" font-family="sans-serif" font-size="14" font-weight="bold" lengthAdjust="spacing" textLength="14.9379" x="1184.19" y="886.1079">kr</text><path d="M1252.98,869.142 L1262.338,869.142 A3.75,3.75 0 0 1 1264.838,871.642 L1271.838,894.2099 L1276.338,894.2099 A2.5,2.5 0 0 1 1278.838,896.7099 L1278.838,924.7778 A2.5,2.5 0 0 1 1276.338,927.2778 L1252.98,927.2778 A2.5,2.5 0 0 1 1250.48,924.7778 L1250.48,871.642 A2.5,2.5 0 0 1 1252.98,869.142" fill="#F1F1F1" style="stroke:#181818;stroke-width:0.5;"/><line style="stroke:#181818;stroke-width:0.5;" x1="1250.48" x2="1271.838" y1="894.2099" y2="894.2099"/><text fill="#000000" font-family="sans-serif" font-size="14" font-weight="bold" lengthAdjust="spacing" textLength="8.358" x="1254.48" y="886.1079">li</text><path d="M1316.03,869.142 L1327.278,869.142 A3.75,3.75 0 0 1 1329.778,871.642 L1336.778,894.2099 L1341.278,894.2099 A2.5,2.5 0 0 1 1343.778,896.7099 L1343.778,924.7778 A2.5,2.5 0 0 1 1341.278,927.2778 L1316.03,927.2778 A2.5,2.5 0 0 1 1313.53,924.7778 L1313.53,871.642 A2.5,2.5 0 0 1 1316.03,869.142" fill="#F1F1F1" style="stroke:#181818;stroke-width:0.5;"/><line style="stroke:#181818;stroke-width:0.5;" x1="1313.53" x2="1336.778" y1="894.2099" y2="894.2099"/><text fill="#000000" font-family="sans-serif" font-size="14" font-weight="bold" lengthAdjust="spacing" textLength="10.248" x="1317.53" y="886.1079">lt</text><path d="M1381.52,869.142 L1395.7919,869.142 A3.75,3.75 0 0 1 1398.2919,871.642 L1405.2919,894.2099 L1409.7919,894.2099 A2.5,2.5 0 0 1 1412.2919,896.7099 L1412.2919,924.7778 A2.5,2.5 0 0 1 1409.7919,927.2778 L1381.52,927.2778 A2.5,2.5 0 0 1 1379.02,924.7778 L1379.02,871.642 A2.5,2.5 0 0 1 1381.52,869.142" fill="#F1F1F1" style="stroke:#181818;stroke-width:0.5;"/><line style="stroke:#181818;stroke-width:0.5;" x1="1379.02" x2="1405.2919" y1="894.2099" y2="894.2099"/><text fill="#000000" font-family="sans-serif" font-size="14" font-weight="bold" lengthAdjust="spacing" textLength="13.2719" x="1383.02" y="886.1079">lu</text><path d="M859.07,1006.282 L872.236,1006.282 A3.75,3.75 0 0 1 874.736,1008.782 L881.736,1031.3499 L886.236,1031.3499 A2.5,2.5 0 0 1 888.736,1033.8499 L888.736,1061.9178 A2.5,2.5 0 0 1 886.236,1064.4178 L859.07,1064.4178 A2.5,2.5 0 0 1 856.57,1061.9178 L856.57,1008.782 A2.5,2.5 0 0 1 859.07,1006.282" fill="#F1F1F1" style="stroke:#181818;stroke-width:0.5;"/><line style="stroke:#181818;stroke-width:0.5;" x1="856.57" x2="881.736" y1="1031.3499" y2="1031.3499"/><text fill="#000000" font-family="sans-serif" font-size="14" font-weight="bold" lengthAdjust="spacing" textLength="12.166" x="860.57" y="1023.2479">lv</text><path d="M925.95,1006.282 L949.3499,1006.282 A3.75,3.75 0 0 1 951.8499,1008.782 L958.8499,1031.3499 L963.3499,1031.3499 A2.5,2.5 0 0 1 965.8499,1033.8499 L965.8499,1061.9178 A2.5,2.5 0 0 1 963.3499,1064.4178 L925.95,1064.4178 A2.5,2.5 0 0 1 923.45,1061.9178 L923.45,1008.782 A2.5,2.5 0 0 1 925.95,1006.282" fill="#F1F1F1" style="stroke:#181818;stroke-width:0.5;"/><line style="stroke:#181818;stroke-width:0.5;" x1="923.45" x2="958.8499" y1="1031.3499" y2="1031.3499"/><text fill="#000000" font-family="sans-serif" font-size="14" font-weight="bold" lengthAdjust="spacing" textLength="22.3999" x="927.45" y="1023.2479">mo</text><path d="M1003.29,1006.282 L1024.0159,1006.282 A3.75,3.75 0 0 1 1026.5159,1008.782 L1033.5159,1031.3499 L1038.0159,1031.3499 A2.5,2.5 0 0 1 1040.5159,1033.8499 L1040.5159,1061.9178 A2.5,2.5 0 0 1 1038.0159,1064.4178 L1003.29,1064.4178 A2.5,2.5 0 0 1 1000.79,1061.9178 L1000.79,1008.782 A2.5,2.5 0 0 1 1003.29,1006.282" fill="#F1F1F1" style="stroke:#181818;stroke-width:0.5;"/><line style="stroke:#181818;stroke-width:0.5;" x1="1000.79" x2="1033.5159" y1="1031.3499" y2="1031.3499"/><text fill="#000000" font-family="sans-serif" font-size="14" font-weight="bold" lengthAdjust="spacing" textLength="19.7259" x="1004.79" y="1023.2479">mt</text><path d="M1078.33,1006.282 L1100.9739,1006.282 A3.75,3.75 0 0 1 1103.4739,1008.782 L1110.4739,1031.3499 L1114.9739,1031.3499 A2.5,2.5 0 0 1 1117.4739,1033.8499 L1117.4739,1061.9178 A2.5,2.5 0 0 1 1114.9739,1064.4178 L1078.33,1064.4178 A2.5,2.5 0 0 1 1075.83,1061.9178 L1075.83,1008.782 A2.5,2.5 0 0 1 1078.33,1006.282" fill="#F1F1F1" style="stroke:#181818;stroke-width:0.5;"/><line style="stroke:#181818;stroke-width:0.5;" x1="1075.83" x2="1110.4739" y1="1031.3499" y2="1031.3499"/><text fill="#000000" font-family="sans-serif" font-size="14" font-weight="bold" lengthAdjust="spacing" textLength="21.6439" x="1079.83" y="1023.2479">my</text><path d="M1154.52,1006.282 L1168.7919,1006.282 A3.75,3.75 0 0 1 1171.2919,1008.782 L1178.2919,1031.3499 L1182.7919,1031.3499 A2.5,2.5 0 0 1 1185.2919,1033.8499 L1185.2919,1061.9178 A2.5,2.5 0 0 1 1182.7919,1064.4178 L1154.52,1064.4178 A2.5,2.5 0 0 1 1152.02,1061.9178 L1152.02,1008.782 A2.5,2.5 0 0 1 1154.52,1006.282" fill="#F1F1F1" style="stroke:#181818;stroke-width:0.5;"/><line style="stroke:#181818;stroke-width:0.5;" x1="1152.02" x2="1178.2919" y1="1031.3499" y2="1031.3499"/><text fill="#000000" font-family="sans-serif" font-size="14" font-weight="bold" lengthAdjust="spacing" textLength="13.2719" x="1156.02" y="1023.2479">nl</text><path d="M1223.23,1006.282 L1242.0799,1006.282 A3.75,3.75 0 0 1 1244.5799,1008.782 L1251.5799,1031.3499 L1256.0799,1031.3499 A2.5,2.5 0 0 1 1258.5799,1033.8499 L1258.5799,1061.9178 A2.5,2.5 0 0 1 1256.0799,1064.4178 L1223.23,1064.4178 A2.5,2.5 0 0 1 1220.73,1061.9178 L1220.73,1008.782 A2.5,2.5 0 0 1 1223.23,1006.282" fill="#F1F1F1" style="stroke:#181818;stroke-width:0.5;"/><line style="stroke:#181818;stroke-width:0.5;" x1="1220.73" x2="1251.5799" y1="1031.3499" y2="1031.3499"/><text fill="#000000" font-family="sans-serif" font-size="14" font-weight="bold" lengthAdjust="spacing" textLength="17.8499" x="1224.73" y="1023.2479">no</text><path d="M1296.18,1006.282 L1315.1279,1006.282 A3.75,3.75 0 0 1 1317.6279,1008.782 L1324.6279,1031.3499 L1329.1279,1031.3499 A2.5,2.5 0 0 1 1331.6279,1033.8499 L1331.6279,1061.9178 A2.5,2.5 0 0 1 1329.1279,1064.4178 L1296.18,1064.4178 A2.5,2.5 0 0 1 1293.68,1061.9178 L1293.68,1008.782 A2.5,2.5 0 0 1 1296.18,1006.282" fill="#F1F1F1" style="stroke:#181818;stroke-width:0.5;"/><line style="stroke:#181818;stroke-width:0.5;" x1="1293.68" x2="1324.6279" y1="1031.3499" y2="1031.3499"/><text fill="#000000" font-family="sans-serif" font-size="14" font-weight="bold" lengthAdjust="spacing" textLength="17.9479" x="1297.68" y="1023.2479">ph</text><path d="M1368.64,1006.282 L1382.6599,1006.282 A3.75,3.75 0 0 1 1385.1599,1008.782 L1392.1599,1031.3499 L1396.6599,1031.3499 A2.5,2.5 0 0 1 1399.1599,1033.8499 L1399.1599,1061.9178 A2.5,2.5 0 0 1 1396.6599,1064.4178 L1368.64,1064.4178 A2.5,2.5 0 0 1 1366.14,1061.9178 L1366.14,1008.782 A2.5,2.5 0 0 1 1368.64,1006.282" fill="#F1F1F1" style="stroke:#181818;stroke-width:0.5;"/><line style="stroke:#181818;stroke-width:0.5;" x1="1366.14" x2="1392.1599" y1="1031.3499" y2="1031.3499"/><text fill="#000000" font-family="sans-serif" font-size="14" font-weight="bold" lengthAdjust="spacing" textLength="13.0199" x="1370.14" y="1023.2479">pl</text><path d="M1436.69,1006.282 L1452.6139,1006.282 A3.75,3.75 0 0 1 1455.1139,1008.782 L1462.1139,1031.3499 L1466.6139,1031.3499 A2.5,2.5 0 0 1 1469.1139,1033.8499 L1469.1139,1061.9178 A2.5,2.5 0 0 1 1466.6139,1064.4178 L1436.69,1064.4178 A2.5,2.5 0 0 1 1434.19,1061.9178 L1434.19,1008.782 A2.5,2.5 0 0 1 1436.69,1006.282" fill="#F1F1F1" style="stroke:#181818;stroke-width:0.5;"/><line style="stroke:#181818;stroke-width:0.5;" x1="1434.19" x2="1462.1139" y1="1031.3499" y2="1031.3499"/><text fill="#000000" font-family="sans-serif" font-size="14" font-weight="bold" lengthAdjust="spacing" textLength="14.9239" x="1438.19" y="1023.2479">pt</text><path d="M943.65,1125.412 L959.6579,1125.412 A3.75,3.75 0 0 1 962.1579,1127.912 L969.1579,1150.4799 L973.6579,1150.4799 A2.5,2.5 0 0 1 976.1579,1152.9799 L976.1579,1181.0478 A2.5,2.5 0 0 1 973.6579,1183.5478 L943.65,1183.5478 A2.5,2.5 0 0 1 941.15,1181.0478 L941.15,1127.912 A2.5,2.5 0 0 1 943.65,1125.412" fill="#F1F1F1" style="stroke:#181818;stroke-width:0.5;"/><line style="stroke:#181818;stroke-width:0.5;" x1="941.15" x2="969.1579" y1="1150.4799" y2="1150.4799"/><text fill="#000000" font-family="sans-serif" font-size="14" font-weight="bold" lengthAdjust="spacing" textLength="15.0079" x="945.15" y="1142.3779">ro</text><path d="M1013.46,1125.412 L1029.8459,1125.412 A3.75,3.75 0 0 1 1032.3459,1127.912 L1039.3459,1150.4799 L1043.8459,1150.4799 A2.5,2.5 0 0 1 1046.3459,1152.9799 L1046.3459,1181.0478 A2.5,2.5 0 0 1 1043.8459,1183.5478 L1013.46,1183.5478 A2.5,2.5 0 0 1 1010.96,1181.0478 L1010.96,1127.912 A2.5,2.5 0 0 1 1013.46,1125.412" fill="#F1F1F1" style="stroke:#181818;stroke-width:0.5;"/><line style="stroke:#181818;stroke-width:0.5;" x1="1010.96" x2="1039.3459" y1="1150.4799" y2="1150.4799"/><text fill="#000000" font-family="sans-serif" font-size="14" font-weight="bold" lengthAdjust="spacing" textLength="15.3859" x="1014.96" y="1142.3779">se</text><path d="M1084.22,1125.412 L1101.0959,1125.412 A3.75,3.75 0 0 1 1103.5959,1127.912 L1110.5959,1150.4799 L1115.0959,1150.4799 A2.5,2.5 0 0 1 1117.5959,1152.9799 L1117.5959,1181.0478 A2.5,2.5 0 0 1 1115.0959,1183.5478 L1084.22,1183.5478 A2.5,2.5 0 0 1 1081.72,1181.0478 L1081.72,1127.912 A2.5,2.5 0 0 1 1084.22,1125.412" fill="#F1F1F1" style="stroke:#181818;stroke-width:0.5;"/><line style="stroke:#181818;stroke-width:0.5;" x1="1081.72" x2="1110.5959" y1="1150.4799" y2="1150.4799"/><text fill="#000000" font-family="sans-serif" font-size="14" font-weight="bold" lengthAdjust="spacing" textLength="15.8759" x="1085.72" y="1142.3779">sg</text><path d="M1155.55,1125.412 L1167.764,1125.412 A3.75,3.75 0 0 1 1170.264,1127.912 L1177.264,1150.4799 L1181.764,1150.4799 A2.5,2.5 0 0 1 1184.264,1152.9799 L1184.264,1181.0478 A2.5,2.5 0 0 1 1181.764,1183.5478 L1155.55,1183.5478 A2.5,2.5 0 0 1 1153.05,1181.0478 L1153.05,1127.912 A2.5,2.5 0 0 1 1155.55,1125.412" fill="#F1F1F1" style="stroke:#181818;stroke-width:0.5;"/><line style="stroke:#181818;stroke-width:0.5;" x1="1153.05" x2="1177.264" y1="1150.4799" y2="1150.4799"/><text fill="#000000" font-family="sans-serif" font-size="14" font-weight="bold" lengthAdjust="spacing" textLength="11.214" x="1157.05" y="1142.3779">si</text><path d="M1221.3,1125.412 L1238.0079,1125.412 A3.75,3.75 0 0 1 1240.5079,1127.912 L1247.5079,1150.4799 L1252.0079,1150.4799 A2.5,2.5 0 0 1 1254.5079,1152.9799 L1254.5079,1181.0478 A2.5,2.5 0 0 1 1252.0079,1183.5478 L1221.3,1183.5478 A2.5,2.5 0 0 1 1218.8,1181.0478 L1218.8,1127.912 A2.5,2.5 0 0 1 1221.3,1125.412" fill="#F1F1F1" style="stroke:#181818;stroke-width:0.5;"/><line style="stroke:#181818;stroke-width:0.5;" x1="1218.8" x2="1247.5079" y1="1150.4799" y2="1150.4799"/><text fill="#000000" font-family="sans-serif" font-size="14" font-weight="bold" lengthAdjust="spacing" textLength="15.7079" x="1222.8" y="1142.3779">sk</text><path d="M1291.57,1125.412 L1307.7459,1125.412 A3.75,3.75 0 0 1 1310.2459,1127.912 L1317.2459,1150.4799 L1321.7459,1150.4799 A2.5,2.5 0 0 1 1324.2459,1152.9799 L1324.2459,1181.0478 A2.5,2.5 0 0 1 1321.7459,1183.5478 L1291.57,1183.5478 A2.5,2.5 0 0 1 1289.07,1181.0478 L1289.07,1127.912 A2.5,2.5 0 0 1 1291.57,1125.412" fill="#F1F1F1" style="stroke:#181818;stroke-width:0.5;"/><line style="stroke:#181818;stroke-width:0.5;" x1="1289.07" x2="1317.2459" y1="1150.4799" y2="1150.4799"/><text fill="#000000" font-family="sans-serif" font-size="14" font-weight="bold" lengthAdjust="spacing" textLength="15.1759" x="1293.07" y="1142.3779">th</text><path d="M1362.12,1125.412 L1381.1799,1125.412 A3.75,3.75 0 0 1 1383.6799,1127.912 L1390.6799,1150.4799 L1395.1799,1150.4799 A2.5,2.5 0 0 1 1397.6799,1152.9799 L1397.6799,1181.0478 A2.5,2.5 0 0 1 1395.1799,1183.5478 L1362.12,1183.5478 A2.5,2.5 0 0 1 1359.62,1181.0478 L1359.62,1127.912 A2.5,2.5 0 0 1 1362.12,1125.412" fill="#F1F1F1" style="stroke:#181818;stroke-width:0.5;"/><line style="stroke:#181818;stroke-width:0.5;" x1="1359.62" x2="1390.6799" y1="1150.4799" y2="1150.4799"/><text fill="#000000" font-family="sans-serif" font-size="14" font-weight="bold" lengthAdjust="spacing" textLength="18.0599" x="1363.62" y="1142.3779">tw</text><path d="M1435.09,1125.412 L1452.2179,1125.412 A3.75,3.75 0 0 1 1454.7179,1127.912 L1461.7179,1150.4799 L1466.2179,1150.4799 A2.5,2.5 0 0 1 1468.7179,1152.9799 L1468.7179,1181.0478 A2.5,2.5 0 0 1 1466.2179,1183.5478 L1435.09,1183.5478 A2.5,2.5 0 0 1 1432.59,1181.0478 L1432.59,1127.912 A2.5,2.5 0 0 1 1435.09,1125.412" fill="#F1F1F1" style="stroke:#181818;stroke-width:0.5;"/><line style="stroke:#181818;stroke-width:0.5;" x1="1432.59" x2="1461.7179" y1="1150.4799" y2="1150.4799"/><text fill="#000000" font-family="sans-serif" font-size="14" font-weight="bold" lengthAdjust="spacing" textLength="16.1279" x="1436.59" y="1142.3779">us</text><path d="M125.14,687.012 L196.1677,687.012 A3.75,3.75 0 0 1 198.6677,689.512 L205.6677,712.0799 L210.1677,712.0799 A2.5,2.5 0 0 1 212.6677,714.5799 L212.6677,742.6478 A2.5,2.5 0 0 1 210.1677,745.1478 L125.14,745.1478 A2.5,2.5 0 0 1 122.64,742.6478 L122.64,689.512 A2.5,2.5 0 0 1 125.14,687.012" fill="#F1F1F1" style="stroke:#181818;stroke-width:0.5;"/><line style="stroke:#181818;stroke-width:0.5;" x1="122.64" x2="205.6677" y1="712.0799" y2="712.0799"/><text fill="#000000" font-family="sans-serif" font-size="14" font-weight="bold" lengthAdjust="spacing" textLength="70.0277" x="126.64" y="703.9779">education</text><path d="M250.27,687.012 L303.0418,687.012 A3.75,3.75 0 0 1 305.5418,689.512 L312.5418,712.0799 L317.0418,712.0799 A2.5,2.5 0 0 1 319.5418,714.5799 L319.5418,742.6478 A2.5,2.5 0 0 1 317.0418,745.1478 L250.27,745.1478 A2.5,2.5 0 0 1 247.77,742.6478 L247.77,689.512 A2.5,2.5 0 0 1 250.27,687.012" fill="#F1F1F1" style="stroke:#181818;stroke-width:0.5;"/><line style="stroke:#181818;stroke-width:0.5;" x1="247.77" x2="312.5418" y1="712.0799" y2="712.0799"/><text fill="#000000" font-family="sans-serif" font-size="14" font-weight="bold" lengthAdjust="spacing" textLength="51.7718" x="251.77" y="703.9779">finance</text><path d="M356.56,687.012 L402.7518,687.012 A3.75,3.75 0 0 1 405.2518,689.512 L412.2518,712.0799 L416.7518,712.0799 A2.5,2.5 0 0 1 419.2518,714.5799 L419.2518,742.6478 A2.5,2.5 0 0 1 416.7518,745.1478 L356.56,745.1478 A2.5,2.5 0 0 1 354.06,742.6478 L354.06,689.512 A2.5,2.5 0 0 1 356.56,687.012" fill="#F1F1F1" style="stroke:#181818;stroke-width:0.5;"/><line style="stroke:#181818;stroke-width:0.5;" x1="354.06" x2="412.2518" y1="712.0799" y2="712.0799"/><text fill="#000000" font-family="sans-serif" font-size="14" font-weight="bold" lengthAdjust="spacing" textLength="45.1918" x="358.06" y="703.9779">health</text><path d="M456.48,687.012 L490.8279,687.012 A3.75,3.75 0 0 1 493.3279,689.512 L500.3279,712.0799 L504.8279,712.0799 A2.5,2.5 0 0 1 507.3279,714.5799 L507.3279,742.6478 A2.5,2.5 0 0 1 504.8279,745.1478 L456.48,745.1478 A2.5,2.5 0 0 1 453.98,742.6478 L453.98,689.512 A2.5,2.5 0 0 1 456.48,687.012" fill="#F1F1F1" style="stroke:#181818;stroke-width:0.5;"/><line style="stroke:#181818;stroke-width:0.5;" x1="453.98" x2="500.3279" y1="712.0799" y2="712.0799"/><text fill="#000000" font-family="sans-serif" font-size="14" font-weight="bold" lengthAdjust="spacing" textLength="33.3479" x="457.98" y="703.9779">infra</text><path d="M544.88,687.012 L570.4219,687.012 A3.75,3.75 0 0 1 572.9219,689.512 L579.9219,712.0799 L584.4219,712.0799 A2.5,2.5 0 0 1 586.9219,714.5799 L586.9219,742.6478 A2.5,2.5 0 0 1 584.4219,745.1478 L544.88,745.1478 A2.5,2.5 0 0 1 542.38,742.6478 L542.38,689.512 A2.5,2.5 0 0 1 544.88,687.012" fill="#F1F1F1" style="stroke:#181818;stroke-width:0.5;"/><line style="stroke:#181818;stroke-width:0.5;" x1="542.38" x2="579.9219" y1="712.0799" y2="712.0799"/><text fill="#000000" font-family="sans-serif" font-size="14" font-weight="bold" lengthAdjust="spacing" textLength="24.5419" x="546.38" y="703.9779">law</text><path d="M624.75,687.012 L724.5616,687.012 A3.75,3.75 0 0 1 727.0616,689.512 L734.0616,712.0799 L738.5616,712.0799 A2.5,2.5 0 0 1 741.0616,714.5799 L741.0616,742.6478 A2.5,2.5 0 0 1 738.5616,745.1478 L624.75,745.1478 A2.5,2.5 0 0 1 622.25,742.6478 L622.25,689.512 A2.5,2.5 0 0 1 624.75,687.012" fill="#F1F1F1" style="stroke:#181818;stroke-width:0.5;"/><line style="stroke:#181818;stroke-width:0.5;" x1="622.25" x2="734.0616" y1="712.0799" y2="712.0799"/><text fill="#000000" font-family="sans-serif" font-size="14" font-weight="bold" lengthAdjust="spacing" textLength="98.8116" x="626.25" y="703.9779">publicservices</text><path d="M674.72,869.142 L716.5998,869.142 A3.75,3.75 0 0 1 719.0998,871.642 L726.0998,894.2099 L730.5998,894.2099 A2.5,2.5 0 0 1 733.0998,896.7099 L733.0998,924.7778 A2.5,2.5 0 0 1 730.5998,927.2778 L674.72,927.2778 A2.5,2.5 0 0 1 672.22,924.7778 L672.22,871.642 A2.5,2.5 0 0 1 674.72,869.142" fill="#F1F1F1" style="stroke:#181818;stroke-width:0.5;"/><line style="stroke:#181818;stroke-width:0.5;" x1="672.22" x2="726.0998" y1="894.2099" y2="894.2099"/><text fill="#000000" font-family="sans-serif" font-size="14" font-weight="bold" lengthAdjust="spacing" textLength="40.8798" x="676.22" y="886.1079">p7012</text><!--class Thing--><g class="entity" data-entity="Thing" data-source-line="5" data-uid="ent0002" id="entity_Thing"><rect fill="#C0C0C0" height="29.0679" rx="2.5" ry="2.5" style="stroke:#181818;stroke-width:0.5;" width="43.3098" x="7" y="44.602"/><text fill="#000000" font-family="sans-serif" font-size="14" lengthAdjust="spacing" textLength="37.3098" x="10" y="64.5679">Thing</text></g><!--link Thing to Process--><g class="link" data-entity-1="Thing" data-entity-2="Process" data-source-line="6" data-uid="lnk5" id="link_Thing_Process"><path codeLine="6" d="M50.56,59.132 C130.27,59.132 398.85,59.132 488.84,59.132" fill="none" id="Thing-to-Process" style="stroke:#181818;stroke-width:1;"/><polygon fill="#181818" points="494.84,59.132,485.84,55.132,489.84,59.132,485.84,63.132,494.84,59.132" style="stroke:#181818;stroke-width:1;"/><polygon fill="#000000" points="241.29,46.985,232.2449,44.0461,232.2449,49.9239,241.29,46.985" style="stroke:#000000;stroke-width:1;"/><text fill="#000000" font-family="sans-serif" font-size="13" lengthAdjust="spacing" textLength="68.679" x="245.29" y="52.029">hasProcess</text></g><!--link Process to Data--><g class="link" data-entity-1="Process" data-entity-2="Data" data-source-line="17" data-uid="lnk13" id="link_Process_Data"><path codeLine="17" d="M552.32,60.362 C637.4,61.442 887.02,67.672 958.65,103.672 C980.31,114.552 997.73,137.382 1007.38,152.242" fill="none" id="Process-Data" style="stroke:#181818;stroke-width:1;"/><polygon fill="#000000" points="992.4611,114.5146,984.1766,109.8436,983.0133,115.6052,992.4611,114.5146" style="stroke:#000000;stroke-width:1;"/><text fill="#000000" font-family="sans-serif" font-size="13" lengthAdjust="spacing" textLength="50.323" x="996.56" y="118.569">hasData</text></g><!--link Process to Justification--><g class="link" data-entity-1="Process" data-entity-2="Justification" data-source-line="18" data-uid="lnk14" id="link_Process_Justification"><path codeLine="18" d="M495,60.862 C428.65,63.092 266.92,71.722 224.65,103.672 C209.09,115.432 201.98,137.792 198.87,152.332" fill="none" id="Process-Justification" style="stroke:#181818;stroke-width:1;"/><polygon fill="#000000" points="224.8727,115.0006,234.3823,115.1392,232.6476,109.5232,224.8727,115.0006" style="stroke:#000000;stroke-width:1;"/><text fill="#000000" font-family="sans-serif" font-size="13" lengthAdjust="spacing" textLength="92.7161" x="238.65" y="118.569">hasJustification</text></g><!--link Process to PersonalData--><g class="link" data-entity-1="Process" data-entity-2="PersonalData" data-source-line="19" data-uid="lnk15" id="link_Process_PersonalData"><path codeLine="19" d="M494.83,60.222 C458.17,61.822 394.83,69.762 354.65,103.672 C339.84,116.172 332.54,138.102 329.19,152.392" fill="none" id="Process-PersonalData" style="stroke:#181818;stroke-width:1;"/><polygon fill="#000000" points="355.2809,115.9562,364.6137,114.1262,361.7557,108.99,355.2809,115.9562" style="stroke:#000000;stroke-width:1;"/><text fill="#000000" font-family="sans-serif" font-size="13" lengthAdjust="spacing" textLength="103.6621" x="368.65" y="118.569">hasPersonalData</text></g><!--link Process to Risk--><g class="link" data-entity-1="Process" data-entity-2="Risk" data-source-line="20" data-uid="lnk16" id="link_Process_Risk"><path codeLine="20" d="M509.57,73.892 C502.07,81.942 493.26,92.652 487.65,103.672 C479.68,119.352 475.47,139.312 473.4,152.412" fill="none" id="Process-Risk" style="stroke:#181818;stroke-width:1;"/><polygon fill="#000000" points="490.558,118.0663,497.0118,111.0806,491.6731,108.6214,490.558,118.0663" style="stroke:#000000;stroke-width:1;"/><text fill="#000000" font-family="sans-serif" font-size="13" lengthAdjust="spacing" textLength="46.163" x="501.65" y="118.569">hasRisk</text></g><!--link Process to Technology--><g class="link" data-entity-1="Process" data-entity-2="Technology" data-source-line="21" data-uid="lnk17" id="link_Process_Technology"><path codeLine="21" d="M536.49,74.092 C550.02,88.082 572.54,109.392 595.65,122.672 C622.83,138.282 656.47,149.452 682.44,156.562" fill="none" id="Process-Technology" style="stroke:#181818;stroke-width:1;"/><polygon fill="#000000" points="605.0031,115.9847,598.5741,108.9763,595.6824,114.0937,605.0031,115.9847" style="stroke:#000000;stroke-width:1;"/><text fill="#000000" font-family="sans-serif" font-size="13" lengthAdjust="spacing" textLength="198.0552" x="609.65" y="118.569">isImplementedUsingTechnology</text></g><!--link Process to Location--><g class="link" data-entity-1="Process" data-entity-2="Location" data-source-line="22" data-uid="lnk18" id="link_Process_Location"><path codeLine="22" d="M535.59,74.052 C541.81,82.152 548.9,92.862 552.65,103.672 C588.1,205.562 581.3,339.042 577.91,381.912" fill="none" id="Process-Location" style="stroke:#181818;stroke-width:1;"/><polygon fill="#000000" points="577.2709,172.5084,578.9507,163.1474,573.1276,163.9478,577.2709,172.5084" style="stroke:#000000;stroke-width:1;"/><text fill="#000000" font-family="sans-serif" font-size="13" lengthAdjust="spacing" textLength="73.7101" x="585.59" y="172.599">hasLocation</text></g><!--link Process to Law--><g class="link" data-entity-1="Process" data-entity-2="Law" data-source-line="23" data-uid="lnk19" id="link_Process_Law"><path codeLine="23" d="M552.38,60.952 C617.23,63.342 772.47,72.282 812.65,103.672 C827.85,115.542 834.25,137.862 836.88,152.382" fill="none" id="Process-Law" style="stroke:#181818;stroke-width:1;"/><polygon fill="#000000" points="836.9102,115.0548,829.1981,109.4894,827.3997,115.0853,836.9102,115.0548" style="stroke:#000000;stroke-width:1;"/><text fill="#000000" font-family="sans-serif" font-size="13" lengthAdjust="spacing" textLength="109.0961" x="841.15" y="118.569">hasApplicableLaw</text></g><!--reverse link PersonalData to pd--><g class="link" data-entity-1="PersonalData" data-entity-2="pd" data-source-line="28" data-uid="lnk21" id="link_PersonalData_pd"><path codeLine="28" d="M326.65,188.102 C326.65,224.682 326.65,318.202 326.65,367.442" fill="none" id="PersonalData-backto-pd" style="stroke:#181818;stroke-width:1;stroke-dasharray:7,7;"/><polygon fill="#181818" points="326.65,182.102,322.65,191.102,326.65,187.102,330.65,191.102,326.65,182.102" style="stroke:#181818;stroke-width:1;"/><text fill="#000000" font-family="sans-serif" font-size="13" lengthAdjust="spacing" textLength="61.724" x="327.65" y="226.639">&#171;extends&#187;</text></g><!--reverse link Risk to risk--><g class="link" data-entity-1="Risk" data-entity-2="risk" data-source-line="32" data-uid="lnk23" id="link_Risk_risk"><path codeLine="32" d="M471.65,188.102 C471.65,224.682 471.65,318.202 471.65,367.442" fill="none" id="Risk-backto-risk" style="stroke:#181818;stroke-width:1;stroke-dasharray:7,7;"/><polygon fill="#181818" points="471.65,182.102,467.65,191.102,471.65,187.102,475.65,191.102,471.65,182.102" style="stroke:#181818;stroke-width:1;"/><text fill="#000000" font-family="sans-serif" font-size="13" lengthAdjust="spacing" textLength="61.724" x="472.65" y="226.639">&#171;extends&#187;</text></g><!--reverse link Technology to tech--><g class="link" data-entity-1="Technology" data-entity-2="tech" data-source-line="36" data-uid="lnk25" id="link_Technology_tech"><path codeLine="36" d="M724.0912,188.1005 C724.8912,224.6805 726.95,318.202 728.03,367.442" fill="none" id="Technology-backto-tech" style="stroke:#181818;stroke-width:1;stroke-dasharray:7,7;"/><polygon fill="#181818" points="723.96,182.102,720.1577,191.1873,724.0693,187.1008,728.1558,191.0124,723.96,182.102" style="stroke:#181818;stroke-width:1;"/><text fill="#000000" font-family="sans-serif" font-size="13" lengthAdjust="spacing" textLength="61.724" x="726" y="226.639">&#171;extends&#187;</text></g><!--reverse link Justification to justifications--><g class="link" data-entity-1="Justification" data-entity-2="justifications" data-source-line="40" data-uid="lnk27" id="link_Justification_justifications"><path codeLine="40" d="M196.65,188.102 C196.65,224.682 196.65,318.202 196.65,367.442" fill="none" id="Justification-backto-justifications" style="stroke:#181818;stroke-width:1;stroke-dasharray:7,7;"/><polygon fill="#181818" points="196.65,182.102,192.65,191.102,196.65,187.102,200.65,191.102,196.65,182.102" style="stroke:#181818;stroke-width:1;"/><text fill="#000000" font-family="sans-serif" font-size="13" lengthAdjust="spacing" textLength="61.724" x="197.65" y="226.639">&#171;extends&#187;</text></g><!--reverse link Location to loc--><g class="link" data-entity-1="Location" data-entity-2="loc" data-source-line="44" data-uid="lnk29" id="link_Location_loc"><path codeLine="44" d="M585.9603,417.0644 C598.0203,442.0244 621.01,489.592 636.93,522.532" fill="none" id="Location-backto-loc" style="stroke:#181818;stroke-width:1;stroke-dasharray:7,7;"/><polygon fill="#181818" points="583.35,411.662,583.6638,421.5058,585.5253,416.164,590.8671,418.0254,583.35,411.662" style="stroke:#181818;stroke-width:1;"/><text fill="#000000" font-family="sans-serif" font-size="13" lengthAdjust="spacing" textLength="61.724" x="623.46" y="488.769">&#171;extends&#187;</text></g><!--reverse link tech to ai--><g class="link" data-entity-1="tech" data-entity-2="ai" data-source-line="47" data-uid="lnk31" id="link_tech_ai"><path codeLine="47" d="M731.5843,432.2651 C733.7243,451.4751 737.11,471.222 744.65,492.872 C748.48,503.852 754.27,515.202 759.87,524.932" fill="none" id="tech-backto-ai" style="stroke:#181818;stroke-width:1;stroke-dasharray:7,7;"/><polygon fill="#181818" points="730.92,426.302,727.941,435.6895,731.4736,431.2712,735.8918,434.8038,730.92,426.302" style="stroke:#181818;stroke-width:1;"/><text fill="#000000" font-family="sans-serif" font-size="13" lengthAdjust="spacing" textLength="61.724" x="745.65" y="488.769">&#171;extends&#187;</text></g><!--reverse link Law to legal--><g class="link" data-entity-1="Law" data-entity-2="legal" data-source-line="50" data-uid="lnk33" id="link_Law_legal"><path codeLine="50" d="M838.1322,188.0999 C837.8122,200.2599 837.4663,213.3795 836.8886,235.2935 C836.7442,240.7721 836.5951,246.4254 836.4432,252.1884 C836.4242,252.9088 836.4052,253.6309 836.3861,254.3546" fill="none" id="Law-backto-legal" style="stroke:#181818;stroke-width:1;stroke-dasharray:7,7;"/><polygon fill="#181818" points="838.29,182.102,834.0546,190.9936,838.1585,187.1003,842.0519,191.2041,838.29,182.102" style="stroke:#181818;stroke-width:1;"/><text fill="#000000" font-family="sans-serif" font-size="13" lengthAdjust="spacing" textLength="61.724" x="838.51" y="226.639">&#171;extends&#187;</text></g><!--link eu to at--><!--link at to be--><!--link be to bg--><!--link bg to cy--><!--link cy to cz--><!--link cz to de--><!--link de to dk--><!--link dk to ee--><!--link ee to es--><!--link es to fi--><!--link fi to fr--><!--link fr to gb--><!--link gb to gr--><!--link gr to hk--><!--link hk to hr--><!--link hr to hu--><!--link hu to ie--><!--link ie to in--><!--link in to is--><!--link is to it--><!--link it to jp--><!--link jp to kr--><!--link kr to li--><!--link li to lt--><!--link lt to lu--><!--link lu to lv--><!--link lv to mo--><!--link mo to mt--><!--link mt to my--><!--link my to nl--><!--link nl to no--><!--link no to ph--><!--link ph to pl--><!--link pl to pt--><!--link pt to ro--><!--link ro to se--><!--link se to sg--><!--link sg to si--><!--link si to sk--><!--link sk to th--><!--link th to tw--><!--link tw to us--><!--link loc to sector--><!--link sector to standards--><!--link legal to ai--><!--link Justification to PersonalData--><!--link ai to sector--><!--SRC=[VPPDQzmm48RFwr-XqaDFkxIv549OAFJIKaefwQdqeBLcRSMoB2Hvjqd8Vw-iMTapJbamo1uzCtfdzEKtsjPcL212V3ImSqRQEFQcgjuPE4OH1-5rqqQXj8Swwi5MLMra2EA-rROHRuCs9_0LVcttGhdJxeSVQWZXLhGoNDx5lggSh3lPm8I8vsg3OIxzyoVuC5XfFiieY-sd3brvluUwjOCPciTY-JRKCkigt_9SNh-E8UgZllHNcw9bknLJV945vhVzXlKonqmnIqg6qbGpvamCAtRA9JFJowfloUrMwF2bTmPwi17Khv2Ak_Ikt4e1SjZoiMRaENT_Siwa90u6aYKnBsnMTawbYNcfyXpI7Evskz9_A-xku6y4gyAUp-dEJoaL_vnVySizLpnZocts98aM_zn_nV-1pawO8_59Ay5My9MmPgZdM7DXIvYfa_jILwbdpoo-U2NxjG6XaIPrVnyKxFVJ9ib3fwcQHyq43x4f8M2SNEPFgMKTnVCBCQb6SaEZdESMgyCDj-G3870Rj0ejwKd3Rd-tMYcmVzHMoBWeaZX-QcR2RyK15k80cKWD8nf2D4WqZAWV5w9-p4Hg6F54Y2SadXYXY0w5EXJNeJf2T4XqZ00I0p060Ai7149WqL93OnprGXnr9bB324y8dB3KKA8vB4Hpo4Hg645YD1YZuJ5QacsBsROysvR4Q356kuen4c94OcI49XNJM37DAwOj8ImIbiSWDTLOKyrhgiagrBWADL-53suX7bmcKaE9ZcJROROTpzQGcJCuSuRFd24w3EemN8SPXI0CripmFMLEZ3aXSs9n-c4X-Y4JgM44qTAZbfvhwSckwd5NzNnNMRCGrcGYDOmWEYpgi5o7QnV2jPb83IF8A0v7SNmKHt9nc8kBh6QUwF2emtCTWQp4W2inyFqVo3aKy1mA_1mAP0K4N061hu10TbN0NHNuhega7X7h4NazufaGPoJEZ1Z9ZXZpZbXVxY7zlmsUtIxpiQJ6o-sMwpWVHLRQ6fYj1Mak4fSTUlIIMOmyisyt7j9VHm1_qZMUW6jfKLebVRfI_gVEVNp_uURYzIwb3x8JymNZlRHD_a-ggd8jqrMmP5wH8hmYYe3gSadFWDakz-xh7wCrnlyurx6ud7y0]--></g></svg>