<svg xmlns="http://www.w3.org/2000/svg" xmlns:xlink="http://www.w3.org/1999/xlink" contentStyleType="text/css" height="472px" preserveAspectRatio="none" style="width:1145px;height:472px;background:#FFFFFF;" version="1.1" viewBox="0 0 1145 472" width="1145px" zoomAndPan="magnify"><defs/><g><!--cluster dpv--><g id="cluster_dpv"><path d="M71.5,6 L98.5,6 A3.75,3.75 0 0 1 101,8.5 L108,28.4883 L1135.5,28.4883 A2.5,2.5 0 0 1 1138,30.9883 L1138,462.94 A2.5,2.5 0 0 1 1135.5,465.44 L71.5,465.44 A2.5,2.5 0 0 1 69,462.94 L69,8.5 A2.5,2.5 0 0 1 71.5,6 " fill="none" style="stroke:#000000;stroke-width:1.5;"/><line style="stroke:#000000;stroke-width:1.5;" x1="69" x2="108" y1="28.4883" y2="28.4883"/><text fill="#000000" font-family="sans-serif" font-size="14" font-weight="bold" lengthAdjust="spacing" textLength="26" x="73" y="21.5352">dpv</text></g><!--class Process--><g id="elem_Process"><rect codeLine="9" fill="#FFA07A" height="26.4883" id="Process" rx="2.5" ry="2.5" style="stroke:#181818;stroke-width:0.5;" width="58" x="376" y="231.98"/><text fill="#000000" font-family="sans-serif" font-size="14" lengthAdjust="spacing" textLength="52" x="379" y="250.5152">Process</text></g><!--class Data--><g id="elem_Data"><rect codeLine="10" fill="#FFA07A" height="26.4883" id="Data" rx="2.5" ry="2.5" style="stroke:#181818;stroke-width:0.5;" width="37" x="85.5" y="335.46"/><text fill="#000000" font-family="sans-serif" font-size="14" lengthAdjust="spacing" textLength="31" x="88.5" y="353.9952">Data</text></g><!--class PersonalData--><g id="elem_PersonalData"><rect codeLine="11" fill="#F1F1F1" height="26.4883" id="PersonalData" rx="2.5" ry="2.5" style="stroke:#181818;stroke-width:0.5;" width="96" x="115" y="422.95"/><text fill="#000000" font-family="sans-serif" font-size="14" lengthAdjust="spacing" textLength="90" x="118" y="441.4852">PersonalData</text></g><!--class Purpose--><g id="elem_Purpose"><rect codeLine="12" fill="#ADD8E6" height="26.4883" id="Purpose" rx="2.5" ry="2.5" style="stroke:#181818;stroke-width:0.5;" width="62" x="983" y="128.49"/><text fill="#000000" font-family="sans-serif" font-size="14" lengthAdjust="spacing" textLength="56" x="986" y="147.0252">Purpose</text></g><!--class DataController--><g id="elem_DataController"><rect codeLine="13" fill="#F1F1F1" height="26.4883" id="DataController" rx="2.5" ry="2.5" style="stroke:#181818;stroke-width:0.5;" width="107" x="726.5" y="128.49"/><text fill="#000000" font-family="sans-serif" font-size="14" lengthAdjust="spacing" textLength="101" x="729.5" y="147.0252">DataController</text></g><!--class HumanSubject--><g id="elem_HumanSubject"><rect codeLine="14" fill="#F1F1F1" height="26.4883" id="HumanSubject" rx="2.5" ry="2.5" style="stroke:#181818;stroke-width:0.5;" width="105" x="442.5" y="41"/><text fill="#000000" font-family="sans-serif" font-size="14" lengthAdjust="spacing" textLength="99" x="445.5" y="59.5352">HumanSubject</text></g><!--class DataSubject--><g id="elem_DataSubject"><rect codeLine="15" fill="#F1F1F1" height="26.4883" id="DataSubject" rx="2.5" ry="2.5" style="stroke:#181818;stroke-width:0.5;" width="87" x="604.5" y="128.49"/><text fill="#000000" font-family="sans-serif" font-size="14" lengthAdjust="spacing" textLength="81" x="607.5" y="147.0252">DataSubject</text></g><!--class Recipient--><g id="elem_Recipient"><rect codeLine="16" fill="#ADD8E6" height="26.4883" id="Recipient" rx="2.5" ry="2.5" style="stroke:#181818;stroke-width:0.5;" width="69" x="346.5" y="335.46"/><text fill="#000000" font-family="sans-serif" font-size="14" lengthAdjust="spacing" textLength="63" x="349.5" y="353.9952">Recipient</text></g><!--class Context--><g id="elem_Context"><rect codeLine="17" fill="#ADD8E6" height="26.4883" id="Context" rx="2.5" ry="2.5" style="stroke:#181818;stroke-width:0.5;" width="61" x="450.5" y="335.46"/><text fill="#000000" font-family="sans-serif" font-size="14" lengthAdjust="spacing" textLength="55" x="453.5" y="353.9952">Context</text></g><!--class Risk--><g id="elem_Risk"><rect codeLine="18" fill="#ADD8E6" height="26.4883" id="Risk" rx="2.5" ry="2.5" style="stroke:#181818;stroke-width:0.5;" width="34" x="103" y="128.49"/><text fill="#000000" font-family="sans-serif" font-size="14" lengthAdjust="spacing" textLength="28" x="106" y="147.0252">Risk</text></g><!--class OrganisationalMeasure--><g id="elem_OrganisationalMeasure"><rect codeLine="19" fill="#ADD8E6" height="26.4883" id="OrganisationalMeasure" rx="2.5" ry="2.5" style="stroke:#181818;stroke-width:0.5;" width="165" x="546.5" y="335.46"/><text fill="#000000" font-family="sans-serif" font-size="14" lengthAdjust="spacing" textLength="159" x="549.5" y="353.9952">OrganisationalMeasure</text></g><!--class TechnicalMeasure--><g id="elem_TechnicalMeasure"><rect codeLine="20" fill="#ADD8E6" height="26.4883" id="TechnicalMeasure" rx="2.5" ry="2.5" style="stroke:#181818;stroke-width:0.5;" width="129" x="746.5" y="335.46"/><text fill="#000000" font-family="sans-serif" font-size="14" lengthAdjust="spacing" textLength="123" x="749.5" y="353.9952">TechnicalMeasure</text></g><!--class Right--><g id="elem_Right"><rect codeLine="21" fill="#ADD8E6" height="26.4883" id="Right" rx="2.5" ry="2.5" style="stroke:#181818;stroke-width:0.5;" width="42" x="203" y="128.49"/><text fill="#000000" font-family="sans-serif" font-size="14" lengthAdjust="spacing" textLength="36" x="206" y="147.0252">Right</text></g><!--class LegalBasis--><g id="elem_LegalBasis"><rect codeLine="22" fill="#ADD8E6" height="26.4883" id="LegalBasis" rx="2.5" ry="2.5" style="stroke:#181818;stroke-width:0.5;" width="76" x="296" y="128.49"/><text fill="#000000" font-family="sans-serif" font-size="14" lengthAdjust="spacing" textLength="70" x="299" y="147.0252">LegalBasis</text></g><!--class Processing--><g id="elem_Processing"><rect codeLine="23" fill="#ADD8E6" height="26.4883" id="Processing" rx="2.5" ry="2.5" style="stroke:#181818;stroke-width:0.5;" width="80" x="868" y="128.49"/><text fill="#000000" font-family="sans-serif" font-size="14" lengthAdjust="spacing" textLength="74" x="871" y="147.0252">Processing</text></g><!--class Technology--><g id="elem_Technology"><rect codeLine="24" fill="#ADD8E6" height="26.4883" id="Technology" rx="2.5" ry="2.5" style="stroke:#181818;stroke-width:0.5;" width="86" x="910" y="335.46"/><text fill="#000000" font-family="sans-serif" font-size="14" lengthAdjust="spacing" textLength="80" x="913" y="353.9952">Technology</text></g><!--class Thing--><g id="elem_Thing"><rect codeLine="4" fill="#C0C0C0" height="26.4883" id="Thing" rx="2.5" ry="2.5" style="stroke:#181818;stroke-width:0.5;" width="46" x="7" y="231.98"/><text fill="#000000" font-family="sans-serif" font-size="14" lengthAdjust="spacing" textLength="40" x="10" y="250.5152">Thing</text></g><!--link Thing to Process--><g id="link_Thing_Process"><path codeLine="5" d="M53.46,245.22 C118.96,245.22 303.72,245.22 375.74,245.22 " fill="none" id="Thing-Process" style="stroke:#181818;stroke-width:1.0;"/><polygon fill="#000000" points="182,233.8753,172.9549,230.9363,172.9549,236.8142,182,233.8753" style="stroke:#000000;stroke-width:1.0;"/><text fill="#000000" font-family="sans-serif" font-size="13" lengthAdjust="spacing" textLength="70" x="186" y="238.7884">hasProcess</text></g><!--reverse link Data to PersonalData--><g id="link_Data_PersonalData"><path codeLine="26" d="M122.9324,377.1356 C134.0824,393.2956 143.09,406.34 154.26,422.53 " fill="none" id="Data-backto-PersonalData" style="stroke:#181818;stroke-width:1.0;"/><polygon fill="none" points="112.71,362.32,117.9939,380.5431,127.8709,373.7281,112.71,362.32" style="stroke:#181818;stroke-width:1.0;"/></g><!--reverse link HumanSubject to DataSubject--><g id="link_HumanSubject_DataSubject"><path codeLine="27" d="M533.2933,76.6403 C562.2133,92.8003 596.36,111.88 625.33,128.07 " fill="none" id="HumanSubject-backto-DataSubject" style="stroke:#181818;stroke-width:1.0;"/><polygon fill="none" points="517.58,67.86,530.3665,81.878,536.22,71.4025,517.58,67.86" style="stroke:#181818;stroke-width:1.0;"/></g><!--link Purpose to Process--><g id="link_Purpose_Process"><path codeLine="29" d="M1007.67,155.27 C999.79,169.38 984.92,191.67 965,201.98 C917.7,226.45 543.19,239.92 434.48,243.34 " fill="none" id="Purpose-Process" style="stroke:#181818;stroke-width:1.0;"/><polygon fill="#000000" points="996.122,192.8759,986.7355,191.3447,987.6282,197.1544,996.122,192.8759" style="stroke:#000000;stroke-width:1.0;"/><text fill="#000000" font-family="sans-serif" font-size="13" lengthAdjust="spacing" textLength="72" x="1000.18" y="198.5484">hasPurpose</text></g><!--link Processing to Process--><g id="link_Processing_Process"><path codeLine="30" d="M893.6,155.43 C876.76,169.48 847.43,191.5 818,201.98 C747.04,227.24 516.67,239.41 434.48,243.02 " fill="none" id="Processing-Process" style="stroke:#181818;stroke-width:1.0;"/><polygon fill="#000000" points="862.2714,192.6983,852.8358,191.5065,853.9373,197.2802,862.2714,192.6983" style="stroke:#000000;stroke-width:1.0;"/><text fill="#000000" font-family="sans-serif" font-size="13" lengthAdjust="spacing" textLength="90" x="866.36" y="198.5484">hasProcessing</text></g><!--link DataController to Process--><g id="link_DataController_Process"><path codeLine="31" d="M753.21,155.42 C724.18,168.73 676.2,189.41 633,201.98 C563.04,222.33 478.03,235.02 434.23,240.71 " fill="none" id="DataController-Process" style="stroke:#181818;stroke-width:1.0;"/><polygon fill="#000000" points="692.2903,192.3437,682.793,191.841,684.3113,197.5193,692.2903,192.3437" style="stroke:#000000;stroke-width:1.0;"/><text fill="#000000" font-family="sans-serif" font-size="13" lengthAdjust="spacing" textLength="114" x="696.46" y="198.5484">hasDataController</text></g><!--link DataSubject to Process--><g id="link_DataSubject_Process"><path codeLine="32" d="M604.24,154.76 C578.44,162.36 545.4,172.99 517,184.98 C484.37,198.74 448.48,218.63 426.34,231.49 " fill="none" id="DataSubject-Process" style="stroke:#181818;stroke-width:1.0;"/><polygon fill="#000000" points="526.5912,191.6551,517.1217,192.5387,519.4496,197.9359,526.5912,191.6551" style="stroke:#000000;stroke-width:1.0;"/><text fill="#000000" font-family="sans-serif" font-size="13" lengthAdjust="spacing" textLength="97" x="531" y="198.5484">hasDataSubject</text></g><!--link HumanSubject to Process--><g id="link_HumanSubject_Process"><path codeLine="33" d="M487.97,67.92 C480.18,82.29 467.59,106.59 459,128.49 C446.55,160.23 452.43,171.57 437,201.98 C431.5,212.81 423.17,223.7 416.38,231.71 " fill="none" id="HumanSubject-Process" style="stroke:#181818;stroke-width:1.0;"/><polygon fill="#000000" points="466.0025,137.3038,459.687,144.4147,465.0729,146.7688,466.0025,137.3038" style="stroke:#000000;stroke-width:1.0;"/><text fill="#000000" font-family="sans-serif" font-size="13" lengthAdjust="spacing" textLength="113" x="473" y="146.7984">hasHumanSubject</text></g><!--link LegalBasis to Process--><g id="link_LegalBasis_Process"><path codeLine="34" d="M329.56,155.46 C325.97,168.15 322.73,187.73 331,201.98 C340.58,218.48 359.3,229.08 375.51,235.53 " fill="none" id="LegalBasis-Process" style="stroke:#181818;stroke-width:1.0;"/><polygon fill="#000000" points="333.5113,189.2986,335.4644,198.6065,340.5624,195.6809,333.5113,189.2986" style="stroke:#000000;stroke-width:1.0;"/><text fill="#000000" font-family="sans-serif" font-size="13" lengthAdjust="spacing" textLength="87" x="345" y="198.5484">hasLegalBasis</text></g><!--link Right to Process--><g id="link_Right_Process"><path codeLine="35" d="M225.7,155.02 C228.21,168.48 234.2,189.77 248,201.98 C283.83,233.68 341.04,241.92 375.61,243.87 " fill="none" id="Right-Process" style="stroke:#181818;stroke-width:1.0;"/><polygon fill="#000000" points="248.6987,191.086,254.9814,198.2259,257.9783,193.1695,248.6987,191.086" style="stroke:#000000;stroke-width:1.0;"/><text fill="#000000" font-family="sans-serif" font-size="13" lengthAdjust="spacing" textLength="55" x="262" y="198.5484">hasRight</text></g><!--link Risk to Process--><g id="link_Risk_Process"><path codeLine="36" d="M125.78,155.41 C132.77,169.21 145.9,190.81 164,201.98 C199.07,223.61 319.39,236.71 375.61,241.79 " fill="none" id="Risk-Process" style="stroke:#181818;stroke-width:1.0;"/><polygon fill="#000000" points="164.2745,192.0014,171.8627,197.7347,173.7834,192.1795,164.2745,192.0014" style="stroke:#000000;stroke-width:1.0;"/><text fill="#000000" font-family="sans-serif" font-size="13" lengthAdjust="spacing" textLength="49" x="178" y="198.5484">hasRisk</text></g><!--link Process to PersonalData--><g id="link_Process_PersonalData"><path codeLine="37" d="M375.73,249.49 C329.44,255.2 242.2,268.33 219,288.46 C177.61,324.39 166.69,394.35 163.91,422.76 " fill="none" id="Process-PersonalData" style="stroke:#181818;stroke-width:1.0;"/><polygon fill="#000000" points="186.6499,352.0311,195.5118,348.5789,191.7902,344.0293,186.6499,352.0311" style="stroke:#000000;stroke-width:1.0;"/><text fill="#000000" font-family="sans-serif" font-size="13" lengthAdjust="spacing" textLength="104" x="199.52" y="353.7784">hasPersonalData</text></g><!--link Process to Data--><g id="link_Process_Data"><path codeLine="38" d="M375.98,246.44 C310.51,247.54 154.15,253.84 117,288.46 C104.21,300.38 102.54,321.75 102.95,335.31 " fill="none" id="Process-Data" style="stroke:#181818;stroke-width:1.0;"/><polygon fill="#000000" points="117.2455,298.6628,126.7561,298.6579,124.9368,293.0687,117.2455,298.6628" style="stroke:#000000;stroke-width:1.0;"/><text fill="#000000" font-family="sans-serif" font-size="13" lengthAdjust="spacing" textLength="51" x="131" y="302.0284">hasData</text></g><!--link Process to Recipient--><g id="link_Process_Recipient"><path codeLine="39" d="M375.85,248.96 C330.86,253.87 247.84,265.81 230,288.46 C225.33,294.4 225.43,299.44 230,305.46 C237.14,314.87 303.96,330.93 346.28,340.3 " fill="none" id="Process-Recipient" style="stroke:#181818;stroke-width:1.0;"/><polygon fill="#000000" points="233.46,301.8722,239.0419,294.172,233.4498,292.3616,233.46,301.8722" style="stroke:#000000;stroke-width:1.0;"/><text fill="#000000" font-family="sans-serif" font-size="13" lengthAdjust="spacing" textLength="80" x="244" y="302.0284">hasRecipient</text></g><!--link Process to TechnicalMeasure--><g id="link_Process_TechnicalMeasure"><path codeLine="40" d="M434.2,248 C484.68,251.68 591.11,262.12 677,288.46 C693.92,293.65 696.87,298.18 713,305.46 C735.63,315.68 761.42,326.77 780.86,335.03 " fill="none" id="Process-TechnicalMeasure" style="stroke:#181818;stroke-width:1.0;"/><polygon fill="#000000" points="722.8495,298.3328,714.7923,293.2798,713.361,298.9808,722.8495,298.3328" style="stroke:#000000;stroke-width:1.0;"/><text fill="#000000" font-family="sans-serif" font-size="13" lengthAdjust="spacing" textLength="134" x="727" y="302.0284">hasTechnicalMeasure</text></g><!--link Process to OrganisationalMeasure--><g id="link_Process_OrganisationalMeasure"><path codeLine="41" d="M420.48,258.88 C437.23,272.06 465.16,292.55 492,305.46 C518.24,318.09 549.11,328 574.9,335.04 " fill="none" id="Process-OrganisationalMeasure" style="stroke:#181818;stroke-width:1.0;"/><polygon fill="#000000" points="501.4843,299.3269,494.6721,292.6902,492.0722,297.9618,501.4843,299.3269" style="stroke:#000000;stroke-width:1.0;"/><text fill="#000000" font-family="sans-serif" font-size="13" lengthAdjust="spacing" textLength="166" x="506" y="302.0284">hasOrganizationalMeasure</text></g><!--link Process to Context--><g id="link_Process_Context"><path codeLine="42" d="M386.67,258.79 C371.4,270.84 353.83,289.5 365,305.46 C370.12,312.77 417.65,328.44 450.25,338.51 " fill="none" id="Process-Context" style="stroke:#181818;stroke-width:1.0;"/><polygon fill="#000000" points="373.1176,301.0243,369.7755,292.1203,365.1801,295.7853,373.1176,301.0243" style="stroke:#000000;stroke-width:1.0;"/><text fill="#000000" font-family="sans-serif" font-size="13" lengthAdjust="spacing" textLength="72" x="379" y="302.0284">hasContext</text></g><!--link Process to Technology--><g id="link_Process_Technology"><path codeLine="43" d="M434.38,246.99 C522.91,249.62 785.91,259.72 866,288.46 C894.89,298.83 923.33,321.11 939.47,335.2 " fill="none" id="Process-Technology" style="stroke:#181818;stroke-width:1.0;"/><polygon fill="#000000" points="909.3155,297.9755,900.9108,293.5243,899.8996,299.3145,909.3155,297.9755" style="stroke:#000000;stroke-width:1.0;"/><text fill="#000000" font-family="sans-serif" font-size="13" lengthAdjust="spacing" textLength="202" x="913.39" y="302.0284">isImplementedUsingTechnology</text></g><!--SRC=[VPDBRiCW48RNuHHKMNJb720BBz8kMYbLeoGz0CLJcmQ3nIDg-hXxCSOk9gWRIvx_6sQO-RbXWd9R0TRcmc7LSIACRJcwvV1ci95OiRenk68Ag65I84GvqHeV6oPglDICdq6XuQzG1Qwwysgd90N7h753zFXJeexG4wcXH_0NGejRV2SLk8-Wq1cD5iF9Oy9osrS-4Dwwga6x9uPaXHqeBGNXFJ35hEgaXi1lk8Nu65VMACcvwpv47snBnC6-lhkRncGIsWDb7GDXCWVtXy97JjapVSg4drLD1DEa7otXJq2qLRcEZq0RmUX_oDulwZg-XPhm3T5CPyGmRB_BV579PNsPYMWHJniNjlWkXxb7qnh2oKnTPbYkKyVz32u9koeJP6elzbBVRGBED-hXUIYN4FgQwB7r18tluDauaC9_q_PeDFm4zElopB2uArcVWkgC4ul5pEpXaSMHETo7fXicscJbeT9ax3cLUi_3LuQSvsHzxHC7vJDn_3mxF2FFZqygqvEtvXep_TXs75hNELGllJiYuvO8_Q1V]--></g></svg>