<svg xmlns="http://www.w3.org/2000/svg" xmlns:xlink="http://www.w3.org/1999/xlink" contentStyleType="text/css" data-diagram-type="CLASS" height="492px" preserveAspectRatio="none" style="width:1128px;height:492px;background:#FFFFFF;" version="1.1" viewBox="0 0 1128 492" width="1128px" zoomAndPan="magnify"><defs/><g><!--cluster dpv--><g class="cluster" data-entity="dpv" data-source-line="5" data-uid="ent0004" id="cluster_dpv"><path d="M69.15,6.602 L95.8399,6.602 A3.75,3.75 0 0 1 98.3399,9.102 L105.3399,31.6699 L1119.15,31.6699 A2.5,2.5 0 0 1 1121.65,34.1699 L1121.65,483.442 A2.5,2.5 0 0 1 1119.15,485.942 L69.15,485.942 A2.5,2.5 0 0 1 66.65,483.442 L66.65,9.102 A2.5,2.5 0 0 1 69.15,6.602" fill="none" style="stroke:#000000;stroke-width:1.5;"/><line style="stroke:#000000;stroke-width:1.5;" x1="66.65" x2="105.3399" y1="31.6699" y2="31.6699"/><text fill="#000000" font-family="sans-serif" font-size="14" font-weight="bold" lengthAdjust="spacing" textLength="25.6899" x="70.65" y="23.5679">dpv</text></g><!--class Process--><g class="entity" data-entity="Process" data-source-line="5" data-uid="ent0003" id="entity_Process"><rect fill="#FFA07A" height="29.0679" rx="2.5" ry="2.5" style="stroke:#181818;stroke-width:0.5;" width="56.7498" x="368.28" y="242.742"/><text fill="#000000" font-family="sans-serif" font-size="14" lengthAdjust="spacing" textLength="50.7498" x="371.28" y="262.7079">Process</text></g><!--class Data--><g class="entity" data-entity="Data" data-source-line="10" data-uid="ent0006" id="entity_Data"><rect fill="#FFA07A" height="29.0679" rx="2.5" ry="2.5" style="stroke:#181818;stroke-width:0.5;" width="36.9819" x="82.16" y="350.802"/><text fill="#000000" font-family="sans-serif" font-size="14" lengthAdjust="spacing" textLength="30.9819" x="85.16" y="370.7679">Data</text></g><!--class PersonalData--><g class="entity" data-entity="PersonalData" data-source-line="11" data-uid="ent0007" id="entity_PersonalData"><rect fill="#F1F1F1" height="29.0679" rx="2.5" ry="2.5" style="stroke:#181818;stroke-width:0.5;" width="94.4237" x="112.44" y="440.872"/><text fill="#000000" font-family="sans-serif" font-size="14" lengthAdjust="spacing" textLength="88.4237" x="115.44" y="460.8379">PersonalData</text></g><!--class Purpose--><g class="entity" data-entity="Purpose" data-source-line="12" data-uid="ent0008" id="entity_Purpose"><rect fill="#ADD8E6" height="29.0679" rx="2.5" ry="2.5" style="stroke:#181818;stroke-width:0.5;" width="60.5858" x="964.36" y="134.672"/><text fill="#000000" font-family="sans-serif" font-size="14" lengthAdjust="spacing" textLength="54.5858" x="967.36" y="154.6379">Purpose</text></g><!--class DataController--><g class="entity" data-entity="DataController" data-source-line="13" data-uid="ent0009" id="entity_DataController"><rect fill="#F1F1F1" height="29.0679" rx="2.5" ry="2.5" style="stroke:#181818;stroke-width:0.5;" width="103.1596" x="714.08" y="134.672"/><text fill="#000000" font-family="sans-serif" font-size="14" lengthAdjust="spacing" textLength="97.1596" x="717.08" y="154.6379">DataController</text></g><!--class HumanSubject--><g class="entity" data-entity="HumanSubject" data-source-line="14" data-uid="ent0010" id="entity_HumanSubject"><rect fill="#F1F1F1" height="29.0679" rx="2.5" ry="2.5" style="stroke:#181818;stroke-width:0.5;" width="102.8516" x="434.23" y="44.602"/><text fill="#000000" font-family="sans-serif" font-size="14" lengthAdjust="spacing" textLength="96.8516" x="437.23" y="64.5679">HumanSubject</text></g><!--class DataSubject--><g class="entity" data-entity="DataSubject" data-source-line="15" data-uid="ent0011" id="entity_DataSubject"><rect fill="#F1F1F1" height="29.0679" rx="2.5" ry="2.5" style="stroke:#181818;stroke-width:0.5;" width="85.2117" x="594.05" y="134.672"/><text fill="#000000" font-family="sans-serif" font-size="14" lengthAdjust="spacing" textLength="79.2117" x="597.05" y="154.6379">DataSubject</text></g><!--class Recipient--><g class="entity" data-entity="Recipient" data-source-line="16" data-uid="ent0012" id="entity_Recipient"><rect fill="#ADD8E6" height="29.0679" rx="2.5" ry="2.5" style="stroke:#181818;stroke-width:0.5;" width="66.7598" x="341.28" y="350.802"/><text fill="#000000" font-family="sans-serif" font-size="14" lengthAdjust="spacing" textLength="60.7598" x="344.28" y="370.7679">Recipient</text></g><!--class Context--><g class="entity" data-entity="Context" data-source-line="17" data-uid="ent0013" id="entity_Context"><rect fill="#ADD8E6" height="29.0679" rx="2.5" ry="2.5" style="stroke:#181818;stroke-width:0.5;" width="57.3798" x="442.97" y="350.802"/><text fill="#000000" font-family="sans-serif" font-size="14" lengthAdjust="spacing" textLength="51.3798" x="445.97" y="370.7679">Context</text></g><!--class Risk--><g class="entity" data-entity="Risk" data-source-line="18" data-uid="ent0014" id="entity_Risk"><rect fill="#ADD8E6" height="29.0679" rx="2.5" ry="2.5" style="stroke:#181818;stroke-width:0.5;" width="32.5019" x="101.4" y="134.672"/><text fill="#000000" font-family="sans-serif" font-size="14" lengthAdjust="spacing" textLength="26.5019" x="104.4" y="154.6379">Risk</text></g><!--class OrganisationalMeasure--><g class="entity" data-entity="OrganisationalMeasure" data-source-line="19" data-uid="ent0015" id="entity_OrganisationalMeasure"><rect fill="#ADD8E6" height="29.0679" rx="2.5" ry="2.5" style="stroke:#181818;stroke-width:0.5;" width="160.7414" x="535.28" y="350.802"/><text fill="#000000" font-family="sans-serif" font-size="14" lengthAdjust="spacing" textLength="154.7414" x="538.28" y="370.7679">OrganisationalMeasure</text></g><!--class TechnicalMeasure--><g class="entity" data-entity="TechnicalMeasure" data-source-line="20" data-uid="ent0016" id="entity_TechnicalMeasure"><rect fill="#ADD8E6" height="29.0679" rx="2.5" ry="2.5" style="stroke:#181818;stroke-width:0.5;" width="124.9855" x="731.16" y="350.802"/><text fill="#000000" font-family="sans-serif" font-size="14" lengthAdjust="spacing" textLength="118.9855" x="734.16" y="370.7679">TechnicalMeasure</text></g><!--class Right--><g class="entity" data-entity="Right" data-source-line="21" data-uid="ent0017" id="entity_Right"><rect fill="#ADD8E6" height="29.0679" rx="2.5" ry="2.5" style="stroke:#181818;stroke-width:0.5;" width="40.6359" x="198.34" y="134.672"/><text fill="#000000" font-family="sans-serif" font-size="14" lengthAdjust="spacing" textLength="34.6359" x="201.34" y="154.6379">Right</text></g><!--class LegalBasis--><g class="entity" data-entity="LegalBasis" data-source-line="22" data-uid="ent0018" id="entity_LegalBasis"><rect fill="#ADD8E6" height="29.0679" rx="2.5" ry="2.5" style="stroke:#181818;stroke-width:0.5;" width="75.2857" x="287.01" y="134.672"/><text fill="#000000" font-family="sans-serif" font-size="14" lengthAdjust="spacing" textLength="69.2857" x="290.01" y="154.6379">LegalBasis</text></g><!--class Processing--><g class="entity" data-entity="Processing" data-source-line="23" data-uid="ent0019" id="entity_Processing"><rect fill="#ADD8E6" height="29.0679" rx="2.5" ry="2.5" style="stroke:#181818;stroke-width:0.5;" width="77.6237" x="851.84" y="134.672"/><text fill="#000000" font-family="sans-serif" font-size="14" lengthAdjust="spacing" textLength="71.6237" x="854.84" y="154.6379">Processing</text></g><!--class Technology--><g class="entity" data-entity="Technology" data-source-line="24" data-uid="ent0020" id="entity_Technology"><rect fill="#ADD8E6" height="29.0679" rx="2.5" ry="2.5" style="stroke:#181818;stroke-width:0.5;" width="82.0057" x="890.65" y="350.802"/><text fill="#000000" font-family="sans-serif" font-size="14" lengthAdjust="spacing" textLength="76.0057" x="893.65" y="370.7679">Technology</text></g><!--class Thing--><g class="entity" data-entity="Thing" data-source-line="4" data-uid="ent0002" id="entity_Thing"><rect fill="#C0C0C0" height="29.0679" rx="2.5" ry="2.5" style="stroke:#181818;stroke-width:0.5;" width="43.3098" x="7" y="242.742"/><text fill="#000000" font-family="sans-serif" font-size="14" lengthAdjust="spacing" textLength="37.3098" x="10" y="262.7079">Thing</text></g><!--link Thing to Process--><g class="link" data-entity-1="Thing" data-entity-2="Process" data-source-line="5" data-uid="lnk5" id="link_Thing_Process"><path codeLine="5" d="M50.57,257.272 C113.86,257.272 296.88,257.272 367.96,257.272" fill="none" id="Thing-Process" style="stroke:#181818;stroke-width:1;"/><polygon fill="#000000" points="177.79,245.125,168.7449,242.1861,168.7449,248.0639,177.79,245.125" style="stroke:#000000;stroke-width:1;"/><text fill="#000000" font-family="sans-serif" font-size="13" lengthAdjust="spacing" textLength="68.679" x="181.79" y="250.169">hasProcess</text></g><!--reverse link Data to PersonalData--><g class="link" data-entity-1="Data" data-entity-2="PersonalData" data-source-line="26" data-uid="lnk22" id="link_Data_PersonalData"><path codeLine="26" d="M119.8881,395.0565 C130.9081,411.5065 139.23,423.922 150.31,440.452" fill="none" id="Data-backto-PersonalData" style="stroke:#181818;stroke-width:1;"/><polygon fill="none" points="109.87,380.102,114.9033,398.3959,124.873,391.7171,109.87,380.102" style="stroke:#181818;stroke-width:1;"/></g><!--reverse link HumanSubject to DataSubject--><g class="link" data-entity-1="HumanSubject" data-entity-2="DataSubject" data-source-line="27" data-uid="lnk24" id="link_HumanSubject_DataSubject"><path codeLine="27" d="M525.1296,83.1589 C553.4096,99.6489 584.61,117.852 612.84,134.312" fill="none" id="HumanSubject-backto-DataSubject" style="stroke:#181818;stroke-width:1;"/><polygon fill="none" points="509.58,74.092,522.1073,88.3421,528.1519,77.9757,509.58,74.092" style="stroke:#181818;stroke-width:1;"/></g><!--link Purpose to Process--><g class="link" data-entity-1="Purpose" data-entity-2="Process" data-source-line="29" data-uid="lnk26" id="link_Purpose_Process"><path codeLine="29" d="M988.72,164.192 C981.58,179.072 968.09,201.932 948.65,212.742 C902.71,238.292 532.24,251.962 425.4,255.402" fill="none" id="Purpose-Process" style="stroke:#181818;stroke-width:1;"/><polygon fill="#000000" points="979.1857,202.7958,969.7872,201.3404,970.7267,207.1427,979.1857,202.7958" style="stroke:#000000;stroke-width:1;"/><text fill="#000000" font-family="sans-serif" font-size="13" lengthAdjust="spacing" textLength="72.2411" x="983.25" y="208.639">hasPurpose</text></g><!--link Processing to Process--><g class="link" data-entity-1="Processing" data-entity-2="Process" data-source-line="30" data-uid="lnk28" id="link_Processing_Process"><path codeLine="30" d="M876.56,164.142 C860.59,178.982 833.08,201.792 804.65,212.742 C735.02,239.552 506.11,251.632 425.26,255.142" fill="none" id="Processing-Process" style="stroke:#181818;stroke-width:1;"/><polygon fill="#000000" points="847.8114,202.6067,838.3638,201.5136,839.5256,207.2755,847.8114,202.6067" style="stroke:#000000;stroke-width:1;"/><text fill="#000000" font-family="sans-serif" font-size="13" lengthAdjust="spacing" textLength="88.0621" x="851.91" y="208.639">hasProcessing</text></g><!--link DataController to Process--><g class="link" data-entity-1="DataController" data-entity-2="Process" data-source-line="31" data-uid="lnk30" id="link_DataController_Process"><path codeLine="31" d="M736.58,164.142 C700.22,181.502 641.39,209.312 630.65,212.742 C558.61,235.722 469.99,248.092 425.31,253.282" fill="none" id="DataController-Process" style="stroke:#181818;stroke-width:1;"/><polygon fill="#000000" points="680.0768,202.2184,670.5721,201.8833,672.1903,207.534,680.0768,202.2184" style="stroke:#000000;stroke-width:1;"/><text fill="#000000" font-family="sans-serif" font-size="13" lengthAdjust="spacing" textLength="111.7741" x="684.27" y="208.639">hasDataController</text></g><!--link DataSubject to Process--><g class="link" data-entity-1="DataSubject" data-entity-2="Process" data-source-line="32" data-uid="lnk32" id="link_DataSubject_Process"><path codeLine="32" d="M593.91,164.172 C570.75,172.122 541.81,182.682 516.65,193.742 C482.68,208.672 444.93,228.992 421.01,242.362" fill="none" id="DataSubject-Process" style="stroke:#181818;stroke-width:1;"/><polygon fill="#000000" points="526.2058,201.5347,516.7533,202.5839,519.1753,207.9396,526.2058,201.5347" style="stroke:#000000;stroke-width:1;"/><text fill="#000000" font-family="sans-serif" font-size="13" lengthAdjust="spacing" textLength="95.1081" x="530.65" y="208.639">hasDataSubject</text></g><!--link HumanSubject to Process--><g class="link" data-entity-1="HumanSubject" data-entity-2="Process" data-source-line="33" data-uid="lnk34" id="link_HumanSubject_Process"><path codeLine="33" d="M478.29,74.142 C470.71,88.922 458.87,113.022 450.65,134.672 C437.82,168.492 443.47,180.212 427.65,212.742 C422.46,223.422 414.71,234.302 408.26,242.512" fill="none" id="HumanSubject-Process" style="stroke:#181818;stroke-width:1;"/><polygon fill="#000000" points="457.5702,144.9384,451.383,152.1612,456.8101,154.4185,457.5702,144.9384" style="stroke:#000000;stroke-width:1;"/><text fill="#000000" font-family="sans-serif" font-size="13" lengthAdjust="spacing" textLength="111.4881" x="464.65" y="154.599">hasHumanSubject</text></g><!--link LegalBasis to Process--><g class="link" data-entity-1="LegalBasis" data-entity-2="Process" data-source-line="34" data-uid="lnk36" id="link_LegalBasis_Process"><path codeLine="34" d="M320.6,164.122 C317.55,177.492 315.18,197.822 323.65,212.742 C333.13,229.422 351.81,240.382 367.9,247.142" fill="none" id="LegalBasis-Process" style="stroke:#181818;stroke-width:1;"/><polygon fill="#000000" points="326.1748,199.2506,328.0989,208.5645,333.206,205.6548,326.1748,199.2506" style="stroke:#000000;stroke-width:1;"/><text fill="#000000" font-family="sans-serif" font-size="13" lengthAdjust="spacing" textLength="85.8911" x="337.65" y="208.639">hasLegalBasis</text></g><!--link Right to Process--><g class="link" data-entity-1="Right" data-entity-2="Process" data-source-line="35" data-uid="lnk38" id="link_Right_Process"><path codeLine="35" d="M220.36,164.172 C222.83,178.372 228.74,200.032 242.65,212.742 C277.54,244.582 334,253.332 368,255.612" fill="none" id="Right-Process" style="stroke:#181818;stroke-width:1;"/><polygon fill="#000000" points="243.3992,200.9623,249.5415,208.2234,252.6364,203.2263,243.3992,200.9623" style="stroke:#000000;stroke-width:1;"/><text fill="#000000" font-family="sans-serif" font-size="13" lengthAdjust="spacing" textLength="53.7161" x="256.65" y="208.639">hasRight</text></g><!--link Risk to Process--><g class="link" data-entity-1="Risk" data-entity-2="Process" data-source-line="36" data-uid="lnk40" id="link_Risk_Process"><path codeLine="36" d="M123.3,164.072 C129.98,178.622 142.53,200.982 160.65,212.742 C194.56,234.732 312.61,248.392 367.8,253.722" fill="none" id="Risk-Process" style="stroke:#181818;stroke-width:1;"/><polygon fill="#000000" points="160.9556,201.8737,168.4361,207.7468,170.4596,202.2282,160.9556,201.8737" style="stroke:#000000;stroke-width:1;"/><text fill="#000000" font-family="sans-serif" font-size="13" lengthAdjust="spacing" textLength="46.163" x="174.65" y="208.639">hasRisk</text></g><!--link Process to PersonalData--><g class="link" data-entity-1="Process" data-entity-2="PersonalData" data-source-line="37" data-uid="lnk41" id="link_Process_PersonalData"><path codeLine="37" d="M367.96,261.792 C322.59,267.882 237.11,281.712 214.65,301.802 C172.89,339.172 162.82,410.662 160.41,440.642" fill="none" id="Process-PersonalData" style="stroke:#181818;stroke-width:1;"/><polygon fill="#000000" points="182.1423,368.9589,190.9128,365.2808,187.0758,360.8281,182.1423,368.9589" style="stroke:#000000;stroke-width:1;"/><text fill="#000000" font-family="sans-serif" font-size="13" lengthAdjust="spacing" textLength="103.6621" x="194.93" y="370.739">hasPersonalData</text></g><!--link Process to Data--><g class="link" data-entity-1="Process" data-entity-2="Data" data-source-line="38" data-uid="lnk42" id="link_Process_Data"><path codeLine="38" d="M368.23,258.732 C304.13,260.362 151.02,267.802 114.65,301.802 C101.41,314.192 99.36,336.162 99.61,350.482" fill="none" id="Process-Data" style="stroke:#181818;stroke-width:1;"/><polygon fill="#000000" points="114.9184,313.2711,124.4279,313.1287,122.528,307.5663,114.9184,313.2711" style="stroke:#000000;stroke-width:1;"/><text fill="#000000" font-family="sans-serif" font-size="13" lengthAdjust="spacing" textLength="50.323" x="128.65" y="316.699">hasData</text></g><!--link Process to Recipient--><g class="link" data-entity-1="Process" data-entity-2="Recipient" data-source-line="39" data-uid="lnk43" id="link_Process_Recipient"><path codeLine="39" d="M367.96,261.412 C324.14,266.862 243.84,279.662 226.65,301.802 C221.48,308.472 221.6,314.042 226.65,320.802 C233.63,330.132 299.5,346.892 340.98,356.672" fill="none" id="Process-Recipient" style="stroke:#181818;stroke-width:1;"/><polygon fill="#000000" points="230.2875,316.4658,235.58,308.5639,229.9246,306.9621,230.2875,316.4658" style="stroke:#000000;stroke-width:1;"/><text fill="#000000" font-family="sans-serif" font-size="13" lengthAdjust="spacing" textLength="77.9741" x="240.65" y="316.699">hasRecipient</text></g><!--link Process to TechnicalMeasure--><g class="link" data-entity-1="Process" data-entity-2="TechnicalMeasure" data-source-line="40" data-uid="lnk44" id="link_Process_TechnicalMeasure"><path codeLine="40" d="M425.37,259.832 C475.51,263.232 581.78,273.422 666.65,301.802 C683.81,307.542 686.49,312.682 702.65,320.802 C722.84,330.952 745.79,341.932 763.59,350.322" fill="none" id="Process-TechnicalMeasure" style="stroke:#181818;stroke-width:1;"/><polygon fill="#000000" points="712.4801,312.9473,704.5019,307.7704,702.9828,313.4486,712.4801,312.9473" style="stroke:#000000;stroke-width:1;"/><text fill="#000000" font-family="sans-serif" font-size="13" lengthAdjust="spacing" textLength="132.0411" x="716.65" y="316.699">hasTechnicalMeasure</text></g><!--link Process to OrganisationalMeasure--><g class="link" data-entity-1="Process" data-entity-2="OrganisationalMeasure" data-source-line="41" data-uid="lnk45" id="link_Process_OrganisationalMeasure"><path codeLine="41" d="M412.46,272.132 C429,286.032 456.19,307.282 482.65,320.802 C506.99,333.242 535.62,343.162 560.08,350.362" fill="none" id="Process-OrganisationalMeasure" style="stroke:#181818;stroke-width:1;"/><polygon fill="#000000" points="492.068,313.9963,485.4519,307.164,482.6996,312.3577,492.068,313.9963" style="stroke:#000000;stroke-width:1;"/><text fill="#000000" font-family="sans-serif" font-size="13" lengthAdjust="spacing" textLength="165.1261" x="496.65" y="316.699">hasOrganizationalMeasure</text></g><!--link Process to Context--><g class="link" data-entity-1="Process" data-entity-2="Context" data-source-line="42" data-uid="lnk46" id="link_Process_Context"><path codeLine="42" d="M378.37,272.212 C363.79,285.072 347.51,304.572 358.65,320.802 C363.65,328.082 410.76,344.562 442.55,355.022" fill="none" id="Process-Context" style="stroke:#181818;stroke-width:1;"/><polygon fill="#000000" points="366.7129,315.607,363.495,306.6574,358.8491,310.2581,366.7129,315.607" style="stroke:#000000;stroke-width:1;"/><text fill="#000000" font-family="sans-serif" font-size="13" lengthAdjust="spacing" textLength="69.2641" x="372.65" y="316.699">hasContext</text></g><!--link Process to Technology--><g class="link" data-entity-1="Process" data-entity-2="Technology" data-source-line="43" data-uid="lnk47" id="link_Process_Technology"><path codeLine="43" d="M425.27,258.862 C512.72,261.012 775.28,270.012 853.65,301.802 C880.19,312.572 904.92,335.442 919.15,350.332" fill="none" id="Process-Technology" style="stroke:#181818;stroke-width:1;"/><polygon fill="#000000" points="894.2364,312.5655,885.8778,308.0286,884.8073,313.8081,894.2364,312.5655" style="stroke:#000000;stroke-width:1;"/><text fill="#000000" font-family="sans-serif" font-size="13" lengthAdjust="spacing" textLength="198.0552" x="898.32" y="316.699">isImplementedUsingTechnology</text></g><!--SRC=[VPDBRiCW48RNuHHKMNJb720BBz8kMYbLeoGz0CLJcmQ3nIDg-hXxCSOk9gWRIvx_6sQO-RbXWd9R0TRcmc7LSIACRJcwvV1ci95OiRenk68Ag65I84GvqHeV6oPglDICdq6XuQzG1Qwwysgd90N7h753zFXJeexG4wcXH_0NGejRV2SLk8-Wq1cD5iF9Oy9osrS-4Dwwga6x9uPaXHqeBGNXFJ35hEgaXi1lk8Nu65VMACcvwpv47snBnC6-lhkRncGIsWDb7GDXCWVtXy97JjapVSg4drLD1DEa7otXJq2qLRcEZq0RmUX_oDulwZg-XPhm3T5CPyGmRB_BV579PNsPYMWHJniNjlWkXxb7qnh2oKnTPbYkKyVz32u9koeJP6elzbBVRGBED-hXUIYN4FgQwB7r18tluDauaC9_q_PeDFm4zElopB2uArcVWkgC4ul5pEpXaSMHETo7fXicscJbeT9ax3cLUi_3LuQSvsHzxHC7vJDn_3mxF2FFZqygqvEtvXep_TXs75hNELGllJiYuvO8_Q1V]--></g></svg>