<svg xmlns="http://www.w3.org/2000/svg" xmlns:xlink="http://www.w3.org/1999/xlink" contentStyleType="text/css" data-diagram-type="CLASS" height="1074px" preserveAspectRatio="none" style="width:1528px;height:1074px;background:#FFFFFF;" version="1.1" viewBox="0 0 1528 1074" width="1528px" zoomAndPan="magnify"><defs/><g><!--cluster dpv--><g id="cluster_dpv"><path d="M71,6 L98.8584,6 A3.75,3.75 0 0 1 101.3584,8.5 L108.3584,28.4883 L1519,28.4883 A2.5,2.5 0 0 1 1521.5,30.9883 L1521.5,1065.36 A2.5,2.5 0 0 1 1519,1067.86 L71,1067.86 A2.5,2.5 0 0 1 68.5,1065.36 L68.5,8.5 A2.5,2.5 0 0 1 71,6 " fill="transparent" style="stroke:#000000;stroke-width:1.5;"/><line style="stroke:#000000;stroke-width:1.5;" x1="68.5" x2="108.3584" y1="28.4883" y2="28.4883"/><text fill="#000000" font-family="sans-serif" font-size="14" font-weight="bold" lengthAdjust="spacing" textLength="26.8584" x="72.5" y="21.5352">dpv</text></g><!--cluster legal--><g id="cluster_legal"><polygon fill="transparent" points="834.5,251.98,844.5,241.98,1489.5,241.98,1489.5,1025.86,1479.5,1035.86,834.5,1035.86,834.5,251.98" style="stroke:#181818;stroke-width:1;"/><line style="stroke:#181818;stroke-width:1;" x1="1479.5" x2="1489.5" y1="251.98" y2="241.98"/><line style="stroke:#181818;stroke-width:1;" x1="834.5" x2="1479.5" y1="251.98" y2="251.98"/><line style="stroke:#181818;stroke-width:1;" x1="1479.5" x2="1479.5" y1="251.98" y2="1035.86"/><text fill="#000000" font-family="sans-serif" font-size="14" font-weight="bold" lengthAdjust="spacing" textLength="34.7744" x="1140.6128" y="268.5152">legal</text></g><!--cluster eu--><g id="cluster_eu"><path d="M885,305.98 L903.3975,305.98 A3.75,3.75 0 0 1 905.8975,308.48 L912.8975,328.4683 L1446,328.4683 A2.5,2.5 0 0 1 1448.5,330.9683 L1448.5,423.45 A2.5,2.5 0 0 1 1446,425.95 L885,425.95 A2.5,2.5 0 0 1 882.5,423.45 L882.5,308.48 A2.5,2.5 0 0 1 885,305.98 " fill="transparent" style="stroke:#000000;stroke-width:1.5;"/><line style="stroke:#000000;stroke-width:1.5;" x1="882.5" x2="912.8975" y1="328.4683" y2="328.4683"/><text fill="#000000" font-family="sans-serif" font-size="14" font-weight="bold" lengthAdjust="spacing" textLength="17.3975" x="886.5" y="321.5152">eu</text></g><!--cluster sector--><g id="cluster_sector"><polygon fill="transparent" points="100.5,614.93,110.5,604.93,794.5,604.93,794.5,719.91,784.5,729.91,100.5,729.91,100.5,614.93" style="stroke:#181818;stroke-width:1;"/><line style="stroke:#181818;stroke-width:1;" x1="784.5" x2="794.5" y1="614.93" y2="604.93"/><line style="stroke:#181818;stroke-width:1;" x1="100.5" x2="784.5" y1="614.93" y2="614.93"/><line style="stroke:#181818;stroke-width:1;" x1="784.5" x2="784.5" y1="614.93" y2="729.91"/><text fill="#000000" font-family="sans-serif" font-size="14" font-weight="bold" lengthAdjust="spacing" textLength="44.5498" x="421.2251" y="631.4652">sector</text></g><!--cluster standards--><g id="cluster_standards"><polygon fill="transparent" points="646.5,788.91,656.5,778.91,794.5,778.91,794.5,893.88,784.5,903.88,646.5,903.88,646.5,788.91" style="stroke:#181818;stroke-width:1;"/><line style="stroke:#181818;stroke-width:1;" x1="784.5" x2="794.5" y1="788.91" y2="778.91"/><line style="stroke:#181818;stroke-width:1;" x1="646.5" x2="784.5" y1="788.91" y2="788.91"/><line style="stroke:#181818;stroke-width:1;" x1="784.5" x2="784.5" y1="788.91" y2="903.88"/><text fill="#000000" font-family="sans-serif" font-size="14" font-weight="bold" lengthAdjust="spacing" textLength="72.0781" x="680.4609" y="805.4452">standards</text></g><!--class Process--><g id="elem_Process"><rect codeLine="9" fill="#F1F1F1" height="26.4883" id="Process" rx="2.5" ry="2.5" style="stroke:#181818;stroke-width:0.5;" width="57.3105" x="498.85" y="41"/><text fill="#000000" font-family="sans-serif" font-size="14" lengthAdjust="spacing" textLength="51.3105" x="501.85" y="59.5352">Process</text></g><!--class PersonalData--><g id="elem_PersonalData"><rect codeLine="10" fill="#F1F1F1" height="26.4883" id="PersonalData" rx="2.5" ry="2.5" style="stroke:#181818;stroke-width:0.5;" width="94.6553" x="281.18" y="144.49"/><text fill="#000000" font-family="sans-serif" font-size="14" lengthAdjust="spacing" textLength="88.6553" x="284.18" y="163.0252">PersonalData</text></g><!--class Risk--><g id="elem_Risk"><rect codeLine="11" fill="#F1F1F1" height="26.4883" id="Risk" rx="2.5" ry="2.5" style="stroke:#181818;stroke-width:0.5;" width="34.2188" x="458.39" y="144.49"/><text fill="#000000" font-family="sans-serif" font-size="14" lengthAdjust="spacing" textLength="28.2188" x="461.39" y="163.0252">Risk</text></g><!--class Technology--><g id="elem_Technology"><rect codeLine="12" fill="#F1F1F1" height="26.4883" id="Technology" rx="2.5" ry="2.5" style="stroke:#181818;stroke-width:0.5;" width="84.4902" x="689.26" y="144.49"/><text fill="#000000" font-family="sans-serif" font-size="14" lengthAdjust="spacing" textLength="78.4902" x="692.26" y="163.0252">Technology</text></g><!--class Location--><g id="elem_Location"><rect codeLine="13" fill="#F1F1F1" height="26.4883" id="Location" rx="2.5" ry="2.5" style="stroke:#181818;stroke-width:0.5;" width="63.5381" x="550.73" y="362.22"/><text fill="#000000" font-family="sans-serif" font-size="14" lengthAdjust="spacing" textLength="57.5381" x="553.73" y="380.7552">Location</text></g><!--class Law--><g id="elem_Law"><rect codeLine="14" fill="#F1F1F1" height="26.4883" id="Law" rx="2.5" ry="2.5" style="stroke:#181818;stroke-width:0.5;" width="31.9834" x="831.51" y="144.49"/><text fill="#000000" font-family="sans-serif" font-size="14" lengthAdjust="spacing" textLength="25.9834" x="834.51" y="163.0252">Law</text></g><!--class Justification--><g id="elem_Justification"><rect codeLine="15" fill="#F1F1F1" height="26.4883" id="Justification" rx="2.5" ry="2.5" style="stroke:#181818;stroke-width:0.5;" width="86.1309" x="153.44" y="144.49"/><text fill="#000000" font-family="sans-serif" font-size="14" lengthAdjust="spacing" textLength="80.1309" x="156.44" y="163.0252">Justification</text></g><!--class Data--><g id="elem_Data"><rect fill="#F1F1F1" height="26.4883" id="Data" rx="2.5" ry="2.5" style="stroke:#181818;stroke-width:0.5;" width="37.1855" x="1006.91" y="144.49"/><text fill="#000000" font-family="sans-serif" font-size="14" lengthAdjust="spacing" textLength="31.1855" x="1009.91" y="163.0252">Data</text></g><path d="M311.73,348.98 L331.2827,348.98 A3.75,3.75 0 0 1 333.7827,351.48 L340.7827,371.4683 L345.2827,371.4683 A2.5,2.5 0 0 1 347.7827,373.9683 L347.7827,399.4566 A2.5,2.5 0 0 1 345.2827,401.9566 L311.73,401.9566 A2.5,2.5 0 0 1 309.23,399.4566 L309.23,351.48 A2.5,2.5 0 0 1 311.73,348.98 " fill="#F1F1F1" style="stroke:#181818;stroke-width:0.5;"/><line style="stroke:#181818;stroke-width:0.5;" x1="309.23" x2="340.7827" y1="371.4683" y2="371.4683"/><text fill="#000000" font-family="sans-serif" font-size="14" font-weight="bold" lengthAdjust="spacing" textLength="18.5527" x="313.23" y="364.5152">pd</text><path d="M454.16,348.98 L482.8524,348.98 A3.75,3.75 0 0 1 485.3524,351.48 L492.3524,371.4683 L496.8524,371.4683 A2.5,2.5 0 0 1 499.3524,373.9683 L499.3524,399.4566 A2.5,2.5 0 0 1 496.8524,401.9566 L454.16,401.9566 A2.5,2.5 0 0 1 451.66,399.4566 L451.66,351.48 A2.5,2.5 0 0 1 454.16,348.98 " fill="#F1F1F1" style="stroke:#181818;stroke-width:0.5;"/><line style="stroke:#181818;stroke-width:0.5;" x1="451.66" x2="492.3524" y1="371.4683" y2="371.4683"/><text fill="#000000" font-family="sans-serif" font-size="14" font-weight="bold" lengthAdjust="spacing" textLength="27.6924" x="455.66" y="364.5152">risk</text><path d="M713.74,348.98 L745.2625,348.98 A3.75,3.75 0 0 1 747.7625,351.48 L754.7625,371.4683 L759.2625,371.4683 A2.5,2.5 0 0 1 761.7625,373.9683 L761.7625,399.4566 A2.5,2.5 0 0 1 759.2625,401.9566 L713.74,401.9566 A2.5,2.5 0 0 1 711.24,399.4566 L711.24,351.48 A2.5,2.5 0 0 1 713.74,348.98 " fill="#F1F1F1" style="stroke:#181818;stroke-width:0.5;"/><line style="stroke:#181818;stroke-width:0.5;" x1="711.24" x2="754.7625" y1="371.4683" y2="371.4683"/><text fill="#000000" font-family="sans-serif" font-size="14" font-weight="bold" lengthAdjust="spacing" textLength="30.5225" x="715.24" y="364.5152">tech</text><path d="M141.85,348.98 L237.1654,348.98 A3.75,3.75 0 0 1 239.6654,351.48 L246.6654,371.4683 L251.1654,371.4683 A2.5,2.5 0 0 1 253.6654,373.9683 L253.6654,399.4566 A2.5,2.5 0 0 1 251.1654,401.9566 L141.85,401.9566 A2.5,2.5 0 0 1 139.35,399.4566 L139.35,351.48 A2.5,2.5 0 0 1 141.85,348.98 " fill="#F1F1F1" style="stroke:#181818;stroke-width:0.5;"/><line style="stroke:#181818;stroke-width:0.5;" x1="139.35" x2="246.6654" y1="371.4683" y2="371.4683"/><text fill="#000000" font-family="sans-serif" font-size="14" font-weight="bold" lengthAdjust="spacing" textLength="94.3154" x="143.35" y="364.5152">justifications</text><path d="M639.53,496.95 L661.4753,496.95 A3.75,3.75 0 0 1 663.9753,499.45 L670.9753,519.4383 L675.4753,519.4383 A2.5,2.5 0 0 1 677.9753,521.9383 L677.9753,547.4266 A2.5,2.5 0 0 1 675.4753,549.9266 L639.53,549.9266 A2.5,2.5 0 0 1 637.03,547.4266 L637.03,499.45 A2.5,2.5 0 0 1 639.53,496.95 " fill="#F1F1F1" style="stroke:#181818;stroke-width:0.5;"/><line style="stroke:#181818;stroke-width:0.5;" x1="637.03" x2="670.9753" y1="519.4383" y2="519.4383"/><text fill="#000000" font-family="sans-serif" font-size="14" font-weight="bold" lengthAdjust="spacing" textLength="20.9453" x="641.03" y="512.4852">loc</text><path d="M772.61,496.95 L786.3932,496.95 A3.75,3.75 0 0 1 788.8932,499.45 L795.8932,519.4383 L800.3932,519.4383 A2.5,2.5 0 0 1 802.8932,521.9383 L802.8932,547.4266 A2.5,2.5 0 0 1 800.3932,549.9266 L772.61,549.9266 A2.5,2.5 0 0 1 770.11,547.4266 L770.11,499.45 A2.5,2.5 0 0 1 772.61,496.95 " fill="#F1F1F1" style="stroke:#181818;stroke-width:0.5;"/><line style="stroke:#181818;stroke-width:0.5;" x1="770.11" x2="795.8932" y1="519.4383" y2="519.4383"/><text fill="#000000" font-family="sans-serif" font-size="14" font-weight="bold" lengthAdjust="spacing" textLength="12.7832" x="774.11" y="512.4852">ai</text><path d="M908.93,348.98 L944.0687,348.98 A3.75,3.75 0 0 1 946.5687,351.48 L953.5687,371.4683 L958.0687,371.4683 A2.5,2.5 0 0 1 960.5687,373.9683 L960.5687,399.4566 A2.5,2.5 0 0 1 958.0687,401.9566 L908.93,401.9566 A2.5,2.5 0 0 1 906.43,399.4566 L906.43,351.48 A2.5,2.5 0 0 1 908.93,348.98 " fill="#F1F1F1" style="stroke:#181818;stroke-width:0.5;"/><line style="stroke:#181818;stroke-width:0.5;" x1="906.43" x2="953.5687" y1="371.4683" y2="371.4683"/><text fill="#000000" font-family="sans-serif" font-size="14" font-weight="bold" lengthAdjust="spacing" textLength="34.1387" x="910.43" y="364.5152">aiact</text><path d="M997.63,348.98 L1025.3722,348.98 A3.75,3.75 0 0 1 1027.8722,351.48 L1034.8722,371.4683 L1039.3722,371.4683 A2.5,2.5 0 0 1 1041.8722,373.9683 L1041.8722,399.4566 A2.5,2.5 0 0 1 1039.3722,401.9566 L997.63,401.9566 A2.5,2.5 0 0 1 995.13,399.4566 L995.13,351.48 A2.5,2.5 0 0 1 997.63,348.98 " fill="#F1F1F1" style="stroke:#181818;stroke-width:0.5;"/><line style="stroke:#181818;stroke-width:0.5;" x1="995.13" x2="1034.8722" y1="371.4683" y2="371.4683"/><text fill="#000000" font-family="sans-serif" font-size="14" font-weight="bold" lengthAdjust="spacing" textLength="26.7422" x="999.13" y="364.5152">dga</text><path d="M1078.93,348.98 L1114.0823,348.98 A3.75,3.75 0 0 1 1116.5823,351.48 L1123.5823,371.4683 L1128.0823,371.4683 A2.5,2.5 0 0 1 1130.5823,373.9683 L1130.5823,399.4566 A2.5,2.5 0 0 1 1128.0823,401.9566 L1078.93,401.9566 A2.5,2.5 0 0 1 1076.43,399.4566 L1076.43,351.48 A2.5,2.5 0 0 1 1078.93,348.98 " fill="#F1F1F1" style="stroke:#181818;stroke-width:0.5;"/><line style="stroke:#181818;stroke-width:0.5;" x1="1076.43" x2="1123.5823" y1="371.4683" y2="371.4683"/><text fill="#000000" font-family="sans-serif" font-size="14" font-weight="bold" lengthAdjust="spacing" textLength="34.1523" x="1080.43" y="364.5152">gdpr</text><path d="M1168.55,348.98 L1200.4484,348.98 A3.75,3.75 0 0 1 1202.9484,351.48 L1209.9484,371.4683 L1214.4484,371.4683 A2.5,2.5 0 0 1 1216.9484,373.9683 L1216.9484,399.4566 A2.5,2.5 0 0 1 1214.4484,401.9566 L1168.55,401.9566 A2.5,2.5 0 0 1 1166.05,399.4566 L1166.05,351.48 A2.5,2.5 0 0 1 1168.55,348.98 " fill="#F1F1F1" style="stroke:#181818;stroke-width:0.5;"/><line style="stroke:#181818;stroke-width:0.5;" x1="1166.05" x2="1209.9484" y1="371.4683" y2="371.4683"/><text fill="#000000" font-family="sans-serif" font-size="14" font-weight="bold" lengthAdjust="spacing" textLength="30.8984" x="1170.05" y="364.5152">nis2</text><path d="M1254.53,348.98 L1298.4665,348.98 A3.75,3.75 0 0 1 1300.9665,351.48 L1307.9665,371.4683 L1312.4665,371.4683 A2.5,2.5 0 0 1 1314.9665,373.9683 L1314.9665,399.4566 A2.5,2.5 0 0 1 1312.4665,401.9566 L1254.53,401.9566 A2.5,2.5 0 0 1 1252.03,399.4566 L1252.03,351.48 A2.5,2.5 0 0 1 1254.53,348.98 " fill="#F1F1F1" style="stroke:#181818;stroke-width:0.5;"/><line style="stroke:#181818;stroke-width:0.5;" x1="1252.03" x2="1307.9665" y1="371.4683" y2="371.4683"/><text fill="#000000" font-family="sans-serif" font-size="14" font-weight="bold" lengthAdjust="spacing" textLength="42.9365" x="1256.03" y="364.5152">rights</text><path d="M1352.71,348.98 L1388.2998,348.98 A3.75,3.75 0 0 1 1390.7998,351.48 L1397.7998,371.4683 L1402.2998,371.4683 A2.5,2.5 0 0 1 1404.7998,373.9683 L1404.7998,399.4566 A2.5,2.5 0 0 1 1402.2998,401.9566 L1352.71,401.9566 A2.5,2.5 0 0 1 1350.21,399.4566 L1350.21,351.48 A2.5,2.5 0 0 1 1352.71,348.98 " fill="#F1F1F1" style="stroke:#181818;stroke-width:0.5;"/><line style="stroke:#181818;stroke-width:0.5;" x1="1350.21" x2="1397.7998" y1="371.4683" y2="371.4683"/><text fill="#000000" font-family="sans-serif" font-size="14" font-weight="bold" lengthAdjust="spacing" textLength="34.5898" x="1354.21" y="364.5152">ehds</text><path d="M899.05,496.95 L913.9543,496.95 A3.75,3.75 0 0 1 916.4543,499.45 L923.4543,519.4383 L927.9543,519.4383 A2.5,2.5 0 0 1 930.4543,521.9383 L930.4543,547.4266 A2.5,2.5 0 0 1 927.9543,549.9266 L899.05,549.9266 A2.5,2.5 0 0 1 896.55,547.4266 L896.55,499.45 A2.5,2.5 0 0 1 899.05,496.95 " fill="#F1F1F1" style="stroke:#181818;stroke-width:0.5;"/><line style="stroke:#181818;stroke-width:0.5;" x1="896.55" x2="923.4543" y1="519.4383" y2="519.4383"/><text fill="#000000" font-family="sans-serif" font-size="14" font-weight="bold" lengthAdjust="spacing" textLength="13.9043" x="900.55" y="512.4852">at</text><path d="M968.26,496.95 L986.7395,496.95 A3.75,3.75 0 0 1 989.2395,499.45 L996.2395,519.4383 L1000.7395,519.4383 A2.5,2.5 0 0 1 1003.2395,521.9383 L1003.2395,547.4266 A2.5,2.5 0 0 1 1000.7395,549.9266 L968.26,549.9266 A2.5,2.5 0 0 1 965.76,547.4266 L965.76,499.45 A2.5,2.5 0 0 1 968.26,496.95 " fill="#F1F1F1" style="stroke:#181818;stroke-width:0.5;"/><line style="stroke:#181818;stroke-width:0.5;" x1="965.76" x2="996.2395" y1="519.4383" y2="519.4383"/><text fill="#000000" font-family="sans-serif" font-size="14" font-weight="bold" lengthAdjust="spacing" textLength="17.4795" x="969.76" y="512.4852">be</text><path d="M1040.75,496.95 L1060.2617,496.95 A3.75,3.75 0 0 1 1062.7617,499.45 L1069.7617,519.4383 L1074.2617,519.4383 A2.5,2.5 0 0 1 1076.7617,521.9383 L1076.7617,547.4266 A2.5,2.5 0 0 1 1074.2617,549.9266 L1040.75,549.9266 A2.5,2.5 0 0 1 1038.25,547.4266 L1038.25,499.45 A2.5,2.5 0 0 1 1040.75,496.95 " fill="#F1F1F1" style="stroke:#181818;stroke-width:0.5;"/><line style="stroke:#181818;stroke-width:0.5;" x1="1038.25" x2="1069.7617" y1="519.4383" y2="519.4383"/><text fill="#000000" font-family="sans-serif" font-size="14" font-weight="bold" lengthAdjust="spacing" textLength="18.5117" x="1042.25" y="512.4852">bg</text><path d="M1114.2,496.95 L1130.8133,496.95 A3.75,3.75 0 0 1 1133.3133,499.45 L1140.3133,519.4383 L1144.8133,519.4383 A2.5,2.5 0 0 1 1147.3133,521.9383 L1147.3133,547.4266 A2.5,2.5 0 0 1 1144.8133,549.9266 L1114.2,549.9266 A2.5,2.5 0 0 1 1111.7,547.4266 L1111.7,499.45 A2.5,2.5 0 0 1 1114.2,496.95 " fill="#F1F1F1" style="stroke:#181818;stroke-width:0.5;"/><line style="stroke:#181818;stroke-width:0.5;" x1="1111.7" x2="1140.3133" y1="519.4383" y2="519.4383"/><text fill="#000000" font-family="sans-serif" font-size="14" font-weight="bold" lengthAdjust="spacing" textLength="15.6133" x="1115.7" y="512.4852">cy</text><path d="M1185.14,496.95 L1201.8627,496.95 A3.75,3.75 0 0 1 1204.3627,499.45 L1211.3627,519.4383 L1215.8627,519.4383 A2.5,2.5 0 0 1 1218.3627,521.9383 L1218.3627,547.4266 A2.5,2.5 0 0 1 1215.8627,549.9266 L1185.14,549.9266 A2.5,2.5 0 0 1 1182.64,547.4266 L1182.64,499.45 A2.5,2.5 0 0 1 1185.14,496.95 " fill="#F1F1F1" style="stroke:#181818;stroke-width:0.5;"/><line style="stroke:#181818;stroke-width:0.5;" x1="1182.64" x2="1211.3627" y1="519.4383" y2="519.4383"/><text fill="#000000" font-family="sans-serif" font-size="14" font-weight="bold" lengthAdjust="spacing" textLength="15.7227" x="1186.64" y="512.4852">cz</text><path d="M1256.26,496.95 L1274.7395,496.95 A3.75,3.75 0 0 1 1277.2395,499.45 L1284.2395,519.4383 L1288.7395,519.4383 A2.5,2.5 0 0 1 1291.2395,521.9383 L1291.2395,547.4266 A2.5,2.5 0 0 1 1288.7395,549.9266 L1256.26,549.9266 A2.5,2.5 0 0 1 1253.76,547.4266 L1253.76,499.45 A2.5,2.5 0 0 1 1256.26,496.95 " fill="#F1F1F1" style="stroke:#181818;stroke-width:0.5;"/><line style="stroke:#181818;stroke-width:0.5;" x1="1253.76" x2="1284.2395" y1="519.4383" y2="519.4383"/><text fill="#000000" font-family="sans-serif" font-size="14" font-weight="bold" lengthAdjust="spacing" textLength="17.4795" x="1257.76" y="512.4852">de</text><path d="M1328.94,496.95 L1348.0757,496.95 A3.75,3.75 0 0 1 1350.5757,499.45 L1357.5757,519.4383 L1362.0757,519.4383 A2.5,2.5 0 0 1 1364.5757,521.9383 L1364.5757,547.4266 A2.5,2.5 0 0 1 1362.0757,549.9266 L1328.94,549.9266 A2.5,2.5 0 0 1 1326.44,547.4266 L1326.44,499.45 A2.5,2.5 0 0 1 1328.94,496.95 " fill="#F1F1F1" style="stroke:#181818;stroke-width:0.5;"/><line style="stroke:#181818;stroke-width:0.5;" x1="1326.44" x2="1357.5757" y1="519.4383" y2="519.4383"/><text fill="#000000" font-family="sans-serif" font-size="14" font-weight="bold" lengthAdjust="spacing" textLength="18.1357" x="1330.44" y="512.4852">dk</text><path d="M1401.8,496.95 L1419.2063,496.95 A3.75,3.75 0 0 1 1421.7063,499.45 L1428.7063,519.4383 L1433.2063,519.4383 A2.5,2.5 0 0 1 1435.7063,521.9383 L1435.7063,547.4266 A2.5,2.5 0 0 1 1433.2063,549.9266 L1401.8,549.9266 A2.5,2.5 0 0 1 1399.3,547.4266 L1399.3,499.45 A2.5,2.5 0 0 1 1401.8,496.95 " fill="#F1F1F1" style="stroke:#181818;stroke-width:0.5;"/><line style="stroke:#181818;stroke-width:0.5;" x1="1399.3" x2="1428.7063" y1="519.4383" y2="519.4383"/><text fill="#000000" font-family="sans-serif" font-size="14" font-weight="bold" lengthAdjust="spacing" textLength="16.4063" x="1403.3" y="512.4852">ee</text><path d="M905.94,652.93 L923.0591,652.93 A3.75,3.75 0 0 1 925.5591,655.43 L932.5591,675.4183 L937.0591,675.4183 A2.5,2.5 0 0 1 939.5591,677.9183 L939.5591,703.4066 A2.5,2.5 0 0 1 937.0591,705.9066 L905.94,705.9066 A2.5,2.5 0 0 1 903.44,703.4066 L903.44,655.43 A2.5,2.5 0 0 1 905.94,652.93 " fill="#F1F1F1" style="stroke:#181818;stroke-width:0.5;"/><line style="stroke:#181818;stroke-width:0.5;" x1="903.44" x2="932.5591" y1="675.4183" y2="675.4183"/><text fill="#000000" font-family="sans-serif" font-size="14" font-weight="bold" lengthAdjust="spacing" textLength="16.1191" x="907.44" y="668.4652">es</text><path d="M976.82,652.93 L988.1764,652.93 A3.75,3.75 0 0 1 990.6764,655.43 L997.6764,675.4183 L1002.1764,675.4183 A2.5,2.5 0 0 1 1004.6764,677.9183 L1004.6764,703.4066 A2.5,2.5 0 0 1 1002.1764,705.9066 L976.82,705.9066 A2.5,2.5 0 0 1 974.32,703.4066 L974.32,655.43 A2.5,2.5 0 0 1 976.82,652.93 " fill="#F1F1F1" style="stroke:#181818;stroke-width:0.5;"/><line style="stroke:#181818;stroke-width:0.5;" x1="974.32" x2="997.6764" y1="675.4183" y2="675.4183"/><text fill="#000000" font-family="sans-serif" font-size="14" font-weight="bold" lengthAdjust="spacing" textLength="10.3564" x="978.32" y="668.4652">fi</text><path d="M1041.92,652.93 L1055.088,652.93 A3.75,3.75 0 0 1 1057.588,655.43 L1064.588,675.4183 L1069.088,675.4183 A2.5,2.5 0 0 1 1071.588,677.9183 L1071.588,703.4066 A2.5,2.5 0 0 1 1069.088,705.9066 L1041.92,705.9066 A2.5,2.5 0 0 1 1039.42,703.4066 L1039.42,655.43 A2.5,2.5 0 0 1 1041.92,652.93 " fill="#F1F1F1" style="stroke:#181818;stroke-width:0.5;"/><line style="stroke:#181818;stroke-width:0.5;" x1="1039.42" x2="1064.588" y1="675.4183" y2="675.4183"/><text fill="#000000" font-family="sans-serif" font-size="14" font-weight="bold" lengthAdjust="spacing" textLength="12.168" x="1043.42" y="668.4652">fr</text><path d="M1108.75,652.93 L1128.2617,652.93 A3.75,3.75 0 0 1 1130.7617,655.43 L1137.7617,675.4183 L1142.2617,675.4183 A2.5,2.5 0 0 1 1144.7617,677.9183 L1144.7617,703.4066 A2.5,2.5 0 0 1 1142.2617,705.9066 L1108.75,705.9066 A2.5,2.5 0 0 1 1106.25,703.4066 L1106.25,655.43 A2.5,2.5 0 0 1 1108.75,652.93 " fill="#F1F1F1" style="stroke:#181818;stroke-width:0.5;"/><line style="stroke:#181818;stroke-width:0.5;" x1="1106.25" x2="1137.7617" y1="675.4183" y2="675.4183"/><text fill="#000000" font-family="sans-serif" font-size="14" font-weight="bold" lengthAdjust="spacing" textLength="18.5117" x="1110.25" y="668.4652">gb</text><path d="M1182.2,652.93 L1198.7996,652.93 A3.75,3.75 0 0 1 1201.2996,655.43 L1208.2996,675.4183 L1212.7996,675.4183 A2.5,2.5 0 0 1 1215.2996,677.9183 L1215.2996,703.4066 A2.5,2.5 0 0 1 1212.7996,705.9066 L1182.2,705.9066 A2.5,2.5 0 0 1 1179.7,703.4066 L1179.7,655.43 A2.5,2.5 0 0 1 1182.2,652.93 " fill="#F1F1F1" style="stroke:#181818;stroke-width:0.5;"/><line style="stroke:#181818;stroke-width:0.5;" x1="1179.7" x2="1208.2996" y1="675.4183" y2="675.4183"/><text fill="#000000" font-family="sans-serif" font-size="14" font-weight="bold" lengthAdjust="spacing" textLength="15.5996" x="1183.7" y="668.4652">gr</text><path d="M1253.22,652.93 L1269.7786,652.93 A3.75,3.75 0 0 1 1272.2786,655.43 L1279.2786,675.4183 L1283.7786,675.4183 A2.5,2.5 0 0 1 1286.2786,677.9183 L1286.2786,703.4066 A2.5,2.5 0 0 1 1283.7786,705.9066 L1253.22,705.9066 A2.5,2.5 0 0 1 1250.72,703.4066 L1250.72,655.43 A2.5,2.5 0 0 1 1253.22,652.93 " fill="#F1F1F1" style="stroke:#181818;stroke-width:0.5;"/><line style="stroke:#181818;stroke-width:0.5;" x1="1250.72" x2="1279.2786" y1="675.4183" y2="675.4183"/><text fill="#000000" font-family="sans-serif" font-size="14" font-weight="bold" lengthAdjust="spacing" textLength="15.5586" x="1254.72" y="668.4652">hr</text><path d="M1323.81,652.93 L1343.1987,652.93 A3.75,3.75 0 0 1 1345.6987,655.43 L1352.6987,675.4183 L1357.1987,675.4183 A2.5,2.5 0 0 1 1359.6987,677.9183 L1359.6987,703.4066 A2.5,2.5 0 0 1 1357.1987,705.9066 L1323.81,705.9066 A2.5,2.5 0 0 1 1321.31,703.4066 L1321.31,655.43 A2.5,2.5 0 0 1 1323.81,652.93 " fill="#F1F1F1" style="stroke:#181818;stroke-width:0.5;"/><line style="stroke:#181818;stroke-width:0.5;" x1="1321.31" x2="1352.6987" y1="675.4183" y2="675.4183"/><text fill="#000000" font-family="sans-serif" font-size="14" font-weight="bold" lengthAdjust="spacing" textLength="18.3887" x="1325.31" y="668.4652">hu</text><path d="M1397.63,652.93 L1411.3859,652.93 A3.75,3.75 0 0 1 1413.8859,655.43 L1420.8859,675.4183 L1425.3859,675.4183 A2.5,2.5 0 0 1 1427.8859,677.9183 L1427.8859,703.4066 A2.5,2.5 0 0 1 1425.3859,705.9066 L1397.63,705.9066 A2.5,2.5 0 0 1 1395.13,703.4066 L1395.13,655.43 A2.5,2.5 0 0 1 1397.63,652.93 " fill="#F1F1F1" style="stroke:#181818;stroke-width:0.5;"/><line style="stroke:#181818;stroke-width:0.5;" x1="1395.13" x2="1420.8859" y1="675.4183" y2="675.4183"/><text fill="#000000" font-family="sans-serif" font-size="14" font-weight="bold" lengthAdjust="spacing" textLength="12.7559" x="1399.13" y="668.4652">ie</text><path d="M915.13,826.91 L929.8771,826.91 A3.75,3.75 0 0 1 932.3771,829.41 L939.3771,849.3983 L943.8771,849.3983 A2.5,2.5 0 0 1 946.3771,851.8983 L946.3771,877.3866 A2.5,2.5 0 0 1 943.8771,879.8866 L915.13,879.8866 A2.5,2.5 0 0 1 912.63,877.3866 L912.63,829.41 A2.5,2.5 0 0 1 915.13,826.91 " fill="#F1F1F1" style="stroke:#181818;stroke-width:0.5;"/><line style="stroke:#181818;stroke-width:0.5;" x1="912.63" x2="939.3771" y1="849.3983" y2="849.3983"/><text fill="#000000" font-family="sans-serif" font-size="14" font-weight="bold" lengthAdjust="spacing" textLength="13.7471" x="916.63" y="842.4452">in</text><path d="M983.77,826.91 L997.2388,826.91 A3.75,3.75 0 0 1 999.7388,829.41 L1006.7388,849.3983 L1011.2388,849.3983 A2.5,2.5 0 0 1 1013.7388,851.8983 L1013.7388,877.3866 A2.5,2.5 0 0 1 1011.2388,879.8866 L983.77,879.8866 A2.5,2.5 0 0 1 981.27,877.3866 L981.27,829.41 A2.5,2.5 0 0 1 983.77,826.91 " fill="#F1F1F1" style="stroke:#181818;stroke-width:0.5;"/><line style="stroke:#181818;stroke-width:0.5;" x1="981.27" x2="1006.7388" y1="849.3983" y2="849.3983"/><text fill="#000000" font-family="sans-serif" font-size="14" font-weight="bold" lengthAdjust="spacing" textLength="12.4688" x="985.27" y="842.4452">is</text><path d="M1050.89,826.91 L1062.1166,826.91 A3.75,3.75 0 0 1 1064.6166,829.41 L1071.6166,849.3983 L1076.1166,849.3983 A2.5,2.5 0 0 1 1078.6166,851.8983 L1078.6166,877.3866 A2.5,2.5 0 0 1 1076.1166,879.8866 L1050.89,879.8866 A2.5,2.5 0 0 1 1048.39,877.3866 L1048.39,829.41 A2.5,2.5 0 0 1 1050.89,826.91 " fill="#F1F1F1" style="stroke:#181818;stroke-width:0.5;"/><line style="stroke:#181818;stroke-width:0.5;" x1="1048.39" x2="1071.6166" y1="849.3983" y2="849.3983"/><text fill="#000000" font-family="sans-serif" font-size="14" font-weight="bold" lengthAdjust="spacing" textLength="10.2266" x="1052.39" y="842.4452">it</text><path d="M1116.45,826.91 L1126.5555,826.91 A3.75,3.75 0 0 1 1129.0555,829.41 L1136.0555,849.3983 L1140.5555,849.3983 A2.5,2.5 0 0 1 1143.0555,851.8983 L1143.0555,877.3866 A2.5,2.5 0 0 1 1140.5555,879.8866 L1116.45,879.8866 A2.5,2.5 0 0 1 1113.95,877.3866 L1113.95,829.41 A2.5,2.5 0 0 1 1116.45,826.91 " fill="#F1F1F1" style="stroke:#181818;stroke-width:0.5;"/><line style="stroke:#181818;stroke-width:0.5;" x1="1113.95" x2="1136.0555" y1="849.3983" y2="849.3983"/><text fill="#000000" font-family="sans-serif" font-size="14" font-weight="bold" lengthAdjust="spacing" textLength="9.1055" x="1117.95" y="842.4452">li</text><path d="M1180.89,826.91 L1192.1166,826.91 A3.75,3.75 0 0 1 1194.6166,829.41 L1201.6166,849.3983 L1206.1166,849.3983 A2.5,2.5 0 0 1 1208.6166,851.8983 L1208.6166,877.3866 A2.5,2.5 0 0 1 1206.1166,879.8866 L1180.89,879.8866 A2.5,2.5 0 0 1 1178.39,877.3866 L1178.39,829.41 A2.5,2.5 0 0 1 1180.89,826.91 " fill="#F1F1F1" style="stroke:#181818;stroke-width:0.5;"/><line style="stroke:#181818;stroke-width:0.5;" x1="1178.39" x2="1201.6166" y1="849.3983" y2="849.3983"/><text fill="#000000" font-family="sans-serif" font-size="14" font-weight="bold" lengthAdjust="spacing" textLength="10.2266" x="1182.39" y="842.4452">lt</text><path d="M1246.13,826.91 L1260.8771,826.91 A3.75,3.75 0 0 1 1263.3771,829.41 L1270.3771,849.3983 L1274.8771,849.3983 A2.5,2.5 0 0 1 1277.3771,851.8983 L1277.3771,877.3866 A2.5,2.5 0 0 1 1274.8771,879.8866 L1246.13,879.8866 A2.5,2.5 0 0 1 1243.63,877.3866 L1243.63,829.41 A2.5,2.5 0 0 1 1246.13,826.91 " fill="#F1F1F1" style="stroke:#181818;stroke-width:0.5;"/><line style="stroke:#181818;stroke-width:0.5;" x1="1243.63" x2="1270.3771" y1="849.3983" y2="849.3983"/><text fill="#000000" font-family="sans-serif" font-size="14" font-weight="bold" lengthAdjust="spacing" textLength="13.7471" x="1247.63" y="842.4452">lu</text><path d="M1314.57,826.91 L1328.4284,826.91 A3.75,3.75 0 0 1 1330.9284,829.41 L1337.9284,849.3983 L1342.4284,849.3983 A2.5,2.5 0 0 1 1344.9284,851.8983 L1344.9284,877.3866 A2.5,2.5 0 0 1 1342.4284,879.8866 L1314.57,879.8866 A2.5,2.5 0 0 1 1312.07,877.3866 L1312.07,829.41 A2.5,2.5 0 0 1 1314.57,826.91 " fill="#F1F1F1" style="stroke:#181818;stroke-width:0.5;"/><line style="stroke:#181818;stroke-width:0.5;" x1="1312.07" x2="1337.9284" y1="849.3983" y2="849.3983"/><text fill="#000000" font-family="sans-serif" font-size="14" font-weight="bold" lengthAdjust="spacing" textLength="12.8584" x="1316.07" y="842.4452">lv</text><path d="M1382.38,826.91 L1402.63,826.91 A3.75,3.75 0 0 1 1405.13,829.41 L1412.13,849.3983 L1416.63,849.3983 A2.5,2.5 0 0 1 1419.13,851.8983 L1419.13,877.3866 A2.5,2.5 0 0 1 1416.63,879.8866 L1382.38,879.8866 A2.5,2.5 0 0 1 1379.88,877.3866 L1379.88,829.41 A2.5,2.5 0 0 1 1382.38,826.91 " fill="#F1F1F1" style="stroke:#181818;stroke-width:0.5;"/><line style="stroke:#181818;stroke-width:0.5;" x1="1379.88" x2="1412.13" y1="849.3983" y2="849.3983"/><text fill="#000000" font-family="sans-serif" font-size="14" font-weight="bold" lengthAdjust="spacing" textLength="19.25" x="1383.88" y="842.4452">mt</text><path d="M869.13,958.88 L883.8771,958.88 A3.75,3.75 0 0 1 886.3771,961.38 L893.3771,981.3683 L897.8771,981.3683 A2.5,2.5 0 0 1 900.3771,983.8683 L900.3771,1009.3566 A2.5,2.5 0 0 1 897.8771,1011.8566 L869.13,1011.8566 A2.5,2.5 0 0 1 866.63,1009.3566 L866.63,961.38 A2.5,2.5 0 0 1 869.13,958.88 " fill="#F1F1F1" style="stroke:#181818;stroke-width:0.5;"/><line style="stroke:#181818;stroke-width:0.5;" x1="866.63" x2="893.3771" y1="981.3683" y2="981.3683"/><text fill="#000000" font-family="sans-serif" font-size="14" font-weight="bold" lengthAdjust="spacing" textLength="13.7471" x="870.63" y="974.4152">nl</text><path d="M937.94,958.88 L957.0757,958.88 A3.75,3.75 0 0 1 959.5757,961.38 L966.5757,981.3683 L971.0757,981.3683 A2.5,2.5 0 0 1 973.5757,983.8683 L973.5757,1009.3566 A2.5,2.5 0 0 1 971.0757,1011.8566 L937.94,1011.8566 A2.5,2.5 0 0 1 935.44,1009.3566 L935.44,961.38 A2.5,2.5 0 0 1 937.94,958.88 " fill="#F1F1F1" style="stroke:#181818;stroke-width:0.5;"/><line style="stroke:#181818;stroke-width:0.5;" x1="935.44" x2="966.5757" y1="981.3683" y2="981.3683"/><text fill="#000000" font-family="sans-serif" font-size="14" font-weight="bold" lengthAdjust="spacing" textLength="18.1357" x="939.44" y="974.4152">no</text><path d="M1011.09,958.88 L1025.9191,958.88 A3.75,3.75 0 0 1 1028.4191,961.38 L1035.4191,981.3683 L1039.9191,981.3683 A2.5,2.5 0 0 1 1042.4191,983.8683 L1042.4191,1009.3566 A2.5,2.5 0 0 1 1039.9191,1011.8566 L1011.09,1011.8566 A2.5,2.5 0 0 1 1008.59,1009.3566 L1008.59,961.38 A2.5,2.5 0 0 1 1011.09,958.88 " fill="#F1F1F1" style="stroke:#181818;stroke-width:0.5;"/><line style="stroke:#181818;stroke-width:0.5;" x1="1008.59" x2="1035.4191" y1="981.3683" y2="981.3683"/><text fill="#000000" font-family="sans-serif" font-size="14" font-weight="bold" lengthAdjust="spacing" textLength="13.8291" x="1012.59" y="974.4152">pl</text><path d="M1079.53,958.88 L1095.4802,958.88 A3.75,3.75 0 0 1 1097.9802,961.38 L1104.9802,981.3683 L1109.4802,981.3683 A2.5,2.5 0 0 1 1111.9802,983.8683 L1111.9802,1009.3566 A2.5,2.5 0 0 1 1109.4802,1011.8566 L1079.53,1011.8566 A2.5,2.5 0 0 1 1077.03,1009.3566 L1077.03,961.38 A2.5,2.5 0 0 1 1079.53,958.88 " fill="#F1F1F1" style="stroke:#181818;stroke-width:0.5;"/><line style="stroke:#181818;stroke-width:0.5;" x1="1077.03" x2="1104.9802" y1="981.3683" y2="981.3683"/><text fill="#000000" font-family="sans-serif" font-size="14" font-weight="bold" lengthAdjust="spacing" textLength="14.9502" x="1081.03" y="974.4152">pt</text><path d="M1149.35,958.88 L1165.6557,958.88 A3.75,3.75 0 0 1 1168.1557,961.38 L1175.1557,981.3683 L1179.6557,981.3683 A2.5,2.5 0 0 1 1182.1557,983.8683 L1182.1557,1009.3566 A2.5,2.5 0 0 1 1179.6557,1011.8566 L1149.35,1011.8566 A2.5,2.5 0 0 1 1146.85,1009.3566 L1146.85,961.38 A2.5,2.5 0 0 1 1149.35,958.88 " fill="#F1F1F1" style="stroke:#181818;stroke-width:0.5;"/><line style="stroke:#181818;stroke-width:0.5;" x1="1146.85" x2="1175.1557" y1="981.3683" y2="981.3683"/><text fill="#000000" font-family="sans-serif" font-size="14" font-weight="bold" lengthAdjust="spacing" textLength="15.3057" x="1150.85" y="974.4152">ro</text><path d="M1219.94,958.88 L1237.0591,958.88 A3.75,3.75 0 0 1 1239.5591,961.38 L1246.5591,981.3683 L1251.0591,981.3683 A2.5,2.5 0 0 1 1253.5591,983.8683 L1253.5591,1009.3566 A2.5,2.5 0 0 1 1251.0591,1011.8566 L1219.94,1011.8566 A2.5,2.5 0 0 1 1217.44,1009.3566 L1217.44,961.38 A2.5,2.5 0 0 1 1219.94,958.88 " fill="#F1F1F1" style="stroke:#181818;stroke-width:0.5;"/><line style="stroke:#181818;stroke-width:0.5;" x1="1217.44" x2="1246.5591" y1="981.3683" y2="981.3683"/><text fill="#000000" font-family="sans-serif" font-size="14" font-weight="bold" lengthAdjust="spacing" textLength="16.1191" x="1221.44" y="974.4152">se</text><path d="M1290.77,958.88 L1304.2388,958.88 A3.75,3.75 0 0 1 1306.7388,961.38 L1313.7388,981.3683 L1318.2388,981.3683 A2.5,2.5 0 0 1 1320.7388,983.8683 L1320.7388,1009.3566 A2.5,2.5 0 0 1 1318.2388,1011.8566 L1290.77,1011.8566 A2.5,2.5 0 0 1 1288.27,1009.3566 L1288.27,961.38 A2.5,2.5 0 0 1 1290.77,958.88 " fill="#F1F1F1" style="stroke:#181818;stroke-width:0.5;"/><line style="stroke:#181818;stroke-width:0.5;" x1="1288.27" x2="1313.7388" y1="981.3683" y2="981.3683"/><text fill="#000000" font-family="sans-serif" font-size="14" font-weight="bold" lengthAdjust="spacing" textLength="12.4688" x="1292.27" y="974.4152">si</text><path d="M1358.62,958.88 L1376.3954,958.88 A3.75,3.75 0 0 1 1378.8954,961.38 L1385.8954,981.3683 L1390.3954,981.3683 A2.5,2.5 0 0 1 1392.8954,983.8683 L1392.8954,1009.3566 A2.5,2.5 0 0 1 1390.3954,1011.8566 L1358.62,1011.8566 A2.5,2.5 0 0 1 1356.12,1009.3566 L1356.12,961.38 A2.5,2.5 0 0 1 1358.62,958.88 " fill="#F1F1F1" style="stroke:#181818;stroke-width:0.5;"/><line style="stroke:#181818;stroke-width:0.5;" x1="1356.12" x2="1385.8954" y1="981.3683" y2="981.3683"/><text fill="#000000" font-family="sans-serif" font-size="14" font-weight="bold" lengthAdjust="spacing" textLength="16.7754" x="1360.12" y="974.4152">sk</text><path d="M1430.45,958.88 L1448.5604,958.88 A3.75,3.75 0 0 1 1451.0604,961.38 L1458.0604,981.3683 L1462.5604,981.3683 A2.5,2.5 0 0 1 1465.0604,983.8683 L1465.0604,1009.3566 A2.5,2.5 0 0 1 1462.5604,1011.8566 L1430.45,1011.8566 A2.5,2.5 0 0 1 1427.95,1009.3566 L1427.95,961.38 A2.5,2.5 0 0 1 1430.45,958.88 " fill="#F1F1F1" style="stroke:#181818;stroke-width:0.5;"/><line style="stroke:#181818;stroke-width:0.5;" x1="1427.95" x2="1458.0604" y1="981.3683" y2="981.3683"/><text fill="#000000" font-family="sans-serif" font-size="14" font-weight="bold" lengthAdjust="spacing" textLength="17.1104" x="1431.95" y="974.4152">us</text><path d="M126.64,652.93 L198.3578,652.93 A3.75,3.75 0 0 1 200.8578,655.43 L207.8578,675.4183 L212.3578,675.4183 A2.5,2.5 0 0 1 214.8578,677.9183 L214.8578,703.4066 A2.5,2.5 0 0 1 212.3578,705.9066 L126.64,705.9066 A2.5,2.5 0 0 1 124.14,703.4066 L124.14,655.43 A2.5,2.5 0 0 1 126.64,652.93 " fill="#F1F1F1" style="stroke:#181818;stroke-width:0.5;"/><line style="stroke:#181818;stroke-width:0.5;" x1="124.14" x2="207.8578" y1="675.4183" y2="675.4183"/><text fill="#000000" font-family="sans-serif" font-size="14" font-weight="bold" lengthAdjust="spacing" textLength="70.7178" x="128.14" y="668.4652">education</text><path d="M252.69,652.93 L306.3199,652.93 A3.75,3.75 0 0 1 308.8199,655.43 L315.8199,675.4183 L320.3199,675.4183 A2.5,2.5 0 0 1 322.8199,677.9183 L322.8199,703.4066 A2.5,2.5 0 0 1 320.3199,705.9066 L252.69,705.9066 A2.5,2.5 0 0 1 250.19,703.4066 L250.19,655.43 A2.5,2.5 0 0 1 252.69,652.93 " fill="#F1F1F1" style="stroke:#181818;stroke-width:0.5;"/><line style="stroke:#181818;stroke-width:0.5;" x1="250.19" x2="315.8199" y1="675.4183" y2="675.4183"/><text fill="#000000" font-family="sans-serif" font-size="14" font-weight="bold" lengthAdjust="spacing" textLength="52.6299" x="254.19" y="668.4652">finance</text><path d="M360.48,652.93 L406.5288,652.93 A3.75,3.75 0 0 1 409.0288,655.43 L416.0288,675.4183 L420.5288,675.4183 A2.5,2.5 0 0 1 423.0288,677.9183 L423.0288,703.4066 A2.5,2.5 0 0 1 420.5288,705.9066 L360.48,705.9066 A2.5,2.5 0 0 1 357.98,703.4066 L357.98,655.43 A2.5,2.5 0 0 1 360.48,652.93 " fill="#F1F1F1" style="stroke:#181818;stroke-width:0.5;"/><line style="stroke:#181818;stroke-width:0.5;" x1="357.98" x2="416.0288" y1="675.4183" y2="675.4183"/><text fill="#000000" font-family="sans-serif" font-size="14" font-weight="bold" lengthAdjust="spacing" textLength="45.0488" x="361.98" y="668.4652">health</text><path d="M460.93,652.93 L496.0755,652.93 A3.75,3.75 0 0 1 498.5755,655.43 L505.5755,675.4183 L510.0755,675.4183 A2.5,2.5 0 0 1 512.5755,677.9183 L512.5755,703.4066 A2.5,2.5 0 0 1 510.0755,705.9066 L460.93,705.9066 A2.5,2.5 0 0 1 458.43,703.4066 L458.43,655.43 A2.5,2.5 0 0 1 460.93,652.93 " fill="#F1F1F1" style="stroke:#181818;stroke-width:0.5;"/><line style="stroke:#181818;stroke-width:0.5;" x1="458.43" x2="505.5755" y1="675.4183" y2="675.4183"/><text fill="#000000" font-family="sans-serif" font-size="14" font-weight="bold" lengthAdjust="spacing" textLength="34.1455" x="462.43" y="668.4652">infra</text><path d="M550.57,652.93 L576.4323,652.93 A3.75,3.75 0 0 1 578.9323,655.43 L585.9323,675.4183 L590.4323,675.4183 A2.5,2.5 0 0 1 592.9323,677.9183 L592.9323,703.4066 A2.5,2.5 0 0 1 590.4323,705.9066 L550.57,705.9066 A2.5,2.5 0 0 1 548.07,703.4066 L548.07,655.43 A2.5,2.5 0 0 1 550.57,652.93 " fill="#F1F1F1" style="stroke:#181818;stroke-width:0.5;"/><line style="stroke:#181818;stroke-width:0.5;" x1="548.07" x2="585.9323" y1="675.4183" y2="675.4183"/><text fill="#000000" font-family="sans-serif" font-size="14" font-weight="bold" lengthAdjust="spacing" textLength="24.8623" x="552.07" y="668.4652">law</text><path d="M630.39,652.93 L734.6058,652.93 A3.75,3.75 0 0 1 737.1058,655.43 L744.1058,675.4183 L748.6058,675.4183 A2.5,2.5 0 0 1 751.1058,677.9183 L751.1058,703.4066 A2.5,2.5 0 0 1 748.6058,705.9066 L630.39,705.9066 A2.5,2.5 0 0 1 627.89,703.4066 L627.89,655.43 A2.5,2.5 0 0 1 630.39,652.93 " fill="#F1F1F1" style="stroke:#181818;stroke-width:0.5;"/><line style="stroke:#181818;stroke-width:0.5;" x1="627.89" x2="744.1058" y1="675.4183" y2="675.4183"/><text fill="#000000" font-family="sans-serif" font-size="14" font-weight="bold" lengthAdjust="spacing" textLength="103.2158" x="631.89" y="668.4652">publicservices</text><path d="M680.89,826.91 L728.1078,826.91 A3.75,3.75 0 0 1 730.6078,829.41 L737.6078,849.3983 L742.1078,849.3983 A2.5,2.5 0 0 1 744.6078,851.8983 L744.6078,877.3866 A2.5,2.5 0 0 1 742.1078,879.8866 L680.89,879.8866 A2.5,2.5 0 0 1 678.39,877.3866 L678.39,829.41 A2.5,2.5 0 0 1 680.89,826.91 " fill="#F1F1F1" style="stroke:#181818;stroke-width:0.5;"/><line style="stroke:#181818;stroke-width:0.5;" x1="678.39" x2="737.6078" y1="849.3983" y2="849.3983"/><text fill="#000000" font-family="sans-serif" font-size="14" font-weight="bold" lengthAdjust="spacing" textLength="46.2178" x="682.39" y="842.4452">p7012</text><!--class Thing--><g id="elem_Thing"><rect codeLine="5" fill="#C0C0C0" height="26.4883" id="Thing" rx="2.5" ry="2.5" style="stroke:#181818;stroke-width:0.5;" width="45.0059" x="7" y="41"/><text fill="#000000" font-family="sans-serif" font-size="14" lengthAdjust="spacing" textLength="39.0059" x="10" y="59.5352">Thing</text></g><!--link Thing to Process--><g id="link_Thing_Process"><path codeLine="6" d="M52.2,54.24 C133.25,54.24 402.47,54.24 492.64,54.24 " fill="transparent" id="Thing-to-Process" style="stroke:#181818;stroke-width:1;"/><polygon fill="#181818" points="498.64,54.24,489.64,50.24,493.64,54.24,489.64,58.24,498.64,54.24" style="stroke:#181818;stroke-width:1;"/><polygon fill="#000000" points="243.43,42.8953,234.3849,39.9563,234.3849,45.8342,243.43,42.8953" style="stroke:#000000;stroke-width:1;"/><text fill="#000000" font-family="sans-serif" font-size="13" lengthAdjust="spacing" textLength="69.5195" x="247.43" y="47.8084">hasProcess</text></g><!--link Process to Data--><g id="link_Process_Data"><path codeLine="17" d="M556.51,55.43 C642.63,56.37 895.35,62.15 968.5,97.49 C989.96,107.86 1007.68,129.91 1017.41,143.99 " fill="transparent" id="Process-Data" style="stroke:#181818;stroke-width:1;"/><polygon fill="#000000" points="1002.0202,107.0887,993.6921,102.4959,992.583,108.2681,1002.0202,107.0887" style="stroke:#000000;stroke-width:1;"/><text fill="#000000" font-family="sans-serif" font-size="13" lengthAdjust="spacing" textLength="50.832" x="1006.11" y="111.0584">hasData</text></g><!--link Process to Justification--><g id="link_Process_Justification"><path codeLine="18" d="M498.51,55.85 C431.39,57.78 267.72,65.72 224.5,97.49 C209.29,108.67 202.03,130.26 198.81,144.06 " fill="transparent" id="Process-Justification" style="stroke:#181818;stroke-width:1;"/><polygon fill="#000000" points="224.7034,107.557,234.2103,107.8225,232.5507,102.1838,224.7034,107.557" style="stroke:#000000;stroke-width:1;"/><text fill="#000000" font-family="sans-serif" font-size="13" lengthAdjust="spacing" textLength="96.2813" x="238.5" y="111.0584">hasJustification</text></g><!--link Process to PersonalData--><g id="link_Process_PersonalData"><path codeLine="19" d="M498.47,55.11 C461.51,56.43 397.57,63.89 356.5,97.49 C341.89,109.45 334.45,130.81 331.03,144.35 " fill="transparent" id="Process-PersonalData" style="stroke:#181818;stroke-width:1;"/><polygon fill="#000000" points="357.0876,108.497,366.452,106.8363,363.6875,101.6492,357.0876,108.497" style="stroke:#000000;stroke-width:1;"/><text fill="#000000" font-family="sans-serif" font-size="13" lengthAdjust="spacing" textLength="104.1968" x="370.5" y="111.0584">hasPersonalData</text></g><!--link Process to Risk--><g id="link_Process_Risk"><path codeLine="20" d="M513.72,67.72 C505.85,75.55 496.4,86.27 490.5,97.49 C482.61,112.52 478.72,131.9 476.92,144.33 " fill="transparent" id="Process-Risk" style="stroke:#181818;stroke-width:1;"/><polygon fill="#000000" points="493.335,110.6523,499.9006,103.7716,494.6023,101.2265,493.335,110.6523" style="stroke:#000000;stroke-width:1;"/><text fill="#000000" font-family="sans-serif" font-size="13" lengthAdjust="spacing" textLength="48.0771" x="504.5" y="111.0584">hasRisk</text></g><!--link Process to Technology--><g id="link_Process_Technology"><path codeLine="21" d="M539.89,67.76 C553.63,81 576.97,101.73 600.5,114.49 C628.34,129.58 662.45,140.37 688.89,147.26 " fill="transparent" id="Process-Technology" style="stroke:#181818;stroke-width:1;"/><polygon fill="#000000" points="609.9114,108.499,603.3146,101.6482,600.5477,106.834,609.9114,108.499" style="stroke:#000000;stroke-width:1;"/><text fill="#000000" font-family="sans-serif" font-size="13" lengthAdjust="spacing" textLength="201.6333" x="614.5" y="111.0584">isImplementedUsingTechnology</text></g><!--link Process to Location--><g id="link_Process_Location"><path codeLine="22" d="M539.21,67.9 C545.78,75.8 553.45,86.52 557.5,97.49 C593.13,193.96 586.78,321.64 583.64,361.81 " fill="transparent" id="Process-Location" style="stroke:#181818;stroke-width:1;"/><polygon fill="#000000" points="582.2974,162.8291,583.8513,153.4463,578.0395,154.3249,582.2974,162.8291" style="stroke:#000000;stroke-width:1;"/><text fill="#000000" font-family="sans-serif" font-size="13" lengthAdjust="spacing" textLength="75.3022" x="590.55" y="162.7984">hasLocation</text></g><!--link Process to Law--><g id="link_Process_Law"><path codeLine="23" d="M556.54,55.97 C622.12,58.14 779.17,66.51 820.5,97.49 C835.52,108.74 842.41,130.31 845.41,144.09 " fill="transparent" id="Process-Law" style="stroke:#181818;stroke-width:1;"/><polygon fill="#000000" points="843.8324,107.6042,836.0384,102.154,834.3234,107.7761,843.8324,107.6042" style="stroke:#000000;stroke-width:1;"/><text fill="#000000" font-family="sans-serif" font-size="13" lengthAdjust="spacing" textLength="111.8711" x="848.05" y="111.0584">hasApplicableLaw</text></g><!--reverse link PersonalData to pd--><g id="link_PersonalData_pd"><path codeLine="28" d="M328.5,177.26 C328.5,211.71 328.5,302.33 328.5,348.83 " fill="transparent" id="PersonalData-backto-pd" style="stroke:#181818;stroke-width:1;stroke-dasharray:7.0,7.0;"/><polygon fill="#181818" points="328.5,171.26,324.5,180.26,328.5,176.26,332.5,180.26,328.5,171.26" style="stroke:#181818;stroke-width:1;"/><text fill="#000000" font-family="sans-serif" font-size="13" lengthAdjust="spacing" textLength="63.8193" x="329.5" y="214.5484">&#171;extends&#187;</text></g><!--reverse link Risk to risk--><g id="link_Risk_risk"><path codeLine="32" d="M475.5,177.26 C475.5,211.71 475.5,302.33 475.5,348.83 " fill="transparent" id="Risk-backto-risk" style="stroke:#181818;stroke-width:1;stroke-dasharray:7.0,7.0;"/><polygon fill="#181818" points="475.5,171.26,471.5,180.26,475.5,176.26,479.5,180.26,475.5,171.26" style="stroke:#181818;stroke-width:1;"/><text fill="#000000" font-family="sans-serif" font-size="13" lengthAdjust="spacing" textLength="63.8193" x="476.5" y="214.5484">&#171;extends&#187;</text></g><!--reverse link Technology to tech--><g id="link_Technology_tech"><path codeLine="36" d="M731.9293,177.2584 C732.7293,211.7084 734.83,302.33 735.91,348.83 " fill="transparent" id="Technology-backto-tech" style="stroke:#181818;stroke-width:1;stroke-dasharray:7.0,7.0;"/><polygon fill="#181818" points="731.79,171.26,728,180.3504,731.9061,176.2587,735.9979,180.1647,731.79,171.26" style="stroke:#181818;stroke-width:1;"/><text fill="#000000" font-family="sans-serif" font-size="13" lengthAdjust="spacing" textLength="63.8193" x="733.84" y="214.5484">&#171;extends&#187;</text></g><!--reverse link Justification to justifications--><g id="link_Justification_justifications"><path codeLine="40" d="M196.5,177.26 C196.5,211.71 196.5,302.33 196.5,348.83 " fill="transparent" id="Justification-backto-justifications" style="stroke:#181818;stroke-width:1;stroke-dasharray:7.0,7.0;"/><polygon fill="#181818" points="196.5,171.26,192.5,180.26,196.5,176.26,200.5,180.26,196.5,171.26" style="stroke:#181818;stroke-width:1;"/><text fill="#000000" font-family="sans-serif" font-size="13" lengthAdjust="spacing" textLength="63.8193" x="197.5" y="214.5484">&#171;extends&#187;</text></g><!--reverse link Location to loc--><g id="link_Location_loc"><path codeLine="44" d="M591.7713,394.4972 C604.0313,418.3672 627.98,464.99 644.18,496.52 " fill="transparent" id="Location-backto-loc" style="stroke:#181818;stroke-width:1;stroke-dasharray:7.0,7.0;"/><polygon fill="#181818" points="589.03,389.16,589.5838,398.9933,591.3144,393.6077,596.7,395.3383,589.03,389.16" style="stroke:#181818;stroke-width:1;"/><text fill="#000000" font-family="sans-serif" font-size="13" lengthAdjust="spacing" textLength="63.8193" x="629.93" y="463.5184">&#171;extends&#187;</text></g><!--reverse link tech to ai--><g id="link_tech_ai"><path codeLine="47" d="M739.1113,408.0745 C741.1313,426.5745 744.53,445.92 752.5,466.95 C756.79,478.26 763.43,489.81 769.71,499.42 " fill="transparent" id="tech-backto-ai" style="stroke:#181818;stroke-width:1;stroke-dasharray:7.0,7.0;"/><polygon fill="#181818" points="738.46,402.11,735.4605,411.491,739.0027,407.0805,743.4133,410.6226,738.46,402.11" style="stroke:#181818;stroke-width:1;"/><text fill="#000000" font-family="sans-serif" font-size="13" lengthAdjust="spacing" textLength="63.8193" x="753.5" y="463.5184">&#171;extends&#187;</text></g><!--reverse link Law to legal--><g id="link_Law_legal"><path codeLine="50" d="M847.0711,177.2584 C846.8086,188.5909 846.5294,200.6537 846.0481,221.4456 C845.9278,226.6436 845.8036,232.0122 845.6768,237.4891 C845.6451,238.8583 845.6133,240.2342 845.5813,241.616 " fill="transparent" id="Law-backto-legal" style="stroke:#181818;stroke-width:1;stroke-dasharray:7.0,7.0;"/><polygon fill="#181818" points="847.21,171.26,843.0027,180.165,847.0942,176.2587,851.0005,180.3502,847.21,171.26" style="stroke:#181818;stroke-width:1;"/><text fill="#000000" font-family="sans-serif" font-size="13" lengthAdjust="spacing" textLength="63.8193" x="847.42" y="214.5484">&#171;extends&#187;</text></g><!--link eu to at--><!--link at to be--><!--link be to bg--><!--link bg to cy--><!--link cy to cz--><!--link cz to de--><!--link de to dk--><!--link dk to ee--><!--link ee to es--><!--link es to fi--><!--link fi to fr--><!--link fr to gb--><!--link gb to gr--><!--link gr to hr--><!--link hr to hu--><!--link hu to ie--><!--link ie to in--><!--link in to is--><!--link is to it--><!--link it to li--><!--link li to lt--><!--link lt to lu--><!--link lu to lv--><!--link lv to mt--><!--link mt to nl--><!--link nl to no--><!--link no to pl--><!--link pl to pt--><!--link pt to ro--><!--link ro to se--><!--link se to si--><!--link si to sk--><!--link sk to us--><!--link loc to sector--><!--link sector to standards--><!--link legal to ai--><!--link Justification to PersonalData--><!--link ai to sector--><!--SRC=[VPRFQzim5CVFyL-XiKDF2LilWr82WrqsnXYZEuqTLEl5rgB8GfBJjQN_-sIzoD7N7O60hAVF- -hziEIyqROreo8HugEXZJFInl5WckRAq2wAE0YlkpuAfJsrKG-sQLeZGn1tlRQTU1kqEP9lUBRU2kMEc-z-Q2c46z7BS7eMswPnijtBZYP4F3ShbZcjprFoOR3IV99H5jiF7VRb-OxQtWvcw1wBvUlGoXnNcSk7ylXb357lz6czMPLOrcinwOiSO7xQhc0L73C5bfHCJTSnSywLOS5EkMHcUbYidNEx4JfyFZX31xAHrC-GYdjUNRYL0cJPCbaoyY4lVtJEf2Jk3ILBObwWAnkdKcDUcjp3EeVRpQQituZRM_eRoQgmnPvk_9HIyS_v5R-ySi4pfjncpohHuf_NB_Z_gRiJPYLiMX5Rm1TapT3EMdDXYyoqYBwrgzIpPmw-U2NxfGsfaoOjVniKRRVJ8SbRfrRDksO29LP5WiR9PPvABTiedbyga-ea6ZhbF5gi3jTeoHT0G1lrYYtfbxPT_-grKcH_gxMGyHoHvFtJC1D-BUv9Y3EJPXEJ1c0wO3fcEc3Qnvf9iub90p1Fm3mnymICWdWKnwCm7hK7Pi_C7XW27M8T8gWE1M2uY6ceTNQwPj9iOj80Z0U6cvY6ckdkQoRD9YODm81EnpeTwlJ0zCpq2sO4PcHc14P3VJJNHsDzj0N6CcDH1sgekOOQQwWZCFmUQdmF3TJPS9qDrjc0Zc4Tiz21t0tdRZ1tSmJcoCmHc0FiTU2z3X7gOqtDfDd4fA7MiGCm0pC3C0vq7Eiur74GZ-Du7ERkOI_FUtdSAq3V0_SzuFaAq8l0lGZOYm1dCF0P37W6HtWtnlnkB3zp8VsJ6JpSi_E1LEFfdi-vpaVGIjiIs7gI9lPWqdRd9LXCkhhhkHllq_Sta3_gbi_-ChGehP8-NQx_YyvzUFV- -kHr9U83oRsOhrhlfUtoFuQcAH-e-iqvPzvKHNX5b02Qq-Tg1ipw_0Lw_HTXYU5_hwKMXlCF]--></g></svg>