<svg xmlns="http://www.w3.org/2000/svg" xmlns:xlink="http://www.w3.org/1999/xlink" contentStyleType="text/css" data-diagram-type="WBS" height="749px" preserveAspectRatio="none" style="width:828px;height:749px;background:#FFFFFF;" version="1.1" viewBox="0 0 828 749" width="828px" zoomAndPan="magnify"><defs/><g><line style="stroke:#181818;stroke-width:1.5;" x1="60.8963" x2="60.8963" y1="66.3441" y2="86.3441"/><rect fill="#F1F1F1" height="36.3441" style="stroke:#181818;stroke-width:1.5;" width="101.7926" x="10" y="86.3441"/><text fill="#000000" font-family="sans-serif" font-size="12" lengthAdjust="spacing" textLength="81.7926" x="20" y="109.1722">NaturalPerson</text><line style="stroke:#181818;stroke-width:1.5;" x1="60.8963" x2="70.8963" y1="155.8603" y2="155.8603"/><rect fill="#F1F1F1" height="36.3441" style="stroke:#181818;stroke-width:1.5;" width="103.0166" x="70.8963" y="137.6882"/><text fill="#000000" font-family="sans-serif" font-size="12" lengthAdjust="spacing" textLength="83.0166" x="80.8963" y="160.5163">HumanSubject</text><line style="stroke:#181818;stroke-width:1.5;" x1="122.4046" x2="132.4046" y1="207.2044" y2="207.2044"/><rect fill="#F1F1F1" height="36.3441" style="stroke:#181818;stroke-width:1.5;" width="73.0764" x="132.4046" y="189.0323"/><text fill="#000000" font-family="sans-serif" font-size="12" lengthAdjust="spacing" textLength="53.0764" x="142.4046" y="211.8604">AISubject</text><line style="stroke:#181818;stroke-width:1.5;" x1="122.4046" x2="132.4046" y1="258.5485" y2="258.5485"/><rect fill="#F1F1F1" height="36.3441" style="stroke:#181818;stroke-width:1.5;" width="87.8965" x="132.4046" y="240.3765"/><text fill="#000000" font-family="sans-serif" font-size="12" lengthAdjust="spacing" textLength="67.8965" x="142.4046" y="263.2045">DataSubject</text><line style="stroke:#181818;stroke-width:1.5;" x1="122.4046" x2="122.4046" y1="174.0323" y2="258.5485"/><line style="stroke:#181818;stroke-width:1.5;" x1="60.8963" x2="70.8963" y1="309.8926" y2="309.8926"/><rect fill="#F1F1F1" height="36.3441" style="stroke:#181818;stroke-width:1.5;" width="104.6246" x="70.8963" y="291.7206"/><text fill="#000000" font-family="sans-serif" font-size="12" lengthAdjust="spacing" textLength="84.6246" x="80.8963" y="314.5487">Representative</text><line style="stroke:#181818;stroke-width:1.5;" x1="60.8963" x2="60.8963" y1="122.6882" y2="309.8926"/><line style="stroke:#181818;stroke-width:1.5;" x1="281.4172" x2="281.4172" y1="66.3441" y2="86.3441"/><rect fill="#F1F1F1" height="36.3441" style="stroke:#181818;stroke-width:1.5;" width="82.2324" x="240.301" y="86.3441"/><text fill="#000000" font-family="sans-serif" font-size="12" lengthAdjust="spacing" textLength="62.2324" x="250.301" y="109.1722">LegalEntity</text><line style="stroke:#181818;stroke-width:1.5;" x1="281.4172" x2="291.4172" y1="155.8603" y2="155.8603"/><rect fill="#F1F1F1" height="36.3441" style="stroke:#181818;stroke-width:1.5;" width="103.2806" x="291.4172" y="137.6882"/><text fill="#000000" font-family="sans-serif" font-size="12" lengthAdjust="spacing" textLength="83.2806" x="301.4172" y="160.5163">DataController</text><line style="stroke:#181818;stroke-width:1.5;" x1="281.4172" x2="291.4172" y1="207.2044" y2="207.2044"/><rect fill="#F1F1F1" height="36.3441" style="stroke:#181818;stroke-width:1.5;" width="134.4088" x="291.4172" y="189.0323"/><text fill="#000000" font-family="sans-serif" font-size="12" lengthAdjust="spacing" textLength="114.4088" x="301.4172" y="211.8604">JointDataControllers</text><line style="stroke:#181818;stroke-width:1.5;" x1="281.4172" x2="291.4172" y1="258.5485" y2="258.5485"/><rect fill="#F1F1F1" height="36.3441" style="stroke:#181818;stroke-width:1.5;" width="95.2285" x="291.4172" y="240.3765"/><text fill="#000000" font-family="sans-serif" font-size="12" lengthAdjust="spacing" textLength="75.2285" x="301.4172" y="263.2045">DataExporter</text><line style="stroke:#181818;stroke-width:1.5;" x1="281.4172" x2="291.4172" y1="309.8926" y2="309.8926"/><rect fill="#F1F1F1" height="36.3441" style="stroke:#181818;stroke-width:1.5;" width="72.0804" x="291.4172" y="291.7206"/><text fill="#000000" font-family="sans-serif" font-size="12" lengthAdjust="spacing" textLength="52.0804" x="301.4172" y="314.5487">Recipient</text><line style="stroke:#181818;stroke-width:1.5;" x1="327.4574" x2="337.4574" y1="361.2367" y2="361.2367"/><rect fill="#F1F1F1" height="36.3441" style="stroke:#181818;stroke-width:1.5;" width="97.4965" x="337.4574" y="343.0647"/><text fill="#000000" font-family="sans-serif" font-size="12" lengthAdjust="spacing" textLength="77.4965" x="347.4574" y="365.8928">DataImporter</text><line style="stroke:#181818;stroke-width:1.5;" x1="327.4574" x2="337.4574" y1="412.5809" y2="412.5809"/><rect fill="#F1F1F1" height="36.3441" style="stroke:#181818;stroke-width:1.5;" width="102.2726" x="337.4574" y="394.4088"/><text fill="#000000" font-family="sans-serif" font-size="12" lengthAdjust="spacing" textLength="82.2726" x="347.4574" y="417.2369">DataProcessor</text><line style="stroke:#181818;stroke-width:1.5;" x1="327.4574" x2="337.4574" y1="463.925" y2="463.925"/><rect fill="#F1F1F1" height="36.3441" style="stroke:#181818;stroke-width:1.5;" width="78.9204" x="337.4574" y="445.7529"/><text fill="#000000" font-family="sans-serif" font-size="12" lengthAdjust="spacing" textLength="58.9204" x="347.4574" y="468.581">ThirdParty</text><line style="stroke:#181818;stroke-width:1.5;" x1="327.4574" x2="327.4574" y1="328.0647" y2="463.925"/><line style="stroke:#181818;stroke-width:1.5;" x1="281.4172" x2="291.4172" y1="515.2691" y2="515.2691"/><rect fill="#F1F1F1" height="36.3441" style="stroke:#181818;stroke-width:1.5;" width="118.4007" x="291.4172" y="497.097"/><text fill="#000000" font-family="sans-serif" font-size="12" lengthAdjust="spacing" textLength="98.4007" x="301.4172" y="519.9251">ServiceConsumer</text><line style="stroke:#181818;stroke-width:1.5;" x1="281.4172" x2="291.4172" y1="566.6132" y2="566.6132"/><rect fill="#F1F1F1" height="36.3441" style="stroke:#181818;stroke-width:1.5;" width="107.8046" x="291.4172" y="548.4411"/><text fill="#000000" font-family="sans-serif" font-size="12" lengthAdjust="spacing" textLength="87.8046" x="301.4172" y="571.2692">ServiceProvider</text><line style="stroke:#181818;stroke-width:1.5;" x1="281.4172" x2="281.4172" y1="122.6882" y2="566.6132"/><line style="stroke:#181818;stroke-width:1.5;" x1="506.4983" x2="506.4983" y1="66.3441" y2="86.3441"/><rect fill="#F1F1F1" height="36.3441" style="stroke:#181818;stroke-width:1.5;" width="93.5365" x="459.73" y="86.3441"/><text fill="#000000" font-family="sans-serif" font-size="12" lengthAdjust="spacing" textLength="73.5365" x="469.73" y="109.1722">Organisation</text><line style="stroke:#181818;stroke-width:1.5;" x1="506.4983" x2="516.4983" y1="155.8603" y2="155.8603"/><rect fill="#F1F1F1" height="36.3441" style="stroke:#181818;stroke-width:1.5;" width="174.3331" x="516.4983" y="137.6882"/><text fill="#000000" font-family="sans-serif" font-size="12" lengthAdjust="spacing" textLength="154.3331" x="526.4983" y="160.5163">GovernmentalOrganisation</text><line style="stroke:#181818;stroke-width:1.5;" x1="603.6648" x2="613.6648" y1="207.2044" y2="207.2044"/><rect fill="#F1F1F1" height="36.3441" style="stroke:#181818;stroke-width:1.5;" width="72.5964" x="613.6648" y="189.0323"/><text fill="#000000" font-family="sans-serif" font-size="12" lengthAdjust="spacing" textLength="52.5964" x="623.6648" y="211.8604">Authority</text><line style="stroke:#181818;stroke-width:1.5;" x1="649.963" x2="659.963" y1="258.5485" y2="258.5485"/><rect fill="#F1F1F1" height="36.3441" style="stroke:#181818;stroke-width:1.5;" width="157.593" x="659.963" y="240.3765"/><text fill="#000000" font-family="sans-serif" font-size="12" lengthAdjust="spacing" textLength="137.593" x="669.963" y="263.2045">DataProtectionAuthority</text><line style="stroke:#181818;stroke-width:1.5;" x1="649.963" x2="659.963" y1="309.8926" y2="309.8926"/><rect fill="#F1F1F1" height="36.3441" style="stroke:#181818;stroke-width:1.5;" width="120.3807" x="659.963" y="291.7206"/><text fill="#000000" font-family="sans-serif" font-size="12" lengthAdjust="spacing" textLength="100.3807" x="669.963" y="314.5487">NationalAuthority</text><line style="stroke:#181818;stroke-width:1.5;" x1="649.963" x2="659.963" y1="361.2367" y2="361.2367"/><rect fill="#F1F1F1" height="36.3441" style="stroke:#181818;stroke-width:1.5;" width="121.8087" x="659.963" y="343.0647"/><text fill="#000000" font-family="sans-serif" font-size="12" lengthAdjust="spacing" textLength="101.8087" x="669.963" y="365.8928">RegionalAuthority</text><line style="stroke:#181818;stroke-width:1.5;" x1="649.963" x2="659.963" y1="412.5809" y2="412.5809"/><rect fill="#F1F1F1" height="36.3441" style="stroke:#181818;stroke-width:1.5;" width="153.4529" x="659.963" y="394.4088"/><text fill="#000000" font-family="sans-serif" font-size="12" lengthAdjust="spacing" textLength="133.4529" x="669.963" y="417.2369">SupraNationalAuthority</text><line style="stroke:#181818;stroke-width:1.5;" x1="649.963" x2="649.963" y1="225.3765" y2="412.5809"/><line style="stroke:#181818;stroke-width:1.5;" x1="603.6648" x2="603.6648" y1="174.0323" y2="207.2044"/><line style="stroke:#181818;stroke-width:1.5;" x1="506.4983" x2="516.4983" y1="463.925" y2="463.925"/><rect fill="#F1F1F1" height="36.3441" style="stroke:#181818;stroke-width:1.5;" width="197.9613" x="516.4983" y="445.7529"/><text fill="#000000" font-family="sans-serif" font-size="12" lengthAdjust="spacing" textLength="177.9613" x="526.4983" y="468.581">AcademicScientificOrganisation</text><line style="stroke:#181818;stroke-width:1.5;" x1="506.4983" x2="516.4983" y1="515.2691" y2="515.2691"/><rect fill="#F1F1F1" height="36.3441" style="stroke:#181818;stroke-width:1.5;" width="143.0129" x="516.4983" y="497.097"/><text fill="#000000" font-family="sans-serif" font-size="12" lengthAdjust="spacing" textLength="123.0129" x="526.4983" y="519.9251">ForProfitOrganisation</text><line style="stroke:#181818;stroke-width:1.5;" x1="506.4983" x2="516.4983" y1="566.6132" y2="566.6132"/><rect fill="#F1F1F1" height="36.3441" style="stroke:#181818;stroke-width:1.5;" width="133.7248" x="516.4983" y="548.4411"/><text fill="#000000" font-family="sans-serif" font-size="12" lengthAdjust="spacing" textLength="113.7248" x="526.4983" y="571.2692">IndustryConsortium</text><line style="stroke:#181818;stroke-width:1.5;" x1="506.4983" x2="516.4983" y1="617.9573" y2="617.9573"/><rect fill="#F1F1F1" height="36.3441" style="stroke:#181818;stroke-width:1.5;" width="167.157" x="516.4983" y="599.7853"/><text fill="#000000" font-family="sans-serif" font-size="12" lengthAdjust="spacing" textLength="147.157" x="526.4983" y="622.6133">InternationalOrganisation</text><line style="stroke:#181818;stroke-width:1.5;" x1="506.4983" x2="516.4983" y1="669.3014" y2="669.3014"/><rect fill="#F1F1F1" height="36.3441" style="stroke:#181818;stroke-width:1.5;" width="198.1293" x="516.4983" y="651.1294"/><text fill="#000000" font-family="sans-serif" font-size="12" lengthAdjust="spacing" textLength="178.1293" x="526.4983" y="673.9575">NonGovernmentalOrganisation</text><line style="stroke:#181818;stroke-width:1.5;" x1="506.4983" x2="516.4983" y1="720.6455" y2="720.6455"/><rect fill="#F1F1F1" height="36.3441" style="stroke:#181818;stroke-width:1.5;" width="148.3649" x="516.4983" y="702.4735"/><text fill="#000000" font-family="sans-serif" font-size="12" lengthAdjust="spacing" textLength="128.3649" x="526.4983" y="725.3016">NonProfitOrganisation</text><line style="stroke:#181818;stroke-width:1.5;" x1="506.4983" x2="506.4983" y1="122.6882" y2="720.6455"/><line style="stroke:#181818;stroke-width:1.5;" x1="60.8963" x2="506.4983" y1="66.3441" y2="66.3441"/><rect fill="#F1F1F1" height="36.3441" style="stroke:#181818;stroke-width:1.5;" width="51.9682" x="257.7132" y="10"/><text fill="#000000" font-family="sans-serif" font-size="12" lengthAdjust="spacing" textLength="31.9682" x="267.7132" y="32.8281">Entity</text><line style="stroke:#181818;stroke-width:1.5;" x1="283.6973" x2="283.6973" y1="46.3441" y2="66.3441"/><!--SRC=[xLHDK-904BtFh-YzALLIIkcMomaLPM41AOBUXqaJUcioavgFxFBljnCYh41vzEGjUQ_Vw-wNhlHya2xyMNhnZOpICKNmOQEnNMXfGior42ruD872HhHQC9KXEgbdwBmr3BJWPyobIUBoDwfG0Isu6xvxxSiW_mDWZeL3ZoR8G2LMfcFCfDxrs2eUh0dEQeskXaQMJ7YF-rtjuz_2kj1Kpb5HGMo_xpxCz_mMcJchq7lRG8irkNJ6EMpx9-XAKiYjVCmRsmPZOKbfZS6powGXpsiqKGniYSxarMhwaEHOObXRr-oudoDmBbnpo4vhfTI7-1opatWI2oTFYk1EoHHpKecgOg4LgQF9dwpZKLOKZfYXIQCFRbE5mI5Ip1kOypHDkoFHr9gFigZu4-r43qrQNQBexOvopM73Yb2dpNEElDhRYoAdDBBWwqQ_RlIJRtHM_HzV9cDW3yyKNBKxbvsRzlLP8WECee7EBLnrkfS_kfqR62OBgEXpSJQOZS7Rw1H2IZmsBMDbVIv6ifGmZxn-ZbruBj2C-h_U0BxlafojfnMZryc-uFlrnJs5-kEZWzU9wEDAHXrOeMnA9kl2o-BfubQCfScYpDWRZNYmxEisNHZS_mC0]--></g></svg>