<svg xmlns="http://www.w3.org/2000/svg" xmlns:xlink="http://www.w3.org/1999/xlink" contentStyleType="text/css" data-diagram-type="CLASS" height="312px" preserveAspectRatio="none" style="width:463px;height:312px;background:#FFFFFF;" version="1.1" viewBox="0 0 463 312" width="463px" zoomAndPan="magnify"><defs/><g><!--cluster dpv--><g class="cluster" data-entity="dpv" data-source-line="6" data-uid="ent0004" id="cluster_dpv"><path d="M169.81,106.009 L196.4999,106.009 A3.75,3.75 0 0 1 198.9999,108.509 L205.9999,131.0769 L240.11,131.0769 A2.5,2.5 0 0 1 242.61,133.5769 L242.61,187.509 A2.5,2.5 0 0 1 240.11,190.009 L169.81,190.009 A2.5,2.5 0 0 1 167.31,187.509 L167.31,108.509 A2.5,2.5 0 0 1 169.81,106.009" fill="none" style="stroke:#000000;stroke-width:1.5;"/><line style="stroke:#000000;stroke-width:1.5;" x1="167.31" x2="205.9999" y1="131.0769" y2="131.0769"/><text fill="#000000" font-family="sans-serif" font-size="14" font-weight="bold" lengthAdjust="spacing" textLength="25.6899" x="171.31" y="122.9749">dpv</text></g><!--class Entity--><g class="entity" data-entity="Entity" data-source-line="7" data-uid="ent0005" id="entity_Entity"><rect fill="#F1F1F1" height="29.0679" rx="2.5" ry="2.5" style="stroke:#181818;stroke-width:0.5;" width="43.2959" x="183.31" y="144.479"/><text fill="#000000" font-family="sans-serif" font-size="14" lengthAdjust="spacing" textLength="37.2959" x="186.31" y="164.4449">Entity</text></g><!--class Thing--><g class="entity" data-entity="Thing" data-source-line="4" data-uid="ent0002" id="entity_Thing"><rect fill="#C0C0C0" height="29.0679" rx="2.5" ry="2.5" style="stroke:#181818;stroke-width:0.5;" width="43.3098" x="7" y="144.479"/><text fill="#000000" font-family="sans-serif" font-size="14" lengthAdjust="spacing" textLength="37.3098" x="10" y="164.4449">Thing</text></g><!--entity Resource--><g class="entity" data-entity="Resource" data-source-line="5" data-uid="ent0003" id="entity_Resource"><ellipse cx="425.61" cy="159.009" fill="#F1F1F1" rx="8" ry="8" style="stroke:#181818;stroke-width:0.5;"/><text fill="#000000" font-family="sans-serif" font-size="14" lengthAdjust="spacing" textLength="60.8298" x="395.1951" y="190.9749">Resource</text></g><!--link Thing to Entity--><g class="link" data-entity-1="Thing" data-entity-2="Entity" data-source-line="10" data-uid="lnk6" id="link_Thing_Entity"><path codeLine="10" d="M50.68,159.009 C84.18,159.009 149.31,159.009 182.86,159.009" fill="none" id="Thing-Entity" style="stroke:#181818;stroke-width:1;"/><polygon fill="#000000" points="90.31,149.862,81.2649,146.9231,81.2649,152.8009,90.31,149.862" style="stroke:#000000;stroke-width:1;"/><text fill="#000000" font-family="sans-serif" font-size="13" lengthAdjust="spacing" textLength="56.1861" x="94.31" y="154.906">hasEntity</text></g><!--link Entity to Resource--><g class="link" data-entity-1="Entity" data-entity-2="Resource" data-source-line="11" data-uid="lnk7" id="link_Entity_Resource"><path codeLine="11" d="M208.12,144.079 C212.57,119.429 225.32,70.899 258.61,50.009 C306.79,19.769 340.23,17.069 386.61,50.009 C419.61,73.459 424.19,127.769 424.65,149.639" fill="none" id="Entity-Resource" style="stroke:#181818;stroke-width:1;"/><polygon fill="#000000" points="296.1084,17.2904,287.1417,14.1202,286.9908,19.9961,296.1084,17.2904" style="stroke:#000000;stroke-width:1;"/><text fill="#000000" font-family="sans-serif" font-size="13" lengthAdjust="spacing" textLength="58.214" x="300.11" y="22.206">hasName</text></g><!--link Entity to Resource--><g class="link" data-entity-1="Entity" data-entity-2="Resource" data-source-line="12" data-uid="lnk8" id="link_Entity_Resource"><path codeLine="12" d="M216.53,143.999 C225.99,131.979 241.05,116.019 258.61,109.009 C311.44,87.919 335.64,83.729 386.61,109.009 C403.8,117.539 415.31,137.969 420.83,149.909" fill="none" id="Entity-Resource-1" style="stroke:#181818;stroke-width:1;"/><polygon fill="#000000" points="289.6079,82.5866,280.6516,79.3873,280.4816,85.2627,289.6079,82.5866" style="stroke:#000000;stroke-width:1;"/><text fill="#000000" font-family="sans-serif" font-size="13" lengthAdjust="spacing" textLength="71.0061" x="293.61" y="87.486">hasAddress</text></g><!--link Entity to Resource--><g class="link" data-entity-1="Entity" data-entity-2="Resource" data-source-line="13" data-uid="lnk9" id="link_Entity_Resource"><path codeLine="13" d="M226.92,159.009 C273.74,159.009 385.13,159.009 416.34,159.009" fill="none" id="Entity-Resource-2" style="stroke:#181818;stroke-width:1;"/><polygon fill="#000000" points="291.11,149.862,282.0649,146.9231,282.0649,152.8009,291.11,149.862" style="stroke:#000000;stroke-width:1;"/><text fill="#000000" font-family="sans-serif" font-size="13" lengthAdjust="spacing" textLength="68.5881" x="295.11" y="154.906">hasContact</text></g><!--link Entity to Resource--><g class="link" data-entity-1="Entity" data-entity-2="Resource" data-source-line="14" data-uid="lnk10" id="link_Entity_Resource"><path codeLine="14" d="M227.08,172.749 C236.36,177.999 247.62,183.359 258.61,186.009 C313.91,199.359 332.41,203.309 386.61,186.009 C398.02,182.369 408.93,173.919 416.12,167.429" fill="none" id="Entity-Resource-3" style="stroke:#181818;stroke-width:1;"/><polygon fill="#000000" points="268.608,176.7214,259.4838,174.038,259.6492,179.9136,268.608,176.7214" style="stroke:#000000;stroke-width:1;"/><text fill="#000000" font-family="sans-serif" font-size="13" lengthAdjust="spacing" textLength="113.2301" x="272.61" y="181.906">hasRepresentative</text></g><!--link Entity to Resource--><g class="link" data-entity-1="Entity" data-entity-2="Resource" data-source-line="15" data-uid="lnk11" id="link_Entity_Resource"><path codeLine="15" d="M212.78,173.829 C221.05,189.839 236.68,214.459 258.61,225.009 C309.86,249.689 337.36,253.489 386.61,225.009 C407.9,212.699 418.31,183.439 422.41,168.359" fill="none" id="Entity-Resource-4" style="stroke:#181818;stroke-width:1;"/><polygon fill="#000000" points="280.6083,215.7316,271.4896,213.0296,271.643,218.9055,280.6083,215.7316" style="stroke:#000000;stroke-width:1;"/><text fill="#000000" font-family="sans-serif" font-size="13" lengthAdjust="spacing" textLength="89.6221" x="284.61" y="220.906">hasJurisdiction</text></g><!--link Entity to Resource--><g class="link" data-entity-1="Entity" data-entity-2="Resource" data-source-line="16" data-uid="lnk12" id="link_Entity_Resource"><path codeLine="16" d="M207.8,173.659 C211.85,198.909 224.11,250.029 258.61,272.009 C306.58,302.589 340.41,305.209 386.61,272.009 C420.72,247.489 424.63,190.799 424.78,168.379" fill="none" id="Entity-Resource-5" style="stroke:#181818;stroke-width:1;"/><polygon fill="#000000" points="288.6085,262.7404,279.4946,260.0224,279.6376,265.8985,288.6085,262.7404" style="stroke:#000000;stroke-width:1;"/><text fill="#000000" font-family="sans-serif" font-size="13" lengthAdjust="spacing" textLength="73.7101" x="292.61" y="267.906">hasLocation</text></g><!--SRC=[VP312i8m44JFxbUiUD53_G0FWeWN4G_57mZ9sYwcIKWsXIB-kw6jHtiRTjxEmApPQPiDOPB1qZvOvIHt5Ymz1SLZvAOLD1n92ti7eArA2HyjkmOtYMrF4ROxh2dv73L1KFgb6a8JUdp3Qi8lJbW6-01CZrKrdmxOgZH9FC8iYlkBmn6uguuMx9CnaKhBV-BidIWj2qHDeMHGmOJxfR9hZfmCZsiiO3UlrOny0G00]--></g></svg>