<svg xmlns="http://www.w3.org/2000/svg" xmlns:xlink="http://www.w3.org/1999/xlink" contentStyleType="text/css" data-diagram-type="MINDMAP" height="612px" preserveAspectRatio="none" style="width:571px;height:612px;background:#FFFFFF;" version="1.1" viewBox="0 0 571 612" width="571px" zoomAndPan="magnify"><defs/><g><rect fill="#F1F1F1" height="39.0679" rx="12.5" ry="12.5" style="stroke:#181818;stroke-width:1.5;" width="82.7198" x="325.8111" y="285.8056"/><text fill="#000000" font-family="sans-serif" font-size="14" lengthAdjust="spacing" textLength="62.7198" x="335.8111" y="310.7716">dpv:Right</text><rect fill="#F1F1F1" height="39.0679" rx="12.5" ry="12.5" style="stroke:#181818;stroke-width:1.5;" width="101.3817" x="458.5308" y="20"/><text fill="#000000" font-family="sans-serif" font-size="14" lengthAdjust="spacing" textLength="81.3817" x="468.5308" y="44.9659">eu-gdpr:A13</text><path d="M408.5308,305.3396 L418.5308,305.3396 C433.5308,305.3396 433.5308,39.534 448.5308,39.534 L458.5308,39.534" fill="none" style="stroke:#181818;stroke-width:1;"/><rect fill="#F1F1F1" height="39.0679" rx="12.5" ry="12.5" style="stroke:#181818;stroke-width:1.5;" width="101.3817" x="458.5308" y="79.0679"/><text fill="#000000" font-family="sans-serif" font-size="14" lengthAdjust="spacing" textLength="81.3817" x="468.5308" y="104.0339">eu-gdpr:A14</text><path d="M408.5308,305.3396 L418.5308,305.3396 C433.5308,305.3396 433.5308,98.6019 448.5308,98.6019 L458.5308,98.6019" fill="none" style="stroke:#181818;stroke-width:1;"/><rect fill="#F1F1F1" height="39.0679" rx="12.5" ry="12.5" style="stroke:#181818;stroke-width:1.5;" width="101.3817" x="458.5308" y="138.1358"/><text fill="#000000" font-family="sans-serif" font-size="14" lengthAdjust="spacing" textLength="81.3817" x="468.5308" y="163.1018">eu-gdpr:A15</text><path d="M408.5308,305.3396 L418.5308,305.3396 C433.5308,305.3396 433.5308,157.6698 448.5308,157.6698 L458.5308,157.6698" fill="none" style="stroke:#181818;stroke-width:1;"/><rect fill="#F1F1F1" height="39.0679" rx="12.5" ry="12.5" style="stroke:#181818;stroke-width:1.5;" width="101.3817" x="458.5308" y="197.2038"/><text fill="#000000" font-family="sans-serif" font-size="14" lengthAdjust="spacing" textLength="81.3817" x="468.5308" y="222.1697">eu-gdpr:A16</text><path d="M408.5308,305.3396 L418.5308,305.3396 C433.5308,305.3396 433.5308,216.7377 448.5308,216.7377 L458.5308,216.7377" fill="none" style="stroke:#181818;stroke-width:1;"/><rect fill="#F1F1F1" height="39.0679" rx="12.5" ry="12.5" style="stroke:#181818;stroke-width:1.5;" width="101.3817" x="458.5308" y="256.2717"/><text fill="#000000" font-family="sans-serif" font-size="14" lengthAdjust="spacing" textLength="81.3817" x="468.5308" y="281.2376">eu-gdpr:A17</text><path d="M408.5308,305.3396 L418.5308,305.3396 C433.5308,305.3396 433.5308,275.8056 448.5308,275.8056 L458.5308,275.8056" fill="none" style="stroke:#181818;stroke-width:1;"/><rect fill="#F1F1F1" height="39.0679" rx="12.5" ry="12.5" style="stroke:#181818;stroke-width:1.5;" width="101.3817" x="458.5308" y="315.3396"/><text fill="#000000" font-family="sans-serif" font-size="14" lengthAdjust="spacing" textLength="81.3817" x="468.5308" y="340.3055">eu-gdpr:A18</text><path d="M408.5308,305.3396 L418.5308,305.3396 C433.5308,305.3396 433.5308,334.8735 448.5308,334.8735 L458.5308,334.8735" fill="none" style="stroke:#181818;stroke-width:1;"/><rect fill="#F1F1F1" height="39.0679" rx="12.5" ry="12.5" style="stroke:#181818;stroke-width:1.5;" width="101.3817" x="458.5308" y="374.4075"/><text fill="#000000" font-family="sans-serif" font-size="14" lengthAdjust="spacing" textLength="81.3817" x="468.5308" y="399.3734">eu-gdpr:A19</text><path d="M408.5308,305.3396 L418.5308,305.3396 C433.5308,305.3396 433.5308,393.9415 448.5308,393.9415 L458.5308,393.9415" fill="none" style="stroke:#181818;stroke-width:1;"/><rect fill="#F1F1F1" height="39.0679" rx="12.5" ry="12.5" style="stroke:#181818;stroke-width:1.5;" width="101.3817" x="458.5308" y="433.4754"/><text fill="#000000" font-family="sans-serif" font-size="14" lengthAdjust="spacing" textLength="81.3817" x="468.5308" y="458.4414">eu-gdpr:A20</text><path d="M408.5308,305.3396 L418.5308,305.3396 C433.5308,305.3396 433.5308,453.0094 448.5308,453.0094 L458.5308,453.0094" fill="none" style="stroke:#181818;stroke-width:1;"/><rect fill="#F1F1F1" height="39.0679" rx="12.5" ry="12.5" style="stroke:#181818;stroke-width:1.5;" width="101.3817" x="458.5308" y="492.5433"/><text fill="#000000" font-family="sans-serif" font-size="14" lengthAdjust="spacing" textLength="81.3817" x="468.5308" y="517.5093">eu-gdpr:A21</text><path d="M408.5308,305.3396 L418.5308,305.3396 C433.5308,305.3396 433.5308,512.0773 448.5308,512.0773 L458.5308,512.0773" fill="none" style="stroke:#181818;stroke-width:1;"/><rect fill="#F1F1F1" height="39.0679" rx="12.5" ry="12.5" style="stroke:#181818;stroke-width:1.5;" width="101.3817" x="458.5308" y="551.6113"/><text fill="#000000" font-family="sans-serif" font-size="14" lengthAdjust="spacing" textLength="81.3817" x="468.5308" y="576.5772">eu-gdpr:A22</text><path d="M408.5308,305.3396 L418.5308,305.3396 C433.5308,305.3396 433.5308,571.1452 448.5308,571.1452 L458.5308,571.1452" fill="none" style="stroke:#181818;stroke-width:1;"/><rect fill="#F1F1F1" height="39.0679" rx="12.5" ry="12.5" style="stroke:#181818;stroke-width:1.5;" width="105.8897" x="169.9214" y="138.1358"/><text fill="#000000" font-family="sans-serif" font-size="14" lengthAdjust="spacing" textLength="85.8897" x="179.9214" y="163.1018">eu-gdpr:A7-3</text><path d="M325.8111,305.3396 L315.8111,305.3396 C300.8111,305.3396 300.8111,157.6698 285.8111,157.6698 L275.8111,157.6698" fill="none" style="stroke:#181818;stroke-width:1;"/><rect fill="#F1F1F1" height="39.0679" rx="12.5" ry="12.5" style="stroke:#181818;stroke-width:1.5;" width="101.3817" x="174.4294" y="197.2038"/><text fill="#000000" font-family="sans-serif" font-size="14" lengthAdjust="spacing" textLength="81.3817" x="184.4294" y="222.1697">eu-gdpr:A77</text><path d="M325.8111,305.3396 L315.8111,305.3396 C300.8111,305.3396 300.8111,216.7377 285.8111,216.7377 L275.8111,216.7377" fill="none" style="stroke:#181818;stroke-width:1;"/><rect fill="#F1F1F1" height="39.0679" rx="12.5" ry="12.5" style="stroke:#181818;stroke-width:1.5;" width="254.0231" x="21.788" y="256.2717"/><text fill="#000000" font-family="sans-serif" font-size="14" lengthAdjust="spacing" textLength="234.0231" x="31.788" y="281.2376">eu-gdpr:DirectDataCollectionNotice</text><path d="M325.8111,305.3396 L315.8111,305.3396 C300.8111,305.3396 300.8111,275.8056 285.8111,275.8056 L275.8111,275.8056" fill="none" style="stroke:#181818;stroke-width:1;"/><rect fill="#F1F1F1" height="39.0679" rx="12.5" ry="12.5" style="stroke:#181818;stroke-width:1.5;" width="265.8111" x="10" y="315.3396"/><text fill="#000000" font-family="sans-serif" font-size="14" lengthAdjust="spacing" textLength="245.8111" x="20" y="340.3055">eu-gdpr:IndirectDataCollectionNotice</text><path d="M325.8111,305.3396 L315.8111,305.3396 C300.8111,305.3396 300.8111,334.8735 285.8111,334.8735 L275.8111,334.8735" fill="none" style="stroke:#181818;stroke-width:1;"/><rect fill="#F1F1F1" height="39.0679" rx="12.5" ry="12.5" style="stroke:#181818;stroke-width:1.5;" width="227.6192" x="48.1919" y="374.4075"/><text fill="#000000" font-family="sans-serif" font-size="14" lengthAdjust="spacing" textLength="207.6192" x="58.1919" y="399.3734">eu-gdpr:RightsRecipientsNotice</text><path d="M325.8111,305.3396 L315.8111,305.3396 C300.8111,305.3396 300.8111,393.9415 285.8111,393.9415 L275.8111,393.9415" fill="none" style="stroke:#181818;stroke-width:1;"/><rect fill="#F1F1F1" height="39.0679" rx="12.5" ry="12.5" style="stroke:#181818;stroke-width:1.5;" width="144.1515" x="131.6595" y="433.4754"/><text fill="#000000" font-family="sans-serif" font-size="14" lengthAdjust="spacing" textLength="124.1515" x="141.6595" y="458.4414">eu-gdpr:SARNotice</text><path d="M325.8111,305.3396 L315.8111,305.3396 C300.8111,305.3396 300.8111,453.0094 285.8111,453.0094 L275.8111,453.0094" fill="none" style="stroke:#181818;stroke-width:1;"/><!--SRC=[xP99Ry8m48Nl_XNJ6mW5GTXpOciH55h4TdUJ8OpaE96NIFpxcXO4LYyzzDZRV3FFewSt7ch3bSb89Xals1F9MDW4GPkpm7eXk3Gs4wm6IL566qfFXjLgW3P8aq95esRBnxQF7H-xFlPyxFiuy31i-DZqCMH1SCTUqFAvzuXJKXYRAJTyaWlXIihbMsuenaVLN2Q_qdrbeZSOKq4eZVwfs8usr-OGNShNfDdG2_v4BlGZeKZqTvsXEUKtY4d50ZNxlyFVts5z-UFxrH9ALDgjXcOzR8ITUhkovGOMLaBOXsOODGPHs87vTWUNSPLLPkibwDog624XRHHzs8krAblmaiF6IaCPHl1Ue5nCNsyDU9ObgLncpYHR75PtGRSTZCd05fLp0eSLc-AHMs7SYpXFIAOHx7SlGPyjkKmjJzrkb6oIkxtg7C5i_0a0]--></g></svg>