<svg xmlns="http://www.w3.org/2000/svg" xmlns:xlink="http://www.w3.org/1999/xlink" contentStyleType="text/css" height="586px" preserveAspectRatio="none" style="width:594px;height:586px;background:#FFFFFF;" version="1.1" viewBox="0 0 594 586" width="594px" zoomAndPan="magnify"><defs/><g><rect fill="#F1F1F1" height="36.4883" rx="12.5" ry="12.5" style="stroke:#181818;stroke-width:1.5;" width="85" x="337" y="274.1973"/><text fill="#000000" font-family="sans-serif" font-size="14" lengthAdjust="spacing" textLength="65" x="347" y="297.7324">dpv:Right</text><rect fill="#F1F1F1" height="36.4883" rx="12.5" ry="12.5" style="stroke:#181818;stroke-width:1.5;" width="110" x="472" y="20"/><text fill="#000000" font-family="sans-serif" font-size="14" lengthAdjust="spacing" textLength="90" x="482" y="43.5352">eu-gdpr:A13</text><path d="M422,292.4414 L432,292.4414 C447,292.4414 447,38.2441 462,38.2441 L472,38.2441 " fill="none" style="stroke:#181818;stroke-width:1.0;"/><rect fill="#F1F1F1" height="36.4883" rx="12.5" ry="12.5" style="stroke:#181818;stroke-width:1.5;" width="110" x="472" y="76.4883"/><text fill="#000000" font-family="sans-serif" font-size="14" lengthAdjust="spacing" textLength="90" x="482" y="100.0234">eu-gdpr:A14</text><path d="M422,292.4414 L432,292.4414 C447,292.4414 447,94.7324 462,94.7324 L472,94.7324 " fill="none" style="stroke:#181818;stroke-width:1.0;"/><rect fill="#F1F1F1" height="36.4883" rx="12.5" ry="12.5" style="stroke:#181818;stroke-width:1.5;" width="110" x="472" y="132.9766"/><text fill="#000000" font-family="sans-serif" font-size="14" lengthAdjust="spacing" textLength="90" x="482" y="156.5117">eu-gdpr:A15</text><path d="M422,292.4414 L432,292.4414 C447,292.4414 447,151.2207 462,151.2207 L472,151.2207 " fill="none" style="stroke:#181818;stroke-width:1.0;"/><rect fill="#F1F1F1" height="36.4883" rx="12.5" ry="12.5" style="stroke:#181818;stroke-width:1.5;" width="110" x="472" y="189.4648"/><text fill="#000000" font-family="sans-serif" font-size="14" lengthAdjust="spacing" textLength="90" x="482" y="213">eu-gdpr:A16</text><path d="M422,292.4414 L432,292.4414 C447,292.4414 447,207.709 462,207.709 L472,207.709 " fill="none" style="stroke:#181818;stroke-width:1.0;"/><rect fill="#F1F1F1" height="36.4883" rx="12.5" ry="12.5" style="stroke:#181818;stroke-width:1.5;" width="110" x="472" y="245.9531"/><text fill="#000000" font-family="sans-serif" font-size="14" lengthAdjust="spacing" textLength="90" x="482" y="269.4883">eu-gdpr:A17</text><path d="M422,292.4414 L432,292.4414 C447,292.4414 447,264.1973 462,264.1973 L472,264.1973 " fill="none" style="stroke:#181818;stroke-width:1.0;"/><rect fill="#F1F1F1" height="36.4883" rx="12.5" ry="12.5" style="stroke:#181818;stroke-width:1.5;" width="110" x="472" y="302.4414"/><text fill="#000000" font-family="sans-serif" font-size="14" lengthAdjust="spacing" textLength="90" x="482" y="325.9766">eu-gdpr:A18</text><path d="M422,292.4414 L432,292.4414 C447,292.4414 447,320.6855 462,320.6855 L472,320.6855 " fill="none" style="stroke:#181818;stroke-width:1.0;"/><rect fill="#F1F1F1" height="36.4883" rx="12.5" ry="12.5" style="stroke:#181818;stroke-width:1.5;" width="110" x="472" y="358.9297"/><text fill="#000000" font-family="sans-serif" font-size="14" lengthAdjust="spacing" textLength="90" x="482" y="382.4648">eu-gdpr:A19</text><path d="M422,292.4414 L432,292.4414 C447,292.4414 447,377.1738 462,377.1738 L472,377.1738 " fill="none" style="stroke:#181818;stroke-width:1.0;"/><rect fill="#F1F1F1" height="36.4883" rx="12.5" ry="12.5" style="stroke:#181818;stroke-width:1.5;" width="110" x="472" y="415.418"/><text fill="#000000" font-family="sans-serif" font-size="14" lengthAdjust="spacing" textLength="90" x="482" y="438.9531">eu-gdpr:A20</text><path d="M422,292.4414 L432,292.4414 C447,292.4414 447,433.6621 462,433.6621 L472,433.6621 " fill="none" style="stroke:#181818;stroke-width:1.0;"/><rect fill="#F1F1F1" height="36.4883" rx="12.5" ry="12.5" style="stroke:#181818;stroke-width:1.5;" width="110" x="472" y="471.9063"/><text fill="#000000" font-family="sans-serif" font-size="14" lengthAdjust="spacing" textLength="90" x="482" y="495.4414">eu-gdpr:A21</text><path d="M422,292.4414 L432,292.4414 C447,292.4414 447,490.1504 462,490.1504 L472,490.1504 " fill="none" style="stroke:#181818;stroke-width:1.0;"/><rect fill="#F1F1F1" height="36.4883" rx="12.5" ry="12.5" style="stroke:#181818;stroke-width:1.5;" width="110" x="472" y="528.3945"/><text fill="#000000" font-family="sans-serif" font-size="14" lengthAdjust="spacing" textLength="90" x="482" y="551.9297">eu-gdpr:A22</text><path d="M422,292.4414 L432,292.4414 C447,292.4414 447,546.6387 462,546.6387 L472,546.6387 " fill="none" style="stroke:#181818;stroke-width:1.0;"/><rect fill="#F1F1F1" height="36.4883" rx="12.5" ry="12.5" style="stroke:#181818;stroke-width:1.5;" width="118" x="169" y="132.9766"/><text fill="#000000" font-family="sans-serif" font-size="14" lengthAdjust="spacing" textLength="98" x="179" y="156.5117">eu-gdpr:A7-3</text><path d="M337,292.4414 L327,292.4414 C312,292.4414 312,151.2207 297,151.2207 L287,151.2207 " fill="none" style="stroke:#181818;stroke-width:1.0;"/><rect fill="#F1F1F1" height="36.4883" rx="12.5" ry="12.5" style="stroke:#181818;stroke-width:1.5;" width="110" x="177" y="189.4648"/><text fill="#000000" font-family="sans-serif" font-size="14" lengthAdjust="spacing" textLength="90" x="187" y="213">eu-gdpr:A77</text><path d="M337,292.4414 L327,292.4414 C312,292.4414 312,207.709 297,207.709 L287,207.709 " fill="none" style="stroke:#181818;stroke-width:1.0;"/><rect fill="#F1F1F1" height="36.4883" rx="12.5" ry="12.5" style="stroke:#181818;stroke-width:1.5;" width="265" x="22" y="245.9531"/><text fill="#000000" font-family="sans-serif" font-size="14" lengthAdjust="spacing" textLength="245" x="32" y="269.4883">eu-gdpr:DirectDataCollectionNotice</text><path d="M337,292.4414 L327,292.4414 C312,292.4414 312,264.1973 297,264.1973 L287,264.1973 " fill="none" style="stroke:#181818;stroke-width:1.0;"/><rect fill="#F1F1F1" height="36.4883" rx="12.5" ry="12.5" style="stroke:#181818;stroke-width:1.5;" width="277" x="10" y="302.4414"/><text fill="#000000" font-family="sans-serif" font-size="14" lengthAdjust="spacing" textLength="257" x="20" y="325.9766">eu-gdpr:IndirectDataCollectionNotice</text><path d="M337,292.4414 L327,292.4414 C312,292.4414 312,320.6855 297,320.6855 L287,320.6855 " fill="none" style="stroke:#181818;stroke-width:1.0;"/><rect fill="#F1F1F1" height="36.4883" rx="12.5" ry="12.5" style="stroke:#181818;stroke-width:1.5;" width="238" x="49" y="358.9297"/><text fill="#000000" font-family="sans-serif" font-size="14" lengthAdjust="spacing" textLength="218" x="59" y="382.4648">eu-gdpr:RightsRecipientsNotice</text><path d="M337,292.4414 L327,292.4414 C312,292.4414 312,377.1738 297,377.1738 L287,377.1738 " fill="none" style="stroke:#181818;stroke-width:1.0;"/><rect fill="#F1F1F1" height="36.4883" rx="12.5" ry="12.5" style="stroke:#181818;stroke-width:1.5;" width="152" x="135" y="415.418"/><text fill="#000000" font-family="sans-serif" font-size="14" lengthAdjust="spacing" textLength="132" x="145" y="438.9531">eu-gdpr:SARNotice</text><path d="M337,292.4414 L327,292.4414 C312,292.4414 312,433.6621 297,433.6621 L287,433.6621 " fill="none" style="stroke:#181818;stroke-width:1.0;"/><!--SRC=[xP99Ry8m48Nl_XNJ6mW5aR0s9xOMbP8MiTtTP0WZEKxa1Ob_NzE2mEgbXnvxcs_cUVJqnaDjk385oQpW5NiWcGgR8MXp4jYi19V65e8r8AkEyOhoWs6D1g0DygnIyIXi-zZniUjZpyU-ZmCV7psCMZw6FaOi26xO3ze-z-znIWfJC-M6JqeXN4cbV2iDfNYlUf7PhtHVcUWLfbGHIgD_AjQZrQKvH9Vo9Masz88_a0jzJoWo_LqNQ0xb5L9IgK3D_k_mztTOdl_uDbd04PLsgo5iHgseq-pMrbP2mayGzI1inM4txWxWPRs1yxZEQhFb0dHfLOgGaJQAFkpPMftD-P73oaf31SRmNg6SJr-l3NYIHrAbB9n9DjybDq6l4up9m1gLSmAxX4rnpwqmxaLQPYJp6BQRvs305bpcbkTkDqesATrUTOfXDlu4]--></g></svg>