<svg xmlns="http://www.w3.org/2000/svg" xmlns:xlink="http://www.w3.org/1999/xlink" contentStyleType="text/css" data-diagram-type="CLASS" height="522px" preserveAspectRatio="none" style="width:1670px;height:522px;background:#FFFFFF;" version="1.1" viewBox="0 0 1670 522" width="1670px" zoomAndPan="magnify"><defs/><g><!--cluster dpv--><g class="cluster" data-entity="dpv" data-source-line="4" data-uid="ent0002" id="cluster_dpv"><path d="M8.5,6.602 L35.1899,6.602 A3.75,3.75 0 0 1 37.6899,9.102 L44.6899,31.6699 L1660.5,31.6699 A2.5,2.5 0 0 1 1663,34.1699 L1663,513.302 A2.5,2.5 0 0 1 1660.5,515.802 L8.5,515.802 A2.5,2.5 0 0 1 6,513.302 L6,9.102 A2.5,2.5 0 0 1 8.5,6.602" fill="none" style="stroke:#000000;stroke-width:1.5;"/><line style="stroke:#000000;stroke-width:1.5;" x1="6" x2="44.6899" y1="31.6699" y2="31.6699"/><text fill="#000000" font-family="sans-serif" font-size="14" font-weight="bold" lengthAdjust="spacing" textLength="25.6899" x="10" y="23.5679">dpv</text></g><!--cluster legal--><g class="cluster" data-entity="legal" data-source-line="9" data-uid="ent0007" id="cluster_legal"><path d="M32.5,268.732 L67.4359,268.732 A3.75,3.75 0 0 1 69.9359,271.232 L76.9359,293.7999 L1636.5,293.7999 A2.5,2.5 0 0 1 1639,296.2999 L1639,489.302 A2.5,2.5 0 0 1 1636.5,491.802 L32.5,491.802 A2.5,2.5 0 0 1 30,489.302 L30,271.232 A2.5,2.5 0 0 1 32.5,268.732" fill="none" style="stroke:#000000;stroke-width:1.5;"/><line style="stroke:#000000;stroke-width:1.5;" x1="30" x2="76.9359" y1="293.7999" y2="293.7999"/><text fill="#000000" font-family="sans-serif" font-size="14" font-weight="bold" lengthAdjust="spacing" textLength="33.9359" x="34" y="285.6979">legal</text></g><!--cluster eu--><g class="cluster" data-entity="eu" data-source-line="9" data-uid="ent0008" id="cluster_eu"><path d="M56.5,314.732 L74.9579,314.732 A3.75,3.75 0 0 1 77.4579,317.232 L84.4579,339.7999 L1612.5,339.7999 A2.5,2.5 0 0 1 1615,342.2999 L1615,465.302 A2.5,2.5 0 0 1 1612.5,467.802 L56.5,467.802 A2.5,2.5 0 0 1 54,465.302 L54,317.232 A2.5,2.5 0 0 1 56.5,314.732" fill="none" style="stroke:#000000;stroke-width:1.5;"/><line style="stroke:#000000;stroke-width:1.5;" x1="54" x2="84.4579" y1="339.7999" y2="339.7999"/><text fill="#000000" font-family="sans-serif" font-size="14" font-weight="bold" lengthAdjust="spacing" textLength="17.4579" x="58" y="331.6979">eu</text></g><!--cluster gdpr--><g class="cluster" data-entity="gdpr" data-source-line="8" data-uid="ent0005" id="cluster_gdpr"><path d="M80.5,360.732 L114.3019,360.732 A3.75,3.75 0 0 1 116.8019,363.232 L123.8019,385.7999 L1588.5,385.7999 A2.5,2.5 0 0 1 1591,388.2999 L1591,441.302 A2.5,2.5 0 0 1 1588.5,443.802 L80.5,443.802 A2.5,2.5 0 0 1 78,441.302 L78,363.232 A2.5,2.5 0 0 1 80.5,360.732" fill="none" style="stroke:#000000;stroke-width:1.5;"/><line style="stroke:#000000;stroke-width:1.5;" x1="78" x2="123.8019" y1="385.7999" y2="385.7999"/><text fill="#000000" font-family="sans-serif" font-size="14" font-weight="bold" lengthAdjust="spacing" textLength="32.8019" x="82" y="377.6979">gdpr</text></g><!--class Process--><g class="entity" data-entity="Process" data-source-line="5" data-uid="ent0003" id="entity_Process"><rect fill="#F1F1F1" height="29.0679" rx="2.5" ry="2.5" style="stroke:#181818;stroke-width:0.5;" width="56.7498" x="805.63" y="44.602"/><text fill="#000000" font-family="sans-serif" font-size="14" lengthAdjust="spacing" textLength="50.7498" x="808.63" y="64.5679">Process</text></g><!--class LegalBasis--><g class="entity" data-entity="LegalBasis" data-source-line="6" data-uid="ent0004" id="entity_LegalBasis"><rect fill="#F1F1F1" height="29.0679" rx="2.5" ry="2.5" style="stroke:#181818;stroke-width:0.5;" width="75.2857" x="796.36" y="172.662"/><text fill="#000000" font-family="sans-serif" font-size="14" lengthAdjust="spacing" textLength="69.2857" x="799.36" y="192.6279">LegalBasis</text></g><polygon fill="none" points="834.0017,201.7299,841.0001,221.7305,827.0001,221.7293" style="stroke:#181818;stroke-width:1;"/><line style="stroke:#181818;stroke-width:1;" x1="834.0001" x2="834" y1="221.7299" y2="223.202"/><line style="stroke:#181818;stroke-width:1;" x1="834.0017" x2="834" y1="172.662" y2="152.262"/><!--class A45_3--><g class="entity" data-entity="A45_3" data-source-line="9" data-uid="ent0006" id="entity_A45_3"><rect fill="#F1F1F1" height="29.0679" rx="2.5" ry="2.5" style="stroke:#181818;stroke-width:0.5;" width="43.4778" x="94.26" y="398.732"/><text fill="#000000" font-family="sans-serif" font-size="14" lengthAdjust="spacing" textLength="37.4778" x="97.26" y="418.6979">A45-3</text></g><!--class A46_2_a--><g class="entity" data-entity="A46_2_a" data-source-line="10" data-uid="ent0009" id="entity_A46_2_a"><rect fill="#F1F1F1" height="29.0679" rx="2.5" ry="2.5" style="stroke:#181818;stroke-width:0.5;" width="55.8398" x="173.08" y="398.732"/><text fill="#000000" font-family="sans-serif" font-size="14" lengthAdjust="spacing" textLength="49.8398" x="176.08" y="418.6979">A46-2-a</text></g><!--class A46_2_b--><g class="entity" data-entity="A46_2_b" data-source-line="11" data-uid="ent0010" id="entity_A46_2_b"><rect fill="#F1F1F1" height="29.0679" rx="2.5" ry="2.5" style="stroke:#181818;stroke-width:0.5;" width="56.5958" x="263.7" y="398.732"/><text fill="#000000" font-family="sans-serif" font-size="14" lengthAdjust="spacing" textLength="50.5958" x="266.7" y="418.6979">A46-2-b</text></g><!--class A46_2_c--><g class="entity" data-entity="A46_2_c" data-source-line="12" data-uid="ent0011" id="entity_A46_2_c"><rect fill="#F1F1F1" height="29.0679" rx="2.5" ry="2.5" style="stroke:#181818;stroke-width:0.5;" width="54.7058" x="355.65" y="398.732"/><text fill="#000000" font-family="sans-serif" font-size="14" lengthAdjust="spacing" textLength="48.7058" x="358.65" y="418.6979">A46-2-c</text></g><!--class A46_2_d--><g class="entity" data-entity="A46_2_d" data-source-line="13" data-uid="ent0012" id="entity_A46_2_d"><rect fill="#F1F1F1" height="29.0679" rx="2.5" ry="2.5" style="stroke:#181818;stroke-width:0.5;" width="56.5958" x="445.7" y="398.732"/><text fill="#000000" font-family="sans-serif" font-size="14" lengthAdjust="spacing" textLength="50.5958" x="448.7" y="418.6979">A46-2-d</text></g><!--class A46_2_e--><g class="entity" data-entity="A46_2_e" data-source-line="14" data-uid="ent0013" id="entity_A46_2_e"><rect fill="#F1F1F1" height="29.0679" rx="2.5" ry="2.5" style="stroke:#181818;stroke-width:0.5;" width="55.8818" x="537.06" y="398.732"/><text fill="#000000" font-family="sans-serif" font-size="14" lengthAdjust="spacing" textLength="49.8818" x="540.06" y="418.6979">A46-2-e</text></g><!--class A46_2_f--><g class="entity" data-entity="A46_2_f" data-source-line="15" data-uid="ent0014" id="entity_A46_2_f"><rect fill="#F1F1F1" height="29.0679" rx="2.5" ry="2.5" style="stroke:#181818;stroke-width:0.5;" width="52.8018" x="627.6" y="398.732"/><text fill="#000000" font-family="sans-serif" font-size="14" lengthAdjust="spacing" textLength="46.8018" x="630.6" y="418.6979">A46-2-f</text></g><!--class A46_3_a--><g class="entity" data-entity="A46_3_a" data-source-line="16" data-uid="ent0015" id="entity_A46_3_a"><rect fill="#F1F1F1" height="29.0679" rx="2.5" ry="2.5" style="stroke:#181818;stroke-width:0.5;" width="55.8398" x="715.08" y="398.732"/><text fill="#000000" font-family="sans-serif" font-size="14" lengthAdjust="spacing" textLength="49.8398" x="718.08" y="418.6979">A46-3-a</text></g><!--class A46_3_b--><g class="entity" data-entity="A46_3_b" data-source-line="17" data-uid="ent0016" id="entity_A46_3_b"><rect fill="#F1F1F1" height="29.0679" rx="2.5" ry="2.5" style="stroke:#181818;stroke-width:0.5;" width="56.5958" x="805.7" y="398.732"/><text fill="#000000" font-family="sans-serif" font-size="14" lengthAdjust="spacing" textLength="50.5958" x="808.7" y="418.6979">A46-3-b</text></g><!--class A49_1_a--><g class="entity" data-entity="A49_1_a" data-source-line="18" data-uid="ent0017" id="entity_A49_1_a"><rect fill="#F1F1F1" height="29.0679" rx="2.5" ry="2.5" style="stroke:#181818;stroke-width:0.5;" width="55.8398" x="897.08" y="398.732"/><text fill="#000000" font-family="sans-serif" font-size="14" lengthAdjust="spacing" textLength="49.8398" x="900.08" y="418.6979">A49-1-a</text></g><!--class A49_1_b--><g class="entity" data-entity="A49_1_b" data-source-line="19" data-uid="ent0018" id="entity_A49_1_b"><rect fill="#F1F1F1" height="29.0679" rx="2.5" ry="2.5" style="stroke:#181818;stroke-width:0.5;" width="56.5958" x="987.7" y="398.732"/><text fill="#000000" font-family="sans-serif" font-size="14" lengthAdjust="spacing" textLength="50.5958" x="990.7" y="418.6979">A49-1-b</text></g><!--class A49_1_c--><g class="entity" data-entity="A49_1_c" data-source-line="20" data-uid="ent0019" id="entity_A49_1_c"><rect fill="#F1F1F1" height="29.0679" rx="2.5" ry="2.5" style="stroke:#181818;stroke-width:0.5;" width="54.7058" x="1079.65" y="398.732"/><text fill="#000000" font-family="sans-serif" font-size="14" lengthAdjust="spacing" textLength="48.7058" x="1082.65" y="418.6979">A49-1-c</text></g><!--class A49_1_d--><g class="entity" data-entity="A49_1_d" data-source-line="21" data-uid="ent0020" id="entity_A49_1_d"><rect fill="#F1F1F1" height="29.0679" rx="2.5" ry="2.5" style="stroke:#181818;stroke-width:0.5;" width="56.5958" x="1169.7" y="398.732"/><text fill="#000000" font-family="sans-serif" font-size="14" lengthAdjust="spacing" textLength="50.5958" x="1172.7" y="418.6979">A49-1-d</text></g><!--class A49_1_e--><g class="entity" data-entity="A49_1_e" data-source-line="22" data-uid="ent0021" id="entity_A49_1_e"><rect fill="#F1F1F1" height="29.0679" rx="2.5" ry="2.5" style="stroke:#181818;stroke-width:0.5;" width="55.8818" x="1261.06" y="398.732"/><text fill="#000000" font-family="sans-serif" font-size="14" lengthAdjust="spacing" textLength="49.8818" x="1264.06" y="418.6979">A49-1-e</text></g><!--class A49_1_f--><g class="entity" data-entity="A49_1_f" data-source-line="23" data-uid="ent0022" id="entity_A49_1_f"><rect fill="#F1F1F1" height="29.0679" rx="2.5" ry="2.5" style="stroke:#181818;stroke-width:0.5;" width="52.8018" x="1351.6" y="398.732"/><text fill="#000000" font-family="sans-serif" font-size="14" lengthAdjust="spacing" textLength="46.8018" x="1354.6" y="418.6979">A49-1-f</text></g><!--class A49_1_g--><g class="entity" data-entity="A49_1_g" data-source-line="24" data-uid="ent0023" id="entity_A49_1_g"><rect fill="#F1F1F1" height="29.0679" rx="2.5" ry="2.5" style="stroke:#181818;stroke-width:0.5;" width="56.5958" x="1439.7" y="398.732"/><text fill="#000000" font-family="sans-serif" font-size="14" lengthAdjust="spacing" textLength="50.5958" x="1442.7" y="418.6979">A49-1-g</text></g><!--class A49_2--><g class="entity" data-entity="A49_2" data-source-line="25" data-uid="ent0024" id="entity_A49_2"><rect fill="#F1F1F1" height="29.0679" rx="2.5" ry="2.5" style="stroke:#181818;stroke-width:0.5;" width="43.4778" x="1531.26" y="398.732"/><text fill="#000000" font-family="sans-serif" font-size="14" lengthAdjust="spacing" textLength="37.4778" x="1534.26" y="418.6979">A49-2</text></g><!--link Process to LegalBasis--><g class="link" data-entity-1="Process" data-entity-2="LegalBasis" data-source-line="28" data-uid="lnk25" id="link_Process_LegalBasis"><path codeLine="28" d="M834,74.102 C834,92.822 834,126.652 834,152.262" fill="none" id="Process-LegalBasis" style="stroke:#181818;stroke-width:1;"/><polygon fill="#000000" points="839,118.515,841.9389,109.4699,836.0611,109.4699,839,118.515" style="stroke:#000000;stroke-width:1;"/><text fill="#000000" font-family="sans-serif" font-size="13" lengthAdjust="spacing" textLength="85.8911" x="848" y="118.559">hasLegalBasis</text></g><!--reverse link LegalBasis to A45_3--><g class="link" data-entity-1="LegalBasis" data-entity-2="A45_3" data-source-line="30" data-uid="lnk26" id="link_LegalBasis_A45_3"><path codeLine="30" d="M834,223.202 C834,223.202 213.67,212.082 156,260.732 C114.61,295.652 113.4,367.852 114.91,398.272" fill="none" id="LegalBasis-backto-A45_3" style="stroke:#181818;stroke-width:1;"/></g><!--reverse link LegalBasis to A46_2_a--><g class="link" data-entity-1="LegalBasis" data-entity-2="A46_2_a" data-source-line="31" data-uid="lnk27" id="link_LegalBasis_A46_2_a"><path codeLine="31" d="M834,223.202 C834,223.202 296.73,219.352 246,260.732 C203.47,295.422 199.93,368.402 200.41,398.672" fill="none" id="LegalBasis-backto-A46_2_a" style="stroke:#181818;stroke-width:1;"/></g><!--reverse link LegalBasis to A46_2_b--><g class="link" data-entity-1="LegalBasis" data-entity-2="A46_2_b" data-source-line="32" data-uid="lnk28" id="link_LegalBasis_A46_2_b"><path codeLine="32" d="M834,223.202 C834,223.202 380.9,225.892 338,260.732 C295.31,295.392 291.25,368.392 291.51,398.662" fill="none" id="LegalBasis-backto-A46_2_b" style="stroke:#181818;stroke-width:1;"/></g><!--reverse link LegalBasis to A46_2_c--><g class="link" data-entity-1="LegalBasis" data-entity-2="A46_2_c" data-source-line="33" data-uid="lnk29" id="link_LegalBasis_A46_2_c"><path codeLine="33" d="M834,223.202 C834,223.202 463.02,231.992 428,260.732 C385.57,295.552 381.97,368.452 382.43,398.682" fill="none" id="LegalBasis-backto-A46_2_c" style="stroke:#181818;stroke-width:1;"/></g><!--reverse link LegalBasis to A46_2_d--><g class="link" data-entity-1="LegalBasis" data-entity-2="A46_2_d" data-source-line="34" data-uid="lnk30" id="link_LegalBasis_A46_2_d"><path codeLine="34" d="M834,223.202 C834,223.202 573.86,215.592 520,260.732 C478.07,295.872 473.53,367.952 473.59,398.302" fill="none" id="LegalBasis-backto-A46_2_d" style="stroke:#181818;stroke-width:1;"/></g><!--reverse link LegalBasis to A46_2_e--><g class="link" data-entity-1="LegalBasis" data-entity-2="A46_2_e" data-source-line="35" data-uid="lnk31" id="link_LegalBasis_A46_2_e"><path codeLine="35" d="M834,223.202 C834,223.202 647.81,227.302 610,260.732 C569.09,296.912 564.59,368.412 564.61,398.452" fill="none" id="LegalBasis-backto-A46_2_e" style="stroke:#181818;stroke-width:1;"/></g><!--reverse link LegalBasis to A46_2_f--><g class="link" data-entity-1="LegalBasis" data-entity-2="A46_2_f" data-source-line="36" data-uid="lnk32" id="link_LegalBasis_A46_2_f"><path codeLine="36" d="M834,223.202 C834,223.202 742.63,216.692 698,260.732 C659.39,298.832 654.18,368.642 653.81,398.322" fill="none" id="LegalBasis-backto-A46_2_f" style="stroke:#181818;stroke-width:1;"/></g><!--reverse link LegalBasis to A46_3_a--><g class="link" data-entity-1="LegalBasis" data-entity-2="A46_3_a" data-source-line="37" data-uid="lnk33" id="link_LegalBasis_A46_3_a"><path codeLine="37" d="M834,223.202 C834,223.202 802.63,238.772 788,260.732 C758.18,305.502 747.65,370.542 744.34,398.572" fill="none" id="LegalBasis-backto-A46_3_a" style="stroke:#181818;stroke-width:1;"/></g><!--reverse link LegalBasis to A46_3_b--><g class="link" data-entity-1="LegalBasis" data-entity-2="A46_3_b" data-source-line="38" data-uid="lnk34" id="link_LegalBasis_A46_3_b"><path codeLine="38" d="M834,223.202 C834,223.202 834,354.702 834,398.362" fill="none" id="LegalBasis-backto-A46_3_b" style="stroke:#181818;stroke-width:1;"/></g><!--reverse link LegalBasis to A49_1_a--><g class="link" data-entity-1="LegalBasis" data-entity-2="A49_1_a" data-source-line="39" data-uid="lnk35" id="link_LegalBasis_A49_1_a"><path codeLine="39" d="M834,223.202 C834,223.202 865.37,238.772 880,260.732 C909.82,305.502 920.35,370.542 923.66,398.572" fill="none" id="LegalBasis-backto-A49_1_a" style="stroke:#181818;stroke-width:1;"/></g><!--reverse link LegalBasis to A49_1_b--><g class="link" data-entity-1="LegalBasis" data-entity-2="A49_1_b" data-source-line="40" data-uid="lnk36" id="link_LegalBasis_A49_1_b"><path codeLine="40" d="M834,223.202 C834,223.202 925.1,216.962 970,260.732 C1008.98,298.732 1015.18,368.602 1015.99,398.312" fill="none" id="LegalBasis-backto-A49_1_b" style="stroke:#181818;stroke-width:1;"/></g><!--reverse link LegalBasis to A49_1_c--><g class="link" data-entity-1="LegalBasis" data-entity-2="A49_1_c" data-source-line="41" data-uid="lnk37" id="link_LegalBasis_A49_1_c"><path codeLine="41" d="M834,223.202 C834,223.202 1023.49,226.772 1062,260.732 C1102.96,296.852 1107.43,368.382 1107.39,398.452" fill="none" id="LegalBasis-backto-A49_1_c" style="stroke:#181818;stroke-width:1;"/></g><!--reverse link LegalBasis to A49_1_d--><g class="link" data-entity-1="LegalBasis" data-entity-2="A49_1_d" data-source-line="42" data-uid="lnk38" id="link_LegalBasis_A49_1_d"><path codeLine="42" d="M834,223.202 C834,223.202 1097.43,215.072 1152,260.732 C1193.96,295.842 1198.48,367.932 1198.41,398.302" fill="none" id="LegalBasis-backto-A49_1_d" style="stroke:#181818;stroke-width:1;"/></g><!--reverse link LegalBasis to A49_1_e--><g class="link" data-entity-1="LegalBasis" data-entity-2="A49_1_e" data-source-line="43" data-uid="lnk39" id="link_LegalBasis_A49_1_e"><path codeLine="43" d="M834,223.202 C834,223.202 1208.64,231.712 1244,260.732 C1286.42,295.562 1290.03,368.462 1289.57,398.682" fill="none" id="LegalBasis-backto-A49_1_e" style="stroke:#181818;stroke-width:1;"/></g><!--reverse link LegalBasis to A49_1_f--><g class="link" data-entity-1="LegalBasis" data-entity-2="A49_1_f" data-source-line="44" data-uid="lnk40" id="link_LegalBasis_A49_1_f"><path codeLine="44" d="M834,223.202 C834,223.202 1290.98,225.332 1334,260.732 C1376.31,295.552 1379.36,368.452 1378.68,398.682" fill="none" id="LegalBasis-backto-A49_1_f" style="stroke:#181818;stroke-width:1;"/></g><!--reverse link LegalBasis to A49_1_g--><g class="link" data-entity-1="LegalBasis" data-entity-2="A49_1_g" data-source-line="45" data-uid="lnk41" id="link_LegalBasis_A49_1_g"><path codeLine="45" d="M834,223.202 C834,223.202 1371.23,219.402 1422,260.732 C1464.64,295.452 1468.73,368.412 1468.48,398.672" fill="none" id="LegalBasis-backto-A49_1_g" style="stroke:#181818;stroke-width:1;"/></g><!--reverse link LegalBasis to A49_2--><g class="link" data-entity-1="LegalBasis" data-entity-2="A49_2" data-source-line="46" data-uid="lnk42" id="link_LegalBasis_A49_2"><path codeLine="46" d="M834,223.202 C834,223.202 1456.29,211.782 1514,260.732 C1555.23,295.702 1555.92,367.872 1554.19,398.272" fill="none" id="LegalBasis-backto-A49_2" style="stroke:#181818;stroke-width:1;"/></g><!--SRC=[TT9HIyCm4C3nP_CfOjzJMAE3YGZw9lYmRr2koIKhoxhIj8AetzskpFKQUc_D_zU3W-I-RamOBChOVmNCsm1DFvo2YCUwsKC79-cxyz2-DmViwXuQWx8GeWLp18_Ijf_oMzoP037AVNSs6EF_yGCzX3U8THI_T20F5yXnoBrjktdyzU6nr1AYpCOlfREvRykYXAjiLQ4WiOfObPWXPXApn6nYI0mJSyJSmZJPKoTxQhAdNkovApUtkPtQBEOkLX5BvmmnavWbPXD3OfYO8-OIyyJymegR5Dbuu-Bw7AHIv2ayoGF4-IXVX22dvv_nv-aThDJf5J2zOhfXkcKwCjsjTitierVtcMwPwTp_XkcMwSXqntI_sWln1m00]--></g></svg>