<svg xmlns="http://www.w3.org/2000/svg" xmlns:xlink="http://www.w3.org/1999/xlink" contentStyleType="text/css" data-diagram-type="CLASS" height="461px" preserveAspectRatio="none" style="width:743px;height:461px;background:#FFFFFF;" version="1.1" viewBox="0 0 743 461" width="743px" zoomAndPan="magnify"><defs/><g><!--cluster dpv--><g class="cluster" data-entity="dpv" data-source-line="6" data-uid="ent0003" id="cluster_dpv"><path d="M8.5,101.07 L35.1899,101.07 A3.75,3.75 0 0 1 37.6899,103.57 L44.6899,126.1379 L733.5,126.1379 A2.5,2.5 0 0 1 736,128.6379 L736,451.84 A2.5,2.5 0 0 1 733.5,454.34 L8.5,454.34 A2.5,2.5 0 0 1 6,451.84 L6,103.57 A2.5,2.5 0 0 1 8.5,101.07" fill="none" style="stroke:#000000;stroke-width:1.5;"/><line style="stroke:#000000;stroke-width:1.5;" x1="6" x2="44.6899" y1="126.1379" y2="126.1379"/><text fill="#000000" font-family="sans-serif" font-size="14" font-weight="bold" lengthAdjust="spacing" textLength="25.6899" x="10" y="118.0359">dpv</text></g><!--class Assessment--><g class="entity" data-entity="Assessment" data-source-line="7" data-uid="ent0004" id="entity_Assessment"><rect fill="#F1F1F1" height="29.0679" rx="2.5" ry="2.5" style="stroke:#181818;stroke-width:0.5;" width="84.3577" x="200.82" y="139.07"/><text fill="#000000" font-family="sans-serif" font-size="14" lengthAdjust="spacing" textLength="78.3577" x="203.82" y="159.0359">Assessment</text></g><!--class RiskAssessment--><g class="entity" data-entity="RiskAssessment" data-source-line="8" data-uid="ent0005" id="entity_RiskAssessment"><rect fill="#F1F1F1" height="29.0679" rx="2.5" ry="2.5" style="stroke:#181818;stroke-width:0.5;" width="110.8596" x="109.57" y="229.14"/><text fill="#000000" font-family="sans-serif" font-size="14" lengthAdjust="spacing" textLength="104.8596" x="112.57" y="249.1059">RiskAssessment</text></g><!--class ImpactAssessment--><g class="entity" data-entity="ImpactAssessment" data-source-line="9" data-uid="ent0006" id="entity_ImpactAssessment"><rect fill="#F1F1F1" height="29.0679" rx="2.5" ry="2.5" style="stroke:#181818;stroke-width:0.5;" width="130.4315" x="255.78" y="229.14"/><text fill="#000000" font-family="sans-serif" font-size="14" lengthAdjust="spacing" textLength="124.4315" x="258.78" y="249.1059">ImpactAssessment</text></g><!--class RightsImpactAssessment--><g class="entity" data-entity="RightsImpactAssessment" data-source-line="10" data-uid="ent0007" id="entity_RightsImpactAssessment"><rect fill="#F1F1F1" height="29.0679" rx="2.5" ry="2.5" style="stroke:#181818;stroke-width:0.5;" width="171.7734" x="22.11" y="319.2"/><text fill="#000000" font-family="sans-serif" font-size="14" lengthAdjust="spacing" textLength="165.7734" x="25.11" y="339.1659">RightsImpactAssessment</text></g><!--class DPIA--><g class="entity" data-entity="DPIA" data-source-line="11" data-uid="ent0008" id="entity_DPIA"><rect fill="#F1F1F1" height="29.0679" rx="2.5" ry="2.5" style="stroke:#181818;stroke-width:0.5;" width="38.3819" x="21.81" y="409.27"/><text fill="#000000" font-family="sans-serif" font-size="14" lengthAdjust="spacing" textLength="32.3819" x="24.81" y="429.2359">DPIA</text></g><!--class DataBreachImpactAssessment--><g class="entity" data-entity="DataBreachImpactAssessment" data-source-line="12" data-uid="ent0009" id="entity_DataBreachImpactAssessment"><rect fill="#F1F1F1" height="29.0679" rx="2.5" ry="2.5" style="stroke:#181818;stroke-width:0.5;" width="207.4173" x="95.29" y="409.27"/><text fill="#000000" font-family="sans-serif" font-size="14" lengthAdjust="spacing" textLength="201.4173" x="98.29" y="429.2359">DataBreachImpactAssessment</text></g><!--class FRIA--><g class="entity" data-entity="FRIA" data-source-line="13" data-uid="ent0010" id="entity_FRIA"><rect fill="#F1F1F1" height="29.0679" rx="2.5" ry="2.5" style="stroke:#181818;stroke-width:0.5;" width="35.6659" x="338.17" y="409.27"/><text fill="#000000" font-family="sans-serif" font-size="14" lengthAdjust="spacing" textLength="29.6659" x="341.17" y="429.2359">FRIA</text></g><!--class PIA--><g class="entity" data-entity="PIA" data-source-line="14" data-uid="ent0011" id="entity_PIA"><rect fill="#F1F1F1" height="29.0679" rx="2.5" ry="2.5" style="stroke:#181818;stroke-width:0.5;" width="28.1619" x="228.92" y="319.2"/><text fill="#000000" font-family="sans-serif" font-size="14" lengthAdjust="spacing" textLength="22.1619" x="231.92" y="339.1659">PIA</text></g><!--class DataTransferImpactAssessment--><g class="entity" data-entity="DataTransferImpactAssessment" data-source-line="15" data-uid="ent0012" id="entity_DataTransferImpactAssessment"><rect fill="#F1F1F1" height="29.0679" rx="2.5" ry="2.5" style="stroke:#181818;stroke-width:0.5;" width="216.6852" x="291.66" y="319.2"/><text fill="#000000" font-family="sans-serif" font-size="14" lengthAdjust="spacing" textLength="210.6852" x="294.66" y="339.1659">DataTransferImpactAssessment</text></g><!--class ReviewImpactAssessment--><g class="entity" data-entity="ReviewImpactAssessment" data-source-line="16" data-uid="ent0013" id="entity_ReviewImpactAssessment"><rect fill="#F1F1F1" height="29.0679" rx="2.5" ry="2.5" style="stroke:#181818;stroke-width:0.5;" width="176.6593" x="543.67" y="319.2"/><text fill="#000000" font-family="sans-serif" font-size="14" lengthAdjust="spacing" textLength="170.6593" x="546.67" y="339.1659">ReviewImpactAssessment</text></g><!--class Thing--><g class="entity" data-entity="Thing" data-source-line="5" data-uid="ent0002" id="entity_Thing"><rect fill="#C0C0C0" height="29.0679" rx="2.5" ry="2.5" style="stroke:#181818;stroke-width:0.5;" width="43.3098" x="221.35" y="7"/><text fill="#000000" font-family="sans-serif" font-size="14" lengthAdjust="spacing" textLength="37.3098" x="224.35" y="26.9659">Thing</text></g><!--link Thing to Assessment--><g class="link" data-entity-1="Thing" data-entity-2="Assessment" data-source-line="18" data-uid="lnk14" id="link_Thing_Assessment"><path codeLine="18" d="M243,36.45 C243,61.49 243,113.82 243,138.78" fill="none" id="Thing-Assessment" style="stroke:#181818;stroke-width:1;"/><polygon fill="#000000" points="248,80.923,250.9389,71.8779,245.0611,71.8779,248,80.923" style="stroke:#000000;stroke-width:1;"/><text fill="#000000" font-family="sans-serif" font-size="13" lengthAdjust="spacing" textLength="94.3151" x="257" y="80.967">hasAssessment</text></g><!--reverse link Assessment to RiskAssessment--><g class="link" data-entity-1="Assessment" data-entity-2="RiskAssessment" data-source-line="19" data-uid="lnk15" id="link_Assessment_RiskAssessment"><path codeLine="19" d="M218.8754,181.8346 C204.3054,198.2846 192,212.18 177.36,228.72" fill="none" id="Assessment-backto-RiskAssessment" style="stroke:#181818;stroke-width:1;"/><polygon fill="none" points="230.81,168.36,214.3838,177.8564,223.3669,185.8128,230.81,168.36" style="stroke:#181818;stroke-width:1;"/></g><!--reverse link Assessment to ImpactAssessment--><g class="link" data-entity-1="Assessment" data-entity-2="ImpactAssessment" data-source-line="20" data-uid="lnk16" id="link_Assessment_ImpactAssessment"><path codeLine="20" d="M267.1246,181.8346 C281.6946,198.2846 294,212.18 308.64,228.72" fill="none" id="Assessment-backto-ImpactAssessment" style="stroke:#181818;stroke-width:1;"/><polygon fill="none" points="255.19,168.36,262.6331,185.8128,271.6162,177.8564,255.19,168.36" style="stroke:#181818;stroke-width:1;"/></g><!--reverse link ImpactAssessment to RightsImpactAssessment--><g class="link" data-entity-1="ImpactAssessment" data-entity-2="RightsImpactAssessment" data-source-line="21" data-uid="lnk17" id="link_ImpactAssessment_RightsImpactAssessment"><path codeLine="21" d="M270.6174,265.5016 C230.7374,282.0016 181.41,302.39 141.59,318.85" fill="none" id="ImpactAssessment-backto-RightsImpactAssessment" style="stroke:#181818;stroke-width:1;"/><polygon fill="none" points="287.25,258.62,268.3235,259.9574,272.9113,271.0458,287.25,258.62" style="stroke:#181818;stroke-width:1;"/></g><!--reverse link ImpactAssessment to PIA--><g class="link" data-entity-1="ImpactAssessment" data-entity-2="PIA" data-source-line="22" data-uid="lnk18" id="link_ImpactAssessment_PIA"><path codeLine="22" d="M296.8754,271.9046 C282.3054,288.3546 270,302.25 255.36,318.78" fill="none" id="ImpactAssessment-backto-PIA" style="stroke:#181818;stroke-width:1;"/><polygon fill="none" points="308.81,258.43,292.3838,267.9264,301.3669,275.8828,308.81,258.43" style="stroke:#181818;stroke-width:1;"/></g><!--reverse link ImpactAssessment to DataTransferImpactAssessment--><g class="link" data-entity-1="ImpactAssessment" data-entity-2="DataTransferImpactAssessment" data-source-line="23" data-uid="lnk19" id="link_ImpactAssessment_DataTransferImpactAssessment"><path codeLine="23" d="M345.3611,271.8275 C360.1211,288.2775 372.65,302.25 387.48,318.78" fill="none" id="ImpactAssessment-backto-DataTransferImpactAssessment" style="stroke:#181818;stroke-width:1;"/><polygon fill="none" points="333.34,258.43,340.8953,275.8345,349.8269,267.8205,333.34,258.43" style="stroke:#181818;stroke-width:1;"/></g><!--reverse link ImpactAssessment to ReviewImpactAssessment--><g class="link" data-entity-1="ImpactAssessment" data-entity-2="ReviewImpactAssessment" data-source-line="24" data-uid="lnk20" id="link_ImpactAssessment_ReviewImpactAssessment"><path codeLine="24" d="M387.5987,263.5252 C445.7487,279.9952 524.54,302.31 582.69,318.78" fill="none" id="ImpactAssessment-backto-ReviewImpactAssessment" style="stroke:#181818;stroke-width:1;"/><polygon fill="none" points="370.28,258.62,385.9637,269.2982,389.2338,257.7523,370.28,258.62" style="stroke:#181818;stroke-width:1;"/></g><!--reverse link RightsImpactAssessment to DPIA--><g class="link" data-entity-1="RightsImpactAssessment" data-entity-2="DPIA" data-source-line="25" data-uid="lnk21" id="link_RightsImpactAssessment_DPIA"><path codeLine="25" d="M86.6341,362.8276 C74.1241,379.2776 64.19,392.32 51.62,408.85" fill="none" id="RightsImpactAssessment-backto-DPIA" style="stroke:#181818;stroke-width:1;"/><polygon fill="none" points="97.53,348.5,81.8582,359.1956,91.4099,366.4595,97.53,348.5" style="stroke:#181818;stroke-width:1;"/></g><!--reverse link RightsImpactAssessment to DataBreachImpactAssessment--><g class="link" data-entity-1="RightsImpactAssessment" data-entity-2="DataBreachImpactAssessment" data-source-line="26" data-uid="lnk22" id="link_RightsImpactAssessment_DataBreachImpactAssessment"><path codeLine="26" d="M135.1518,361.0208 C152.1418,377.4708 167.5,392.32 184.58,408.85" fill="none" id="RightsImpactAssessment-backto-DataBreachImpactAssessment" style="stroke:#181818;stroke-width:1;"/><polygon fill="none" points="122.22,348.5,130.9782,365.3313,139.3254,356.7102,122.22,348.5" style="stroke:#181818;stroke-width:1;"/></g><!--reverse link RightsImpactAssessment to FRIA--><g class="link" data-entity-1="RightsImpactAssessment" data-entity-2="FRIA" data-source-line="27" data-uid="lnk23" id="link_RightsImpactAssessment_FRIA"><path codeLine="27" d="M165.7412,354.6539 C208.5012,369.4439 260.6,387.67 320,409.27 C325.77,411.37 332.05,413.71 337.71,415.84" fill="none" id="RightsImpactAssessment-backto-FRIA" style="stroke:#181818;stroke-width:1;"/><polygon fill="none" points="148.73,348.77,163.7799,360.3243,167.7025,348.9835,148.73,348.77" style="stroke:#181818;stroke-width:1;"/></g><!--SRC=[VL71Ri8m33sJh_34WHDym3GXCKr8lI743tYfQIFIf8fDfsdZtsd7WAfDUelVUuwVdr-Cq_QS4x1yMrhL5fsSAwiMbeu2uY6OeXJ8JI0jnZkr45zt-ASNyLMFKDeYCnnAumgOix4D1LMZFc51aDSD_AZPJR9X9kQAdDoHlU7J6CsgjbrYwjOIfzYFNRPvl57mFH3gCgNUxf_gGUCXeECZXQGDQWnzZTYBkaMmNFOMXLSeaNlrMlMAjzzMFCXWI8_c387xBz5iuk9kuJWpkNzYSZoEkA7_APs1IK7wVbDjVqTLLm00]--></g></svg>