<svg xmlns="http://www.w3.org/2000/svg" xmlns:xlink="http://www.w3.org/1999/xlink" contentStyleType="text/css" data-diagram-type="CLASS" height="274px" preserveAspectRatio="none" style="width:695px;height:274px;background:#FFFFFF;" version="1.1" viewBox="0 0 695 274" width="695px" zoomAndPan="magnify"><defs/><g><!--class Thing--><g class="entity" data-entity="Thing" data-source-line="5" data-uid="ent0002" id="entity_Thing"><rect fill="#C0C0C0" height="37.0679" rx="2.5" ry="2.5" style="stroke:#181818;stroke-width:0.5;" width="43.3098" x="7" y="132.54"/><text fill="#000000" font-family="sans-serif" font-size="14" lengthAdjust="spacing" textLength="37.3098" x="10" y="152.5059">Thing</text><line style="stroke:#181818;stroke-width:0.5;" x1="8" x2="49.3098" y1="161.6079" y2="161.6079"/></g><!--class Law--><g class="entity" data-entity="Law" data-source-line="7" data-uid="ent0003" id="entity_Law"><rect fill="#F1F1F1" height="56.1358" rx="2.5" ry="2.5" style="stroke:#181818;stroke-width:0.5;" width="134.6255" x="537.88" y="7"/><text fill="#000000" font-family="sans-serif" font-size="14" lengthAdjust="spacing" textLength="26.1939" x="592.0958" y="26.9659">Law</text><line style="stroke:#181818;stroke-width:0.5;" x1="538.88" x2="671.5055" y1="36.0679" y2="36.0679"/><text fill="#000000" font-family="sans-serif" font-size="14" lengthAdjust="spacing" textLength="122.6255" x="543.88" y="55.0339">IRI foaf:homepage</text></g><!--class Authority--><g class="entity" data-entity="Authority" data-source-line="10" data-uid="ent0004" id="entity_Authority"><rect fill="#F1F1F1" height="56.1358" rx="2.5" ry="2.5" style="stroke:#181818;stroke-width:0.5;" width="134.6255" x="203.31" y="123"/><text fill="#000000" font-family="sans-serif" font-size="14" lengthAdjust="spacing" textLength="61.3618" x="239.9419" y="142.9659">Authority</text><line style="stroke:#181818;stroke-width:0.5;" x1="204.31" x2="336.9355" y1="152.0679" y2="152.0679"/><text fill="#000000" font-family="sans-serif" font-size="14" lengthAdjust="spacing" textLength="122.6255" x="209.31" y="171.0339">IRI foaf:homepage</text></g><!--class DataProtectionAuthority--><g class="entity" data-entity="DataProtectionAuthority" data-source-line="13" data-uid="ent0005" id="entity_DataProtectionAuthority"><rect fill="#F1F1F1" height="56.1358" rx="2.5" ry="2.5" style="stroke:#181818;stroke-width:0.5;" width="166.5234" x="521.94" y="102"/><text fill="#000000" font-family="sans-serif" font-size="14" lengthAdjust="spacing" textLength="160.5234" x="524.94" y="121.9659">DataProtectionAuthority</text><line style="stroke:#181818;stroke-width:0.5;" x1="522.94" x2="687.4634" y1="131.0679" y2="131.0679"/><text fill="#000000" font-family="sans-serif" font-size="14" lengthAdjust="spacing" textLength="122.6255" x="527.94" y="150.0339">IRI foaf:homepage</text></g><!--class Location--><g class="entity" data-entity="Location" data-source-line="16" data-uid="ent0006" id="entity_Location"><rect fill="#F1F1F1" height="37.0679" rx="2.5" ry="2.5" style="stroke:#181818;stroke-width:0.5;" width="62.1678" x="574.11" y="212.54"/><text fill="#000000" font-family="sans-serif" font-size="14" lengthAdjust="spacing" textLength="56.1678" x="577.11" y="232.5059">Location</text><line style="stroke:#181818;stroke-width:0.5;" x1="575.11" x2="635.2778" y1="241.6079" y2="241.6079"/></g><!--link Thing to Law--><g class="link" data-entity-1="Thing" data-entity-2="Law" data-source-line="18" data-uid="lnk7" id="link_Thing_Law"><path codeLine="18" d="M50.8,138.31 C59.68,133.35 70.27,127.94 80.31,124.07 C203.29,76.72 237.81,72.88 367.94,52.07 C424.68,42.99 489.88,38.76 537.39,36.79" fill="none" id="Thing-Law" style="stroke:#181818;stroke-width:1;"/><polygon fill="#000000" points="250.5146,47.0918,241.0599,46.0622,242.2604,51.8161,250.5146,47.0918" style="stroke:#000000;stroke-width:1;"/><text fill="#000000" font-family="sans-serif" font-size="13" lengthAdjust="spacing" textLength="45.877" x="254.62" y="53.157">hasLaw</text></g><!--link Thing to Authority--><g class="link" data-entity-1="Thing" data-entity-2="Authority" data-source-line="19" data-uid="lnk8" id="link_Thing_Authority"><path codeLine="19" d="M50.53,151.07 C84.17,151.07 151.78,151.07 203.04,151.07" fill="none" id="Thing-Authority" style="stroke:#181818;stroke-width:1;"/><polygon fill="#000000" points="90.31,141.923,81.2649,138.9841,81.2649,144.8619,90.31,141.923" style="stroke:#000000;stroke-width:1;"/><text fill="#000000" font-family="sans-serif" font-size="13" lengthAdjust="spacing" textLength="78.5331" x="94.31" y="146.967">hasAuthority</text></g><!--reverse link Authority to DataProtectionAuthority--><g class="link" data-entity-1="Authority" data-entity-2="DataProtectionAuthority" data-source-line="20" data-uid="lnk9" id="link_Authority_DataProtectionAuthority"><path codeLine="20" d="M356.0843,145.737 C408.8843,142.407 465,138.86 521.59,135.28" fill="none" id="Authority-backto-DataProtectionAuthority" style="stroke:#181818;stroke-width:1;"/><polygon fill="none" points="338.12,146.87,356.462,151.7251,355.7066,139.7489,338.12,146.87" style="stroke:#181818;stroke-width:1;"/></g><!--link Authority to Law--><g class="link" data-entity-1="Authority" data-entity-2="Law" data-source-line="21" data-uid="lnk10" id="link_Authority_Law"><path codeLine="21" d="M338.32,125.69 C348.22,122.05 358.33,118.41 367.94,115.07 C422.63,96.04 437.1,93.68 491.94,75.07 C506.73,70.05 522.56,64.51 537.53,59.2" fill="none" id="Authority-Law" style="stroke:#181818;stroke-width:1;"/><polygon fill="#000000" points="377.6828,64.34,368.1725,64.4159,370.0335,69.9914,377.6828,64.34" style="stroke:#000000;stroke-width:1;"/><text fill="#000000" font-family="sans-serif" font-size="13" lengthAdjust="spacing" textLength="109.0961" x="381.94" y="70.967">hasApplicableLaw</text></g><!--link Authority to Location--><g class="link" data-entity-1="Authority" data-entity-2="Location" data-source-line="22" data-uid="lnk11" id="link_Authority_Location"><path codeLine="22" d="M338.12,167.07 C409.78,184.3 520.66,210.97 573.79,223.75" fill="none" id="Authority-Location" style="stroke:#181818;stroke-width:1;"/><polygon fill="#000000" points="387.8014,166.7322,379.6943,161.7597,378.3198,167.4746,387.8014,166.7322" style="stroke:#000000;stroke-width:1;"/><text fill="#000000" font-family="sans-serif" font-size="13" lengthAdjust="spacing" textLength="89.6221" x="391.94" y="170.607">hasJurisdiction</text></g><!--link Location to Authority--><g class="link" data-entity-1="Location" data-entity-2="Authority" data-source-line="23" data-uid="lnk12" id="link_Location_Authority"><path codeLine="23" d="M573.99,237.21 C527.96,245.19 438.17,255.36 367.94,230.07 C339.86,219.96 314.06,197.79 296.25,179.51" fill="none" id="Location-Authority" style="stroke:#181818;stroke-width:1;"/><polygon fill="#000000" points="383.5445,219.906,391.8027,224.6233,392.9983,218.8683,383.5445,219.906" style="stroke:#000000;stroke-width:1;"/><text fill="#000000" font-family="sans-serif" font-size="13" lengthAdjust="spacing" textLength="78.5331" x="397.44" y="225.967">hasAuthority</text></g><!--link Thing to Location--><g class="link" data-entity-1="Thing" data-entity-2="Location" data-source-line="24" data-uid="lnk13" id="link_Thing_Location"><path codeLine="24" d="M50.73,159.99 C83.11,173.45 147.21,199.18 203.31,216.07 C327.2,253.38 363.21,267.12 491.94,254.07 C520.04,251.22 551.51,244.45 573.96,238.99" fill="none" id="Thing-Location" style="stroke:#181818;stroke-width:1;"/><polygon fill="#000000" points="228.564,207.6695,220.059,203.4131,219.1815,209.2251,228.564,207.6695" style="stroke:#000000;stroke-width:1;"/><text fill="#000000" font-family="sans-serif" font-size="13" lengthAdjust="spacing" textLength="89.6221" x="232.62" y="211.967">hasJurisdiction</text></g><!--SRC=[dKzB2i8m4Dtd50EkUu4YGi5DfGiHBp2cqsOWcfAaYgXtjqt4r8K5dTLCtilxAAu9ZkILgPrGuo7PIarEQ6eyU0EMM-MXPalIipa98JKw1tl5fnOMZlMPB0W1mqIamWlSmZrEkIkXCTZaoXofmvO2yfZmYtvmj-olF_rQeyUjDJwc-a-ZCX9ZfzWcoqBu71IwSLcbzsGGq7IkHDgNzu7v9TY4DhKfkawpn8EcQFZ9UkMBr4rlsTKSP0Vc6vnFbvhDYJq1]--></g></svg>