<svg xmlns="http://www.w3.org/2000/svg" xmlns:xlink="http://www.w3.org/1999/xlink" contentStyleType="text/css" data-diagram-type="CLASS" height="392px" preserveAspectRatio="none" style="width:654px;height:392px;background:#FFFFFF;" version="1.1" viewBox="0 0 654 392" width="654px" zoomAndPan="magnify"><defs/><g><!--cluster dpv--><g class="cluster" data-entity="dpv" data-source-line="6" data-uid="ent0004" id="cluster_dpv"><path d="M8.5,101.07 L35.1899,101.07 A3.75,3.75 0 0 1 37.6899,103.57 L44.6899,126.1379 L260.5,126.1379 A2.5,2.5 0 0 1 263,128.6379 L263,379.77 A2.5,2.5 0 0 1 260.5,382.27 L8.5,382.27 A2.5,2.5 0 0 1 6,379.77 L6,103.57 A2.5,2.5 0 0 1 8.5,101.07" fill="none" style="stroke:#000000;stroke-width:1.5;"/><line style="stroke:#000000;stroke-width:1.5;" x1="6" x2="44.6899" y1="126.1379" y2="126.1379"/><text fill="#000000" font-family="sans-serif" font-size="14" font-weight="bold" lengthAdjust="spacing" textLength="25.6899" x="10" y="118.0359">dpv</text></g><!--class Entity--><g class="entity" data-entity="Entity" data-source-line="7" data-uid="ent0005" id="entity_Entity"><rect fill="#F1F1F1" height="29.0679" rx="2.5" ry="2.5" style="stroke:#181818;stroke-width:0.5;" width="43.2959" x="121.35" y="139.07"/><text fill="#000000" font-family="sans-serif" font-size="14" lengthAdjust="spacing" textLength="37.2959" x="124.35" y="159.0359">Entity</text></g><!--class LegalEntity--><g class="entity" data-entity="LegalEntity" data-source-line="8" data-uid="ent0006" id="entity_LegalEntity"><rect fill="#F1F1F1" height="29.0679" rx="2.5" ry="2.5" style="stroke:#181818;stroke-width:0.5;" width="78.6037" x="168.7" y="229.13"/><text fill="#000000" font-family="sans-serif" font-size="14" lengthAdjust="spacing" textLength="72.6037" x="171.7" y="249.0959">LegalEntity</text></g><!--class NaturalPerson--><g class="entity" data-entity="NaturalPerson" data-source-line="9" data-uid="ent0007" id="entity_NaturalPerson"><rect fill="#F1F1F1" height="29.0679" rx="2.5" ry="2.5" style="stroke:#181818;stroke-width:0.5;" width="101.4236" x="27.29" y="229.13"/><text fill="#000000" font-family="sans-serif" font-size="14" lengthAdjust="spacing" textLength="95.4236" x="30.29" y="249.0959">NaturalPerson</text></g><!--class DataSubject--><g class="entity" data-entity="DataSubject" data-source-line="10" data-uid="ent0008" id="entity_DataSubject"><rect fill="#F1F1F1" height="29.0679" rx="2.5" ry="2.5" style="stroke:#181818;stroke-width:0.5;" width="85.2117" x="22.39" y="337.2"/><text fill="#000000" font-family="sans-serif" font-size="14" lengthAdjust="spacing" textLength="79.2117" x="25.39" y="357.1659">DataSubject</text></g><!--class Representative--><g class="entity" data-entity="Representative" data-source-line="11" data-uid="ent0009" id="entity_Representative"><rect fill="#F1F1F1" height="29.0679" rx="2.5" ry="2.5" style="stroke:#181818;stroke-width:0.5;" width="104.7276" x="142.64" y="337.2"/><text fill="#000000" font-family="sans-serif" font-size="14" lengthAdjust="spacing" textLength="98.7276" x="145.64" y="357.1659">Representative</text></g><!--class Thing--><g class="entity" data-entity="Thing" data-source-line="4" data-uid="ent0002" id="entity_Thing"><rect fill="#C0C0C0" height="29.0679" rx="2.5" ry="2.5" style="stroke:#181818;stroke-width:0.5;" width="43.3098" x="121.35" y="7"/><text fill="#000000" font-family="sans-serif" font-size="14" lengthAdjust="spacing" textLength="37.3098" x="124.35" y="26.9659">Thing</text></g><!--entity Resource--><g class="entity" data-entity="Resource" data-source-line="5" data-uid="ent0003" id="entity_Resource"><ellipse cx="427" cy="351.74" fill="#F1F1F1" rx="8" ry="8" style="stroke:#181818;stroke-width:0.5;"/><text fill="#000000" font-family="sans-serif" font-size="14" lengthAdjust="spacing" textLength="60.8298" x="396.5851" y="383.7059">Resource</text></g><!--link Thing to Entity--><g class="link" data-entity-1="Thing" data-entity-2="Entity" data-source-line="14" data-uid="lnk10" id="link_Thing_Entity"><path codeLine="14" d="M143,36.45 C143,61.49 143,113.82 143,138.78" fill="none" id="Thing-Entity" style="stroke:#181818;stroke-width:1;"/><polygon fill="#000000" points="148,80.923,150.9389,71.8779,145.0611,71.8779,148,80.923" style="stroke:#000000;stroke-width:1;"/><text fill="#000000" font-family="sans-serif" font-size="13" lengthAdjust="spacing" textLength="56.1861" x="157" y="80.967">hasEntity</text></g><!--reverse link Entity to LegalEntity--><g class="link" data-entity-1="Entity" data-entity-2="LegalEntity" data-source-line="15" data-uid="lnk11" id="link_Entity_LegalEntity"><path codeLine="15" d="M163.8484,182.843 C175.9884,199.293 185.5,212.18 197.7,228.71" fill="none" id="Entity-backto-LegalEntity" style="stroke:#181818;stroke-width:1;"/><polygon fill="none" points="153.16,168.36,159.0207,186.4058,168.6761,179.2802,153.16,168.36" style="stroke:#181818;stroke-width:1;"/></g><!--link LegalEntity to Resource--><g class="link" data-entity-1="LegalEntity" data-entity-2="Resource" data-source-line="17" data-uid="lnk12" id="link_LegalEntity_Resource"><path codeLine="17" d="M213.68,258.59 C220.28,272.97 232.53,294.99 250,307.2 C304.72,345.47 389.48,350.23 417.59,350.72" fill="none" id="LegalEntity-Resource" style="stroke:#181818;stroke-width:1;"/><polygon fill="#000000" points="259.5565,300.1117,252.5238,293.7092,250.1036,299.0657,259.5565,300.1117" style="stroke:#000000;stroke-width:1;"/><text fill="#000000" font-family="sans-serif" font-size="13" lengthAdjust="spacing" textLength="58.214" x="264" y="303.097">hasName</text></g><!--link LegalEntity to Resource--><g class="link" data-entity-1="LegalEntity" data-entity-2="Resource" data-source-line="18" data-uid="lnk13" id="link_LegalEntity_Resource"><path codeLine="18" d="M247.71,256.89 C271.26,264.69 301.41,275.69 327,288.2 C362.13,305.38 400.51,331.74 417.73,344.01" fill="none" id="LegalEntity-Resource-1" style="stroke:#181818;stroke-width:1;"/><polygon fill="#000000" points="370.5498,300.3331,363.8402,293.5928,361.1598,298.8239,370.5498,300.3331" style="stroke:#000000;stroke-width:1;"/><text fill="#000000" font-family="sans-serif" font-size="13" lengthAdjust="spacing" textLength="68.5881" x="375.1" y="303.097">hasContact</text></g><!--link LegalEntity to Resource--><g class="link" data-entity-1="LegalEntity" data-entity-2="Resource" data-source-line="19" data-uid="lnk14" id="link_LegalEntity_Resource"><path codeLine="19" d="M247.67,245.87 C309.57,248.66 424.67,257.91 450,288.2 C463.65,304.53 445.8,329.69 434.67,342.55" fill="none" id="LegalEntity-Resource-2" style="stroke:#181818;stroke-width:1;"/><polygon fill="#000000" points="464.3715,300.3493,457.6865,293.5846,454.987,298.8059,464.3715,300.3493" style="stroke:#000000;stroke-width:1;"/><text fill="#000000" font-family="sans-serif" font-size="13" lengthAdjust="spacing" textLength="77.8961" x="468.93" y="303.097">hasIdentifier</text></g><!--link LegalEntity to Resource--><g class="link" data-entity-1="LegalEntity" data-entity-2="Resource" data-source-line="20" data-uid="lnk15" id="link_LegalEntity_Resource"><path codeLine="20" d="M247.67,246.74 C334.42,251.67 534.91,265.44 555,288.2 C590.84,328.82 471.69,345.71 436.49,349.74" fill="none" id="LegalEntity-Resource-3" style="stroke:#181818;stroke-width:1;"/><polygon fill="#000000" points="570.9894,300.4474,564.4563,293.5359,561.6415,298.6959,570.9894,300.4474" style="stroke:#000000;stroke-width:1;"/><text fill="#000000" font-family="sans-serif" font-size="13" lengthAdjust="spacing" textLength="71.0061" x="575.6" y="303.097">hasAddress</text></g><!--link LegalEntity to Representative--><g class="link" data-entity-1="LegalEntity" data-entity-2="Representative" data-source-line="21" data-uid="lnk16" id="link_LegalEntity_Representative"><path codeLine="21" d="M168.21,253.14 C135.27,261.05 92.27,273.78 82,288.2 C62.55,315.5 104.35,332.24 142.5,341.45" fill="none" id="LegalEntity-Representative" style="stroke:#181818;stroke-width:1;"/><polygon fill="#000000" points="85.6024,302.8537,90.9525,294.9907,85.3089,293.3477,85.6024,302.8537" style="stroke:#000000;stroke-width:1;"/><text fill="#000000" font-family="sans-serif" font-size="13" lengthAdjust="spacing" textLength="113.2301" x="96" y="303.097">hasRepresentative</text></g><!--reverse link Entity to NaturalPerson--><g class="link" data-entity-1="Entity" data-entity-2="NaturalPerson" data-source-line="23" data-uid="lnk17" id="link_Entity_NaturalPerson"><path codeLine="23" d="M122.1516,182.843 C110.0116,199.293 100.5,212.18 88.3,228.71" fill="none" id="Entity-backto-NaturalPerson" style="stroke:#181818;stroke-width:1;"/><polygon fill="none" points="132.84,168.36,117.3239,179.2802,126.9793,186.4058,132.84,168.36" style="stroke:#181818;stroke-width:1;"/></g><!--reverse link NaturalPerson to DataSubject--><g class="link" data-entity-1="NaturalPerson" data-entity-2="DataSubject" data-source-line="24" data-uid="lnk18" id="link_NaturalPerson_DataSubject"><path codeLine="24" d="M70.5703,276.2477 C68.6303,284.7377 70.34,278.26 69,288.2 C66.76,304.81 65.77,324.06 65.33,336.77" fill="none" id="NaturalPerson-backto-DataSubject" style="stroke:#181818;stroke-width:1;"/><polygon fill="none" points="74.58,258.7,64.721,274.9111,76.4195,277.5843,74.58,258.7" style="stroke:#181818;stroke-width:1;"/></g><!--SRC=[XP3HIWCn44MVdQ-OueFwq7v04K6i3uAKqle3OpBT7KspIp9PADL_DtPtOGDYtp8tvtBlp4oySSaoHZqwNhIElAQ3Wnl7UqLjC4XLAre9R5GQ3s0SnOXljVWAhwEuZWFStk6MOvE2OMZ9V5B5QDiEJt3LuyzUHO_ZzCeLkL9QawP0RiCXvf11N97IBhr_vEXHsd8REB9NKkaOlW7w9lFvaB74ccB_n0SO7lTV-N-Q2fFXrpksFxlNTE3i_GzvQd83enUe5vkBobuuN00VhSrRnR-ewRfdjfIofLYol6CnzS3qfZy0]--></g></svg>