<svg xmlns="http://www.w3.org/2000/svg" xmlns:xlink="http://www.w3.org/1999/xlink" contentStyleType="text/css" height="374px" preserveAspectRatio="none" style="width:662px;height:374px;background:#FFFFFF;" version="1.1" viewBox="0 0 662 374" width="662px" zoomAndPan="magnify"><defs/><g><!--cluster dpv--><g id="cluster_dpv"><path d="M8.5,96.49 L35.5,96.49 A3.75,3.75 0 0 1 38,98.99 L45,118.9783 L263.5,118.9783 A2.5,2.5 0 0 1 266,121.4783 L266,362.45 A2.5,2.5 0 0 1 263.5,364.95 L8.5,364.95 A2.5,2.5 0 0 1 6,362.45 L6,98.99 A2.5,2.5 0 0 1 8.5,96.49 " fill="none" style="stroke:#000000;stroke-width:1.5;"/><line style="stroke:#000000;stroke-width:1.5;" x1="6" x2="45" y1="118.9783" y2="118.9783"/><text fill="#000000" font-family="sans-serif" font-size="14" font-weight="bold" lengthAdjust="spacing" textLength="26" x="10" y="112.0252">dpv</text></g><!--class Entity--><g id="elem_Entity"><rect codeLine="7" fill="#F1F1F1" height="26.4883" id="Entity" rx="2.5" ry="2.5" style="stroke:#181818;stroke-width:0.5;" width="44" x="123" y="131.49"/><text fill="#000000" font-family="sans-serif" font-size="14" lengthAdjust="spacing" textLength="38" x="126" y="150.0252">Entity</text></g><!--class LegalEntity--><g id="elem_LegalEntity"><rect codeLine="8" fill="#F1F1F1" height="26.4883" id="LegalEntity" rx="2.5" ry="2.5" style="stroke:#181818;stroke-width:0.5;" width="80" x="170" y="218.97"/><text fill="#000000" font-family="sans-serif" font-size="14" lengthAdjust="spacing" textLength="74" x="173" y="237.5052">LegalEntity</text></g><!--class NaturalPerson--><g id="elem_NaturalPerson"><rect codeLine="9" fill="#F1F1F1" height="26.4883" id="NaturalPerson" rx="2.5" ry="2.5" style="stroke:#181818;stroke-width:0.5;" width="103" x="27.5" y="218.97"/><text fill="#000000" font-family="sans-serif" font-size="14" lengthAdjust="spacing" textLength="97" x="30.5" y="237.5052">NaturalPerson</text></g><!--class DataSubject--><g id="elem_DataSubject"><rect codeLine="10" fill="#F1F1F1" height="26.4883" id="DataSubject" rx="2.5" ry="2.5" style="stroke:#181818;stroke-width:0.5;" width="87" x="21.5" y="322.46"/><text fill="#000000" font-family="sans-serif" font-size="14" lengthAdjust="spacing" textLength="81" x="24.5" y="340.9952">DataSubject</text></g><!--class Representative--><g id="elem_Representative"><rect codeLine="11" fill="#F1F1F1" height="26.4883" id="Representative" rx="2.5" ry="2.5" style="stroke:#181818;stroke-width:0.5;" width="107" x="143.5" y="322.46"/><text fill="#000000" font-family="sans-serif" font-size="14" lengthAdjust="spacing" textLength="101" x="146.5" y="340.9952">Representative</text></g><!--class Thing--><g id="elem_Thing"><rect codeLine="4" fill="#C0C0C0" height="26.4883" id="Thing" rx="2.5" ry="2.5" style="stroke:#181818;stroke-width:0.5;" width="46" x="122" y="7"/><text fill="#000000" font-family="sans-serif" font-size="14" lengthAdjust="spacing" textLength="40" x="125" y="25.5352">Thing</text></g><!--entity Resource--><g id="elem_Resource"><ellipse cx="430" cy="335.71" fill="#F1F1F1" rx="8" ry="8" style="stroke:#181818;stroke-width:0.5;"/><text fill="#000000" font-family="sans-serif" font-size="14" lengthAdjust="spacing" textLength="63" x="398.5" y="366.2452">Resource</text></g><!--link Thing to Entity--><g id="link_Thing_Entity"><path codeLine="14" d="M145,33.89 C145,57.48 145,107.93 145,131.33 " fill="none" id="Thing-Entity" style="stroke:#181818;stroke-width:1.0;"/><polygon fill="#000000" points="150,77.1453,152.9389,68.1002,147.0611,68.1002,150,77.1453" style="stroke:#000000;stroke-width:1.0;"/><text fill="#000000" font-family="sans-serif" font-size="13" lengthAdjust="spacing" textLength="58" x="159" y="77.0584">hasEntity</text></g><!--reverse link Entity to LegalEntity--><g id="link_Entity_LegalEntity"><path codeLine="15" d="M165.4819,172.6706 C177.7719,188.8406 188.06,202.36 200.37,218.55 " fill="none" id="Entity-backto-LegalEntity" style="stroke:#181818;stroke-width:1.0;"/><polygon fill="none" points="154.59,158.34,160.7051,176.3012,170.2588,169.0399,154.59,158.34" style="stroke:#181818;stroke-width:1.0;"/></g><!--link LegalEntity to Resource--><g id="link_LegalEntity_Resource"><path codeLine="17" d="M215.28,245.7 C221.7,259.32 233.85,280.76 251,292.46 C306.66,330.42 392.17,334.51 420.51,334.77 " fill="none" id="LegalEntity-Resource" style="stroke:#181818;stroke-width:1.0;"/><polygon fill="#000000" points="260.5867,286.1059,253.4594,279.8089,251.1193,285.2008,260.5867,286.1059" style="stroke:#000000;stroke-width:1.0;"/><text fill="#000000" font-family="sans-serif" font-size="13" lengthAdjust="spacing" textLength="58" x="265" y="289.0284">hasName</text></g><!--link LegalEntity to Resource--><g id="link_LegalEntity_Resource"><path codeLine="18" d="M250.33,245.63 C273.47,253.25 302.84,263.77 328,275.46 C363.66,292.03 403.2,317.07 420.75,328.56 " fill="none" id="LegalEntity-Resource-1" style="stroke:#181818;stroke-width:1.0;"/><polygon fill="#000000" points="369.2259,286.3031,362.3787,279.7026,359.8067,284.9879,369.2259,286.3031" style="stroke:#000000;stroke-width:1.0;"/><text fill="#000000" font-family="sans-serif" font-size="13" lengthAdjust="spacing" textLength="71" x="373.73" y="289.0284">hasContact</text></g><!--link LegalEntity to Resource--><g id="link_LegalEntity_Resource"><path codeLine="19" d="M250.49,234.16 C313,236.57 428.46,245.12 454,275.46 C467.01,290.91 449.39,314.34 438.12,326.59 " fill="none" id="LegalEntity-Resource-2" style="stroke:#181818;stroke-width:1.0;"/><polygon fill="#000000" points="468.0753,286.3248,461.2601,279.6913,458.6626,284.9641,468.0753,286.3248" style="stroke:#000000;stroke-width:1.0;"/><text fill="#000000" font-family="sans-serif" font-size="13" lengthAdjust="spacing" textLength="79" x="472.59" y="289.0284">hasIdentifier</text></g><!--link LegalEntity to Resource--><g id="link_LegalEntity_Resource"><path codeLine="20" d="M250.45,235.12 C338.36,239.67 540.66,252.53 561,275.46 C597.44,316.55 474.5,330.77 439.2,333.96 " fill="none" id="LegalEntity-Resource-3" style="stroke:#181818;stroke-width:1.0;"/><polygon fill="#000000" points="577.0594,286.4348,570.4099,279.6352,567.6831,284.8423,577.0594,286.4348" style="stroke:#000000;stroke-width:1.0;"/><text fill="#000000" font-family="sans-serif" font-size="13" lengthAdjust="spacing" textLength="73" x="581.63" y="289.0284">hasAddress</text></g><!--link LegalEntity to Representative--><g id="link_LegalEntity_Representative"><path codeLine="21" d="M169.61,241.18 C136.16,248.7 92.49,260.95 82,275.46 C62.39,302.58 104.57,318.2 143.25,326.52 " fill="none" id="LegalEntity-Representative" style="stroke:#181818;stroke-width:1.0;"/><polygon fill="#000000" points="85.5244,288.8926,91.0018,281.1177,85.3858,279.383,85.5244,288.8926" style="stroke:#000000;stroke-width:1.0;"/><text fill="#000000" font-family="sans-serif" font-size="13" lengthAdjust="spacing" textLength="114" x="96" y="289.0284">hasRepresentative</text></g><!--reverse link Entity to NaturalPerson--><g id="link_Entity_NaturalPerson"><path codeLine="23" d="M124.2622,172.5895 C111.7822,188.7595 101.28,202.36 88.78,218.55 " fill="none" id="Entity-backto-NaturalPerson" style="stroke:#181818;stroke-width:1.0;"/><polygon fill="none" points="135.26,158.34,119.5124,168.9236,129.0121,176.2554,135.26,158.34" style="stroke:#181818;stroke-width:1.0;"/></g><!--reverse link NaturalPerson to DataSubject--><g id="link_NaturalPerson_DataSubject"><path codeLine="24" d="M70.8602,263.0771 C68.6402,271.4371 70.53,265.33 69,275.46 C66.57,291.57 65.61,310.36 65.24,322.39 " fill="none" id="NaturalPerson-backto-DataSubject" style="stroke:#181818;stroke-width:1.0;"/><polygon fill="none" points="75.48,245.68,65.0612,261.5371,76.6592,264.617,75.48,245.68" style="stroke:#181818;stroke-width:1.0;"/></g><!--SRC=[XP3HIWCn44MVdQ-OueFwq7v04K6i3uAKqle3OpBT7KspIp9PADL_DtPtOGDYtp8tvtBlp4oySSaoHZqwNhIElAQ3Wnl7UqLjC4XLAre9R5GQ3s0SnOXljVWAhwEuZWFStk6MOvE2OMZ9V5B5QDiEJt3LuyzUHO_ZzCeLkL9QawP0RiCXvf11N97IBhr_vEXHsd8REB9NKkaOlW7w9lFvaB74ccB_n0SO7lTV-N-Q2fFXrpksFxlNTE3i_GzvQd83enUe5vkBobuuN00VhSrRnR-ewRfdjfIofLYol6CnzS3qfZy0]--></g></svg>