<svg xmlns="http://www.w3.org/2000/svg" xmlns:xlink="http://www.w3.org/1999/xlink" contentStyleType="text/css" data-diagram-type="WBS" height="544px" preserveAspectRatio="none" style="width:3555px;height:544px;background:#FFFFFF;" version="1.1" viewBox="0 0 3555 544" width="3555px" zoomAndPan="magnify"><defs/><g><line style="stroke:#181818;stroke-width:1.5;" x1="53.5823" x2="53.5823" y1="66.3441" y2="86.3441"/><rect fill="#F1F1F1" height="36.3441" style="stroke:#181818;stroke-width:1.5;" width="87.1645" x="10" y="86.3441"/><text fill="#000000" font-family="sans-serif" font-size="12" lengthAdjust="spacing" textLength="67.1645" x="20" y="109.1722">Assessment</text><line style="stroke:#181818;stroke-width:1.5;" x1="53.5823" x2="63.5823" y1="155.8603" y2="155.8603"/><rect fill="#F1F1F1" height="36.3441" style="stroke:#181818;stroke-width:1.5;" width="153.477" x="63.5823" y="137.6882"/><text fill="#000000" font-family="sans-serif" font-size="12" lengthAdjust="spacing" textLength="133.477" x="73.5823" y="160.5163">ComplianceAssessment</text><line style="stroke:#181818;stroke-width:1.5;" x1="53.5823" x2="63.5823" y1="207.2044" y2="207.2044"/><rect fill="#F1F1F1" height="36.3441" style="stroke:#181818;stroke-width:1.5;" width="163.6651" x="63.5823" y="189.0323"/><text fill="#000000" font-family="sans-serif" font-size="12" lengthAdjust="spacing" textLength="143.6651" x="73.5823" y="211.8604">ConformanceAssessment</text><line style="stroke:#181818;stroke-width:1.5;" x1="53.5823" x2="63.5823" y1="258.5485" y2="258.5485"/><rect fill="#F1F1F1" height="36.3441" style="stroke:#181818;stroke-width:1.5;" width="201.4773" x="63.5823" y="240.3765"/><text fill="#000000" font-family="sans-serif" font-size="12" lengthAdjust="spacing" textLength="181.4773" x="73.5823" y="263.2045">DataInteroperabilityAssessment</text><line style="stroke:#181818;stroke-width:1.5;" x1="53.5823" x2="63.5823" y1="309.8926" y2="309.8926"/><rect fill="#F1F1F1" height="36.3441" style="stroke:#181818;stroke-width:1.5;" width="153.8849" x="63.5823" y="291.7206"/><text fill="#000000" font-family="sans-serif" font-size="12" lengthAdjust="spacing" textLength="133.8849" x="73.5823" y="314.5487">DataQualityAssessment</text><line style="stroke:#181818;stroke-width:1.5;" x1="53.5823" x2="63.5823" y1="361.2367" y2="361.2367"/><rect fill="#F1F1F1" height="36.3441" style="stroke:#181818;stroke-width:1.5;" width="239.8536" x="63.5823" y="343.0647"/><text fill="#000000" font-family="sans-serif" font-size="12" lengthAdjust="spacing" textLength="219.8536" x="73.5823" y="365.8928">EffectivenessDeterminationProcedures</text><line style="stroke:#181818;stroke-width:1.5;" x1="53.5823" x2="63.5823" y1="412.5809" y2="412.5809"/><rect fill="#F1F1F1" height="36.3441" style="stroke:#181818;stroke-width:1.5;" width="191.5652" x="63.5823" y="394.4088"/><text fill="#000000" font-family="sans-serif" font-size="12" lengthAdjust="spacing" textLength="171.5652" x="73.5823" y="417.2369">LegitimateInterestAssessment</text><line style="stroke:#181818;stroke-width:1.5;" x1="53.5823" x2="53.5823" y1="122.6882" y2="412.5809"/><line style="stroke:#181818;stroke-width:1.5;" x1="379.3062" x2="379.3062" y1="66.3441" y2="86.3441"/><rect fill="#F1F1F1" height="36.3441" style="stroke:#181818;stroke-width:1.5;" width="111.7407" x="323.4358" y="86.3441"/><text fill="#000000" font-family="sans-serif" font-size="12" lengthAdjust="spacing" textLength="91.7407" x="333.4358" y="109.1722">CertificationSeal</text><line style="stroke:#181818;stroke-width:1.5;" x1="379.3062" x2="389.3062" y1="155.8603" y2="155.8603"/><rect fill="#F1F1F1" height="36.3441" style="stroke:#181818;stroke-width:1.5;" width="88.5565" x="389.3062" y="137.6882"/><text fill="#000000" font-family="sans-serif" font-size="12" lengthAdjust="spacing" textLength="68.5565" x="399.3062" y="160.5163">Certification</text><line style="stroke:#181818;stroke-width:1.5;" x1="379.3062" x2="389.3062" y1="207.2044" y2="207.2044"/><rect fill="#F1F1F1" height="36.3441" style="stroke:#181818;stroke-width:1.5;" width="43.1842" x="389.3062" y="189.0323"/><text fill="#000000" font-family="sans-serif" font-size="12" lengthAdjust="spacing" textLength="23.1842" x="399.3062" y="211.8604">Seal</text><line style="stroke:#181818;stroke-width:1.5;" x1="379.3062" x2="379.3062" y1="122.6882" y2="207.2044"/><line style="stroke:#181818;stroke-width:1.5;" x1="543.7069" x2="543.7069" y1="66.3441" y2="86.3441"/><rect fill="#F1F1F1" height="36.3441" style="stroke:#181818;stroke-width:1.5;" width="91.6885" x="497.8627" y="86.3441"/><text fill="#000000" font-family="sans-serif" font-size="12" lengthAdjust="spacing" textLength="71.6885" x="507.8627" y="109.1722">Consultation</text><line style="stroke:#181818;stroke-width:1.5;" x1="543.7069" x2="553.7069" y1="155.8603" y2="155.8603"/><rect fill="#F1F1F1" height="36.3441" style="stroke:#181818;stroke-width:1.5;" width="170.2891" x="553.7069" y="137.6882"/><text fill="#000000" font-family="sans-serif" font-size="12" lengthAdjust="spacing" textLength="150.2891" x="563.7069" y="160.5163">ConsultationWithAuthority</text><line style="stroke:#181818;stroke-width:1.5;" x1="543.7069" x2="553.7069" y1="207.2044" y2="207.2044"/><rect fill="#F1F1F1" height="36.3441" style="stroke:#181818;stroke-width:1.5;" width="185.5891" x="553.7069" y="189.0323"/><text fill="#000000" font-family="sans-serif" font-size="12" lengthAdjust="spacing" textLength="165.5891" x="563.7069" y="211.8604">ConsultationWithDataSubject</text><line style="stroke:#181818;stroke-width:1.5;" x1="543.7069" x2="553.7069" y1="258.5485" y2="258.5485"/><rect fill="#F1F1F1" height="36.3441" style="stroke:#181818;stroke-width:1.5;" width="143.0849" x="553.7069" y="240.3765"/><text fill="#000000" font-family="sans-serif" font-size="12" lengthAdjust="spacing" textLength="123.0849" x="563.7069" y="263.2045">ConsultationWithDPO</text><line style="stroke:#181818;stroke-width:1.5;" x1="543.7069" x2="543.7069" y1="122.6882" y2="258.5485"/><line style="stroke:#181818;stroke-width:1.5;" x1="809.5684" x2="809.5684" y1="66.3441" y2="86.3441"/><rect fill="#F1F1F1" height="36.3441" style="stroke:#181818;stroke-width:1.5;" width="100.5446" x="759.2961" y="86.3441"/><text fill="#000000" font-family="sans-serif" font-size="12" lengthAdjust="spacing" textLength="80.5446" x="769.2961" y="109.1722">DigitalLiteracy</text><line style="stroke:#181818;stroke-width:1.5;" x1="809.5684" x2="819.5684" y1="155.8603" y2="155.8603"/><rect fill="#F1F1F1" height="36.3441" style="stroke:#181818;stroke-width:1.5;" width="75.7884" x="819.5684" y="137.6882"/><text fill="#000000" font-family="sans-serif" font-size="12" lengthAdjust="spacing" textLength="55.7884" x="829.5684" y="160.5163">AILiteracy</text><line style="stroke:#181818;stroke-width:1.5;" x1="809.5684" x2="819.5684" y1="207.2044" y2="207.2044"/><rect fill="#F1F1F1" height="36.3441" style="stroke:#181818;stroke-width:1.5;" width="90.6085" x="819.5684" y="189.0323"/><text fill="#000000" font-family="sans-serif" font-size="12" lengthAdjust="spacing" textLength="70.6085" x="829.5684" y="211.8604">DataLiteracy</text><line style="stroke:#181818;stroke-width:1.5;" x1="809.5684" x2="809.5684" y1="122.6882" y2="207.2044"/><line style="stroke:#181818;stroke-width:1.5;" x1="1006.2673" x2="1006.2673" y1="66.3441" y2="86.3441"/><rect fill="#F1F1F1" height="36.3441" style="stroke:#181818;stroke-width:1.5;" width="152.181" x="930.1768" y="86.3441"/><text fill="#000000" font-family="sans-serif" font-size="12" lengthAdjust="spacing" textLength="132.181" x="940.1768" y="109.1722">GovernanceProcedures</text><line style="stroke:#181818;stroke-width:1.5;" x1="1006.2673" x2="1016.2673" y1="155.8603" y2="155.8603"/><rect fill="#F1F1F1" height="36.3441" style="stroke:#181818;stroke-width:1.5;" width="190.1852" x="1016.2673" y="137.6882"/><text fill="#000000" font-family="sans-serif" font-size="12" lengthAdjust="spacing" textLength="170.1852" x="1026.2673" y="160.5163">AssetManagementProcedures</text><line style="stroke:#181818;stroke-width:1.5;" x1="1006.2673" x2="1016.2673" y1="207.2044" y2="207.2044"/><rect fill="#F1F1F1" height="36.3441" style="stroke:#181818;stroke-width:1.5;" width="149.4089" x="1016.2673" y="189.0323"/><text fill="#000000" font-family="sans-serif" font-size="12" lengthAdjust="spacing" textLength="129.4089" x="1026.2673" y="211.8604">ComplianceMonitoring</text><line style="stroke:#181818;stroke-width:1.5;" x1="1006.2673" x2="1016.2673" y1="258.5485" y2="258.5485"/><rect fill="#F1F1F1" height="36.3441" style="stroke:#181818;stroke-width:1.5;" width="181.6052" x="1016.2673" y="240.3765"/><text fill="#000000" font-family="sans-serif" font-size="12" lengthAdjust="spacing" textLength="161.6052" x="1026.2673" y="263.2045">DisasterRecoveryProcedures</text><line style="stroke:#181818;stroke-width:1.5;" x1="1006.2673" x2="1016.2673" y1="309.8926" y2="309.8926"/><rect fill="#F1F1F1" height="36.3441" style="stroke:#181818;stroke-width:1.5;" width="206.1573" x="1016.2673" y="291.7206"/><text fill="#000000" font-family="sans-serif" font-size="12" lengthAdjust="spacing" textLength="186.1573" x="1026.2673" y="314.5487">IncidentManagementProcedures</text><line style="stroke:#181818;stroke-width:1.5;" x1="1006.2673" x2="1016.2673" y1="361.2367" y2="361.2367"/><rect fill="#F1F1F1" height="36.3441" style="stroke:#181818;stroke-width:1.5;" width="212.0973" x="1016.2673" y="343.0647"/><text fill="#000000" font-family="sans-serif" font-size="12" lengthAdjust="spacing" textLength="192.0973" x="1026.2673" y="365.8928">IncidentReportingCommunication</text><line style="stroke:#181818;stroke-width:1.5;" x1="1006.2673" x2="1016.2673" y1="412.5809" y2="412.5809"/><rect fill="#F1F1F1" height="36.3441" style="stroke:#181818;stroke-width:1.5;" width="52.5922" x="1016.2673" y="394.4088"/><text fill="#000000" font-family="sans-serif" font-size="12" lengthAdjust="spacing" textLength="32.5922" x="1026.2673" y="417.2369">Policy</text><line style="stroke:#181818;stroke-width:1.5;" x1="1006.2673" x2="1016.2673" y1="463.925" y2="463.925"/><rect fill="#F1F1F1" height="36.3441" style="stroke:#181818;stroke-width:1.5;" width="118.1487" x="1016.2673" y="445.7529"/><text fill="#000000" font-family="sans-serif" font-size="12" lengthAdjust="spacing" textLength="98.1487" x="1026.2673" y="468.581">ReviewProcedure</text><line style="stroke:#181818;stroke-width:1.5;" x1="1006.2673" x2="1016.2673" y1="515.2691" y2="515.2691"/><rect fill="#F1F1F1" height="36.3441" style="stroke:#181818;stroke-width:1.5;" width="153.7649" x="1016.2673" y="497.097"/><text fill="#000000" font-family="sans-serif" font-size="12" lengthAdjust="spacing" textLength="133.7649" x="1026.2673" y="519.9251">StandardsConformance</text><line style="stroke:#181818;stroke-width:1.5;" x1="1006.2673" x2="1006.2673" y1="122.6882" y2="515.2691"/><line style="stroke:#181818;stroke-width:1.5;" x1="1312.539" x2="1312.539" y1="66.3441" y2="86.3441"/><rect fill="#F1F1F1" height="36.3441" style="stroke:#181818;stroke-width:1.5;" width="128.3488" x="1248.3646" y="86.3441"/><text fill="#000000" font-family="sans-serif" font-size="12" lengthAdjust="spacing" textLength="108.3488" x="1258.3646" y="109.1722">GuidelinesPrinciple</text><line style="stroke:#181818;stroke-width:1.5;" x1="1312.539" x2="1322.539" y1="155.8603" y2="155.8603"/><rect fill="#F1F1F1" height="36.3441" style="stroke:#181818;stroke-width:1.5;" width="109.6407" x="1322.539" y="137.6882"/><text fill="#000000" font-family="sans-serif" font-size="12" lengthAdjust="spacing" textLength="89.6407" x="1332.539" y="160.5163">CodeOfConduct</text><line style="stroke:#181818;stroke-width:1.5;" x1="1312.539" x2="1322.539" y1="207.2044" y2="207.2044"/><rect fill="#F1F1F1" height="36.3441" style="stroke:#181818;stroke-width:1.5;" width="110.6846" x="1322.539" y="189.0323"/><text fill="#000000" font-family="sans-serif" font-size="12" lengthAdjust="spacing" textLength="90.6846" x="1332.539" y="211.8604">DesignStandard</text><line style="stroke:#181818;stroke-width:1.5;" x1="1312.539" x2="1322.539" y1="258.5485" y2="258.5485"/><rect fill="#F1F1F1" height="36.3441" style="stroke:#181818;stroke-width:1.5;" width="73.7724" x="1322.539" y="240.3765"/><text fill="#000000" font-family="sans-serif" font-size="12" lengthAdjust="spacing" textLength="53.7724" x="1332.539" y="263.2045">Guideline</text><line style="stroke:#181818;stroke-width:1.5;" x1="1312.539" x2="1322.539" y1="309.8926" y2="309.8926"/><rect fill="#F1F1F1" height="36.3441" style="stroke:#181818;stroke-width:1.5;" width="68.8284" x="1322.539" y="291.7206"/><text fill="#000000" font-family="sans-serif" font-size="12" lengthAdjust="spacing" textLength="48.8284" x="1332.539" y="314.5487">Principle</text><line style="stroke:#181818;stroke-width:1.5;" x1="1312.539" x2="1322.539" y1="361.2367" y2="361.2367"/><rect fill="#F1F1F1" height="36.3441" style="stroke:#181818;stroke-width:1.5;" width="115.1727" x="1322.539" y="343.0647"/><text fill="#000000" font-family="sans-serif" font-size="12" lengthAdjust="spacing" textLength="95.1727" x="1332.539" y="365.8928">PrivacyByDefault</text><line style="stroke:#181818;stroke-width:1.5;" x1="1312.539" x2="1322.539" y1="412.5809" y2="412.5809"/><rect fill="#F1F1F1" height="36.3441" style="stroke:#181818;stroke-width:1.5;" width="113.1086" x="1322.539" y="394.4088"/><text fill="#000000" font-family="sans-serif" font-size="12" lengthAdjust="spacing" textLength="93.1086" x="1332.539" y="417.2369">PrivacyByDesign</text><line style="stroke:#181818;stroke-width:1.5;" x1="1312.539" x2="1312.539" y1="122.6882" y2="412.5809"/><line style="stroke:#181818;stroke-width:1.5;" x1="1485.8798" x2="1485.8798" y1="66.3441" y2="86.3441"/><rect fill="#F1F1F1" height="36.3441" style="stroke:#181818;stroke-width:1.5;" width="56.3363" x="1457.7117" y="86.3441"/><text fill="#000000" font-family="sans-serif" font-size="12" lengthAdjust="spacing" textLength="36.3363" x="1467.7117" y="109.1722">Notice</text><line style="stroke:#181818;stroke-width:1.5;" x1="1485.8798" x2="1495.8798" y1="155.8603" y2="155.8603"/><rect fill="#F1F1F1" height="36.3441" style="stroke:#181818;stroke-width:1.5;" width="130.2688" x="1495.8798" y="137.6882"/><text fill="#000000" font-family="sans-serif" font-size="12" lengthAdjust="spacing" textLength="110.2688" x="1505.8798" y="160.5163">DataTransferNotice</text><line style="stroke:#181818;stroke-width:1.5;" x1="1485.8798" x2="1495.8798" y1="207.2044" y2="207.2044"/><rect fill="#F1F1F1" height="36.3441" style="stroke:#181818;stroke-width:1.5;" width="96.3566" x="1495.8798" y="189.0323"/><text fill="#000000" font-family="sans-serif" font-size="12" lengthAdjust="spacing" textLength="76.3566" x="1505.8798" y="211.8604">PrivacyNotice</text><line style="stroke:#181818;stroke-width:1.5;" x1="1485.8798" x2="1495.8798" y1="258.5485" y2="258.5485"/><rect fill="#F1F1F1" height="36.3441" style="stroke:#181818;stroke-width:1.5;" width="147.6089" x="1495.8798" y="240.3765"/><text fill="#000000" font-family="sans-serif" font-size="12" lengthAdjust="spacing" textLength="127.6089" x="1505.8798" y="263.2045">SecurityIncidentNotice</text><line style="stroke:#181818;stroke-width:1.5;" x1="1485.8798" x2="1485.8798" y1="122.6882" y2="258.5485"/><line style="stroke:#181818;stroke-width:1.5;" x1="1706.303" x2="1706.303" y1="66.3441" y2="86.3441"/><rect fill="#F1F1F1" height="36.3441" style="stroke:#181818;stroke-width:1.5;" width="85.6285" x="1663.4887" y="86.3441"/><text fill="#000000" font-family="sans-serif" font-size="12" lengthAdjust="spacing" textLength="65.6285" x="1673.4887" y="109.1722">Notification</text><line style="stroke:#181818;stroke-width:1.5;" x1="1706.303" x2="1716.303" y1="155.8603" y2="155.8603"/><rect fill="#F1F1F1" height="36.3441" style="stroke:#181818;stroke-width:1.5;" width="176.9011" x="1716.303" y="137.6882"/><text fill="#000000" font-family="sans-serif" font-size="12" lengthAdjust="spacing" textLength="156.9011" x="1726.303" y="160.5163">SecurityIncidentNotification</text><line style="stroke:#181818;stroke-width:1.5;" x1="1706.303" x2="1706.303" y1="122.6882" y2="155.8603"/><line style="stroke:#181818;stroke-width:1.5;" x1="1977.6185" x2="1977.6185" y1="66.3441" y2="86.3441"/><rect fill="#F1F1F1" height="36.3441" style="stroke:#181818;stroke-width:1.5;" width="128.8288" x="1913.2041" y="86.3441"/><text fill="#000000" font-family="sans-serif" font-size="12" lengthAdjust="spacing" textLength="108.8288" x="1923.2041" y="109.1722">RecordsOfActivities</text><line style="stroke:#181818;stroke-width:1.5;" x1="1977.6185" x2="1987.6185" y1="155.8603" y2="155.8603"/><rect fill="#F1F1F1" height="36.3441" style="stroke:#181818;stroke-width:1.5;" width="125.5767" x="1987.6185" y="137.6882"/><text fill="#000000" font-family="sans-serif" font-size="12" lengthAdjust="spacing" textLength="105.5767" x="1997.6185" y="160.5163">DataBreachRecord</text><line style="stroke:#181818;stroke-width:1.5;" x1="1977.6185" x2="1987.6185" y1="207.2044" y2="207.2044"/><rect fill="#F1F1F1" height="36.3441" style="stroke:#181818;stroke-width:1.5;" width="147.5369" x="1987.6185" y="189.0323"/><text fill="#000000" font-family="sans-serif" font-size="12" lengthAdjust="spacing" textLength="127.5369" x="1997.6185" y="211.8604">DataProcessingRecord</text><line style="stroke:#181818;stroke-width:1.5;" x1="1977.6185" x2="1987.6185" y1="258.5485" y2="258.5485"/><rect fill="#F1F1F1" height="36.3441" style="stroke:#181818;stroke-width:1.5;" width="150.8609" x="1987.6185" y="240.3765"/><text fill="#000000" font-family="sans-serif" font-size="12" lengthAdjust="spacing" textLength="130.8609" x="1997.6185" y="263.2045">SecurityIncidentRecord</text><line style="stroke:#181818;stroke-width:1.5;" x1="1977.6185" x2="1977.6185" y1="122.6882" y2="258.5485"/><line style="stroke:#181818;stroke-width:1.5;" x1="2224.0218" x2="2224.0218" y1="66.3441" y2="86.3441"/><rect fill="#F1F1F1" height="36.3441" style="stroke:#181818;stroke-width:1.5;" width="131.0848" x="2158.4794" y="86.3441"/><text fill="#000000" font-family="sans-serif" font-size="12" lengthAdjust="spacing" textLength="111.0848" x="2168.4794" y="109.1722">RightsManagement</text><line style="stroke:#181818;stroke-width:1.5;" x1="2224.0218" x2="2234.0218" y1="155.8603" y2="155.8603"/><rect fill="#F1F1F1" height="36.3441" style="stroke:#181818;stroke-width:1.5;" width="198.9812" x="2234.0218" y="137.6882"/><text fill="#000000" font-family="sans-serif" font-size="12" lengthAdjust="spacing" textLength="178.9812" x="2244.0218" y="160.5163">DataSubjectRightsManagement</text><line style="stroke:#181818;stroke-width:1.5;" x1="2224.0218" x2="2234.0218" y1="207.2044" y2="207.2044"/><rect fill="#F1F1F1" height="36.3441" style="stroke:#181818;stroke-width:1.5;" width="114.4406" x="2234.0218" y="189.0323"/><text fill="#000000" font-family="sans-serif" font-size="12" lengthAdjust="spacing" textLength="94.4406" x="2244.0218" y="211.8604">IPRManagement</text><line style="stroke:#181818;stroke-width:1.5;" x1="2224.0218" x2="2234.0218" y1="258.5485" y2="258.5485"/><rect fill="#F1F1F1" height="36.3441" style="stroke:#181818;stroke-width:1.5;" width="158.217" x="2234.0218" y="240.3765"/><text fill="#000000" font-family="sans-serif" font-size="12" lengthAdjust="spacing" textLength="138.217" x="2244.0218" y="263.2045">PermissionManagement</text><line style="stroke:#181818;stroke-width:1.5;" x1="2224.0218" x2="2224.0218" y1="122.6882" y2="258.5485"/><line style="stroke:#181818;stroke-width:1.5;" x1="2492.0432" x2="2492.0432" y1="66.3441" y2="86.3441"/><rect fill="#F1F1F1" height="36.3441" style="stroke:#181818;stroke-width:1.5;" width="78.0804" x="2453.003" y="86.3441"/><text fill="#000000" font-family="sans-serif" font-size="12" lengthAdjust="spacing" textLength="58.0804" x="2463.003" y="109.1722">Safeguard</text><line style="stroke:#181818;stroke-width:1.5;" x1="2492.0432" x2="2502.0432" y1="155.8603" y2="155.8603"/><rect fill="#F1F1F1" height="36.3441" style="stroke:#181818;stroke-width:1.5;" width="130.6288" x="2502.0432" y="137.6882"/><text fill="#000000" font-family="sans-serif" font-size="12" lengthAdjust="spacing" textLength="110.6288" x="2512.0432" y="160.5163">RegulatorySandbox</text><line style="stroke:#181818;stroke-width:1.5;" x1="2492.0432" x2="2502.0432" y1="207.2044" y2="207.2044"/><rect fill="#F1F1F1" height="36.3441" style="stroke:#181818;stroke-width:1.5;" width="170.457" x="2502.0432" y="189.0323"/><text fill="#000000" font-family="sans-serif" font-size="12" lengthAdjust="spacing" textLength="150.457" x="2512.0432" y="211.8604">SafeguardForDataTransfer</text><line style="stroke:#181818;stroke-width:1.5;" x1="2492.0432" x2="2492.0432" y1="122.6882" y2="207.2044"/><line style="stroke:#181818;stroke-width:1.5;" x1="2754.2806" x2="2754.2806" y1="66.3441" y2="86.3441"/><rect fill="#F1F1F1" height="36.3441" style="stroke:#181818;stroke-width:1.5;" width="123.5607" x="2692.5002" y="86.3441"/><text fill="#000000" font-family="sans-serif" font-size="12" lengthAdjust="spacing" textLength="103.5607" x="2702.5002" y="109.1722">SecurityProcedure</text><line style="stroke:#181818;stroke-width:1.5;" x1="2754.2806" x2="2764.2806" y1="155.8603" y2="155.8603"/><rect fill="#F1F1F1" height="36.3441" style="stroke:#181818;stroke-width:1.5;" width="155.253" x="2764.2806" y="137.6882"/><text fill="#000000" font-family="sans-serif" font-size="12" lengthAdjust="spacing" textLength="135.253" x="2774.2806" y="160.5163">AuthorisationProcedure</text><line style="stroke:#181818;stroke-width:1.5;" x1="2754.2806" x2="2764.2806" y1="207.2044" y2="207.2044"/><rect fill="#F1F1F1" height="36.3441" style="stroke:#181818;stroke-width:1.5;" width="128.1928" x="2764.2806" y="189.0323"/><text fill="#000000" font-family="sans-serif" font-size="12" lengthAdjust="spacing" textLength="108.1928" x="2774.2806" y="211.8604">BackgroundChecks</text><line style="stroke:#181818;stroke-width:1.5;" x1="2754.2806" x2="2764.2806" y1="258.5485" y2="258.5485"/><rect fill="#F1F1F1" height="36.3441" style="stroke:#181818;stroke-width:1.5;" width="167.241" x="2764.2806" y="240.3765"/><text fill="#000000" font-family="sans-serif" font-size="12" lengthAdjust="spacing" textLength="147.241" x="2774.2806" y="263.2045">DataSecurityManagement</text><line style="stroke:#181818;stroke-width:1.5;" x1="2754.2806" x2="2764.2806" y1="309.8926" y2="309.8926"/><rect fill="#F1F1F1" height="36.3441" style="stroke:#181818;stroke-width:1.5;" width="192.2972" x="2764.2806" y="291.7206"/><text fill="#000000" font-family="sans-serif" font-size="12" lengthAdjust="spacing" textLength="172.2972" x="2774.2806" y="314.5487">SecureProcessingEnvironment</text><line style="stroke:#181818;stroke-width:1.5;" x1="2754.2806" x2="2764.2806" y1="361.2367" y2="361.2367"/><rect fill="#F1F1F1" height="36.3441" style="stroke:#181818;stroke-width:1.5;" width="153.897" x="2764.2806" y="343.0647"/><text fill="#000000" font-family="sans-serif" font-size="12" lengthAdjust="spacing" textLength="133.897" x="2774.2806" y="365.8928">SecurityRoleProcedures</text><line style="stroke:#181818;stroke-width:1.5;" x1="2754.2806" x2="2764.2806" y1="412.5809" y2="412.5809"/><rect fill="#F1F1F1" height="36.3441" style="stroke:#181818;stroke-width:1.5;" width="188.2292" x="2764.2806" y="394.4088"/><text fill="#000000" font-family="sans-serif" font-size="12" lengthAdjust="spacing" textLength="168.2292" x="2774.2806" y="417.2369">ThirdPartySecurityProcedures</text><line style="stroke:#181818;stroke-width:1.5;" x1="2754.2806" x2="2754.2806" y1="122.6882" y2="412.5809"/><line style="stroke:#181818;stroke-width:1.5;" x1="3022.9141" x2="3022.9141" y1="66.3441" y2="86.3441"/><rect fill="#F1F1F1" height="36.3441" style="stroke:#181818;stroke-width:1.5;" width="92.6725" x="2976.5778" y="86.3441"/><text fill="#000000" font-family="sans-serif" font-size="12" lengthAdjust="spacing" textLength="72.6725" x="2986.5778" y="109.1722">StaffTraining</text><line style="stroke:#181818;stroke-width:1.5;" x1="3022.9141" x2="3032.9141" y1="155.8603" y2="155.8603"/><rect fill="#F1F1F1" height="36.3441" style="stroke:#181818;stroke-width:1.5;" width="143.7689" x="3032.9141" y="137.6882"/><text fill="#000000" font-family="sans-serif" font-size="12" lengthAdjust="spacing" textLength="123.7689" x="3042.9141" y="160.5163">CybersecurityTraining</text><line style="stroke:#181818;stroke-width:1.5;" x1="3022.9141" x2="3032.9141" y1="207.2044" y2="207.2044"/><rect fill="#F1F1F1" height="36.3441" style="stroke:#181818;stroke-width:1.5;" width="151.7609" x="3032.9141" y="189.0323"/><text fill="#000000" font-family="sans-serif" font-size="12" lengthAdjust="spacing" textLength="131.7609" x="3042.9141" y="211.8604">DataProtectionTraining</text><line style="stroke:#181818;stroke-width:1.5;" x1="3022.9141" x2="3032.9141" y1="258.5485" y2="258.5485"/><rect fill="#F1F1F1" height="36.3441" style="stroke:#181818;stroke-width:1.5;" width="132.6568" x="3032.9141" y="240.3765"/><text fill="#000000" font-family="sans-serif" font-size="12" lengthAdjust="spacing" textLength="112.6568" x="3042.9141" y="263.2045">EducationalTraining</text><line style="stroke:#181818;stroke-width:1.5;" x1="3022.9141" x2="3032.9141" y1="309.8926" y2="309.8926"/><rect fill="#F1F1F1" height="36.3441" style="stroke:#181818;stroke-width:1.5;" width="136.2328" x="3032.9141" y="291.7206"/><text fill="#000000" font-family="sans-serif" font-size="12" lengthAdjust="spacing" textLength="116.2328" x="3042.9141" y="314.5487">ProfessionalTraining</text><line style="stroke:#181818;stroke-width:1.5;" x1="3022.9141" x2="3032.9141" y1="361.2367" y2="361.2367"/><rect fill="#F1F1F1" height="36.3441" style="stroke:#181818;stroke-width:1.5;" width="174.7291" x="3032.9141" y="343.0647"/><text fill="#000000" font-family="sans-serif" font-size="12" lengthAdjust="spacing" textLength="154.7291" x="3042.9141" y="365.8928">SecurityKnowledgeTraining</text><line style="stroke:#181818;stroke-width:1.5;" x1="3022.9141" x2="3022.9141" y1="122.6882" y2="361.2367"/><line style="stroke:#181818;stroke-width:1.5;" x1="3321.1937" x2="3321.1937" y1="66.3441" y2="86.3441"/><rect fill="#F1F1F1" height="36.3441" style="stroke:#181818;stroke-width:1.5;" width="187.1012" x="3227.6432" y="86.3441"/><text fill="#000000" font-family="sans-serif" font-size="12" lengthAdjust="spacing" textLength="167.1012" x="3237.6432" y="109.1722">SupportEntityDecisionMaking</text><line style="stroke:#181818;stroke-width:1.5;" x1="3321.1937" x2="3331.1937" y1="155.8603" y2="155.8603"/><rect fill="#F1F1F1" height="36.3441" style="stroke:#181818;stroke-width:1.5;" width="180.4771" x="3331.1937" y="137.6882"/><text fill="#000000" font-family="sans-serif" font-size="12" lengthAdjust="spacing" textLength="160.4771" x="3341.1937" y="160.5163">SupportContractNegotiation</text><line style="stroke:#181818;stroke-width:1.5;" x1="3321.1937" x2="3331.1937" y1="207.2044" y2="207.2044"/><rect fill="#F1F1F1" height="36.3441" style="stroke:#181818;stroke-width:1.5;" width="165.549" x="3331.1937" y="189.0323"/><text fill="#000000" font-family="sans-serif" font-size="12" lengthAdjust="spacing" textLength="145.549" x="3341.1937" y="211.8604">SupportExchangeOfViews</text><line style="stroke:#181818;stroke-width:1.5;" x1="3321.1937" x2="3331.1937" y1="258.5485" y2="258.5485"/><rect fill="#F1F1F1" height="36.3441" style="stroke:#181818;stroke-width:1.5;" width="212.9374" x="3331.1937" y="240.3765"/><text fill="#000000" font-family="sans-serif" font-size="12" lengthAdjust="spacing" textLength="192.9374" x="3341.1937" y="263.2045">SupportInformedConsentDecision</text><line style="stroke:#181818;stroke-width:1.5;" x1="3321.1937" x2="3321.1937" y1="122.6882" y2="258.5485"/><line style="stroke:#181818;stroke-width:1.5;" x1="53.5823" x2="3321.1937" y1="66.3441" y2="66.3441"/><rect fill="#F1F1F1" height="36.3441" style="stroke:#181818;stroke-width:1.5;" width="152.6369" x="1611.0695" y="10"/><text fill="#000000" font-family="sans-serif" font-size="12" lengthAdjust="spacing" textLength="132.6369" x="1621.0695" y="32.8281">OrganisationalMeasure</text><line style="stroke:#181818;stroke-width:1.5;" x1="1687.388" x2="1687.388" y1="46.3441" y2="66.3441"/><!--SRC=[TLNRKk9047tFLypZIfMMKhhbyYGtBHGacw3xF4mwOTRGGyq5vU-t9nT88lj6-lISENswUtWmbclxkJP1q6DBdN6KXbkfaESBuCPf27ezDZG6ZDa2MlhgiR7QxdB9KS0t05EbjsUG2RTyXXQqse7cQvbBUpYJyjlnCyWqJK5OkGUaw0I8PIknK1bg9I0XbQP8d4CchTno2yLTO6oBYOr1MvbAKPoDWUUbwcQqY5IGhyUut9w0Pk2Fj9kXinkbIV5Pr5SKk_LV4dyU3vV-beaarJoVIvBCHKardBK-FLCZm9xK7ZHwdpiE-7hjWYFFm1VTGK-DMoYKbfHZLl9JrmtHHo0yyw5pReP29aJtN-8w8OAT8ZCnevks3fkUXYgNLJKHx2Ly7YbAoot7XEl4D6QegDGHSIwfyo6f5NANGrLA0ikKaXDNkJi18pEiUOhGyN2fe4L0NtjoStIOGCgfAzsW9_C2NfML0evTM6cE9WNT25U76f4OXFDJKTjoX0gspgXzJsqaCDyHScMP3lq6q7HNZdij8mrSRCgCOx2mrHZgGGFetdA4M2IpZJMdnXvvgi4zYy_2g1C9_KxIhGfR08jv2fch-n7HxvpJt1rYwj9QVPNYwfn7fPiM1mtXxM6friwqtu026d7naMdbC1blG7oSpAgPEiABC9nCc-9UQeLjd8v5Ak_ksceZTHBIytdufj84vKYdAHKZiLwpyM4DsbJ9BQJgdFNldC8MDAK9hvxaLfpIKoWixm2rcXTKdpaa6JHG5hkTNz4fMigOW91bppwEXqkS5ilIOsDV8QE1R8nhTVnBR3Xcj87ljCcc2SsAzON4FtPaOdr543m09iKVJPXpj6-BEQENnaFivgf_tR-xklqHSykU7RB-FRlf3wv_3VftR1Qlc8SlWXzFuPmPvRG0baXZjLmxB-mYUEPxpY97DMrXm9OxmEV9InrWpPO-lozE2JzlBqVIab-QbB3tHL0z1NH2g8GS6R2trUFbVJ2dMXrDpO011cCQBgiF0_Oq-WS0]--></g></svg>