<svg xmlns="http://www.w3.org/2000/svg" xmlns:xlink="http://www.w3.org/1999/xlink" contentStyleType="text/css" data-diagram-type="CLASS" height="399px" preserveAspectRatio="none" style="width:581px;height:399px;background:#FFFFFF;" version="1.1" viewBox="0 0 581 399" width="581px" zoomAndPan="magnify"><defs/><g><!--cluster dpv--><g class="cluster" data-entity="dpv" data-source-line="6" data-uid="ent0003" id="cluster_dpv"><path d="M8.5,109.07 L35.1899,109.07 A3.75,3.75 0 0 1 37.6899,111.57 L44.6899,134.1379 L438.5,134.1379 A2.5,2.5 0 0 1 441,136.6379 L441,389.98 A2.5,2.5 0 0 1 438.5,392.48 L8.5,392.48 A2.5,2.5 0 0 1 6,389.98 L6,111.57 A2.5,2.5 0 0 1 8.5,109.07" fill="none" style="stroke:#000000;stroke-width:1.5;"/><line style="stroke:#000000;stroke-width:1.5;" x1="6" x2="44.6899" y1="134.1379" y2="134.1379"/><text fill="#000000" font-family="sans-serif" font-size="14" font-weight="bold" lengthAdjust="spacing" textLength="25.6899" x="10" y="126.0359">dpv</text></g><!--class Location--><g class="entity" data-entity="Location" data-source-line="7" data-uid="ent0004" id="entity_Location"><rect fill="#F1F1F1" height="113.3396" rx="2.5" ry="2.5" style="stroke:#181818;stroke-width:0.5;" width="134.4435" x="86.78" y="147.07"/><text fill="#000000" font-family="sans-serif" font-size="14" lengthAdjust="spacing" textLength="56.1678" x="125.9179" y="167.0359">Location</text><line style="stroke:#181818;stroke-width:0.5;" x1="87.78" x2="220.2235" y1="176.1379" y2="176.1379"/><text fill="#000000" font-family="sans-serif" font-size="14" lengthAdjust="spacing" textLength="112.6296" x="92.78" y="195.1039">String iso_alpha2</text><text fill="#000000" font-family="sans-serif" font-size="14" lengthAdjust="spacing" textLength="112.6296" x="92.78" y="214.1718">String iso_alpha3</text><text fill="#000000" font-family="sans-serif" font-size="14" lengthAdjust="spacing" textLength="122.4435" x="92.78" y="233.2397">String iso_numeric</text><text fill="#000000" font-family="sans-serif" font-size="14" lengthAdjust="spacing" textLength="95.6616" x="92.78" y="252.3076">String un_m49</text></g><!--class City--><g class="entity" data-entity="City" data-source-line="13" data-uid="ent0005" id="entity_City"><rect fill="#F1F1F1" height="37.0679" rx="2.5" ry="2.5" style="stroke:#181818;stroke-width:0.5;" width="30.6539" x="39.67" y="339.41"/><text fill="#000000" font-family="sans-serif" font-size="14" lengthAdjust="spacing" textLength="24.6539" x="42.67" y="359.3759">City</text><line style="stroke:#181818;stroke-width:0.5;" x1="40.67" x2="69.3239" y1="368.4779" y2="368.4779"/></g><!--class Region--><g class="entity" data-entity="Region" data-source-line="14" data-uid="ent0006" id="entity_Region"><rect fill="#F1F1F1" height="37.0679" rx="2.5" ry="2.5" style="stroke:#181818;stroke-width:0.5;" width="51.9478" x="105.03" y="339.41"/><text fill="#000000" font-family="sans-serif" font-size="14" lengthAdjust="spacing" textLength="45.9478" x="108.03" y="359.3759">Region</text><line style="stroke:#181818;stroke-width:0.5;" x1="106.03" x2="155.9778" y1="368.4779" y2="368.4779"/></g><!--class Country--><g class="entity" data-entity="Country" data-source-line="15" data-uid="ent0007" id="entity_Country"><rect fill="#F1F1F1" height="37.0679" rx="2.5" ry="2.5" style="stroke:#181818;stroke-width:0.5;" width="58.5978" x="191.7" y="339.41"/><text fill="#000000" font-family="sans-serif" font-size="14" lengthAdjust="spacing" textLength="52.5978" x="194.7" y="359.3759">Country</text><line style="stroke:#181818;stroke-width:0.5;" x1="192.7" x2="249.2978" y1="368.4779" y2="368.4779"/></g><!--class SupraNationalUnion--><g class="entity" data-entity="SupraNationalUnion" data-source-line="16" data-uid="ent0008" id="entity_SupraNationalUnion"><rect fill="#F1F1F1" height="37.0679" rx="2.5" ry="2.5" style="stroke:#181818;stroke-width:0.5;" width="139.9515" x="285.02" y="339.41"/><text fill="#000000" font-family="sans-serif" font-size="14" lengthAdjust="spacing" textLength="133.9515" x="288.02" y="359.3759">SupraNationalUnion</text><line style="stroke:#181818;stroke-width:0.5;" x1="286.02" x2="423.9715" y1="368.4779" y2="368.4779"/></g><!--class Thing--><g class="entity" data-entity="Thing" data-source-line="4" data-uid="ent0002" id="entity_Thing"><rect fill="#C0C0C0" height="37.0679" rx="2.5" ry="2.5" style="stroke:#181818;stroke-width:0.5;" width="43.3098" x="132.35" y="7"/><text fill="#000000" font-family="sans-serif" font-size="14" lengthAdjust="spacing" textLength="37.3098" x="135.35" y="26.9659">Thing</text><line style="stroke:#181818;stroke-width:0.5;" x1="133.35" x2="174.6598" y1="36.0679" y2="36.0679"/></g><!--class EU_Vocabularies--><g class="entity" data-entity="EU_Vocabularies" data-source-line="25" data-uid="ent0015" id="entity_EU_Vocabularies"><rect fill="#F1F1F1" height="37.0679" rx="2.5" ry="2.5" style="stroke:#181818;stroke-width:0.5;" width="114.4016" x="459.8" y="339.41"/><text fill="#000000" font-family="sans-serif" font-size="14" lengthAdjust="spacing" textLength="108.4016" x="462.8" y="359.3759">EU_Vocabularies</text><line style="stroke:#181818;stroke-width:0.5;" x1="460.8" x2="573.2016" y1="368.4779" y2="368.4779"/></g><!--link Thing to Location--><g class="link" data-entity-1="Thing" data-entity-2="Location" data-source-line="19" data-uid="lnk9" id="link_Thing_Location"><path codeLine="19" d="M154,44.4 C154,68.2 154,111.4 154,146.67" fill="none" id="Thing-Location" style="stroke:#181818;stroke-width:1;"/><polygon fill="#000000" points="159,88.923,161.9389,79.8779,156.0611,79.8779,159,88.923" style="stroke:#000000;stroke-width:1;"/><text fill="#000000" font-family="sans-serif" font-size="13" lengthAdjust="spacing" textLength="73.7101" x="168" y="88.967">hasLocation</text></g><!--link Location to City--><g class="link" data-entity-1="Location" data-entity-2="City" data-source-line="20" data-uid="lnk10" id="link_Location_City"><path codeLine="20" d="M88.72,260.84 C80.8,270.04 73.56,280 68,290.41 C59.91,305.57 56.82,325.08 55.66,339.05" fill="none" id="Location-City" style="stroke:#181818;stroke-width:1;stroke-dasharray:7,7;"/><polygon fill="#000000" points="71.0532,304.8685,77.282,297.6814,71.8679,295.3928,71.0532,304.8685" style="stroke:#000000;stroke-width:1;"/><text fill="#000000" font-family="sans-serif" font-size="13" lengthAdjust="spacing" textLength="47.97" x="82" y="305.307">rdf:type</text></g><!--link Location to Region--><g class="link" data-entity-1="Location" data-entity-2="Region" data-source-line="21" data-uid="lnk11" id="link_Location_Region"><path codeLine="21" d="M145.57,260.55 C141.39,288.21 136.62,319.73 133.72,338.98" fill="none" id="Location-Region" style="stroke:#181818;stroke-width:1;stroke-dasharray:7,7;"/><polygon fill="#000000" points="144.693,305.2069,148.9503,296.7024,143.1384,295.8243,144.693,305.2069" style="stroke:#000000;stroke-width:1;"/><text fill="#000000" font-family="sans-serif" font-size="13" lengthAdjust="spacing" textLength="47.97" x="154.44" y="305.307">rdf:type</text></g><!--link Location to Country--><g class="link" data-entity-1="Location" data-entity-2="Country" data-source-line="22" data-uid="lnk12" id="link_Location_Country"><path codeLine="22" d="M195.13,260.56 C200.83,270.16 206.07,280.31 210,290.41 C216.16,306.23 218.87,325.48 220.06,339.19" fill="none" id="Location-Country" style="stroke:#181818;stroke-width:1;stroke-dasharray:7,7;"/><polygon fill="#000000" points="221.8311,305.0292,221.899,295.5189,216.296,297.2953,221.8311,305.0292" style="stroke:#000000;stroke-width:1;"/><text fill="#000000" font-family="sans-serif" font-size="13" lengthAdjust="spacing" textLength="47.97" x="229.32" y="305.307">rdf:type</text></g><!--link Location to SupraNationalUnion--><g class="link" data-entity-1="Location" data-entity-2="SupraNationalUnion" data-source-line="23" data-uid="lnk13" id="link_Location_SupraNationalUnion"><path codeLine="23" d="M221.6,245.63 C242.48,259.13 265.18,274.73 285,290.41 C304.19,305.61 324.26,325.11 337.97,339.07" fill="none" id="Location-SupraNationalUnion" style="stroke:#181818;stroke-width:1;stroke-dasharray:7,7;"/><polygon fill="#000000" points="316.0887,303.3935,310.8759,295.4388,307.1958,300.022,316.0887,303.3935" style="stroke:#000000;stroke-width:1;"/><text fill="#000000" font-family="sans-serif" font-size="13" lengthAdjust="spacing" textLength="47.97" x="321.19" y="305.307">rdf:type</text></g><!--link Location to Location--><g class="link" data-entity-1="Location" data-entity-2="Location" data-source-line="24" data-uid="lnk14" id="link_Location_Location"><path codeLine="24" d="M221.34,185.76 C241,186.39 256.22,192.38 256.22,203.74 C256.22,215.11 241,221.1 221.34,221.72" fill="none" id="Location-Location" style="stroke:#181818;stroke-width:1;"/><text fill="#000000" font-family="sans-serif" font-size="13" lengthAdjust="spacing" textLength="79.9631" x="309.241" y="182.637">skos:broader</text><text fill="#000000" font-family="sans-serif" font-size="13" lengthAdjust="spacing" textLength="87.5941" x="305.4255" y="200.343">skos:narrower</text><text fill="#000000" font-family="sans-serif" font-size="13" lengthAdjust="spacing" textLength="78.2861" x="310.0795" y="218.049">skos:sameAs</text><polygon fill="#000000" points="267.3801,235.7085,270.0279,226.5739,264.153,226.7622,267.3801,235.7085" style="stroke:#000000;stroke-width:1;"/><text fill="#000000" font-family="sans-serif" font-size="13" lengthAdjust="spacing" textLength="161.0051" x="275.22" y="235.7551">dpv:hasInverseJurisdiction</text></g><!--link Location to EU_Vocabularies--><g class="link" data-entity-1="Location" data-entity-2="EU_Vocabularies" data-source-line="25" data-uid="lnk16" id="link_Location_EU_Vocabularies"><path codeLine="25" d="M221.38,229.09 C265.91,245.56 325.35,268.26 377,290.41 C412.86,305.79 453.01,325.1 481.09,338.94" fill="none" id="Location-EU_Vocabularies" style="stroke:#181818;stroke-width:1;stroke-dasharray:7,7;"/><polygon fill="#000000" points="425.475,302.2108,418.2894,295.9805,415.9996,301.394,425.475,302.2108" style="stroke:#000000;stroke-width:1;"/><text fill="#000000" font-family="sans-serif" font-size="13" lengthAdjust="spacing" textLength="101.2311" x="429.87" y="305.307">skos:exactMatch</text></g><!--SRC=[TL6nJiCm4Dtz5PQOsm5Oo82440C862XbgXHTxIEswjZHdLseKFyT9oaXbEOcltlFUk_fZDKeQumcQ1Qc1SgISiX2A0VCyjLONyapjcwB94G3QWCLIjrivPUGUNhPOr0GRV27PJkBIErNow44rnWudsGkJZ4-rKXM7LF9b_NbLRVTZ_nlRToDu0jMESoO3yb76aiMgI5uxaA3M_fMlXUYhpkR_HOgf04UqBKOdlDvvve5fD-Bk6lmYEr3JFE7JDE2_n4dj7_pyYPmiQO06cdbE-I1A7mCaA766rxvVCKYjxlt-RQC3uaiQwjE5BrRbcyPhfC3iiW_9lW9AZv1L2Rhlm40]--></g></svg>