<svg xmlns="http://www.w3.org/2000/svg" xmlns:xlink="http://www.w3.org/1999/xlink" contentStyleType="text/css" data-diagram-type="CLASS" height="194px" preserveAspectRatio="none" style="width:564px;height:194px;background:#FFFFFF;" version="1.1" viewBox="0 0 564 194" width="564px" zoomAndPan="magnify"><defs/><g><!--cluster dpv--><g class="cluster" data-entity="dpv" data-source-line="6" data-uid="ent0003" id="cluster_dpv"><path d="M209.63,6.602 L236.3199,6.602 A3.75,3.75 0 0 1 238.8199,9.102 L245.8199,31.6699 L555.41,31.6699 A2.5,2.5 0 0 1 557.91,34.1699 L557.91,152.102 A2.5,2.5 0 0 1 555.41,154.602 L209.63,154.602 A2.5,2.5 0 0 1 207.13,152.102 L207.13,9.102 A2.5,2.5 0 0 1 209.63,6.602" fill="none" style="stroke:#000000;stroke-width:1.5;"/><line style="stroke:#000000;stroke-width:1.5;" x1="207.13" x2="245.8199" y1="31.6699" y2="31.6699"/><text fill="#000000" font-family="sans-serif" font-size="14" font-weight="bold" lengthAdjust="spacing" textLength="25.6899" x="211.13" y="23.5679">dpv</text></g><!--class Location--><g class="entity" data-entity="Location" data-source-line="7" data-uid="ent0004" id="entity_Location"><rect fill="#F1F1F1" height="29.0679" rx="2.5" ry="2.5" style="stroke:#181818;stroke-width:0.5;" width="62.1678" x="225.73" y="45.072"/><text fill="#000000" font-family="sans-serif" font-size="14" lengthAdjust="spacing" textLength="56.1678" x="228.73" y="65.0379">Location</text></g><!--class Authority--><g class="entity" data-entity="Authority" data-source-line="8" data-uid="ent0005" id="entity_Authority"><rect fill="#F1F1F1" height="29.0679" rx="2.5" ry="2.5" style="stroke:#181818;stroke-width:0.5;" width="67.3618" x="223.13" y="109.072"/><text fill="#000000" font-family="sans-serif" font-size="14" lengthAdjust="spacing" textLength="61.3618" x="226.13" y="129.0379">Authority</text></g><!--class Law--><g class="entity" data-entity="Law" data-source-line="9" data-uid="ent0006" id="entity_Law"><rect fill="#F1F1F1" height="29.0679" rx="2.5" ry="2.5" style="stroke:#181818;stroke-width:0.5;" width="32.1939" x="496.51" y="45.072"/><text fill="#000000" font-family="sans-serif" font-size="14" lengthAdjust="spacing" textLength="26.1939" x="499.51" y="65.0379">Law</text></g><!--class Country--><g class="entity" data-entity="Country" data-source-line="10" data-uid="ent0007" id="entity_Country"><rect fill="#F1F1F1" height="29.0679" rx="2.5" ry="2.5" style="stroke:#181818;stroke-width:0.5;" width="58.5978" x="483.31" y="109.072"/><text fill="#000000" font-family="sans-serif" font-size="14" lengthAdjust="spacing" textLength="52.5978" x="486.31" y="129.0379">Country</text></g><!--class Thing--><g class="entity" data-entity="Thing" data-source-line="5" data-uid="ent0002" id="entity_Thing"><rect fill="#C0C0C0" height="29.0679" rx="2.5" ry="2.5" style="stroke:#181818;stroke-width:0.5;" width="43.3098" x="7" y="104.072"/><text fill="#000000" font-family="sans-serif" font-size="14" lengthAdjust="spacing" textLength="37.3098" x="10" y="124.0379">Thing</text></g><!--reverse link Location to Country--><g class="link" data-entity-1="Location" data-entity-2="Country" data-source-line="12" data-uid="lnk8" id="link_Location_Country"><path codeLine="12" d="M305.6232,71.665 C355.0932,84.145 434.95,104.282 483.16,116.432" fill="none" id="Location-backto-Country" style="stroke:#181818;stroke-width:1;"/><polygon fill="none" points="288.17,67.262,304.1555,77.4827,307.0908,65.8472,288.17,67.262" style="stroke:#181818;stroke-width:1;"/></g><!--link Thing to Authority--><g class="link" data-entity-1="Thing" data-entity-2="Authority" data-source-line="13" data-uid="lnk9" id="link_Thing_Authority"><path codeLine="13" d="M50.35,120.052 C59.52,120.642 70.45,121.262 80.31,121.602 C129.95,123.362 187.52,123.692 222.81,123.702" fill="none" id="Thing-Authority" style="stroke:#181818;stroke-width:1;"/><polygon fill="#000000" points="95.8089,112.5608,86.828,109.4311,86.7036,115.3077,95.8089,112.5608" style="stroke:#000000;stroke-width:1;"/><text fill="#000000" font-family="sans-serif" font-size="13" lengthAdjust="spacing" textLength="78.5331" x="99.81" y="117.499">hasAuthority</text></g><!--link Authority to Thing--><g class="link" data-entity-1="Authority" data-entity-2="Thing" data-source-line="14" data-uid="lnk10" id="link_Authority_Thing"><path codeLine="14" d="M223.77,138.522 C211.68,143.392 197.62,148.172 184.31,150.602 C138.84,158.902 124.71,163.452 80.31,150.602 C68.52,147.192 56.84,140.132 47.67,133.502" fill="none" id="Authority-Thing" style="stroke:#181818;stroke-width:1;"/><polygon fill="#000000" points="81.812,141.3125,90.7697,144.508,90.9372,138.6325,81.812,141.3125" style="stroke:#000000;stroke-width:1;"/><text fill="#000000" font-family="sans-serif" font-size="13" lengthAdjust="spacing" textLength="86.5411" x="95.81" y="146.499">isAuthorityFor</text></g><!--link Thing to Location--><g class="link" data-entity-1="Thing" data-entity-2="Location" data-source-line="15" data-uid="lnk11" id="link_Thing_Location"><path codeLine="15" d="M34.26,103.672 C40.97,84.812 55.44,53.202 80.31,39.602 C126.19,14.522 188.8,31.722 225.51,46.012" fill="none" id="Thing-Location" style="stroke:#181818;stroke-width:1;"/><polygon fill="#000000" points="98.0972,16.2617,88.5888,16.0588,90.2854,21.6865,98.0972,16.2617" style="stroke:#000000;stroke-width:1;"/><text fill="#000000" font-family="sans-serif" font-size="13" lengthAdjust="spacing" textLength="73.7101" x="102.31" y="22.749">hasLocation</text></g><!--link Thing to Location--><g class="link" data-entity-1="Thing" data-entity-2="Location" data-source-line="16" data-uid="lnk12" id="link_Thing_Location"><path codeLine="16" d="M50.59,109.482 C59.62,105.772 70.37,101.652 80.31,98.602 C130.3,83.292 190,71.322 225.31,64.872" fill="none" id="Thing-Location-1" style="stroke:#181818;stroke-width:1;"/><polygon fill="#000000" points="90.1546,62.5281,80.6636,61.9181,82.1177,67.6133,90.1546,62.5281" style="stroke:#000000;stroke-width:1;"/><text fill="#000000" font-family="sans-serif" font-size="13" lengthAdjust="spacing" textLength="89.6221" x="94.31" y="68.809">hasJurisdiction</text></g><!--link Thing to Country--><g class="link" data-entity-1="Thing" data-entity-2="Country" data-source-line="17" data-uid="lnk13" id="link_Thing_Country"><path codeLine="17" d="M40.33,133.182 C49.52,144.492 63.89,159.412 80.31,166.602 C128.79,187.842 146.23,172.832 199.13,174.602 C243.63,176.102 255.09,179.842 299.31,174.602 C366.13,166.692 442.35,145.232 482.81,132.822" fill="none" id="Thing-Country" style="stroke:#181818;stroke-width:1;"/><polygon fill="#000000" points="224.31,165.4509,215.2625,162.5194,215.2673,168.3972,224.31,165.4509" style="stroke:#000000;stroke-width:1;"/><text fill="#000000" font-family="sans-serif" font-size="13" lengthAdjust="spacing" textLength="70.3951" x="228.31" y="170.499">hasCountry</text></g><!--link Location to Law--><g class="link" data-entity-1="Location" data-entity-2="Law" data-source-line="18" data-uid="lnk14" id="link_Location_Law"><path codeLine="18" d="M288.17,59.602 C342.64,59.602 455.11,59.602 496.17,59.602" fill="none" id="Location-Law" style="stroke:#181818;stroke-width:1;"/><polygon fill="#000000" points="339.31,50.455,330.2649,47.5161,330.2649,53.3939,339.31,50.455" style="stroke:#000000;stroke-width:1;"/><text fill="#000000" font-family="sans-serif" font-size="13" lengthAdjust="spacing" textLength="109.0961" x="343.31" y="55.499">hasApplicableLaw</text></g><!--SRC=[TOvDRW8n38NNv1H6NNG51q2eKbMfYueb5p2PC6FLn57YW4RGkpVCJwWgiNj-_loUb-GjvyP1qfxTEZ1wpISsx8uAAX2fxHGQYiugYJUlAk7k7qHLJdyMnZAc1FkEV0ilYVZieWbelx5rq8GpNCrYH7PYSJYPvlUidKJIlW9ucUM7PA-nDpzcleBjRRMg_bXNZ1goWGvJdU3DF7J11du3z20-9HQevimrGqpjV0PyvKYf8ViVcjuRc4cNTOsxn-1b_3G49ei7TiKfp2y0]--></g></svg>