<svg xmlns="http://www.w3.org/2000/svg" xmlns:xlink="http://www.w3.org/1999/xlink" contentStyleType="text/css" data-diagram-type="CLASS" height="417px" preserveAspectRatio="none" style="width:634px;height:417px;background:#FFFFFF;" version="1.1" viewBox="0 0 634 417" width="634px" zoomAndPan="magnify"><defs/><g><!--cluster dpv--><g class="cluster" data-entity="dpv" data-source-line="5" data-uid="ent0003" id="cluster_dpv"><path d="M226.81,6.602 L253.4999,6.602 A3.75,3.75 0 0 1 255.9999,9.102 L262.9999,31.6699 L625.26,31.6699 A2.5,2.5 0 0 1 627.76,34.1699 L627.76,408.102 A2.5,2.5 0 0 1 625.26,410.602 L226.81,410.602 A2.5,2.5 0 0 1 224.31,408.102 L224.31,9.102 A2.5,2.5 0 0 1 226.81,6.602" fill="none" style="stroke:#000000;stroke-width:1.5;"/><line style="stroke:#000000;stroke-width:1.5;" x1="224.31" x2="262.9999" y1="31.6699" y2="31.6699"/><text fill="#000000" font-family="sans-serif" font-size="14" font-weight="bold" lengthAdjust="spacing" textLength="25.6899" x="228.31" y="23.5679">dpv</text></g><!--class Representative--><g class="entity" data-entity="Representative" data-source-line="6" data-uid="ent0004" id="entity_Representative"><rect fill="#F1F1F1" height="29.0679" rx="2.5" ry="2.5" style="stroke:#181818;stroke-width:0.5;" width="104.7276" x="240.31" y="45.072"/><text fill="#000000" font-family="sans-serif" font-size="14" lengthAdjust="spacing" textLength="98.7276" x="243.31" y="65.0379">Representative</text></g><!--class DataController--><g class="entity" data-entity="DataController" data-source-line="7" data-uid="ent0005" id="entity_DataController"><rect fill="#F1F1F1" height="29.0679" rx="2.5" ry="2.5" style="stroke:#181818;stroke-width:0.5;" width="103.1596" x="241.09" y="109.072"/><text fill="#000000" font-family="sans-serif" font-size="14" lengthAdjust="spacing" textLength="97.1596" x="244.09" y="129.0379">DataController</text></g><!--class DataProcessor--><g class="entity" data-entity="DataProcessor" data-source-line="8" data-uid="ent0006" id="entity_DataProcessor"><rect fill="#F1F1F1" height="29.0679" rx="2.5" ry="2.5" style="stroke:#181818;stroke-width:0.5;" width="101.9837" x="241.68" y="173.072"/><text fill="#000000" font-family="sans-serif" font-size="14" lengthAdjust="spacing" textLength="95.9837" x="244.68" y="193.0379">DataProcessor</text></g><!--class ThirdParty--><g class="entity" data-entity="ThirdParty" data-source-line="9" data-uid="ent0007" id="entity_ThirdParty"><rect fill="#F1F1F1" height="29.0679" rx="2.5" ry="2.5" style="stroke:#181818;stroke-width:0.5;" width="74.7397" x="255.3" y="237.072"/><text fill="#000000" font-family="sans-serif" font-size="14" lengthAdjust="spacing" textLength="68.7397" x="258.3" y="257.0379">ThirdParty</text></g><!--class Authority--><g class="entity" data-entity="Authority" data-source-line="10" data-uid="ent0008" id="entity_Authority"><rect fill="#F1F1F1" height="29.0679" rx="2.5" ry="2.5" style="stroke:#181818;stroke-width:0.5;" width="67.3618" x="258.99" y="301.072"/><text fill="#000000" font-family="sans-serif" font-size="14" lengthAdjust="spacing" textLength="61.3618" x="261.99" y="321.0379">Authority</text></g><!--class DataSubject--><g class="entity" data-entity="DataSubject" data-source-line="11" data-uid="ent0009" id="entity_DataSubject"><rect fill="#F1F1F1" height="29.0679" rx="2.5" ry="2.5" style="stroke:#181818;stroke-width:0.5;" width="85.2117" x="250.07" y="365.072"/><text fill="#000000" font-family="sans-serif" font-size="14" lengthAdjust="spacing" textLength="79.2117" x="253.07" y="385.0379">DataSubject</text></g><!--class LegalEntity--><g class="entity" data-entity="LegalEntity" data-source-line="12" data-uid="ent0010" id="entity_LegalEntity"><rect fill="#F1F1F1" height="29.0679" rx="2.5" ry="2.5" style="stroke:#181818;stroke-width:0.5;" width="78.6037" x="417.45" y="237.072"/><text fill="#000000" font-family="sans-serif" font-size="14" lengthAdjust="spacing" textLength="72.6037" x="420.45" y="257.0379">LegalEntity</text></g><!--class NaturalPerson--><g class="entity" data-entity="NaturalPerson" data-source-line="13" data-uid="ent0011" id="entity_NaturalPerson"><rect fill="#F1F1F1" height="29.0679" rx="2.5" ry="2.5" style="stroke:#181818;stroke-width:0.5;" width="101.4236" x="406.04" y="342.072"/><text fill="#000000" font-family="sans-serif" font-size="14" lengthAdjust="spacing" textLength="95.4236" x="409.04" y="362.0379">NaturalPerson</text></g><!--class Entity--><g class="entity" data-entity="Entity" data-source-line="14" data-uid="ent0012" id="entity_Entity"><rect fill="#F1F1F1" height="29.0679" rx="2.5" ry="2.5" style="stroke:#181818;stroke-width:0.5;" width="43.2959" x="568.46" y="278.072"/><text fill="#000000" font-family="sans-serif" font-size="14" lengthAdjust="spacing" textLength="37.2959" x="571.46" y="298.0379">Entity</text></g><!--class Thing--><g class="entity" data-entity="Thing" data-source-line="4" data-uid="ent0002" id="entity_Thing"><rect fill="#C0C0C0" height="29.0679" rx="2.5" ry="2.5" style="stroke:#181818;stroke-width:0.5;" width="43.3098" x="7" y="207.072"/><text fill="#000000" font-family="sans-serif" font-size="14" lengthAdjust="spacing" textLength="37.3098" x="10" y="227.0379">Thing</text></g><!--link Representative to LegalEntity--><g class="link" data-entity-1="Representative" data-entity-2="LegalEntity" data-source-line="16" data-uid="lnk13" id="link_Representative_LegalEntity"><path codeLine="16" d="M322.35,74.622 C330.18,79.452 338.34,85.222 345.04,91.602 C392.97,137.282 424.0089,190.8775 439.8589,220.9575" fill="none" id="Representative-to-LegalEntity" style="stroke:#181818;stroke-width:1;"/><polygon fill="none" points="448.25,236.882,445.1671,218.1605,434.5508,223.7545,448.25,236.882" style="stroke:#181818;stroke-width:1;"/></g><!--link DataController to LegalEntity--><g class="link" data-entity-1="DataController" data-entity-2="LegalEntity" data-source-line="17" data-uid="lnk14" id="link_DataController_LegalEntity"><path codeLine="17" d="M319.54,138.622 C327.86,143.742 337.01,149.672 345.04,155.602 C380.86,182.042 406.3309,204.857 427.1609,224.457" fill="none" id="DataController-to-LegalEntity" style="stroke:#181818;stroke-width:1;"/><polygon fill="none" points="440.27,236.792,431.2726,220.0873,423.0493,228.8267,440.27,236.792" style="stroke:#181818;stroke-width:1;"/></g><!--link DataProcessor to LegalEntity--><g class="link" data-entity-1="DataProcessor" data-entity-2="LegalEntity" data-source-line="18" data-uid="lnk15" id="link_DataProcessor_LegalEntity"><path codeLine="18" d="M331.67,202.612 C357.59,212.842 375.0382,219.7305 400.9682,229.9705" fill="none" id="DataProcessor-to-LegalEntity" style="stroke:#181818;stroke-width:1;"/><polygon fill="none" points="417.71,236.582,403.172,224.3899,398.7644,235.5511,417.71,236.582" style="stroke:#181818;stroke-width:1;"/></g><!--link ThirdParty to LegalEntity--><g class="link" data-entity-1="ThirdParty" data-entity-2="LegalEntity" data-source-line="19" data-uid="lnk16" id="link_ThirdParty_LegalEntity"><path codeLine="19" d="M330.45,251.602 C356.32,251.602 372.87,251.602 399.14,251.602" fill="none" id="ThirdParty-to-LegalEntity" style="stroke:#181818;stroke-width:1;"/><polygon fill="none" points="417.14,251.602,399.14,245.602,399.14,257.602,417.14,251.602" style="stroke:#181818;stroke-width:1;"/></g><!--link Authority to LegalEntity--><g class="link" data-entity-1="Authority" data-entity-2="LegalEntity" data-source-line="20" data-uid="lnk17" id="link_Authority_LegalEntity"><path codeLine="20" d="M326.47,302.652 C352.93,292.202 373.4188,284.1151 401.1388,273.1651" fill="none" id="Authority-to-LegalEntity" style="stroke:#181818;stroke-width:1;"/><polygon fill="none" points="417.88,266.552,398.9345,267.5847,403.3432,278.7455,417.88,266.552" style="stroke:#181818;stroke-width:1;"/></g><!--link DataSubject to LegalEntity--><g class="link" data-entity-1="DataSubject" data-entity-2="LegalEntity" data-source-line="21" data-uid="lnk18" id="link_DataSubject_LegalEntity"><path codeLine="21" d="M319.54,364.582 C327.86,359.462 337.01,353.532 345.04,347.602 C380.86,321.162 406.3309,298.347 427.1609,278.747" fill="none" id="DataSubject-to-LegalEntity" style="stroke:#181818;stroke-width:1;"/><polygon fill="none" points="440.27,266.412,423.0493,274.3773,431.2726,283.1167,440.27,266.412" style="stroke:#181818;stroke-width:1;"/></g><!--link DataSubject to NaturalPerson--><g class="link" data-entity-1="DataSubject" data-entity-2="NaturalPerson" data-source-line="22" data-uid="lnk19" id="link_DataSubject_NaturalPerson"><path codeLine="22" d="M335.41,373.682 C356.89,370.632 365.4085,369.421 387.9585,366.221" fill="none" id="DataSubject-to-NaturalPerson" style="stroke:#181818;stroke-width:1;"/><polygon fill="none" points="405.78,363.692,387.1156,360.2805,388.8015,372.1615,405.78,363.692" style="stroke:#181818;stroke-width:1;"/></g><!--link LegalEntity to Entity--><g class="link" data-entity-1="LegalEntity" data-entity-2="Entity" data-source-line="23" data-uid="lnk20" id="link_LegalEntity_Entity"><path codeLine="23" d="M496.45,263.682 C519.91,271.002 531.7479,274.6976 550.9979,280.7076" fill="none" id="LegalEntity-to-Entity" style="stroke:#181818;stroke-width:1;"/><polygon fill="none" points="568.18,286.072,552.7861,274.9803,549.2098,286.435,568.18,286.072" style="stroke:#181818;stroke-width:1;"/></g><!--link NaturalPerson to Entity--><g class="link" data-entity-1="NaturalPerson" data-entity-2="Entity" data-source-line="24" data-uid="lnk21" id="link_NaturalPerson_Entity"><path codeLine="24" d="M488.55,341.592 C513.12,329.622 530.6783,321.0656 552.1483,310.6056" fill="none" id="NaturalPerson-to-Entity" style="stroke:#181818;stroke-width:1;"/><polygon fill="none" points="568.33,302.722,549.5204,305.2117,554.7761,315.9995,568.33,302.722" style="stroke:#181818;stroke-width:1;"/></g><!--link Thing to Representative--><g class="link" data-entity-1="Thing" data-entity-2="Representative" data-source-line="26" data-uid="lnk22" id="link_Thing_Representative"><path codeLine="26" d="M31.66,206.802 C35.89,181.702 48.11,130.962 80.31,104.602 C125.31,67.762 193.3,59.042 239.95,57.892" fill="none" id="Thing-Representative" style="stroke:#181818;stroke-width:1;"/><polygon fill="#000000" points="89.3775,48.2571,80.3101,51.1267,83.7286,55.9083,89.3775,48.2571" style="stroke:#000000;stroke-width:1;"/><text fill="#000000" font-family="sans-serif" font-size="13" lengthAdjust="spacing" textLength="113.2301" x="94.31" y="56.209">hasRepresentative</text></g><!--link Thing to DataController--><g class="link" data-entity-1="Thing" data-entity-2="DataController" data-source-line="27" data-uid="lnk23" id="link_Thing_DataController"><path codeLine="27" d="M40.91,206.642 C50.24,195.312 64.49,180.272 80.31,171.602 C130.64,144.032 196.01,132.282 240.64,127.282" fill="none" id="Thing-DataController" style="stroke:#181818;stroke-width:1;"/><polygon fill="#000000" points="90.9566,120.8587,81.4656,121.4674,83.636,126.9299,90.9566,120.8587" style="stroke:#000000;stroke-width:1;"/><text fill="#000000" font-family="sans-serif" font-size="13" lengthAdjust="spacing" textLength="111.7741" x="95.31" y="127.749">hasDataController</text></g><!--link Thing to DataProcessor--><g class="link" data-entity-1="Thing" data-entity-2="DataProcessor" data-source-line="28" data-uid="lnk24" id="link_Thing_DataProcessor"><path codeLine="28" d="M50.65,218.882 C91.7,213.552 183.59,201.632 241.31,194.142" fill="none" id="Thing-DataProcessor" style="stroke:#181818;stroke-width:1;"/><polygon fill="#000000" points="91.7684,188.8116,82.4204,187.061,83.1767,192.89,91.7684,188.8116" style="stroke:#000000;stroke-width:1;"/><text fill="#000000" font-family="sans-serif" font-size="13" lengthAdjust="spacing" textLength="110.6821" x="95.81" y="194.499">hasDataProcessor</text></g><!--link Thing to ThirdParty--><g class="link" data-entity-1="Thing" data-entity-2="ThirdParty" data-source-line="29" data-uid="lnk25" id="link_Thing_ThirdParty"><path codeLine="29" d="M49.23,236.532 C58.19,242.462 69.27,248.582 80.31,251.602 C139.77,267.892 212.21,262.802 254.99,257.372" fill="none" id="Thing-ThirdParty" style="stroke:#181818;stroke-width:1;"/><polygon fill="#000000" points="104.2845,242.9588,95.5817,239.1234,94.9894,244.9713,104.2845,242.9588" style="stroke:#000000;stroke-width:1;"/><text fill="#000000" font-family="sans-serif" font-size="13" lengthAdjust="spacing" textLength="85.3841" x="108.31" y="247.499">hasThirdParty</text></g><!--link Thing to Authority--><g class="link" data-entity-1="Thing" data-entity-2="Authority" data-source-line="30" data-uid="lnk26" id="link_Thing_Authority"><path codeLine="30" d="M36.2,236.352 C44.16,252.372 59.18,277.322 80.31,289.602 C136.41,322.202 214.93,322.322 258.76,319.182" fill="none" id="Thing-Authority" style="stroke:#181818;stroke-width:1;"/><polygon fill="#000000" points="107.496,282.199,100.044,276.2897,97.9939,281.7984,107.496,282.199" style="stroke:#000000;stroke-width:1;"/><text fill="#000000" font-family="sans-serif" font-size="13" lengthAdjust="spacing" textLength="78.5331" x="111.81" y="285.499">hasAuthority</text></g><!--link Thing to DataSubject--><g class="link" data-entity-1="Thing" data-entity-2="DataSubject" data-source-line="31" data-uid="lnk27" id="link_Thing_DataSubject"><path codeLine="31" d="M30.96,236.442 C34.18,263.272 45,319.662 80.31,347.602 C128.62,385.832 203.15,387.932 249.58,384.692" fill="none" id="Thing-DataSubject" style="stroke:#181818;stroke-width:1;"/><polygon fill="#000000" points="98.4483,341.2612,92.6115,333.7523,89.3126,338.6171,98.4483,341.2612" style="stroke:#000000;stroke-width:1;"/><text fill="#000000" font-family="sans-serif" font-size="13" lengthAdjust="spacing" textLength="95.1081" x="103.31" y="343.499">hasDataSubject</text></g><!--SRC=[ZP5DJiGm34RNv1GUiIu7O5490Jk4AfWBcDQq0PDKYLjf1DoTqcdpqx9W-_avjbyEsjGyD0HUJanNFQEHuOCLqwk0M72wxGGQxQWMROrIDQFtSEoqQU7IQnx9gHxhTsm9cdw4JtLnHfweT-J928eUQKtlKF3M6d6MUUfCqihPchot8PnckAP29wSrkHcaiqx7uBVlUNXvcvPRemTgaU-D9DGZok2GAt9-kc095-HRvNj2KNoLwIEWyfLtWCgMtvVZ6VjQEEZlLvVJ_b7CJqpNdyjBMqPb5NN-qABOVDirTEWtXie8vsfcU6Dh0mTFWOtc4ZGwcxb4OG85UJCJLMv6Bfx2mDLRgNu0]--></g></svg>