<svg xmlns="http://www.w3.org/2000/svg" xmlns:xlink="http://www.w3.org/1999/xlink" contentStyleType="text/css" height="399px" preserveAspectRatio="none" style="width:583px;height:399px;background:#FFFFFF;" version="1.1" viewBox="0 0 583 399" width="583px" zoomAndPan="magnify"><defs/><g><!--cluster dpv--><g id="cluster_dpv"><path d="M8.5,109.07 L35.5,109.07 A3.75,3.75 0 0 1 38,111.57 L45,134.1379 L438.5,134.1379 A2.5,2.5 0 0 1 441,136.6379 L441,389.98 A2.5,2.5 0 0 1 438.5,392.48 L8.5,392.48 A2.5,2.5 0 0 1 6,389.98 L6,111.57 A2.5,2.5 0 0 1 8.5,109.07 " fill="none" style="stroke:#000000;stroke-width:1.5;"/><line style="stroke:#000000;stroke-width:1.5;" x1="6" x2="45" y1="134.1379" y2="134.1379"/><text fill="#000000" font-family="sans-serif" font-size="14" font-weight="bold" lengthAdjust="spacing" textLength="26" x="10" y="126.0359">dpv</text></g><!--class Location--><g id="elem_Location"><rect codeLine="7" fill="#F1F1F1" height="113.3396" id="Location" rx="2.5" ry="2.5" style="stroke:#181818;stroke-width:0.5;" width="138" x="86" y="147.07"/><text fill="#000000" font-family="sans-serif" font-size="14" lengthAdjust="spacing" textLength="56" x="127" y="167.0359">Location</text><line style="stroke:#181818;stroke-width:0.5;" x1="87" x2="223" y1="176.1379" y2="176.1379"/><text fill="#000000" font-family="sans-serif" font-size="14" lengthAdjust="spacing" textLength="116" x="92" y="195.1039">String iso_alpha2</text><text fill="#000000" font-family="sans-serif" font-size="14" lengthAdjust="spacing" textLength="116" x="92" y="214.1718">String iso_alpha3</text><text fill="#000000" font-family="sans-serif" font-size="14" lengthAdjust="spacing" textLength="126" x="92" y="233.2397">String iso_numeric</text><text fill="#000000" font-family="sans-serif" font-size="14" lengthAdjust="spacing" textLength="98" x="92" y="252.3076">String un_m49</text></g><!--class City--><g id="elem_City"><rect codeLine="13" fill="#F1F1F1" height="37.0679" id="City" rx="2.5" ry="2.5" style="stroke:#181818;stroke-width:0.5;" width="31" x="34.5" y="339.41"/><text fill="#000000" font-family="sans-serif" font-size="14" lengthAdjust="spacing" textLength="25" x="37.5" y="359.3759">City</text><line style="stroke:#181818;stroke-width:0.5;" x1="35.5" x2="64.5" y1="368.4779" y2="368.4779"/></g><!--class Region--><g id="elem_Region"><rect codeLine="14" fill="#F1F1F1" height="37.0679" id="Region" rx="2.5" ry="2.5" style="stroke:#181818;stroke-width:0.5;" width="53" x="100.5" y="339.41"/><text fill="#000000" font-family="sans-serif" font-size="14" lengthAdjust="spacing" textLength="47" x="103.5" y="359.3759">Region</text><line style="stroke:#181818;stroke-width:0.5;" x1="101.5" x2="152.5" y1="368.4779" y2="368.4779"/></g><!--class Country--><g id="elem_Country"><rect codeLine="15" fill="#F1F1F1" height="37.0679" id="Country" rx="2.5" ry="2.5" style="stroke:#181818;stroke-width:0.5;" width="59" x="188.5" y="339.41"/><text fill="#000000" font-family="sans-serif" font-size="14" lengthAdjust="spacing" textLength="53" x="191.5" y="359.3759">Country</text><line style="stroke:#181818;stroke-width:0.5;" x1="189.5" x2="246.5" y1="368.4779" y2="368.4779"/></g><!--class SupraNationalUnion--><g id="elem_SupraNationalUnion"><rect codeLine="16" fill="#F1F1F1" height="37.0679" id="SupraNationalUnion" rx="2.5" ry="2.5" style="stroke:#181818;stroke-width:0.5;" width="143" x="282.5" y="339.41"/><text fill="#000000" font-family="sans-serif" font-size="14" lengthAdjust="spacing" textLength="137" x="285.5" y="359.3759">SupraNationalUnion</text><line style="stroke:#181818;stroke-width:0.5;" x1="283.5" x2="424.5" y1="368.4779" y2="368.4779"/></g><!--class Thing--><g id="elem_Thing"><rect codeLine="4" fill="#C0C0C0" height="37.0679" id="Thing" rx="2.5" ry="2.5" style="stroke:#181818;stroke-width:0.5;" width="45" x="132.5" y="7"/><text fill="#000000" font-family="sans-serif" font-size="14" lengthAdjust="spacing" textLength="39" x="135.5" y="26.9659">Thing</text><line style="stroke:#181818;stroke-width:0.5;" x1="133.5" x2="176.5" y1="36.0679" y2="36.0679"/></g><!--class EU_Vocabularies--><g id="elem_EU_Vocabularies"><rect fill="#F1F1F1" height="37.0679" id="EU_Vocabularies" rx="2.5" ry="2.5" style="stroke:#181818;stroke-width:0.5;" width="116" x="460" y="339.41"/><text fill="#000000" font-family="sans-serif" font-size="14" lengthAdjust="spacing" textLength="110" x="463" y="359.3759">EU_Vocabularies</text><line style="stroke:#181818;stroke-width:0.5;" x1="461" x2="575" y1="368.4779" y2="368.4779"/></g><!--link Thing to Location--><g id="link_Thing_Location"><path codeLine="19" d="M155,44.4 C155,68.2 155,111.4 155,146.67 " fill="none" id="Thing-Location" style="stroke:#181818;stroke-width:1.0;"/><polygon fill="#000000" points="160,88.923,162.9389,79.8779,157.0611,79.8779,160,88.923" style="stroke:#000000;stroke-width:1.0;"/><text fill="#000000" font-family="sans-serif" font-size="13" lengthAdjust="spacing" textLength="73" x="169" y="88.967">hasLocation</text></g><!--link Location to City--><g id="link_Location_City"><path codeLine="20" d="M87.84,260.83 C79.59,270.03 71.97,279.99 66,290.41 C57.38,305.46 53.39,324.99 51.55,338.99 " fill="none" id="Location-City" style="stroke:#181818;stroke-width:1.0;stroke-dasharray:7.0,7.0;"/><polygon fill="#000000" points="68.8944,304.798,75.3691,297.8318,70.0379,295.3565,68.8944,304.798" style="stroke:#000000;stroke-width:1.0;"/><text fill="#000000" font-family="sans-serif" font-size="13" lengthAdjust="spacing" textLength="47" x="80" y="305.307">rdf:type</text></g><!--link Location to Region--><g id="link_Location_Region"><path codeLine="21" d="M144.73,260.55 C139.64,288.21 133.85,319.73 130.31,338.98 " fill="none" id="Location-Region" style="stroke:#181818;stroke-width:1.0;stroke-dasharray:7.0,7.0;"/><polygon fill="#000000" points="142.5859,305.1806,147.1119,296.816,141.331,295.7532,142.5859,305.1806" style="stroke:#000000;stroke-width:1.0;"/><text fill="#000000" font-family="sans-serif" font-size="13" lengthAdjust="spacing" textLength="47" x="152.49" y="305.307">rdf:type</text></g><!--link Location to Country--><g id="link_Location_Country"><path codeLine="22" d="M194.01,260.7 C199.39,270.29 204.33,280.4 208,290.41 C213.79,306.2 216.23,325.28 217.26,338.95 " fill="none" id="Location-Country" style="stroke:#181818;stroke-width:1.0;stroke-dasharray:7.0,7.0;"/><polygon fill="#000000" points="219.4141,305.0559,219.6551,295.5484,214.0207,297.2225,219.4141,305.0559" style="stroke:#000000;stroke-width:1.0;"/><text fill="#000000" font-family="sans-serif" font-size="13" lengthAdjust="spacing" textLength="47" x="226.99" y="305.307">rdf:type</text></g><!--link Location to SupraNationalUnion--><g id="link_Location_SupraNationalUnion"><path codeLine="23" d="M224.22,248.09 C243.69,261.08 264.58,275.77 283,290.41 C302.31,305.75 322.69,325.24 336.63,339.15 " fill="none" id="Location-SupraNationalUnion" style="stroke:#181818;stroke-width:1.0;stroke-dasharray:7.0,7.0;"/><polygon fill="#000000" points="312.2752,303.4103,307.0967,295.4332,303.3969,300.0005,312.2752,303.4103" style="stroke:#000000;stroke-width:1.0;"/><text fill="#000000" font-family="sans-serif" font-size="13" lengthAdjust="spacing" textLength="47" x="317.39" y="305.307">rdf:type</text></g><!--link Location to Location--><g id="link_Location_Location"><path codeLine="24" d="M224.01,185.78 C243.77,186.49 259,192.47 259,203.74 C259,215.01 243.77,221 224.01,221.7 " fill="none" id="Location-Location" style="stroke:#181818;stroke-width:1.0;"/><text fill="#000000" font-family="sans-serif" font-size="13" lengthAdjust="spacing" textLength="78" x="311.5" y="182.637">skos:broader</text><text fill="#000000" font-family="sans-serif" font-size="13" lengthAdjust="spacing" textLength="85" x="308" y="200.343">skos:narrower</text><text fill="#000000" font-family="sans-serif" font-size="13" lengthAdjust="spacing" textLength="76" x="312.5" y="218.049">skos:sameAs</text><polygon fill="#000000" points="270.1795,235.7078,272.7918,226.5631,266.9177,226.7741,270.1795,235.7078" style="stroke:#000000;stroke-width:1.0;"/><text fill="#000000" font-family="sans-serif" font-size="13" lengthAdjust="spacing" textLength="158" x="278" y="235.7551">dpv:hasInverseJurisdiction</text></g><!--link Location to EU_Vocabularies--><g id="link_Location_EU_Vocabularies"><path codeLine="25" d="M224.13,230.78 C267.19,247.27 323.61,269.39 373,290.41 C409.83,306.08 451.28,325.26 480.4,338.99 " fill="none" id="Location-EU_Vocabularies" style="stroke:#181818;stroke-width:1.0;stroke-dasharray:7.0,7.0;"/><polygon fill="#000000" points="422.7362,302.208,415.5467,295.982,413.2603,301.397,422.7362,302.208" style="stroke:#000000;stroke-width:1.0;"/><text fill="#000000" font-family="sans-serif" font-size="13" lengthAdjust="spacing" textLength="100" x="427.13" y="305.307">skos:exactMatch</text></g><!--SRC=[TL6nJiCm4Dtz5PQOsm5Oo82440C862XbgXHTxIEswjZHdLseKFyT9oaXbEOcltlFUk_fZDKeQumcQ1Qc1SgISiX2A0VCyjLONyapjcwB94G3QWCLIjrivPUGUNhPOr0GRV27PJkBIErNow44rnWudsGkJZ4-rKXM7LF9b_NbLRVTZ_nlRToDu0jMESoO3yb76aiMgI5uxaA3M_fMlXUYhpkR_HOgf04UqBKOdlDvvve5fD-Bk6lmYEr3JFE7JDE2_n4dj7_pyYPmiQO06cdbE-I1A7mCaA766rxvVCKYjxlt-RQC3uaiQwjE5BrRbcyPhfC3iiW_9lW9AZv1L2Rhlm40]--></g></svg>