<svg xmlns="http://www.w3.org/2000/svg" xmlns:xlink="http://www.w3.org/1999/xlink" contentStyleType="text/css" data-diagram-type="CLASS" height="281px" preserveAspectRatio="none" style="width:1098px;height:281px;background:#FFFFFF;" version="1.1" viewBox="0 0 1098 281" width="1098px" zoomAndPan="magnify"><defs/><g><!--cluster dpv--><g class="cluster" data-entity="dpv" data-source-line="5" data-uid="ent0003" id="cluster_dpv"><path d="M8.5,101.06 L35.1899,101.06 A3.75,3.75 0 0 1 37.6899,103.56 L44.6899,126.1279 L1088.5,126.1279 A2.5,2.5 0 0 1 1091,128.6279 L1091,271.7 A2.5,2.5 0 0 1 1088.5,274.2 L8.5,274.2 A2.5,2.5 0 0 1 6,271.7 L6,103.56 A2.5,2.5 0 0 1 8.5,101.06" fill="none" style="stroke:#000000;stroke-width:1.5;"/><line style="stroke:#000000;stroke-width:1.5;" x1="6" x2="44.6899" y1="126.1279" y2="126.1279"/><text fill="#000000" font-family="sans-serif" font-size="14" font-weight="bold" lengthAdjust="spacing" textLength="25.6899" x="10" y="118.0259">dpv</text></g><!--class Entity--><g class="entity" data-entity="Entity" data-source-line="6" data-uid="ent0004" id="entity_Entity"><rect fill="#F1F1F1" height="29.0679" rx="2.5" ry="2.5" style="stroke:#181818;stroke-width:0.5;" width="43.2959" x="454.35" y="139.06"/><text fill="#000000" font-family="sans-serif" font-size="14" lengthAdjust="spacing" textLength="37.2959" x="457.35" y="159.0259">Entity</text></g><!--class EntityInvolvement--><g class="entity" data-entity="EntityInvolvement" data-source-line="7" data-uid="ent0005" id="entity_EntityInvolvement"><rect fill="#F1F1F1" height="29.0679" rx="2.5" ry="2.5" style="stroke:#181818;stroke-width:0.5;" width="125.5875" x="532.21" y="139.06"/><text fill="#000000" font-family="sans-serif" font-size="14" lengthAdjust="spacing" textLength="119.5875" x="535.21" y="159.0259">EntityInvolvement</text></g><!--class EntityPermissiveInvolvement--><g class="entity" data-entity="EntityPermissiveInvolvement" data-source-line="8" data-uid="ent0006" id="entity_EntityPermissiveInvolvement"><rect fill="#F1F1F1" height="29.0679" rx="2.5" ry="2.5" style="stroke:#181818;stroke-width:0.5;" width="196.4693" x="21.77" y="229.13"/><text fill="#000000" font-family="sans-serif" font-size="14" lengthAdjust="spacing" textLength="190.4693" x="24.77" y="249.0959">EntityPermissiveInvolvement</text></g><!--class EntityNonPermissiveInvolvement--><g class="entity" data-entity="EntityNonPermissiveInvolvement" data-source-line="9" data-uid="ent0007" id="entity_EntityNonPermissiveInvolvement"><rect fill="#F1F1F1" height="29.0679" rx="2.5" ry="2.5" style="stroke:#181818;stroke-width:0.5;" width="224.2311" x="252.88" y="229.13"/><text fill="#000000" font-family="sans-serif" font-size="14" lengthAdjust="spacing" textLength="218.2311" x="255.88" y="249.0959">EntityNonPermissiveInvolvement</text></g><!--class EntityActiveInvolvement--><g class="entity" data-entity="EntityActiveInvolvement" data-source-line="10" data-uid="ent0008" id="entity_EntityActiveInvolvement"><rect fill="#F1F1F1" height="29.0679" rx="2.5" ry="2.5" style="stroke:#181818;stroke-width:0.5;" width="164.9274" x="512.54" y="229.13"/><text fill="#000000" font-family="sans-serif" font-size="14" lengthAdjust="spacing" textLength="158.9274" x="515.54" y="249.0959">EntityActiveInvolvement</text></g><!--class EntityPassiveInvolvement--><g class="entity" data-entity="EntityPassiveInvolvement" data-source-line="11" data-uid="ent0009" id="entity_EntityPassiveInvolvement"><rect fill="#F1F1F1" height="29.0679" rx="2.5" ry="2.5" style="stroke:#181818;stroke-width:0.5;" width="173.9433" x="712.03" y="229.13"/><text fill="#000000" font-family="sans-serif" font-size="14" lengthAdjust="spacing" textLength="167.9433" x="715.03" y="249.0959">EntityPassiveInvolvement</text></g><!--class EntityNonInvolvement--><g class="entity" data-entity="EntityNonInvolvement" data-source-line="12" data-uid="ent0010" id="entity_EntityNonInvolvement"><rect fill="#F1F1F1" height="29.0679" rx="2.5" ry="2.5" style="stroke:#181818;stroke-width:0.5;" width="153.3494" x="921.33" y="229.13"/><text fill="#000000" font-family="sans-serif" font-size="14" lengthAdjust="spacing" textLength="147.3494" x="924.33" y="249.0959">EntityNonInvolvement</text></g><!--class Thing--><g class="entity" data-entity="Thing" data-source-line="4" data-uid="ent0002" id="entity_Thing"><rect fill="#C0C0C0" height="29.0679" rx="2.5" ry="2.5" style="stroke:#181818;stroke-width:0.5;" width="43.3098" x="513.35" y="7"/><text fill="#000000" font-family="sans-serif" font-size="14" lengthAdjust="spacing" textLength="37.3098" x="516.35" y="26.9659">Thing</text></g><!--link Thing to EntityInvolvement--><g class="link" data-entity-1="Thing" data-entity-2="EntityInvolvement" data-source-line="15" data-uid="lnk11" id="link_Thing_EntityInvolvement"><path codeLine="15" d="M541.42,36.45 C552.97,61.48 577.11,113.82 588.63,138.78" fill="none" id="Thing-EntityInvolvement" style="stroke:#181818;stroke-width:1;"/><polygon fill="#000000" points="570.2946,80.4531,569.1741,71.0088,563.8368,73.4711,570.2946,80.4531" style="stroke:#000000;stroke-width:1;"/><text fill="#000000" font-family="sans-serif" font-size="13" lengthAdjust="spacing" textLength="132.6001" x="577.2" y="80.957">hasEntityInvolvement</text></g><!--reverse link EntityInvolvement to EntityPermissiveInvolvement--><g class="link" data-entity-1="EntityInvolvement" data-entity-2="EntityPermissiveInvolvement" data-source-line="16" data-uid="lnk12" id="link_EntityInvolvement_EntityPermissiveInvolvement"><path codeLine="16" d="M514.2217,169.5715 C427.2817,185.6915 288.55,211.42 195.5,228.67" fill="none" id="EntityInvolvement-backto-EntityPermissiveInvolvement" style="stroke:#181818;stroke-width:1;"/><polygon fill="none" points="531.92,166.29,513.1278,163.6721,515.3155,175.471,531.92,166.29" style="stroke:#181818;stroke-width:1;"/></g><!--reverse link EntityInvolvement to EntityNonPermissiveInvolvement--><g class="link" data-entity-1="EntityInvolvement" data-entity-2="EntityNonPermissiveInvolvement" data-source-line="17" data-uid="lnk13" id="link_EntityInvolvement_EntityNonPermissiveInvolvement"><path codeLine="17" d="M541.7499,174.986 C498.6799,191.476 444.27,212.31 401.27,228.78" fill="none" id="EntityInvolvement-backto-EntityNonPermissiveInvolvement" style="stroke:#181818;stroke-width:1;"/><polygon fill="none" points="558.56,168.55,539.6046,169.3826,543.8953,180.5893,558.56,168.55" style="stroke:#181818;stroke-width:1;"/></g><!--reverse link EntityInvolvement to EntityActiveInvolvement--><g class="link" data-entity-1="EntityInvolvement" data-entity-2="EntityActiveInvolvement" data-source-line="18" data-uid="lnk14" id="link_EntityInvolvement_EntityActiveInvolvement"><path codeLine="18" d="M595,186.36 C595,202.81 595,212.18 595,228.71" fill="none" id="EntityInvolvement-backto-EntityActiveInvolvement" style="stroke:#181818;stroke-width:1;"/><polygon fill="none" points="595,168.36,589,186.36,601,186.36,595,168.36" style="stroke:#181818;stroke-width:1;"/></g><!--reverse link EntityInvolvement to EntityPassiveInvolvement--><g class="link" data-entity-1="EntityInvolvement" data-entity-2="EntityPassiveInvolvement" data-source-line="19" data-uid="lnk15" id="link_EntityInvolvement_EntityPassiveInvolvement"><path codeLine="19" d="M643.846,175.6839 C682.046,192.1739 728.69,212.31 766.83,228.78" fill="none" id="EntityInvolvement-backto-EntityPassiveInvolvement" style="stroke:#181818;stroke-width:1;"/><polygon fill="none" points="627.32,168.55,641.468,181.1925,646.2239,170.1752,627.32,168.55" style="stroke:#181818;stroke-width:1;"/></g><!--reverse link EntityInvolvement to EntityNonInvolvement--><g class="link" data-entity-1="EntityInvolvement" data-entity-2="EntityNonInvolvement" data-source-line="20" data-uid="lnk16" id="link_EntityInvolvement_EntityNonInvolvement"><path codeLine="20" d="M675.5552,172.2018 C750.7152,188.6218 858.12,212.1 933.81,228.64" fill="none" id="EntityInvolvement-backto-EntityNonInvolvement" style="stroke:#181818;stroke-width:1;"/><polygon fill="none" points="657.97,168.36,674.2746,178.0635,676.8358,166.3401,657.97,168.36" style="stroke:#181818;stroke-width:1;"/></g><!--link Thing to Entity--><g class="link" data-entity-1="Thing" data-entity-2="Entity" data-source-line="22" data-uid="lnk17" id="link_Thing_Entity"><path codeLine="22" d="M528.69,36.45 C517.33,61.48 493.59,113.82 482.27,138.78" fill="none" id="Thing-Entity" style="stroke:#181818;stroke-width:1;"/><polygon fill="#000000" points="517.1644,80.1134,523.5775,73.0903,518.2247,70.6621,517.1644,80.1134" style="stroke:#000000;stroke-width:1;"/><text fill="#000000" font-family="sans-serif" font-size="13" lengthAdjust="spacing" textLength="92.7161" x="390.4867" y="58.0535">hasActiveEntity</text><text fill="#000000" font-family="sans-serif" font-size="13" lengthAdjust="spacing" textLength="101.0881" x="386.3007" y="75.7595">hasPassiveEntity</text><text fill="#000000" font-family="sans-serif" font-size="13" lengthAdjust="spacing" textLength="158.3792" x="357.6552" y="93.4655">hasNonInvolvementEntity</text><text fill="#000000" font-family="sans-serif" font-size="13" lengthAdjust="spacing" textLength="132.3791" x="370.6552" y="111.1715">isDeterminedByEntity</text></g><!--SRC=[bP0_JyD03CNt-nIc34nbw5XLI20wT44T65ciYvLOlJYdyoLILFZklUe01Gv2yVZpyv_thbYiwoi2ZQEZM-zGOjywSwC75ey1MwX3r_kTD1GuebY2bJ7MeIeyDomrN2kxWOBnQ0zO4rH-WAE1L5crbSXnBC1EXYxDjIInwEqfjApA0ysfdZgvJ7Xlun-AFLvoRTf-CoRRNovBGx261hN4TwPaczVF3J-xcHtvDOFPgJAG-R_mtqzDjT-3IkaiKZpvYOnU987tCnFoTT57W_MHujcqKFKmPhf8sPu0]--></g></svg>