<svg xmlns="http://www.w3.org/2000/svg" xmlns:xlink="http://www.w3.org/1999/xlink" contentStyleType="text/css" data-diagram-type="CLASS" height="314px" preserveAspectRatio="none" style="width:572px;height:314px;background:#FFFFFF;" version="1.1" viewBox="0 0 572 314" width="572px" zoomAndPan="magnify"><defs/><g><!--cluster dpv--><g class="cluster" data-entity="dpv" data-source-line="6" data-uid="ent0003" id="cluster_dpv"><path d="M246.93,6.602 L273.6199,6.602 A3.75,3.75 0 0 1 276.1199,9.102 L283.1199,31.6699 L562.97,31.6699 A2.5,2.5 0 0 1 565.47,34.1699 L565.47,216.102 A2.5,2.5 0 0 1 562.97,218.602 L246.93,218.602 A2.5,2.5 0 0 1 244.43,216.102 L244.43,9.102 A2.5,2.5 0 0 1 246.93,6.602" fill="none" style="stroke:#000000;stroke-width:1.5;"/><line style="stroke:#000000;stroke-width:1.5;" x1="244.43" x2="283.1199" y1="31.6699" y2="31.6699"/><text fill="#000000" font-family="sans-serif" font-size="14" font-weight="bold" lengthAdjust="spacing" textLength="25.6899" x="248.43" y="23.5679">dpv</text></g><!--class DataProcessor--><g class="entity" data-entity="DataProcessor" data-source-line="7" data-uid="ent0004" id="entity_DataProcessor"><rect fill="#F1F1F1" height="29.0679" rx="2.5" ry="2.5" style="stroke:#181818;stroke-width:0.5;" width="101.9837" x="446.9" y="45.072"/><text fill="#000000" font-family="sans-serif" font-size="14" lengthAdjust="spacing" textLength="95.9837" x="449.9" y="65.0379">DataProcessor</text></g><!--class DataController--><g class="entity" data-entity="DataController" data-source-line="8" data-uid="ent0005" id="entity_DataController"><rect fill="#F1F1F1" height="29.0679" rx="2.5" ry="2.5" style="stroke:#181818;stroke-width:0.5;" width="103.1596" x="446.31" y="109.072"/><text fill="#000000" font-family="sans-serif" font-size="14" lengthAdjust="spacing" textLength="97.1596" x="449.31" y="129.0379">DataController</text></g><!--class ThirdParty--><g class="entity" data-entity="ThirdParty" data-source-line="9" data-uid="ent0006" id="entity_ThirdParty"><rect fill="#F1F1F1" height="29.0679" rx="2.5" ry="2.5" style="stroke:#181818;stroke-width:0.5;" width="74.7397" x="460.52" y="173.072"/><text fill="#000000" font-family="sans-serif" font-size="14" lengthAdjust="spacing" textLength="68.7397" x="463.52" y="193.0379">ThirdParty</text></g><!--class Recipient--><g class="entity" data-entity="Recipient" data-source-line="10" data-uid="ent0007" id="entity_Recipient"><rect fill="#F1F1F1" height="29.0679" rx="2.5" ry="2.5" style="stroke:#181818;stroke-width:0.5;" width="66.7598" x="260.43" y="45.072"/><text fill="#000000" font-family="sans-serif" font-size="14" lengthAdjust="spacing" textLength="60.7598" x="263.43" y="65.0379">Recipient</text></g><!--class Thing--><g class="entity" data-entity="Thing" data-source-line="5" data-uid="ent0002" id="entity_Thing"><rect fill="#C0C0C0" height="29.0679" rx="2.5" ry="2.5" style="stroke:#181818;stroke-width:0.5;" width="43.3098" x="7" y="159.072"/><text fill="#000000" font-family="sans-serif" font-size="14" lengthAdjust="spacing" textLength="37.3098" x="10" y="179.0379">Thing</text></g><!--reverse link Recipient to ThirdParty--><g class="link" data-entity-1="Recipient" data-entity-2="ThirdParty" data-source-line="12" data-uid="lnk8" id="link_Recipient_ThirdParty"><path codeLine="12" d="M344.0268,78.9656 C361.7968,86.3956 367.19,89.742 385.31,101.602 C415.61,121.432 417.36,133.852 446.31,155.602 C454.2,161.532 463.2,167.462 471.4,172.592" fill="none" id="Recipient-backto-ThirdParty" style="stroke:#181818;stroke-width:1;"/><polygon fill="none" points="327.42,72.022,341.7123,84.5012,346.3413,73.43,327.42,72.022" style="stroke:#181818;stroke-width:1;"/></g><!--reverse link Recipient to DataController--><g class="link" data-entity-1="Recipient" data-entity-2="DataController" data-source-line="13" data-uid="lnk9" id="link_Recipient_DataController"><path codeLine="13" d="M345.1929,68.7679 C369.9229,73.5479 386.86,77.732 416.31,87.602 C433.6,93.392 452.23,101.582 467.21,108.682" fill="none" id="Recipient-backto-DataController" style="stroke:#181818;stroke-width:1;"/><polygon fill="none" points="327.52,65.352,344.0542,74.6589,346.3315,62.877,327.52,65.352" style="stroke:#181818;stroke-width:1;"/></g><!--reverse link Recipient to DataProcessor--><g class="link" data-entity-1="Recipient" data-entity-2="DataProcessor" data-source-line="14" data-uid="lnk10" id="link_Recipient_DataProcessor"><path codeLine="14" d="M345.28,59.602 C377.52,59.602 409.4,59.602 446.74,59.602" fill="none" id="Recipient-backto-DataProcessor" style="stroke:#181818;stroke-width:1;"/><polygon fill="none" points="327.28,59.602,345.28,65.602,345.28,53.602,327.28,59.602" style="stroke:#181818;stroke-width:1;"/></g><!--link Thing to Recipient--><g class="link" data-entity-1="Thing" data-entity-2="Recipient" data-source-line="16" data-uid="lnk11" id="link_Thing_Recipient"><path codeLine="16" d="M36.5,158.682 C44.62,142.722 59.71,117.902 80.31,104.602 C136.23,68.512 216.06,60.792 260.24,59.482" fill="none" id="Thing-Recipient" style="stroke:#181818;stroke-width:1;"/><polygon fill="#000000" points="89.8809,59.3184,80.4209,60.2978,82.8033,65.6712,89.8809,59.3184" style="stroke:#000000;stroke-width:1;"/><text fill="#000000" font-family="sans-serif" font-size="13" lengthAdjust="spacing" textLength="77.9741" x="94.31" y="66.389">hasRecipient</text></g><!--link Thing to DataController--><g class="link" data-entity-1="Thing" data-entity-2="DataController" data-source-line="17" data-uid="lnk12" id="link_Thing_DataController"><path codeLine="17" d="M50.61,179.092 C106.32,192.722 262.3,224.702 385.31,190.602 C390.11,189.272 441.33,157.922 472.68,138.592" fill="none" id="Thing-DataController" style="stroke:#181818;stroke-width:1;"/><polygon fill="#000000" points="212.2871,180.9774,203.0027,178.9159,203.5641,184.7669,212.2871,180.9774" style="stroke:#000000;stroke-width:1;"/><text fill="#000000" font-family="sans-serif" font-size="13" lengthAdjust="spacing" textLength="168.1941" x="216.31" y="186.499">hasRecipientDataController</text></g><!--link Thing to DataProcessor--><g class="link" data-entity-1="Thing" data-entity-2="DataProcessor" data-source-line="18" data-uid="lnk13" id="link_Thing_DataProcessor"><path codeLine="18" d="M50.52,170.612 C116.72,161.032 321.4,130.512 385.31,110.602 C415,101.352 447.12,86.062 469.24,74.632" fill="none" id="Thing-DataProcessor" style="stroke:#181818;stroke-width:1;"/><polygon fill="#000000" points="212.6836,100.3379,203.2105,99.4941,204.5238,105.2234,212.6836,100.3379" style="stroke:#000000;stroke-width:1;"/><text fill="#000000" font-family="sans-serif" font-size="13" lengthAdjust="spacing" textLength="167.1021" x="216.81" y="106.499">hasRecipientDataProcessor</text></g><!--link Thing to ThirdParty--><g class="link" data-entity-1="Thing" data-entity-2="ThirdParty" data-source-line="19" data-uid="lnk14" id="link_Thing_ThirdParty"><path codeLine="19" d="M36.65,188.432 C44.9,204.362 60.1,229.312 80.31,243.602 C126.46,276.252 146.36,271.522 202.31,279.602 C282.81,291.232 308.76,307.092 385.31,279.602 C428.32,264.162 466.57,224.172 485.09,202.352" fill="none" id="Thing-ThirdParty" style="stroke:#181818;stroke-width:1;"/><polygon fill="#000000" points="225.8076,270.6101,216.858,267.392,216.6757,273.267,225.8076,270.6101" style="stroke:#000000;stroke-width:1;"/><text fill="#000000" font-family="sans-serif" font-size="13" lengthAdjust="spacing" textLength="141.8041" x="229.81" y="275.499">hasRecipientThirdParty</text></g><!--SRC=[ROz13i8m30JF-1L673Z10n3Y0Wz0Y0-4rBGH9euI5ma1VmU4QDB2BTdPNTjZvost5M7IAzCyiF7QdXcOZeeg65tTA5OkabKd7gOguQqVH5NE1G3B9YNSDyxNE4cEBnGX67ioDM4LBdY3qSUoCMgsKIob9B4Kr-8r2ZDrwgijLbiJzVfLTcHTSEGL7j2zSNcVpKhpW0pA_z2y3tmkUEdPji36fFnTPK-_kU_his6gc_WRwb2PoTSDrYd02k09]--></g></svg>