<svg xmlns="http://www.w3.org/2000/svg" xmlns:xlink="http://www.w3.org/1999/xlink" contentStyleType="text/css" data-diagram-type="SEQUENCE" height="1039px" preserveAspectRatio="none" style="width:648px;height:1039px;background:#FFFFFF;" version="1.1" viewBox="0 0 648 1039" width="648px" zoomAndPan="magnify"><defs/><g><rect fill="none" height="635.9298" style="stroke:#000000;stroke-width:1.5;" width="583.1772" x="58" y="303.304"/><rect fill="none" height="515.8299" style="stroke:#000000;stroke-width:1.5;" width="563.1772" x="68" y="361.716"/><rect fill="none" height="255.9059" style="stroke:#000000;stroke-width:1.5;" width="543.1772" x="78" y="569.934"/><g><title>Person</title><rect fill="#000000" fill-opacity="0.00000" height="872.1659" width="8" x="34.9879" y="84.0679"/><line style="stroke:#181818;stroke-width:0.5;stroke-dasharray:5,5;" x1="38" x2="38" y1="84.0679" y2="956.2338"/></g><g><title>Person_Agent</title><rect fill="#000000" fill-opacity="0.00000" height="872.1659" width="8" x="154.564" y="84.0679"/><line style="stroke:#181818;stroke-width:0.5;stroke-dasharray:5,5;" x1="157.8892" x2="157.8892" y1="84.0679" y2="956.2338"/></g><g><title>Agreement_Registry</title><rect fill="#000000" fill-opacity="0.00000" height="872.1659" width="8" x="372.0921" y="84.0679"/><line style="stroke:#181818;stroke-width:0.5;stroke-dasharray:5,5;" x1="375.3194" x2="375.3194" y1="84.0679" y2="956.2338"/></g><g><title>Entity_Agent</title><rect fill="#000000" fill-opacity="0.00000" height="872.1659" width="8" x="537.4032" y="84.0679"/><line style="stroke:#181818;stroke-width:0.5;stroke-dasharray:5,5;" x1="541.0684" x2="541.0684" y1="84.0679" y2="956.2338"/></g><g><title>Entity</title><rect fill="#000000" fill-opacity="0.00000" height="872.1659" width="8" x="613.386" y="84.0679"/><line style="stroke:#181818;stroke-width:0.5;stroke-dasharray:5,5;" x1="616.7381" x2="616.7381" y1="84.0679" y2="956.2338"/></g><g class="participant participant-head" data-participant="P"><text fill="#000000" font-family="sans-serif" font-size="14" lengthAdjust="spacing" textLength="45.9758" x="13" y="79.9659">Person</text><ellipse cx="38.9879" cy="13.5" fill="#E2E2F0" rx="8" ry="8" style="stroke:#181818;stroke-width:0.5;"/><path d="M38.9879,21.5 L38.9879,48.5 M25.9879,29.5 L51.9879,29.5 M38.9879,48.5 L25.9879,63.5 M38.9879,48.5 L51.9879,63.5" fill="none" style="stroke:#181818;stroke-width:0.5;"/></g><g class="participant participant-tail" data-participant="P"><text fill="#000000" font-family="sans-serif" font-size="14" lengthAdjust="spacing" textLength="45.9758" x="13" y="970.1998">Person</text><ellipse cx="38.9879" cy="982.8018" fill="#E2E2F0" rx="8" ry="8" style="stroke:#181818;stroke-width:0.5;"/><path d="M38.9879,990.8018 L38.9879,1017.8018 M25.9879,998.8018 L51.9879,998.8018 M38.9879,1017.8018 L25.9879,1032.8018 M38.9879,1017.8018 L51.9879,1032.8018" fill="none" style="stroke:#181818;stroke-width:0.5;"/></g><g class="participant participant-head" data-participant="PA"><text fill="#000000" font-family="sans-serif" font-size="14" lengthAdjust="spacing" textLength="91.3497" x="109.8892" y="79.9659">Person_Agent</text><ellipse cx="158.564" cy="49" fill="#E2E2F0" rx="12" ry="12" style="stroke:#181818;stroke-width:0.5;"/><line style="stroke:#181818;stroke-width:0.5;" x1="146.564" x2="170.564" y1="63" y2="63"/></g><g class="participant participant-tail" data-participant="PA"><text fill="#000000" font-family="sans-serif" font-size="14" lengthAdjust="spacing" textLength="91.3497" x="109.8892" y="970.1998">Person_Agent</text><ellipse cx="158.564" cy="990.3018" fill="#E2E2F0" rx="12" ry="12" style="stroke:#181818;stroke-width:0.5;"/><line style="stroke:#181818;stroke-width:0.5;" x1="146.564" x2="170.564" y1="1004.3018" y2="1004.3018"/></g><g class="participant participant-head" data-participant="R"><text fill="#000000" font-family="sans-serif" font-size="14" lengthAdjust="spacing" textLength="133.5455" x="306.3194" y="79.9659">Agreement_Registry</text><path d="M358.0921,29 C358.0921,19 376.0921,19 376.0921,19 C376.0921,19 394.0921,19 394.0921,29 L394.0921,55 C394.0921,65 376.0921,65 376.0921,65 C376.0921,65 358.0921,65 358.0921,55 L358.0921,29" fill="#E2E2F0" style="stroke:#181818;stroke-width:0.5;"/><path d="M358.0921,29 C358.0921,39 376.0921,39 376.0921,39 C376.0921,39 394.0921,39 394.0921,29" fill="none" style="stroke:#181818;stroke-width:0.5;"/></g><g class="participant participant-tail" data-participant="R"><text fill="#000000" font-family="sans-serif" font-size="14" lengthAdjust="spacing" textLength="133.5455" x="306.3194" y="970.1998">Agreement_Registry</text><path d="M358.0921,984.3018 C358.0921,974.3018 376.0921,974.3018 376.0921,974.3018 C376.0921,974.3018 394.0921,974.3018 394.0921,984.3018 L394.0921,1010.3018 C394.0921,1020.3018 376.0921,1020.3018 376.0921,1020.3018 C376.0921,1020.3018 358.0921,1020.3018 358.0921,1010.3018 L358.0921,984.3018" fill="#E2E2F0" style="stroke:#181818;stroke-width:0.5;"/><path d="M358.0921,984.3018 C358.0921,994.3018 376.0921,994.3018 376.0921,994.3018 C376.0921,994.3018 394.0921,994.3018 394.0921,984.3018" fill="none" style="stroke:#181818;stroke-width:0.5;"/></g><g class="participant participant-head" data-participant="PRA"><text fill="#000000" font-family="sans-serif" font-size="14" lengthAdjust="spacing" textLength="82.6697" x="497.0684" y="79.9659">Entity_Agent</text><ellipse cx="541.4032" cy="49" fill="#E2E2F0" rx="12" ry="12" style="stroke:#181818;stroke-width:0.5;"/><line style="stroke:#181818;stroke-width:0.5;" x1="529.4032" x2="553.4032" y1="63" y2="63"/></g><g class="participant participant-tail" data-participant="PRA"><text fill="#000000" font-family="sans-serif" font-size="14" lengthAdjust="spacing" textLength="82.6697" x="497.0684" y="970.1998">Entity_Agent</text><ellipse cx="541.4032" cy="990.3018" fill="#E2E2F0" rx="12" ry="12" style="stroke:#181818;stroke-width:0.5;"/><line style="stroke:#181818;stroke-width:0.5;" x1="529.4032" x2="553.4032" y1="1004.3018" y2="1004.3018"/></g><g class="participant participant-head" data-participant="SP"><text fill="#000000" font-family="sans-serif" font-size="14" lengthAdjust="spacing" textLength="37.2959" x="595.7381" y="79.9659">Entity</text><ellipse cx="617.386" cy="13.5" fill="#E2E2F0" rx="8" ry="8" style="stroke:#181818;stroke-width:0.5;"/><path d="M617.386,21.5 L617.386,48.5 M604.386,29.5 L630.386,29.5 M617.386,48.5 L604.386,63.5 M617.386,48.5 L630.386,63.5" fill="none" style="stroke:#181818;stroke-width:0.5;"/></g><g class="participant participant-tail" data-participant="SP"><text fill="#000000" font-family="sans-serif" font-size="14" lengthAdjust="spacing" textLength="37.2959" x="595.7381" y="970.1998">Entity</text><ellipse cx="617.386" cy="982.8018" fill="#E2E2F0" rx="8" ry="8" style="stroke:#181818;stroke-width:0.5;"/><path d="M617.386,990.8018 L617.386,1017.8018 M604.386,998.8018 L630.386,998.8018 M617.386,1017.8018 L604.386,1032.8018 M617.386,1017.8018 L630.386,1032.8018" fill="none" style="stroke:#181818;stroke-width:0.5;"/></g><g class="message" data-participant-1="P" data-participant-2="R"><polygon fill="#181818" points="364.0921,113.7739,374.0921,117.7739,364.0921,121.7739,368.0921,117.7739" style="stroke:#181818;stroke-width:1;"/><line style="stroke:#181818;stroke-width:1;stroke-dasharray:2,2;" x1="38.9879" x2="370.0921" y1="117.7739" y2="117.7739"/><text fill="#000000" font-family="sans-serif" font-size="13" lengthAdjust="spacing" textLength="114.4781" x="45.9879" y="111.9649">choose agreement</text></g><path d="M5,130.7739 L5,157.7739 L194,157.7739 L194,140.7739 L184,130.7739 L5,130.7739" fill="#FEFFDD" style="stroke:#181818;stroke-width:0.5;"/><path d="M184,130.7739 L184,140.7739 L194,140.7739 L184,130.7739" fill="#FEFFDD" style="stroke:#181818;stroke-width:0.5;"/><text fill="#000000" font-family="sans-serif" font-size="13" lengthAdjust="spacing" textLength="152.1911" x="19.0238" y="149.6709">chooses SD-BY, SD BY-AT</text><g class="message" data-participant-1="P" data-participant-2="PA"><polygon fill="#181818" points="146.564,183.186,156.564,187.186,146.564,191.186,150.564,187.186" style="stroke:#181818;stroke-width:1;"/><line style="stroke:#181818;stroke-width:1;stroke-dasharray:2,2;" x1="38.9879" x2="152.564" y1="187.186" y2="187.186"/><text fill="#000000" font-family="sans-serif" font-size="13" lengthAdjust="spacing" textLength="95.5761" x="45.9879" y="181.377">Sets preference</text></g><path d="M17,200.186 L17,227.186 L638,227.186 L638,210.186 L628,200.186 L17,200.186" fill="#FEFFDD" style="stroke:#181818;stroke-width:0.5;"/><path d="M628,200.186 L628,210.186 L638,210.186 L628,200.186" fill="#FEFFDD" style="stroke:#181818;stroke-width:0.5;"/><text fill="#000000" font-family="sans-serif" font-size="13" lengthAdjust="spacing" textLength="127.1921" x="259.4209" y="219.083">person visits website</text><g class="message" data-participant-1="PA" data-participant-2="PRA"><polygon fill="#181818" points="529.4032,252.598,539.4032,256.598,529.4032,260.598,533.4032,256.598" style="stroke:#181818;stroke-width:1;"/><line style="stroke:#181818;stroke-width:1;stroke-dasharray:2,2;" x1="158.564" x2="535.4032" y1="256.598" y2="256.598"/><text fill="#000000" font-family="sans-serif" font-size="13" lengthAdjust="spacing" textLength="194.5842" x="165.564" y="250.789">do you support P7012 protocol?</text></g><g class="message" data-participant-1="PRA" data-participant-2="PA"><polygon fill="#181818" points="169.564,284.304,159.564,288.304,169.564,292.304,165.564,288.304" style="stroke:#181818;stroke-width:1;"/><line style="stroke:#181818;stroke-width:1;stroke-dasharray:2,2;" x1="163.564" x2="540.4032" y1="288.304" y2="288.304"/><text fill="#000000" font-family="sans-serif" font-size="13" lengthAdjust="spacing" textLength="302.9912" x="175.564" y="282.495">P7012 supported, what are your preferred terms?</text></g><path d="M58,303.304 L120.303,303.304 L120.303,313.01 L110.303,323.01 L58,323.01 L58,303.304" fill="#EEEEEE" style="stroke:#000000;stroke-width:1.5;"/><rect fill="none" height="635.9298" style="stroke:#000000;stroke-width:1.5;" width="583.1772" x="58" y="303.304"/><text fill="#000000" font-family="sans-serif" font-size="13" font-weight="bold" lengthAdjust="spacing" textLength="17.303" x="73" y="318.201">alt</text><text fill="#000000" font-family="sans-serif" font-size="11" font-weight="bold" lengthAdjust="spacing" textLength="99.3403" x="135.303" y="317.0629">[P7012 Supported]</text><g class="message" data-participant-1="PA" data-participant-2="PRA"><polygon fill="#181818" points="529.4032,342.716,539.4032,346.716,529.4032,350.716,533.4032,346.716" style="stroke:#181818;stroke-width:1;"/><line style="stroke:#181818;stroke-width:1;stroke-dasharray:2,2;" x1="158.564" x2="535.4032" y1="346.716" y2="346.716"/><text fill="#000000" font-family="sans-serif" font-size="13" lengthAdjust="spacing" textLength="245.5702" x="165.564" y="340.907">SD-BY as defined in Agreement_Registry</text></g><path d="M68,361.716 L130.303,361.716 L130.303,371.4221 L120.303,381.4221 L68,381.4221 L68,361.716" fill="#EEEEEE" style="stroke:#000000;stroke-width:1.5;"/><rect fill="none" height="515.8299" style="stroke:#000000;stroke-width:1.5;" width="563.1772" x="68" y="361.716"/><text fill="#000000" font-family="sans-serif" font-size="13" font-weight="bold" lengthAdjust="spacing" textLength="17.303" x="83" y="376.6131">alt</text><text fill="#000000" font-family="sans-serif" font-size="11" font-weight="bold" lengthAdjust="spacing" textLength="114.2892" x="145.303" y="375.475">[SD-BY is Acceptable]</text><g class="message" data-participant-1="PRA" data-participant-2="PA"><polygon fill="#181818" points="169.564,401.1281,159.564,405.1281,169.564,409.1281,165.564,405.1281" style="stroke:#181818;stroke-width:1;"/><line style="stroke:#181818;stroke-width:1;stroke-dasharray:2,2;" x1="163.564" x2="540.4032" y1="405.1281" y2="405.1281"/><text fill="#000000" font-family="sans-serif" font-size="13" lengthAdjust="spacing" textLength="242.2162" x="175.564" y="399.3191">SD-BY accepted, let's execute a contract</text></g><g class="message" data-participant-1="PA" data-participant-2="PRA"><polygon fill="#181818" points="529.4032,432.8341,539.4032,436.8341,529.4032,440.8341,533.4032,436.8341" style="stroke:#181818;stroke-width:1;"/><line style="stroke:#181818;stroke-width:1;stroke-dasharray:2,2;" x1="158.564" x2="535.4032" y1="436.8341" y2="436.8341"/><text fill="#000000" font-family="sans-serif" font-size="13" lengthAdjust="spacing" textLength="217.0872" x="165.564" y="431.0251">agreed (here is the signed contract)</text></g><g class="message" data-participant-1="PRA" data-participant-2="PA"><polygon fill="#181818" points="169.564,464.5401,159.564,468.5401,169.564,472.5401,165.564,468.5401" style="stroke:#181818;stroke-width:1;"/><line style="stroke:#181818;stroke-width:1;stroke-dasharray:2,2;" x1="163.564" x2="540.4032" y1="468.5401" y2="468.5401"/><text fill="#000000" font-family="sans-serif" font-size="13" lengthAdjust="spacing" textLength="222.8722" x="175.564" y="462.7311">agreed (here is fully signed contract)</text></g><path d="M114,481.5401 L114,508.5401 L584,508.5401 L584,491.5401 L574,481.5401 L114,481.5401" fill="#FEFFDD" style="stroke:#181818;stroke-width:0.5;"/><path d="M574,481.5401 L574,491.5401 L584,491.5401 L574,481.5401" fill="#FEFFDD" style="stroke:#181818;stroke-width:0.5;"/><text fill="#000000" font-family="sans-serif" font-size="13" lengthAdjust="spacing" textLength="430.3652" x="129.7418" y="500.4371">Contract is fully executed and is now in effect, both parties save a copy</text><line style="stroke:#000000;stroke-width:1;stroke-dasharray:2,2;" x1="68" x2="631.1772" y1="515.2461" y2="515.2461"/><text fill="#000000" font-family="sans-serif" font-size="11" font-weight="bold" lengthAdjust="spacing" textLength="280.289" x="73" y="527.005">[SD-BY is Unacceptable, but SD BY-AT is Acceptable]</text><g class="message" data-participant-1="PRA" data-participant-2="PA"><polygon fill="#181818" points="169.564,550.934,159.564,554.934,169.564,558.934,165.564,554.934" style="stroke:#181818;stroke-width:1;"/><line style="stroke:#181818;stroke-width:1;stroke-dasharray:2,2;" x1="163.564" x2="540.4032" y1="554.934" y2="554.934"/><text fill="#000000" font-family="sans-serif" font-size="13" lengthAdjust="spacing" textLength="261.4952" x="175.564" y="549.125">SD-BY not accepted, is SD BY-A negotiable?</text></g><path d="M78,569.934 L140.303,569.934 L140.303,579.6401 L130.303,589.6401 L78,589.6401 L78,569.934" fill="#EEEEEE" style="stroke:#000000;stroke-width:1.5;"/><rect fill="none" height="255.9059" style="stroke:#000000;stroke-width:1.5;" width="543.1772" x="78" y="569.934"/><text fill="#000000" font-family="sans-serif" font-size="13" font-weight="bold" lengthAdjust="spacing" textLength="17.303" x="93" y="584.831">alt</text><text fill="#000000" font-family="sans-serif" font-size="11" font-weight="bold" lengthAdjust="spacing" textLength="124.7611" x="155.303" y="583.6929">[SD BY-A is Acceptable]</text><g class="message" data-participant-1="PA" data-participant-2="PRA"><polygon fill="#181818" points="529.4032,609.3461,539.4032,613.3461,529.4032,617.3461,533.4032,613.3461" style="stroke:#181818;stroke-width:1;"/><line style="stroke:#181818;stroke-width:1;stroke-dasharray:2,2;" x1="158.564" x2="535.4032" y1="613.3461" y2="613.3461"/><text fill="#000000" font-family="sans-serif" font-size="13" lengthAdjust="spacing" textLength="268.7753" x="165.564" y="607.5371">SD BY-A agreed (here is the signed contract)</text></g><g class="message" data-participant-1="PRA" data-participant-2="PA"><polygon fill="#181818" points="169.564,641.0521,159.564,645.0521,169.564,649.0521,165.564,645.0521" style="stroke:#181818;stroke-width:1;"/><line style="stroke:#181818;stroke-width:1;stroke-dasharray:2,2;" x1="163.564" x2="540.4032" y1="645.0521" y2="645.0521"/><text fill="#000000" font-family="sans-serif" font-size="13" lengthAdjust="spacing" textLength="222.8722" x="175.564" y="639.2431">agreed (here is fully signed contract)</text></g><path d="M88,658.0521 L88,685.0521 L611,685.0521 L611,668.0521 L601,658.0521 L88,658.0521" fill="#FEFFDD" style="stroke:#181818;stroke-width:0.5;"/><path d="M601,658.0521 L601,668.0521 L611,668.0521 L601,658.0521" fill="#FEFFDD" style="stroke:#181818;stroke-width:0.5;"/><text fill="#000000" font-family="sans-serif" font-size="13" lengthAdjust="spacing" textLength="502.1772" x="94" y="676.9491">Negotiated Contract is fully executed and is now in effect, both parties save a copy</text><line style="stroke:#000000;stroke-width:1;stroke-dasharray:2,2;" x1="78" x2="621.1772" y1="691.7581" y2="691.7581"/><text fill="#000000" font-family="sans-serif" font-size="11" font-weight="bold" lengthAdjust="spacing" textLength="179.6287" x="83" y="703.517">[Term SD BY-A is Not Acceptable]</text><g class="message" data-participant-1="PA" data-participant-2="PRA"><polygon fill="#181818" points="529.4032,727.446,539.4032,731.446,529.4032,735.446,533.4032,731.446" style="stroke:#181818;stroke-width:1;"/><line style="stroke:#181818;stroke-width:1;stroke-dasharray:2,2;" x1="158.564" x2="535.4032" y1="731.446" y2="731.446"/><text fill="#000000" font-family="sans-serif" font-size="13" lengthAdjust="spacing" textLength="275.2753" x="165.564" y="725.637">SD BY-A is not acceptable, negotiation is over</text></g><path d="M114,744.446 L114,771.446 L584,771.446 L584,754.446 L574,744.446 L114,744.446" fill="#FEFFDD" style="stroke:#181818;stroke-width:0.5;"/><path d="M574,744.446 L574,754.446 L584,754.446 L574,744.446" fill="#FEFFDD" style="stroke:#181818;stroke-width:0.5;"/><text fill="#000000" font-family="sans-serif" font-size="13" lengthAdjust="spacing" textLength="172.9001" x="258.4744" y="763.343">Contract process terminates</text><line style="stroke:#000000;stroke-width:1;stroke-dasharray:2,2;" x1="78" x2="621.1772" y1="778.152" y2="778.152"/><text fill="#000000" font-family="sans-serif" font-size="11" font-weight="bold" lengthAdjust="spacing" textLength="290.233" x="83" y="789.9109">[SD BY-A is Unknown and not in Agreement_Registry]</text><g class="message" data-participant-1="PA" data-participant-2="PRA"><polygon fill="#181818" points="529.4032,813.8399,539.4032,817.8399,529.4032,821.8399,533.4032,817.8399" style="stroke:#181818;stroke-width:1;"/><line style="stroke:#181818;stroke-width:1;stroke-dasharray:2,2;" x1="158.564" x2="535.4032" y1="817.8399" y2="817.8399"/><text fill="#000000" font-family="sans-serif" font-size="13" lengthAdjust="spacing" textLength="358.8392" x="165.564" y="812.0309">SD BY-A is not a recognised agreement, negotiation is over</text></g><g class="message" data-participant-1="PA" data-participant-2="PA"><line style="stroke:#181818;stroke-width:1;stroke-dasharray:2,2;" x1="158.564" x2="200.564" y1="856.5459" y2="856.5459"/><line style="stroke:#181818;stroke-width:1;stroke-dasharray:2,2;" x1="200.564" x2="200.564" y1="856.5459" y2="869.5459"/><line style="stroke:#181818;stroke-width:1;stroke-dasharray:2,2;" x1="159.564" x2="200.564" y1="869.5459" y2="869.5459"/><polygon fill="#181818" points="169.564,865.5459,159.564,869.5459,169.564,873.5459,165.564,869.5459" style="stroke:#181818;stroke-width:1;"/><text fill="#000000" font-family="sans-serif" font-size="13" lengthAdjust="spacing" textLength="203.5282" x="165.564" y="850.7369">create a record of this interaction</text></g><line style="stroke:#000000;stroke-width:1;stroke-dasharray:2,2;" x1="58" x2="641.1772" y1="885.5459" y2="885.5459"/><text fill="#000000" font-family="sans-serif" font-size="11" font-weight="bold" lengthAdjust="spacing" textLength="122.7921" x="63" y="897.3049">[P7012 Not Supported]</text><path d="M102,906.5278 L102,933.5278 L596,933.5278 L596,916.5278 L586,906.5278 L102,906.5278" fill="#FEFFDD" style="stroke:#181818;stroke-width:0.5;"/><path d="M586,906.5278 L586,916.5278 L596,916.5278 L586,906.5278" fill="#FEFFDD" style="stroke:#181818;stroke-width:0.5;"/><text fill="#000000" font-family="sans-serif" font-size="13" lengthAdjust="spacing" textLength="473.0314" x="108" y="925.4248">No interaction takes place as person cannot assert their preferred agreement</text><!--SRC=[hLJ1Rjim3BthAtZR1ZX0jyk075QutQw5uRI7dWf5fXsXhcH8ShBy_KZ9TfpDQJjiESImnVV8zqXHgc0T5EYyDI0z509DqE4uV7hA6tgF1xceP91RwH7onY6-qC5JYOtsmHqveXoXF-9Z1Yrp8MEUTCBVDeKG1QnMtw1SWzfPIxHof1N61WIxHweieynZ1C6-hsuUCth0pUCglnyeYXpMiC7WeNDOeqEZy9nZKwoXIoBtsckAFE2MdYW86obAvgWi76qFlkywwm8KNwy-Vo5E6wooxRNWe2bVEXn2iShWi9Caro5JkA4IXnK4T2_-MWZPZeoR4II0VcSLH85iK8MrDeJMPi7kY8j_J9emsaEk57RKenRZMIIVbpoGnoYkkCNmmGF-HDMJLnAKDS5HfqxeUMcnFHLyt971d2ti4BnkkCWH-6avx-_8kc_RusNih7DbdYMAso7g11_Aha2QYhyQUs2piAvHXGosDkoWaove6XilzqbVbwp3biPjikt1oCau0lPXcg_tcqerpupLVgG0WuqDck4q0YD1wbeAM4wnC1Wf_A-wyA-TkDIDkoIAtV-_ZPcQSq-NPcxH7VdxfathEUBKaTJNeH51qmwWOrRqfiv97Eq0XTx7kwmD2VVdvSxoFfXdKcoYUgxXyWL-Zm1mg6nZj6S_HvhNnQ2f_hZ0B4OvbF6QCwMhmDOqF0JMXbIHIE8I8pwAIikAdJzVM8iJOUSy4EGpTRThfK9UPiFgLT94KTuZRLUQN3tVawVrJnNy0W00]--></g></svg>