<svg xmlns="http://www.w3.org/2000/svg" xmlns:xlink="http://www.w3.org/1999/xlink" contentStyleType="text/css" data-diagram-type="SEQUENCE" height="1478px" preserveAspectRatio="none" style="width:877px;height:1478px;background:#FFFFFF;" version="1.1" viewBox="0 0 877 1478" width="877px" zoomAndPan="magnify"><defs/><g><rect fill="none" height="1074.6598" style="stroke:#000000;stroke-width:1.5;" width="802.8204" x="68" y="303.304"/><rect fill="none" height="176.512" style="stroke:#000000;stroke-width:1.5;" width="563.63" x="297.1904" y="406.4221"/><rect fill="none" height="719.3419" style="stroke:#000000;stroke-width:1.5;" width="563.1772" x="78" y="596.934"/><rect fill="none" height="189.512" style="stroke:#000000;stroke-width:1.5;" width="356.8467" x="99.8892" y="805.152"/><rect fill="none" height="255.9059" style="stroke:#000000;stroke-width:1.5;" width="543.1772" x="88" y="1008.664"/><g><title>Person</title><rect fill="#000000" fill-opacity="0.00000" height="1310.8959" width="8" x="34.9879" y="84.0679"/><line style="stroke:#181818;stroke-width:0.5;stroke-dasharray:5,5;" x1="38" x2="38" y1="84.0679" y2="1394.9638"/></g><g><title>Person_Agent</title><rect fill="#000000" fill-opacity="0.00000" height="1310.8959" width="8" x="154.564" y="84.0679"/><line style="stroke:#181818;stroke-width:0.5;stroke-dasharray:5,5;" x1="157.8892" x2="157.8892" y1="84.0679" y2="1394.9638"/></g><g><title>Agreement_Registry</title><rect fill="#000000" fill-opacity="0.00000" height="1310.8959" width="8" x="372.9632" y="84.0679"/><line style="stroke:#181818;stroke-width:0.5;stroke-dasharray:5,5;" x1="376.1904" x2="376.1904" y1="84.0679" y2="1394.9638"/></g><g><title>Entity_Agent</title><rect fill="#000000" fill-opacity="0.00000" height="1310.8959" width="8" x="558.5533" y="84.0679"/><line style="stroke:#181818;stroke-width:0.5;stroke-dasharray:5,5;" x1="562.2184" x2="562.2184" y1="84.0679" y2="1394.9638"/></g><g><title>Entity</title><rect fill="#000000" fill-opacity="0.00000" height="1310.8959" width="8" x="825.1725" y="84.0679"/><line style="stroke:#181818;stroke-width:0.5;stroke-dasharray:5,5;" x1="828.5245" x2="828.5245" y1="84.0679" y2="1394.9638"/></g><g class="participant participant-head" data-participant="P"><text fill="#000000" font-family="sans-serif" font-size="14" lengthAdjust="spacing" textLength="45.9758" x="13" y="79.9659">Person</text><ellipse cx="38.9879" cy="13.5" fill="#E2E2F0" rx="8" ry="8" style="stroke:#181818;stroke-width:0.5;"/><path d="M38.9879,21.5 L38.9879,48.5 M25.9879,29.5 L51.9879,29.5 M38.9879,48.5 L25.9879,63.5 M38.9879,48.5 L51.9879,63.5" fill="none" style="stroke:#181818;stroke-width:0.5;"/></g><g class="participant participant-tail" data-participant="P"><text fill="#000000" font-family="sans-serif" font-size="14" lengthAdjust="spacing" textLength="45.9758" x="13" y="1408.9297">Person</text><ellipse cx="38.9879" cy="1421.5317" fill="#E2E2F0" rx="8" ry="8" style="stroke:#181818;stroke-width:0.5;"/><path d="M38.9879,1429.5317 L38.9879,1456.5317 M25.9879,1437.5317 L51.9879,1437.5317 M38.9879,1456.5317 L25.9879,1471.5317 M38.9879,1456.5317 L51.9879,1471.5317" fill="none" style="stroke:#181818;stroke-width:0.5;"/></g><g class="participant participant-head" data-participant="PA"><text fill="#000000" font-family="sans-serif" font-size="14" lengthAdjust="spacing" textLength="91.3497" x="109.8892" y="79.9659">Person_Agent</text><ellipse cx="158.564" cy="49" fill="#E2E2F0" rx="12" ry="12" style="stroke:#181818;stroke-width:0.5;"/><line style="stroke:#181818;stroke-width:0.5;" x1="146.564" x2="170.564" y1="63" y2="63"/></g><g class="participant participant-tail" data-participant="PA"><text fill="#000000" font-family="sans-serif" font-size="14" lengthAdjust="spacing" textLength="91.3497" x="109.8892" y="1408.9297">Person_Agent</text><ellipse cx="158.564" cy="1429.0317" fill="#E2E2F0" rx="12" ry="12" style="stroke:#181818;stroke-width:0.5;"/><line style="stroke:#181818;stroke-width:0.5;" x1="146.564" x2="170.564" y1="1443.0317" y2="1443.0317"/></g><g class="participant participant-head" data-participant="R"><text fill="#000000" font-family="sans-serif" font-size="14" lengthAdjust="spacing" textLength="133.5455" x="307.1904" y="79.9659">Agreement_Registry</text><path d="M358.9632,29 C358.9632,19 376.9632,19 376.9632,19 C376.9632,19 394.9632,19 394.9632,29 L394.9632,55 C394.9632,65 376.9632,65 376.9632,65 C376.9632,65 358.9632,65 358.9632,55 L358.9632,29" fill="#E2E2F0" style="stroke:#181818;stroke-width:0.5;"/><path d="M358.9632,29 C358.9632,39 376.9632,39 376.9632,39 C376.9632,39 394.9632,39 394.9632,29" fill="none" style="stroke:#181818;stroke-width:0.5;"/></g><g class="participant participant-tail" data-participant="R"><text fill="#000000" font-family="sans-serif" font-size="14" lengthAdjust="spacing" textLength="133.5455" x="307.1904" y="1408.9297">Agreement_Registry</text><path d="M358.9632,1423.0317 C358.9632,1413.0317 376.9632,1413.0317 376.9632,1413.0317 C376.9632,1413.0317 394.9632,1413.0317 394.9632,1423.0317 L394.9632,1449.0317 C394.9632,1459.0317 376.9632,1459.0317 376.9632,1459.0317 C376.9632,1459.0317 358.9632,1459.0317 358.9632,1449.0317 L358.9632,1423.0317" fill="#E2E2F0" style="stroke:#181818;stroke-width:0.5;"/><path d="M358.9632,1423.0317 C358.9632,1433.0317 376.9632,1433.0317 376.9632,1433.0317 C376.9632,1433.0317 394.9632,1433.0317 394.9632,1423.0317" fill="none" style="stroke:#181818;stroke-width:0.5;"/></g><g class="participant participant-head" data-participant="PRA"><text fill="#000000" font-family="sans-serif" font-size="14" lengthAdjust="spacing" textLength="82.6697" x="518.2184" y="79.9659">Entity_Agent</text><ellipse cx="562.5533" cy="49" fill="#E2E2F0" rx="12" ry="12" style="stroke:#181818;stroke-width:0.5;"/><line style="stroke:#181818;stroke-width:0.5;" x1="550.5533" x2="574.5533" y1="63" y2="63"/></g><g class="participant participant-tail" data-participant="PRA"><text fill="#000000" font-family="sans-serif" font-size="14" lengthAdjust="spacing" textLength="82.6697" x="518.2184" y="1408.9297">Entity_Agent</text><ellipse cx="562.5533" cy="1429.0317" fill="#E2E2F0" rx="12" ry="12" style="stroke:#181818;stroke-width:0.5;"/><line style="stroke:#181818;stroke-width:0.5;" x1="550.5533" x2="574.5533" y1="1443.0317" y2="1443.0317"/></g><g class="participant participant-head" data-participant="SP"><text fill="#000000" font-family="sans-serif" font-size="14" lengthAdjust="spacing" textLength="37.2959" x="807.5245" y="79.9659">Entity</text><ellipse cx="829.1725" cy="13.5" fill="#E2E2F0" rx="8" ry="8" style="stroke:#181818;stroke-width:0.5;"/><path d="M829.1725,21.5 L829.1725,48.5 M816.1725,29.5 L842.1725,29.5 M829.1725,48.5 L816.1725,63.5 M829.1725,48.5 L842.1725,63.5" fill="none" style="stroke:#181818;stroke-width:0.5;"/></g><g class="participant participant-tail" data-participant="SP"><text fill="#000000" font-family="sans-serif" font-size="14" lengthAdjust="spacing" textLength="37.2959" x="807.5245" y="1408.9297">Entity</text><ellipse cx="829.1725" cy="1421.5317" fill="#E2E2F0" rx="8" ry="8" style="stroke:#181818;stroke-width:0.5;"/><path d="M829.1725,1429.5317 L829.1725,1456.5317 M816.1725,1437.5317 L842.1725,1437.5317 M829.1725,1456.5317 L816.1725,1471.5317 M829.1725,1456.5317 L842.1725,1471.5317" fill="none" style="stroke:#181818;stroke-width:0.5;"/></g><g class="message" data-participant-1="P" data-participant-2="R"><polygon fill="#181818" points="364.9632,113.7739,374.9632,117.7739,364.9632,121.7739,368.9632,117.7739" style="stroke:#181818;stroke-width:1;"/><line style="stroke:#181818;stroke-width:1;stroke-dasharray:2,2;" x1="38.9879" x2="370.9632" y1="117.7739" y2="117.7739"/><text fill="#000000" font-family="sans-serif" font-size="13" lengthAdjust="spacing" textLength="114.4781" x="45.9879" y="111.9649">choose agreement</text></g><path d="M5,130.7739 L5,157.7739 L194,157.7739 L194,140.7739 L184,130.7739 L5,130.7739" fill="#FEFFDD" style="stroke:#181818;stroke-width:0.5;"/><path d="M184,130.7739 L184,140.7739 L194,140.7739 L184,130.7739" fill="#FEFFDD" style="stroke:#181818;stroke-width:0.5;"/><text fill="#000000" font-family="sans-serif" font-size="13" lengthAdjust="spacing" textLength="152.1911" x="19.0238" y="149.6709">chooses SD-BY, SD BY-AT</text><g class="message" data-participant-1="P" data-participant-2="PA"><polygon fill="#181818" points="146.564,183.186,156.564,187.186,146.564,191.186,150.564,187.186" style="stroke:#181818;stroke-width:1;"/><line style="stroke:#181818;stroke-width:1;stroke-dasharray:2,2;" x1="38.9879" x2="152.564" y1="187.186" y2="187.186"/><text fill="#000000" font-family="sans-serif" font-size="13" lengthAdjust="spacing" textLength="95.5761" x="45.9879" y="181.377">Sets preference</text></g><path d="M17,200.186 L17,227.186 L849,227.186 L849,210.186 L839,200.186 L17,200.186" fill="#FEFFDD" style="stroke:#181818;stroke-width:0.5;"/><path d="M839,200.186 L839,210.186 L849,210.186 L839,200.186" fill="#FEFFDD" style="stroke:#181818;stroke-width:0.5;"/><text fill="#000000" font-family="sans-serif" font-size="13" lengthAdjust="spacing" textLength="127.1921" x="365.3141" y="219.083">person visits website</text><g class="message" data-participant-1="PA" data-participant-2="PRA"><polygon fill="#181818" points="550.5533,252.598,560.5533,256.598,550.5533,260.598,554.5533,256.598" style="stroke:#181818;stroke-width:1;"/><line style="stroke:#181818;stroke-width:1;stroke-dasharray:2,2;" x1="158.564" x2="556.5533" y1="256.598" y2="256.598"/><text fill="#000000" font-family="sans-serif" font-size="13" lengthAdjust="spacing" textLength="194.5842" x="165.564" y="250.789">do you support P7012 protocol?</text></g><g class="message" data-participant-1="PRA" data-participant-2="PA"><polygon fill="#181818" points="169.564,284.304,159.564,288.304,169.564,292.304,165.564,288.304" style="stroke:#181818;stroke-width:1;"/><line style="stroke:#181818;stroke-width:1;stroke-dasharray:2,2;" x1="163.564" x2="561.5533" y1="288.304" y2="288.304"/><text fill="#000000" font-family="sans-serif" font-size="13" lengthAdjust="spacing" textLength="302.9912" x="175.564" y="282.495">P7012 supported, what are your preferred terms?</text></g><path d="M68,303.304 L130.303,303.304 L130.303,313.01 L120.303,323.01 L68,323.01 L68,303.304" fill="#EEEEEE" style="stroke:#000000;stroke-width:1.5;"/><rect fill="none" height="1074.6598" style="stroke:#000000;stroke-width:1.5;" width="802.8204" x="68" y="303.304"/><text fill="#000000" font-family="sans-serif" font-size="13" font-weight="bold" lengthAdjust="spacing" textLength="17.303" x="83" y="318.201">alt</text><text fill="#000000" font-family="sans-serif" font-size="11" font-weight="bold" lengthAdjust="spacing" textLength="99.3403" x="145.303" y="317.0629">[P7012 Supported]</text><g class="message" data-participant-1="PA" data-participant-2="PRA"><polygon fill="#181818" points="550.5533,342.716,560.5533,346.716,550.5533,350.716,554.5533,346.716" style="stroke:#181818;stroke-width:1;"/><line style="stroke:#181818;stroke-width:1;stroke-dasharray:2,2;" x1="158.564" x2="556.5533" y1="346.716" y2="346.716"/><text fill="#000000" font-family="sans-serif" font-size="13" lengthAdjust="spacing" textLength="245.5702" x="165.564" y="340.907">SD-BY as defined in Agreement_Registry</text></g><g class="message" data-participant-1="PRA" data-participant-2="PRA"><line style="stroke:#181818;stroke-width:1;stroke-dasharray:2,2;" x1="562.5533" x2="604.5533" y1="378.4221" y2="378.4221"/><line style="stroke:#181818;stroke-width:1;stroke-dasharray:2,2;" x1="604.5533" x2="604.5533" y1="378.4221" y2="391.4221"/><line style="stroke:#181818;stroke-width:1;stroke-dasharray:2,2;" x1="563.5533" x2="604.5533" y1="391.4221" y2="391.4221"/><polygon fill="#181818" points="573.5533,387.4221,563.5533,391.4221,573.5533,395.4221,569.5533,391.4221" style="stroke:#181818;stroke-width:1;"/><text fill="#000000" font-family="sans-serif" font-size="13" lengthAdjust="spacing" textLength="152.3081" x="569.5533" y="372.6131">do I know what is SD-BY?</text></g><path d="M297.1904,406.4221 L359.4934,406.4221 L359.4934,416.1281 L349.4934,426.1281 L297.1904,426.1281 L297.1904,406.4221" fill="#EEEEEE" style="stroke:#000000;stroke-width:1.5;"/><rect fill="none" height="176.512" style="stroke:#000000;stroke-width:1.5;" width="563.63" x="297.1904" y="406.4221"/><text fill="#000000" font-family="sans-serif" font-size="13" font-weight="bold" lengthAdjust="spacing" textLength="17.303" x="312.1904" y="421.3191">alt</text><text fill="#000000" font-family="sans-serif" font-size="11" font-weight="bold" lengthAdjust="spacing" textLength="150.6219" x="374.4934" y="420.181">[Entity_Agent knows SD-BY]</text><g class="message" data-participant-1="PRA" data-participant-2="PRA"><line style="stroke:#181818;stroke-width:1;stroke-dasharray:2,2;" x1="562.5533" x2="604.5533" y1="449.8341" y2="449.8341"/><line style="stroke:#181818;stroke-width:1;stroke-dasharray:2,2;" x1="604.5533" x2="604.5533" y1="449.8341" y2="462.8341"/><line style="stroke:#181818;stroke-width:1;stroke-dasharray:2,2;" x1="563.5533" x2="604.5533" y1="462.8341" y2="462.8341"/><polygon fill="#181818" points="573.5533,458.8341,563.5533,462.8341,573.5533,466.8341,569.5533,462.8341" style="stroke:#181818;stroke-width:1;"/><text fill="#000000" font-family="sans-serif" font-size="13" lengthAdjust="spacing" textLength="79.5341" x="569.5533" y="444.0251">assess SD-BY</text></g><line style="stroke:#000000;stroke-width:1;stroke-dasharray:2,2;" x1="297.1904" x2="860.8204" y1="471.8341" y2="471.8341"/><text fill="#000000" font-family="sans-serif" font-size="11" font-weight="bold" lengthAdjust="spacing" textLength="195.5346" x="302.1904" y="483.593">[Entity_Agent does not know SD-BY]</text><g class="message" data-participant-1="PRA" data-participant-2="R"><polygon fill="#181818" points="387.9632,507.522,377.9632,511.522,387.9632,515.522,383.9632,511.522" style="stroke:#181818;stroke-width:1;"/><line style="stroke:#181818;stroke-width:1;stroke-dasharray:2,2;" x1="381.9632" x2="561.5533" y1="511.522" y2="511.522"/><text fill="#000000" font-family="sans-serif" font-size="13" lengthAdjust="spacing" textLength="157.5341" x="393.9632" y="505.713">retrieve terms in format X</text></g><g class="message" data-participant-1="R" data-participant-2="PRA"><polygon fill="#181818" points="550.5533,539.228,560.5533,543.228,550.5533,547.228,554.5533,543.228" style="stroke:#181818;stroke-width:1;"/><line style="stroke:#181818;stroke-width:1;stroke-dasharray:2,2;" x1="376.9632" x2="556.5533" y1="543.228" y2="543.228"/><text fill="#000000" font-family="sans-serif" font-size="13" lengthAdjust="spacing" textLength="161.5901" x="383.9632" y="537.419">here are terms in format X</text></g><g class="message" data-participant-1="SP" data-participant-2="PRA"><polygon fill="#181818" points="573.5533,570.934,563.5533,574.934,573.5533,578.934,569.5533,574.934" style="stroke:#181818;stroke-width:1;"/><line style="stroke:#181818;stroke-width:1;stroke-dasharray:2,2;" x1="567.5533" x2="828.1725" y1="574.934" y2="574.934"/><text fill="#000000" font-family="sans-serif" font-size="13" lengthAdjust="spacing" textLength="242.6192" x="579.5533" y="569.125">assess terms, set preferences for future</text></g><path d="M78,596.934 L140.303,596.934 L140.303,606.6401 L130.303,616.6401 L78,616.6401 L78,596.934" fill="#EEEEEE" style="stroke:#000000;stroke-width:1.5;"/><rect fill="none" height="719.3419" style="stroke:#000000;stroke-width:1.5;" width="563.1772" x="78" y="596.934"/><text fill="#000000" font-family="sans-serif" font-size="13" font-weight="bold" lengthAdjust="spacing" textLength="17.303" x="93" y="611.831">alt</text><text fill="#000000" font-family="sans-serif" font-size="11" font-weight="bold" lengthAdjust="spacing" textLength="114.2892" x="155.303" y="610.6929">[SD-BY is Acceptable]</text><g class="message" data-participant-1="PRA" data-participant-2="PA"><polygon fill="#181818" points="169.564,636.3461,159.564,640.3461,169.564,644.3461,165.564,640.3461" style="stroke:#181818;stroke-width:1;"/><line style="stroke:#181818;stroke-width:1;stroke-dasharray:2,2;" x1="163.564" x2="561.5533" y1="640.3461" y2="640.3461"/><text fill="#000000" font-family="sans-serif" font-size="13" lengthAdjust="spacing" textLength="242.2162" x="175.564" y="634.5371">SD-BY accepted, let's execute a contract</text></g><g class="message" data-participant-1="PA" data-participant-2="PRA"><polygon fill="#181818" points="550.5533,668.0521,560.5533,672.0521,550.5533,676.0521,554.5533,672.0521" style="stroke:#181818;stroke-width:1;"/><line style="stroke:#181818;stroke-width:1;stroke-dasharray:2,2;" x1="158.564" x2="556.5533" y1="672.0521" y2="672.0521"/><text fill="#000000" font-family="sans-serif" font-size="13" lengthAdjust="spacing" textLength="217.0872" x="165.564" y="666.2431">agreed (here is the signed contract)</text></g><g class="message" data-participant-1="PRA" data-participant-2="PA"><polygon fill="#181818" points="169.564,699.7581,159.564,703.7581,169.564,707.7581,165.564,703.7581" style="stroke:#181818;stroke-width:1;"/><line style="stroke:#181818;stroke-width:1;stroke-dasharray:2,2;" x1="163.564" x2="561.5533" y1="703.7581" y2="703.7581"/><text fill="#000000" font-family="sans-serif" font-size="13" lengthAdjust="spacing" textLength="222.8722" x="175.564" y="697.9491">agreed (here is fully signed contract)</text></g><path d="M114,716.7581 L114,743.7581 L605,743.7581 L605,726.7581 L595,716.7581 L114,716.7581" fill="#FEFFDD" style="stroke:#181818;stroke-width:0.5;"/><path d="M595,716.7581 L595,726.7581 L605,726.7581 L595,716.7581" fill="#FEFFDD" style="stroke:#181818;stroke-width:0.5;"/><text fill="#000000" font-family="sans-serif" font-size="13" lengthAdjust="spacing" textLength="430.3652" x="140.3169" y="735.6551">Contract is fully executed and is now in effect, both parties save a copy</text><line style="stroke:#000000;stroke-width:1;stroke-dasharray:2,2;" x1="78" x2="641.1772" y1="750.4641" y2="750.4641"/><text fill="#000000" font-family="sans-serif" font-size="11" font-weight="bold" lengthAdjust="spacing" textLength="280.289" x="83" y="762.223">[SD-BY is Unacceptable, but SD BY-AT is Acceptable]</text><g class="message" data-participant-1="PRA" data-participant-2="PA"><polygon fill="#181818" points="169.564,786.152,159.564,790.152,169.564,794.152,165.564,790.152" style="stroke:#181818;stroke-width:1;"/><line style="stroke:#181818;stroke-width:1;stroke-dasharray:2,2;" x1="163.564" x2="561.5533" y1="790.152" y2="790.152"/><text fill="#000000" font-family="sans-serif" font-size="13" lengthAdjust="spacing" textLength="261.4952" x="175.564" y="784.343">SD-BY not accepted, is SD BY-A negotiable?</text></g><path d="M99.8892,805.152 L162.1922,805.152 L162.1922,814.858 L152.1922,824.858 L99.8892,824.858 L99.8892,805.152" fill="#EEEEEE" style="stroke:#000000;stroke-width:1.5;"/><rect fill="none" height="189.512" style="stroke:#000000;stroke-width:1.5;" width="356.8467" x="99.8892" y="805.152"/><text fill="#000000" font-family="sans-serif" font-size="13" font-weight="bold" lengthAdjust="spacing" textLength="17.303" x="114.8892" y="820.049">alt</text><text fill="#000000" font-family="sans-serif" font-size="11" font-weight="bold" lengthAdjust="spacing" textLength="105.5332" x="177.1922" y="818.9109">[PA knows SD BY-A]</text><g class="message" data-participant-1="PA" data-participant-2="PA"><line style="stroke:#181818;stroke-width:1;stroke-dasharray:2,2;" x1="158.564" x2="200.564" y1="848.5641" y2="848.5641"/><line style="stroke:#181818;stroke-width:1;stroke-dasharray:2,2;" x1="200.564" x2="200.564" y1="848.5641" y2="861.5641"/><line style="stroke:#181818;stroke-width:1;stroke-dasharray:2,2;" x1="159.564" x2="200.564" y1="861.5641" y2="861.5641"/><polygon fill="#181818" points="169.564,857.5641,159.564,861.5641,169.564,865.5641,165.564,861.5641" style="stroke:#181818;stroke-width:1;"/><text fill="#000000" font-family="sans-serif" font-size="13" lengthAdjust="spacing" textLength="91.2211" x="165.564" y="842.7551">assess SD BY-A</text></g><line style="stroke:#000000;stroke-width:1;stroke-dasharray:2,2;" x1="99.8892" x2="456.7359" y1="870.5641" y2="870.5641"/><text fill="#000000" font-family="sans-serif" font-size="11" font-weight="bold" lengthAdjust="spacing" textLength="150.4459" x="104.8892" y="882.323">[PA does not know SD BY-A]</text><g class="message" data-participant-1="PA" data-participant-2="R"><polygon fill="#181818" points="364.9632,906.252,374.9632,910.252,364.9632,914.252,368.9632,910.252" style="stroke:#181818;stroke-width:1;"/><line style="stroke:#181818;stroke-width:1;stroke-dasharray:2,2;" x1="158.564" x2="370.9632" y1="910.252" y2="910.252"/><text fill="#000000" font-family="sans-serif" font-size="13" lengthAdjust="spacing" textLength="170.0661" x="165.564" y="904.443">retrieve SD BY-A in format X</text></g><g class="message" data-participant-1="R" data-participant-2="PA"><polygon fill="#181818" points="169.564,937.958,159.564,941.958,169.564,945.958,165.564,941.958" style="stroke:#181818;stroke-width:1;"/><line style="stroke:#181818;stroke-width:1;stroke-dasharray:2,2;" x1="163.564" x2="375.9632" y1="941.958" y2="941.958"/><text fill="#000000" font-family="sans-serif" font-size="13" lengthAdjust="spacing" textLength="119.3011" x="175.564" y="936.149">SD BY-A in format X</text></g><g class="message" data-participant-1="PA" data-participant-2="PA"><line style="stroke:#181818;stroke-width:1;stroke-dasharray:2,2;" x1="158.564" x2="200.564" y1="973.664" y2="973.664"/><line style="stroke:#181818;stroke-width:1;stroke-dasharray:2,2;" x1="200.564" x2="200.564" y1="973.664" y2="986.664"/><line style="stroke:#181818;stroke-width:1;stroke-dasharray:2,2;" x1="159.564" x2="200.564" y1="986.664" y2="986.664"/><polygon fill="#181818" points="169.564,982.664,159.564,986.664,169.564,990.664,165.564,986.664" style="stroke:#181818;stroke-width:1;"/><text fill="#000000" font-family="sans-serif" font-size="13" lengthAdjust="spacing" textLength="204.3992" x="165.564" y="967.855">is it compatible with preferences?</text></g><path d="M88,1008.664 L150.303,1008.664 L150.303,1018.37 L140.303,1028.37 L88,1028.37 L88,1008.664" fill="#EEEEEE" style="stroke:#000000;stroke-width:1.5;"/><rect fill="none" height="255.9059" style="stroke:#000000;stroke-width:1.5;" width="543.1772" x="88" y="1008.664"/><text fill="#000000" font-family="sans-serif" font-size="13" font-weight="bold" lengthAdjust="spacing" textLength="17.303" x="103" y="1023.561">alt</text><text fill="#000000" font-family="sans-serif" font-size="11" font-weight="bold" lengthAdjust="spacing" textLength="124.7611" x="165.303" y="1022.4229">[SD BY-A is Acceptable]</text><g class="message" data-participant-1="PA" data-participant-2="PRA"><polygon fill="#181818" points="550.5533,1048.076,560.5533,1052.076,550.5533,1056.076,554.5533,1052.076" style="stroke:#181818;stroke-width:1;"/><line style="stroke:#181818;stroke-width:1;stroke-dasharray:2,2;" x1="158.564" x2="556.5533" y1="1052.076" y2="1052.076"/><text fill="#000000" font-family="sans-serif" font-size="13" lengthAdjust="spacing" textLength="268.7753" x="165.564" y="1046.267">SD BY-A agreed (here is the signed contract)</text></g><g class="message" data-participant-1="PRA" data-participant-2="PA"><polygon fill="#181818" points="169.564,1079.782,159.564,1083.782,169.564,1087.782,165.564,1083.782" style="stroke:#181818;stroke-width:1;"/><line style="stroke:#181818;stroke-width:1;stroke-dasharray:2,2;" x1="163.564" x2="561.5533" y1="1083.782" y2="1083.782"/><text fill="#000000" font-family="sans-serif" font-size="13" lengthAdjust="spacing" textLength="222.8722" x="175.564" y="1077.973">agreed (here is fully signed contract)</text></g><path d="M98,1096.782 L98,1123.782 L621,1123.782 L621,1106.782 L611,1096.782 L98,1096.782" fill="#FEFFDD" style="stroke:#181818;stroke-width:0.5;"/><path d="M611,1096.782 L611,1106.782 L621,1106.782 L611,1096.782" fill="#FEFFDD" style="stroke:#181818;stroke-width:0.5;"/><text fill="#000000" font-family="sans-serif" font-size="13" lengthAdjust="spacing" textLength="502.1772" x="104" y="1115.6791">Negotiated Contract is fully executed and is now in effect, both parties save a copy</text><line style="stroke:#000000;stroke-width:1;stroke-dasharray:2,2;" x1="88" x2="631.1772" y1="1130.4881" y2="1130.4881"/><text fill="#000000" font-family="sans-serif" font-size="11" font-weight="bold" lengthAdjust="spacing" textLength="179.6287" x="93" y="1142.247">[Term SD BY-A is Not Acceptable]</text><g class="message" data-participant-1="PA" data-participant-2="PRA"><polygon fill="#181818" points="550.5533,1166.176,560.5533,1170.176,550.5533,1174.176,554.5533,1170.176" style="stroke:#181818;stroke-width:1;"/><line style="stroke:#181818;stroke-width:1;stroke-dasharray:2,2;" x1="158.564" x2="556.5533" y1="1170.176" y2="1170.176"/><text fill="#000000" font-family="sans-serif" font-size="13" lengthAdjust="spacing" textLength="275.2753" x="165.564" y="1164.367">SD BY-A is not acceptable, negotiation is over</text></g><path d="M114,1183.176 L114,1210.176 L605,1210.176 L605,1193.176 L595,1183.176 L114,1183.176" fill="#FEFFDD" style="stroke:#181818;stroke-width:0.5;"/><path d="M595,1183.176 L595,1193.176 L605,1193.176 L595,1183.176" fill="#FEFFDD" style="stroke:#181818;stroke-width:0.5;"/><text fill="#000000" font-family="sans-serif" font-size="13" lengthAdjust="spacing" textLength="172.9001" x="269.0494" y="1202.073">Contract process terminates</text><line style="stroke:#000000;stroke-width:1;stroke-dasharray:2,2;" x1="88" x2="631.1772" y1="1216.882" y2="1216.882"/><text fill="#000000" font-family="sans-serif" font-size="11" font-weight="bold" lengthAdjust="spacing" textLength="290.233" x="93" y="1228.6409">[SD BY-A is Unknown and not in Agreement_Registry]</text><g class="message" data-participant-1="PA" data-participant-2="PRA"><polygon fill="#181818" points="550.5533,1252.5699,560.5533,1256.5699,550.5533,1260.5699,554.5533,1256.5699" style="stroke:#181818;stroke-width:1;"/><line style="stroke:#181818;stroke-width:1;stroke-dasharray:2,2;" x1="158.564" x2="556.5533" y1="1256.5699" y2="1256.5699"/><text fill="#000000" font-family="sans-serif" font-size="13" lengthAdjust="spacing" textLength="358.8392" x="165.564" y="1250.7609">SD BY-A is not a recognised agreement, negotiation is over</text></g><g class="message" data-participant-1="PA" data-participant-2="PA"><line style="stroke:#181818;stroke-width:1;stroke-dasharray:2,2;" x1="158.564" x2="200.564" y1="1295.2759" y2="1295.2759"/><line style="stroke:#181818;stroke-width:1;stroke-dasharray:2,2;" x1="200.564" x2="200.564" y1="1295.2759" y2="1308.2759"/><line style="stroke:#181818;stroke-width:1;stroke-dasharray:2,2;" x1="159.564" x2="200.564" y1="1308.2759" y2="1308.2759"/><polygon fill="#181818" points="169.564,1304.2759,159.564,1308.2759,169.564,1312.2759,165.564,1308.2759" style="stroke:#181818;stroke-width:1;"/><text fill="#000000" font-family="sans-serif" font-size="13" lengthAdjust="spacing" textLength="203.5282" x="165.564" y="1289.4669">create a record of this interaction</text></g><line style="stroke:#000000;stroke-width:1;stroke-dasharray:2,2;" x1="68" x2="870.8204" y1="1324.2759" y2="1324.2759"/><text fill="#000000" font-family="sans-serif" font-size="11" font-weight="bold" lengthAdjust="spacing" textLength="122.7921" x="73" y="1336.0348">[P7012 Not Supported]</text><path d="M113,1345.2578 L113,1372.2578 L607,1372.2578 L607,1355.2578 L597,1345.2578 L113,1345.2578" fill="#FEFFDD" style="stroke:#181818;stroke-width:0.5;"/><path d="M597,1345.2578 L597,1355.2578 L607,1355.2578 L597,1345.2578" fill="#FEFFDD" style="stroke:#181818;stroke-width:0.5;"/><text fill="#000000" font-family="sans-serif" font-size="13" lengthAdjust="spacing" textLength="473.0314" x="119" y="1364.1548">No interaction takes place as person cannot assert their preferred agreement</text><!--SRC=[hLR1ZjCm4BtdA-O6IAq4N91oeCe21owhADsLsDFAcqnQQrCxifsM_ZqpjfEufMKNGG-D6i-ycVVcsQwedJPGeh5QWR1GPgYSTCVuwh7Oq6-_K6IDSE99M8HYOn1tjF1OuKPQPuuSKOsft_mZIQsAJFWwOONVhSiiAs6v_0nL3lLMQu8L8socj4FGUwJE5bHvZA2qhykRXmKzuEPXMTn5YBA07DReBFG6MpIeQZp5M9Svz87aNbf9aGTyeYTcbEiXAiPeD1pr07ReUsqSb9_UV_X8cDhfMdUhZ8EcUc4nXcApWCDM45s3365Y9mORS6XsTfLbeXiHrsDI1lGvwS0JP84QRAMYRAako1toghFMlyEpqeVGXunQhNmebpwP2WV621zmWfPJVH8xNVTVsD6GJc0QJJCXeKFXIt0qNOFEIDnZ4889jThigCSVCRQQ2szfU5x3Qx7hCk4Ss_In2x3ealbRpeHsS8F1qBrgPYeiI92QX2hg6dkoTeUnIA96CXCVnOFkqBsnW3-n7iXY0cgjd263pzdfOBoh6tZhgL4rjqMmSiEp7HFVNQvxdjaENNUydfiOlYeM0U9BZ9hJOziD2DNmMnuSoOnjYxLRm9DsM-Y5SP8Kj68V-FN7sG2JRFTAJC9Huk2cRVbwKTaxix3Uj1u256wqavo-clBz1Yecx_h0QN5MFN76UP0dG07dlhq2bPftREntIoOMBl8NugOUSoOh7McxwuMJn1CEagMV3JmJ7wqxEpVMk2ZpXJCbXF-L4__LZTSSUHi6omxyl-QSvdj7nq4gqItD-KMPyZHZTcNmTZIZatHzq38pUf7dH8wkZteyfQGYulQqtQJklM8_Ai-UUxX-zh-607ctrXibBUivmloPJ6gqT3lL1eK_wXZIDA1RCWyRM14h8abOqnaRzfY_vrZvqxlkeYDqYWDEFDDq-qxKoFTWlBLheJmfsjTqCPDpPNh5plySg8DV]--></g></svg>