<svg xmlns="http://www.w3.org/2000/svg" xmlns:xlink="http://www.w3.org/1999/xlink" contentStyleType="text/css" data-diagram-type="WBS" height="441px" preserveAspectRatio="none" style="width:1539px;height:441px;background:#FFFFFF;" version="1.1" viewBox="0 0 1539 441" width="1539px" zoomAndPan="magnify"><defs/><g><line style="stroke:#181818;stroke-width:1.5;" x1="48.2602" x2="48.2602" y1="66.3441" y2="86.3441"/><rect fill="#F1F1F1" height="36.3441" style="stroke:#181818;stroke-width:1.5;" width="76.5204" x="10" y="86.3441"/><text fill="#000000" font-family="sans-serif" font-size="12" lengthAdjust="spacing" textLength="56.5204" x="20" y="109.1722">Sensitive*</text><line style="stroke:#181818;stroke-width:1.5;" x1="48.2602" x2="58.2602" y1="155.8603" y2="155.8603"/><rect fill="#F1F1F1" height="36.3441" style="stroke:#181818;stroke-width:1.5;" width="120.2847" x="58.2602" y="137.6882"/><text fill="#000000" font-family="sans-serif" font-size="12" lengthAdjust="spacing" textLength="100.2847" x="68.2602" y="160.5163">Special Category*</text><line style="stroke:#181818;stroke-width:1.5;" x1="48.2602" x2="48.2602" y1="122.6882" y2="155.8603"/><line style="stroke:#181818;stroke-width:1.5;" x1="230.9371" x2="230.9371" y1="66.3441" y2="86.3441"/><rect fill="#F1F1F1" height="36.3441" style="stroke:#181818;stroke-width:1.5;" width="64.7843" x="198.5449" y="86.3441"/><text fill="#000000" font-family="sans-serif" font-size="12" lengthAdjust="spacing" textLength="44.7843" x="208.5449" y="109.1722">Internal</text><line style="stroke:#181818;stroke-width:1.5;" x1="230.9371" x2="240.9371" y1="155.8603" y2="155.8603"/><rect fill="#F1F1F1" height="36.3441" style="stroke:#181818;stroke-width:1.5;" width="87.2965" x="240.9371" y="137.6882"/><text fill="#000000" font-family="sans-serif" font-size="12" lengthAdjust="spacing" textLength="67.2965" x="250.9371" y="160.5163">Preferences</text><line style="stroke:#181818;stroke-width:1.5;" x1="230.9371" x2="240.9371" y1="207.2044" y2="207.2044"/><rect fill="#F1F1F1" height="36.3441" style="stroke:#181818;stroke-width:1.5;" width="82.9285" x="240.9371" y="189.0323"/><text fill="#000000" font-family="sans-serif" font-size="12" lengthAdjust="spacing" textLength="62.9285" x="250.9371" y="211.8604">Knowledge</text><line style="stroke:#181818;stroke-width:1.5;" x1="230.9371" x2="240.9371" y1="258.5485" y2="258.5485"/><rect fill="#F1F1F1" height="36.3441" style="stroke:#181818;stroke-width:1.5;" width="57.4043" x="240.9371" y="240.3765"/><text fill="#000000" font-family="sans-serif" font-size="12" lengthAdjust="spacing" textLength="37.4043" x="250.9371" y="263.2045">Beliefs</text><line style="stroke:#181818;stroke-width:1.5;" x1="230.9371" x2="240.9371" y1="309.8926" y2="309.8926"/><rect fill="#F1F1F1" height="36.3441" style="stroke:#181818;stroke-width:1.5;" width="29.6481" x="240.9371" y="291.7206"/><text fill="#000000" font-family="sans-serif" font-size="12" lengthAdjust="spacing" textLength="9.6481" x="250.9371" y="314.5487">...</text><line style="stroke:#181818;stroke-width:1.5;" x1="230.9371" x2="230.9371" y1="122.6882" y2="309.8926"/><line style="stroke:#181818;stroke-width:1.5;" x1="381.3937" x2="381.3937" y1="66.3441" y2="86.3441"/><rect fill="#F1F1F1" height="36.3441" style="stroke:#181818;stroke-width:1.5;" width="66.3203" x="348.2336" y="86.3441"/><text fill="#000000" font-family="sans-serif" font-size="12" lengthAdjust="spacing" textLength="46.3203" x="358.2336" y="109.1722">External</text><line style="stroke:#181818;stroke-width:1.5;" x1="381.3937" x2="391.3937" y1="155.8603" y2="155.8603"/><rect fill="#F1F1F1" height="36.3441" style="stroke:#181818;stroke-width:1.5;" width="87.3685" x="391.3937" y="137.6882"/><text fill="#000000" font-family="sans-serif" font-size="12" lengthAdjust="spacing" textLength="67.3685" x="401.3937" y="160.5163">Behavioural</text><line style="stroke:#181818;stroke-width:1.5;" x1="381.3937" x2="391.3937" y1="207.2044" y2="207.2044"/><rect fill="#F1F1F1" height="36.3441" style="stroke:#181818;stroke-width:1.5;" width="102.4766" x="391.3937" y="189.0323"/><text fill="#000000" font-family="sans-serif" font-size="12" lengthAdjust="spacing" textLength="82.4766" x="401.3937" y="211.8604">Demographics</text><line style="stroke:#181818;stroke-width:1.5;" x1="381.3937" x2="391.3937" y1="258.5485" y2="258.5485"/><rect fill="#F1F1F1" height="36.3441" style="stroke:#181818;stroke-width:1.5;" width="65.2283" x="391.3937" y="240.3765"/><text fill="#000000" font-family="sans-serif" font-size="12" lengthAdjust="spacing" textLength="45.2283" x="401.3937" y="263.2045">Physical</text><line style="stroke:#181818;stroke-width:1.5;" x1="381.3937" x2="391.3937" y1="309.8926" y2="309.8926"/><rect fill="#F1F1F1" height="36.3441" style="stroke:#181818;stroke-width:1.5;" width="56.9482" x="391.3937" y="291.7206"/><text fill="#000000" font-family="sans-serif" font-size="12" lengthAdjust="spacing" textLength="36.9482" x="401.3937" y="314.5487">Sexual</text><line style="stroke:#181818;stroke-width:1.5;" x1="381.3937" x2="391.3937" y1="361.2367" y2="361.2367"/><rect fill="#F1F1F1" height="36.3441" style="stroke:#181818;stroke-width:1.5;" width="81.2004" x="391.3937" y="343.0647"/><text fill="#000000" font-family="sans-serif" font-size="12" lengthAdjust="spacing" textLength="61.2004" x="401.3937" y="365.8928">Identifying</text><line style="stroke:#181818;stroke-width:1.5;" x1="381.3937" x2="391.3937" y1="412.5809" y2="412.5809"/><rect fill="#F1F1F1" height="36.3441" style="stroke:#181818;stroke-width:1.5;" width="29.6481" x="391.3937" y="394.4088"/><text fill="#000000" font-family="sans-serif" font-size="12" lengthAdjust="spacing" textLength="9.6481" x="401.3937" y="417.2369">...</text><line style="stroke:#181818;stroke-width:1.5;" x1="381.3937" x2="381.3937" y1="122.6882" y2="412.5809"/><line style="stroke:#181818;stroke-width:1.5;" x1="554.4885" x2="554.4885" y1="66.3441" y2="86.3441"/><rect fill="#F1F1F1" height="36.3441" style="stroke:#181818;stroke-width:1.5;" width="81.2364" x="513.8703" y="86.3441"/><text fill="#000000" font-family="sans-serif" font-size="12" lengthAdjust="spacing" textLength="61.2364" x="523.8703" y="109.1722">Household</text><line style="stroke:#181818;stroke-width:1.5;" x1="554.4885" x2="564.4885" y1="155.8603" y2="155.8603"/><rect fill="#F1F1F1" height="36.3441" style="stroke:#181818;stroke-width:1.5;" width="121.5327" x="564.4885" y="137.6882"/><text fill="#000000" font-family="sans-serif" font-size="12" lengthAdjust="spacing" textLength="101.5327" x="574.4885" y="160.5163">personal activities</text><line style="stroke:#181818;stroke-width:1.5;" x1="554.4885" x2="564.4885" y1="207.2044" y2="207.2044"/><rect fill="#F1F1F1" height="36.3441" style="stroke:#181818;stroke-width:1.5;" width="131.9368" x="564.4885" y="189.0323"/><text fill="#000000" font-family="sans-serif" font-size="12" lengthAdjust="spacing" textLength="111.9368" x="574.4885" y="211.8604">household activities</text><line style="stroke:#181818;stroke-width:1.5;" x1="554.4885" x2="564.4885" y1="258.5485" y2="258.5485"/><rect fill="#F1F1F1" height="36.3441" style="stroke:#181818;stroke-width:1.5;" width="29.6481" x="564.4885" y="240.3765"/><text fill="#000000" font-family="sans-serif" font-size="12" lengthAdjust="spacing" textLength="9.6481" x="574.4885" y="263.2045">...</text><line style="stroke:#181818;stroke-width:1.5;" x1="554.4885" x2="554.4885" y1="122.6882" y2="258.5485"/><line style="stroke:#181818;stroke-width:1.5;" x1="742.6914" x2="742.6914" y1="66.3441" y2="86.3441"/><rect fill="#F1F1F1" height="36.3441" style="stroke:#181818;stroke-width:1.5;" width="52.5322" x="716.4253" y="86.3441"/><text fill="#000000" font-family="sans-serif" font-size="12" lengthAdjust="spacing" textLength="32.5322" x="726.4253" y="109.1722">Social</text><line style="stroke:#181818;stroke-width:1.5;" x1="742.6914" x2="752.6914" y1="155.8603" y2="155.8603"/><rect fill="#F1F1F1" height="36.3441" style="stroke:#181818;stroke-width:1.5;" width="56.4922" x="752.6914" y="137.6882"/><text fill="#000000" font-family="sans-serif" font-size="12" lengthAdjust="spacing" textLength="36.4922" x="762.6914" y="160.5163">Family</text><line style="stroke:#181818;stroke-width:1.5;" x1="742.6914" x2="752.6914" y1="207.2044" y2="207.2044"/><rect fill="#F1F1F1" height="36.3441" style="stroke:#181818;stroke-width:1.5;" width="61.5923" x="752.6914" y="189.0323"/><text fill="#000000" font-family="sans-serif" font-size="12" lengthAdjust="spacing" textLength="41.5923" x="762.6914" y="211.8604">Friends</text><line style="stroke:#181818;stroke-width:1.5;" x1="742.6914" x2="752.6914" y1="258.5485" y2="258.5485"/><rect fill="#F1F1F1" height="36.3441" style="stroke:#181818;stroke-width:1.5;" width="89.4685" x="752.6914" y="240.3765"/><text fill="#000000" font-family="sans-serif" font-size="12" lengthAdjust="spacing" textLength="69.4685" x="762.6914" y="263.2045">Professional</text><line style="stroke:#181818;stroke-width:1.5;" x1="742.6914" x2="752.6914" y1="309.8926" y2="309.8926"/><rect fill="#F1F1F1" height="36.3441" style="stroke:#181818;stroke-width:1.5;" width="77.4084" x="752.6914" y="291.7206"/><text fill="#000000" font-family="sans-serif" font-size="12" lengthAdjust="spacing" textLength="57.4084" x="762.6914" y="314.5487">Public Life</text><line style="stroke:#181818;stroke-width:1.5;" x1="742.6914" x2="752.6914" y1="361.2367" y2="361.2367"/><rect fill="#F1F1F1" height="36.3441" style="stroke:#181818;stroke-width:1.5;" width="109.8086" x="752.6914" y="343.0647"/><text fill="#000000" font-family="sans-serif" font-size="12" lengthAdjust="spacing" textLength="89.8086" x="762.6914" y="365.8928">Communication</text><line style="stroke:#181818;stroke-width:1.5;" x1="742.6914" x2="752.6914" y1="412.5809" y2="412.5809"/><rect fill="#F1F1F1" height="36.3441" style="stroke:#181818;stroke-width:1.5;" width="29.6481" x="752.6914" y="394.4088"/><text fill="#000000" font-family="sans-serif" font-size="12" lengthAdjust="spacing" textLength="9.6481" x="762.6914" y="417.2369">...</text><line style="stroke:#181818;stroke-width:1.5;" x1="742.6914" x2="742.6914" y1="122.6882" y2="412.5809"/><line style="stroke:#181818;stroke-width:1.5;" x1="917.2862" x2="917.2862" y1="66.3441" y2="86.3441"/><rect fill="#F1F1F1" height="36.3441" style="stroke:#181818;stroke-width:1.5;" width="69.5723" x="882.5001" y="86.3441"/><text fill="#000000" font-family="sans-serif" font-size="12" lengthAdjust="spacing" textLength="49.5723" x="892.5001" y="109.1722">Financial</text><line style="stroke:#181818;stroke-width:1.5;" x1="917.2862" x2="927.2862" y1="155.8603" y2="155.8603"/><rect fill="#F1F1F1" height="36.3441" style="stroke:#181818;stroke-width:1.5;" width="95.9485" x="927.2862" y="137.6882"/><text fill="#000000" font-family="sans-serif" font-size="12" lengthAdjust="spacing" textLength="75.9485" x="937.2862" y="160.5163">Transactional</text><line style="stroke:#181818;stroke-width:1.5;" x1="917.2862" x2="927.2862" y1="207.2044" y2="207.2044"/><rect fill="#F1F1F1" height="36.3441" style="stroke:#181818;stroke-width:1.5;" width="81.5844" x="927.2862" y="189.0323"/><text fill="#000000" font-family="sans-serif" font-size="12" lengthAdjust="spacing" textLength="61.5844" x="937.2862" y="211.8604">Ownership</text><line style="stroke:#181818;stroke-width:1.5;" x1="917.2862" x2="927.2862" y1="258.5485" y2="258.5485"/><rect fill="#F1F1F1" height="36.3441" style="stroke:#181818;stroke-width:1.5;" width="118.3047" x="927.2862" y="240.3765"/><text fill="#000000" font-family="sans-serif" font-size="12" lengthAdjust="spacing" textLength="98.3047" x="937.2862" y="263.2045">Financial Account</text><line style="stroke:#181818;stroke-width:1.5;" x1="917.2862" x2="927.2862" y1="309.8926" y2="309.8926"/><rect fill="#F1F1F1" height="36.3441" style="stroke:#181818;stroke-width:1.5;" width="26.432" x="927.2862" y="291.7206"/><text fill="#000000" font-family="sans-serif" font-size="12" lengthAdjust="spacing" textLength="6.432" x="937.2862" y="314.5487">..</text><line style="stroke:#181818;stroke-width:1.5;" x1="917.2862" x2="917.2862" y1="122.6882" y2="309.8926"/><line style="stroke:#181818;stroke-width:1.5;" x1="1099.8011" x2="1099.8011" y1="66.3441" y2="86.3441"/><rect fill="#F1F1F1" height="36.3441" style="stroke:#181818;stroke-width:1.5;" width="68.4203" x="1065.5909" y="86.3441"/><text fill="#000000" font-family="sans-serif" font-size="12" lengthAdjust="spacing" textLength="48.4203" x="1075.5909" y="109.1722">Tracking</text><line style="stroke:#181818;stroke-width:1.5;" x1="1099.8011" x2="1109.8011" y1="155.8603" y2="155.8603"/><rect fill="#F1F1F1" height="36.3441" style="stroke:#181818;stroke-width:1.5;" width="68.1443" x="1109.8011" y="137.6882"/><text fill="#000000" font-family="sans-serif" font-size="12" lengthAdjust="spacing" textLength="48.1443" x="1119.8011" y="160.5163">Location</text><line style="stroke:#181818;stroke-width:1.5;" x1="1099.8011" x2="1109.8011" y1="207.2044" y2="207.2044"/><rect fill="#F1F1F1" height="36.3441" style="stroke:#181818;stroke-width:1.5;" width="94.3765" x="1109.8011" y="189.0323"/><text fill="#000000" font-family="sans-serif" font-size="12" lengthAdjust="spacing" textLength="74.3765" x="1119.8011" y="211.8604">Device based</text><line style="stroke:#181818;stroke-width:1.5;" x1="1099.8011" x2="1109.8011" y1="258.5485" y2="258.5485"/><rect fill="#F1F1F1" height="36.3441" style="stroke:#181818;stroke-width:1.5;" width="63.4163" x="1109.8011" y="240.3765"/><text fill="#000000" font-family="sans-serif" font-size="12" lengthAdjust="spacing" textLength="43.4163" x="1119.8011" y="263.2045">Contact</text><line style="stroke:#181818;stroke-width:1.5;" x1="1099.8011" x2="1109.8011" y1="309.8926" y2="309.8926"/><rect fill="#F1F1F1" height="36.3441" style="stroke:#181818;stroke-width:1.5;" width="29.6481" x="1109.8011" y="291.7206"/><text fill="#000000" font-family="sans-serif" font-size="12" lengthAdjust="spacing" textLength="9.6481" x="1119.8011" y="314.5487">...</text><line style="stroke:#181818;stroke-width:1.5;" x1="1099.8011" x2="1099.8011" y1="122.6882" y2="309.8926"/><line style="stroke:#181818;stroke-width:1.5;" x1="1260.6618" x2="1260.6618" y1="66.3441" y2="86.3441"/><rect fill="#F1F1F1" height="36.3441" style="stroke:#181818;stroke-width:1.5;" width="72.9684" x="1224.1776" y="86.3441"/><text fill="#000000" font-family="sans-serif" font-size="12" lengthAdjust="spacing" textLength="52.9684" x="1234.1776" y="109.1722">Historical</text><line style="stroke:#181818;stroke-width:1.5;" x1="1260.6618" x2="1270.6618" y1="155.8603" y2="155.8603"/><rect fill="#F1F1F1" height="36.3441" style="stroke:#181818;stroke-width:1.5;" width="83.8045" x="1270.6618" y="137.6882"/><text fill="#000000" font-family="sans-serif" font-size="12" lengthAdjust="spacing" textLength="63.8045" x="1280.6618" y="160.5163">Life History</text><line style="stroke:#181818;stroke-width:1.5;" x1="1260.6618" x2="1270.6618" y1="207.2044" y2="207.2044"/><rect fill="#F1F1F1" height="36.3441" style="stroke:#181818;stroke-width:1.5;" width="29.6481" x="1270.6618" y="189.0323"/><text fill="#000000" font-family="sans-serif" font-size="12" lengthAdjust="spacing" textLength="9.6481" x="1280.6618" y="211.8604">...</text><line style="stroke:#181818;stroke-width:1.5;" x1="1260.6618" x2="1260.6618" y1="122.6882" y2="207.2044"/><line style="stroke:#181818;stroke-width:1.5;" x1="1402.7484" x2="1402.7484" y1="66.3441" y2="86.3441"/><rect fill="#F1F1F1" height="36.3441" style="stroke:#181818;stroke-width:1.5;" width="56.5643" x="1374.4663" y="86.3441"/><text fill="#000000" font-family="sans-serif" font-size="12" lengthAdjust="spacing" textLength="36.5643" x="1384.4663" y="109.1722">Profile</text><line style="stroke:#181818;stroke-width:1.5;" x1="1402.7484" x2="1412.7484" y1="155.8603" y2="155.8603"/><rect fill="#F1F1F1" height="36.3441" style="stroke:#181818;stroke-width:1.5;" width="115.4607" x="1412.7484" y="137.6882"/><text fill="#000000" font-family="sans-serif" font-size="12" lengthAdjust="spacing" textLength="95.4607" x="1422.7484" y="160.5163">Individual Profile</text><line style="stroke:#181818;stroke-width:1.5;" x1="1402.7484" x2="1412.7484" y1="207.2044" y2="207.2044"/><rect fill="#F1F1F1" height="36.3441" style="stroke:#181818;stroke-width:1.5;" width="95.4326" x="1412.7484" y="189.0323"/><text fill="#000000" font-family="sans-serif" font-size="12" lengthAdjust="spacing" textLength="75.4326" x="1422.7484" y="211.8604">Group Profile</text><line style="stroke:#181818;stroke-width:1.5;" x1="1402.7484" x2="1402.7484" y1="122.6882" y2="207.2044"/><line style="stroke:#181818;stroke-width:1.5;" x1="48.2602" x2="1402.7484" y1="66.3441" y2="66.3441"/><rect fill="#F1F1F1" height="36.3441" style="stroke:#181818;stroke-width:1.5;" width="95.7925" x="677.608" y="10"/><text fill="#000000" font-family="sans-serif" font-size="12" lengthAdjust="spacing" textLength="75.7925" x="687.608" y="32.8281">PersonalData</text><line style="stroke:#181818;stroke-width:1.5;" x1="725.5043" x2="725.5043" y1="46.3441" y2="66.3441"/><!--SRC=[xLHDSzem4BthLwYtX9am2PDq4auK21G24wQGt8MyjdSghppwWFZVTusDIthlBJVjfzvxUgEH3yg5uzwBRqZQn0Ia3vM1VcaKXLWO8Nfo0yvRKcQgWXAzdjm2UGnuW1v779QWKHavKG4owwewAnSKmF7CgMFZ80K7fC6VuXUoHmD91gTe30OXRIhzVh-UVlwuc1v3hWveeslZAHGsSwhCKJT3cxpogDlg5ZvYUrmaG07J2YcxNFxJHW-vDSafMRRafD9CYMcr6FDprx-5TilMrgHFcPagq5JDqI5Gqi9oDWNlqNOonBr1BLUODiGdjYWYCVB0FPUxPqYAklKxfyZN8Bf5hqTYr3cMpPtdRlb3QnifjAj4Cwj_d_clxCLLKpYW1hbN7f8M3GM-vPDIw8DrdRGry3PNNRRLHD4qd1QKi5W9Fy6dzDpPM7OPCMAHQjE9KUU_7DbxAO99sdC18RVdGAFJXX_WouvVTloFTjpKlzxRUYKFJ8YXoRl-u7RmqB-_sgeWbv7au57U3OQtJyF1WrniTx8kNukh-MObFNk2AIICoE4-rjIknL8TbFp5Ac01G_bQ0YsdB-U4VAO3Eai56qCitzT_6xxVtumni7iS8v7lQp65L4KJU4BRX1KSohVTxEPHh1HbKMMy6qXCQhbTDPJpyHy0]--></g></svg>