<svg xmlns="http://www.w3.org/2000/svg" xmlns:xlink="http://www.w3.org/1999/xlink" contentStyleType="text/css" data-diagram-type="MINDMAP" height="730px" preserveAspectRatio="none" style="width:896px;height:730px;background:#FFFFFF;" version="1.1" viewBox="0 0 896 730" width="896px" zoomAndPan="magnify"><defs/><g><rect fill="#F1F1F1" height="39.0679" rx="12.5" ry="12.5" style="stroke:#181818;stroke-width:1.5;" width="50.9819" x="398.2471" y="344.8735"/><text fill="#000000" font-family="sans-serif" font-size="14" lengthAdjust="spacing" textLength="30.9819" x="408.2471" y="369.8395">Data</text><rect fill="#F1F1F1" height="39.0679" rx="12.5" ry="12.5" style="stroke:#181818;stroke-width:1.5;" width="111.6996" x="499.229" y="49.534"/><text fill="#000000" font-family="sans-serif" font-size="14" lengthAdjust="spacing" textLength="91.6996" x="509.229" y="74.4999">CollectedData</text><rect fill="#F1F1F1" height="39.0679" rx="12.5" ry="12.5" style="stroke:#181818;stroke-width:1.5;" width="114.5276" x="660.9286" y="20"/><text fill="#000000" font-family="sans-serif" font-size="14" lengthAdjust="spacing" textLength="94.5276" x="670.9286" y="44.9659">ObservedData</text><path d="M610.9286,69.0679 L620.9286,69.0679 C635.9286,69.0679 635.9286,39.534 650.9286,39.534 L660.9286,39.534" fill="none" style="stroke:#181818;stroke-width:1;"/><rect fill="#F1F1F1" height="39.0679" rx="12.5" ry="12.5" style="stroke:#181818;stroke-width:1.5;" width="109.5437" x="660.9286" y="79.0679"/><text fill="#000000" font-family="sans-serif" font-size="14" lengthAdjust="spacing" textLength="89.5437" x="670.9286" y="104.0339">ProvidedData</text><path d="M610.9286,69.0679 L620.9286,69.0679 C635.9286,69.0679 635.9286,98.6019 650.9286,98.6019 L660.9286,98.6019" fill="none" style="stroke:#181818;stroke-width:1;"/><path d="M449.229,364.4075 L459.229,364.4075 C474.229,364.4075 474.229,69.0679 489.229,69.0679 L499.229,69.0679" fill="none" style="stroke:#181818;stroke-width:1;"/><rect fill="#F1F1F1" height="39.0679" rx="12.5" ry="12.5" style="stroke:#181818;stroke-width:1.5;" width="220.3952" x="499.229" y="138.1358"/><text fill="#000000" font-family="sans-serif" font-size="14" lengthAdjust="spacing" textLength="200.3952" x="509.229" y="163.1018">CommerciallyConfidentialData</text><path d="M449.229,364.4075 L459.229,364.4075 C474.229,364.4075 474.229,157.6698 489.229,157.6698 L499.229,157.6698" fill="none" style="stroke:#181818;stroke-width:1;"/><rect fill="#F1F1F1" height="39.0679" rx="12.5" ry="12.5" style="stroke:#181818;stroke-width:1.5;" width="130.6696" x="499.229" y="226.7377"/><text fill="#000000" font-family="sans-serif" font-size="14" lengthAdjust="spacing" textLength="110.6696" x="509.229" y="251.7036">ConfidentialData</text><rect fill="#F1F1F1" height="39.0679" rx="12.5" ry="12.5" style="stroke:#181818;stroke-width:1.5;" width="181.5454" x="679.8985" y="197.2038"/><text fill="#000000" font-family="sans-serif" font-size="14" lengthAdjust="spacing" textLength="161.5454" x="689.8985" y="222.1697">IntellectualPropertyData</text><path d="M629.8985,246.2717 L639.8985,246.2717 C654.8985,246.2717 654.8985,216.7377 669.8985,216.7377 L679.8985,216.7377" fill="none" style="stroke:#181818;stroke-width:1;"/><rect fill="#F1F1F1" height="39.0679" rx="12.5" ry="12.5" style="stroke:#181818;stroke-width:1.5;" width="204.2393" x="679.8985" y="256.2717"/><text fill="#000000" font-family="sans-serif" font-size="14" lengthAdjust="spacing" textLength="184.2393" x="689.8985" y="281.2376">StatisticallyConfidentialData</text><path d="M629.8985,246.2717 L639.8985,246.2717 C654.8985,246.2717 654.8985,275.8056 669.8985,275.8056 L679.8985,275.8056" fill="none" style="stroke:#181818;stroke-width:1;"/><path d="M449.229,364.4075 L459.229,364.4075 C474.229,364.4075 474.229,246.2717 489.229,246.2717 L499.229,246.2717" fill="none" style="stroke:#181818;stroke-width:1;"/><rect fill="#F1F1F1" height="39.0679" rx="12.5" ry="12.5" style="stroke:#181818;stroke-width:1.5;" width="102.1097" x="499.229" y="315.3396"/><text fill="#000000" font-family="sans-serif" font-size="14" lengthAdjust="spacing" textLength="82.1097" x="509.229" y="340.3055">DerivedData</text><rect fill="#F1F1F1" height="39.0679" rx="12.5" ry="12.5" style="stroke:#181818;stroke-width:1.5;" width="105.1617" x="651.3386" y="315.3396"/><text fill="#000000" font-family="sans-serif" font-size="14" lengthAdjust="spacing" textLength="85.1617" x="661.3386" y="340.3055">InferredData</text><path d="M601.3386,334.8735 L611.3386,334.8735 C626.3386,334.8735 626.3386,334.8735 641.3386,334.8735 L651.3386,334.8735" fill="none" style="stroke:#181818;stroke-width:1;"/><path d="M449.229,364.4075 L459.229,364.4075 C474.229,364.4075 474.229,334.8735 489.229,334.8735 L499.229,334.8735" fill="none" style="stroke:#181818;stroke-width:1;"/><rect fill="#F1F1F1" height="39.0679" rx="12.5" ry="12.5" style="stroke:#181818;stroke-width:1.5;" width="120.8136" x="499.229" y="374.4075"/><text fill="#000000" font-family="sans-serif" font-size="14" lengthAdjust="spacing" textLength="100.8136" x="509.229" y="399.3734">GeneratedData</text><rect fill="#F1F1F1" height="39.0679" rx="12.5" ry="12.5" style="stroke:#181818;stroke-width:1.5;" width="111.4476" x="670.0426" y="374.4075"/><text fill="#000000" font-family="sans-serif" font-size="14" lengthAdjust="spacing" textLength="91.4476" x="680.0426" y="399.3734">SyntheticData</text><path d="M620.0426,393.9415 L630.0426,393.9415 C645.0426,393.9415 645.0426,393.9415 660.0426,393.9415 L670.0426,393.9415" fill="none" style="stroke:#181818;stroke-width:1;"/><path d="M449.229,364.4075 L459.229,364.4075 C474.229,364.4075 474.229,393.9415 489.229,393.9415 L499.229,393.9415" fill="none" style="stroke:#181818;stroke-width:1;"/><rect fill="#F1F1F1" height="39.0679" rx="12.5" ry="12.5" style="stroke:#181818;stroke-width:1.5;" width="110.8037" x="499.229" y="433.4754"/><text fill="#000000" font-family="sans-serif" font-size="14" lengthAdjust="spacing" textLength="90.8037" x="509.229" y="458.4414">IncorrectData</text><path d="M449.229,364.4075 L459.229,364.4075 C474.229,364.4075 474.229,453.0094 489.229,453.0094 L499.229,453.0094" fill="none" style="stroke:#181818;stroke-width:1;"/><rect fill="#F1F1F1" height="39.0679" rx="12.5" ry="12.5" style="stroke:#181818;stroke-width:1.5;" width="136.1856" x="499.229" y="492.5433"/><text fill="#000000" font-family="sans-serif" font-size="14" lengthAdjust="spacing" textLength="116.1856" x="509.229" y="517.5093">NonPersonalData</text><rect fill="#F1F1F1" height="39.0679" rx="12.5" ry="12.5" style="stroke:#181818;stroke-width:1.5;" width="132.7556" x="685.4145" y="492.5433"/><text fill="#000000" font-family="sans-serif" font-size="14" lengthAdjust="spacing" textLength="112.7556" x="695.4145" y="517.5093">AnonymisedData</text><path d="M635.4145,512.0773 L645.4145,512.0773 C660.4145,512.0773 660.4145,512.0773 675.4145,512.0773 L685.4145,512.0773" fill="none" style="stroke:#181818;stroke-width:1;"/><path d="M449.229,364.4075 L459.229,364.4075 C474.229,364.4075 474.229,512.0773 489.229,512.0773 L499.229,512.0773" fill="none" style="stroke:#181818;stroke-width:1;"/><rect fill="#F1F1F1" height="39.0679" rx="12.5" ry="12.5" style="stroke:#181818;stroke-width:1.5;" width="109.2077" x="499.229" y="551.6113"/><text fill="#000000" font-family="sans-serif" font-size="14" lengthAdjust="spacing" textLength="89.2077" x="509.229" y="576.5772">SensitiveData</text><rect fill="#F1F1F1" height="39.0679" rx="12.5" ry="12.5" style="stroke:#181818;stroke-width:1.5;" width="194.4113" x="658.4366" y="551.6113"/><text fill="#000000" font-family="sans-serif" font-size="14" lengthAdjust="spacing" textLength="174.4113" x="668.4366" y="576.5772">SensitiveNonPersonalData</text><path d="M608.4366,571.1452 L618.4366,571.1452 C633.4366,571.1452 633.4366,571.1452 648.4366,571.1452 L658.4366,571.1452" fill="none" style="stroke:#181818;stroke-width:1;"/><path d="M449.229,364.4075 L459.229,364.4075 C474.229,364.4075 474.229,571.1452 489.229,571.1452 L499.229,571.1452" fill="none" style="stroke:#181818;stroke-width:1;"/><rect fill="#F1F1F1" height="39.0679" rx="12.5" ry="12.5" style="stroke:#181818;stroke-width:1.5;" width="119.2036" x="499.229" y="610.6792"/><text fill="#000000" font-family="sans-serif" font-size="14" lengthAdjust="spacing" textLength="99.2036" x="509.229" y="635.6451">UnverifiedData</text><path d="M449.229,364.4075 L459.229,364.4075 C474.229,364.4075 474.229,630.2131 489.229,630.2131 L499.229,630.2131" fill="none" style="stroke:#181818;stroke-width:1;"/><rect fill="#F1F1F1" height="39.0679" rx="12.5" ry="12.5" style="stroke:#181818;stroke-width:1.5;" width="101.6057" x="499.229" y="669.7471"/><text fill="#000000" font-family="sans-serif" font-size="14" lengthAdjust="spacing" textLength="81.6057" x="509.229" y="694.713">VerifiedData</text><path d="M449.229,364.4075 L459.229,364.4075 C474.229,364.4075 474.229,689.281 489.229,689.281 L499.229,689.281" fill="none" style="stroke:#181818;stroke-width:1;"/><rect fill="#F1F1F1" height="39.0679" rx="12.5" ry="12.5" style="stroke:#181818;stroke-width:1.5;" width="108.4237" x="239.8234" y="344.8735"/><text fill="#000000" font-family="sans-serif" font-size="14" lengthAdjust="spacing" textLength="88.4237" x="249.8234" y="369.8395">PersonalData</text><rect fill="#F1F1F1" height="39.0679" rx="12.5" ry="12.5" style="stroke:#181818;stroke-width:1.5;" width="169.1414" x="20.682" y="197.2038"/><text fill="#000000" font-family="sans-serif" font-size="14" lengthAdjust="spacing" textLength="149.1414" x="30.682" y="222.1697">CollectedPersonalData</text><path d="M239.8234,364.4075 L229.8234,364.4075 C214.8234,364.4075 214.8234,216.7377 199.8234,216.7377 L189.8234,216.7377" fill="none" style="stroke:#181818;stroke-width:1;"/><rect fill="#F1F1F1" height="39.0679" rx="12.5" ry="12.5" style="stroke:#181818;stroke-width:1.5;" width="159.5515" x="30.2719" y="256.2717"/><text fill="#000000" font-family="sans-serif" font-size="14" lengthAdjust="spacing" textLength="139.5515" x="40.2719" y="281.2376">DerivedPersonalData</text><path d="M239.8234,364.4075 L229.8234,364.4075 C214.8234,364.4075 214.8234,275.8056 199.8234,275.8056 L189.8234,275.8056" fill="none" style="stroke:#181818;stroke-width:1;"/><rect fill="#F1F1F1" height="39.0679" rx="12.5" ry="12.5" style="stroke:#181818;stroke-width:1.5;" width="178.2554" x="11.568" y="315.3396"/><text fill="#000000" font-family="sans-serif" font-size="14" lengthAdjust="spacing" textLength="158.2554" x="21.568" y="340.3055">GeneratedPersonalData</text><path d="M239.8234,364.4075 L229.8234,364.4075 C214.8234,364.4075 214.8234,334.8735 199.8234,334.8735 L189.8234,334.8735" fill="none" style="stroke:#181818;stroke-width:1;"/><rect fill="#F1F1F1" height="39.0679" rx="12.5" ry="12.5" style="stroke:#181818;stroke-width:1.5;" width="179.8234" x="10" y="374.4075"/><text fill="#000000" font-family="sans-serif" font-size="14" lengthAdjust="spacing" textLength="159.8234" x="20" y="399.3734">IdentifyingPersonalData</text><path d="M239.8234,364.4075 L229.8234,364.4075 C214.8234,364.4075 214.8234,393.9415 199.8234,393.9415 L189.8234,393.9415" fill="none" style="stroke:#181818;stroke-width:1;"/><rect fill="#F1F1F1" height="39.0679" rx="12.5" ry="12.5" style="stroke:#181818;stroke-width:1.5;" width="155.4915" x="34.3319" y="433.4754"/><text fill="#000000" font-family="sans-serif" font-size="14" lengthAdjust="spacing" textLength="135.4915" x="44.3319" y="458.4414">PseudonymisedData</text><path d="M239.8234,364.4075 L229.8234,364.4075 C214.8234,364.4075 214.8234,453.0094 199.8234,453.0094 L189.8234,453.0094" fill="none" style="stroke:#181818;stroke-width:1;"/><rect fill="#F1F1F1" height="39.0679" rx="12.5" ry="12.5" style="stroke:#181818;stroke-width:1.5;" width="166.6494" x="23.174" y="492.5433"/><text fill="#000000" font-family="sans-serif" font-size="14" lengthAdjust="spacing" textLength="146.6494" x="33.174" y="517.5093">SensitivePersonalData</text><path d="M239.8234,364.4075 L229.8234,364.4075 C214.8234,364.4075 214.8234,512.0773 199.8234,512.0773 L189.8234,512.0773" fill="none" style="stroke:#181818;stroke-width:1;"/><path d="M398.2471,364.4075 L388.2471,364.4075 C373.2471,364.4075 373.2471,364.4075 358.2471,364.4075 L348.2471,364.4075" fill="none" style="stroke:#181818;stroke-width:1;"/><!--SRC=[xLJBRjim4BppAxQt18ACH4YAH2StTcl8jHkXYdrdf9LDW5eQ92L0VzzrQZqCeOVUSzFEx0vto87cpalhAqL59K_YYw9SrmM2ywt6sKbBydMbXGXWARqKGG0BepNc7eiB4C3hkqFRZ83KcaOLFS0ZLOKsLrBhTc6eP8uyLmC_mG98oEF7IRNKB7X2wzkUpBpqodcL_qjoYLQDLqgeH6k7bLP8QENOHTQIFo9BTYq9vOP7Sjy1lmobQ9sXqPRVo51RAJSePqXEUJvyKEwGgG3igE5DIpNCxyTr6CBLHCX0_m0Jvc9wWlTc9qpoSMrbg-WmuLA7TN7bxepsPgxwnHmvG9SGYVbLfexyDi2ETE7-VbVeZwOhScLpZKvyHkmpOlyHiVJyPzfjDy3Ud384zxFeBdgSFTnaqiEw9eYUu3wAxvxZw16Ix0tEzAsuMQKRSAQsEKB1pslLU-rv_bQiPIFXTysxLXZ3wmbflVpP0V2T6cKDLUn5hFVReU7hG_YYFE_CyRImtuebbhBMdYToKx3f67PlFy8diP5qgEM1jP74mh2kRMDOlVm1]--></g></svg>