<svg xmlns="http://www.w3.org/2000/svg" xmlns:xlink="http://www.w3.org/1999/xlink" contentStyleType="text/css" data-diagram-type="CLASS" height="204px" preserveAspectRatio="none" style="width:1104px;height:204px;background:#FFFFFF;" version="1.1" viewBox="0 0 1104 204" width="1104px" zoomAndPan="magnify"><defs/><g><!--cluster dpv--><g class="cluster" data-entity="dpv" data-source-line="3" data-uid="ent0002" id="cluster_dpv"><path d="M8.5,6.602 L35.1899,6.602 A3.75,3.75 0 0 1 37.6899,9.102 L44.6899,31.6699 L1094.5,31.6699 A2.5,2.5 0 0 1 1097,34.1699 L1097,195.242 A2.5,2.5 0 0 1 1094.5,197.742 L8.5,197.742 A2.5,2.5 0 0 1 6,195.242 L6,9.102 A2.5,2.5 0 0 1 8.5,6.602" fill="none" style="stroke:#000000;stroke-width:1.5;"/><line style="stroke:#000000;stroke-width:1.5;" x1="6" x2="44.6899" y1="31.6699" y2="31.6699"/><text fill="#000000" font-family="sans-serif" font-size="14" font-weight="bold" lengthAdjust="spacing" textLength="25.6899" x="10" y="23.5679">dpv</text></g><!--class Process--><g class="entity" data-entity="Process" data-source-line="4" data-uid="ent0003" id="entity_Process"><rect fill="#F1F1F1" height="29.0679" rx="2.5" ry="2.5" style="stroke:#181818;stroke-width:0.5;" width="56.7498" x="434.63" y="44.602"/><text fill="#000000" font-family="sans-serif" font-size="14" lengthAdjust="spacing" textLength="50.7498" x="437.63" y="64.5679">Process</text></g><!--class Data--><g class="entity" data-entity="Data" data-source-line="5" data-uid="ent0004" id="entity_Data"><rect fill="#F1F1F1" height="29.0679" rx="2.5" ry="2.5" style="stroke:#181818;stroke-width:0.5;" width="36.9819" x="38.51" y="152.672"/><text fill="#000000" font-family="sans-serif" font-size="14" lengthAdjust="spacing" textLength="30.9819" x="41.51" y="172.6379">Data</text></g><!--class PersonalData--><g class="entity" data-entity="PersonalData" data-source-line="6" data-uid="ent0005" id="entity_PersonalData"><rect fill="#F1F1F1" height="29.0679" rx="2.5" ry="2.5" style="stroke:#181818;stroke-width:0.5;" width="94.4237" x="114.79" y="152.672"/><text fill="#000000" font-family="sans-serif" font-size="14" lengthAdjust="spacing" textLength="88.4237" x="117.79" y="172.6379">PersonalData</text></g><!--class Processing--><g class="entity" data-entity="Processing" data-source-line="7" data-uid="ent0006" id="entity_Processing"><rect fill="#F1F1F1" height="29.0679" rx="2.5" ry="2.5" style="stroke:#181818;stroke-width:0.5;" width="77.6237" x="281.19" y="152.672"/><text fill="#000000" font-family="sans-serif" font-size="14" lengthAdjust="spacing" textLength="71.6237" x="284.19" y="172.6379">Processing</text></g><!--class LegalBasis--><g class="entity" data-entity="LegalBasis" data-source-line="8" data-uid="ent0007" id="entity_LegalBasis"><rect fill="#F1F1F1" height="29.0679" rx="2.5" ry="2.5" style="stroke:#181818;stroke-width:0.5;" width="75.2857" x="425.36" y="152.672"/><text fill="#000000" font-family="sans-serif" font-size="14" lengthAdjust="spacing" textLength="69.2857" x="428.36" y="172.6379">LegalBasis</text></g><!--class Entity--><g class="entity" data-entity="Entity" data-source-line="9" data-uid="ent0008" id="entity_Entity"><rect fill="#F1F1F1" height="29.0679" rx="2.5" ry="2.5" style="stroke:#181818;stroke-width:0.5;" width="43.2959" x="577.35" y="152.672"/><text fill="#000000" font-family="sans-serif" font-size="14" lengthAdjust="spacing" textLength="37.2959" x="580.35" y="172.6379">Entity</text></g><!--class TechnicalMeasure--><g class="entity" data-entity="TechnicalMeasure" data-source-line="10" data-uid="ent0009" id="entity_TechnicalMeasure"><rect fill="#F1F1F1" height="29.0679" rx="2.5" ry="2.5" style="stroke:#181818;stroke-width:0.5;" width="124.9855" x="655.51" y="152.672"/><text fill="#000000" font-family="sans-serif" font-size="14" lengthAdjust="spacing" textLength="118.9855" x="658.51" y="172.6379">TechnicalMeasure</text></g><!--class OrganisationalMeasure--><g class="entity" data-entity="OrganisationalMeasure" data-source-line="11" data-uid="ent0010" id="entity_OrganisationalMeasure"><rect fill="#F1F1F1" height="29.0679" rx="2.5" ry="2.5" style="stroke:#181818;stroke-width:0.5;" width="160.7414" x="820.63" y="152.672"/><text fill="#000000" font-family="sans-serif" font-size="14" lengthAdjust="spacing" textLength="154.7414" x="823.63" y="172.6379">OrganisationalMeasure</text></g><!--class Process2--><g class="entity" data-entity="Process2" data-source-line="12" data-uid="ent0011" id="entity_Process2"><rect fill="#F1F1F1" height="29.0679" rx="2.5" ry="2.5" style="stroke:#181818;stroke-width:0.5;" width="56.7498" x="608.63" y="44.602"/><text fill="#000000" font-family="sans-serif" font-size="14" lengthAdjust="spacing" textLength="50.7498" x="611.63" y="64.5679">Process</text></g><!--class Service--><g class="entity" data-entity="Service" data-source-line="13" data-uid="ent0012" id="entity_Service"><rect fill="#F1F1F1" height="29.0679" rx="2.5" ry="2.5" style="stroke:#181818;stroke-width:0.5;" width="52.7038" x="264.65" y="44.602"/><text fill="#000000" font-family="sans-serif" font-size="14" lengthAdjust="spacing" textLength="46.7038" x="267.65" y="64.5679">Service</text></g><!--link Process to Data--><g class="link" data-entity-1="Process" data-entity-2="Data" data-source-line="16" data-uid="lnk13" id="link_Process_Data"><path codeLine="16" d="M434.13,63.212 C353.21,71.872 129.19,96.402 115,103.672 C93.26,114.822 75.45,137.572 65.53,152.342" fill="none" id="Process-Data" style="stroke:#181818;stroke-width:1;"/><polygon fill="#000000" points="115.1401,114.7002,124.6225,115.4309,123.241,109.7177,115.1401,114.7002" style="stroke:#000000;stroke-width:1;"/><text fill="#000000" font-family="sans-serif" font-size="13" lengthAdjust="spacing" textLength="50.323" x="129" y="118.569">hasData</text></g><!--link Process to PersonalData--><g class="link" data-entity-1="Process" data-entity-2="PersonalData" data-source-line="17" data-uid="lnk14" id="link_Process_PersonalData"><path codeLine="17" d="M434.13,63.862 C371.66,72.102 228.05,92.052 209,103.672 C189.99,115.282 176.05,137.682 168.48,152.282" fill="none" id="Process-PersonalData" style="stroke:#181818;stroke-width:1;"/><polygon fill="#000000" points="209.2559,115.104,218.7662,115.036,216.9099,109.459,209.2559,115.104" style="stroke:#000000;stroke-width:1;"/><text fill="#000000" font-family="sans-serif" font-size="13" lengthAdjust="spacing" textLength="103.6621" x="223" y="118.569">hasPersonalData</text></g><!--link Process to Processing--><g class="link" data-entity-1="Process" data-entity-2="Processing" data-source-line="18" data-uid="lnk15" id="link_Process_Processing"><path codeLine="18" d="M434.49,64.762 C409.27,70.182 372.86,81.422 349,103.672 C334.91,116.812 327.07,138.162 323.2,152.192" fill="none" id="Process-Processing" style="stroke:#181818;stroke-width:1;"/><polygon fill="#000000" points="350.0682,116.6138,358.9965,113.3371,355.3653,108.715,350.0682,116.6138" style="stroke:#000000;stroke-width:1;"/><text fill="#000000" font-family="sans-serif" font-size="13" lengthAdjust="spacing" textLength="88.0621" x="363" y="118.569">hasProcessing</text></g><!--link Process to LegalBasis--><g class="link" data-entity-1="Process" data-entity-2="LegalBasis" data-source-line="19" data-uid="lnk16" id="link_Process_LegalBasis"><path codeLine="19" d="M461.68,74.042 C460.63,86.712 459.42,105.942 460,122.672 C460.34,132.672 461.13,143.932 461.81,152.492" fill="none" id="Process-LegalBasis" style="stroke:#181818;stroke-width:1;"/><polygon fill="#000000" points="465.0083,118.525,467.9322,109.475,462.0544,109.4848,465.0083,118.525" style="stroke:#000000;stroke-width:1;"/><text fill="#000000" font-family="sans-serif" font-size="13" lengthAdjust="spacing" textLength="85.8911" x="474" y="118.569">hasLegalBasis</text></g><!--link Process to Entity--><g class="link" data-entity-1="Process" data-entity-2="Entity" data-source-line="20" data-uid="lnk17" id="link_Process_Entity"><path codeLine="20" d="M491.45,67.002 C513.36,73.472 543.3,85.002 564,103.672 C578.88,117.092 588.88,138.362 594.26,152.302" fill="none" id="Process-Entity" style="stroke:#181818;stroke-width:1;"/><polygon fill="#000000" points="587.768,116.7176,582.6835,108.6803,578.9303,113.2039,587.768,116.7176" style="stroke:#000000;stroke-width:1;"/><text fill="#000000" font-family="sans-serif" font-size="13" lengthAdjust="spacing" textLength="56.1861" x="592.92" y="118.569">hasEntity</text></g><!--link Process to TechnicalMeasure--><g class="link" data-entity-1="Process" data-entity-2="TechnicalMeasure" data-source-line="21" data-uid="lnk18" id="link_Process_TechnicalMeasure"><path codeLine="21" d="M491.63,61.392 C531.35,64.222 604.35,73.462 658,103.672 C679.37,115.712 697.85,137.772 708.46,152.212" fill="none" id="Process-TechnicalMeasure" style="stroke:#181818;stroke-width:1;"/><polygon fill="#000000" points="692.0018,115.4567,684.7944,109.2515,682.5236,114.673,692.0018,115.4567" style="stroke:#000000;stroke-width:1;"/><text fill="#000000" font-family="sans-serif" font-size="13" lengthAdjust="spacing" textLength="132.0411" x="696.39" y="118.569">hasTechnicalMeasure</text></g><!--link Process to OrganisationalMeasure--><g class="link" data-entity-1="Process" data-entity-2="OrganisationalMeasure" data-source-line="22" data-uid="lnk19" id="link_Process_OrganisationalMeasure"><path codeLine="22" d="M491.65,63.222 C577.83,72.542 829.18,99.942 837,103.672 C860.14,114.702 880.04,137.492 891.26,152.302" fill="none" id="Process-OrganisationalMeasure" style="stroke:#181818;stroke-width:1;"/><polygon fill="#000000" points="872.9402,114.6129,864.7513,109.7764,863.4724,115.5134,872.9402,114.6129" style="stroke:#000000;stroke-width:1;"/><text fill="#000000" font-family="sans-serif" font-size="13" lengthAdjust="spacing" textLength="165.2431" x="877.06" y="118.569">hasOrganisationalMeasure</text></g><!--link Process to Process2--><g class="link" data-entity-1="Process" data-entity-2="Process2" data-source-line="24" data-uid="lnk20" id="link_Process_Process2"><path codeLine="24" d="M491.73,59.142 C523.97,59.142 575.97,59.142 608.22,59.142" fill="none" id="Process-Process2" style="stroke:#181818;stroke-width:1;"/><polygon fill="#000000" points="518.5,46.995,509.4549,44.0561,509.4549,49.9339,518.5,46.995" style="stroke:#000000;stroke-width:1;"/><text fill="#000000" font-family="sans-serif" font-size="13" lengthAdjust="spacing" textLength="68.679" x="522.5" y="52.039">hasProcess</text></g><!--link Service to Process--><g class="link" data-entity-1="Service" data-entity-2="Process" data-source-line="25" data-uid="lnk21" id="link_Service_Process"><path codeLine="25" d="M317.5,59.142 C349.07,59.142 401.61,59.142 434.17,59.142" fill="none" id="Service-Process" style="stroke:#181818;stroke-width:1;"/><polygon fill="#000000" points="344.49,46.995,335.4449,44.0561,335.4449,49.9339,344.49,46.995" style="stroke:#000000;stroke-width:1;"/><text fill="#000000" font-family="sans-serif" font-size="13" lengthAdjust="spacing" textLength="68.679" x="348.49" y="52.039">hasProcess</text></g><!--SRC=[RP3D3i8W48JlFCNQknuyUkZ1w4sZYRx01ZULYDYmj4bZV7T_87LfombclWLcPiPfsrm8E7IM5hL55vgxLQf6VSEAu5Aty5JmMTeYCnpzGnEpK3OOK0Ba-U7G3kKuPrmbn1rLQDV8HjwtTS64JWXdqbTdDDez8JUUX7Nm5Jh36CptoR5Vf6SBmFuBI-6VoBT6atefbLoOpt-9O0LNvD-kb9wC5vbCoTa-SoB_vupxrn0vSSwus4naqZxpXqL5SgHcCvCDni5fgnHL-JxZCaluWLApaXaYRm00]--></g></svg>