<svg xmlns="http://www.w3.org/2000/svg" xmlns:xlink="http://www.w3.org/1999/xlink" contentStyleType="text/css" data-diagram-type="MINDMAP" height="553px" preserveAspectRatio="none" style="width:632px;height:553px;background:#FFFFFF;" version="1.1" viewBox="0 0 632 553" width="632px" zoomAndPan="magnify"><defs/><g><rect fill="#F1F1F1" height="39.0679" rx="12.5" ry="12.5" style="stroke:#181818;stroke-width:1.5;" width="74.5858" x="254.9293" y="256.2717"/><text fill="#000000" font-family="sans-serif" font-size="14" lengthAdjust="spacing" textLength="54.5858" x="264.9293" y="281.2376">Purpose</text><rect fill="#F1F1F1" height="39.0679" rx="12.5" ry="12.5" style="stroke:#181818;stroke-width:1.5;" width="161.4695" x="379.5151" y="20"/><text fill="#000000" font-family="sans-serif" font-size="14" lengthAdjust="spacing" textLength="141.4695" x="389.5151" y="44.9659">AccountManagement</text><path d="M329.5151,275.8056 L339.5151,275.8056 C354.5151,275.8056 354.5151,39.534 369.5151,39.534 L379.5151,39.534" fill="none" style="stroke:#181818;stroke-width:1;"/><rect fill="#F1F1F1" height="39.0679" rx="12.5" ry="12.5" style="stroke:#181818;stroke-width:1.5;" width="153.5595" x="379.5151" y="79.0679"/><text fill="#000000" font-family="sans-serif" font-size="14" lengthAdjust="spacing" textLength="133.5595" x="389.5151" y="104.0339">CommercialPurpose</text><path d="M329.5151,275.8056 L339.5151,275.8056 C354.5151,275.8056 354.5151,98.6019 369.5151,98.6019 L379.5151,98.6019" fill="none" style="stroke:#181818;stroke-width:1;"/><rect fill="#F1F1F1" height="39.0679" rx="12.5" ry="12.5" style="stroke:#181818;stroke-width:1.5;" width="213.0313" x="379.5151" y="138.1358"/><text fill="#000000" font-family="sans-serif" font-size="14" lengthAdjust="spacing" textLength="193.0313" x="389.5151" y="163.1018">CommunicationManagement</text><path d="M329.5151,275.8056 L339.5151,275.8056 C354.5151,275.8056 354.5151,157.6698 369.5151,157.6698 L379.5151,157.6698" fill="none" style="stroke:#181818;stroke-width:1;"/><rect fill="#F1F1F1" height="39.0679" rx="12.5" ry="12.5" style="stroke:#181818;stroke-width:1.5;" width="241.1712" x="379.5151" y="197.2038"/><text fill="#000000" font-family="sans-serif" font-size="14" lengthAdjust="spacing" textLength="221.1712" x="389.5151" y="222.1697">CommunicationForCustomerCare</text><path d="M329.5151,275.8056 L339.5151,275.8056 C354.5151,275.8056 354.5151,216.7377 369.5151,216.7377 L379.5151,216.7377" fill="none" style="stroke:#181818;stroke-width:1;"/><rect fill="#F1F1F1" height="39.0679" rx="12.5" ry="12.5" style="stroke:#181818;stroke-width:1.5;" width="172.7534" x="379.5151" y="256.2717"/><text fill="#000000" font-family="sans-serif" font-size="14" lengthAdjust="spacing" textLength="152.7534" x="389.5151" y="281.2376">CustomerManagement</text><path d="M329.5151,275.8056 L339.5151,275.8056 C354.5151,275.8056 354.5151,275.8056 369.5151,275.8056 L379.5151,275.8056" fill="none" style="stroke:#181818;stroke-width:1;"/><rect fill="#F1F1F1" height="39.0679" rx="12.5" ry="12.5" style="stroke:#181818;stroke-width:1.5;" width="122.6616" x="379.5151" y="315.3396"/><text fill="#000000" font-family="sans-serif" font-size="14" lengthAdjust="spacing" textLength="102.6616" x="389.5151" y="340.3055">EnforceSecurity</text><path d="M329.5151,275.8056 L339.5151,275.8056 C354.5151,275.8056 354.5151,334.8735 369.5151,334.8735 L379.5151,334.8735" fill="none" style="stroke:#181818;stroke-width:1;"/><rect fill="#F1F1F1" height="39.0679" rx="12.5" ry="12.5" style="stroke:#181818;stroke-width:1.5;" width="228.9632" x="379.5151" y="374.4075"/><text fill="#000000" font-family="sans-serif" font-size="14" lengthAdjust="spacing" textLength="208.9632" x="389.5151" y="399.3734">EstablishContractualAgreement</text><path d="M329.5151,275.8056 L339.5151,275.8056 C354.5151,275.8056 354.5151,393.9415 369.5151,393.9415 L379.5151,393.9415" fill="none" style="stroke:#181818;stroke-width:1;"/><rect fill="#F1F1F1" height="39.0679" rx="12.5" ry="12.5" style="stroke:#181818;stroke-width:1.5;" width="171.0314" x="379.5151" y="433.4754"/><text fill="#000000" font-family="sans-serif" font-size="14" lengthAdjust="spacing" textLength="151.0314" x="389.5151" y="458.4414">FulfilmentOfObligation</text><path d="M329.5151,275.8056 L339.5151,275.8056 C354.5151,275.8056 354.5151,453.0094 369.5151,453.0094 L379.5151,453.0094" fill="none" style="stroke:#181818;stroke-width:1;"/><rect fill="#F1F1F1" height="39.0679" rx="12.5" ry="12.5" style="stroke:#181818;stroke-width:1.5;" width="217.7072" x="379.5151" y="492.5433"/><text fill="#000000" font-family="sans-serif" font-size="14" lengthAdjust="spacing" textLength="197.7072" x="389.5151" y="517.5093">HumanResourceManagement</text><path d="M329.5151,275.8056 L339.5151,275.8056 C354.5151,275.8056 354.5151,512.0773 369.5151,512.0773 L379.5151,512.0773" fill="none" style="stroke:#181818;stroke-width:1;"/><rect fill="#F1F1F1" height="39.0679" rx="12.5" ry="12.5" style="stroke:#181818;stroke-width:1.5;" width="87.6337" x="117.2956" y="20"/><text fill="#000000" font-family="sans-serif" font-size="14" lengthAdjust="spacing" textLength="67.6337" x="127.2956" y="44.9659">Marketing</text><path d="M254.9293,275.8056 L244.9293,275.8056 C229.9293,275.8056 229.9293,39.534 214.9293,39.534 L204.9293,39.534" fill="none" style="stroke:#181818;stroke-width:1;"/><rect fill="#F1F1F1" height="39.0679" rx="12.5" ry="12.5" style="stroke:#181818;stroke-width:1.5;" width="181.3214" x="23.6079" y="79.0679"/><text fill="#000000" font-family="sans-serif" font-size="14" lengthAdjust="spacing" textLength="161.3214" x="33.6079" y="104.0339">NonCommercialPurpose</text><path d="M254.9293,275.8056 L244.9293,275.8056 C229.9293,275.8056 229.9293,98.6019 214.9293,98.6019 L204.9293,98.6019" fill="none" style="stroke:#181818;stroke-width:1;"/><rect fill="#F1F1F1" height="39.0679" rx="12.5" ry="12.5" style="stroke:#181818;stroke-width:1.5;" width="185.0174" x="19.9119" y="138.1358"/><text fill="#000000" font-family="sans-serif" font-size="14" lengthAdjust="spacing" textLength="165.0174" x="29.9119" y="163.1018">OrganisationGovernance</text><path d="M254.9293,275.8056 L244.9293,275.8056 C229.9293,275.8056 229.9293,157.6698 214.9293,157.6698 L204.9293,157.6698" fill="none" style="stroke:#181818;stroke-width:1;"/><rect fill="#F1F1F1" height="39.0679" rx="12.5" ry="12.5" style="stroke:#181818;stroke-width:1.5;" width="121.4016" x="83.5277" y="197.2038"/><text fill="#000000" font-family="sans-serif" font-size="14" lengthAdjust="spacing" textLength="101.4016" x="93.5277" y="222.1697">Personalisation</text><path d="M254.9293,275.8056 L244.9293,275.8056 C229.9293,275.8056 229.9293,216.7377 214.9293,216.7377 L204.9293,216.7377" fill="none" style="stroke:#181818;stroke-width:1;"/><rect fill="#F1F1F1" height="39.0679" rx="12.5" ry="12.5" style="stroke:#181818;stroke-width:1.5;" width="106.7016" x="98.2277" y="256.2717"/><text fill="#000000" font-family="sans-serif" font-size="14" lengthAdjust="spacing" textLength="86.7016" x="108.2277" y="281.2376">PublicBenefit</text><path d="M254.9293,275.8056 L244.9293,275.8056 C229.9293,275.8056 229.9293,275.8056 214.9293,275.8056 L204.9293,275.8056" fill="none" style="stroke:#181818;stroke-width:1;"/><rect fill="#F1F1F1" height="39.0679" rx="12.5" ry="12.5" style="stroke:#181818;stroke-width:1.5;" width="154.4415" x="50.4878" y="315.3396"/><text fill="#000000" font-family="sans-serif" font-size="14" lengthAdjust="spacing" textLength="134.4415" x="60.4878" y="340.3055">RecordManagement</text><path d="M254.9293,275.8056 L244.9293,275.8056 C229.9293,275.8056 229.9293,334.8735 214.9293,334.8735 L204.9293,334.8735" fill="none" style="stroke:#181818;stroke-width:1;"/><rect fill="#F1F1F1" height="39.0679" rx="12.5" ry="12.5" style="stroke:#181818;stroke-width:1.5;" width="194.9293" x="10" y="374.4075"/><text fill="#000000" font-family="sans-serif" font-size="14" lengthAdjust="spacing" textLength="174.9293" x="20" y="399.3734">ResearchAndDevelopment</text><path d="M254.9293,275.8056 L244.9293,275.8056 C229.9293,275.8056 229.9293,393.9415 214.9293,393.9415 L204.9293,393.9415" fill="none" style="stroke:#181818;stroke-width:1;"/><rect fill="#F1F1F1" height="39.0679" rx="12.5" ry="12.5" style="stroke:#181818;stroke-width:1.5;" width="127.5896" x="77.3397" y="433.4754"/><text fill="#000000" font-family="sans-serif" font-size="14" lengthAdjust="spacing" textLength="107.5896" x="87.3397" y="458.4414">ServiceProvision</text><path d="M254.9293,275.8056 L244.9293,275.8056 C229.9293,275.8056 229.9293,453.0094 214.9293,453.0094 L204.9293,453.0094" fill="none" style="stroke:#181818;stroke-width:1;"/><rect fill="#F1F1F1" height="39.0679" rx="12.5" ry="12.5" style="stroke:#181818;stroke-width:1.5;" width="156.0655" x="48.8638" y="492.5433"/><text fill="#000000" font-family="sans-serif" font-size="14" lengthAdjust="spacing" textLength="136.0655" x="58.8638" y="517.5093">VendorManagement</text><path d="M254.9293,275.8056 L244.9293,275.8056 C229.9293,275.8056 229.9293,512.0773 214.9293,512.0773 L204.9293,512.0773" fill="none" style="stroke:#181818;stroke-width:1;"/><!--SRC=[xLDDRnf13BtFhvZU4Y5GWf8gtHDVXPQ6W23Xxinw5wkp7kIPMOb_tza5Kb1-GQNUrk_PVhRVxC07a50HvnNirHTYOsEEseU3nTxU0eTOMQKwUXLbxpogJaSFZN6Hmm8OIgoGGmEENLMX609xaTc0aSb08CUVyp-egPDnzC6b3cEGO-aflgxwpeKJWniqKIWSMYXjy6x9xyQEWu094Uom5FoecKPRa6sYPR5CcMKhsJ0_OWMyHkzYwdaXrEtg1SXl3CHb4xmu_hnUmfTI0fDl-yrSZSB0fcLMADuns1FPGZ5fcn4o5jHAhD4uoQzbqp08OdP3pYTOetNxCxD1gSdWIbnD_jHoYvoxomkfGKBEPgh1bRSxIhuMX3Rtn-yAmywT0qDYB7hrt-f_qkfLywU-BPvrcgmfqVUz_bt_iVTmiu6Wvv5r_qdVzxExRrd_KV_SlEg6lbKtizMpFXv5v-I3q7jijhXLSwX1hvFtL66cbtla-UJN6KZcr2IEsqdcsyNVXAyFtH65TWKKlLse2HOGRKWLnkNfo9b-UvrsdzGpS1dJCfb6LkFcaSaXqxFH7m00]--></g></svg>