<svg xmlns="http://www.w3.org/2000/svg" xmlns:xlink="http://www.w3.org/1999/xlink" contentStyleType="text/css" data-diagram-type="CLASS" height="400px" preserveAspectRatio="none" style="width:925px;height:400px;background:#FFFFFF;" version="1.1" viewBox="0 0 925 400" width="925px" zoomAndPan="magnify"><defs/><g><!--cluster dpv--><g class="cluster" data-entity="dpv" data-source-line="5" data-uid="ent0003" id="cluster_dpv"><path d="M173.81,6.602 L200.4999,6.602 A3.75,3.75 0 0 1 202.9999,9.102 L209.9999,31.6699 L916.33,31.6699 A2.5,2.5 0 0 1 918.83,34.1699 L918.83,391.102 A2.5,2.5 0 0 1 916.33,393.602 L173.81,393.602 A2.5,2.5 0 0 1 171.31,391.102 L171.31,9.102 A2.5,2.5 0 0 1 173.81,6.602" fill="none" style="stroke:#000000;stroke-width:1.5;"/><line style="stroke:#000000;stroke-width:1.5;" x1="171.31" x2="209.9999" y1="31.6699" y2="31.6699"/><text fill="#000000" font-family="sans-serif" font-size="14" font-weight="bold" lengthAdjust="spacing" textLength="25.6899" x="175.31" y="23.5679">dpv</text></g><!--class Right--><g class="entity" data-entity="Right" data-source-line="6" data-uid="ent0004" id="entity_Right"><rect fill="#F1F1F1" height="29.0679" rx="2.5" ry="2.5" style="stroke:#181818;stroke-width:0.5;" width="40.6359" x="540.14" y="348.072"/><text fill="#000000" font-family="sans-serif" font-size="14" lengthAdjust="spacing" textLength="34.6359" x="543.14" y="368.0379">Right</text></g><!--class Notice--><g class="entity" data-entity="Notice" data-source-line="7" data-uid="ent0005" id="entity_Notice"><rect fill="#F1F1F1" height="29.0679" rx="2.5" ry="2.5" style="stroke:#181818;stroke-width:0.5;" width="48.3918" x="233.43" y="153.072"/><text fill="#000000" font-family="sans-serif" font-size="14" lengthAdjust="spacing" textLength="42.3918" x="236.43" y="173.0379">Notice</text></g><!--class DataSubjectRight--><g class="entity" data-entity="DataSubjectRight" data-source-line="8" data-uid="ent0006" id="entity_DataSubjectRight"><rect fill="#F1F1F1" height="29.0679" rx="2.5" ry="2.5" style="stroke:#181818;stroke-width:0.5;" width="119.8476" x="782.98" y="348.072"/><text fill="#000000" font-family="sans-serif" font-size="14" lengthAdjust="spacing" textLength="113.8476" x="785.98" y="368.0379">DataSubjectRight</text></g><!--class PassiveRight--><g class="entity" data-entity="PassiveRight" data-source-line="9" data-uid="ent0007" id="entity_PassiveRight"><rect fill="#F1F1F1" height="29.0679" rx="2.5" ry="2.5" style="stroke:#181818;stroke-width:0.5;" width="88.9917" x="798.41" y="284.072"/><text fill="#000000" font-family="sans-serif" font-size="14" lengthAdjust="spacing" textLength="82.9917" x="801.41" y="304.0379">PassiveRight</text></g><!--class ActiveRight--><g class="entity" data-entity="ActiveRight" data-source-line="10" data-uid="ent0008" id="entity_ActiveRight"><rect fill="#F1F1F1" height="29.0679" rx="2.5" ry="2.5" style="stroke:#181818;stroke-width:0.5;" width="79.9757" x="802.92" y="220.072"/><text fill="#000000" font-family="sans-serif" font-size="14" lengthAdjust="spacing" textLength="73.9757" x="805.92" y="240.0379">ActiveRight</text></g><!--class Record--><g class="entity" data-entity="Record" data-source-line="11" data-uid="ent0009" id="entity_Record"><rect fill="#F1F1F1" height="29.0679" rx="2.5" ry="2.5" style="stroke:#181818;stroke-width:0.5;" width="52.1858" x="231.53" y="300.072"/><text fill="#000000" font-family="sans-serif" font-size="14" lengthAdjust="spacing" textLength="46.1858" x="234.53" y="320.0379">Record</text></g><!--class RightExerciseNotice--><g class="entity" data-entity="RightExerciseNotice" data-source-line="12" data-uid="ent0010" id="entity_RightExerciseNotice"><rect fill="#F1F1F1" height="29.0679" rx="2.5" ry="2.5" style="stroke:#181818;stroke-width:0.5;" width="136.8295" x="492.04" y="173.072"/><text fill="#000000" font-family="sans-serif" font-size="14" lengthAdjust="spacing" textLength="130.8295" x="495.04" y="193.0379">RightExerciseNotice</text></g><!--class RightFulfilmentNotice--><g class="entity" data-entity="RightFulfilmentNotice" data-source-line="13" data-uid="ent0011" id="entity_RightFulfilmentNotice"><rect fill="#F1F1F1" height="29.0679" rx="2.5" ry="2.5" style="stroke:#181818;stroke-width:0.5;" width="149.2894" x="485.81" y="109.072"/><text fill="#000000" font-family="sans-serif" font-size="14" lengthAdjust="spacing" textLength="143.2894" x="488.81" y="129.0379">RightFulfilmentNotice</text></g><!--class RightNonFulfilmentNotice--><g class="entity" data-entity="RightNonFulfilmentNotice" data-source-line="14" data-uid="ent0012" id="entity_RightNonFulfilmentNotice"><rect fill="#F1F1F1" height="29.0679" rx="2.5" ry="2.5" style="stroke:#181818;stroke-width:0.5;" width="177.0513" x="471.93" y="45.072"/><text fill="#000000" font-family="sans-serif" font-size="14" lengthAdjust="spacing" textLength="171.0513" x="474.93" y="65.0379">RightNonFulfilmentNotice</text></g><!--class RightExerciseRecord--><g class="entity" data-entity="RightExerciseRecord" data-source-line="15" data-uid="ent0013" id="entity_RightExerciseRecord"><rect fill="#F1F1F1" height="29.0679" rx="2.5" ry="2.5" style="stroke:#181818;stroke-width:0.5;" width="140.6235" x="187.31" y="236.072"/><text fill="#000000" font-family="sans-serif" font-size="14" lengthAdjust="spacing" textLength="134.6235" x="190.31" y="256.0379">RightExerciseRecord</text></g><!--class RightExerciseActivity--><g class="entity" data-entity="RightExerciseActivity" data-source-line="16" data-uid="ent0014" id="entity_RightExerciseActivity"><rect fill="#F1F1F1" height="29.0679" rx="2.5" ry="2.5" style="stroke:#181818;stroke-width:0.5;" width="141.6875" x="489.62" y="284.072"/><text fill="#000000" font-family="sans-serif" font-size="14" lengthAdjust="spacing" textLength="135.6875" x="492.62" y="304.0379">RightExerciseActivity</text></g><!--class RequestStatus--><g class="entity" data-entity="RequestStatus" data-source-line="17" data-uid="ent0015" id="entity_RequestStatus"><rect fill="#F1F1F1" height="29.0679" rx="2.5" ry="2.5" style="stroke:#181818;stroke-width:0.5;" width="100.5276" x="792.64" y="156.072"/><text fill="#000000" font-family="sans-serif" font-size="14" lengthAdjust="spacing" textLength="94.5276" x="795.64" y="176.0379">RequestStatus</text></g><!--class Thing--><g class="entity" data-entity="Thing" data-source-line="4" data-uid="ent0002" id="entity_Thing"><rect fill="#C0C0C0" height="29.0679" rx="2.5" ry="2.5" style="stroke:#181818;stroke-width:0.5;" width="43.3098" x="7" y="340.072"/><text fill="#000000" font-family="sans-serif" font-size="14" lengthAdjust="spacing" textLength="37.3098" x="10" y="360.0379">Thing</text></g><!--link Thing to Right--><g class="link" data-entity-1="Thing" data-entity-2="Right" data-source-line="19" data-uid="lnk16" id="link_Thing_Right"><path codeLine="19" d="M50.46,356.842 C76.72,359.562 123.3,363.962 163.31,365.602 C307.62,371.532 481.75,365.712 539.66,363.432" fill="none" id="Thing-Right" style="stroke:#181818;stroke-width:1;"/><polygon fill="#000000" points="233.6195,356.5223,224.6149,353.4618,224.5357,359.3392,233.6195,356.5223" style="stroke:#000000;stroke-width:1;"/><text fill="#000000" font-family="sans-serif" font-size="13" lengthAdjust="spacing" textLength="53.7161" x="237.62" y="361.499">hasRight</text></g><!--link Thing to Notice--><g class="link" data-entity-1="Thing" data-entity-2="Notice" data-source-line="20" data-uid="lnk17" id="link_Thing_Notice"><path codeLine="20" d="M41.72,339.702 C63.81,313.072 113.13,256.522 163.31,218.602 C185.4,201.902 213.64,187.262 233.24,178.002" fill="none" id="Thing-Notice" style="stroke:#181818;stroke-width:1;"/><polygon fill="#000000" points="89.1304,212.5194,80.3233,216.1089,84.1152,220.6001,89.1304,212.5194" style="stroke:#000000;stroke-width:1;"/><text fill="#000000" font-family="sans-serif" font-size="13" lengthAdjust="spacing" textLength="60.918" x="94.31" y="220.789">hasNotice</text></g><!--reverse link Right to DataSubjectRight--><g class="link" data-entity-1="Right" data-entity-2="DataSubjectRight" data-source-line="22" data-uid="lnk18" id="link_Right_DataSubjectRight"><path codeLine="22" d="M599.18,362.602 C640.45,362.602 719.33,362.602 782.67,362.602" fill="none" id="Right-backto-DataSubjectRight" style="stroke:#181818;stroke-width:1;"/><polygon fill="none" points="581.18,362.602,599.18,368.602,599.18,356.602,581.18,362.602" style="stroke:#181818;stroke-width:1;"/></g><!--reverse link Right to PassiveRight--><g class="link" data-entity-1="Right" data-entity-2="PassiveRight" data-source-line="23" data-uid="lnk19" id="link_Right_PassiveRight"><path codeLine="23" d="M598.681,354.76 C633.411,347.42 690.33,335.222 752.98,320.602 C767.7,317.172 783.74,313.252 798.09,309.692" fill="none" id="Right-backto-PassiveRight" style="stroke:#181818;stroke-width:1;"/><polygon fill="none" points="581.07,358.482,599.9216,360.6303,597.4403,348.8897,581.07,358.482" style="stroke:#181818;stroke-width:1;"/></g><!--reverse link Right to ActiveRight--><g class="link" data-entity-1="Right" data-entity-2="ActiveRight" data-source-line="24" data-uid="lnk20" id="link_Right_ActiveRight"><path codeLine="24" d="M598.1785,349.1892 C615.9285,342.7092 625.74,339.112 648.98,330.602 C662.32,325.722 665.2,323.022 678.98,319.602 C711.2,311.622 724.66,326.892 752.98,309.602 C772.88,297.462 765.61,282.132 782.98,266.602 C790.36,260.002 799.33,254.262 808.03,249.532" fill="none" id="Right-backto-ActiveRight" style="stroke:#181818;stroke-width:1;"/><polygon fill="none" points="581.27,355.362,600.2361,354.8254,596.1209,343.553,581.27,355.362" style="stroke:#181818;stroke-width:1;"/></g><!--reverse link Notice to RightExerciseNotice--><g class="link" data-entity-1="Notice" data-entity-2="RightExerciseNotice" data-source-line="26" data-uid="lnk21" id="link_Notice_RightExerciseNotice"><path codeLine="26" d="M300.1905,170.364 C344.7905,173.324 424.98,178.662 491.69,183.092" fill="none" id="Notice-backto-RightExerciseNotice" style="stroke:#181818;stroke-width:1;"/><polygon fill="none" points="282.23,169.172,299.7932,176.3508,300.5878,164.3771,282.23,169.172" style="stroke:#181818;stroke-width:1;"/></g><!--reverse link Notice to RightFulfilmentNotice--><g class="link" data-entity-1="Notice" data-entity-2="RightFulfilmentNotice" data-source-line="27" data-uid="lnk22" id="link_Notice_RightFulfilmentNotice"><path codeLine="27" d="M300.0405,161.547 C343.2505,155.227 418.94,144.152 485.38,134.432" fill="none" id="Notice-backto-RightFulfilmentNotice" style="stroke:#181818;stroke-width:1;"/><polygon fill="none" points="282.23,164.152,300.9088,167.4838,299.1722,155.6101,282.23,164.152" style="stroke:#181818;stroke-width:1;"/></g><!--reverse link Notice to RightNonFulfilmentNotice--><g class="link" data-entity-1="Notice" data-entity-2="RightNonFulfilmentNotice" data-source-line="28" data-uid="lnk23" id="link_Notice_RightNonFulfilmentNotice"><path codeLine="28" d="M299.1706,153.048 C350.0706,134.768 453.79,97.532 517.84,74.542" fill="none" id="Notice-backto-RightNonFulfilmentNotice" style="stroke:#181818;stroke-width:1;"/><polygon fill="none" points="282.23,159.132,301.1986,158.6949,297.1426,147.4011,282.23,159.132" style="stroke:#181818;stroke-width:1;"/></g><!--reverse link Record to RightExerciseRecord--><g class="link" data-entity-1="Record" data-entity-2="RightExerciseRecord" data-source-line="30" data-uid="lnk24" id="link_Record_RightExerciseRecord"><path codeLine="30" d="M257.62,281.602 C257.62,270.242 257.62,276.892 257.62,265.532" fill="none" id="Record-backto-RightExerciseRecord" style="stroke:#181818;stroke-width:1;"/><polygon fill="none" points="257.62,299.602,263.62,281.602,251.62,281.602,257.62,299.602" style="stroke:#181818;stroke-width:1;"/></g><!--link RightExerciseRecord to RightExerciseActivity--><g class="link" data-entity-1="RightExerciseRecord" data-entity-2="RightExerciseActivity" data-source-line="31" data-uid="lnk25" id="link_RightExerciseRecord_RightExerciseActivity"><path codeLine="31" d="M328.4,261.732 C376.74,269.452 440.85,279.682 489.28,287.402" fill="none" id="RightExerciseRecord-RightExerciseActivity" style="stroke:#181818;stroke-width:1;"/><polygon fill="#000000" points="367.8675,259.1428,359.3985,254.8154,358.4724,260.6198,367.8675,259.1428" style="stroke:#000000;stroke-width:1;"/><text fill="#000000" font-family="sans-serif" font-size="13" lengthAdjust="spacing" textLength="69.1861" x="371.93" y="263.399">dct:hasPart</text></g><!--link RightExerciseRecord to Right--><g class="link" data-entity-1="RightExerciseRecord" data-entity-2="Right" data-source-line="32" data-uid="lnk26" id="link_RightExerciseRecord_Right"><path codeLine="32" d="M295.02,265.572 C305.87,270.522 317.61,276.362 327.93,282.602 C342.32,291.292 342.92,298.072 357.93,305.602 C420.34,336.902 502.49,353.312 539.67,359.562" fill="none" id="RightExerciseRecord-Right" style="stroke:#181818;stroke-width:1;"/><polygon fill="#000000" points="375.5974,298.2481,368.208,292.2609,366.1,297.7477,375.5974,298.2481" style="stroke:#000000;stroke-width:1;"/><text fill="#000000" font-family="sans-serif" font-size="13" lengthAdjust="spacing" textLength="53.7161" x="379.93" y="301.499">hasRight</text></g><!--link RightExerciseActivity to RightExerciseActivity--><g class="link" data-entity-1="RightExerciseActivity" data-entity-2="RightExerciseActivity" data-source-line="33" data-uid="lnk27" id="link_RightExerciseActivity_RightExerciseActivity"><path codeLine="33" d="M538.36,283.642 C524.08,267.452 531.45,249.072 560.46,249.072 C589.47,249.072 596.83,267.452 582.56,283.642" fill="none" id="RightExerciseActivity-RightExerciseActivity" style="stroke:#181818;stroke-width:1;"/><polygon fill="#000000" points="502.2102,231.6176,507.0496,239.8048,510.9377,235.3967,502.2102,231.6176" style="stroke:#000000;stroke-width:1;"/><text fill="#000000" font-family="sans-serif" font-size="13" lengthAdjust="spacing" textLength="94.9911" x="519.96" y="239.969">isBefore/isAfter</text></g><!--link RightExerciseActivity to RequestStatus--><g class="link" data-entity-1="RightExerciseActivity" data-entity-2="RequestStatus" data-source-line="34" data-uid="lnk28" id="link_RightExerciseActivity_RequestStatus"><path codeLine="34" d="M594.18,283.672 C648.22,259.002 755.49,210.042 809.4,185.442" fill="none" id="RightExerciseActivity-RequestStatus" style="stroke:#181818;stroke-width:1;"/><polygon fill="#000000" points="688.5286,200.7789,679.0798,201.861,681.5204,207.2082,688.5286,200.7789" style="stroke:#000000;stroke-width:1;"/><text fill="#000000" font-family="sans-serif" font-size="13" lengthAdjust="spacing" textLength="59.6311" x="692.98" y="207.899">hasStatus</text></g><!--SRC=[VP51JiCm44NN-1H6h0Fx2aKg0fPLrN81Oq-IeQuTx4b41ToTf4vet5ZPMEFvV-PRpxTef6uKS4yd3VUr5eQQesOQ2k9akSEo8gxGWIIqXZ6fXVVyhK9JyZkFkWN7QY4FeWIkwfP_ivjWsVMJusLZ2IMCjsT1Oj-yVtGx8zUsEx25gBVkSgzQEv3MgIZdvGkSH0znpbbwRNI1-WY64kB6caLztBiGUNuWqkdokiy6FEr9KEFPBmkeiYnCyHMlX0zbVj52T127EcSis1v_CfNDcKt52DnKcD9Zm-AWfB3D3JCuSqiA8GkyUbkIOwBtJ-YQQmT5ILfrOBR2zT2MXcEywNqBGUYVeB0E7j2l2mAtk6Fwpo5tg7Fs1m00]--></g></svg>