<svg xmlns="http://www.w3.org/2000/svg" xmlns:xlink="http://www.w3.org/1999/xlink" contentStyleType="text/css" data-diagram-type="CLASS" height="407px" preserveAspectRatio="none" style="width:735px;height:407px;background:#FFFFFF;" version="1.1" viewBox="0 0 735 407" width="735px" zoomAndPan="magnify"><defs/><g><!--cluster dpv--><g class="cluster" data-entity="dpv" data-source-line="6" data-uid="ent0003" id="cluster_dpv"><path d="M235.81,6.602 L262.4999,6.602 A3.75,3.75 0 0 1 264.9999,9.102 L271.9999,31.6699 L726.02,31.6699 A2.5,2.5 0 0 1 728.52,34.1699 L728.52,391.102 A2.5,2.5 0 0 1 726.02,393.602 L235.81,393.602 A2.5,2.5 0 0 1 233.31,391.102 L233.31,9.102 A2.5,2.5 0 0 1 235.81,6.602" fill="none" style="stroke:#000000;stroke-width:1.5;"/><line style="stroke:#000000;stroke-width:1.5;" x1="233.31" x2="271.9999" y1="31.6699" y2="31.6699"/><text fill="#000000" font-family="sans-serif" font-size="14" font-weight="bold" lengthAdjust="spacing" textLength="25.6899" x="237.31" y="23.5679">dpv</text></g><!--class Entity--><g class="entity" data-entity="Entity" data-source-line="7" data-uid="ent0004" id="entity_Entity"><rect fill="#F1F1F1" height="29.0679" rx="2.5" ry="2.5" style="stroke:#181818;stroke-width:0.5;" width="43.2959" x="612.27" y="173.072"/><text fill="#000000" font-family="sans-serif" font-size="14" lengthAdjust="spacing" textLength="37.2959" x="615.27" y="193.0379">Entity</text></g><!--class Risk--><g class="entity" data-entity="Risk" data-source-line="8" data-uid="ent0005" id="entity_Risk"><rect fill="#F1F1F1" height="29.0679" rx="2.5" ry="2.5" style="stroke:#181818;stroke-width:0.5;" width="32.5019" x="280.56" y="92.072"/><text fill="#000000" font-family="sans-serif" font-size="14" lengthAdjust="spacing" textLength="26.5019" x="283.56" y="112.0379">Risk</text></g><!--class RiskMitigationMeasure--><g class="entity" data-entity="RiskMitigationMeasure" data-source-line="9" data-uid="ent0006" id="entity_RiskMitigationMeasure"><rect fill="#F1F1F1" height="29.0679" rx="2.5" ry="2.5" style="stroke:#181818;stroke-width:0.5;" width="157.2134" x="555.31" y="109.072"/><text fill="#000000" font-family="sans-serif" font-size="14" lengthAdjust="spacing" textLength="151.2134" x="558.31" y="129.0379">RiskMitigationMeasure</text></g><!--class RiskLevel--><g class="entity" data-entity="RiskLevel" data-source-line="10" data-uid="ent0007" id="entity_RiskLevel"><rect fill="#F1F1F1" height="29.0679" rx="2.5" ry="2.5" style="stroke:#181818;stroke-width:0.5;" width="66.3537" x="600.74" y="45.072"/><text fill="#000000" font-family="sans-serif" font-size="14" lengthAdjust="spacing" textLength="60.3537" x="603.74" y="65.0379">RiskLevel</text></g><!--class Consequence--><g class="entity" data-entity="Consequence" data-source-line="11" data-uid="ent0008" id="entity_Consequence"><rect fill="#F1F1F1" height="29.0679" rx="2.5" ry="2.5" style="stroke:#181818;stroke-width:0.5;" width="94.9976" x="249.31" y="284.072"/><text fill="#000000" font-family="sans-serif" font-size="14" lengthAdjust="spacing" textLength="88.9976" x="252.31" y="304.0379">Consequence</text></g><!--class Impact--><g class="entity" data-entity="Impact" data-source-line="12" data-uid="ent0009" id="entity_Impact"><rect fill="#F1F1F1" height="29.0679" rx="2.5" ry="2.5" style="stroke:#181818;stroke-width:0.5;" width="52.0738" x="270.77" y="156.072"/><text fill="#000000" font-family="sans-serif" font-size="14" lengthAdjust="spacing" textLength="46.0738" x="273.77" y="176.0379">Impact</text></g><!--class Severity--><g class="entity" data-entity="Severity" data-source-line="13" data-uid="ent0010" id="entity_Severity"><rect fill="#F1F1F1" height="29.0679" rx="2.5" ry="2.5" style="stroke:#181818;stroke-width:0.5;" width="58.1778" x="267.72" y="220.072"/><text fill="#000000" font-family="sans-serif" font-size="14" lengthAdjust="spacing" textLength="52.1778" x="270.72" y="240.0379">Severity</text></g><!--class Likelihood--><g class="entity" data-entity="Likelihood" data-source-line="14" data-uid="ent0011" id="entity_Likelihood"><rect fill="#F1F1F1" height="29.0679" rx="2.5" ry="2.5" style="stroke:#181818;stroke-width:0.5;" width="73.7457" x="259.94" y="348.072"/><text fill="#000000" font-family="sans-serif" font-size="14" lengthAdjust="spacing" textLength="67.7457" x="262.94" y="368.0379">Likelihood</text></g><!--class Thing--><g class="entity" data-entity="Thing" data-source-line="5" data-uid="ent0002" id="entity_Thing"><rect fill="#C0C0C0" height="29.0679" rx="2.5" ry="2.5" style="stroke:#181818;stroke-width:0.5;" width="43.3098" x="7" y="244.072"/><text fill="#000000" font-family="sans-serif" font-size="14" lengthAdjust="spacing" textLength="37.3098" x="10" y="264.0379">Thing</text></g><!--link Thing to Risk--><g class="link" data-entity-1="Thing" data-entity-2="Risk" data-source-line="17" data-uid="lnk12" id="link_Thing_Risk"><path codeLine="17" d="M32.18,243.602 C37.02,219.762 49.96,173.462 80.31,149.602 C141.49,101.492 242.01,102.752 280.32,105.252" fill="none" id="Thing-Risk" style="stroke:#181818;stroke-width:1;"/><polygon fill="#000000" points="127.6771,93.8801,118.3458,95.7179,121.2081,100.8517,127.6771,93.8801" style="stroke:#000000;stroke-width:1;"/><text fill="#000000" font-family="sans-serif" font-size="13" lengthAdjust="spacing" textLength="46.163" x="132.31" y="101.359">hasRisk</text></g><!--link Thing to Consequence--><g class="link" data-entity-1="Thing" data-entity-2="Consequence" data-source-line="18" data-uid="lnk13" id="link_Thing_Consequence"><path codeLine="18" d="M50.8,269.622 C59.68,273.762 70.27,278.072 80.31,280.602 C137.11,294.892 204.71,298.452 248.85,299.052" fill="none" id="Thing-Consequence" style="stroke:#181818;stroke-width:1;"/><polygon fill="#000000" points="99.2557,272.1899,90.7408,267.9534,89.8769,273.7674,99.2557,272.1899" style="stroke:#000000;stroke-width:1;"/><text fill="#000000" font-family="sans-serif" font-size="13" lengthAdjust="spacing" textLength="104.1951" x="103.31" y="276.499">hasConsequence</text></g><!--link Consequence to Thing--><g class="link" data-entity-1="Consequence" data-entity-2="Thing" data-source-line="19" data-uid="lnk14" id="link_Consequence_Thing"><path codeLine="19" d="M262.5,313.522 C218.44,330.912 139.46,353.762 80.31,324.602 C58.8,314.002 43.89,289.392 36.06,273.402" fill="none" id="Consequence-Thing" style="stroke:#181818;stroke-width:1;"/><polygon fill="#000000" points="80.3867,314.5827,88.7803,319.0546,89.8058,313.2668,80.3867,314.5827" style="stroke:#000000;stroke-width:1;"/><text fill="#000000" font-family="sans-serif" font-size="13" lengthAdjust="spacing" textLength="122.3821" x="94.31" y="320.499">hasConsequenceOn</text></g><!--link Thing to Impact--><g class="link" data-entity-1="Thing" data-entity-2="Impact" data-source-line="20" data-uid="lnk15" id="link_Thing_Impact"><path codeLine="20" d="M42.83,243.712 C52.3,233.942 65.89,221.712 80.31,214.602 C144,183.182 228.9,174.192 270.57,171.622" fill="none" id="Thing-Impact" style="stroke:#181818;stroke-width:1;"/><polygon fill="#000000" points="119.0769,166.4261,109.5666,166.3538,111.3404,171.9576,119.0769,166.4261" style="stroke:#000000;stroke-width:1;"/><text fill="#000000" font-family="sans-serif" font-size="13" lengthAdjust="spacing" textLength="64.3371" x="123.31" y="172.979">hasImpact</text></g><!--link Impact to Entity--><g class="link" data-entity-1="Impact" data-entity-2="Entity" data-source-line="21" data-uid="lnk16" id="link_Impact_Entity"><path codeLine="21" d="M323.16,176.352 C337.98,179.442 357.11,182.942 374.31,184.602 C462.35,193.112 568.03,190.302 612.07,188.552" fill="none" id="Impact-Entity" style="stroke:#181818;stroke-width:1;"/><polygon fill="#000000" points="411.3055,175.6659,402.3925,172.348,402.1445,178.2206,411.3055,175.6659" style="stroke:#000000;stroke-width:1;"/><text fill="#000000" font-family="sans-serif" font-size="13" lengthAdjust="spacing" textLength="82.5241" x="415.31" y="180.499">hasImpactOn</text></g><!--link Thing to Severity--><g class="link" data-entity-1="Thing" data-entity-2="Severity" data-source-line="22" data-uid="lnk17" id="link_Thing_Severity"><path codeLine="22" d="M50.54,256.722 C97.96,252.442 213.82,241.992 267.57,237.152" fill="none" id="Thing-Severity" style="stroke:#181818;stroke-width:1;"/><polygon fill="#000000" points="116.2898,232.096,107.0173,229.9812,107.5452,235.8353,116.2898,232.096" style="stroke:#000000;stroke-width:1;"/><text fill="#000000" font-family="sans-serif" font-size="13" lengthAdjust="spacing" textLength="70.0051" x="120.31" y="237.589">hasSeverity</text></g><!--link Thing to Likelihood--><g class="link" data-entity-1="Thing" data-entity-2="Likelihood" data-source-line="23" data-uid="lnk18" id="link_Thing_Likelihood"><path codeLine="23" d="M31.63,273.252 C35.78,297.432 47.84,345.042 80.31,365.602 C135,400.222 214.19,386.682 259.79,374.262" fill="none" id="Thing-Likelihood" style="stroke:#181818;stroke-width:1;"/><polygon fill="#000000" points="108.882,358.4791,101.8009,352.1301,99.4215,357.5048,108.882,358.4791" style="stroke:#000000;stroke-width:1;"/><text fill="#000000" font-family="sans-serif" font-size="13" lengthAdjust="spacing" textLength="84.4611" x="113.31" y="361.499">hasLikelihood</text></g><!--link Risk to Risk--><g class="link" data-entity-1="Risk" data-entity-2="Risk" data-source-line="24" data-uid="lnk19" id="link_Risk_Risk"><path codeLine="24" d="M280.17,96.142 C261.06,79.082 266.6,57.072 296.81,57.072 C327.02,57.072 332.56,79.082 313.45,96.142" fill="none" id="Risk-Risk" style="stroke:#181818;stroke-width:1;"/><polygon fill="#000000" points="237.4802,39.1951,241.3115,47.8998,245.6963,43.9854,237.4802,39.1951" style="stroke:#000000;stroke-width:1;"/><text fill="#000000" font-family="sans-serif" font-size="13" lengthAdjust="spacing" textLength="97.8381" x="254.81" y="47.969">hasResidualRisk</text></g><!--link Risk to RiskMitigationMeasure--><g class="link" data-entity-1="Risk" data-entity-2="RiskMitigationMeasure" data-source-line="25" data-uid="lnk20" id="link_Risk_RiskMitigationMeasure"><path codeLine="25" d="M313.42,111.672 C328.74,116.352 352.85,122.972 374.31,125.602 C434.58,132.972 503.35,132.002 554.82,129.442" fill="none" id="Risk-RiskMitigationMeasure" style="stroke:#181818;stroke-width:1;"/><polygon fill="#000000" points="384.2965,116.8221,375.4916,113.227,375.0601,119.089,384.2965,116.8221" style="stroke:#000000;stroke-width:1;"/><text fill="#000000" font-family="sans-serif" font-size="13" lengthAdjust="spacing" textLength="136.5391" x="388.31" y="121.499">isMitigatedByMeasure</text></g><!--link Risk to RiskLevel--><g class="link" data-entity-1="Risk" data-entity-2="RiskLevel" data-source-line="26" data-uid="lnk21" id="link_Risk_RiskLevel"><path codeLine="26" d="M313.52,104.402 C365.09,97.162 529.87,74.052 600.39,64.162" fill="none" id="Risk-RiskLevel" style="stroke:#181818;stroke-width:1;"/><polygon fill="#000000" points="413.7615,64.9604,404.3959,63.3065,405.2124,69.1273,413.7615,64.9604" style="stroke:#000000;stroke-width:1;"/><text fill="#000000" font-family="sans-serif" font-size="13" lengthAdjust="spacing" textLength="77.5971" x="417.81" y="70.699">hasRiskLevel</text></g><!--SRC=[PP5DJiGm38NNv1H1B5YL0x1W0MA1DAEHPhX0I4nhDKrAurQg47Sdav-f1tP-Vf_jsBb5f-riG0PQBJoCLZcQ1oiiV98aBoTiEv869z24tebxykCv_-69_C0CeQqAGRvtw5fv5z0kC8bHwLwr8Csuo6znav5NHqXhLKSCFO_tIDYgSyizg31FmCqTB61huiMx05ypE7rXteOuaQewHNfYetROWyNEUoD-XCWlRPhKM3xAJeKKFMqEcv1yfYF6LOHJrL_iu7Y__Bp4v32Q9MXCKmx3xElgkau2gk30jbz2DXcXj5fPDkyA0SsiRDcP-_- -85u7Gyc2ULvh-heiVSxbZab5uXS0]--></g></svg>