<svg xmlns="http://www.w3.org/2000/svg" xmlns:xlink="http://www.w3.org/1999/xlink" contentStyleType="text/css" data-diagram-type="CLASS" height="371px" preserveAspectRatio="none" style="width:833px;height:371px;background:#FFFFFF;" version="1.1" viewBox="0 0 833 371" width="833px" zoomAndPan="magnify"><defs/><g><!--cluster dpv--><g class="cluster" data-entity="dpv" data-source-line="8" data-uid="ent0003" id="cluster_dpv"><path d="M314.94,6.602 L341.6299,6.602 A3.75,3.75 0 0 1 344.1299,9.102 L351.1299,31.6699 L824.05,31.6699 A2.5,2.5 0 0 1 826.55,34.1699 L826.55,280.102 A2.5,2.5 0 0 1 824.05,282.602 L314.94,282.602 A2.5,2.5 0 0 1 312.44,280.102 L312.44,9.102 A2.5,2.5 0 0 1 314.94,6.602" fill="none" style="stroke:#000000;stroke-width:1.5;"/><line style="stroke:#000000;stroke-width:1.5;" x1="312.44" x2="351.1299" y1="31.6699" y2="31.6699"/><text fill="#000000" font-family="sans-serif" font-size="14" font-weight="bold" lengthAdjust="spacing" textLength="25.6899" x="316.44" y="23.5679">dpv</text></g><!--class TechnicalOrganisationalMeasure--><g class="entity" data-entity="TechnicalOrganisationalMeasure" data-source-line="9" data-uid="ent0004" id="entity_TechnicalOrganisationalMeasure"><rect fill="#F1F1F1" height="29.0679" rx="2.5" ry="2.5" style="stroke:#181818;stroke-width:0.5;" width="222.2432" x="588.31" y="173.072"/><text fill="#000000" font-family="sans-serif" font-size="14" lengthAdjust="spacing" textLength="216.2432" x="591.31" y="193.0379">TechnicalOrganisationalMeasure</text></g><!--class TechnicalMeasure--><g class="entity" data-entity="TechnicalMeasure" data-source-line="10" data-uid="ent0005" id="entity_TechnicalMeasure"><rect fill="#F1F1F1" height="29.0679" rx="2.5" ry="2.5" style="stroke:#181818;stroke-width:0.5;" width="124.9855" x="346.32" y="237.072"/><text fill="#000000" font-family="sans-serif" font-size="14" lengthAdjust="spacing" textLength="118.9855" x="349.32" y="257.0379">TechnicalMeasure</text></g><!--class OrganisationalMeasure--><g class="entity" data-entity="OrganisationalMeasure" data-source-line="11" data-uid="ent0006" id="entity_OrganisationalMeasure"><rect fill="#F1F1F1" height="29.0679" rx="2.5" ry="2.5" style="stroke:#181818;stroke-width:0.5;" width="160.7414" x="328.44" y="173.072"/><text fill="#000000" font-family="sans-serif" font-size="14" lengthAdjust="spacing" textLength="154.7414" x="331.44" y="193.0379">OrganisationalMeasure</text></g><!--class LegalMeasure--><g class="entity" data-entity="LegalMeasure" data-source-line="12" data-uid="ent0007" id="entity_LegalMeasure"><rect fill="#F1F1F1" height="29.0679" rx="2.5" ry="2.5" style="stroke:#181818;stroke-width:0.5;" width="98.7916" x="359.41" y="109.072"/><text fill="#000000" font-family="sans-serif" font-size="14" lengthAdjust="spacing" textLength="92.7916" x="362.41" y="129.0379">LegalMeasure</text></g><!--class PhysicalMeasure--><g class="entity" data-entity="PhysicalMeasure" data-source-line="13" data-uid="ent0008" id="entity_PhysicalMeasure"><rect fill="#F1F1F1" height="29.0679" rx="2.5" ry="2.5" style="stroke:#181818;stroke-width:0.5;" width="116.2496" x="350.69" y="45.072"/><text fill="#000000" font-family="sans-serif" font-size="14" lengthAdjust="spacing" textLength="110.2496" x="353.69" y="65.0379">PhysicalMeasure</text></g><!--class Thing--><g class="entity" data-entity="Thing" data-source-line="7" data-uid="ent0002" id="entity_Thing"><rect fill="#C0C0C0" height="29.0679" rx="2.5" ry="2.5" style="stroke:#181818;stroke-width:0.5;" width="43.3098" x="7" y="173.072"/><text fill="#000000" font-family="sans-serif" font-size="14" lengthAdjust="spacing" textLength="37.3098" x="10" y="193.0379">Thing</text></g><!--link TechnicalMeasure to TechnicalOrganisationalMeasure--><g class="link" data-entity-1="TechnicalMeasure" data-entity-2="TechnicalOrganisationalMeasure" data-source-line="16" data-uid="lnk10" id="link_TechnicalMeasure_TechnicalOrganisationalMeasure"><path codeLine="16" d="M471.73,237.872 C518.52,227.492 565.1167,217.1578 613.2467,206.4878" fill="none" id="TechnicalMeasure-to-TechnicalOrganisationalMeasure" style="stroke:#181818;stroke-width:1;"/><polygon fill="none" points="630.82,202.592,611.948,200.6301,614.5453,212.3456,630.82,202.592" style="stroke:#181818;stroke-width:1;"/></g><!--link OrganisationalMeasure to TechnicalOrganisationalMeasure--><g class="link" data-entity-1="OrganisationalMeasure" data-entity-2="TechnicalOrganisationalMeasure" data-source-line="17" data-uid="lnk12" id="link_OrganisationalMeasure_TechnicalOrganisationalMeasure"><path codeLine="17" d="M489.44,187.602 C519.89,187.602 537.19,187.602 570.01,187.602" fill="none" id="OrganisationalMeasure-to-TechnicalOrganisationalMeasure" style="stroke:#181818;stroke-width:1;"/><polygon fill="none" points="588.01,187.602,570.01,181.602,570.01,193.602,588.01,187.602" style="stroke:#181818;stroke-width:1;"/></g><!--link LegalMeasure to TechnicalOrganisationalMeasure--><g class="link" data-entity-1="LegalMeasure" data-entity-2="TechnicalOrganisationalMeasure" data-source-line="18" data-uid="lnk14" id="link_LegalMeasure_TechnicalOrganisationalMeasure"><path codeLine="18" d="M458.44,134.382 C505.68,144.862 560.2269,156.955 613.0769,168.675" fill="none" id="LegalMeasure-to-TechnicalOrganisationalMeasure" style="stroke:#181818;stroke-width:1;"/><polygon fill="none" points="630.65,172.572,614.3759,162.8173,611.7779,174.5327,630.65,172.572" style="stroke:#181818;stroke-width:1;"/></g><!--link PhysicalMeasure to TechnicalOrganisationalMeasure--><g class="link" data-entity-1="PhysicalMeasure" data-entity-2="TechnicalOrganisationalMeasure" data-source-line="19" data-uid="lnk16" id="link_PhysicalMeasure_TechnicalOrganisationalMeasure"><path codeLine="19" d="M467.22,72.232 C486.64,77.292 508.23,83.792 527.31,91.602 C583.42,114.572 629.1331,142.2097 660.9831,162.8897" fill="none" id="PhysicalMeasure-to-TechnicalOrganisationalMeasure" style="stroke:#181818;stroke-width:1;"/><polygon fill="none" points="676.08,172.692,664.2506,157.8574,657.7157,167.922,676.08,172.692" style="stroke:#181818;stroke-width:1;"/></g><!--link Thing to TechnicalOrganisationalMeasure--><g class="link" data-entity-1="Thing" data-entity-2="TechnicalOrganisationalMeasure" data-source-line="21" data-uid="lnk17" id="link_Thing_TechnicalOrganisationalMeasure"><path codeLine="21" d="M36.73,202.542 C44.96,218.252 60.05,242.462 80.31,255.602 C247.91,364.302 336.23,360.842 527.31,302.602 C592.71,282.672 655.77,228.462 683.59,202.222" fill="none" id="Thing-TechnicalOrganisationalMeasure" style="stroke:#181818;stroke-width:1;"/><polygon fill="#000000" points="300.31,293.4525,291.2635,290.5181,291.2664,296.3959,300.31,293.4525" style="stroke:#000000;stroke-width:1;"/><text fill="#000000" font-family="sans-serif" font-size="13" lengthAdjust="spacing" textLength="222.3522" x="304.31" y="298.499">hasTechnicalOrganisationalMeasure</text></g><!--link Thing to OrganisationalMeasure--><g class="link" data-entity-1="Thing" data-entity-2="OrganisationalMeasure" data-source-line="22" data-uid="lnk18" id="link_Thing_OrganisationalMeasure"><path codeLine="22" d="M50.36,188.102 C59.53,188.302 70.46,188.502 80.31,188.602 C164.88,189.432 261.74,188.962 328.06,188.422" fill="none" id="Thing-OrganisationalMeasure" style="stroke:#181818;stroke-width:1;"/><polygon fill="#000000" points="90.31,179.4608,81.2683,176.5114,81.2615,182.3893,90.31,179.4608" style="stroke:#000000;stroke-width:1;"/><text fill="#000000" font-family="sans-serif" font-size="13" lengthAdjust="spacing" textLength="165.2431" x="94.31" y="184.499">hasOrganisationalMeasure</text></g><!--link Thing to TechnicalMeasure--><g class="link" data-entity-1="Thing" data-entity-2="TechnicalMeasure" data-source-line="23" data-uid="lnk19" id="link_Thing_TechnicalMeasure"><path codeLine="23" d="M50.5,201.562 C59.33,206.822 69.97,212.322 80.31,215.602 C169.73,243.972 278.98,250.762 345.96,251.982" fill="none" id="Thing-TechnicalMeasure" style="stroke:#181818;stroke-width:1;"/><polygon fill="#000000" points="106.7387,207.2961,98.3169,202.8775,97.3282,208.6716,106.7387,207.2961" style="stroke:#000000;stroke-width:1;"/><text fill="#000000" font-family="sans-serif" font-size="13" lengthAdjust="spacing" textLength="132.0411" x="110.81" y="211.499">hasTechnicalMeasure</text></g><!--link Thing to LegalMeasure--><g class="link" data-entity-1="Thing" data-entity-2="LegalMeasure" data-source-line="24" data-uid="lnk20" id="link_Thing_LegalMeasure"><path codeLine="24" d="M50.37,177.032 C59.36,172.852 70.14,168.402 80.31,165.602 C176.89,139.012 294.22,129.152 358.97,125.572" fill="none" id="Thing-LegalMeasure" style="stroke:#181818;stroke-width:1;"/><polygon fill="#000000" points="119.2419,124.0226,109.8366,122.6114,110.8034,128.4092,119.2419,124.0226" style="stroke:#000000;stroke-width:1;"/><text fill="#000000" font-family="sans-serif" font-size="13" lengthAdjust="spacing" textLength="107.7181" x="123.31" y="129.889">hasLegalMeasure</text></g><!--link Thing to PhysicalMeasure--><g class="link" data-entity-1="Thing" data-entity-2="PhysicalMeasure" data-source-line="25" data-uid="lnk21" id="link_Thing_PhysicalMeasure"><path codeLine="25" d="M34.47,172.842 C41.42,154.112 56.13,122.352 80.31,106.602 C162.5,53.082 280.75,50.042 350.39,53.962" fill="none" id="Thing-PhysicalMeasure" style="stroke:#181818;stroke-width:1;"/><polygon fill="#000000" points="110.9896,43.774,101.489,44.209,103.5591,49.7102,110.9896,43.774" style="stroke:#000000;stroke-width:1;"/><text fill="#000000" font-family="sans-serif" font-size="13" lengthAdjust="spacing" textLength="123.9291" x="115.31" y="50.579">hasPhysicalMeasure</text></g><!--SRC=[ZP11JiGm34NN-1H6B5YL0o0q9m31WWkOr3JMk4cKk2DLmDtHg4Xqqb7RxSz_Fz__LeBJeMKiDYe_9ALWGw-W_6be4RDqth2LpCua1hYtcCxwHpIB_VoX72KaojIZIc0R4sFCvYE0Koe5txs43k-Aw8ap9797wXZRTC8lkFcpiFD17EbhxYX8eNCowGjJ6J8lN9M-2Zrpjz3U_5ZcEJy0wmtmwRiPccM1NTJrUhlGY_AxYFeqcDPlcesDyH4zbGtFuJzj9MIJhMUi_hv2p7UOt1VAp5dTFvbhyG3m2m00]--></g></svg>