<svg xmlns="http://www.w3.org/2000/svg" xmlns:xlink="http://www.w3.org/1999/xlink" contentStyleType="text/css" height="684px" preserveAspectRatio="none" style="width:822px;height:684px;background:#FFFFFF;" version="1.1" viewBox="0 0 822 684" width="822px" zoomAndPan="magnify"><defs/><g><!--cluster dpv--><g id="cluster_dpv"><path d="M8.5,335 L35.5,335 A3.75,3.75 0 0 1 38,337.5 L45,357.4883 L121.5,357.4883 A2.5,2.5 0 0 1 124,359.9883 L124,409.5 A2.5,2.5 0 0 1 121.5,412 L8.5,412 A2.5,2.5 0 0 1 6,409.5 L6,337.5 A2.5,2.5 0 0 1 8.5,335 " fill="none" style="stroke:#000000;stroke-width:1.5;"/><line style="stroke:#000000;stroke-width:1.5;" x1="6" x2="45" y1="357.4883" y2="357.4883"/><text fill="#000000" font-family="sans-serif" font-size="14" font-weight="bold" lengthAdjust="spacing" textLength="26" x="10" y="350.5352">dpv</text></g><!--cluster tech--><g id="cluster_tech"><path d="M657.5,412 L688.5,412 A3.75,3.75 0 0 1 691,414.5 L698,434.4883 L812.5,434.4883 A2.5,2.5 0 0 1 815,436.9883 L815,669.5 A2.5,2.5 0 0 1 812.5,672 L657.5,672 A2.5,2.5 0 0 1 655,669.5 L655,414.5 A2.5,2.5 0 0 1 657.5,412 " fill="none" style="stroke:#000000;stroke-width:1.5;"/><line style="stroke:#000000;stroke-width:1.5;" x1="655" x2="698" y1="434.4883" y2="434.4883"/><text fill="#000000" font-family="sans-serif" font-size="14" font-weight="bold" lengthAdjust="spacing" textLength="30" x="659" y="427.5352">tech</text></g><!--cluster ai--><g id="cluster_ai"><path d="M402.5,6 L416.5,6 A3.75,3.75 0 0 1 419,8.5 L426,28.4883 L787.5,28.4883 A2.5,2.5 0 0 1 790,30.9883 L790,385.5 A2.5,2.5 0 0 1 787.5,388 L402.5,388 A2.5,2.5 0 0 1 400,385.5 L400,8.5 A2.5,2.5 0 0 1 402.5,6 " fill="none" style="stroke:#000000;stroke-width:1.5;"/><line style="stroke:#000000;stroke-width:1.5;" x1="400" x2="426" y1="28.4883" y2="28.4883"/><text fill="#000000" font-family="sans-serif" font-size="14" font-weight="bold" lengthAdjust="spacing" textLength="13" x="404" y="21.5352">ai</text></g><!--class Technology--><g id="elem_Technology"><rect codeLine="7" fill="#F1F1F1" height="26.4883" id="Technology" rx="2.5" ry="2.5" style="stroke:#181818;stroke-width:0.5;" width="86" x="22" y="369.76"/><text fill="#000000" font-family="sans-serif" font-size="14" lengthAdjust="spacing" textLength="80" x="25" y="388.2952">Technology</text></g><!--class ProvisionMethod--><g id="elem_ProvisionMethod"><rect codeLine="11" fill="#F1F1F1" height="26.4883" id="ProvisionMethod" rx="2.5" ry="2.5" style="stroke:#181818;stroke-width:0.5;" width="121" x="674.5" y="446.76"/><text fill="#000000" font-family="sans-serif" font-size="14" lengthAdjust="spacing" textLength="115" x="677.5" y="465.2952">ProvisionMethod</text></g><!--class Documentation--><g id="elem_Documentation"><rect codeLine="12" fill="#F1F1F1" height="26.4883" id="Documentation" rx="2.5" ry="2.5" style="stroke:#181818;stroke-width:0.5;" width="111" x="679.5" y="507.76"/><text fill="#000000" font-family="sans-serif" font-size="14" lengthAdjust="spacing" textLength="105" x="682.5" y="526.2952">Documentation</text></g><!--class IntendedUse--><g id="elem_IntendedUse"><rect codeLine="13" fill="#F1F1F1" height="26.4883" id="IntendedUse" rx="2.5" ry="2.5" style="stroke:#181818;stroke-width:0.5;" width="92" x="689" y="568.76"/><text fill="#000000" font-family="sans-serif" font-size="14" lengthAdjust="spacing" textLength="86" x="692" y="587.2952">IntendedUse</text></g><!--class TechnologyStatus--><g id="elem_TechnologyStatus"><rect codeLine="14" fill="#F1F1F1" height="26.4883" id="TechnologyStatus" rx="2.5" ry="2.5" style="stroke:#181818;stroke-width:0.5;" width="128" x="671" y="629.76"/><text fill="#000000" font-family="sans-serif" font-size="14" lengthAdjust="spacing" textLength="122" x="674" y="648.2952">TechnologyStatus</text></g><!--class AI--><g id="elem_AI"><rect codeLine="18" fill="#F1F1F1" height="26.4883" id="AI" rx="2.5" ry="2.5" style="stroke:#181818;stroke-width:0.5;" width="20" x="416" y="325.76"/><text fill="#000000" font-family="sans-serif" font-size="14" lengthAdjust="spacing" textLength="14" x="419" y="344.2952">AI</text></g><!--class AISystem--><g id="elem_AISystem"><rect codeLine="19" fill="#F1F1F1" height="26.4883" id="AISystem" rx="2.5" ry="2.5" style="stroke:#181818;stroke-width:0.5;" width="68" x="701" y="345.76"/><text fill="#000000" font-family="sans-serif" font-size="14" lengthAdjust="spacing" textLength="62" x="704" y="364.2952">AISystem</text></g><!--class Capability--><g id="elem_Capability"><rect codeLine="20" fill="#F1F1F1" height="26.4883" id="Capability" rx="2.5" ry="2.5" style="stroke:#181818;stroke-width:0.5;" width="74" x="698" y="284.76"/><text fill="#000000" font-family="sans-serif" font-size="14" lengthAdjust="spacing" textLength="68" x="701" y="303.2952">Capability</text></g><!--class Measure--><g id="elem_Measure"><rect codeLine="21" fill="#F1F1F1" height="26.4883" id="Measure" rx="2.5" ry="2.5" style="stroke:#181818;stroke-width:0.5;" width="64" x="703" y="223.76"/><text fill="#000000" font-family="sans-serif" font-size="14" lengthAdjust="spacing" textLength="58" x="706" y="242.2952">Measure</text></g><!--class Model--><g id="elem_Model"><rect codeLine="22" fill="#F1F1F1" height="26.4883" id="Model" rx="2.5" ry="2.5" style="stroke:#181818;stroke-width:0.5;" width="48" x="711" y="162.76"/><text fill="#000000" font-family="sans-serif" font-size="14" lengthAdjust="spacing" textLength="42" x="714" y="181.2952">Model</text></g><!--class Risk--><g id="elem_Risk"><rect codeLine="23" fill="#F1F1F1" height="26.4883" id="Risk" rx="2.5" ry="2.5" style="stroke:#181818;stroke-width:0.5;" width="34" x="718" y="101.76"/><text fill="#000000" font-family="sans-serif" font-size="14" lengthAdjust="spacing" textLength="28" x="721" y="120.2952">Risk</text></g><!--class Technique--><g id="elem_Technique"><rect codeLine="24" fill="#F1F1F1" height="26.4883" id="Technique" rx="2.5" ry="2.5" style="stroke:#181818;stroke-width:0.5;" width="78" x="696" y="40.76"/><text fill="#000000" font-family="sans-serif" font-size="14" lengthAdjust="spacing" textLength="72" x="699" y="59.2952">Technique</text></g><!--class Thing--><g id="elem_Thing"><rect codeLine="4" fill="#C0C0C0" height="26.4883" id="Thing" rx="2.5" ry="2.5" style="stroke:#181818;stroke-width:0.5;" width="46" x="42" y="292.76"/><text fill="#000000" font-family="sans-serif" font-size="14" lengthAdjust="spacing" textLength="40" x="45" y="311.2952">Thing</text></g><!--link Thing to AI--><g id="link_Thing_AI"><path codeLine="27" d="M88.46,308.06 C158.15,314.47 368.86,333.84 415.71,338.15 " fill="none" id="Thing-AI" style="stroke:#181818;stroke-width:1.0;"/><polygon fill="#000000" points="149.979,306.1131,141.241,302.3583,140.7028,308.2115,149.979,306.1131" style="stroke:#000000;stroke-width:1.0;"/><text fill="#000000" font-family="sans-serif" font-size="13" lengthAdjust="spacing" textLength="229" x="154" y="310.5684">dpv:isImplementedUsingTechnology</text></g><!--reverse link Technology to AI--><g id="link_Technology_AI"><path codeLine="28" d="M126.1063,375.6302 C209.3263,365.4302 372.32,345.46 415.57,340.16 " fill="none" id="Technology-backto-AI" style="stroke:#181818;stroke-width:1.0;"/><polygon fill="none" points="108.24,377.82,126.8362,381.5856,125.3764,369.6748,108.24,377.82" style="stroke:#181818;stroke-width:1.0;"/></g><!--link AI to ProvisionMethod--><g id="link_AI_ProvisionMethod"><path codeLine="29" d="M435.29,352.61 C442.26,362.95 453.13,376.75 466,385 C530.16,426.14 617.01,445.06 674.23,453.52 " fill="none" id="AI-ProvisionMethod" style="stroke:#181818;stroke-width:1.0;"/><polygon fill="#000000" points="475.6061,378.6005,468.417,372.3741,466.1302,377.7889,475.6061,378.6005" style="stroke:#000000;stroke-width:1.0;"/><text fill="#000000" font-family="sans-serif" font-size="13" lengthAdjust="spacing" textLength="158" x="480" y="381.5684">tech:hasProvisionMethod</text></g><!--link AI to Documentation--><g id="link_AI_Documentation"><path codeLine="30" d="M426.65,352.71 C426.76,379.87 431.14,440.6 466,472 C524.16,524.39 619.13,529.52 679.01,526.6 " fill="none" id="AI-Documentation" style="stroke:#181818;stroke-width:1.0;"/><polygon fill="#000000" points="479.1172,466.4923,473.3366,458.9401,470.0016,463.7801,479.1172,466.4923" style="stroke:#000000;stroke-width:1.0;"/><text fill="#000000" font-family="sans-serif" font-size="13" lengthAdjust="spacing" textLength="150" x="484" y="468.5684">tech:hasDocumentation</text></g><!--link AI to IntendedUse--><g id="link_AI_IntendedUse"><path codeLine="31" d="M427.45,352.7 C429.17,395.37 436.72,524.69 466,552 C526,607.96 629.45,601.36 688.74,591.63 " fill="none" id="AI-IntendedUse" style="stroke:#181818;stroke-width:1.0;"/><polygon fill="#000000" points="488.1899,547.0294,483.4981,538.7567,479.5316,543.0944,488.1899,547.0294" style="stroke:#000000;stroke-width:1.0;"/><text fill="#000000" font-family="sans-serif" font-size="13" lengthAdjust="spacing" textLength="131" x="493.5" y="548.5684">tech:hasIntendedUse</text></g><!--link AI to TechnologyStatus--><g id="link_AI_TechnologyStatus"><path codeLine="32" d="M426.71,352.44 C425.92,403.79 426,586.53 466,624 C523.36,677.73 621.32,668.96 681.58,656.69 " fill="none" id="AI-TechnologyStatus" style="stroke:#181818;stroke-width:1.0;"/><polygon fill="#000000" points="509.2108,619.4881,505.6553,610.6672,501.1495,614.4417,509.2108,619.4881" style="stroke:#000000;stroke-width:1.0;"/><text fill="#000000" font-family="sans-serif" font-size="13" lengthAdjust="spacing" textLength="88" x="515" y="620.5684">dpv:hasStatus</text></g><!--link AI to Capability--><g id="link_AI_Capability"><path codeLine="33" d="M436.19,337.77 C475.05,332.58 627.14,312.27 697.69,302.85 " fill="none" id="AI-Capability" style="stroke:#181818;stroke-width:1.0;"/><polygon fill="#000000" points="504.956,302.9935,495.6015,301.2776,496.3795,307.1038,504.956,302.9935" style="stroke:#000000;stroke-width:1.0;"/><text fill="#000000" font-family="sans-serif" font-size="13" lengthAdjust="spacing" textLength="100" x="509" y="308.5684">ai:hasCapability</text></g><!--link AI to Measure--><g id="link_AI_Measure"><path codeLine="34" d="M433.36,325.65 C439.84,313.57 451.05,296.29 466,287 C541.38,240.17 650.11,235.12 702.9,235.77 " fill="none" id="AI-Measure" style="stroke:#181818;stroke-width:1.0;"/><polygon fill="#000000" points="510.2432,229.0736,500.733,229.1469,502.5923,234.7229,510.2432,229.0736" style="stroke:#000000;stroke-width:1.0;"/><text fill="#000000" font-family="sans-serif" font-size="13" lengthAdjust="spacing" textLength="89" x="514.5" y="235.5684">ai:hasMeasure</text></g><!--reverse link AI to Model--><g id="link_AI_Model"><path codeLine="35" d="M427.1797,307.5832 C427.6697,281.6232 432.4,242.57 466,214 C502.7,182.8 652.48,177.2 710.7,176.21 " fill="none" id="AI-backto-Model" style="stroke:#181818;stroke-width:1.0;"/><polygon fill="none" points="426.84,325.58,433.1786,307.6964,421.1808,307.47,426.84,325.58" style="stroke:#181818;stroke-width:1.0;"/></g><!--reverse link AI to AISystem--><g id="link_AI_AISystem"><path codeLine="36" d="M453.5874,346.333 C461.4374,348.453 455.67,346.61 466,348 C549.99,359.32 650.01,360.1 700.82,359.61 " fill="none" id="AI-backto-AISystem" style="stroke:#181818;stroke-width:1.0;"/><polygon fill="none" points="436.21,341.64,452.0231,352.1255,455.1518,340.5405,436.21,341.64" style="stroke:#181818;stroke-width:1.0;"/></g><!--link AI to Risk--><g id="link_AI_Risk"><path codeLine="37" d="M426.31,325.58 C425.58,296.32 428.15,226.35 466,188 C502.24,151.27 665.17,124.94 717.65,117.28 " fill="none" id="AI-Risk" style="stroke:#181818;stroke-width:1.0;"/><polygon fill="#000000" points="516.0673,119.7472,507.0001,122.6172,510.4188,127.3987,516.0673,119.7472" style="stroke:#000000;stroke-width:1.0;"/><text fill="#000000" font-family="sans-serif" font-size="13" lengthAdjust="spacing" textLength="76" x="521" y="127.5684">dpv:hasRisk</text></g><!--link AI to Technique--><g id="link_AI_Technique"><path codeLine="38" d="M427.31,325.41 C428.64,280.46 435.23,137.58 466,106 C526.53,43.88 637.47,44 695.82,49.12 " fill="none" id="AI-Technique" style="stroke:#181818;stroke-width:1.0;"/><polygon fill="#000000" points="502.4847,36.0696,494.0732,40.5079,498.2884,44.6044,502.4847,36.0696" style="stroke:#000000;stroke-width:1.0;"/><text fill="#000000" font-family="sans-serif" font-size="13" lengthAdjust="spacing" textLength="102" x="508" y="44.5684">ai:hasTechnique</text></g><!--SRC=[RL71JiKW4Bpp5HZFpmzuCKsCNdfeOjxJ3q1OsysZK0iqQTH_5zfIeB6dpkpipkvmXufB9u0QEqju62HJrlMIIFYqr6ewOjjPAd04Rb4hGhXanj2t3bLBxmtA2KP21iPlh0KgXeb-4-g_JGQyKrhgTYQ_IMKzMyXUHpsXyUCRi9qMMUL5SzU3icmnJtojB2W1ujt0ltPNt-5CRigmi7og2t2TZOK-evxPm3vGefqpiW5ct9WxDbg0pF05pUsu47uv29kicPrEtewUGrHdD7K_I0W7XbDyELr0AvA1nv-bZ_XM_tF8oqyBaPuxPewLQkieSipq9H_LMRgPDcUZyfZuTfXNRpWAKvvUmZ0eCYggje1tISHBVSbW3JoY_U7Mzf1-sc11nQBX9VRPYQd87m00]--></g></svg>