<svg xmlns="http://www.w3.org/2000/svg" xmlns:xlink="http://www.w3.org/1999/xlink" contentStyleType="text/css" height="1051px" preserveAspectRatio="none" style="width:1355px;height:1051px;background:#FFFFFF;" version="1.1" viewBox="0 0 1355 1051" width="1355px" zoomAndPan="magnify"><defs/><g><!--cluster dpv--><g id="cluster_dpv"><path d="M251.5,6 L278.5,6 A3.75,3.75 0 0 1 281,8.5 L288,28.4883 L1345.5,28.4883 A2.5,2.5 0 0 1 1348,30.9883 L1348,1041.5 A2.5,2.5 0 0 1 1345.5,1044 L251.5,1044 A2.5,2.5 0 0 1 249,1041.5 L249,8.5 A2.5,2.5 0 0 1 251.5,6 " fill="none" style="stroke:#000000;stroke-width:1.5;"/><line style="stroke:#000000;stroke-width:1.5;" x1="249" x2="288" y1="28.4883" y2="28.4883"/><text fill="#000000" font-family="sans-serif" font-size="14" font-weight="bold" lengthAdjust="spacing" textLength="26" x="253" y="21.5352">dpv</text></g><!--cluster Automation--><g id="cluster_Automation"><rect fill="none" height="443" rx="2.5" ry="2.5" style="stroke:#181818;stroke-width:1.0;stroke-dasharray:7.0,7.0;" width="542" x="276" y="49"/><text fill="#000000" font-family="sans-serif" font-size="14" font-weight="bold" lengthAdjust="spacing" textLength="85" x="504.5" y="64.5352">Automation</text></g><!--cluster Human--><g id="cluster_Human"><rect fill="none" height="504" rx="2.5" ry="2.5" style="stroke:#181818;stroke-width:1.0;stroke-dasharray:7.0,7.0;" width="1051" x="273" y="516"/><text fill="#000000" font-family="sans-serif" font-size="14" font-weight="bold" lengthAdjust="spacing" textLength="51" x="773" y="531.5352">Human</text></g><!--class AutomationLevel--><g id="elem_AutomationLevel"><rect codeLine="7" fill="#F1F1F1" height="26.4883" id="AutomationLevel" rx="2.5" ry="2.5" style="stroke:#181818;stroke-width:0.5;" width="121" x="292" y="297.76"/><text fill="#000000" font-family="sans-serif" font-size="14" lengthAdjust="spacing" textLength="115" x="295" y="316.2952">AutomationLevel</text></g><!--class AssistiveAutomation--><g id="elem_AssistiveAutomation"><rect codeLine="8" fill="#F1F1F1" height="26.4883" id="AssistiveAutomation" rx="2.5" ry="2.5" style="stroke:#181818;stroke-width:0.5;" width="146" x="645.5" y="449.76"/><text fill="#000000" font-family="sans-serif" font-size="14" lengthAdjust="spacing" textLength="140" x="648.5" y="468.2952">AssistiveAutomation</text></g><!--class Autonomous--><g id="elem_Autonomous"><rect codeLine="9" fill="#F1F1F1" height="26.4883" id="Autonomous" rx="2.5" ry="2.5" style="stroke:#181818;stroke-width:0.5;" width="95" x="671" y="388.76"/><text fill="#000000" font-family="sans-serif" font-size="14" lengthAdjust="spacing" textLength="89" x="674" y="407.2952">Autonomous</text></g><!--class ConditionalAutomation--><g id="elem_ConditionalAutomation"><rect codeLine="10" fill="#F1F1F1" height="26.4883" id="ConditionalAutomation" rx="2.5" ry="2.5" style="stroke:#181818;stroke-width:0.5;" width="167" x="635" y="327.76"/><text fill="#000000" font-family="sans-serif" font-size="14" lengthAdjust="spacing" textLength="161" x="638" y="346.2952">ConditionalAutomation</text></g><!--class FullAutomation--><g id="elem_FullAutomation"><rect codeLine="11" fill="#F1F1F1" height="26.4883" id="FullAutomation" rx="2.5" ry="2.5" style="stroke:#181818;stroke-width:0.5;" width="112" x="662.5" y="266.76"/><text fill="#000000" font-family="sans-serif" font-size="14" lengthAdjust="spacing" textLength="106" x="665.5" y="285.2952">FullAutomation</text></g><!--class HighAutomation--><g id="elem_HighAutomation"><rect codeLine="12" fill="#F1F1F1" height="26.4883" id="HighAutomation" rx="2.5" ry="2.5" style="stroke:#181818;stroke-width:0.5;" width="119" x="659" y="205.76"/><text fill="#000000" font-family="sans-serif" font-size="14" lengthAdjust="spacing" textLength="113" x="662" y="224.2952">HighAutomation</text></g><!--class NotAutomated--><g id="elem_NotAutomated"><rect codeLine="13" fill="#F1F1F1" height="26.4883" id="NotAutomated" rx="2.5" ry="2.5" style="stroke:#181818;stroke-width:0.5;" width="106" x="665.5" y="144.76"/><text fill="#000000" font-family="sans-serif" font-size="14" lengthAdjust="spacing" textLength="100" x="668.5" y="163.2952">NotAutomated</text></g><!--class PartialAutomation--><g id="elem_PartialAutomation"><rect codeLine="14" fill="#F1F1F1" height="26.4883" id="PartialAutomation" rx="2.5" ry="2.5" style="stroke:#181818;stroke-width:0.5;" width="130" x="653.5" y="83.76"/><text fill="#000000" font-family="sans-serif" font-size="14" lengthAdjust="spacing" textLength="124" x="656.5" y="102.2952">PartialAutomation</text></g><!--class EntityInvolvement--><g id="elem_EntityInvolvement"><rect codeLine="17" fill="#F1F1F1" height="26.4883" id="EntityInvolvement" rx="2.5" ry="2.5" style="stroke:#181818;stroke-width:0.5;" width="127" x="289" y="667.76"/><text fill="#000000" font-family="sans-serif" font-size="14" lengthAdjust="spacing" textLength="121" x="292" y="686.2952">EntityInvolvement</text></g><!--class HumanInvolvement--><g id="elem_HumanInvolvement"><rect codeLine="18" fill="#F1F1F1" height="26.4883" id="HumanInvolvement" rx="2.5" ry="2.5" style="stroke:#181818;stroke-width:0.5;" width="138" x="865" y="733.76"/><text fill="#000000" font-family="sans-serif" font-size="14" lengthAdjust="spacing" textLength="132" x="868" y="752.2952">HumanInvolvement</text></g><!--class HumanInvolved--><g id="elem_HumanInvolved"><rect codeLine="19" fill="#F1F1F1" height="26.4883" id="HumanInvolved" rx="2.5" ry="2.5" style="stroke:#181818;stroke-width:0.5;" width="112" x="1130" y="977.76"/><text fill="#000000" font-family="sans-serif" font-size="14" lengthAdjust="spacing" textLength="106" x="1133" y="996.2952">HumanInvolved</text></g><!--class HumanInvolvementForControl--><g id="elem_HumanInvolvementForControl"><rect codeLine="20" fill="#F1F1F1" height="26.4883" id="HumanInvolvementForControl" rx="2.5" ry="2.5" style="stroke:#181818;stroke-width:0.5;" width="213" x="1079.5" y="916.76"/><text fill="#000000" font-family="sans-serif" font-size="14" lengthAdjust="spacing" textLength="207" x="1082.5" y="935.2952">HumanInvolvementForControl</text></g><!--class HumanInvolvementForIntervention--><g id="elem_HumanInvolvementForIntervention"><rect codeLine="21" fill="#F1F1F1" height="26.4883" id="HumanInvolvementForIntervention" rx="2.5" ry="2.5" style="stroke:#181818;stroke-width:0.5;" width="244" x="1064" y="855.76"/><text fill="#000000" font-family="sans-serif" font-size="14" lengthAdjust="spacing" textLength="238" x="1067" y="874.2952">HumanInvolvementForIntervention</text></g><!--class HumanInvolvementForDecision--><g id="elem_HumanInvolvementForDecision"><rect codeLine="22" fill="#F1F1F1" height="26.4883" id="HumanInvolvementForDecision" rx="2.5" ry="2.5" style="stroke:#181818;stroke-width:0.5;" width="219" x="1076.5" y="794.76"/><text fill="#000000" font-family="sans-serif" font-size="14" lengthAdjust="spacing" textLength="213" x="1079.5" y="813.2952">HumanInvolvementForDecision</text></g><!--class HumanInvolvementForInput--><g id="elem_HumanInvolvementForInput"><rect codeLine="23" fill="#F1F1F1" height="26.4883" id="HumanInvolvementForInput" rx="2.5" ry="2.5" style="stroke:#181818;stroke-width:0.5;" width="197" x="1087.5" y="733.76"/><text fill="#000000" font-family="sans-serif" font-size="14" lengthAdjust="spacing" textLength="191" x="1090.5" y="752.2952">HumanInvolvementForInput</text></g><!--class HumanInvolvementForOversight--><g id="elem_HumanInvolvementForOversight"><rect codeLine="24" fill="#F1F1F1" height="26.4883" id="HumanInvolvementForOversight" rx="2.5" ry="2.5" style="stroke:#181818;stroke-width:0.5;" width="227" x="1072.5" y="672.76"/><text fill="#000000" font-family="sans-serif" font-size="14" lengthAdjust="spacing" textLength="221" x="1075.5" y="691.2952">HumanInvolvementForOversight</text></g><!--class HumanInvolvementForVerification--><g id="elem_HumanInvolvementForVerification"><rect codeLine="25" fill="#F1F1F1" height="26.4883" id="HumanInvolvementForVerification" rx="2.5" ry="2.5" style="stroke:#181818;stroke-width:0.5;" width="239" x="1066.5" y="611.76"/><text fill="#000000" font-family="sans-serif" font-size="14" lengthAdjust="spacing" textLength="233" x="1069.5" y="630.2952">HumanInvolvementForVerification</text></g><!--class HumanNotInvolved--><g id="elem_HumanNotInvolved"><rect codeLine="26" fill="#F1F1F1" height="26.4883" id="HumanNotInvolved" rx="2.5" ry="2.5" style="stroke:#181818;stroke-width:0.5;" width="136" x="1118" y="550.76"/><text fill="#000000" font-family="sans-serif" font-size="14" lengthAdjust="spacing" textLength="130" x="1121" y="569.2952">HumanNotInvolved</text></g><!--class Thing--><g id="elem_Thing"><rect codeLine="4" fill="#C0C0C0" height="26.4883" id="Thing" rx="2.5" ry="2.5" style="stroke:#181818;stroke-width:0.5;" width="46" x="7" y="667.76"/><text fill="#000000" font-family="sans-serif" font-size="14" lengthAdjust="spacing" textLength="40" x="10" y="686.2952">Thing</text></g><!--link Thing to AutomationLevel--><g id="link_Thing_AutomationLevel"><path codeLine="30" d="M42.79,667.39 C93.04,609.38 289.14,382.99 339.61,324.73 " fill="none" id="Thing-AutomationLevel" style="stroke:#181818;stroke-width:1.0;"/><polygon fill="#000000" points="94.7737,439.876,86.6301,444.7885,91.0729,448.637,94.7737,439.876" style="stroke:#000000;stroke-width:1.0;"/><text fill="#000000" font-family="sans-serif" font-size="13" lengthAdjust="spacing" textLength="128" x="100.5" y="448.5684">hasAutomationLevel</text></g><!--reverse link AutomationLevel to AssistiveAutomation--><g id="link_AutomationLevel_AssistiveAutomation"><path codeLine="31" d="M379.4232,337.3124 C396.3032,354.0724 414.44,369.62 446,386 C509.38,418.9 588.59,439.3 645.07,450.76 " fill="none" id="AutomationLevel-backto-AssistiveAutomation" style="stroke:#181818;stroke-width:1.0;"/><polygon fill="none" points="366.65,324.63,375.1958,341.5702,383.6507,333.0547,366.65,324.63" style="stroke:#181818;stroke-width:1.0;"/></g><!--reverse link AutomationLevel to Autonomous--><g id="link_AutomationLevel_Autonomous"><path codeLine="32" d="M411.886,330.1785 C427.816,335.2685 429.1,335.43 446,340 C524.18,361.14 616.28,381.16 670.62,392.48 " fill="none" id="AutomationLevel-backto-Autonomous" style="stroke:#181818;stroke-width:1.0;"/><polygon fill="none" points="394.74,324.7,410.0598,335.8939,413.7122,324.4632,394.74,324.7" style="stroke:#181818;stroke-width:1.0;"/></g><!--reverse link AutomationLevel to ConditionalAutomation--><g id="link_AutomationLevel_ConditionalAutomation"><path codeLine="33" d="M431.1392,317.3983 C491.4492,322.3683 567.15,328.61 634.64,334.17 " fill="none" id="AutomationLevel-backto-ConditionalAutomation" style="stroke:#181818;stroke-width:1.0;"/><polygon fill="none" points="413.2,315.92,430.6464,323.3781,431.632,311.4186,413.2,315.92" style="stroke:#181818;stroke-width:1.0;"/></g><!--reverse link AutomationLevel to FullAutomation--><g id="link_AutomationLevel_FullAutomation"><path codeLine="34" d="M431.1349,304.3908 C500.2149,298.5008 595.11,290.42 662.24,284.71 " fill="none" id="AutomationLevel-backto-FullAutomation" style="stroke:#181818;stroke-width:1.0;"/><polygon fill="none" points="413.2,305.92,431.6447,310.3691,430.6252,298.4125,413.2,305.92" style="stroke:#181818;stroke-width:1.0;"/></g><!--reverse link AutomationLevel to HighAutomation--><g id="link_AutomationLevel_HighAutomation"><path codeLine="35" d="M425.0509,292.9178 C493.8709,275.5178 594.58,250.07 663.4,232.67 " fill="none" id="AutomationLevel-backto-HighAutomation" style="stroke:#181818;stroke-width:1.0;"/><polygon fill="none" points="407.6,297.33,426.5216,298.7348,423.5801,287.1009,407.6,297.33" style="stroke:#181818;stroke-width:1.0;"/></g><!--reverse link AutomationLevel to NotAutomated--><g id="link_AutomationLevel_NotAutomated"><path codeLine="36" d="M390.8457,288.1171 C409.2757,277.0071 421.12,270.59 446,259 C527.35,221.13 550.83,219.11 635,188 C649.58,182.61 665.64,176.75 679.68,171.66 " fill="none" id="AutomationLevel-backto-NotAutomated" style="stroke:#181818;stroke-width:1.0;"/><polygon fill="none" points="375.43,297.41,393.9433,293.2557,387.748,282.9786,375.43,297.41" style="stroke:#181818;stroke-width:1.0;"/></g><!--reverse link AutomationLevel to PartialAutomation--><g id="link_AutomationLevel_PartialAutomation"><path codeLine="37" d="M376.8068,283.8894 C393.2868,265.0094 413.46,244.06 446,221 C519.98,168.56 619.69,129.87 675.38,110.64 " fill="none" id="AutomationLevel-backto-PartialAutomation" style="stroke:#181818;stroke-width:1.0;"/><polygon fill="none" points="364.97,297.45,381.327,287.835,372.2866,279.9438,364.97,297.45" style="stroke:#181818;stroke-width:1.0;"/></g><!--link Thing to EntityInvolvement--><g id="link_Thing_EntityInvolvement"><path codeLine="39" d="M53.28,681 C101.34,681 216.2,681 288.53,681 " fill="none" id="Thing-EntityInvolvement" style="stroke:#181818;stroke-width:1.0;"/><polygon fill="#000000" points="93,672.6553,83.9549,669.7163,83.9549,675.5942,93,672.6553" style="stroke:#000000;stroke-width:1.0;"/><text fill="#000000" font-family="sans-serif" font-size="13" lengthAdjust="spacing" textLength="135" x="97" y="677.5684">hasEntityInvolvement</text></g><!--link Thing to HumanInvolvement--><g id="link_Thing_HumanInvolvement"><path codeLine="40" d="M53.29,685.03 C91.54,691.77 172.23,705.27 241,712 C468.77,734.29 740.18,742.78 864.58,745.67 " fill="none" id="Thing-HumanInvolvement" style="stroke:#181818;stroke-width:1.0;"/><polygon fill="#000000" points="455.9861,721.028,447.1852,717.423,446.7471,723.2845,455.9861,721.028" style="stroke:#000000;stroke-width:1.0;"/><text fill="#000000" font-family="sans-serif" font-size="13" lengthAdjust="spacing" textLength="144" x="460" y="725.5684">hasHumanInvolvement</text></g><!--reverse link EntityInvolvement to HumanInvolvement--><g id="link_EntityInvolvement_HumanInvolvement"><path codeLine="41" d="M434.2687,683.3271 C526.5987,686.5971 686.22,695.29 835,721 C852.52,724.03 871.47,728.71 887.99,733.28 " fill="none" id="EntityInvolvement-backto-HumanInvolvement" style="stroke:#181818;stroke-width:1.0;"/><polygon fill="none" points="416.28,682.69,434.0564,689.3233,434.4811,677.3309,416.28,682.69" style="stroke:#181818;stroke-width:1.0;"/></g><!--reverse link HumanInvolvement to HumanInvolved--><g id="link_HumanInvolvement_HumanInvolved"><path codeLine="42" d="M944.5494,777.6957 C956.7094,815.7457 991.04,907.17 1064,961 C1082.9,974.94 1107.51,982.46 1129.6,986.48 " fill="none" id="HumanInvolvement-backto-HumanInvolved" style="stroke:#181818;stroke-width:1.0;"/><polygon fill="none" points="939.07,760.55,938.8342,779.5222,950.2647,775.8693,939.07,760.55" style="stroke:#181818;stroke-width:1.0;"/></g><!--reverse link HumanInvolvement to HumanInvolvementForControl--><g id="link_HumanInvolvement_HumanInvolvementForControl"><path codeLine="43" d="M951.2502,776.1356 C968.3502,806.1956 1005,863.29 1064,900 C1075.12,906.92 1087.74,912.24 1100.53,916.34 " fill="none" id="HumanInvolvement-backto-HumanInvolvementForControl" style="stroke:#181818;stroke-width:1.0;"/><polygon fill="none" points="942.35,760.49,946.035,779.1024,956.4654,773.1689,942.35,760.49" style="stroke:#181818;stroke-width:1.0;"/></g><!--reverse link HumanInvolvement to HumanInvolvementForIntervention--><g id="link_HumanInvolvement_HumanInvolvementForIntervention"><path codeLine="44" d="M963.6128,772.5685 C986.5428,792.6785 1018.77,818.19 1064,839 C1078.65,845.74 1095.02,851.1 1110.87,855.31 " fill="none" id="HumanInvolvement-backto-HumanInvolvementForIntervention" style="stroke:#181818;stroke-width:1.0;"/><polygon fill="none" points="950.08,760.7,959.6567,777.0795,967.569,768.0576,950.08,760.7" style="stroke:#181818;stroke-width:1.0;"/></g><!--reverse link HumanInvolvement to HumanInvolvementForDecision--><g id="link_HumanInvolvement_HumanInvolvementForDecision"><path codeLine="45" d="M1008.5868,764.9577 C1049.7668,775.0077 1087.95,784.32 1129.08,794.36 " fill="none" id="HumanInvolvement-backto-HumanInvolvementForDecision" style="stroke:#181818;stroke-width:1.0;"/><polygon fill="none" points="991.1,760.69,1007.1642,770.7866,1010.0093,759.1287,991.1,760.69" style="stroke:#181818;stroke-width:1.0;"/></g><!--reverse link HumanInvolvement to HumanInvolvementForInput--><g id="link_HumanInvolvement_HumanInvolvementForInput"><path codeLine="46" d="M1021.31,747 C1047.19,747 1059.18,747 1087.25,747 " fill="none" id="HumanInvolvement-backto-HumanInvolvementForInput" style="stroke:#181818;stroke-width:1.0;"/><polygon fill="none" points="1003.31,747,1021.31,753,1021.31,741,1003.31,747" style="stroke:#181818;stroke-width:1.0;"/></g><!--reverse link HumanInvolvement to HumanInvolvementForOversight--><g id="link_HumanInvolvement_HumanInvolvementForOversight"><path codeLine="47" d="M1008.5868,729.0423 C1049.7668,718.9923 1087.95,709.68 1129.08,699.64 " fill="none" id="HumanInvolvement-backto-HumanInvolvementForOversight" style="stroke:#181818;stroke-width:1.0;"/><polygon fill="none" points="991.1,733.31,1010.0093,734.8713,1007.1642,723.2134,991.1,733.31" style="stroke:#181818;stroke-width:1.0;"/></g><!--reverse link HumanInvolvement to HumanInvolvementForVerification--><g id="link_HumanInvolvement_HumanInvolvementForVerification"><path codeLine="48" d="M963.6128,721.4315 C986.5428,701.3215 1018.77,675.81 1064,655 C1078.65,648.26 1095.02,642.9 1110.87,638.69 " fill="none" id="HumanInvolvement-backto-HumanInvolvementForVerification" style="stroke:#181818;stroke-width:1.0;"/><polygon fill="none" points="950.08,733.3,967.569,725.9424,959.6567,716.9205,950.08,733.3" style="stroke:#181818;stroke-width:1.0;"/></g><!--reverse link HumanInvolvement to HumanNotInvolved--><g id="link_HumanInvolvement_HumanNotInvolved"><path codeLine="49" d="M951.2502,717.8644 C968.3502,687.8044 1005,630.71 1064,594 C1080.08,583.99 1099.3,577.32 1117.64,572.88 " fill="none" id="HumanInvolvement-backto-HumanNotInvolved" style="stroke:#181818;stroke-width:1.0;"/><polygon fill="none" points="942.35,733.51,956.4654,720.8311,946.035,714.8976,942.35,733.51" style="stroke:#181818;stroke-width:1.0;"/></g><!--SRC=[bLFHIiCm57tFLqJsl7s0Z8Aemu6eYFWUchisc2ObkIaCtR-Rq6bjagwrJ-MUSsxJatEkX2gbuq0j7YLiMiaKkaOI2GUagAaHLOsK2mCb2gq8AIMpbhxLGbLqPONim92MbH-i0ihRZduIwf-VoOr3tR2WfDljgz_1L2MXAEXA2WKRpcmD_Am9JxzzK3r21p96hHKMHGS3BQDNkj7EHi2jLbm40PEJufsJq-23jsCIVD9une17q0ipA9AFdaPUFRY6NRQ9Hbll5GeyxbMd_JKqe30-RTYu3EOpqfqstZmqMiuJzmh1TFuzur_AleDIs4NClMeTpjEUVIHjYEqyzHsCE8YIJPtKt-Z8dnCv4T9dVxsEOqglQSriF2n8FDb-1Mqcn7dYaEKidezqbXebEyk90fxbZ7AUPQHn7rnBGjlxbewBGHDVNIz9fWL9juJpf0j8ekt_VjI8UKxKZCM2KKCMgtwRye_lXCOifW_DMImPDUY2wc-JlW40]--></g></svg>