<svg xmlns="http://www.w3.org/2000/svg" xmlns:xlink="http://www.w3.org/1999/xlink" contentStyleType="text/css" height="597px" preserveAspectRatio="none" style="width:1180px;height:597px;background:#FFFFFF;" version="1.1" viewBox="0 0 1180 597" width="1180px" zoomAndPan="magnify"><defs/><g><!--cluster dpv--><g id="cluster_dpv"><path d="M71.5,6 L98.5,6 A3.75,3.75 0 0 1 101,8.5 L108,28.4883 L1170.5,28.4883 A2.5,2.5 0 0 1 1173,30.9883 L1173,588.43 A2.5,2.5 0 0 1 1170.5,590.93 L71.5,590.93 A2.5,2.5 0 0 1 69,588.43 L69,8.5 A2.5,2.5 0 0 1 71.5,6 " fill="none" style="stroke:#000000;stroke-width:1.5;"/><line style="stroke:#000000;stroke-width:1.5;" x1="69" x2="108" y1="28.4883" y2="28.4883"/><text fill="#000000" font-family="sans-serif" font-size="14" font-weight="bold" lengthAdjust="spacing" textLength="26" x="73" y="21.5352">dpv</text></g><!--cluster legal--><g id="cluster_legal"><path d="M480.5,241.98 L516.5,241.98 A3.75,3.75 0 0 1 519,244.48 L526,264.4683 L1019.5,264.4683 A2.5,2.5 0 0 1 1022,266.9683 L1022,556.43 A2.5,2.5 0 0 1 1019.5,558.93 L480.5,558.93 A2.5,2.5 0 0 1 478,556.43 L478,244.48 A2.5,2.5 0 0 1 480.5,241.98 " fill="none" style="stroke:#000000;stroke-width:1.5;"/><line style="stroke:#000000;stroke-width:1.5;" x1="478" x2="526" y1="264.4683" y2="264.4683"/><text fill="#000000" font-family="sans-serif" font-size="14" font-weight="bold" lengthAdjust="spacing" textLength="35" x="482" y="257.5152">legal</text></g><!--cluster eu--><g id="cluster_eu"><path d="M512.5,292.98 L530.5,292.98 A3.75,3.75 0 0 1 533,295.48 L540,315.4683 L776.5,315.4683 A2.5,2.5 0 0 1 779,317.9683 L779,524.43 A2.5,2.5 0 0 1 776.5,526.93 L512.5,526.93 A2.5,2.5 0 0 1 510,524.43 L510,295.48 A2.5,2.5 0 0 1 512.5,292.98 " fill="none" style="stroke:#000000;stroke-width:1.5;"/><line style="stroke:#000000;stroke-width:1.5;" x1="510" x2="540" y1="315.4683" y2="315.4683"/><text fill="#000000" font-family="sans-serif" font-size="14" font-weight="bold" lengthAdjust="spacing" textLength="17" x="514" y="308.5152">eu</text></g><!--class Process--><g id="elem_Process"><rect codeLine="9" fill="#F1F1F1" height="26.4883" id="Process" rx="2.5" ry="2.5" style="stroke:#181818;stroke-width:0.5;" width="58" x="482" y="41"/><text fill="#000000" font-family="sans-serif" font-size="14" lengthAdjust="spacing" textLength="52" x="485" y="59.5352">Process</text></g><!--class PersonalData--><g id="elem_PersonalData"><rect codeLine="10" fill="#F1F1F1" height="26.4883" id="PersonalData" rx="2.5" ry="2.5" style="stroke:#181818;stroke-width:0.5;" width="96" x="85" y="144.49"/><text fill="#000000" font-family="sans-serif" font-size="14" lengthAdjust="spacing" textLength="90" x="88" y="163.0252">PersonalData</text></g><!--class Risk--><g id="elem_Risk"><rect codeLine="11" fill="#F1F1F1" height="26.4883" id="Risk" rx="2.5" ry="2.5" style="stroke:#181818;stroke-width:0.5;" width="34" x="258" y="144.49"/><text fill="#000000" font-family="sans-serif" font-size="14" lengthAdjust="spacing" textLength="28" x="261" y="163.0252">Risk</text></g><!--class Technology--><g id="elem_Technology"><rect codeLine="12" fill="#F1F1F1" height="26.4883" id="Technology" rx="2.5" ry="2.5" style="stroke:#181818;stroke-width:0.5;" width="86" x="339" y="144.49"/><text fill="#000000" font-family="sans-serif" font-size="14" lengthAdjust="spacing" textLength="80" x="342" y="163.0252">Technology</text></g><!--class Location--><g id="elem_Location"><rect codeLine="13" fill="#F1F1F1" height="26.4883" id="Location" rx="2.5" ry="2.5" style="stroke:#181818;stroke-width:0.5;" width="64" x="531" y="144.49"/><text fill="#000000" font-family="sans-serif" font-size="14" lengthAdjust="spacing" textLength="58" x="534" y="163.0252">Location</text></g><!--class Law--><g id="elem_Law"><rect codeLine="14" fill="#F1F1F1" height="26.4883" id="Law" rx="2.5" ry="2.5" style="stroke:#181818;stroke-width:0.5;" width="32" x="803" y="144.49"/><text fill="#000000" font-family="sans-serif" font-size="14" lengthAdjust="spacing" textLength="26" x="806" y="163.0252">Law</text></g><!--class Justification--><g id="elem_Justification"><rect codeLine="15" fill="#F1F1F1" height="26.4883" id="Justification" rx="2.5" ry="2.5" style="stroke:#181818;stroke-width:0.5;" width="86" x="923" y="144.49"/><text fill="#000000" font-family="sans-serif" font-size="14" lengthAdjust="spacing" textLength="80" x="926" y="163.0252">Justification</text></g><!--class Data--><g id="elem_Data"><rect fill="#F1F1F1" height="26.4883" id="Data" rx="2.5" ry="2.5" style="stroke:#181818;stroke-width:0.5;" width="37" x="1072.5" y="144.49"/><text fill="#000000" font-family="sans-serif" font-size="14" lengthAdjust="spacing" textLength="31" x="1075.5" y="163.0252">Data</text></g><path d="M116.5,327.98 L135.5,327.98 A3.75,3.75 0 0 1 138,330.48 L145,350.4683 L149.5,350.4683 A2.5,2.5 0 0 1 152,352.9683 L152,378.4566 A2.5,2.5 0 0 1 149.5,380.9566 L116.5,380.9566 A2.5,2.5 0 0 1 114,378.4566 L114,330.48 A2.5,2.5 0 0 1 116.5,327.98 " fill="#F1F1F1" style="stroke:#181818;stroke-width:0.5;"/><line style="stroke:#181818;stroke-width:0.5;" x1="114" x2="145" y1="350.4683" y2="350.4683"/><text fill="#000000" font-family="sans-serif" font-size="14" font-weight="bold" lengthAdjust="spacing" textLength="18" x="118" y="343.5152">pd</text><path d="M248.5,327.98 L277.5,327.98 A3.75,3.75 0 0 1 280,330.48 L287,350.4683 L291.5,350.4683 A2.5,2.5 0 0 1 294,352.9683 L294,378.4566 A2.5,2.5 0 0 1 291.5,380.9566 L248.5,380.9566 A2.5,2.5 0 0 1 246,378.4566 L246,330.48 A2.5,2.5 0 0 1 248.5,327.98 " fill="#F1F1F1" style="stroke:#181818;stroke-width:0.5;"/><line style="stroke:#181818;stroke-width:0.5;" x1="246" x2="287" y1="350.4683" y2="350.4683"/><text fill="#000000" font-family="sans-serif" font-size="14" font-weight="bold" lengthAdjust="spacing" textLength="28" x="250" y="343.5152">risk</text><path d="M331.5,327.98 L362.5,327.98 A3.75,3.75 0 0 1 365,330.48 L372,350.4683 L376.5,350.4683 A2.5,2.5 0 0 1 379,352.9683 L379,378.4566 A2.5,2.5 0 0 1 376.5,380.9566 L331.5,380.9566 A2.5,2.5 0 0 1 329,378.4566 L329,330.48 A2.5,2.5 0 0 1 331.5,327.98 " fill="#F1F1F1" style="stroke:#181818;stroke-width:0.5;"/><line style="stroke:#181818;stroke-width:0.5;" x1="329" x2="372" y1="350.4683" y2="350.4683"/><text fill="#000000" font-family="sans-serif" font-size="14" font-weight="bold" lengthAdjust="spacing" textLength="30" x="333" y="343.5152">tech</text><path d="M1051.5,327.98 L1140.5,327.98 A3.75,3.75 0 0 1 1143,330.48 L1150,350.4683 L1154.5,350.4683 A2.5,2.5 0 0 1 1157,352.9683 L1157,378.4566 A2.5,2.5 0 0 1 1154.5,380.9566 L1051.5,380.9566 A2.5,2.5 0 0 1 1049,378.4566 L1049,330.48 A2.5,2.5 0 0 1 1051.5,327.98 " fill="#F1F1F1" style="stroke:#181818;stroke-width:0.5;"/><line style="stroke:#181818;stroke-width:0.5;" x1="1049" x2="1150" y1="350.4683" y2="350.4683"/><text fill="#000000" font-family="sans-serif" font-size="14" font-weight="bold" lengthAdjust="spacing" textLength="88" x="1053" y="343.5152">justification</text><path d="M416,327.98 L438,327.98 A3.75,3.75 0 0 1 440.5,330.48 L447.5,350.4683 L452,350.4683 A2.5,2.5 0 0 1 454.5,352.9683 L454.5,378.4566 A2.5,2.5 0 0 1 452,380.9566 L416,380.9566 A2.5,2.5 0 0 1 413.5,378.4566 L413.5,330.48 A2.5,2.5 0 0 1 416,327.98 " fill="#F1F1F1" style="stroke:#181818;stroke-width:0.5;"/><line style="stroke:#181818;stroke-width:0.5;" x1="413.5" x2="447.5" y1="350.4683" y2="350.4683"/><text fill="#000000" font-family="sans-serif" font-size="14" font-weight="bold" lengthAdjust="spacing" textLength="21" x="417.5" y="343.5152">loc</text><path d="M340,457.95 L354,457.95 A3.75,3.75 0 0 1 356.5,460.45 L363.5,480.4383 L368,480.4383 A2.5,2.5 0 0 1 370.5,482.9383 L370.5,508.4266 A2.5,2.5 0 0 1 368,510.9266 L340,510.9266 A2.5,2.5 0 0 1 337.5,508.4266 L337.5,460.45 A2.5,2.5 0 0 1 340,457.95 " fill="#F1F1F1" style="stroke:#181818;stroke-width:0.5;"/><line style="stroke:#181818;stroke-width:0.5;" x1="337.5" x2="363.5" y1="480.4383" y2="480.4383"/><text fill="#000000" font-family="sans-serif" font-size="14" font-weight="bold" lengthAdjust="spacing" textLength="13" x="341.5" y="473.4852">ai</text><path d="M941,327.98 L959,327.98 A3.75,3.75 0 0 1 961.5,330.48 L968.5,350.4683 L973,350.4683 A2.5,2.5 0 0 1 975.5,352.9683 L975.5,378.4566 A2.5,2.5 0 0 1 973,380.9566 L941,380.9566 A2.5,2.5 0 0 1 938.5,378.4566 L938.5,330.48 A2.5,2.5 0 0 1 941,327.98 " fill="#F1F1F1" style="stroke:#181818;stroke-width:0.5;"/><line style="stroke:#181818;stroke-width:0.5;" x1="938.5" x2="968.5" y1="350.4683" y2="350.4683"/><text fill="#000000" font-family="sans-serif" font-size="14" font-weight="bold" lengthAdjust="spacing" textLength="17" x="942.5" y="343.5152">de</text><path d="M528.5,457.95 L563.5,457.95 A3.75,3.75 0 0 1 566,460.45 L573,480.4383 L577.5,480.4383 A2.5,2.5 0 0 1 580,482.9383 L580,508.4266 A2.5,2.5 0 0 1 577.5,510.9266 L528.5,510.9266 A2.5,2.5 0 0 1 526,508.4266 L526,460.45 A2.5,2.5 0 0 1 528.5,457.95 " fill="#F1F1F1" style="stroke:#181818;stroke-width:0.5;"/><line style="stroke:#181818;stroke-width:0.5;" x1="526" x2="573" y1="480.4383" y2="480.4383"/><text fill="#000000" font-family="sans-serif" font-size="14" font-weight="bold" lengthAdjust="spacing" textLength="34" x="530" y="473.4852">aiact</text><path d="M710.5,457.95 L737.5,457.95 A3.75,3.75 0 0 1 740,460.45 L747,480.4383 L751.5,480.4383 A2.5,2.5 0 0 1 754,482.9383 L754,508.4266 A2.5,2.5 0 0 1 751.5,510.9266 L710.5,510.9266 A2.5,2.5 0 0 1 708,508.4266 L708,460.45 A2.5,2.5 0 0 1 710.5,457.95 " fill="#F1F1F1" style="stroke:#181818;stroke-width:0.5;"/><line style="stroke:#181818;stroke-width:0.5;" x1="708" x2="747" y1="480.4383" y2="480.4383"/><text fill="#000000" font-family="sans-serif" font-size="14" font-weight="bold" lengthAdjust="spacing" textLength="26" x="712" y="473.4852">dga</text><path d="M528,327.98 L562,327.98 A3.75,3.75 0 0 1 564.5,330.48 L571.5,350.4683 L576,350.4683 A2.5,2.5 0 0 1 578.5,352.9683 L578.5,378.4566 A2.5,2.5 0 0 1 576,380.9566 L528,380.9566 A2.5,2.5 0 0 1 525.5,378.4566 L525.5,330.48 A2.5,2.5 0 0 1 528,327.98 " fill="#F1F1F1" style="stroke:#181818;stroke-width:0.5;"/><line style="stroke:#181818;stroke-width:0.5;" x1="525.5" x2="571.5" y1="350.4683" y2="350.4683"/><text fill="#000000" font-family="sans-serif" font-size="14" font-weight="bold" lengthAdjust="spacing" textLength="33" x="529.5" y="343.5152">gdpr</text><path d="M616,327.98 L648,327.98 A3.75,3.75 0 0 1 650.5,330.48 L657.5,350.4683 L662,350.4683 A2.5,2.5 0 0 1 664.5,352.9683 L664.5,378.4566 A2.5,2.5 0 0 1 662,380.9566 L616,380.9566 A2.5,2.5 0 0 1 613.5,378.4566 L613.5,330.48 A2.5,2.5 0 0 1 616,327.98 " fill="#F1F1F1" style="stroke:#181818;stroke-width:0.5;"/><line style="stroke:#181818;stroke-width:0.5;" x1="613.5" x2="657.5" y1="350.4683" y2="350.4683"/><text fill="#000000" font-family="sans-serif" font-size="14" font-weight="bold" lengthAdjust="spacing" textLength="31" x="617.5" y="343.5152">nis2</text><path d="M702,327.98 L746,327.98 A3.75,3.75 0 0 1 748.5,330.48 L755.5,350.4683 L760,350.4683 A2.5,2.5 0 0 1 762.5,352.9683 L762.5,378.4566 A2.5,2.5 0 0 1 760,380.9566 L702,380.9566 A2.5,2.5 0 0 1 699.5,378.4566 L699.5,330.48 A2.5,2.5 0 0 1 702,327.98 " fill="#F1F1F1" style="stroke:#181818;stroke-width:0.5;"/><line style="stroke:#181818;stroke-width:0.5;" x1="699.5" x2="755.5" y1="350.4683" y2="350.4683"/><text fill="#000000" font-family="sans-serif" font-size="14" font-weight="bold" lengthAdjust="spacing" textLength="43" x="703.5" y="343.5152">rights</text><path d="M800.5,327.98 L819.5,327.98 A3.75,3.75 0 0 1 822,330.48 L829,350.4683 L833.5,350.4683 A2.5,2.5 0 0 1 836,352.9683 L836,378.4566 A2.5,2.5 0 0 1 833.5,380.9566 L800.5,380.9566 A2.5,2.5 0 0 1 798,378.4566 L798,330.48 A2.5,2.5 0 0 1 800.5,327.98 " fill="#F1F1F1" style="stroke:#181818;stroke-width:0.5;"/><line style="stroke:#181818;stroke-width:0.5;" x1="798" x2="829" y1="350.4683" y2="350.4683"/><text fill="#000000" font-family="sans-serif" font-size="14" font-weight="bold" lengthAdjust="spacing" textLength="18" x="802" y="343.5152">gb</text><path d="M873,327.98 L887,327.98 A3.75,3.75 0 0 1 889.5,330.48 L896.5,350.4683 L901,350.4683 A2.5,2.5 0 0 1 903.5,352.9683 L903.5,378.4566 A2.5,2.5 0 0 1 901,380.9566 L873,380.9566 A2.5,2.5 0 0 1 870.5,378.4566 L870.5,330.48 A2.5,2.5 0 0 1 873,327.98 " fill="#F1F1F1" style="stroke:#181818;stroke-width:0.5;"/><line style="stroke:#181818;stroke-width:0.5;" x1="870.5" x2="896.5" y1="350.4683" y2="350.4683"/><text fill="#000000" font-family="sans-serif" font-size="14" font-weight="bold" lengthAdjust="spacing" textLength="13" x="874.5" y="343.5152">ie</text><path d="M872.5,457.95 L887.5,457.95 A3.75,3.75 0 0 1 890,460.45 L897,480.4383 L901.5,480.4383 A2.5,2.5 0 0 1 904,482.9383 L904,508.4266 A2.5,2.5 0 0 1 901.5,510.9266 L872.5,510.9266 A2.5,2.5 0 0 1 870,508.4266 L870,460.45 A2.5,2.5 0 0 1 872.5,457.95 " fill="#F1F1F1" style="stroke:#181818;stroke-width:0.5;"/><line style="stroke:#181818;stroke-width:0.5;" x1="870" x2="897" y1="480.4383" y2="480.4383"/><text fill="#000000" font-family="sans-serif" font-size="14" font-weight="bold" lengthAdjust="spacing" textLength="14" x="874" y="473.4852">in</text><path d="M801,457.95 L819,457.95 A3.75,3.75 0 0 1 821.5,460.45 L828.5,480.4383 L833,480.4383 A2.5,2.5 0 0 1 835.5,482.9383 L835.5,508.4266 A2.5,2.5 0 0 1 833,510.9266 L801,510.9266 A2.5,2.5 0 0 1 798.5,508.4266 L798.5,460.45 A2.5,2.5 0 0 1 801,457.95 " fill="#F1F1F1" style="stroke:#181818;stroke-width:0.5;"/><line style="stroke:#181818;stroke-width:0.5;" x1="798.5" x2="828.5" y1="480.4383" y2="480.4383"/><text fill="#000000" font-family="sans-serif" font-size="14" font-weight="bold" lengthAdjust="spacing" textLength="17" x="802.5" y="473.4852">us</text><!--class Thing--><g id="elem_Thing"><rect codeLine="5" fill="#C0C0C0" height="26.4883" id="Thing" rx="2.5" ry="2.5" style="stroke:#181818;stroke-width:0.5;" width="46" x="7" y="41"/><text fill="#000000" font-family="sans-serif" font-size="14" lengthAdjust="spacing" textLength="40" x="10" y="59.5352">Thing</text></g><!--link Thing to Process--><g id="link_Thing_Process"><path codeLine="6" d="M53.2,54.24 C132.58,54.24 387.27,54.24 475.51,54.24 " fill="none" id="Thing-to-Process" style="stroke:#181818;stroke-width:1.0;"/><polygon fill="#181818" points="481.51,54.24,472.51,50.24,476.51,54.24,472.51,58.24,481.51,54.24" style="stroke:#181818;stroke-width:1.0;"/><polygon fill="#000000" points="235,42.8953,225.9549,39.9563,225.9549,45.8342,235,42.8953" style="stroke:#000000;stroke-width:1.0;"/><text fill="#000000" font-family="sans-serif" font-size="13" lengthAdjust="spacing" textLength="70" x="239" y="47.8084">hasProcess</text></g><!--link Process to Data--><g id="link_Process_Data"><path codeLine="17" d="M540.27,55.02 C636.59,54.69 942.6,56.94 1031,97.49 C1053.35,107.74 1072.21,130.05 1082.53,144.18 " fill="none" id="Process-Data" style="stroke:#181818;stroke-width:1.0;"/><polygon fill="#000000" points="1064.9338,106.9565,1056.4853,102.589,1055.5317,108.389,1064.9338,106.9565" style="stroke:#000000;stroke-width:1.0;"/><text fill="#000000" font-family="sans-serif" font-size="13" lengthAdjust="spacing" textLength="51" x="1069" y="111.0584">hasData</text></g><!--link Process to Justification--><g id="link_Process_Justification"><path codeLine="18" d="M540.35,56.86 C615.84,61.28 815.14,74.83 877,97.49 C906.11,108.15 935.11,130.11 951.76,144.1 " fill="none" id="Process-Justification" style="stroke:#181818;stroke-width:1.0;"/><polygon fill="#000000" points="919.8912,107.1825,911.6526,102.4312,910.4333,108.1812,919.8912,107.1825" style="stroke:#000000;stroke-width:1.0;"/><text fill="#000000" font-family="sans-serif" font-size="13" lengthAdjust="spacing" textLength="98" x="924" y="111.0584">hasJustification</text></g><!--link Process to PersonalData--><g id="link_Process_PersonalData"><path codeLine="19" d="M481.67,55.07 C406.42,55.2 208.79,59.25 158,97.49 C143.19,108.63 137.08,130.24 134.61,144.05 " fill="none" id="Process-PersonalData" style="stroke:#181818;stroke-width:1.0;"/><polygon fill="#000000" points="158.1566,107.387,167.6482,107.9875,166.1885,102.2938,158.1566,107.387" style="stroke:#000000;stroke-width:1.0;"/><text fill="#000000" font-family="sans-serif" font-size="13" lengthAdjust="spacing" textLength="104" x="172" y="111.0584">hasPersonalData</text></g><!--link Process to Risk--><g id="link_Process_Risk"><path codeLine="20" d="M481.71,57.59 C430.02,62.28 325.51,74.41 298,97.49 C283.97,109.26 278.46,130.68 276.33,144.28 " fill="none" id="Process-Risk" style="stroke:#181818;stroke-width:1.0;"/><polygon fill="#000000" points="298.3935,108.0896,307.8696,107.2799,305.5838,101.8646,298.3935,108.0896" style="stroke:#000000;stroke-width:1.0;"/><text fill="#000000" font-family="sans-serif" font-size="13" lengthAdjust="spacing" textLength="49" x="312" y="111.0584">hasRisk</text></g><!--link Process to Technology--><g id="link_Process_Technology"><path codeLine="21" d="M481.63,55.06 C449.74,56.63 400.14,64.64 376,97.49 C366.08,110.98 371.12,131.12 376.16,144.09 " fill="none" id="Process-Technology" style="stroke:#181818;stroke-width:1.0;"/><polygon fill="#000000" points="377.1793,109.3705,385.9868,105.7818,382.1953,101.2903,377.1793,109.3705" style="stroke:#000000;stroke-width:1.0;"/><text fill="#000000" font-family="sans-serif" font-size="13" lengthAdjust="spacing" textLength="202" x="390" y="111.0584">isImplementedUsingTechnology</text></g><!--link Process to Location--><g id="link_Process_Location"><path codeLine="22" d="M540.39,60.49 C561.23,65.91 587.76,76.65 601,97.49 C611.22,113.58 594.88,132.06 580.54,144.04 " fill="none" id="Process-Location" style="stroke:#181818;stroke-width:1.0;"/><polygon fill="#000000" points="611.1657,110.6519,609.8969,101.2264,604.599,103.7723,611.1657,110.6519" style="stroke:#000000;stroke-width:1.0;"/><text fill="#000000" font-family="sans-serif" font-size="13" lengthAdjust="spacing" textLength="76" x="618" y="111.0584">hasLocation</text></g><!--link Process to Law--><g id="link_Process_Law"><path codeLine="23" d="M540.27,59.3 C578.49,65.13 647.1,77.44 703,97.49 C740.25,110.85 780.78,133.63 802.7,146.71 " fill="none" id="Process-Law" style="stroke:#181818;stroke-width:1.0;"/><polygon fill="#000000" points="751.7438,107.7253,744.0909,102.0787,742.2335,107.6553,751.7438,107.7253" style="stroke:#000000;stroke-width:1.0;"/><text fill="#000000" font-family="sans-serif" font-size="13" lengthAdjust="spacing" textLength="112" x="756" y="111.0584">hasApplicableLaw</text></g><!--reverse link PersonalData to pd--><g id="link_PersonalData_pd"><path codeLine="28" d="M133,177.21 C133,208.61 133,285.38 133,327.72 " fill="none" id="PersonalData-backto-pd" style="stroke:#181818;stroke-width:1.0;stroke-dasharray:7.0,7.0;"/><polygon fill="#181818" points="133,171.21,129,180.21,133,176.21,137,180.21,133,171.21" style="stroke:#181818;stroke-width:1.0;"/><text fill="#000000" font-family="sans-serif" font-size="13" lengthAdjust="spacing" textLength="64" x="134" y="214.5484">&#171;extends&#187;</text></g><!--reverse link Risk to risk--><g id="link_Risk_risk"><path codeLine="32" d="M273.4359,177.2704 C272.7559,185.6704 272.42,190.99 272,200.98 C270.13,245.42 269.85,297.2 269.88,327.55 " fill="none" id="Risk-backto-risk" style="stroke:#181818;stroke-width:1.0;stroke-dasharray:7.0,7.0;"/><polygon fill="#181818" points="273.92,171.29,269.2068,179.9379,273.5166,176.2737,277.1808,180.5834,273.92,171.29" style="stroke:#181818;stroke-width:1.0;"/><text fill="#000000" font-family="sans-serif" font-size="13" lengthAdjust="spacing" textLength="64" x="273" y="214.5484">&#171;extends&#187;</text></g><!--reverse link Technology to tech--><g id="link_Technology_tech"><path codeLine="36" d="M379.3551,177.1488 C374.8351,208.5488 363.79,285.38 357.7,327.72 " fill="none" id="Technology-backto-tech" style="stroke:#181818;stroke-width:1.0;stroke-dasharray:7.0,7.0;"/><polygon fill="#181818" points="380.21,171.21,374.9685,179.5483,379.4976,176.159,382.8869,180.6881,380.21,171.21" style="stroke:#181818;stroke-width:1.0;"/><text fill="#000000" font-family="sans-serif" font-size="13" lengthAdjust="spacing" textLength="64" x="376" y="214.5484">&#171;extends&#187;</text></g><!--reverse link Justification to justification--><g id="link_Justification_justification"><path codeLine="40" d="M984.1152,175.4065 C997.8052,188.3165 1014.59,205.3 1030,225.98 C1054.69,259.11 1077.36,301.36 1090.69,327.92 " fill="none" id="Justification-backto-justification" style="stroke:#181818;stroke-width:1.0;stroke-dasharray:7.0,7.0;"/><polygon fill="#181818" points="979.75,171.29,983.5535,180.3748,983.3876,174.7204,989.0421,174.5546,979.75,171.29" style="stroke:#181818;stroke-width:1.0;"/><text fill="#000000" font-family="sans-serif" font-size="13" lengthAdjust="spacing" textLength="64" x="1023" y="214.5484">&#171;extends&#187;</text></g><!--reverse link Location to loc--><g id="link_Location_loc"><path codeLine="44" d="M548.4776,175.8499 C537.3976,189.0799 523.65,206.14 510,225.98 C486.49,260.16 462.49,301.77 447.92,327.95 " fill="none" id="Location-backto-loc" style="stroke:#181818;stroke-width:1.0;stroke-dasharray:7.0,7.0;"/><polygon fill="#181818" points="552.33,171.25,543.4848,175.5816,549.1197,175.0833,549.618,180.7181,552.33,171.25" style="stroke:#181818;stroke-width:1.0;"/><text fill="#000000" font-family="sans-serif" font-size="13" lengthAdjust="spacing" textLength="64" x="529" y="214.5484">&#171;extends&#187;</text></g><!--reverse link tech to ai--><g id="link_tech_ai"><path codeLine="47" d="M354,387.36 C354,409.57 354,435.39 354,457.58 " fill="none" id="tech-backto-ai" style="stroke:#181818;stroke-width:1.0;stroke-dasharray:7.0,7.0;"/><polygon fill="#181818" points="354,381.36,350,390.36,354,386.36,358,390.36,354,381.36" style="stroke:#181818;stroke-width:1.0;"/><text fill="#000000" font-family="sans-serif" font-size="13" lengthAdjust="spacing" textLength="64" x="355" y="424.5184">&#171;extends&#187;</text></g><!--reverse link Law to legal--><g id="link_Law_legal"><path codeLine="50" d="M840.4189,172.3263 C862.3889,185.8563 898,206 936,217.98 C947.99,221.76 983.05,217.15 992,225.98 C996.745,230.66 1000.6572,235.9739 1003.8661,241.7112 " fill="none" id="Law-backto-legal" style="stroke:#181818;stroke-width:1.0;stroke-dasharray:7.0,7.0;"/><polygon fill="#181818" points="835.31,169.18,840.8759,177.3053,839.5674,171.8019,845.0709,170.4935,835.31,169.18" style="stroke:#181818;stroke-width:1.0;"/><text fill="#000000" font-family="sans-serif" font-size="13" lengthAdjust="spacing" textLength="64" x="937" y="214.5484">&#171;extends&#187;</text></g><!--link gb to us--><!--link gb to ie--><!--link ie to de--><!--link ie to in--><!--link rights to dga--><!--link gdpr to aiact--><!--link gdpr to nis2--><!--SRC=[XLInRjim49tDhs2H8PCqT3GC0mMwjEXG5EbKPBYG5uerJGaa5JS8yk-XA9zCsgQxaVVUkxl71-cJjiAC4haFhmRRmO0DuzumTc_mEV3GSwTL5xZK3aNGlMLC6F2UFtJQAdxdjNb1n-PRi-LoU6b_kbwWzslUWJ-U-PQn0SGE54uK_iPMSviZlbpH-Tw2-Ge1gFPB-nsT7r1qjZUzUgNAZrv0selkSA3Zzz47_QoFE5lHBat3f_uyBPXEsrM15iB4AYhHJCxETvuzPuKpxkGbSQR36NRojkRQVziF1lTe0yhVFZxk2JsJqGEajdGvvy0XmL-6mKGJJmPZ9NBUYrJQGSPWtbdACFUmQLl2rtopmNy1hVJRCjFMJPP8d_oHBY4tb25wMvIPKT8d_8R-Rv4EDIeperubzqPJqukbrVAir6K2Isqk1Rqeq-gaYlMwoA02SveOyrc69UG_oZP-mvFu4i2n2iIDG8GwB1NKGIK7LqUjzf_hQFgf-0gkdYg0hbdKjWACymnspyC1OSU90Sw1LUdxOiNWva-dfKJxA9kyIuNacdmvLcnwbIHhf7oSZZ-hQwzrbJodn2wJgR5JvBVuhha8ah4F]--></g></svg>