<svg xmlns="http://www.w3.org/2000/svg" xmlns:xlink="http://www.w3.org/1999/xlink" contentStyleType="text/css" height="779px" preserveAspectRatio="none" style="width:759px;height:779px;background:#FFFFFF;" version="1.1" viewBox="0 0 759 779" width="759px" zoomAndPan="magnify"><defs/><g><!--cluster dpv--><g id="cluster_dpv"><path d="M17.4389,6 L44.4389,6 A3.75,3.75 0 0 1 46.9389,8.5 L53.9389,28.4883 L750.4389,28.4883 A2.5,2.5 0 0 1 752.9389,30.9883 L752.9389,769.5 A2.5,2.5 0 0 1 750.4389,772 L17.4389,772 A2.5,2.5 0 0 1 14.9389,769.5 L14.9389,8.5 A2.5,2.5 0 0 1 17.4389,6 " fill="none" style="stroke:#000000;stroke-width:1.5;"/><line style="stroke:#000000;stroke-width:1.5;" x1="14.9389" x2="53.9389" y1="28.4883" y2="28.4883"/><text fill="#000000" font-family="sans-serif" font-size="14" font-weight="bold" lengthAdjust="spacing" textLength="26" x="18.9389" y="21.5352">dpv</text></g><!--cluster legal--><g id="cluster_legal"><path d="M310.4389,49 L346.4389,49 A3.75,3.75 0 0 1 348.9389,51.5 L355.9389,71.4883 L726.4389,71.4883 A2.5,2.5 0 0 1 728.9389,73.9883 L728.9389,745.5 A2.5,2.5 0 0 1 726.4389,748 L310.4389,748 A2.5,2.5 0 0 1 307.9389,745.5 L307.9389,51.5 A2.5,2.5 0 0 1 310.4389,49 " fill="none" style="stroke:#000000;stroke-width:1.5;"/><line style="stroke:#000000;stroke-width:1.5;" x1="307.9389" x2="355.9389" y1="71.4883" y2="71.4883"/><text fill="#000000" font-family="sans-serif" font-size="14" font-weight="bold" lengthAdjust="spacing" textLength="35" x="311.9389" y="64.5352">legal</text></g><!--cluster eu--><g id="cluster_eu"><path d="M334.4389,92 L352.4389,92 A3.75,3.75 0 0 1 354.9389,94.5 L361.9389,114.4883 L702.4389,114.4883 A2.5,2.5 0 0 1 704.9389,116.9883 L704.9389,721.5 A2.5,2.5 0 0 1 702.4389,724 L334.4389,724 A2.5,2.5 0 0 1 331.9389,721.5 L331.9389,94.5 A2.5,2.5 0 0 1 334.4389,92 " fill="none" style="stroke:#000000;stroke-width:1.5;"/><line style="stroke:#000000;stroke-width:1.5;" x1="331.9389" x2="361.9389" y1="114.4883" y2="114.4883"/><text fill="#000000" font-family="sans-serif" font-size="14" font-weight="bold" lengthAdjust="spacing" textLength="17" x="335.9389" y="107.5352">eu</text></g><!--cluster gdpr--><g id="cluster_gdpr"><path d="M358.4389,135 L392.4389,135 A3.75,3.75 0 0 1 394.9389,137.5 L401.9389,157.4883 L678.4389,157.4883 A2.5,2.5 0 0 1 680.9389,159.9883 L680.9389,697.5 A2.5,2.5 0 0 1 678.4389,700 L358.4389,700 A2.5,2.5 0 0 1 355.9389,697.5 L355.9389,137.5 A2.5,2.5 0 0 1 358.4389,135 " fill="none" style="stroke:#000000;stroke-width:1.5;"/><line style="stroke:#000000;stroke-width:1.5;" x1="355.9389" x2="401.9389" y1="157.4883" y2="157.4883"/><text fill="#000000" font-family="sans-serif" font-size="14" font-weight="bold" lengthAdjust="spacing" textLength="33" x="359.9389" y="150.5352">gdpr</text></g><!--class Process--><g id="elem_Process"><rect codeLine="6" fill="#F1F1F1" height="26.4883" id="Process" rx="2.5" ry="2.5" style="stroke:#181818;stroke-width:0.5;" width="58" x="116.9389" y="254.76"/><text fill="#000000" font-family="sans-serif" font-size="14" lengthAdjust="spacing" textLength="52" x="119.9389" y="273.2952">Process</text></g><!--class TechnicalOrganisationalMeasure--><g id="elem_TechnicalOrganisationalMeasure"><rect codeLine="7" fill="#F1F1F1" height="26.4883" id="TechnicalOrganisationalMeasure" rx="2.5" ry="2.5" style="stroke:#181818;stroke-width:0.5;" width="230" x="30.9389" y="332.76"/><text fill="#000000" font-family="sans-serif" font-size="14" lengthAdjust="spacing" textLength="224" x="33.9389" y="351.2952">TechnicalOrganisationalMeasure</text></g><!--class OrganisationalMeasure--><g id="elem_OrganisationalMeasure"><rect codeLine="8" fill="#F1F1F1" height="26.4883" id="OrganisationalMeasure" rx="2.5" ry="2.5" style="stroke:#181818;stroke-width:0.5;" width="165" x="63.4389" y="413.76"/><text fill="#000000" font-family="sans-serif" font-size="14" lengthAdjust="spacing" textLength="159" x="66.4389" y="432.2952">OrganisationalMeasure</text></g><polygon fill="none" points="228.4389,427.0009,248.4386,420.0001,248.4392,434.0001" style="stroke:#181818;stroke-width:1.0;"/><line style="stroke:#181818;stroke-width:1.0;" x1="248.4389" x2="249.9389" y1="427.0001" y2="427"/><line style="stroke:#181818;stroke-width:1.0;" x1="145.9389" x2="145.9389" y1="413.76" y2="393.46"/><!--class DataTransferTool--><g id="elem_DataTransferTool"><rect codeLine="11" fill="#F1F1F1" height="26.4883" id="DataTransferTool" rx="2.5" ry="2.5" style="stroke:#181818;stroke-width:0.5;" width="126" x="455.4389" y="657.76"/><text fill="#000000" font-family="sans-serif" font-size="14" lengthAdjust="spacing" textLength="120" x="458.4389" y="676.2952">DataTransferTool</text></g><!--class AdHocContractualClauses--><g id="elem_AdHocContractualClauses"><rect codeLine="12" fill="#F1F1F1" height="26.4883" id="AdHocContractualClauses" rx="2.5" ry="2.5" style="stroke:#181818;stroke-width:0.5;" width="184" x="426.4389" y="596.76"/><text fill="#000000" font-family="sans-serif" font-size="14" lengthAdjust="spacing" textLength="178" x="429.4389" y="615.2952">AdHocContractualClauses</text></g><!--class BindingCorporateRules--><g id="elem_BindingCorporateRules"><rect codeLine="13" fill="#F1F1F1" height="26.4883" id="BindingCorporateRules" rx="2.5" ry="2.5" style="stroke:#181818;stroke-width:0.5;" width="165" x="435.9389" y="535.76"/><text fill="#000000" font-family="sans-serif" font-size="14" lengthAdjust="spacing" textLength="159" x="438.9389" y="554.2952">BindingCorporateRules</text></g><!--class CertificationMechanismsForDataTransfers--><g id="elem_CertificationMechanismsForDataTransfers"><rect codeLine="14" fill="#F1F1F1" height="26.4883" id="CertificationMechanismsForDataTransfers" rx="2.5" ry="2.5" style="stroke:#181818;stroke-width:0.5;" width="293" x="371.9389" y="474.76"/><text fill="#000000" font-family="sans-serif" font-size="14" lengthAdjust="spacing" textLength="287" x="374.9389" y="493.2952">CertificationMechanismsForDataTransfers</text></g><!--class CodesOfConductForDataTransfers--><g id="elem_CodesOfConductForDataTransfers"><rect codeLine="15" fill="#F1F1F1" height="26.4883" id="CodesOfConductForDataTransfers" rx="2.5" ry="2.5" style="stroke:#181818;stroke-width:0.5;" width="242" x="397.4389" y="413.76"/><text fill="#000000" font-family="sans-serif" font-size="14" lengthAdjust="spacing" textLength="236" x="400.4389" y="432.2952">CodesOfConductForDataTransfers</text></g><!--class SCCByCommission--><g id="elem_SCCByCommission"><rect codeLine="16" fill="#F1F1F1" height="26.4883" id="SCCByCommission" rx="2.5" ry="2.5" style="stroke:#181818;stroke-width:0.5;" width="134" x="451.4389" y="352.76"/><text fill="#000000" font-family="sans-serif" font-size="14" lengthAdjust="spacing" textLength="128" x="454.4389" y="371.2952">SCCByCommission</text></g><!--class SCCBySupervisoryAuthority--><g id="elem_SCCBySupervisoryAuthority"><rect codeLine="17" fill="#F1F1F1" height="26.4883" id="SCCBySupervisoryAuthority" rx="2.5" ry="2.5" style="stroke:#181818;stroke-width:0.5;" width="193" x="421.9389" y="291.76"/><text fill="#000000" font-family="sans-serif" font-size="14" lengthAdjust="spacing" textLength="187" x="424.9389" y="310.2952">SCCBySupervisoryAuthority</text></g><!--class StandardContractualClauses--><g id="elem_StandardContractualClauses"><rect codeLine="18" fill="#F1F1F1" height="26.4883" id="StandardContractualClauses" rx="2.5" ry="2.5" style="stroke:#181818;stroke-width:0.5;" width="201" x="417.9389" y="230.76"/><text fill="#000000" font-family="sans-serif" font-size="14" lengthAdjust="spacing" textLength="195" x="420.9389" y="249.2952">StandardContractualClauses</text></g><!--class SupplementaryMeasure--><g id="elem_SupplementaryMeasure"><rect codeLine="19" fill="#F1F1F1" height="26.4883" id="SupplementaryMeasure" rx="2.5" ry="2.5" style="stroke:#181818;stroke-width:0.5;" width="167" x="434.9389" y="169.76"/><text fill="#000000" font-family="sans-serif" font-size="14" lengthAdjust="spacing" textLength="161" x="437.9389" y="188.2952">SupplementaryMeasure</text></g><!--link TechnicalOrganisationalMeasure to Process--><g id="link_TechnicalOrganisationalMeasure_Process"><path codeLine="22" d="M145.9389,332.41 C145.9389,318.18 145.9389,295.96 145.9389,281.69 " fill="none" id="TechnicalOrganisationalMeasure-Process" style="stroke:#181818;stroke-width:1.0;"/><polygon fill="#000000" points="18.9389,312.1553,21.8779,303.1102,16,303.1102,18.9389,312.1553" style="stroke:#000000;stroke-width:1.0;"/><text fill="#000000" font-family="sans-serif" font-size="13" lengthAdjust="spacing" textLength="226" x="27.9389" y="312.0684">hasTechnicalOrganisationalMeasure</text></g><!--link OrganisationalMeasure to TechnicalOrganisationalMeasure--><g id="link_OrganisationalMeasure_TechnicalOrganisationalMeasure"><path codeLine="23" d="M145.9389,393.46 C145.9389,382.21 145.9389,388.97 145.9389,377.72 " fill="none" id="OrganisationalMeasure-to-TechnicalOrganisationalMeasure" style="stroke:#181818;stroke-width:1.0;"/><polygon fill="none" points="145.9389,359.72,139.9389,377.72,151.9389,377.72,145.9389,359.72" style="stroke:#181818;stroke-width:1.0;"/></g><!--reverse link OrganisationalMeasure to DataTransferTool--><g id="link_OrganisationalMeasure_DataTransferTool"><path codeLine="24" d="M249.9389,427 C249.9389,427 263.8489,608.1 299.9389,641 C341.3489,678.75 406.9189,683.04 455.2489,679.85 " fill="none" id="OrganisationalMeasure-backto-DataTransferTool" style="stroke:#181818;stroke-width:1.0;"/></g><!--reverse link OrganisationalMeasure to AdHocContractualClauses--><g id="link_OrganisationalMeasure_AdHocContractualClauses"><path codeLine="25" d="M249.9389,427 C249.9389,427 245.0389,534.13 299.9389,580 C334.4589,608.84 383.3589,617.47 426.0589,618.39 " fill="none" id="OrganisationalMeasure-backto-AdHocContractualClauses" style="stroke:#181818;stroke-width:1.0;"/></g><!--reverse link OrganisationalMeasure to BindingCorporateRules--><g id="link_OrganisationalMeasure_BindingCorporateRules"><path codeLine="26" d="M249.9389,427 C249.9389,427 261.6589,492.53 299.9389,519 C339.1289,546.1 391.8989,553.89 435.6489,554.76 " fill="none" id="OrganisationalMeasure-backto-BindingCorporateRules" style="stroke:#181818;stroke-width:1.0;"/></g><!--reverse link OrganisationalMeasure to CertificationMechanismsForDataTransfers--><g id="link_OrganisationalMeasure_CertificationMechanismsForDataTransfers"><path codeLine="27" d="M249.9389,427 C249.9389,427 275.3389,449.13 299.9389,458 C322.5289,466.14 347.1789,472.1 371.4889,476.44 " fill="none" id="OrganisationalMeasure-backto-CertificationMechanismsForDataTransfers" style="stroke:#181818;stroke-width:1.0;"/></g><!--reverse link OrganisationalMeasure to CodesOfConductForDataTransfers--><g id="link_OrganisationalMeasure_CodesOfConductForDataTransfers"><path codeLine="28" d="M249.9389,427 C249.9389,427 325.9889,427 396.9889,427 " fill="none" id="OrganisationalMeasure-backto-CodesOfConductForDataTransfers" style="stroke:#181818;stroke-width:1.0;"/></g><!--reverse link OrganisationalMeasure to SCCByCommission--><g id="link_OrganisationalMeasure_SCCByCommission"><path codeLine="29" d="M249.9389,427 C249.9389,427 275.3389,404.87 299.9389,396 C348.7089,378.42 407.0389,371.05 451.0189,368.01 " fill="none" id="OrganisationalMeasure-backto-SCCByCommission" style="stroke:#181818;stroke-width:1.0;"/></g><!--reverse link OrganisationalMeasure to SCCBySupervisoryAuthority--><g id="link_OrganisationalMeasure_SCCBySupervisoryAuthority"><path codeLine="30" d="M249.9389,427 C249.9389,427 261.6589,361.47 299.9389,335 C334.9789,310.77 380.8689,301.98 421.4589,299.76 " fill="none" id="OrganisationalMeasure-backto-SCCBySupervisoryAuthority" style="stroke:#181818;stroke-width:1.0;"/></g><!--reverse link OrganisationalMeasure to StandardContractualClauses--><g id="link_OrganisationalMeasure_StandardContractualClauses"><path codeLine="31" d="M249.9389,427 C249.9389,427 286.2189,285.47 299.9389,274 C332.1889,247.06 376.9989,237.75 417.5789,235.9 " fill="none" id="OrganisationalMeasure-backto-StandardContractualClauses" style="stroke:#181818;stroke-width:1.0;"/></g><!--reverse link OrganisationalMeasure to SupplementaryMeasure--><g id="link_OrganisationalMeasure_SupplementaryMeasure"><path codeLine="32" d="M249.9389,427 C249.9389,427 297.6789,215.06 299.9389,213 C335.7189,180.39 389.5189,172.75 434.6689,173.33 " fill="none" id="OrganisationalMeasure-backto-SupplementaryMeasure" style="stroke:#181818;stroke-width:1.0;"/></g><!--SRC=[ZLB1JiCm33tJhmWVq1uu8eIq5I4uJ4DiFs0bRXlDJI8xcLG1_quhiNM2jkCO-xtusU_TMgSf6LGIEy8Y4BYOMihaO5q0XbRLx5DuTGsoZU0qghkCi8egUiMsRg8obb57wrsM1T07g56PS5GVsOqc455lx3MAd9vxr8sp6cZBDJWhC521DWYI64-ewURNvOI2i0OgC1Mr2JpEUu88UmOd5VBUUphLL-R5wzAxoA1Z0Ye9ak1PrzewOrrTUWwU8U9xeh5P8aTRzQe7FPj-Wq5SAy-UBwUDS6zGjbK_p2GTvr2xibntfMzRApASxxAyIm7vQCLpjqgnyVtnkpEWzy40c_bTUdOWRD55u6uyNlPZXShJ5HlKlMf0hc0Uiok0Xy-SyXahPndvNmCNi7EcBb2cZLuW_DVyfI-M0x70_1sIQz39u2oHviEqn9eAs3S0]--></g></svg>