<svg xmlns="http://www.w3.org/2000/svg" xmlns:xlink="http://www.w3.org/1999/xlink" contentStyleType="text/css" height="273px" preserveAspectRatio="none" style="width:548px;height:273px;background:#FFFFFF;" version="1.1" viewBox="0 0 548 273" width="548px" zoomAndPan="magnify"><defs/><g><!--cluster dpv--><g id="cluster_dpv"><path d="M185.5,6 L212.5,6 A3.75,3.75 0 0 1 215,8.5 L222,28.4883 L538.5,28.4883 A2.5,2.5 0 0 1 541,30.9883 L541,263.5 A2.5,2.5 0 0 1 538.5,266 L185.5,266 A2.5,2.5 0 0 1 183,263.5 L183,8.5 A2.5,2.5 0 0 1 185.5,6 " fill="none" style="stroke:#000000;stroke-width:1.5;"/><line style="stroke:#000000;stroke-width:1.5;" x1="183" x2="222" y1="28.4883" y2="28.4883"/><text fill="#000000" font-family="sans-serif" font-size="14" font-weight="bold" lengthAdjust="spacing" textLength="26" x="187" y="21.5352">dpv</text></g><!--class StorageDuration--><g id="elem_StorageDuration"><rect codeLine="6" fill="#F1F1F1" height="26.4883" id="StorageDuration" rx="2.5" ry="2.5" style="stroke:#181818;stroke-width:0.5;" width="119" x="396.5" y="162.76"/><text fill="#000000" font-family="sans-serif" font-size="14" lengthAdjust="spacing" textLength="113" x="399.5" y="181.2952">StorageDuration</text></g><!--class StorageLocation--><g id="elem_StorageLocation"><rect codeLine="7" fill="#F1F1F1" height="26.4883" id="StorageLocation" rx="2.5" ry="2.5" style="stroke:#181818;stroke-width:0.5;" width="117" x="397.5" y="223.76"/><text fill="#000000" font-family="sans-serif" font-size="14" lengthAdjust="spacing" textLength="111" x="400.5" y="242.2952">StorageLocation</text></g><!--class StorageDeletion--><g id="elem_StorageDeletion"><rect codeLine="8" fill="#F1F1F1" height="26.4883" id="StorageDeletion" rx="2.5" ry="2.5" style="stroke:#181818;stroke-width:0.5;" width="116" x="398" y="101.76"/><text fill="#000000" font-family="sans-serif" font-size="14" lengthAdjust="spacing" textLength="110" x="401" y="120.2952">StorageDeletion</text></g><!--class StorageRestoration--><g id="elem_StorageRestoration"><rect codeLine="9" fill="#F1F1F1" height="26.4883" id="StorageRestoration" rx="2.5" ry="2.5" style="stroke:#181818;stroke-width:0.5;" width="138" x="387" y="40.76"/><text fill="#000000" font-family="sans-serif" font-size="14" lengthAdjust="spacing" textLength="132" x="390" y="59.2952">StorageRestoration</text></g><!--class StorageCondition--><g id="elem_StorageCondition"><rect codeLine="10" fill="#F1F1F1" height="26.4883" id="StorageCondition" rx="2.5" ry="2.5" style="stroke:#181818;stroke-width:0.5;" width="127" x="199" y="98.76"/><text fill="#000000" font-family="sans-serif" font-size="14" lengthAdjust="spacing" textLength="121" x="202" y="117.2952">StorageCondition</text></g><!--class Thing--><g id="elem_Thing"><rect codeLine="4" fill="#C0C0C0" height="26.4883" id="Thing" rx="2.5" ry="2.5" style="stroke:#181818;stroke-width:0.5;" width="46" x="7" y="163.76"/><text fill="#000000" font-family="sans-serif" font-size="14" lengthAdjust="spacing" textLength="40" x="10" y="182.2952">Thing</text></g><!--link Thing to StorageCondition--><g id="link_Thing_StorageCondition"><path codeLine="12" d="M53.47,166.54 C62.52,162.58 73.13,158.25 83,155 C120.84,142.53 164.29,131.99 198.84,124.46 " fill="none" id="Thing-StorageCondition" style="stroke:#181818;stroke-width:1.0;"/><polygon fill="#000000" points="92.8028,123.265,83.2973,122.957,84.9316,128.6031,92.8028,123.265" style="stroke:#000000;stroke-width:1.0;"/><text fill="#000000" font-family="sans-serif" font-size="13" lengthAdjust="spacing" textLength="69" x="97" y="129.5684">hasStorage</text></g><!--link Thing to StorageDuration--><g id="link_Thing_StorageDuration"><path codeLine="13" d="M53.5,176.95 C117.27,176.8 300.77,176.36 396.03,176.14 " fill="none" id="Thing-StorageDuration" style="stroke:#181818;stroke-width:1.0;"/><polygon fill="#000000" points="226.5,168.6434,217.448,165.7259,217.4619,171.6038,226.5,168.6434" style="stroke:#000000;stroke-width:1.0;"/><text fill="#000000" font-family="sans-serif" font-size="13" lengthAdjust="spacing" textLength="77" x="230.5" y="173.5684">hasDuration</text></g><!--link Thing to StorageLocation--><g id="link_Thing_StorageLocation"><path codeLine="14" d="M53.39,181.23 C81.67,186.49 131.83,195.56 175,202 C251.68,213.44 340.55,224.11 397.24,230.59 " fill="none" id="Thing-StorageLocation" style="stroke:#181818;stroke-width:1.0;"/><polygon fill="#000000" points="226.9493,194.3657,218.4136,190.1714,217.5784,195.9896,226.9493,194.3657" style="stroke:#000000;stroke-width:1.0;"/><text fill="#000000" font-family="sans-serif" font-size="13" lengthAdjust="spacing" textLength="76" x="231" y="198.5684">hasLocation</text></g><!--reverse link StorageCondition to StorageDuration--><g id="link_StorageCondition_StorageDuration"><path codeLine="16" d="M344.0196,126.475 C354.3396,128.855 347.29,127.65 357,131 C371.09,135.86 373.51,139.66 387,146 C398.68,151.49 411.61,157.27 423.03,162.27 " fill="none" id="StorageCondition-backto-StorageDuration" style="stroke:#181818;stroke-width:1.0;"/><polygon fill="none" points="326.48,122.43,342.6713,132.3215,345.3679,120.6285,326.48,122.43" style="stroke:#181818;stroke-width:1.0;"/></g><!--reverse link StorageCondition to StorageLocation--><g id="link_StorageCondition_StorageLocation"><path codeLine="17" d="M302.0256,134.9618 C314.0756,142.3318 313.5,142.47 326,152 C355.03,174.14 356.36,187.16 387,207 C396.64,213.24 407.8,218.77 418.25,223.33 " fill="none" id="StorageCondition-backto-StorageLocation" style="stroke:#181818;stroke-width:1.0;"/><polygon fill="none" points="286.67,125.57,298.895,140.0803,305.1562,129.8432,286.67,125.57" style="stroke:#181818;stroke-width:1.0;"/></g><!--reverse link StorageCondition to StorageDeletion--><g id="link_StorageCondition_StorageDeletion"><path codeLine="18" d="M344.4678,113.2717 C367.4678,113.6317 375.34,113.75 397.81,114.1 " fill="none" id="StorageCondition-backto-StorageDeletion" style="stroke:#181818;stroke-width:1.0;"/><polygon fill="none" points="326.47,112.99,344.3739,119.271,344.5617,107.2724,326.47,112.99" style="stroke:#181818;stroke-width:1.0;"/></g><!--reverse link StorageCondition to StorageRestoration--><g id="link_StorageCondition_StorageRestoration"><path codeLine="19" d="M325.6273,93.1827 C356.1373,83.9427 379.13,76.98 409.72,67.71 " fill="none" id="StorageCondition-backto-StorageRestoration" style="stroke:#181818;stroke-width:1.0;"/><polygon fill="none" points="308.4,98.4,327.3664,98.9251,323.8882,87.4403,308.4,98.4" style="stroke:#181818;stroke-width:1.0;"/></g><!--SRC=[VP313i8W38RFzYbgFEi36EF57JsfBq2WRiGA2x0bHdrt9vD5PTcDVlrect-kZUH64VfmOrhLB4nehWnCvu31ejDb5L1fHp9eQm0a2-_nL6bJui9hRib1BUH5b8IgRl4Eiruv1kiwM3HEn9-_U6_b62w8QGGVoByV8vsTDKf7_eJ-gEKowwsn4lu3SPjvwKICtb3bOZewUgdeFFXVY9j7FdxQ6WAPdfNocRI-ute1]--></g></svg>